G75*
%MOIN*%
%OFA0B0*%
%FSLAX24Y24*%
%IPPOS*%
%LPD*%
%AMOC8*
5,1,8,0,0,1.08239X$1,22.5*
%
%ADD10C,0.0100*%
%ADD11C,0.0600*%
%ADD12C,0.0240*%
%ADD13C,0.0160*%
%ADD14C,0.0270*%
%ADD15C,0.0570*%
%ADD16C,0.0720*%
%ADD17C,0.0080*%
%ADD18C,0.0120*%
%ADD19C,0.0320*%
D10*
X001820Y001850D02*
X017340Y001840D01*
X018270Y002770D01*
X018270Y010130D01*
X017350Y011050D01*
X001820Y011050D01*
X001820Y001850D01*
X002020Y002050D02*
X002020Y010850D01*
X002292Y010850D01*
X002206Y010815D01*
X002085Y010694D01*
X002020Y010536D01*
X002020Y010364D01*
X002085Y010206D01*
X002206Y010085D01*
X002364Y010020D01*
X002536Y010020D01*
X002694Y010085D01*
X002815Y010206D01*
X002880Y010364D01*
X002880Y010536D01*
X002815Y010694D01*
X002694Y010815D01*
X002608Y010850D01*
X003292Y010850D01*
X003206Y010815D01*
X003085Y010694D01*
X003020Y010536D01*
X003020Y010364D01*
X003085Y010206D01*
X003206Y010085D01*
X003364Y010020D01*
X003536Y010020D01*
X003694Y010085D01*
X003815Y010206D01*
X003880Y010364D01*
X003880Y010536D01*
X003815Y010694D01*
X003694Y010815D01*
X003608Y010850D01*
X004292Y010850D01*
X004206Y010815D01*
X004085Y010694D01*
X004020Y010536D01*
X004020Y010364D01*
X004085Y010206D01*
X004206Y010085D01*
X004364Y010020D01*
X004536Y010020D01*
X004694Y010085D01*
X004815Y010206D01*
X004880Y010364D01*
X004880Y010536D01*
X004815Y010694D01*
X004694Y010815D01*
X004608Y010850D01*
X005292Y010850D01*
X005206Y010815D01*
X005085Y010694D01*
X005020Y010536D01*
X005020Y010364D01*
X005085Y010206D01*
X005206Y010085D01*
X005364Y010020D01*
X005536Y010020D01*
X005694Y010085D01*
X005815Y010206D01*
X005880Y010364D01*
X005880Y010536D01*
X005815Y010694D01*
X005694Y010815D01*
X005608Y010850D01*
X006292Y010850D01*
X006206Y010815D01*
X006085Y010694D01*
X006020Y010536D01*
X006020Y010364D01*
X006085Y010206D01*
X006206Y010085D01*
X006364Y010020D01*
X006536Y010020D01*
X006694Y010085D01*
X006815Y010206D01*
X006880Y010364D01*
X006880Y010536D01*
X006815Y010694D01*
X006694Y010815D01*
X006608Y010850D01*
X007292Y010850D01*
X007206Y010815D01*
X007085Y010694D01*
X007020Y010536D01*
X007020Y010364D01*
X007085Y010206D01*
X007206Y010085D01*
X007364Y010020D01*
X007536Y010020D01*
X007694Y010085D01*
X007815Y010206D01*
X007880Y010364D01*
X007880Y010536D01*
X007815Y010694D01*
X007694Y010815D01*
X007608Y010850D01*
X008292Y010850D01*
X008206Y010815D01*
X008085Y010694D01*
X008020Y010536D01*
X008020Y010364D01*
X008085Y010206D01*
X008206Y010085D01*
X008364Y010020D01*
X008483Y010020D01*
X008640Y009863D01*
X008640Y009835D01*
X008580Y009860D01*
X008480Y009860D01*
X008388Y009822D01*
X008318Y009752D01*
X008280Y009660D01*
X008280Y009657D01*
X008240Y009617D01*
X008240Y008637D01*
X007663Y008060D01*
X006635Y008060D01*
X006675Y008100D01*
X006715Y008197D01*
X006715Y008303D01*
X006675Y008400D01*
X006600Y008475D01*
X006503Y008515D01*
X006397Y008515D01*
X006300Y008475D01*
X006250Y008425D01*
X006200Y008475D01*
X006103Y008515D01*
X005997Y008515D01*
X005900Y008475D01*
X005850Y008425D01*
X005800Y008475D01*
X005703Y008515D01*
X005597Y008515D01*
X005500Y008475D01*
X005425Y008400D01*
X005385Y008303D01*
X005385Y008197D01*
X005425Y008100D01*
X005500Y008025D01*
X005520Y008017D01*
X005202Y007699D01*
X005172Y007772D01*
X005102Y007842D01*
X005010Y007880D01*
X004910Y007880D01*
X004818Y007842D01*
X004786Y007810D01*
X004745Y007810D01*
X004650Y007905D01*
X004650Y008395D01*
X005125Y008870D01*
X005230Y008975D01*
X005230Y009396D01*
X005242Y009408D01*
X005280Y009500D01*
X005280Y009600D01*
X005242Y009692D01*
X005172Y009762D01*
X005080Y009800D01*
X004980Y009800D01*
X004888Y009762D01*
X004818Y009692D01*
X004817Y009688D01*
X004815Y009694D01*
X004694Y009815D01*
X004536Y009880D01*
X004364Y009880D01*
X004206Y009815D01*
X004085Y009694D01*
X004020Y009536D01*
X004020Y009364D01*
X004085Y009206D01*
X004206Y009085D01*
X004364Y009020D01*
X004536Y009020D01*
X004694Y009085D01*
X004815Y009206D01*
X004870Y009340D01*
X004870Y009125D01*
X004290Y008545D01*
X004290Y008507D01*
X004060Y008737D01*
X003937Y008860D01*
X002737Y008860D01*
X002660Y008937D01*
X002660Y009072D01*
X002694Y009085D01*
X002815Y009206D01*
X002880Y009364D01*
X002880Y009536D01*
X002815Y009694D01*
X002694Y009815D01*
X002536Y009880D01*
X002364Y009880D01*
X002206Y009815D01*
X002085Y009694D01*
X002020Y009536D01*
X002020Y009364D01*
X002085Y009206D01*
X002206Y009085D01*
X002240Y009072D01*
X002240Y008763D01*
X002440Y008563D01*
X002563Y008440D01*
X002886Y008440D01*
X002838Y008392D01*
X002800Y008300D01*
X002800Y008200D01*
X002838Y008108D01*
X002870Y008076D01*
X002870Y007767D01*
X002740Y007637D01*
X002740Y007163D01*
X002863Y007040D01*
X003940Y005963D01*
X003940Y005663D01*
X004463Y005140D01*
X006263Y005140D01*
X006563Y004840D01*
X007391Y004840D01*
X007401Y004830D01*
X007400Y004830D01*
X007308Y004792D01*
X007238Y004722D01*
X007200Y004630D01*
X007200Y004530D01*
X007238Y004438D01*
X007286Y004390D01*
X004793Y004390D01*
X003803Y003400D01*
X002703Y003400D01*
X002631Y003328D01*
X002635Y003337D01*
X002635Y003443D01*
X002595Y003540D01*
X002520Y003615D01*
X002423Y003655D01*
X002317Y003655D01*
X002220Y003615D01*
X002145Y003540D01*
X002105Y003443D01*
X002105Y003337D01*
X002145Y003240D01*
X002220Y003165D01*
X002317Y003125D01*
X002423Y003125D01*
X002432Y003129D01*
X002363Y003060D01*
X002240Y002937D01*
X002240Y002828D01*
X002206Y002815D01*
X002085Y002694D01*
X002020Y002536D01*
X002020Y002364D01*
X002085Y002206D01*
X002206Y002085D01*
X002293Y002050D01*
X002020Y002050D01*
X002020Y002119D02*
X002173Y002119D01*
X002081Y002217D02*
X002020Y002217D01*
X002020Y002316D02*
X002040Y002316D01*
X002020Y002414D02*
X002020Y002414D01*
X002020Y002513D02*
X002020Y002513D01*
X002020Y002611D02*
X002051Y002611D01*
X002020Y002710D02*
X002101Y002710D01*
X002020Y002808D02*
X002200Y002808D01*
X002240Y002907D02*
X002020Y002907D01*
X002020Y003005D02*
X002308Y003005D01*
X002407Y003104D02*
X002020Y003104D01*
X002020Y003202D02*
X002183Y003202D01*
X002120Y003301D02*
X002020Y003301D01*
X002020Y003399D02*
X002105Y003399D01*
X002128Y003498D02*
X002020Y003498D01*
X002020Y003596D02*
X002201Y003596D01*
X002020Y003695D02*
X004098Y003695D01*
X004196Y003793D02*
X002020Y003793D01*
X002020Y003892D02*
X004295Y003892D01*
X004393Y003990D02*
X002020Y003990D01*
X002020Y004089D02*
X004492Y004089D01*
X004590Y004187D02*
X002020Y004187D01*
X002020Y004286D02*
X004689Y004286D01*
X004787Y004384D02*
X002020Y004384D01*
X002020Y004483D02*
X007220Y004483D01*
X007200Y004581D02*
X003596Y004581D01*
X003580Y004565D02*
X003655Y004640D01*
X003695Y004737D01*
X003695Y004843D01*
X003655Y004940D01*
X003580Y005015D01*
X003483Y005055D01*
X003377Y005055D01*
X003280Y005015D01*
X003205Y004940D01*
X003165Y004843D01*
X003165Y004737D01*
X003205Y004640D01*
X003280Y004565D01*
X003377Y004525D01*
X003483Y004525D01*
X003580Y004565D01*
X003671Y004680D02*
X007221Y004680D01*
X007294Y004778D02*
X003695Y004778D01*
X003681Y004877D02*
X006527Y004877D01*
X006428Y004975D02*
X003620Y004975D01*
X003240Y004975D02*
X002020Y004975D01*
X002020Y004877D02*
X003179Y004877D01*
X003165Y004778D02*
X002020Y004778D01*
X002020Y004680D02*
X003189Y004680D01*
X003264Y004581D02*
X002020Y004581D01*
X002020Y005074D02*
X006330Y005074D01*
X006628Y005369D02*
X009072Y005369D01*
X009103Y005400D02*
X008980Y005277D01*
X008980Y005235D01*
X008498Y004753D01*
X008475Y004810D01*
X008400Y004885D01*
X008303Y004925D01*
X008197Y004925D01*
X008100Y004885D01*
X008025Y004810D01*
X008006Y004763D01*
X007660Y005109D01*
X007660Y005137D01*
X007537Y005260D01*
X006737Y005260D01*
X006560Y005437D01*
X006437Y005560D01*
X004637Y005560D01*
X004360Y005837D01*
X004360Y006137D01*
X003160Y007337D01*
X003160Y007463D01*
X003260Y007563D01*
X003260Y007737D01*
X003230Y007767D01*
X003230Y008076D01*
X003262Y008108D01*
X003300Y008200D01*
X003300Y008300D01*
X003262Y008392D01*
X003214Y008440D01*
X003763Y008440D01*
X003940Y008263D01*
X003940Y007463D01*
X004063Y007340D01*
X004463Y006940D01*
X005022Y006940D01*
X004978Y006922D01*
X004908Y006852D01*
X004870Y006760D01*
X004870Y006660D01*
X004800Y006660D01*
X004708Y006622D01*
X004638Y006552D01*
X004600Y006460D01*
X004600Y006360D01*
X004638Y006268D01*
X004708Y006198D01*
X004800Y006160D01*
X004860Y006160D01*
X004860Y006150D01*
X004898Y006058D01*
X004921Y006036D01*
X004875Y005990D01*
X004835Y005893D01*
X004835Y005787D01*
X004875Y005690D01*
X004950Y005615D01*
X005047Y005575D01*
X005153Y005575D01*
X005250Y005615D01*
X005325Y005690D01*
X005365Y005787D01*
X005365Y005893D01*
X005325Y005990D01*
X005289Y006026D01*
X005304Y006040D01*
X005637Y006040D01*
X005760Y006163D01*
X006937Y007340D01*
X008737Y007340D01*
X008860Y007463D01*
X009560Y008163D01*
X009560Y008837D01*
X009437Y008960D01*
X009060Y009337D01*
X009060Y010037D01*
X008937Y010160D01*
X008937Y010160D01*
X008837Y010260D01*
X008880Y010364D01*
X008880Y010536D01*
X008815Y010694D01*
X008694Y010815D01*
X008608Y010850D01*
X009292Y010850D01*
X009206Y010815D01*
X009085Y010694D01*
X009020Y010536D01*
X009020Y010364D01*
X009085Y010206D01*
X009170Y010122D01*
X009170Y009435D01*
X009580Y009025D01*
X009580Y008580D01*
X009680Y008480D01*
X010382Y007778D01*
X010318Y007752D01*
X010248Y007682D01*
X010232Y007643D01*
X010212Y007692D01*
X010142Y007762D01*
X010050Y007800D01*
X009950Y007800D01*
X009858Y007762D01*
X009788Y007692D01*
X009783Y007680D01*
X009772Y007692D01*
X009680Y007730D01*
X009580Y007730D01*
X009488Y007692D01*
X009418Y007622D01*
X009380Y007530D01*
X009380Y007430D01*
X009418Y007338D01*
X009488Y007268D01*
X009580Y007230D01*
X009680Y007230D01*
X009772Y007268D01*
X009842Y007338D01*
X009847Y007350D01*
X009858Y007338D01*
X009950Y007300D01*
X010050Y007300D01*
X010142Y007338D01*
X010212Y007408D01*
X010228Y007447D01*
X010248Y007398D01*
X010286Y007360D01*
X010258Y007332D01*
X010220Y007240D01*
X010220Y007140D01*
X010258Y007048D01*
X010328Y006978D01*
X010420Y006940D01*
X010520Y006940D01*
X010612Y006978D01*
X010682Y007048D01*
X010720Y007140D01*
X010720Y007240D01*
X010682Y007332D01*
X010644Y007370D01*
X010672Y007398D01*
X010698Y007462D01*
X011150Y007010D01*
X011150Y006754D01*
X011142Y006762D01*
X011050Y006800D01*
X010950Y006800D01*
X010858Y006762D01*
X010793Y006697D01*
X010762Y006772D01*
X010692Y006842D01*
X010600Y006880D01*
X010500Y006880D01*
X010408Y006842D01*
X010338Y006772D01*
X010300Y006680D01*
X010300Y006580D01*
X010338Y006488D01*
X010340Y006486D01*
X010340Y006237D01*
X009503Y005400D01*
X009103Y005400D01*
X008980Y005271D02*
X006726Y005271D01*
X006529Y005468D02*
X009571Y005468D01*
X009669Y005566D02*
X004631Y005566D01*
X004532Y005665D02*
X004901Y005665D01*
X004845Y005763D02*
X004434Y005763D01*
X004360Y005862D02*
X004835Y005862D01*
X004863Y005960D02*
X004360Y005960D01*
X004360Y006059D02*
X004898Y006059D01*
X004860Y006157D02*
X004340Y006157D01*
X004241Y006256D02*
X004651Y006256D01*
X004603Y006354D02*
X004143Y006354D01*
X004044Y006453D02*
X004600Y006453D01*
X004638Y006551D02*
X003946Y006551D01*
X003847Y006650D02*
X004775Y006650D01*
X004870Y006660D02*
X004870Y006660D01*
X004870Y006748D02*
X003749Y006748D01*
X003650Y006847D02*
X004906Y006847D01*
X004458Y006945D02*
X003552Y006945D01*
X003453Y007044D02*
X004359Y007044D01*
X004261Y007142D02*
X003355Y007142D01*
X003256Y007241D02*
X004162Y007241D01*
X004064Y007339D02*
X003160Y007339D01*
X003160Y007438D02*
X003965Y007438D01*
X003940Y007536D02*
X003233Y007536D01*
X003260Y007635D02*
X003940Y007635D01*
X003940Y007733D02*
X003260Y007733D01*
X003230Y007832D02*
X003940Y007832D01*
X003940Y007930D02*
X003230Y007930D01*
X003230Y008029D02*
X003940Y008029D01*
X003940Y008127D02*
X003270Y008127D01*
X003300Y008226D02*
X003940Y008226D01*
X003879Y008324D02*
X003290Y008324D01*
X003231Y008423D02*
X003780Y008423D01*
X004079Y008718D02*
X004463Y008718D01*
X004365Y008620D02*
X004177Y008620D01*
X004276Y008521D02*
X004290Y008521D01*
X004470Y008470D02*
X005050Y009050D01*
X005050Y009530D01*
X005030Y009550D01*
X004829Y009703D02*
X004805Y009703D01*
X004707Y009802D02*
X005785Y009802D01*
X005785Y009797D02*
X005825Y009700D01*
X005900Y009625D01*
X005997Y009585D01*
X006103Y009585D01*
X006200Y009625D01*
X006275Y009700D01*
X006315Y009797D01*
X006315Y009903D01*
X006275Y010000D01*
X006200Y010075D01*
X006103Y010115D01*
X005997Y010115D01*
X005900Y010075D01*
X005825Y010000D01*
X005785Y009903D01*
X005785Y009797D01*
X005824Y009703D02*
X005231Y009703D01*
X005278Y009605D02*
X005950Y009605D01*
X006150Y009605D02*
X007059Y009605D01*
X007065Y009620D02*
X007025Y009523D01*
X007025Y009417D01*
X007065Y009320D01*
X007140Y009245D01*
X007237Y009205D01*
X007275Y009205D01*
X007275Y009127D01*
X007315Y009030D01*
X007390Y008955D01*
X007458Y008927D01*
X007435Y008873D01*
X007435Y008767D01*
X007475Y008670D01*
X007550Y008595D01*
X007647Y008555D01*
X007753Y008555D01*
X007850Y008595D01*
X007925Y008670D01*
X007965Y008767D01*
X007965Y008873D01*
X007925Y008970D01*
X007850Y009045D01*
X007782Y009073D01*
X007805Y009127D01*
X007805Y009233D01*
X007765Y009330D01*
X007690Y009405D01*
X007593Y009445D01*
X007555Y009445D01*
X007555Y009523D01*
X007515Y009620D01*
X007440Y009695D01*
X007343Y009735D01*
X007237Y009735D01*
X007140Y009695D01*
X007065Y009620D01*
X007025Y009506D02*
X005280Y009506D01*
X005241Y009408D02*
X007029Y009408D01*
X007076Y009309D02*
X005230Y009309D01*
X005230Y009211D02*
X007224Y009211D01*
X007281Y009112D02*
X005230Y009112D01*
X005230Y009014D02*
X007332Y009014D01*
X007453Y008915D02*
X005170Y008915D01*
X005071Y008817D02*
X007435Y008817D01*
X007455Y008718D02*
X004973Y008718D01*
X004874Y008620D02*
X007526Y008620D01*
X007874Y008620D02*
X008223Y008620D01*
X008240Y008718D02*
X007945Y008718D01*
X007965Y008817D02*
X008240Y008817D01*
X008240Y008915D02*
X007947Y008915D01*
X007881Y009014D02*
X008240Y009014D01*
X008240Y009112D02*
X007799Y009112D01*
X007805Y009211D02*
X008240Y009211D01*
X008240Y009309D02*
X007773Y009309D01*
X007683Y009408D02*
X008240Y009408D01*
X008240Y009506D02*
X007555Y009506D01*
X007521Y009605D02*
X008240Y009605D01*
X008298Y009703D02*
X008046Y009703D01*
X008003Y009685D02*
X008100Y009725D01*
X008175Y009800D01*
X008215Y009897D01*
X008215Y010003D01*
X008175Y010100D01*
X008100Y010175D01*
X008003Y010215D01*
X007897Y010215D01*
X007800Y010175D01*
X007725Y010100D01*
X007685Y010003D01*
X007685Y009897D01*
X007725Y009800D01*
X007800Y009725D01*
X007897Y009685D01*
X008003Y009685D01*
X007854Y009703D02*
X007420Y009703D01*
X007160Y009703D02*
X006276Y009703D01*
X006315Y009802D02*
X007725Y009802D01*
X007685Y009900D02*
X006315Y009900D01*
X006275Y009999D02*
X007685Y009999D01*
X007705Y010097D02*
X007724Y010097D01*
X007804Y010196D02*
X007850Y010196D01*
X007851Y010294D02*
X008049Y010294D01*
X008050Y010196D02*
X008096Y010196D01*
X008176Y010097D02*
X008195Y010097D01*
X008215Y009999D02*
X008504Y009999D01*
X008603Y009900D02*
X008215Y009900D01*
X008175Y009802D02*
X008368Y009802D01*
X008901Y010196D02*
X009096Y010196D01*
X009049Y010294D02*
X008851Y010294D01*
X008880Y010393D02*
X009020Y010393D01*
X009020Y010491D02*
X008880Y010491D01*
X008858Y010590D02*
X009042Y010590D01*
X009083Y010688D02*
X008817Y010688D01*
X008722Y010787D02*
X009178Y010787D01*
X009450Y010450D02*
X009450Y010170D01*
X009350Y010070D01*
X009350Y009510D01*
X009750Y009110D01*
X009580Y009014D02*
X009383Y009014D01*
X009285Y009112D02*
X009493Y009112D01*
X009395Y009211D02*
X009186Y009211D01*
X009088Y009309D02*
X009296Y009309D01*
X009198Y009408D02*
X009060Y009408D01*
X009060Y009506D02*
X009170Y009506D01*
X009170Y009605D02*
X009060Y009605D01*
X009060Y009703D02*
X009170Y009703D01*
X009170Y009802D02*
X009060Y009802D01*
X009060Y009900D02*
X009170Y009900D01*
X009170Y009999D02*
X009060Y009999D01*
X009000Y010097D02*
X009170Y010097D01*
X009670Y009750D02*
X010370Y010450D01*
X010450Y010450D01*
X010608Y010850D02*
X010694Y010815D01*
X010815Y010694D01*
X010880Y010536D01*
X010880Y010364D01*
X010815Y010206D01*
X010694Y010085D01*
X010536Y010020D01*
X010364Y010020D01*
X010244Y010070D01*
X010073Y009898D01*
X010112Y009882D01*
X010182Y009812D01*
X010220Y009720D01*
X010220Y009635D01*
X010330Y009525D01*
X010330Y008925D01*
X013210Y006045D01*
X013210Y005312D01*
X013230Y005320D01*
X013330Y005320D01*
X013422Y005282D01*
X013492Y005212D01*
X013530Y005120D01*
X013530Y005020D01*
X013492Y004928D01*
X013422Y004858D01*
X013330Y004820D01*
X013230Y004820D01*
X013177Y004842D01*
X013105Y004770D01*
X013105Y004770D01*
X012933Y004598D01*
X012997Y004625D01*
X013103Y004625D01*
X013200Y004585D01*
X013275Y004510D01*
X013315Y004413D01*
X013315Y004307D01*
X013275Y004210D01*
X013200Y004135D01*
X013106Y004097D01*
X013091Y004059D01*
X013132Y004042D01*
X013202Y003972D01*
X013223Y003920D01*
X013240Y003937D01*
X013363Y004060D01*
X014937Y004060D01*
X015117Y003880D01*
X015240Y003757D01*
X015240Y003183D01*
X015220Y003163D01*
X015220Y002851D01*
X015205Y002836D01*
X015205Y002817D01*
X015202Y002810D01*
X015206Y002815D01*
X015364Y002880D01*
X015536Y002880D01*
X015694Y002815D01*
X015815Y002694D01*
X015880Y002536D01*
X015880Y002364D01*
X015815Y002206D01*
X015694Y002085D01*
X015587Y002041D01*
X016450Y002041D01*
X016450Y010850D01*
X015608Y010850D01*
X015694Y010815D01*
X015815Y010694D01*
X015880Y010536D01*
X015880Y010364D01*
X015815Y010206D01*
X015694Y010085D01*
X015536Y010020D01*
X015364Y010020D01*
X015206Y010085D01*
X015085Y010206D01*
X015020Y010364D01*
X015020Y010536D01*
X015085Y010694D01*
X015206Y010815D01*
X015292Y010850D01*
X014608Y010850D01*
X014694Y010815D01*
X014815Y010694D01*
X014880Y010536D01*
X014880Y010364D01*
X014815Y010206D01*
X014694Y010085D01*
X014536Y010020D01*
X014364Y010020D01*
X014206Y010085D01*
X014085Y010206D01*
X014020Y010364D01*
X014020Y010536D01*
X014085Y010694D01*
X014206Y010815D01*
X014292Y010850D01*
X013608Y010850D01*
X013694Y010815D01*
X013815Y010694D01*
X013880Y010536D01*
X013880Y010364D01*
X013815Y010206D01*
X013694Y010085D01*
X013536Y010020D01*
X013364Y010020D01*
X013206Y010085D01*
X013085Y010206D01*
X013020Y010364D01*
X013020Y010536D01*
X013085Y010694D01*
X013206Y010815D01*
X013292Y010850D01*
X012608Y010850D01*
X012694Y010815D01*
X012815Y010694D01*
X012880Y010536D01*
X012880Y010364D01*
X012815Y010206D01*
X012694Y010085D01*
X012536Y010020D01*
X012364Y010020D01*
X012206Y010085D01*
X012085Y010206D01*
X012020Y010364D01*
X012020Y010536D01*
X012085Y010694D01*
X012206Y010815D01*
X012292Y010850D01*
X011608Y010850D01*
X011694Y010815D01*
X011815Y010694D01*
X011880Y010536D01*
X011880Y010364D01*
X011815Y010206D01*
X011694Y010085D01*
X011536Y010020D01*
X011364Y010020D01*
X011206Y010085D01*
X011085Y010206D01*
X011020Y010364D01*
X011020Y010536D01*
X011085Y010694D01*
X011206Y010815D01*
X011292Y010850D01*
X010608Y010850D01*
X010722Y010787D02*
X011178Y010787D01*
X011083Y010688D02*
X010817Y010688D01*
X010858Y010590D02*
X011042Y010590D01*
X011020Y010491D02*
X010880Y010491D01*
X010880Y010393D02*
X011020Y010393D01*
X011049Y010294D02*
X010851Y010294D01*
X010804Y010196D02*
X011096Y010196D01*
X011037Y010160D02*
X010863Y010160D01*
X010837Y010134D01*
X010808Y010122D01*
X010738Y010052D01*
X010700Y009960D01*
X010700Y009860D01*
X010738Y009768D01*
X010740Y009766D01*
X010740Y009763D01*
X011140Y009363D01*
X011140Y009063D01*
X011263Y008940D01*
X011690Y008513D01*
X011690Y008011D01*
X011689Y007926D01*
X011690Y007925D01*
X011690Y007923D01*
X011751Y007862D01*
X012020Y007586D01*
X012020Y007580D01*
X012058Y007488D01*
X012128Y007418D01*
X012220Y007380D01*
X012320Y007380D01*
X012392Y007410D01*
X013587Y007410D01*
X013722Y007545D01*
X013733Y007545D01*
X013830Y007585D01*
X013845Y007600D01*
X014660Y007600D01*
X014685Y007540D01*
X014760Y007465D01*
X014857Y007425D01*
X014963Y007425D01*
X015060Y007465D01*
X015135Y007540D01*
X015175Y007637D01*
X015175Y007743D01*
X015140Y007827D01*
X015140Y008807D01*
X014515Y009432D01*
X014515Y009443D01*
X014475Y009540D01*
X014400Y009615D01*
X014303Y009655D01*
X014197Y009655D01*
X014100Y009615D01*
X014095Y009610D01*
X011547Y009610D01*
X011200Y009957D01*
X011200Y009960D01*
X011162Y010052D01*
X011092Y010122D01*
X011063Y010134D01*
X011037Y010160D01*
X011117Y010097D02*
X011195Y010097D01*
X011184Y009999D02*
X013756Y009999D01*
X013740Y009960D02*
X013740Y009860D01*
X013778Y009768D01*
X013848Y009698D01*
X013940Y009660D01*
X014040Y009660D01*
X014132Y009698D01*
X014202Y009768D01*
X014240Y009860D01*
X014240Y009960D01*
X014202Y010052D01*
X014132Y010122D01*
X014040Y010160D01*
X013940Y010160D01*
X013848Y010122D01*
X013778Y010052D01*
X013740Y009960D01*
X013740Y009900D02*
X011257Y009900D01*
X011355Y009802D02*
X013764Y009802D01*
X013843Y009703D02*
X011454Y009703D01*
X011095Y009408D02*
X010330Y009408D01*
X010330Y009506D02*
X010997Y009506D01*
X010898Y009605D02*
X010250Y009605D01*
X010220Y009703D02*
X010800Y009703D01*
X010724Y009802D02*
X010186Y009802D01*
X010075Y009900D02*
X010700Y009900D01*
X010716Y009999D02*
X010173Y009999D01*
X009970Y009670D02*
X009970Y009630D01*
X010150Y009450D01*
X010150Y008850D01*
X013030Y005970D01*
X013030Y004950D01*
X012550Y004470D01*
X012550Y003950D01*
X013103Y004089D02*
X015192Y004089D01*
X015205Y004120D02*
X015165Y004023D01*
X015165Y003917D01*
X015205Y003820D01*
X015280Y003745D01*
X015377Y003705D01*
X015483Y003705D01*
X015580Y003745D01*
X015655Y003820D01*
X015695Y003917D01*
X015695Y004023D01*
X015686Y004045D01*
X015693Y004045D01*
X015790Y004085D01*
X015865Y004160D01*
X015905Y004257D01*
X015905Y004363D01*
X015865Y004460D01*
X015790Y004535D01*
X015693Y004575D01*
X015587Y004575D01*
X015490Y004535D01*
X015415Y004460D01*
X015375Y004363D01*
X015375Y004257D01*
X015384Y004235D01*
X015377Y004235D01*
X015280Y004195D01*
X015205Y004120D01*
X015272Y004187D02*
X013252Y004187D01*
X013306Y004286D02*
X015375Y004286D01*
X015384Y004384D02*
X013315Y004384D01*
X013286Y004483D02*
X015438Y004483D01*
X015095Y004680D02*
X015135Y004777D01*
X015135Y004883D01*
X015095Y004980D01*
X015020Y005055D01*
X014923Y005095D01*
X014817Y005095D01*
X014720Y005055D01*
X014645Y004980D01*
X014605Y004883D01*
X014605Y004777D01*
X014645Y004680D01*
X014720Y004605D01*
X014817Y004565D01*
X014923Y004565D01*
X015020Y004605D01*
X015095Y004680D01*
X015094Y004680D02*
X016450Y004680D01*
X016450Y004778D02*
X015135Y004778D01*
X015135Y004877D02*
X016450Y004877D01*
X016450Y004975D02*
X015097Y004975D01*
X014975Y005074D02*
X016450Y005074D01*
X016450Y005172D02*
X013508Y005172D01*
X013530Y005074D02*
X014765Y005074D01*
X014643Y004975D02*
X013511Y004975D01*
X013440Y004877D02*
X014605Y004877D01*
X014605Y004778D02*
X013113Y004778D01*
X013014Y004680D02*
X014646Y004680D01*
X014779Y004581D02*
X013204Y004581D01*
X012790Y005050D02*
X012790Y005910D01*
X009950Y008750D01*
X009950Y009310D01*
X009670Y009590D01*
X009670Y009750D01*
X010330Y009309D02*
X011140Y009309D01*
X011140Y009211D02*
X010330Y009211D01*
X010330Y009112D02*
X011140Y009112D01*
X011189Y009014D02*
X010330Y009014D01*
X010340Y008915D02*
X011288Y008915D01*
X011386Y008817D02*
X010438Y008817D01*
X010537Y008718D02*
X011485Y008718D01*
X011583Y008620D02*
X010635Y008620D01*
X010734Y008521D02*
X011682Y008521D01*
X011690Y008423D02*
X010832Y008423D01*
X010931Y008324D02*
X011690Y008324D01*
X011690Y008226D02*
X011029Y008226D01*
X011128Y008127D02*
X011690Y008127D01*
X011690Y008029D02*
X011226Y008029D01*
X011325Y007930D02*
X011689Y007930D01*
X011781Y007832D02*
X011423Y007832D01*
X011522Y007733D02*
X011877Y007733D01*
X011972Y007635D02*
X011620Y007635D01*
X011719Y007536D02*
X012038Y007536D01*
X012109Y007438D02*
X011817Y007438D01*
X011916Y007339D02*
X016450Y007339D01*
X016450Y007241D02*
X012014Y007241D01*
X012113Y007142D02*
X016450Y007142D01*
X016450Y007044D02*
X012211Y007044D01*
X012310Y006945D02*
X016450Y006945D01*
X016450Y006847D02*
X012408Y006847D01*
X012507Y006748D02*
X016450Y006748D01*
X016450Y006650D02*
X012605Y006650D01*
X012704Y006551D02*
X016450Y006551D01*
X016450Y006453D02*
X012802Y006453D01*
X012901Y006354D02*
X016450Y006354D01*
X016450Y006256D02*
X012999Y006256D01*
X013098Y006157D02*
X016450Y006157D01*
X016450Y006059D02*
X013196Y006059D01*
X013210Y005960D02*
X016450Y005960D01*
X016450Y005862D02*
X013210Y005862D01*
X013210Y005763D02*
X016450Y005763D01*
X016450Y005665D02*
X013210Y005665D01*
X013210Y005566D02*
X016450Y005566D01*
X016450Y005468D02*
X013210Y005468D01*
X013210Y005369D02*
X016450Y005369D01*
X016450Y005271D02*
X013433Y005271D01*
X012790Y005050D02*
X011910Y004170D01*
X013184Y003990D02*
X013293Y003990D01*
X013537Y003640D02*
X014097Y003640D01*
X014080Y003600D01*
X014080Y003500D01*
X014118Y003408D01*
X014188Y003338D01*
X014280Y003300D01*
X014380Y003300D01*
X014415Y003315D01*
X014438Y003258D01*
X014508Y003188D01*
X014600Y003150D01*
X014700Y003150D01*
X014792Y003188D01*
X014820Y003216D01*
X014820Y003183D01*
X014840Y003163D01*
X014840Y003115D01*
X014790Y003095D01*
X014715Y003020D01*
X014675Y002923D01*
X014675Y002822D01*
X014536Y002880D01*
X014364Y002880D01*
X014206Y002815D01*
X014085Y002694D01*
X014020Y002536D01*
X014020Y002364D01*
X014085Y002206D01*
X014206Y002085D01*
X014311Y002042D01*
X013590Y002042D01*
X013694Y002085D01*
X013815Y002206D01*
X013880Y002364D01*
X013880Y002536D01*
X013815Y002694D01*
X013694Y002815D01*
X013536Y002880D01*
X013364Y002880D01*
X013206Y002815D01*
X013085Y002694D01*
X013020Y002536D01*
X013020Y002364D01*
X013085Y002206D01*
X013206Y002085D01*
X013310Y002043D01*
X012642Y002043D01*
X012686Y002065D01*
X012743Y002107D01*
X012793Y002157D01*
X012835Y002214D01*
X012867Y002277D01*
X012889Y002345D01*
X012898Y002400D01*
X012500Y002400D01*
X012500Y002500D01*
X012898Y002500D01*
X012889Y002555D01*
X012867Y002623D01*
X012835Y002686D01*
X012793Y002743D01*
X012743Y002793D01*
X012686Y002835D01*
X012623Y002867D01*
X012566Y002885D01*
X012726Y003046D01*
X012758Y002968D01*
X012828Y002898D01*
X012920Y002860D01*
X013020Y002860D01*
X013112Y002898D01*
X013182Y002968D01*
X013220Y003060D01*
X013220Y003160D01*
X013182Y003252D01*
X013134Y003300D01*
X013197Y003300D01*
X013537Y003640D01*
X013493Y003596D02*
X014080Y003596D01*
X014081Y003498D02*
X013394Y003498D01*
X013296Y003399D02*
X014127Y003399D01*
X014279Y003301D02*
X013197Y003301D01*
X013202Y003202D02*
X014494Y003202D01*
X014421Y003301D02*
X014381Y003301D01*
X014806Y003202D02*
X014820Y003202D01*
X014811Y003104D02*
X013220Y003104D01*
X013197Y003005D02*
X014709Y003005D01*
X014675Y002907D02*
X013120Y002907D01*
X013200Y002808D02*
X012723Y002808D01*
X012818Y002710D02*
X013101Y002710D01*
X013051Y002611D02*
X012871Y002611D01*
X012896Y002513D02*
X013020Y002513D01*
X013020Y002414D02*
X012500Y002414D01*
X012400Y002414D02*
X011500Y002414D01*
X011500Y002400D02*
X011500Y002500D01*
X011400Y002500D01*
X011400Y002898D01*
X011345Y002889D01*
X011277Y002867D01*
X011214Y002835D01*
X011157Y002793D01*
X011107Y002743D01*
X011065Y002686D01*
X011033Y002623D01*
X011011Y002555D01*
X011002Y002500D01*
X011400Y002500D01*
X011400Y002400D01*
X011002Y002400D01*
X011011Y002345D01*
X011033Y002277D01*
X011065Y002214D01*
X011107Y002157D01*
X011157Y002107D01*
X011214Y002065D01*
X011256Y002044D01*
X010594Y002044D01*
X010694Y002085D01*
X010815Y002206D01*
X010880Y002364D01*
X010880Y002536D01*
X010815Y002694D01*
X010694Y002815D01*
X010536Y002880D01*
X010364Y002880D01*
X010206Y002815D01*
X010085Y002694D01*
X010020Y002536D01*
X010020Y002364D01*
X010085Y002206D01*
X010206Y002085D01*
X010305Y002045D01*
X009596Y002045D01*
X009694Y002085D01*
X009815Y002206D01*
X009880Y002364D01*
X009880Y002536D01*
X009815Y002694D01*
X009694Y002815D01*
X009560Y002870D01*
X009872Y002870D01*
X009920Y002850D01*
X010020Y002850D01*
X010112Y002888D01*
X010182Y002958D01*
X010220Y003050D01*
X010220Y003150D01*
X010182Y003242D01*
X010144Y003280D01*
X010180Y003280D01*
X010280Y003180D01*
X010836Y003180D01*
X010788Y003132D01*
X010750Y003040D01*
X010750Y002940D01*
X010788Y002848D01*
X010858Y002778D01*
X010950Y002740D01*
X011050Y002740D01*
X011142Y002778D01*
X011212Y002848D01*
X011250Y002940D01*
X011250Y003040D01*
X011212Y003132D01*
X011164Y003180D01*
X011200Y003180D01*
X011420Y002960D01*
X011500Y002880D01*
X011500Y002500D01*
X011898Y002500D01*
X011889Y002555D01*
X011867Y002623D01*
X011835Y002686D01*
X011793Y002743D01*
X011743Y002793D01*
X011686Y002835D01*
X011637Y002860D01*
X012263Y002860D01*
X012214Y002835D01*
X012157Y002793D01*
X012107Y002743D01*
X012065Y002686D01*
X012033Y002623D01*
X012011Y002555D01*
X012002Y002500D01*
X012400Y002500D01*
X012400Y002400D01*
X012002Y002400D01*
X012011Y002345D01*
X012033Y002277D01*
X012065Y002214D01*
X012107Y002157D01*
X012157Y002107D01*
X012214Y002065D01*
X012257Y002043D01*
X011644Y002044D01*
X011686Y002065D01*
X011743Y002107D01*
X011793Y002157D01*
X011835Y002214D01*
X011867Y002277D01*
X011889Y002345D01*
X011898Y002400D01*
X011500Y002400D01*
X011400Y002414D02*
X010880Y002414D01*
X010880Y002513D02*
X011004Y002513D01*
X011029Y002611D02*
X010849Y002611D01*
X010799Y002710D02*
X011082Y002710D01*
X011172Y002808D02*
X011177Y002808D01*
X011236Y002907D02*
X011473Y002907D01*
X011500Y002808D02*
X011400Y002808D01*
X011400Y002710D02*
X011500Y002710D01*
X011500Y002611D02*
X011400Y002611D01*
X011400Y002513D02*
X011500Y002513D01*
X011723Y002808D02*
X012177Y002808D01*
X012082Y002710D02*
X011818Y002710D01*
X011871Y002611D02*
X012029Y002611D01*
X012004Y002513D02*
X011896Y002513D01*
X011879Y002316D02*
X012021Y002316D01*
X012064Y002217D02*
X011836Y002217D01*
X011755Y002119D02*
X012145Y002119D01*
X012755Y002119D02*
X013173Y002119D01*
X013081Y002217D02*
X012836Y002217D01*
X012879Y002316D02*
X013040Y002316D01*
X013727Y002119D02*
X014173Y002119D01*
X014081Y002217D02*
X013819Y002217D01*
X013860Y002316D02*
X014040Y002316D01*
X014020Y002414D02*
X013880Y002414D01*
X013880Y002513D02*
X014020Y002513D01*
X014051Y002611D02*
X013849Y002611D01*
X013799Y002710D02*
X014101Y002710D01*
X014200Y002808D02*
X013700Y002808D01*
X012820Y002907D02*
X012587Y002907D01*
X012685Y003005D02*
X012743Y003005D01*
X011375Y003005D02*
X011250Y003005D01*
X011224Y003104D02*
X011276Y003104D01*
X010776Y003104D02*
X010220Y003104D01*
X010198Y003202D02*
X010258Y003202D01*
X010201Y003005D02*
X010750Y003005D01*
X010764Y002907D02*
X010130Y002907D01*
X010200Y002808D02*
X009700Y002808D01*
X009799Y002710D02*
X010101Y002710D01*
X010051Y002611D02*
X009849Y002611D01*
X009880Y002513D02*
X010020Y002513D01*
X010020Y002414D02*
X009880Y002414D01*
X009860Y002316D02*
X010040Y002316D01*
X010081Y002217D02*
X009819Y002217D01*
X009727Y002119D02*
X010173Y002119D01*
X010727Y002119D02*
X011145Y002119D01*
X011064Y002217D02*
X010819Y002217D01*
X010860Y002316D02*
X011021Y002316D01*
X010828Y002808D02*
X010700Y002808D01*
X009970Y003100D02*
X009920Y003050D01*
X009250Y003050D01*
X008250Y004250D02*
X009190Y005190D01*
X008917Y005172D02*
X007625Y005172D01*
X007695Y005074D02*
X008819Y005074D01*
X008720Y004975D02*
X007794Y004975D01*
X007892Y004877D02*
X008092Y004877D01*
X008012Y004778D02*
X007991Y004778D01*
X008408Y004877D02*
X008622Y004877D01*
X008523Y004778D02*
X008488Y004778D01*
X009870Y004790D02*
X010230Y004790D01*
X010430Y004590D01*
X009768Y005665D02*
X005299Y005665D01*
X005355Y005763D02*
X009866Y005763D01*
X009965Y005862D02*
X005365Y005862D01*
X005337Y005960D02*
X010063Y005960D01*
X010162Y006059D02*
X005655Y006059D01*
X005754Y006157D02*
X010260Y006157D01*
X010192Y006198D02*
X010100Y006160D01*
X010000Y006160D01*
X009908Y006198D01*
X009838Y006268D01*
X009800Y006360D01*
X009800Y006460D01*
X009838Y006552D01*
X009908Y006622D01*
X010000Y006660D01*
X010100Y006660D01*
X010192Y006622D01*
X010262Y006552D01*
X010300Y006460D01*
X010300Y006360D01*
X010262Y006268D01*
X010192Y006198D01*
X010249Y006256D02*
X010340Y006256D01*
X010340Y006354D02*
X010297Y006354D01*
X010300Y006453D02*
X010340Y006453D01*
X010312Y006551D02*
X010262Y006551D01*
X010300Y006650D02*
X010125Y006650D01*
X009975Y006650D02*
X006246Y006650D01*
X006148Y006551D02*
X009838Y006551D01*
X009800Y006453D02*
X006049Y006453D01*
X005951Y006354D02*
X009803Y006354D01*
X009851Y006256D02*
X005852Y006256D01*
X005160Y006250D02*
X005110Y006200D01*
X003940Y005960D02*
X002020Y005960D01*
X002020Y005862D02*
X003940Y005862D01*
X003940Y005763D02*
X002020Y005763D01*
X002020Y005665D02*
X003940Y005665D01*
X004037Y005566D02*
X002020Y005566D01*
X002020Y005468D02*
X004136Y005468D01*
X004234Y005369D02*
X002020Y005369D01*
X002020Y005271D02*
X004333Y005271D01*
X004431Y005172D02*
X002020Y005172D01*
X002020Y006059D02*
X003844Y006059D01*
X003746Y006157D02*
X002020Y006157D01*
X002020Y006256D02*
X003647Y006256D01*
X003549Y006354D02*
X002020Y006354D01*
X002020Y006453D02*
X003450Y006453D01*
X003352Y006551D02*
X002020Y006551D01*
X002020Y006650D02*
X003253Y006650D01*
X003155Y006748D02*
X002020Y006748D01*
X002020Y006847D02*
X003056Y006847D01*
X002958Y006945D02*
X002020Y006945D01*
X002020Y007044D02*
X002859Y007044D01*
X002761Y007142D02*
X002020Y007142D01*
X002020Y007241D02*
X002740Y007241D01*
X002740Y007339D02*
X002020Y007339D01*
X002020Y007438D02*
X002740Y007438D01*
X002740Y007536D02*
X002020Y007536D01*
X002020Y007635D02*
X002740Y007635D01*
X002836Y007733D02*
X002020Y007733D01*
X002020Y007832D02*
X002870Y007832D01*
X002870Y007930D02*
X002020Y007930D01*
X002020Y008029D02*
X002870Y008029D01*
X002830Y008127D02*
X002020Y008127D01*
X002020Y008226D02*
X002800Y008226D01*
X002810Y008324D02*
X002020Y008324D01*
X002020Y008423D02*
X002869Y008423D01*
X003050Y008250D02*
X003050Y007650D01*
X002482Y008521D02*
X002020Y008521D01*
X002020Y008620D02*
X002383Y008620D01*
X002285Y008718D02*
X002020Y008718D01*
X002020Y008817D02*
X002240Y008817D01*
X002240Y008915D02*
X002020Y008915D01*
X002020Y009014D02*
X002240Y009014D01*
X002180Y009112D02*
X002020Y009112D01*
X002020Y009211D02*
X002084Y009211D01*
X002043Y009309D02*
X002020Y009309D01*
X002020Y009408D02*
X002020Y009408D01*
X002020Y009506D02*
X002020Y009506D01*
X002020Y009605D02*
X002049Y009605D01*
X002020Y009703D02*
X002095Y009703D01*
X002020Y009802D02*
X002193Y009802D01*
X002020Y009900D02*
X005785Y009900D01*
X005825Y009999D02*
X002020Y009999D01*
X002020Y010097D02*
X002195Y010097D01*
X002096Y010196D02*
X002020Y010196D01*
X002020Y010294D02*
X002049Y010294D01*
X002020Y010393D02*
X002020Y010393D01*
X002020Y010491D02*
X002020Y010491D01*
X002020Y010590D02*
X002042Y010590D01*
X002020Y010688D02*
X002083Y010688D01*
X002020Y010787D02*
X002178Y010787D01*
X002722Y010787D02*
X003178Y010787D01*
X003083Y010688D02*
X002817Y010688D01*
X002858Y010590D02*
X003042Y010590D01*
X003020Y010491D02*
X002880Y010491D01*
X002880Y010393D02*
X003020Y010393D01*
X003049Y010294D02*
X002851Y010294D01*
X002804Y010196D02*
X003096Y010196D01*
X003195Y010097D02*
X002705Y010097D01*
X002707Y009802D02*
X003193Y009802D01*
X003206Y009815D02*
X003085Y009694D01*
X003020Y009536D01*
X003020Y009364D01*
X003085Y009206D01*
X003206Y009085D01*
X003364Y009020D01*
X003536Y009020D01*
X003694Y009085D01*
X003815Y009206D01*
X003880Y009364D01*
X003880Y009536D01*
X003815Y009694D01*
X003694Y009815D01*
X003536Y009880D01*
X003364Y009880D01*
X003206Y009815D01*
X003095Y009703D02*
X002805Y009703D01*
X002851Y009605D02*
X003049Y009605D01*
X003020Y009506D02*
X002880Y009506D01*
X002880Y009408D02*
X003020Y009408D01*
X003043Y009309D02*
X002857Y009309D01*
X002816Y009211D02*
X003084Y009211D01*
X003180Y009112D02*
X002720Y009112D01*
X002660Y009014D02*
X004759Y009014D01*
X004720Y009112D02*
X004857Y009112D01*
X004870Y009211D02*
X004816Y009211D01*
X004857Y009309D02*
X004870Y009309D01*
X004660Y008915D02*
X002682Y008915D01*
X003720Y009112D02*
X004180Y009112D01*
X004084Y009211D02*
X003816Y009211D01*
X003857Y009309D02*
X004043Y009309D01*
X004020Y009408D02*
X003880Y009408D01*
X003880Y009506D02*
X004020Y009506D01*
X004049Y009605D02*
X003851Y009605D01*
X003805Y009703D02*
X004095Y009703D01*
X004193Y009802D02*
X003707Y009802D01*
X003705Y010097D02*
X004195Y010097D01*
X004096Y010196D02*
X003804Y010196D01*
X003851Y010294D02*
X004049Y010294D01*
X004020Y010393D02*
X003880Y010393D01*
X003880Y010491D02*
X004020Y010491D01*
X004042Y010590D02*
X003858Y010590D01*
X003817Y010688D02*
X004083Y010688D01*
X004178Y010787D02*
X003722Y010787D01*
X004722Y010787D02*
X005178Y010787D01*
X005083Y010688D02*
X004817Y010688D01*
X004858Y010590D02*
X005042Y010590D01*
X005020Y010491D02*
X004880Y010491D01*
X004880Y010393D02*
X005020Y010393D01*
X005049Y010294D02*
X004851Y010294D01*
X004804Y010196D02*
X005096Y010196D01*
X005195Y010097D02*
X004705Y010097D01*
X005705Y010097D02*
X005954Y010097D01*
X006096Y010196D02*
X005804Y010196D01*
X005851Y010294D02*
X006049Y010294D01*
X006020Y010393D02*
X005880Y010393D01*
X005880Y010491D02*
X006020Y010491D01*
X006042Y010590D02*
X005858Y010590D01*
X005817Y010688D02*
X006083Y010688D01*
X006178Y010787D02*
X005722Y010787D01*
X006146Y010097D02*
X006195Y010097D01*
X006705Y010097D02*
X007195Y010097D01*
X007096Y010196D02*
X006804Y010196D01*
X006851Y010294D02*
X007049Y010294D01*
X007020Y010393D02*
X006880Y010393D01*
X006880Y010491D02*
X007020Y010491D01*
X007042Y010590D02*
X006858Y010590D01*
X006817Y010688D02*
X007083Y010688D01*
X007178Y010787D02*
X006722Y010787D01*
X007722Y010787D02*
X008178Y010787D01*
X008083Y010688D02*
X007817Y010688D01*
X007858Y010590D02*
X008042Y010590D01*
X008020Y010491D02*
X007880Y010491D01*
X007880Y010393D02*
X008020Y010393D01*
X008450Y010350D02*
X008450Y010450D01*
X009482Y008915D02*
X009580Y008915D01*
X009580Y008817D02*
X009560Y008817D01*
X009560Y008718D02*
X009580Y008718D01*
X009580Y008620D02*
X009560Y008620D01*
X009560Y008521D02*
X009639Y008521D01*
X009560Y008423D02*
X009737Y008423D01*
X009836Y008324D02*
X009560Y008324D01*
X009560Y008226D02*
X009934Y008226D01*
X010033Y008127D02*
X009524Y008127D01*
X009426Y008029D02*
X010131Y008029D01*
X010230Y007930D02*
X009327Y007930D01*
X009229Y007832D02*
X010328Y007832D01*
X010299Y007733D02*
X010171Y007733D01*
X010224Y007438D02*
X010232Y007438D01*
X010265Y007339D02*
X010143Y007339D01*
X010220Y007241D02*
X009705Y007241D01*
X009555Y007241D02*
X006838Y007241D01*
X006936Y007339D02*
X009418Y007339D01*
X009380Y007438D02*
X008835Y007438D01*
X008933Y007536D02*
X009383Y007536D01*
X009431Y007635D02*
X009032Y007635D01*
X009130Y007733D02*
X009829Y007733D01*
X009842Y007339D02*
X009857Y007339D01*
X010220Y007142D02*
X006739Y007142D01*
X006641Y007044D02*
X010263Y007044D01*
X010408Y006945D02*
X006542Y006945D01*
X006444Y006847D02*
X010419Y006847D01*
X010328Y006748D02*
X006345Y006748D01*
X005236Y007733D02*
X005188Y007733D01*
X005112Y007832D02*
X005335Y007832D01*
X005433Y007930D02*
X004650Y007930D01*
X004650Y008029D02*
X005497Y008029D01*
X005414Y008127D02*
X004650Y008127D01*
X004650Y008226D02*
X005385Y008226D01*
X005394Y008324D02*
X004650Y008324D01*
X004677Y008423D02*
X005448Y008423D01*
X004776Y008521D02*
X008124Y008521D01*
X008026Y008423D02*
X006652Y008423D01*
X006706Y008324D02*
X007927Y008324D01*
X007829Y008226D02*
X006715Y008226D01*
X006686Y008127D02*
X007730Y008127D01*
X004960Y007630D02*
X004670Y007630D01*
X004470Y007830D01*
X004470Y008470D01*
X004562Y008817D02*
X003980Y008817D01*
X004723Y007832D02*
X004808Y007832D01*
X004967Y003970D02*
X006873Y003970D01*
X006763Y003860D01*
X006640Y003737D01*
X006640Y003337D01*
X006640Y003163D01*
X007063Y002740D01*
X007132Y002740D01*
X007085Y002694D01*
X007020Y002536D01*
X007020Y002364D01*
X007085Y002206D01*
X007206Y002085D01*
X007301Y002046D01*
X006601Y002047D01*
X006694Y002085D01*
X006815Y002206D01*
X006880Y002364D01*
X006880Y002536D01*
X006815Y002694D01*
X006694Y002815D01*
X006536Y002880D01*
X006364Y002880D01*
X006206Y002815D01*
X006200Y002808D01*
X006200Y002900D01*
X006162Y002992D01*
X006092Y003062D01*
X006000Y003100D01*
X005900Y003100D01*
X005808Y003062D01*
X005738Y002992D01*
X005700Y002900D01*
X005700Y002808D01*
X005694Y002815D01*
X005536Y002880D01*
X005364Y002880D01*
X005206Y002815D01*
X005085Y002694D01*
X005020Y002536D01*
X005020Y002364D01*
X005085Y002206D01*
X005206Y002085D01*
X005297Y002048D01*
X004604Y002048D01*
X004694Y002085D01*
X004815Y002206D01*
X004880Y002364D01*
X004880Y002536D01*
X004815Y002694D01*
X004694Y002815D01*
X004536Y002880D01*
X004364Y002880D01*
X004206Y002815D01*
X004085Y002694D01*
X004020Y002536D01*
X004020Y002364D01*
X004085Y002206D01*
X004206Y002085D01*
X004296Y002048D01*
X003605Y002049D01*
X003694Y002085D01*
X003815Y002206D01*
X003880Y002364D01*
X003880Y002536D01*
X003815Y002694D01*
X003694Y002815D01*
X003536Y002880D01*
X003364Y002880D01*
X003206Y002815D01*
X003085Y002694D01*
X003020Y002536D01*
X003020Y002364D01*
X003085Y002206D01*
X003206Y002085D01*
X003294Y002049D01*
X002607Y002049D01*
X002694Y002085D01*
X002815Y002206D01*
X002880Y002364D01*
X002880Y002536D01*
X002815Y002694D01*
X002703Y002806D01*
X002877Y002980D01*
X003977Y002980D01*
X004100Y003103D01*
X004967Y003970D01*
X004888Y003892D02*
X006795Y003892D01*
X006696Y003793D02*
X004790Y003793D01*
X004691Y003695D02*
X006640Y003695D01*
X006640Y003596D02*
X004593Y003596D01*
X004494Y003498D02*
X006640Y003498D01*
X006640Y003399D02*
X004396Y003399D01*
X004297Y003301D02*
X006640Y003301D01*
X006640Y003202D02*
X004199Y003202D01*
X004100Y003104D02*
X006700Y003104D01*
X006798Y003005D02*
X006149Y003005D01*
X006197Y002907D02*
X006897Y002907D01*
X006995Y002808D02*
X006700Y002808D01*
X006799Y002710D02*
X007101Y002710D01*
X007051Y002611D02*
X006849Y002611D01*
X006880Y002513D02*
X007020Y002513D01*
X007020Y002414D02*
X006880Y002414D01*
X006860Y002316D02*
X007040Y002316D01*
X007081Y002217D02*
X006819Y002217D01*
X006727Y002119D02*
X007173Y002119D01*
X005703Y002907D02*
X002803Y002907D01*
X002705Y002808D02*
X003200Y002808D01*
X003101Y002710D02*
X002799Y002710D01*
X002849Y002611D02*
X003051Y002611D01*
X003020Y002513D02*
X002880Y002513D01*
X002880Y002414D02*
X003020Y002414D01*
X003040Y002316D02*
X002860Y002316D01*
X002819Y002217D02*
X003081Y002217D01*
X003173Y002119D02*
X002727Y002119D01*
X003727Y002119D02*
X004173Y002119D01*
X004081Y002217D02*
X003819Y002217D01*
X003860Y002316D02*
X004040Y002316D01*
X004020Y002414D02*
X003880Y002414D01*
X003880Y002513D02*
X004020Y002513D01*
X004051Y002611D02*
X003849Y002611D01*
X003799Y002710D02*
X004101Y002710D01*
X004200Y002808D02*
X003700Y002808D01*
X004002Y003005D02*
X005751Y003005D01*
X005200Y002808D02*
X004700Y002808D01*
X004799Y002710D02*
X005101Y002710D01*
X005051Y002611D02*
X004849Y002611D01*
X004880Y002513D02*
X005020Y002513D01*
X005020Y002414D02*
X004880Y002414D01*
X004860Y002316D02*
X005040Y002316D01*
X005081Y002217D02*
X004819Y002217D01*
X004727Y002119D02*
X005173Y002119D01*
X003901Y003498D02*
X002612Y003498D01*
X002635Y003399D02*
X002702Y003399D01*
X002539Y003596D02*
X003999Y003596D01*
X010532Y006945D02*
X011150Y006945D01*
X011150Y006847D02*
X010681Y006847D01*
X010772Y006748D02*
X010844Y006748D01*
X010677Y007044D02*
X011116Y007044D01*
X011018Y007142D02*
X010720Y007142D01*
X010720Y007241D02*
X010919Y007241D01*
X010821Y007339D02*
X010675Y007339D01*
X010688Y007438D02*
X010722Y007438D01*
X013615Y007438D02*
X014827Y007438D01*
X014993Y007438D02*
X016450Y007438D01*
X016450Y007536D02*
X015131Y007536D01*
X015174Y007635D02*
X016450Y007635D01*
X016450Y007733D02*
X015175Y007733D01*
X015140Y007832D02*
X016450Y007832D01*
X016450Y007930D02*
X015140Y007930D01*
X015140Y008029D02*
X016450Y008029D01*
X016450Y008127D02*
X015140Y008127D01*
X015140Y008226D02*
X016450Y008226D01*
X016450Y008324D02*
X015140Y008324D01*
X015140Y008423D02*
X016450Y008423D01*
X016450Y008521D02*
X015140Y008521D01*
X015140Y008620D02*
X016450Y008620D01*
X016450Y008718D02*
X015140Y008718D01*
X015130Y008817D02*
X016450Y008817D01*
X016450Y008915D02*
X015032Y008915D01*
X014933Y009014D02*
X016450Y009014D01*
X016450Y009112D02*
X014835Y009112D01*
X014736Y009211D02*
X016450Y009211D01*
X016450Y009309D02*
X014638Y009309D01*
X014539Y009408D02*
X016450Y009408D01*
X016450Y009506D02*
X014489Y009506D01*
X014410Y009605D02*
X016450Y009605D01*
X016450Y009703D02*
X014137Y009703D01*
X014216Y009802D02*
X016450Y009802D01*
X016450Y009900D02*
X014240Y009900D01*
X014224Y009999D02*
X016450Y009999D01*
X016450Y010097D02*
X015705Y010097D01*
X015804Y010196D02*
X016450Y010196D01*
X016450Y010294D02*
X015851Y010294D01*
X015880Y010393D02*
X016450Y010393D01*
X016450Y010491D02*
X015880Y010491D01*
X015858Y010590D02*
X016450Y010590D01*
X016450Y010688D02*
X015817Y010688D01*
X015722Y010787D02*
X016450Y010787D01*
X015178Y010787D02*
X014722Y010787D01*
X014817Y010688D02*
X015083Y010688D01*
X015042Y010590D02*
X014858Y010590D01*
X014880Y010491D02*
X015020Y010491D01*
X015020Y010393D02*
X014880Y010393D01*
X014851Y010294D02*
X015049Y010294D01*
X015096Y010196D02*
X014804Y010196D01*
X014705Y010097D02*
X015195Y010097D01*
X014195Y010097D02*
X014157Y010097D01*
X014096Y010196D02*
X013804Y010196D01*
X013823Y010097D02*
X013705Y010097D01*
X013851Y010294D02*
X014049Y010294D01*
X014020Y010393D02*
X013880Y010393D01*
X013880Y010491D02*
X014020Y010491D01*
X014042Y010590D02*
X013858Y010590D01*
X013817Y010688D02*
X014083Y010688D01*
X014178Y010787D02*
X013722Y010787D01*
X013178Y010787D02*
X012722Y010787D01*
X012817Y010688D02*
X013083Y010688D01*
X013042Y010590D02*
X012858Y010590D01*
X012880Y010491D02*
X013020Y010491D01*
X013020Y010393D02*
X012880Y010393D01*
X012851Y010294D02*
X013049Y010294D01*
X013096Y010196D02*
X012804Y010196D01*
X012705Y010097D02*
X013195Y010097D01*
X012195Y010097D02*
X011705Y010097D01*
X011804Y010196D02*
X012096Y010196D01*
X012049Y010294D02*
X011851Y010294D01*
X011880Y010393D02*
X012020Y010393D01*
X012020Y010491D02*
X011880Y010491D01*
X011858Y010590D02*
X012042Y010590D01*
X012083Y010688D02*
X011817Y010688D01*
X011722Y010787D02*
X012178Y010787D01*
X010783Y010097D02*
X010705Y010097D01*
X013713Y007536D02*
X014689Y007536D01*
X014961Y004581D02*
X016450Y004581D01*
X016450Y004483D02*
X015842Y004483D01*
X015896Y004384D02*
X016450Y004384D01*
X016450Y004286D02*
X015905Y004286D01*
X015876Y004187D02*
X016450Y004187D01*
X016450Y004089D02*
X015793Y004089D01*
X015695Y003990D02*
X016450Y003990D01*
X016450Y003892D02*
X015684Y003892D01*
X015628Y003793D02*
X016450Y003793D01*
X016450Y003695D02*
X015912Y003695D01*
X015960Y003675D02*
X015863Y003715D01*
X015757Y003715D01*
X015660Y003675D01*
X015585Y003600D01*
X015545Y003503D01*
X015545Y003397D01*
X015585Y003300D01*
X015660Y003225D01*
X015757Y003185D01*
X015863Y003185D01*
X015960Y003225D01*
X016035Y003300D01*
X016075Y003397D01*
X016075Y003503D01*
X016035Y003600D01*
X015960Y003675D01*
X016036Y003596D02*
X016450Y003596D01*
X016450Y003498D02*
X016075Y003498D01*
X016075Y003399D02*
X016450Y003399D01*
X016450Y003301D02*
X016035Y003301D01*
X015904Y003202D02*
X016450Y003202D01*
X016450Y003104D02*
X015220Y003104D01*
X015220Y003005D02*
X016450Y003005D01*
X016450Y002907D02*
X015220Y002907D01*
X015240Y003202D02*
X015716Y003202D01*
X015585Y003301D02*
X015240Y003301D01*
X015240Y003399D02*
X015545Y003399D01*
X015545Y003498D02*
X015240Y003498D01*
X015240Y003596D02*
X015584Y003596D01*
X015708Y003695D02*
X015240Y003695D01*
X015232Y003793D02*
X015204Y003793D01*
X015176Y003892D02*
X015105Y003892D01*
X015165Y003990D02*
X015007Y003990D01*
X015700Y002808D02*
X016450Y002808D01*
X016450Y002710D02*
X015799Y002710D01*
X015849Y002611D02*
X016450Y002611D01*
X016450Y002513D02*
X015880Y002513D01*
X015880Y002414D02*
X016450Y002414D01*
X016450Y002316D02*
X015860Y002316D01*
X015819Y002217D02*
X016450Y002217D01*
X016450Y002119D02*
X015727Y002119D01*
D11*
X015450Y002450D03*
X014450Y002450D03*
X013450Y002450D03*
X012450Y002450D03*
X011450Y002450D03*
X010450Y002450D03*
X009450Y002450D03*
X008450Y002450D03*
X007450Y002450D03*
X006450Y002450D03*
X005450Y002450D03*
X004450Y002450D03*
X003450Y002450D03*
X002450Y002450D03*
X002450Y009450D03*
X003450Y009450D03*
X004450Y009450D03*
X004450Y010450D03*
X003450Y010450D03*
X002450Y010450D03*
X005450Y010450D03*
X006450Y010450D03*
X007450Y010450D03*
X008450Y010450D03*
X009450Y010450D03*
X010450Y010450D03*
X011450Y010450D03*
X012450Y010450D03*
X013450Y010450D03*
X014450Y010450D03*
X015450Y010450D03*
D12*
X016050Y010250D03*
X015950Y009750D03*
X015650Y009450D03*
X015250Y009450D03*
X015250Y009050D03*
X015650Y009050D03*
X016050Y009250D03*
X015250Y008650D03*
X015250Y008250D03*
X015250Y007850D03*
X015250Y007450D03*
X015610Y007100D03*
X015960Y007100D03*
X016380Y007550D03*
X016380Y007950D03*
X016380Y008350D03*
X016100Y008610D03*
X013990Y009910D03*
X011950Y010030D03*
X010950Y009910D03*
X010750Y009550D03*
X010440Y009450D03*
X009970Y009670D03*
X010770Y008770D03*
X012270Y007630D03*
X011000Y006550D03*
X010550Y006630D03*
X010050Y006410D03*
X010940Y006190D03*
X011320Y006100D03*
X011970Y005760D03*
X012310Y005870D03*
X012350Y005190D03*
X012020Y005050D03*
X011910Y004170D03*
X012260Y004110D03*
X011900Y003810D03*
X011930Y003430D03*
X011000Y002990D03*
X009970Y003100D03*
X009720Y003350D03*
X008950Y002930D03*
X007450Y004180D03*
X007790Y004290D03*
X007450Y004580D03*
X008110Y005950D03*
X007750Y006350D03*
X009630Y007480D03*
X010000Y007550D03*
X010460Y007540D03*
X010470Y007190D03*
X008780Y008540D03*
X008530Y009610D03*
X005030Y009550D03*
X003050Y008250D03*
X002650Y007050D03*
X002250Y007050D03*
X002250Y005850D03*
X002650Y005850D03*
X004850Y006410D03*
X005110Y006200D03*
X005120Y006710D03*
X005410Y007010D03*
X004960Y007630D03*
X009870Y004790D03*
X010480Y005410D03*
X012990Y003830D03*
X012970Y003110D03*
X014330Y003550D03*
X014650Y003400D03*
X016050Y003150D03*
X016350Y002950D03*
X016050Y002750D03*
X016350Y002550D03*
X016350Y002150D03*
X016350Y003350D03*
X016350Y003750D03*
X016050Y003950D03*
X016350Y004150D03*
X016050Y004350D03*
X016350Y004550D03*
X016050Y004750D03*
X016350Y004950D03*
X016050Y005150D03*
X016350Y005350D03*
X016350Y005750D03*
X016350Y006150D03*
X013280Y005070D03*
X005950Y002850D03*
D13*
X006850Y003250D02*
X006850Y003650D01*
X007050Y003850D01*
X007550Y003850D01*
X007450Y004180D02*
X004880Y004180D01*
X003890Y003190D01*
X002790Y003190D01*
X002450Y002850D01*
X002450Y002450D01*
X006350Y005350D02*
X006650Y005050D01*
X007450Y005050D01*
X006350Y005350D02*
X004550Y005350D01*
X004150Y005750D01*
X004150Y006050D01*
X002950Y007250D01*
X002950Y007550D01*
X003050Y007650D01*
X004150Y007550D02*
X004150Y008350D01*
X003850Y008650D01*
X002650Y008650D01*
X002450Y008850D01*
X002450Y009450D01*
X004150Y007550D02*
X004550Y007150D01*
X004950Y007150D01*
X005650Y007850D01*
X007750Y007850D01*
X008450Y008550D01*
X008450Y009530D01*
X008530Y009610D01*
X008850Y009950D02*
X008850Y009250D01*
X009350Y008750D01*
X009350Y008250D01*
X008650Y007550D01*
X006850Y007550D01*
X005550Y006250D01*
X005160Y006250D01*
X008250Y004250D02*
X008250Y003550D01*
X008030Y003330D01*
X007390Y003330D01*
X007150Y002950D02*
X006850Y003250D01*
X007150Y002950D02*
X008050Y002950D01*
X008450Y003350D01*
X009190Y005190D02*
X009590Y005190D01*
X010550Y006150D01*
X010550Y006630D01*
X011900Y008010D02*
X012270Y007630D01*
X012290Y007620D01*
X013500Y007620D01*
X013680Y007800D01*
X013680Y007810D02*
X014790Y007810D01*
X014910Y007690D01*
X014930Y007710D01*
X014930Y008720D01*
X014275Y009375D01*
X014250Y009400D01*
X011460Y009400D01*
X010950Y009910D01*
X010950Y009950D01*
X010950Y009910D02*
X010950Y009850D01*
X011350Y009450D01*
X011350Y009150D01*
X011950Y008550D01*
X012050Y008550D01*
X011900Y008600D02*
X012050Y008750D01*
X011950Y008750D01*
X011850Y008650D01*
X011850Y008850D01*
X011550Y009150D01*
X011550Y009250D01*
X011350Y009450D01*
X010950Y009870D02*
X010950Y009910D01*
X011900Y008600D02*
X011900Y008010D01*
X008850Y009950D02*
X008450Y010350D01*
X012350Y004990D02*
X012350Y004950D01*
X011950Y004550D01*
X011750Y004550D01*
X011550Y004350D01*
X011550Y003810D01*
X011590Y003770D01*
X012950Y003510D02*
X013110Y003510D01*
X013450Y003850D01*
X014850Y003850D01*
X015030Y003670D01*
X015030Y003270D01*
D14*
X014940Y002870D03*
X015810Y003450D03*
X015430Y003970D03*
X015640Y004310D03*
X014870Y004830D03*
X014250Y006050D03*
X013450Y006050D03*
X013450Y006850D03*
X014250Y006850D03*
X014910Y007690D03*
X013680Y007810D03*
X014250Y009390D03*
X008750Y006950D03*
X007750Y006950D03*
X007750Y005950D03*
X008750Y005950D03*
X008250Y004660D03*
X008640Y004230D03*
X008570Y003650D03*
X007860Y003660D03*
X007390Y003330D03*
X005550Y004850D03*
X004510Y004440D03*
X003430Y004790D03*
X005100Y005840D03*
X006450Y006450D03*
X004890Y007990D03*
X005650Y008250D03*
X006050Y008250D03*
X006450Y008250D03*
X007700Y008820D03*
X007540Y009180D03*
X007290Y009470D03*
X007950Y009950D03*
X006050Y009850D03*
X013050Y004360D03*
X012850Y004170D03*
X012530Y003840D03*
X010420Y003700D03*
X004950Y002900D03*
X002370Y003390D03*
D15*
X003510Y005470D03*
X003510Y007430D03*
D16*
X002450Y007830D03*
X002450Y005070D03*
D17*
X007550Y003850D02*
X007690Y003990D01*
X007890Y003990D01*
X008050Y004150D01*
X008050Y004450D01*
X007850Y004650D01*
X009720Y003350D02*
X009820Y003450D01*
X010250Y003450D01*
X010350Y003350D01*
X011270Y003350D01*
X011590Y003030D01*
X012470Y003030D01*
X012950Y003510D01*
X012650Y003510D02*
X012990Y003830D01*
X012550Y003950D02*
X012530Y003930D01*
X012530Y003840D01*
X012470Y003510D02*
X012650Y003510D01*
X012470Y003510D02*
X012150Y003190D01*
X011830Y003190D01*
X010430Y004590D01*
X011590Y003770D02*
X011930Y003430D01*
X012350Y004990D02*
X012350Y005190D01*
X011320Y006100D02*
X011320Y007080D01*
X009750Y008650D01*
X009750Y009110D01*
X010950Y009910D02*
X011550Y009310D01*
X011550Y009250D01*
X013450Y007850D02*
X013550Y007850D01*
X013640Y007850D01*
X013680Y007810D01*
X014275Y009375D02*
X014260Y009390D01*
X014250Y009390D01*
X008950Y003350D02*
X008450Y003350D01*
X008950Y003350D02*
X009250Y003050D01*
D18*
X007850Y004650D02*
X007450Y005050D01*
X015030Y003270D02*
X015030Y002930D01*
X015000Y002930D01*
X014940Y002870D01*
D19*
X013550Y007850D02*
X013650Y007950D01*
X014750Y007950D01*
X014750Y008050D02*
X014750Y008650D01*
X014150Y009250D01*
X011750Y009250D01*
X012250Y008750D01*
X012550Y008450D01*
X014150Y008450D01*
X013950Y008650D01*
X012650Y008650D01*
X012550Y008750D01*
X012350Y008950D02*
X012250Y009050D01*
X012250Y008750D01*
X012250Y008350D01*
X012450Y008150D01*
X013450Y008150D01*
X013550Y008250D01*
X014550Y008250D01*
X014550Y008450D01*
X014050Y008950D01*
X012350Y008950D01*
X012050Y008550D02*
X012050Y008150D01*
X012350Y007850D01*
X013450Y007850D01*
X014150Y008450D02*
X014250Y008450D01*
X011750Y009250D02*
X011550Y009250D01*
M02*
