G75*
%MOIN*%
%OFA0B0*%
%FSLAX24Y24*%
%IPPOS*%
%LPD*%
%AMOC8*
5,1,8,0,0,1.08239X$1,22.5*
%
%ADD10C,0.0100*%
%ADD11C,0.0020*%
%ADD12C,0.0050*%
%ADD13C,0.0028*%
%ADD14R,0.0118X0.0276*%
%ADD15C,0.0060*%
%ADD16C,0.0080*%
%ADD17C,0.0040*%
%ADD18R,0.0002X0.0066*%
%ADD19R,0.0002X0.0068*%
%ADD20R,0.0002X0.0066*%
%ADD21R,0.0002X0.0070*%
%ADD22R,0.0002X0.0066*%
%ADD23R,0.0002X0.0070*%
%ADD24R,0.0002X0.0068*%
%ADD25R,0.0002X0.0070*%
%ADD26R,0.0002X0.0066*%
%ADD27R,0.0002X0.0070*%
%ADD28R,0.0002X0.0068*%
%ADD29R,0.0002X0.0068*%
%ADD30R,0.0002X0.0070*%
%ADD31R,0.0002X0.0070*%
%ADD32R,0.0002X0.0070*%
%ADD33R,0.0002X0.0072*%
%ADD34R,0.0002X0.0072*%
%ADD35R,0.0002X0.0004*%
%ADD36R,0.0002X0.0002*%
%ADD37R,0.0002X0.0006*%
%ADD38R,0.0002X0.0021*%
%ADD39R,0.0002X0.0033*%
%ADD40R,0.0002X0.0033*%
%ADD41R,0.0002X0.0047*%
%ADD42R,0.0002X0.0045*%
%ADD43R,0.0002X0.0043*%
%ADD44R,0.0002X0.0025*%
%ADD45R,0.0002X0.0035*%
%ADD46R,0.0002X0.0050*%
%ADD47R,0.0002X0.0064*%
%ADD48R,0.0002X0.0060*%
%ADD49R,0.0002X0.0035*%
%ADD50R,0.0002X0.0047*%
%ADD51R,0.0002X0.0082*%
%ADD52R,0.0002X0.0078*%
%ADD53R,0.0002X0.0045*%
%ADD54R,0.0002X0.0049*%
%ADD55R,0.0002X0.0080*%
%ADD56R,0.0002X0.0064*%
%ADD57R,0.0002X0.0095*%
%ADD58R,0.0002X0.0085*%
%ADD59R,0.0002X0.0064*%
%ADD60R,0.0002X0.0084*%
%ADD61R,0.0002X0.0056*%
%ADD62R,0.0002X0.0091*%
%ADD63R,0.0002X0.0064*%
%ADD64R,0.0002X0.0084*%
%ADD65R,0.0002X0.0107*%
%ADD66R,0.0002X0.0099*%
%ADD67R,0.0002X0.0064*%
%ADD68R,0.0002X0.0054*%
%ADD69R,0.0002X0.0072*%
%ADD70R,0.0002X0.0099*%
%ADD71R,0.0002X0.0082*%
%ADD72R,0.0002X0.0116*%
%ADD73R,0.0002X0.0109*%
%ADD74R,0.0002X0.0101*%
%ADD75R,0.0002X0.0058*%
%ADD76R,0.0002X0.0004*%
%ADD77R,0.0002X0.0107*%
%ADD78R,0.0002X0.0126*%
%ADD79R,0.0002X0.0118*%
%ADD80R,0.0002X0.0111*%
%ADD81R,0.0002X0.0076*%
%ADD82R,0.0002X0.0014*%
%ADD83R,0.0002X0.0115*%
%ADD84R,0.0002X0.0082*%
%ADD85R,0.0002X0.0134*%
%ADD86R,0.0002X0.0124*%
%ADD87R,0.0002X0.0064*%
%ADD88R,0.0002X0.0068*%
%ADD89R,0.0002X0.0080*%
%ADD90R,0.0002X0.0014*%
%ADD91R,0.0002X0.0122*%
%ADD92R,0.0002X0.0064*%
%ADD93R,0.0002X0.0082*%
%ADD94R,0.0002X0.0142*%
%ADD95R,0.0002X0.0130*%
%ADD96R,0.0002X0.0064*%
%ADD97R,0.0002X0.0087*%
%ADD98R,0.0002X0.0021*%
%ADD99R,0.0002X0.0128*%
%ADD100R,0.0002X0.0150*%
%ADD101R,0.0002X0.0136*%
%ADD102R,0.0002X0.0087*%
%ADD103R,0.0002X0.0023*%
%ADD104R,0.0002X0.0002*%
%ADD105R,0.0002X0.0134*%
%ADD106R,0.0002X0.0153*%
%ADD107R,0.0002X0.0142*%
%ADD108R,0.0002X0.0132*%
%ADD109R,0.0002X0.0076*%
%ADD110R,0.0002X0.0035*%
%ADD111R,0.0002X0.0140*%
%ADD112R,0.0002X0.0161*%
%ADD113R,0.0002X0.0148*%
%ADD114R,0.0002X0.0138*%
%ADD115R,0.0002X0.0103*%
%ADD116R,0.0002X0.0002*%
%ADD117R,0.0002X0.0039*%
%ADD118R,0.0002X0.0146*%
%ADD119R,0.0002X0.0082*%
%ADD120R,0.0002X0.0165*%
%ADD121R,0.0002X0.0150*%
%ADD122R,0.0002X0.0144*%
%ADD123R,0.0002X0.0080*%
%ADD124R,0.0002X0.0105*%
%ADD125R,0.0002X0.0041*%
%ADD126R,0.0002X0.0150*%
%ADD127R,0.0002X0.0171*%
%ADD128R,0.0002X0.0157*%
%ADD129R,0.0002X0.0148*%
%ADD130R,0.0002X0.0080*%
%ADD131R,0.0002X0.0074*%
%ADD132R,0.0002X0.0111*%
%ADD133R,0.0002X0.0002*%
%ADD134R,0.0002X0.0153*%
%ADD135R,0.0002X0.0080*%
%ADD136R,0.0002X0.0177*%
%ADD137R,0.0002X0.0151*%
%ADD138R,0.0002X0.0074*%
%ADD139R,0.0002X0.0115*%
%ADD140R,0.0002X0.0052*%
%ADD141R,0.0002X0.0084*%
%ADD142R,0.0002X0.0181*%
%ADD143R,0.0002X0.0165*%
%ADD144R,0.0002X0.0155*%
%ADD145R,0.0002X0.0076*%
%ADD146R,0.0002X0.0118*%
%ADD147R,0.0002X0.0060*%
%ADD148R,0.0002X0.0161*%
%ADD149R,0.0002X0.0186*%
%ADD150R,0.0002X0.0169*%
%ADD151R,0.0002X0.0159*%
%ADD152R,0.0002X0.0084*%
%ADD153R,0.0002X0.0078*%
%ADD154R,0.0002X0.0165*%
%ADD155R,0.0002X0.0190*%
%ADD156R,0.0002X0.0173*%
%ADD157R,0.0002X0.0126*%
%ADD158R,0.0002X0.0068*%
%ADD159R,0.0002X0.0169*%
%ADD160R,0.0002X0.0194*%
%ADD161R,0.0002X0.0177*%
%ADD162R,0.0002X0.0132*%
%ADD163R,0.0002X0.0239*%
%ADD164R,0.0002X0.0198*%
%ADD165R,0.0002X0.0179*%
%ADD166R,0.0002X0.0169*%
%ADD167R,0.0002X0.0134*%
%ADD168R,0.0002X0.0076*%
%ADD169R,0.0002X0.0241*%
%ADD170R,0.0002X0.0202*%
%ADD171R,0.0002X0.0181*%
%ADD172R,0.0002X0.0239*%
%ADD173R,0.0002X0.0085*%
%ADD174R,0.0002X0.0142*%
%ADD175R,0.0002X0.0084*%
%ADD176R,0.0002X0.0243*%
%ADD177R,0.0002X0.0204*%
%ADD178R,0.0002X0.0184*%
%ADD179R,0.0002X0.0241*%
%ADD180R,0.0002X0.0085*%
%ADD181R,0.0002X0.0142*%
%ADD182R,0.0002X0.0002*%
%ADD183R,0.0002X0.0245*%
%ADD184R,0.0002X0.0208*%
%ADD185R,0.0002X0.0186*%
%ADD186R,0.0002X0.0243*%
%ADD187R,0.0002X0.0146*%
%ADD188R,0.0002X0.0245*%
%ADD189R,0.0002X0.0212*%
%ADD190R,0.0002X0.0188*%
%ADD191R,0.0002X0.0243*%
%ADD192R,0.0002X0.0089*%
%ADD193R,0.0002X0.0153*%
%ADD194R,0.0002X0.0097*%
%ADD195R,0.0002X0.0247*%
%ADD196R,0.0002X0.0216*%
%ADD197R,0.0002X0.0190*%
%ADD198R,0.0002X0.0245*%
%ADD199R,0.0002X0.0089*%
%ADD200R,0.0002X0.0155*%
%ADD201R,0.0002X0.0097*%
%ADD202R,0.0002X0.0249*%
%ADD203R,0.0002X0.0216*%
%ADD204R,0.0002X0.0192*%
%ADD205R,0.0002X0.0247*%
%ADD206R,0.0002X0.0091*%
%ADD207R,0.0002X0.0157*%
%ADD208R,0.0002X0.0251*%
%ADD209R,0.0002X0.0219*%
%ADD210R,0.0002X0.0194*%
%ADD211R,0.0002X0.0093*%
%ADD212R,0.0002X0.0161*%
%ADD213R,0.0002X0.0107*%
%ADD214R,0.0002X0.0252*%
%ADD215R,0.0002X0.0080*%
%ADD216R,0.0002X0.0223*%
%ADD217R,0.0002X0.0087*%
%ADD218R,0.0002X0.0251*%
%ADD219R,0.0002X0.0095*%
%ADD220R,0.0002X0.0252*%
%ADD221R,0.0002X0.0076*%
%ADD222R,0.0002X0.0254*%
%ADD223R,0.0002X0.0089*%
%ADD224R,0.0002X0.0173*%
%ADD225R,0.0002X0.0118*%
%ADD226R,0.0002X0.0256*%
%ADD227R,0.0002X0.0087*%
%ADD228R,0.0002X0.0252*%
%ADD229R,0.0002X0.0101*%
%ADD230R,0.0002X0.0181*%
%ADD231R,0.0002X0.0122*%
%ADD232R,0.0002X0.0256*%
%ADD233R,0.0002X0.0080*%
%ADD234R,0.0002X0.0072*%
%ADD235R,0.0002X0.0254*%
%ADD236R,0.0002X0.0074*%
%ADD237R,0.0002X0.0101*%
%ADD238R,0.0002X0.0181*%
%ADD239R,0.0002X0.0126*%
%ADD240R,0.0002X0.0113*%
%ADD241R,0.0002X0.0122*%
%ADD242R,0.0002X0.0103*%
%ADD243R,0.0002X0.0103*%
%ADD244R,0.0002X0.0184*%
%ADD245R,0.0002X0.0128*%
%ADD246R,0.0002X0.0105*%
%ADD247R,0.0002X0.0116*%
%ADD248R,0.0002X0.0078*%
%ADD249R,0.0002X0.0062*%
%ADD250R,0.0002X0.0097*%
%ADD251R,0.0002X0.0105*%
%ADD252R,0.0002X0.0188*%
%ADD253R,0.0002X0.0099*%
%ADD254R,0.0002X0.0076*%
%ADD255R,0.0002X0.0056*%
%ADD256R,0.0002X0.0188*%
%ADD257R,0.0002X0.0136*%
%ADD258R,0.0002X0.0095*%
%ADD259R,0.0002X0.0107*%
%ADD260R,0.0002X0.0076*%
%ADD261R,0.0002X0.0050*%
%ADD262R,0.0002X0.0091*%
%ADD263R,0.0002X0.0062*%
%ADD264R,0.0002X0.0109*%
%ADD265R,0.0002X0.0196*%
%ADD266R,0.0002X0.0093*%
%ADD267R,0.0002X0.0045*%
%ADD268R,0.0002X0.0058*%
%ADD269R,0.0002X0.0109*%
%ADD270R,0.0002X0.0196*%
%ADD271R,0.0002X0.0146*%
%ADD272R,0.0002X0.0091*%
%ADD273R,0.0002X0.0037*%
%ADD274R,0.0002X0.0054*%
%ADD275R,0.0002X0.0200*%
%ADD276R,0.0002X0.0150*%
%ADD277R,0.0002X0.0095*%
%ADD278R,0.0002X0.0031*%
%ADD279R,0.0002X0.0049*%
%ADD280R,0.0002X0.0113*%
%ADD281R,0.0002X0.0204*%
%ADD282R,0.0002X0.0153*%
%ADD283R,0.0002X0.0093*%
%ADD284R,0.0002X0.0027*%
%ADD285R,0.0002X0.0041*%
%ADD286R,0.0002X0.0115*%
%ADD287R,0.0002X0.0206*%
%ADD288R,0.0002X0.0153*%
%ADD289R,0.0002X0.0062*%
%ADD290R,0.0002X0.0033*%
%ADD291R,0.0002X0.0117*%
%ADD292R,0.0002X0.0208*%
%ADD293R,0.0002X0.0159*%
%ADD294R,0.0002X0.0082*%
%ADD295R,0.0002X0.0087*%
%ADD296R,0.0002X0.0080*%
%ADD297R,0.0002X0.0066*%
%ADD298R,0.0002X0.0016*%
%ADD299R,0.0002X0.0062*%
%ADD300R,0.0002X0.0017*%
%ADD301R,0.0002X0.0117*%
%ADD302R,0.0002X0.0159*%
%ADD303R,0.0002X0.0012*%
%ADD304R,0.0002X0.0120*%
%ADD305R,0.0002X0.0216*%
%ADD306R,0.0002X0.0165*%
%ADD307R,0.0002X0.0006*%
%ADD308R,0.0002X0.0062*%
%ADD309R,0.0002X0.0120*%
%ADD310R,0.0002X0.0216*%
%ADD311R,0.0002X0.0167*%
%ADD312R,0.0002X0.0002*%
%ADD313R,0.0002X0.0122*%
%ADD314R,0.0002X0.0169*%
%ADD315R,0.0002X0.0124*%
%ADD316R,0.0002X0.0223*%
%ADD317R,0.0002X0.0171*%
%ADD318R,0.0002X0.0225*%
%ADD319R,0.0002X0.0177*%
%ADD320R,0.0002X0.0074*%
%ADD321R,0.0002X0.0078*%
%ADD322R,0.0002X0.0074*%
%ADD323R,0.0002X0.0128*%
%ADD324R,0.0002X0.0227*%
%ADD325R,0.0002X0.0130*%
%ADD326R,0.0002X0.0231*%
%ADD327R,0.0002X0.0183*%
%ADD328R,0.0002X0.0231*%
%ADD329R,0.0002X0.0186*%
%ADD330R,0.0002X0.0235*%
%ADD331R,0.0002X0.0190*%
%ADD332R,0.0002X0.0076*%
%ADD333R,0.0002X0.0134*%
%ADD334R,0.0002X0.0235*%
%ADD335R,0.0002X0.0239*%
%ADD336R,0.0002X0.0194*%
%ADD337R,0.0002X0.0091*%
%ADD338R,0.0002X0.0249*%
%ADD339R,0.0002X0.0198*%
%ADD340R,0.0002X0.0105*%
%ADD341R,0.0002X0.0068*%
%ADD342R,0.0002X0.0251*%
%ADD343R,0.0002X0.0202*%
%ADD344R,0.0002X0.0111*%
%ADD345R,0.0002X0.0252*%
%ADD346R,0.0002X0.0204*%
%ADD347R,0.0002X0.0260*%
%ADD348R,0.0002X0.0254*%
%ADD349R,0.0002X0.0260*%
%ADD350R,0.0002X0.0258*%
%ADD351R,0.0002X0.0208*%
%ADD352R,0.0002X0.0260*%
%ADD353R,0.0002X0.0128*%
%ADD354R,0.0002X0.0258*%
%ADD355R,0.0002X0.0212*%
%ADD356R,0.0002X0.0142*%
%ADD357R,0.0002X0.0258*%
%ADD358R,0.0002X0.0216*%
%ADD359R,0.0002X0.0138*%
%ADD360R,0.0002X0.0262*%
%ADD361R,0.0002X0.0266*%
%ADD362R,0.0002X0.0219*%
%ADD363R,0.0002X0.0138*%
%ADD364R,0.0002X0.0142*%
%ADD365R,0.0002X0.0266*%
%ADD366R,0.0002X0.0221*%
%ADD367R,0.0002X0.0136*%
%ADD368R,0.0002X0.0144*%
%ADD369R,0.0002X0.0272*%
%ADD370R,0.0002X0.0223*%
%ADD371R,0.0002X0.0134*%
%ADD372R,0.0002X0.0146*%
%ADD373R,0.0002X0.0274*%
%ADD374R,0.0002X0.0264*%
%ADD375R,0.0002X0.0276*%
%ADD376R,0.0002X0.0229*%
%ADD377R,0.0002X0.0068*%
%ADD378R,0.0002X0.0130*%
%ADD379R,0.0002X0.0264*%
%ADD380R,0.0002X0.0150*%
%ADD381R,0.0002X0.0068*%
%ADD382R,0.0002X0.0278*%
%ADD383R,0.0002X0.0151*%
%ADD384R,0.0002X0.0066*%
%ADD385R,0.0002X0.0280*%
%ADD386R,0.0002X0.0150*%
%ADD387R,0.0002X0.0284*%
%ADD388R,0.0002X0.0126*%
%ADD389R,0.0002X0.0264*%
%ADD390R,0.0002X0.0151*%
%ADD391R,0.0002X0.0284*%
%ADD392R,0.0002X0.0239*%
%ADD393R,0.0002X0.0264*%
%ADD394R,0.0002X0.0150*%
%ADD395R,0.0002X0.0289*%
%ADD396R,0.0002X0.0241*%
%ADD397R,0.0002X0.0122*%
%ADD398R,0.0002X0.0289*%
%ADD399R,0.0002X0.0243*%
%ADD400R,0.0002X0.0120*%
%ADD401R,0.0002X0.0146*%
%ADD402R,0.0002X0.0293*%
%ADD403R,0.0002X0.0245*%
%ADD404R,0.0002X0.0118*%
%ADD405R,0.0002X0.0295*%
%ADD406R,0.0002X0.0295*%
%ADD407R,0.0002X0.0249*%
%ADD408R,0.0002X0.0140*%
%ADD409R,0.0002X0.0293*%
%ADD410R,0.0002X0.0132*%
%ADD411R,0.0002X0.0293*%
%ADD412R,0.0002X0.0254*%
%ADD413R,0.0002X0.0291*%
%ADD414R,0.0002X0.0258*%
%ADD415R,0.0002X0.0062*%
%ADD416R,0.0002X0.0118*%
%ADD417R,0.0002X0.0291*%
%ADD418R,0.0002X0.0260*%
%ADD419R,0.0002X0.0111*%
%ADD420R,0.0002X0.0291*%
%ADD421R,0.0002X0.0258*%
%ADD422R,0.0002X0.0126*%
%ADD423R,0.0002X0.0105*%
%ADD424R,0.0002X0.0291*%
%ADD425R,0.0002X0.0266*%
%ADD426R,0.0002X0.0291*%
%ADD427R,0.0002X0.0130*%
%ADD428R,0.0002X0.0270*%
%ADD429R,0.0002X0.0072*%
%ADD430R,0.0002X0.0270*%
%ADD431R,0.0002X0.0074*%
%ADD432R,0.0002X0.0134*%
%ADD433R,0.0002X0.0272*%
%ADD434R,0.0002X0.0074*%
%ADD435R,0.0002X0.0287*%
%ADD436R,0.0002X0.0074*%
%ADD437R,0.0002X0.0276*%
%ADD438R,0.0002X0.0289*%
%ADD439R,0.0002X0.0278*%
%ADD440R,0.0002X0.0142*%
%ADD441R,0.0002X0.0070*%
%ADD442R,0.0002X0.0282*%
%ADD443R,0.0002X0.0282*%
%ADD444R,0.0002X0.0287*%
%ADD445R,0.0002X0.0284*%
%ADD446R,0.0002X0.0087*%
%ADD447R,0.0002X0.0285*%
%ADD448R,0.0002X0.0287*%
%ADD449R,0.0002X0.0285*%
%ADD450R,0.0002X0.0093*%
%ADD451R,0.0002X0.0289*%
%ADD452R,0.0002X0.0093*%
%ADD453R,0.0002X0.0289*%
%ADD454R,0.0002X0.0087*%
%ADD455R,0.0002X0.0103*%
%ADD456R,0.0002X0.0097*%
%ADD457R,0.0002X0.0099*%
%ADD458R,0.0002X0.0107*%
%ADD459R,0.0002X0.0284*%
%ADD460R,0.0002X0.0115*%
%ADD461R,0.0002X0.0115*%
%ADD462R,0.0002X0.0087*%
%ADD463R,0.0002X0.0297*%
%ADD464R,0.0002X0.0099*%
%ADD465R,0.0002X0.0113*%
%ADD466R,0.0002X0.0128*%
%ADD467R,0.0002X0.0111*%
%ADD468R,0.0002X0.0284*%
%ADD469R,0.0002X0.0301*%
%ADD470R,0.0002X0.0144*%
%ADD471R,0.0002X0.0105*%
%ADD472R,0.0002X0.0284*%
%ADD473R,0.0002X0.0301*%
%ADD474R,0.0002X0.0394*%
%ADD475R,0.0002X0.0258*%
%ADD476R,0.0002X0.0396*%
%ADD477R,0.0002X0.0254*%
%ADD478R,0.0002X0.0282*%
%ADD479R,0.0002X0.0305*%
%ADD480R,0.0002X0.0394*%
%ADD481R,0.0002X0.0256*%
%ADD482R,0.0002X0.0280*%
%ADD483R,0.0002X0.0305*%
%ADD484R,0.0002X0.0392*%
%ADD485R,0.0002X0.0394*%
%ADD486R,0.0002X0.0252*%
%ADD487R,0.0002X0.0309*%
%ADD488R,0.0002X0.0392*%
%ADD489R,0.0002X0.0251*%
%ADD490R,0.0002X0.0309*%
%ADD491R,0.0002X0.0392*%
%ADD492R,0.0002X0.0390*%
%ADD493R,0.0002X0.0216*%
%ADD494R,0.0002X0.0184*%
%ADD495R,0.0002X0.0282*%
%ADD496R,0.0002X0.0309*%
%ADD497R,0.0002X0.0390*%
%ADD498R,0.0002X0.0212*%
%ADD499R,0.0002X0.0183*%
%ADD500R,0.0002X0.0247*%
%ADD501R,0.0002X0.0313*%
%ADD502R,0.0002X0.0388*%
%ADD503R,0.0002X0.0210*%
%ADD504R,0.0002X0.0221*%
%ADD505R,0.0002X0.0165*%
%ADD506R,0.0002X0.0206*%
%ADD507R,0.0002X0.0278*%
%ADD508R,0.0002X0.0315*%
%ADD509R,0.0002X0.0221*%
%ADD510R,0.0002X0.0161*%
%ADD511R,0.0002X0.0204*%
%ADD512R,0.0002X0.0163*%
%ADD513R,0.0002X0.0243*%
%ADD514R,0.0002X0.0278*%
%ADD515R,0.0002X0.0317*%
%ADD516R,0.0002X0.0219*%
%ADD517R,0.0002X0.0200*%
%ADD518R,0.0002X0.0175*%
%ADD519R,0.0002X0.0221*%
%ADD520R,0.0002X0.0159*%
%ADD521R,0.0002X0.0278*%
%ADD522R,0.0002X0.0317*%
%ADD523R,0.0002X0.0243*%
%ADD524R,0.0002X0.0171*%
%ADD525R,0.0002X0.0274*%
%ADD526R,0.0002X0.0319*%
%ADD527R,0.0002X0.0192*%
%ADD528R,0.0002X0.0171*%
%ADD529R,0.0002X0.0239*%
%ADD530R,0.0002X0.0276*%
%ADD531R,0.0002X0.0320*%
%ADD532R,0.0002X0.0167*%
%ADD533R,0.0002X0.0274*%
%ADD534R,0.0002X0.0320*%
%ADD535R,0.0002X0.0169*%
%ADD536R,0.0002X0.0184*%
%ADD537R,0.0002X0.0163*%
%ADD538R,0.0002X0.0151*%
%ADD539R,0.0002X0.0165*%
%ADD540R,0.0002X0.0278*%
%ADD541R,0.0002X0.0322*%
%ADD542R,0.0002X0.0146*%
%ADD543R,0.0002X0.0165*%
%ADD544R,0.0002X0.0181*%
%ADD545R,0.0002X0.0148*%
%ADD546R,0.0002X0.0163*%
%ADD547R,0.0002X0.0177*%
%ADD548R,0.0002X0.0159*%
%ADD549R,0.0002X0.0276*%
%ADD550R,0.0002X0.0324*%
%ADD551R,0.0002X0.0173*%
%ADD552R,0.0002X0.0136*%
%ADD553R,0.0002X0.0140*%
%ADD554R,0.0002X0.0153*%
%ADD555R,0.0002X0.0324*%
%ADD556R,0.0002X0.0153*%
%ADD557R,0.0002X0.0167*%
%ADD558R,0.0002X0.0151*%
%ADD559R,0.0002X0.0328*%
%ADD560R,0.0002X0.0134*%
%ADD561R,0.0002X0.0328*%
%ADD562R,0.0002X0.0124*%
%ADD563R,0.0002X0.0130*%
%ADD564R,0.0002X0.0272*%
%ADD565R,0.0002X0.0328*%
%ADD566R,0.0002X0.0120*%
%ADD567R,0.0002X0.0126*%
%ADD568R,0.0002X0.0140*%
%ADD569R,0.0002X0.0332*%
%ADD570R,0.0002X0.0276*%
%ADD571R,0.0002X0.0332*%
%ADD572R,0.0002X0.0128*%
%ADD573R,0.0002X0.0113*%
%ADD574R,0.0002X0.0126*%
%ADD575R,0.0002X0.0105*%
%ADD576R,0.0002X0.0334*%
%ADD577R,0.0002X0.0117*%
%ADD578R,0.0002X0.0336*%
%ADD579R,0.0002X0.0118*%
%ADD580R,0.0002X0.0099*%
%ADD581R,0.0002X0.0270*%
%ADD582R,0.0002X0.0336*%
%ADD583R,0.0002X0.0085*%
%ADD584R,0.0002X0.0338*%
%ADD585R,0.0002X0.0082*%
%ADD586R,0.0002X0.0085*%
%ADD587R,0.0002X0.0087*%
%ADD588R,0.0002X0.0340*%
%ADD589R,0.0002X0.0268*%
%ADD590R,0.0002X0.0342*%
%ADD591R,0.0002X0.0039*%
%ADD592R,0.0002X0.0050*%
%ADD593R,0.0002X0.0052*%
%ADD594R,0.0002X0.0270*%
%ADD595R,0.0002X0.0342*%
%ADD596R,0.0002X0.0029*%
%ADD597R,0.0002X0.0033*%
%ADD598R,0.0002X0.0033*%
%ADD599R,0.0002X0.0016*%
%ADD600R,0.0002X0.0344*%
%ADD601R,0.0002X0.0266*%
%ADD602R,0.0002X0.0344*%
%ADD603R,0.0002X0.0268*%
%ADD604R,0.0002X0.0344*%
%ADD605R,0.0002X0.0264*%
%ADD606R,0.0002X0.0348*%
%ADD607R,0.0002X0.0264*%
%ADD608R,0.0002X0.0348*%
%ADD609R,0.0002X0.0264*%
%ADD610R,0.0002X0.0348*%
%ADD611R,0.0002X0.0351*%
%ADD612R,0.0002X0.0351*%
%ADD613R,0.0002X0.0264*%
%ADD614R,0.0002X0.0351*%
%ADD615R,0.0002X0.0355*%
%ADD616R,0.0002X0.0262*%
%ADD617R,0.0002X0.0355*%
%ADD618R,0.0002X0.0260*%
%ADD619R,0.0002X0.0355*%
%ADD620R,0.0002X0.0260*%
%ADD621R,0.0002X0.0357*%
%ADD622R,0.0002X0.0260*%
%ADD623R,0.0002X0.0357*%
%ADD624R,0.0002X0.0359*%
%ADD625R,0.0002X0.0361*%
%ADD626R,0.0002X0.0256*%
%ADD627R,0.0002X0.0361*%
%ADD628R,0.0002X0.0254*%
%ADD629R,0.0002X0.0361*%
%ADD630R,0.0002X0.0363*%
%ADD631R,0.0002X0.0258*%
%ADD632R,0.0002X0.0363*%
%ADD633R,0.0002X0.0365*%
%ADD634R,0.0002X0.0254*%
%ADD635R,0.0002X0.0365*%
%ADD636R,0.0002X0.0365*%
%ADD637R,0.0002X0.0367*%
%ADD638R,0.0002X0.0367*%
%ADD639R,0.0002X0.0367*%
%ADD640R,0.0002X0.0012*%
%ADD641R,0.0002X0.0027*%
%ADD642R,0.0002X0.0252*%
%ADD643R,0.0002X0.0371*%
%ADD644R,0.0002X0.0037*%
%ADD645R,0.0002X0.0371*%
%ADD646R,0.0002X0.0043*%
%ADD647R,0.0002X0.0371*%
%ADD648R,0.0002X0.0056*%
%ADD649R,0.0002X0.0375*%
%ADD650R,0.0002X0.0060*%
%ADD651R,0.0002X0.0371*%
%ADD652R,0.0002X0.0371*%
%ADD653R,0.0002X0.0247*%
%ADD654R,0.0002X0.0249*%
%ADD655R,0.0002X0.0247*%
%ADD656R,0.0002X0.0375*%
%ADD657R,0.0002X0.0375*%
%ADD658R,0.0002X0.0245*%
%ADD659R,0.0002X0.0377*%
%ADD660R,0.0002X0.0245*%
%ADD661R,0.0002X0.0377*%
%ADD662R,0.0002X0.0243*%
%ADD663R,0.0002X0.0377*%
%ADD664R,0.0002X0.0245*%
%ADD665R,0.0002X0.0379*%
%ADD666R,0.0002X0.0243*%
%ADD667R,0.0002X0.0381*%
%ADD668R,0.0002X0.0241*%
%ADD669R,0.0002X0.0381*%
%ADD670R,0.0002X0.0381*%
%ADD671R,0.0002X0.0241*%
%ADD672R,0.0002X0.0004*%
%ADD673R,0.0002X0.0237*%
%ADD674R,0.0002X0.0379*%
%ADD675R,0.0002X0.0004*%
%ADD676R,0.0002X0.0237*%
%ADD677R,0.0002X0.0379*%
%ADD678R,0.0002X0.0379*%
%ADD679R,0.0002X0.0008*%
%ADD680R,0.0002X0.0010*%
%ADD681R,0.0002X0.0383*%
%ADD682R,0.0002X0.0012*%
%ADD683R,0.0002X0.0235*%
%ADD684R,0.0002X0.0383*%
%ADD685R,0.0002X0.0012*%
%ADD686R,0.0002X0.0235*%
%ADD687R,0.0002X0.0383*%
%ADD688R,0.0002X0.0058*%
%ADD689R,0.0002X0.0014*%
%ADD690R,0.0002X0.0014*%
%ADD691R,0.0002X0.0014*%
%ADD692R,0.0002X0.0231*%
%ADD693R,0.0002X0.0035*%
%ADD694R,0.0002X0.0017*%
%ADD695R,0.0002X0.0233*%
%ADD696R,0.0002X0.0023*%
%ADD697R,0.0002X0.0017*%
%ADD698R,0.0002X0.0231*%
%ADD699R,0.0002X0.0385*%
%ADD700R,0.0002X0.0019*%
%ADD701R,0.0002X0.0229*%
%ADD702R,0.0002X0.0385*%
%ADD703R,0.0002X0.0019*%
%ADD704R,0.0002X0.0227*%
%ADD705R,0.0002X0.0383*%
%ADD706R,0.0002X0.0019*%
%ADD707R,0.0002X0.0229*%
%ADD708R,0.0002X0.0383*%
%ADD709R,0.0002X0.0229*%
%ADD710R,0.0002X0.0383*%
%ADD711R,0.0002X0.0023*%
%ADD712R,0.0002X0.0021*%
%ADD713R,0.0002X0.0027*%
%ADD714R,0.0002X0.0225*%
%ADD715R,0.0002X0.0225*%
%ADD716R,0.0002X0.0386*%
%ADD717R,0.0002X0.0029*%
%ADD718R,0.0002X0.0223*%
%ADD719R,0.0002X0.0386*%
%ADD720R,0.0002X0.0029*%
%ADD721R,0.0002X0.0029*%
%ADD722R,0.0002X0.0223*%
%ADD723R,0.0002X0.0384*%
%ADD724R,0.0002X0.0384*%
%ADD725R,0.0002X0.0384*%
%ADD726R,0.0002X0.0037*%
%ADD727R,0.0002X0.0221*%
%ADD728R,0.0002X0.0037*%
%ADD729R,0.0002X0.0219*%
%ADD730R,0.0002X0.0037*%
%ADD731R,0.0002X0.0219*%
%ADD732R,0.0002X0.0386*%
%ADD733R,0.0002X0.0041*%
%ADD734R,0.0002X0.0385*%
%ADD735R,0.0002X0.0041*%
%ADD736R,0.0002X0.0045*%
%ADD737R,0.0002X0.0045*%
%ADD738R,0.0002X0.0045*%
%ADD739R,0.0002X0.0214*%
%ADD740R,0.0002X0.0049*%
%ADD741R,0.0002X0.0212*%
%ADD742R,0.0002X0.0049*%
%ADD743R,0.0002X0.0214*%
%ADD744R,0.0002X0.0214*%
%ADD745R,0.0002X0.0052*%
%ADD746R,0.0002X0.0210*%
%ADD747R,0.0002X0.0054*%
%ADD748R,0.0002X0.0210*%
%ADD749R,0.0002X0.0056*%
%ADD750R,0.0002X0.0056*%
%ADD751R,0.0002X0.0204*%
%ADD752R,0.0002X0.0058*%
%ADD753R,0.0002X0.0204*%
%ADD754R,0.0002X0.0206*%
%ADD755R,0.0002X0.0204*%
%ADD756R,0.0002X0.0060*%
%ADD757R,0.0002X0.0021*%
%ADD758R,0.0002X0.0202*%
%ADD759R,0.0002X0.0023*%
%ADD760R,0.0002X0.0200*%
%ADD761R,0.0002X0.0066*%
%ADD762R,0.0002X0.0023*%
%ADD763R,0.0002X0.0200*%
%ADD764R,0.0002X0.0023*%
%ADD765R,0.0002X0.0066*%
%ADD766R,0.0002X0.0379*%
%ADD767R,0.0002X0.0021*%
%ADD768R,0.0002X0.0200*%
%ADD769R,0.0002X0.0379*%
%ADD770R,0.0002X0.0196*%
%ADD771R,0.0002X0.0023*%
%ADD772R,0.0002X0.0194*%
%ADD773R,0.0002X0.0070*%
%ADD774R,0.0002X0.0072*%
%ADD775R,0.0002X0.0194*%
%ADD776R,0.0002X0.0074*%
%ADD777R,0.0002X0.0192*%
%ADD778R,0.0002X0.0076*%
%ADD779R,0.0002X0.0190*%
%ADD780R,0.0002X0.0373*%
%ADD781R,0.0002X0.0078*%
%ADD782R,0.0002X0.0373*%
%ADD783R,0.0002X0.0078*%
%ADD784R,0.0002X0.0188*%
%ADD785R,0.0002X0.0078*%
%ADD786R,0.0002X0.0080*%
%ADD787R,0.0002X0.0371*%
%ADD788R,0.0002X0.0082*%
%ADD789R,0.0002X0.0184*%
%ADD790R,0.0002X0.0082*%
%ADD791R,0.0002X0.0183*%
%ADD792R,0.0002X0.0369*%
%ADD793R,0.0002X0.0183*%
%ADD794R,0.0002X0.0085*%
%ADD795R,0.0002X0.0181*%
%ADD796R,0.0002X0.0025*%
%ADD797R,0.0002X0.0363*%
%ADD798R,0.0002X0.0179*%
%ADD799R,0.0002X0.0361*%
%ADD800R,0.0002X0.0177*%
%ADD801R,0.0002X0.0361*%
%ADD802R,0.0002X0.0179*%
%ADD803R,0.0002X0.0361*%
%ADD804R,0.0002X0.0091*%
%ADD805R,0.0002X0.0175*%
%ADD806R,0.0002X0.0025*%
%ADD807R,0.0002X0.0175*%
%ADD808R,0.0002X0.0173*%
%ADD809R,0.0002X0.0025*%
%ADD810R,0.0002X0.0093*%
%ADD811R,0.0002X0.0357*%
%ADD812R,0.0002X0.0025*%
%ADD813R,0.0002X0.0095*%
%ADD814R,0.0002X0.0169*%
%ADD815R,0.0002X0.0169*%
%ADD816R,0.0002X0.0002*%
%ADD817R,0.0002X0.0353*%
%ADD818R,0.0002X0.0353*%
%ADD819R,0.0002X0.0165*%
%ADD820R,0.0002X0.0353*%
%ADD821R,0.0002X0.0101*%
%ADD822R,0.0002X0.0350*%
%ADD823R,0.0002X0.0097*%
%ADD824R,0.0002X0.0099*%
%ADD825R,0.0002X0.0163*%
%ADD826R,0.0002X0.0348*%
%ADD827R,0.0002X0.0025*%
%ADD828R,0.0002X0.0346*%
%ADD829R,0.0002X0.0099*%
%ADD830R,0.0002X0.0161*%
%ADD831R,0.0002X0.0346*%
%ADD832R,0.0002X0.0103*%
%ADD833R,0.0002X0.0159*%
%ADD834R,0.0002X0.0103*%
%ADD835R,0.0002X0.0155*%
%ADD836R,0.0002X0.0155*%
%ADD837R,0.0002X0.0342*%
%ADD838R,0.0002X0.0107*%
%ADD839R,0.0002X0.0157*%
%ADD840R,0.0002X0.0340*%
%ADD841R,0.0002X0.0019*%
%ADD842R,0.0002X0.0338*%
%ADD843R,0.0002X0.0043*%
%ADD844R,0.0002X0.0025*%
%ADD845R,0.0002X0.0105*%
%ADD846R,0.0002X0.0151*%
%ADD847R,0.0002X0.0338*%
%ADD848R,0.0002X0.0056*%
%ADD849R,0.0002X0.0338*%
%ADD850R,0.0002X0.0171*%
%ADD851R,0.0002X0.0336*%
%ADD852R,0.0002X0.0336*%
%ADD853R,0.0002X0.0192*%
%ADD854R,0.0002X0.0334*%
%ADD855R,0.0002X0.0031*%
%ADD856R,0.0002X0.0109*%
%ADD857R,0.0002X0.0332*%
%ADD858R,0.0002X0.0204*%
%ADD859R,0.0002X0.0111*%
%ADD860R,0.0002X0.0146*%
%ADD861R,0.0002X0.0334*%
%ADD862R,0.0002X0.0210*%
%ADD863R,0.0002X0.0035*%
%ADD864R,0.0002X0.0332*%
%ADD865R,0.0002X0.0330*%
%ADD866R,0.0002X0.0218*%
%ADD867R,0.0002X0.0144*%
%ADD868R,0.0002X0.0328*%
%ADD869R,0.0002X0.0221*%
%ADD870R,0.0002X0.0120*%
%ADD871R,0.0002X0.0324*%
%ADD872R,0.0002X0.0225*%
%ADD873R,0.0002X0.0227*%
%ADD874R,0.0002X0.0128*%
%ADD875R,0.0002X0.0113*%
%ADD876R,0.0002X0.0140*%
%ADD877R,0.0002X0.0132*%
%ADD878R,0.0002X0.0051*%
%ADD879R,0.0002X0.0052*%
%ADD880R,0.0002X0.0045*%
%ADD881R,0.0002X0.0140*%
%ADD882R,0.0002X0.0233*%
%ADD883R,0.0002X0.0047*%
%ADD884R,0.0002X0.0235*%
%ADD885R,0.0002X0.0136*%
%ADD886R,0.0002X0.0317*%
%ADD887R,0.0002X0.0142*%
%ADD888R,0.0002X0.0041*%
%ADD889R,0.0002X0.0043*%
%ADD890R,0.0002X0.0051*%
%ADD891R,0.0002X0.0115*%
%ADD892R,0.0002X0.0138*%
%ADD893R,0.0002X0.0317*%
%ADD894R,0.0002X0.0241*%
%ADD895R,0.0002X0.0146*%
%ADD896R,0.0002X0.0136*%
%ADD897R,0.0002X0.0317*%
%ADD898R,0.0002X0.0039*%
%ADD899R,0.0002X0.0041*%
%ADD900R,0.0002X0.0117*%
%ADD901R,0.0002X0.0136*%
%ADD902R,0.0002X0.0039*%
%ADD903R,0.0002X0.0033*%
%ADD904R,0.0002X0.0118*%
%ADD905R,0.0002X0.0132*%
%ADD906R,0.0002X0.0315*%
%ADD907R,0.0002X0.0249*%
%ADD908R,0.0002X0.0223*%
%ADD909R,0.0002X0.0031*%
%ADD910R,0.0002X0.0130*%
%ADD911R,0.0002X0.0313*%
%ADD912R,0.0002X0.0223*%
%ADD913R,0.0002X0.0313*%
%ADD914R,0.0002X0.0252*%
%ADD915R,0.0002X0.0225*%
%ADD916R,0.0002X0.0126*%
%ADD917R,0.0002X0.0254*%
%ADD918R,0.0002X0.0227*%
%ADD919R,0.0002X0.0027*%
%ADD920R,0.0002X0.0008*%
%ADD921R,0.0002X0.0307*%
%ADD922R,0.0002X0.0027*%
%ADD923R,0.0002X0.0120*%
%ADD924R,0.0002X0.0010*%
%ADD925R,0.0002X0.0307*%
%ADD926R,0.0002X0.0258*%
%ADD927R,0.0002X0.0229*%
%ADD928R,0.0002X0.0027*%
%ADD929R,0.0002X0.0031*%
%ADD930R,0.0002X0.0305*%
%ADD931R,0.0002X0.0122*%
%ADD932R,0.0002X0.0010*%
%ADD933R,0.0002X0.0305*%
%ADD934R,0.0002X0.0260*%
%ADD935R,0.0002X0.0229*%
%ADD936R,0.0002X0.0023*%
%ADD937R,0.0002X0.0122*%
%ADD938R,0.0002X0.0303*%
%ADD939R,0.0002X0.0260*%
%ADD940R,0.0002X0.0231*%
%ADD941R,0.0002X0.0299*%
%ADD942R,0.0002X0.0124*%
%ADD943R,0.0002X0.0299*%
%ADD944R,0.0002X0.0105*%
%ADD945R,0.0002X0.0047*%
%ADD946R,0.0002X0.0120*%
%ADD947R,0.0002X0.0122*%
%ADD948R,0.0002X0.0033*%
%ADD949R,0.0002X0.0295*%
%ADD950R,0.0002X0.0091*%
%ADD951R,0.0002X0.0117*%
%ADD952R,0.0002X0.0037*%
%ADD953R,0.0002X0.0126*%
%ADD954R,0.0002X0.0047*%
%ADD955R,0.0002X0.0052*%
%ADD956R,0.0002X0.0280*%
%ADD957R,0.0002X0.0031*%
%ADD958R,0.0002X0.0031*%
%ADD959R,0.0002X0.0103*%
%ADD960R,0.0002X0.0276*%
%ADD961R,0.0002X0.0029*%
%ADD962R,0.0002X0.0064*%
%ADD963R,0.0002X0.0128*%
%ADD964R,0.0002X0.0268*%
%ADD965R,0.0002X0.0027*%
%ADD966R,0.0002X0.0130*%
%ADD967R,0.0002X0.0132*%
%ADD968R,0.0002X0.0254*%
%ADD969R,0.0002X0.0252*%
%ADD970R,0.0002X0.0087*%
%ADD971R,0.0002X0.0252*%
%ADD972R,0.0002X0.0134*%
%ADD973R,0.0002X0.0249*%
%ADD974R,0.0002X0.0109*%
%ADD975R,0.0002X0.0111*%
%ADD976R,0.0002X0.0237*%
%ADD977R,0.0002X0.0080*%
%ADD978R,0.0002X0.0225*%
%ADD979R,0.0002X0.0025*%
%ADD980R,0.0002X0.0138*%
%ADD981R,0.0002X0.0219*%
%ADD982R,0.0002X0.0140*%
%ADD983R,0.0002X0.0218*%
%ADD984R,0.0002X0.0212*%
%ADD985R,0.0002X0.0144*%
%ADD986R,0.0002X0.0064*%
%ADD987R,0.0002X0.0212*%
%ADD988R,0.0002X0.0151*%
%ADD989R,0.0002X0.0062*%
%ADD990R,0.0002X0.0062*%
%ADD991R,0.0002X0.0206*%
%ADD992R,0.0002X0.0056*%
%ADD993R,0.0002X0.0200*%
%ADD994R,0.0002X0.0140*%
%ADD995R,0.0002X0.0198*%
%ADD996R,0.0002X0.0254*%
%ADD997R,0.0002X0.0171*%
%ADD998R,0.0002X0.0192*%
%ADD999R,0.0002X0.0251*%
%ADD1000R,0.0002X0.0050*%
%ADD1001R,0.0002X0.0190*%
%ADD1002R,0.0002X0.0249*%
%ADD1003R,0.0002X0.0043*%
%ADD1004R,0.0002X0.0181*%
%ADD1005R,0.0002X0.0241*%
%ADD1006R,0.0002X0.0043*%
%ADD1007R,0.0002X0.0177*%
%ADD1008R,0.0002X0.0235*%
%ADD1009R,0.0002X0.0043*%
%ADD1010R,0.0002X0.0231*%
%ADD1011R,0.0002X0.0043*%
%ADD1012R,0.0002X0.0138*%
%ADD1013R,0.0002X0.0138*%
%ADD1014R,0.0002X0.0169*%
%ADD1015R,0.0002X0.0047*%
%ADD1016R,0.0002X0.0037*%
%ADD1017R,0.0002X0.0165*%
%ADD1018R,0.0002X0.0216*%
%ADD1019R,0.0002X0.0051*%
%ADD1020R,0.0002X0.0208*%
%ADD1021R,0.0002X0.0140*%
%ADD1022R,0.0002X0.0212*%
%ADD1023R,0.0002X0.0029*%
%ADD1024R,0.0002X0.0212*%
%ADD1025R,0.0002X0.0027*%
%ADD1026R,0.0002X0.0216*%
%ADD1027R,0.0002X0.0151*%
%ADD1028R,0.0002X0.0223*%
%ADD1029R,0.0002X0.0025*%
%ADD1030R,0.0002X0.0221*%
%ADD1031R,0.0002X0.0029*%
%ADD1032R,0.0002X0.0227*%
%ADD1033R,0.0002X0.0027*%
%ADD1034R,0.0002X0.0148*%
%ADD1035R,0.0002X0.0225*%
%ADD1036R,0.0002X0.0229*%
%ADD1037R,0.0002X0.0021*%
%ADD1038R,0.0002X0.0138*%
%ADD1039R,0.0002X0.0134*%
%ADD1040R,0.0002X0.0233*%
%ADD1041R,0.0002X0.0037*%
%ADD1042R,0.0002X0.0134*%
%ADD1043R,0.0002X0.0037*%
%ADD1044R,0.0002X0.0016*%
%ADD1045R,0.0002X0.0237*%
%ADD1046R,0.0002X0.0014*%
%ADD1047R,0.0002X0.0089*%
%ADD1048R,0.0002X0.0016*%
%ADD1049R,0.0002X0.0010*%
%ADD1050R,0.0002X0.0052*%
%ADD1051R,0.0002X0.0006*%
%ADD1052R,0.0002X0.0056*%
%ADD1053R,0.0002X0.0136*%
%ADD1054R,0.0002X0.0282*%
%ADD1055R,0.0002X0.0091*%
%ADD1056R,0.0002X0.0091*%
%ADD1057R,0.0002X0.0301*%
%ADD1058R,0.0002X0.0021*%
%ADD1059R,0.0002X0.0309*%
%ADD1060R,0.0002X0.0315*%
%ADD1061R,0.0002X0.0320*%
%ADD1062R,0.0002X0.0051*%
%ADD1063R,0.0002X0.0051*%
%ADD1064R,0.0002X0.0346*%
%ADD1065R,0.0002X0.0039*%
%ADD1066R,0.0002X0.0035*%
%ADD1067R,0.0002X0.0126*%
%ADD1068R,0.0002X0.0373*%
%ADD1069R,0.0002X0.0124*%
%ADD1070R,0.0002X0.0394*%
%ADD1071R,0.0002X0.0390*%
%ADD1072R,0.0002X0.0400*%
%ADD1073R,0.0002X0.0408*%
%ADD1074R,0.0002X0.0410*%
%ADD1075R,0.0002X0.0414*%
%ADD1076R,0.0002X0.0416*%
%ADD1077R,0.0002X0.0421*%
%ADD1078R,0.0002X0.0247*%
%ADD1079R,0.0002X0.0033*%
%ADD1080R,0.0002X0.0429*%
%ADD1081R,0.0002X0.0425*%
%ADD1082R,0.0002X0.0247*%
%ADD1083R,0.0002X0.0437*%
%ADD1084R,0.0002X0.0111*%
%ADD1085R,0.0002X0.0437*%
%ADD1086R,0.0002X0.0056*%
%ADD1087R,0.0002X0.0113*%
%ADD1088R,0.0002X0.0447*%
%ADD1089R,0.0002X0.0449*%
%ADD1090R,0.0002X0.0111*%
%ADD1091R,0.0002X0.0454*%
%ADD1092R,0.0002X0.0241*%
%ADD1093R,0.0002X0.0462*%
%ADD1094R,0.0002X0.0462*%
%ADD1095R,0.0002X0.0460*%
%ADD1096R,0.0002X0.0237*%
%ADD1097R,0.0002X0.0456*%
%ADD1098R,0.0002X0.0452*%
%ADD1099R,0.0002X0.0449*%
%ADD1100R,0.0002X0.0443*%
%ADD1101R,0.0002X0.0439*%
%ADD1102R,0.0002X0.0101*%
%ADD1103R,0.0002X0.0437*%
%ADD1104R,0.0002X0.0433*%
%ADD1105R,0.0002X0.0423*%
%ADD1106R,0.0002X0.0219*%
%ADD1107R,0.0002X0.0418*%
%ADD1108R,0.0002X0.0218*%
%ADD1109R,0.0002X0.0418*%
%ADD1110R,0.0002X0.0414*%
%ADD1111R,0.0002X0.0404*%
%ADD1112R,0.0002X0.0400*%
%ADD1113R,0.0002X0.0200*%
%ADD1114R,0.0002X0.0398*%
%ADD1115R,0.0002X0.0175*%
%ADD1116R,0.0002X0.0159*%
%ADD1117R,0.0002X0.0375*%
%ADD1118R,0.0002X0.0367*%
%ADD1119R,0.0002X0.0074*%
%ADD1120R,0.0002X0.0367*%
%ADD1121R,0.0002X0.0006*%
%ADD1122R,0.0002X0.0332*%
%ADD1123R,0.0002X0.0324*%
%ADD1124R,0.0002X0.0293*%
%ADD1125R,0.0002X0.0033*%
%ADD1126R,0.0002X0.0033*%
%ADD1127R,0.0002X0.0272*%
%ADD1128R,0.0002X0.0027*%
%ADD1129R,0.0002X0.0229*%
%ADD1130C,0.0059*%
D10*
X001820Y001850D02*
X017340Y001840D01*
X018270Y002770D01*
X018270Y010130D01*
X017350Y011050D01*
X001820Y011050D01*
X001820Y001850D01*
X005360Y008660D02*
X004914Y009108D01*
X005197Y009108D01*
X004914Y009108D02*
X004914Y008825D01*
X005360Y008660D02*
X005450Y008660D01*
X005450Y009560D02*
X005360Y009560D01*
X004914Y010008D01*
X005197Y010008D01*
X004914Y010008D02*
X004914Y009725D01*
D11*
X005583Y009680D02*
X005657Y009680D01*
X005620Y009680D02*
X005620Y009460D01*
X005657Y009460D02*
X005583Y009460D01*
X005731Y009570D02*
X005768Y009533D01*
X005878Y009533D01*
X005878Y009460D02*
X005878Y009680D01*
X005768Y009680D01*
X005731Y009643D01*
X005731Y009570D01*
X005952Y009533D02*
X005952Y009497D01*
X005989Y009460D01*
X006062Y009460D01*
X006099Y009497D01*
X006062Y009570D02*
X005989Y009570D01*
X005952Y009533D01*
X005952Y009643D02*
X005989Y009680D01*
X006062Y009680D01*
X006099Y009643D01*
X006099Y009607D01*
X006062Y009570D01*
X006394Y009570D02*
X006394Y009460D01*
X006394Y009570D02*
X006431Y009607D01*
X006541Y009607D01*
X006541Y009460D01*
X006615Y009460D02*
X006688Y009460D01*
X006651Y009460D02*
X006651Y009607D01*
X006688Y009607D01*
X006651Y009680D02*
X006651Y009717D01*
X006762Y009570D02*
X006762Y009460D01*
X006872Y009460D01*
X006909Y009497D01*
X006872Y009533D01*
X006762Y009533D01*
X006762Y009570D02*
X006799Y009607D01*
X006872Y009607D01*
X006983Y009680D02*
X006983Y009460D01*
X007130Y009460D02*
X007130Y009680D01*
X007057Y009607D01*
X006983Y009680D01*
X006980Y008780D02*
X006870Y008780D01*
X006833Y008743D01*
X006833Y008707D01*
X006870Y008670D01*
X006980Y008670D01*
X006980Y008560D02*
X006870Y008560D01*
X006833Y008597D01*
X006833Y008633D01*
X006870Y008670D01*
X006980Y008560D02*
X006980Y008780D01*
X006759Y008780D02*
X006759Y008560D01*
X006612Y008560D01*
X006538Y008560D02*
X006391Y008560D01*
X006465Y008670D02*
X006538Y008670D01*
X006538Y008780D02*
X006538Y008560D01*
X006538Y008780D02*
X006391Y008780D01*
X006096Y008743D02*
X006096Y008707D01*
X006059Y008670D01*
X005986Y008670D01*
X005949Y008633D01*
X005949Y008597D01*
X005986Y008560D01*
X006059Y008560D01*
X006096Y008597D01*
X006096Y008743D02*
X006059Y008780D01*
X005986Y008780D01*
X005949Y008743D01*
X005875Y008780D02*
X005765Y008780D01*
X005728Y008743D01*
X005728Y008670D01*
X005765Y008633D01*
X005875Y008633D01*
X005875Y008560D02*
X005875Y008780D01*
X005654Y008780D02*
X005581Y008780D01*
X005617Y008780D02*
X005617Y008560D01*
X005581Y008560D02*
X005654Y008560D01*
D12*
X006770Y006450D02*
X006772Y006463D01*
X006777Y006476D01*
X006786Y006487D01*
X006797Y006494D01*
X006810Y006499D01*
X006823Y006500D01*
X006837Y006497D01*
X006849Y006491D01*
X006859Y006482D01*
X006866Y006470D01*
X006870Y006457D01*
X006870Y006443D01*
X006866Y006430D01*
X006859Y006418D01*
X006849Y006409D01*
X006837Y006403D01*
X006823Y006400D01*
X006810Y006401D01*
X006797Y006406D01*
X006786Y006413D01*
X006777Y006424D01*
X006772Y006437D01*
X006770Y006450D01*
X003140Y004210D02*
X003140Y003410D01*
X012280Y006330D02*
X012280Y007130D01*
D13*
X005796Y006844D02*
X005796Y006056D01*
X005304Y006056D02*
X005304Y006844D01*
D14*
X005550Y006450D03*
D15*
X013090Y008031D02*
X013127Y008031D01*
X013090Y008031D02*
X013090Y008669D01*
X013127Y008669D01*
X013444Y008669D02*
X013481Y008669D01*
X013819Y008669D02*
X013856Y008669D01*
X014173Y008669D02*
X014210Y008669D01*
X014210Y008031D01*
X014173Y008031D01*
X013856Y008031D02*
X013444Y008031D01*
X014290Y005700D02*
X014290Y005400D01*
X015430Y005400D01*
X015430Y005700D01*
X014290Y005700D01*
X014270Y004100D02*
X014270Y003800D01*
X015410Y003800D01*
X015410Y004100D01*
X014270Y004100D01*
D16*
X013120Y003360D02*
X013120Y005940D01*
X011720Y005940D01*
X011720Y003360D01*
X013120Y003360D01*
X012957Y006258D02*
X012524Y006258D01*
X012957Y006258D02*
X013114Y006415D01*
X013114Y007045D01*
X012957Y007202D01*
X012524Y007202D01*
X011736Y007202D02*
X011146Y007202D01*
X011146Y006258D01*
X011736Y006258D01*
X009706Y008776D02*
X009706Y008933D01*
X009194Y008933D01*
X009194Y009484D01*
X009706Y009484D02*
X009706Y008933D01*
X009194Y008933D02*
X009194Y008776D01*
X004274Y004282D02*
X003684Y004282D01*
X004274Y004282D02*
X004274Y003338D01*
X003684Y003338D01*
X002896Y003338D02*
X002463Y003338D01*
X002306Y003495D01*
X002306Y004125D01*
X002463Y004282D01*
X002896Y004282D01*
D17*
X010736Y004349D02*
X010736Y004162D01*
X010923Y004349D01*
X010970Y004349D01*
X011017Y004302D01*
X011017Y004209D01*
X010970Y004162D01*
X010740Y003498D02*
X010740Y003311D01*
X010740Y003404D02*
X011020Y003404D01*
X010927Y003311D01*
X010974Y005072D02*
X011020Y005119D01*
X011020Y005212D01*
X010974Y005259D01*
X010927Y005259D01*
X010880Y005212D01*
X010833Y005259D01*
X010787Y005259D01*
X010740Y005212D01*
X010740Y005119D01*
X010787Y005072D01*
X010880Y005165D02*
X010880Y005212D01*
X013440Y005560D02*
X013720Y005560D01*
X013580Y005420D01*
X013580Y005607D01*
D18*
X016728Y006289D03*
X016739Y006289D03*
X016745Y006289D03*
X016751Y006289D03*
X016755Y006289D03*
X016761Y006289D03*
X016767Y006289D03*
X016778Y006289D03*
X016784Y006289D03*
X016790Y006289D03*
X016794Y006289D03*
X016800Y006289D03*
X016805Y006289D03*
X016811Y006289D03*
X016823Y006289D03*
X016829Y006289D03*
X016834Y006289D03*
X016838Y006289D03*
X016844Y006289D03*
X016850Y006289D03*
X016862Y006289D03*
X016867Y006289D03*
X016873Y006289D03*
X016877Y006289D03*
X016883Y006289D03*
X017005Y006149D03*
X017011Y006149D03*
X017079Y006289D03*
X017083Y006289D03*
X017089Y006289D03*
X017095Y006289D03*
X017101Y006289D03*
X016984Y006495D03*
X016972Y006495D03*
X016972Y006773D03*
X016967Y006773D03*
X016961Y006773D03*
X016957Y006773D03*
X016951Y006773D03*
X016945Y006773D03*
X016934Y006773D03*
X016928Y006773D03*
X016922Y006773D03*
X016918Y006773D03*
X016912Y006773D03*
X016906Y006773D03*
X016895Y006773D03*
X016889Y006773D03*
X016883Y006773D03*
X016877Y006773D03*
X016873Y006773D03*
X016867Y006773D03*
X016862Y006773D03*
X016984Y006773D03*
X016990Y006773D03*
X016996Y006773D03*
X017001Y006773D03*
X017005Y006773D03*
X017011Y006773D03*
X017017Y006773D03*
X017029Y006773D03*
X017035Y006773D03*
X017040Y006773D03*
X017044Y006773D03*
X017050Y006773D03*
X017056Y006773D03*
X017068Y006773D03*
X017073Y006773D03*
X017079Y006773D03*
X017083Y006773D03*
X017089Y006773D03*
X017095Y006773D03*
X017101Y006773D03*
X017112Y006773D03*
X017118Y006773D03*
X017124Y006773D03*
X017128Y006773D03*
X017134Y006773D03*
X017139Y006773D03*
X017151Y006773D03*
X017157Y006773D03*
X017163Y006773D03*
X017167Y006773D03*
X017172Y006773D03*
X017178Y006773D03*
X017196Y006773D03*
X017202Y006773D03*
X017207Y006773D03*
X017211Y006773D03*
X017217Y006773D03*
X017223Y006773D03*
X017235Y006773D03*
X017240Y006773D03*
X017246Y006773D03*
X016990Y006934D03*
X016984Y006936D03*
X016972Y006942D03*
X016967Y006944D03*
X016961Y006946D03*
X016957Y006948D03*
X016951Y006949D03*
X016957Y007023D03*
X016967Y007027D03*
X016967Y005982D03*
X016972Y005982D03*
X016961Y005982D03*
X016957Y005982D03*
X016951Y005982D03*
X016945Y005982D03*
X016934Y005982D03*
X016928Y005982D03*
X016922Y005982D03*
X016918Y005982D03*
X016912Y005982D03*
X016906Y005982D03*
X016895Y005982D03*
X016889Y005982D03*
X016883Y005982D03*
X016877Y005982D03*
X016873Y005982D03*
X016867Y005982D03*
X016862Y005982D03*
X016984Y005982D03*
X016990Y005982D03*
X016996Y005982D03*
X016996Y005813D03*
X016990Y005813D03*
X016984Y005813D03*
X016972Y005813D03*
X016967Y005813D03*
X016961Y005813D03*
X016957Y005813D03*
X016951Y005813D03*
X016945Y005813D03*
X016934Y005813D03*
X016928Y005813D03*
X016922Y005813D03*
X016918Y005813D03*
X016912Y005813D03*
X016906Y005813D03*
X016895Y005813D03*
X016889Y005813D03*
X016883Y005813D03*
X016877Y005813D03*
X016873Y005813D03*
X016867Y005813D03*
X016862Y005813D03*
X017073Y005813D03*
X017079Y005813D03*
X017083Y005813D03*
X017089Y005813D03*
X017095Y005813D03*
X017101Y005813D03*
X016918Y005545D03*
X016912Y005544D03*
X017050Y005413D03*
X017029Y005291D03*
X016934Y005109D03*
X016967Y004705D03*
X016972Y004705D03*
X016984Y004705D03*
X016990Y004705D03*
X016996Y004705D03*
X017079Y004705D03*
X017083Y004705D03*
X017089Y004705D03*
X017095Y004705D03*
X017101Y004705D03*
X016883Y004705D03*
X016877Y004705D03*
X016873Y004705D03*
X016867Y004705D03*
X016862Y004705D03*
X016862Y004371D03*
X016867Y004371D03*
X016873Y004371D03*
X016877Y004371D03*
X016883Y004371D03*
X016889Y004371D03*
X016895Y004371D03*
X016906Y004371D03*
X016912Y004371D03*
X016918Y004371D03*
X016922Y004371D03*
X016928Y004371D03*
X016934Y004371D03*
X016945Y004371D03*
X016951Y004371D03*
X016957Y004371D03*
X016961Y004371D03*
X016967Y004371D03*
X016972Y004371D03*
X016984Y004371D03*
X016990Y004371D03*
X016996Y004371D03*
X017001Y004371D03*
X017005Y004371D03*
X016996Y004204D03*
X016990Y004204D03*
X016984Y004204D03*
X016972Y004204D03*
X016967Y004204D03*
X016961Y004204D03*
X016957Y004204D03*
X016951Y004204D03*
X016945Y004204D03*
X016934Y004204D03*
X016928Y004204D03*
X016922Y004204D03*
X016918Y004204D03*
X016912Y004204D03*
X016906Y004204D03*
X016895Y004204D03*
X016889Y004204D03*
X016883Y004204D03*
X016877Y004204D03*
X016873Y004204D03*
X016867Y004204D03*
X016862Y004204D03*
X016862Y004035D03*
X016867Y004035D03*
X016873Y004035D03*
X016877Y004035D03*
X016883Y004035D03*
X016889Y004035D03*
X016895Y004035D03*
X016906Y004035D03*
X016912Y004035D03*
X016918Y004035D03*
X016922Y004035D03*
X016928Y004035D03*
X016934Y004035D03*
X016945Y004035D03*
X016951Y004035D03*
X016957Y004035D03*
X016961Y004035D03*
X016967Y004035D03*
X016972Y004035D03*
X016984Y004035D03*
X016990Y004035D03*
X016996Y004035D03*
X017001Y004035D03*
X017073Y004035D03*
X017079Y004035D03*
X017083Y004035D03*
X017089Y004035D03*
X017095Y004035D03*
X017101Y004035D03*
X017563Y004380D03*
X017569Y004380D03*
X017574Y004380D03*
X017580Y004380D03*
X017584Y004380D03*
X017590Y004380D03*
X017596Y004380D03*
X017607Y004380D03*
X017613Y004380D03*
X017619Y004380D03*
X017623Y004380D03*
X017629Y004380D03*
X017635Y004380D03*
X017646Y004380D03*
X017652Y004380D03*
X017658Y004380D03*
X017662Y004380D03*
X017668Y004380D03*
X017673Y004380D03*
X017679Y004380D03*
X017691Y004380D03*
X017697Y004380D03*
X017703Y004380D03*
X017706Y004380D03*
X017712Y004380D03*
X017712Y004553D03*
X017706Y004553D03*
X017703Y004553D03*
X017697Y004553D03*
X017691Y004553D03*
X017679Y004553D03*
X017673Y004553D03*
X017668Y004553D03*
X017662Y004553D03*
X017658Y004553D03*
X017652Y004553D03*
X017646Y004553D03*
X017635Y004553D03*
X017629Y004553D03*
X017623Y004553D03*
X017619Y004553D03*
X017613Y004553D03*
X017607Y004553D03*
X017596Y004553D03*
X017590Y004553D03*
X017584Y004553D03*
X017580Y004553D03*
X017574Y004553D03*
X017569Y004553D03*
X017491Y004553D03*
X017485Y004553D03*
X017468Y004553D03*
X017462Y004553D03*
X017462Y004839D03*
X017468Y004839D03*
X017485Y004839D03*
X017491Y004839D03*
X017497Y004839D03*
X017501Y004839D03*
X017506Y004839D03*
X017512Y004839D03*
X017524Y004839D03*
X017530Y004839D03*
X017536Y004839D03*
X017539Y004839D03*
X017545Y004839D03*
X017551Y004839D03*
X017563Y004839D03*
X017569Y004839D03*
X017574Y004839D03*
X017580Y004839D03*
X017584Y004839D03*
X017590Y004839D03*
X017596Y004839D03*
X017607Y004839D03*
X017613Y004839D03*
X017619Y004839D03*
X017623Y004839D03*
X017629Y004839D03*
X017635Y004839D03*
X017646Y004839D03*
X017652Y004839D03*
X017658Y004839D03*
X017662Y004839D03*
X017668Y004839D03*
X017673Y004839D03*
X017679Y004839D03*
X017691Y004839D03*
X017697Y004839D03*
X017703Y004839D03*
X017706Y004839D03*
X017712Y004839D03*
X017718Y004839D03*
X017730Y004839D03*
X017736Y004839D03*
X017741Y004839D03*
X017745Y004839D03*
X017751Y004839D03*
X017757Y004839D03*
X017774Y004839D03*
X017780Y004839D03*
X017786Y004839D03*
X017790Y004839D03*
X017796Y004839D03*
X017802Y004839D03*
X017813Y004839D03*
X017819Y004839D03*
X017825Y004839D03*
X017829Y004839D03*
X017835Y004839D03*
X017840Y004839D03*
X017852Y004839D03*
X017456Y005410D03*
D19*
X017050Y005537D03*
X017040Y005284D03*
X016850Y005203D03*
X017563Y004552D03*
X017790Y004696D03*
X017001Y004498D03*
X017017Y004368D03*
X017524Y004045D03*
X017530Y004045D03*
X017536Y004045D03*
X017539Y004045D03*
X017545Y004045D03*
X017551Y004045D03*
X017563Y004045D03*
X017569Y004045D03*
X017574Y004045D03*
X017580Y004045D03*
X017584Y004045D03*
X017590Y004045D03*
X017596Y004045D03*
X017607Y004045D03*
X017613Y004045D03*
X017619Y004045D03*
X017623Y004045D03*
X017691Y004045D03*
X017697Y004045D03*
X017703Y004045D03*
X017706Y004045D03*
X017712Y004045D03*
X017718Y004045D03*
X017730Y004045D03*
X017736Y004045D03*
X017741Y004045D03*
X017745Y004045D03*
X017751Y004045D03*
X017757Y004045D03*
X017005Y005983D03*
X017001Y005983D03*
X017083Y006896D03*
X017068Y006902D03*
X017040Y006914D03*
X017011Y006925D03*
X017005Y006927D03*
X016984Y007034D03*
X016996Y007040D03*
X017011Y007046D03*
X017040Y007057D03*
X017083Y007075D03*
X016728Y006927D03*
D20*
X016854Y006773D03*
X016858Y006773D03*
X016860Y006773D03*
X016866Y006773D03*
X016869Y006773D03*
X016875Y006773D03*
X016881Y006773D03*
X016885Y006773D03*
X016891Y006773D03*
X016897Y006773D03*
X016899Y006773D03*
X016902Y006773D03*
X016904Y006773D03*
X016910Y006773D03*
X016914Y006773D03*
X016920Y006773D03*
X016926Y006773D03*
X016930Y006773D03*
X016935Y006773D03*
X016937Y006773D03*
X016941Y006773D03*
X016943Y006773D03*
X016949Y006773D03*
X016953Y006773D03*
X016959Y006773D03*
X016965Y006773D03*
X016968Y006773D03*
X016974Y006773D03*
X016976Y006773D03*
X016980Y006773D03*
X016982Y006773D03*
X016988Y006773D03*
X016994Y006773D03*
X016998Y006773D03*
X017003Y006773D03*
X017009Y006773D03*
X017013Y006773D03*
X017019Y006773D03*
X017021Y006773D03*
X017025Y006773D03*
X017027Y006773D03*
X017033Y006773D03*
X017036Y006773D03*
X017042Y006773D03*
X017048Y006773D03*
X017052Y006773D03*
X017058Y006773D03*
X017060Y006773D03*
X017064Y006773D03*
X017066Y006773D03*
X017071Y006773D03*
X017075Y006773D03*
X017081Y006773D03*
X017087Y006773D03*
X017093Y006773D03*
X017097Y006773D03*
X017102Y006773D03*
X017104Y006773D03*
X017108Y006773D03*
X017110Y006773D03*
X017116Y006773D03*
X017120Y006773D03*
X017126Y006773D03*
X017132Y006773D03*
X017135Y006773D03*
X017141Y006773D03*
X017143Y006773D03*
X017147Y006773D03*
X017149Y006773D03*
X017155Y006773D03*
X017159Y006773D03*
X017165Y006773D03*
X017170Y006773D03*
X017174Y006773D03*
X017180Y006773D03*
X017182Y006773D03*
X017186Y006773D03*
X017188Y006773D03*
X017192Y006773D03*
X017194Y006773D03*
X017200Y006773D03*
X017203Y006773D03*
X017209Y006773D03*
X017215Y006773D03*
X017219Y006773D03*
X017225Y006773D03*
X017227Y006773D03*
X017231Y006773D03*
X017233Y006773D03*
X017238Y006773D03*
X017242Y006773D03*
X017019Y006922D03*
X017013Y006924D03*
X017003Y006928D03*
X016976Y006940D03*
X016974Y006940D03*
X016965Y006944D03*
X016959Y006948D03*
X016953Y006949D03*
X016949Y006951D03*
X016953Y007021D03*
X016974Y006495D03*
X016976Y006495D03*
X016980Y006495D03*
X016982Y006495D03*
X017075Y006289D03*
X017081Y006289D03*
X017087Y006289D03*
X017093Y006289D03*
X017097Y006289D03*
X017102Y006289D03*
X017104Y006289D03*
X017009Y006149D03*
X017003Y006149D03*
X016998Y005982D03*
X016994Y005982D03*
X016988Y005982D03*
X016982Y005982D03*
X016980Y005982D03*
X016976Y005982D03*
X016974Y005982D03*
X016968Y005982D03*
X016965Y005982D03*
X016959Y005982D03*
X016953Y005982D03*
X016949Y005982D03*
X016943Y005982D03*
X016941Y005982D03*
X016937Y005982D03*
X016935Y005982D03*
X016930Y005982D03*
X016926Y005982D03*
X016920Y005982D03*
X016914Y005982D03*
X016910Y005982D03*
X016904Y005982D03*
X016902Y005982D03*
X016899Y005982D03*
X016897Y005982D03*
X016891Y005982D03*
X016885Y005982D03*
X016881Y005982D03*
X016875Y005982D03*
X016869Y005982D03*
X016866Y005982D03*
X016860Y005982D03*
X016858Y005982D03*
X016854Y005982D03*
X016854Y005813D03*
X016858Y005813D03*
X016860Y005813D03*
X016866Y005813D03*
X016869Y005813D03*
X016875Y005813D03*
X016881Y005813D03*
X016885Y005813D03*
X016891Y005813D03*
X016897Y005813D03*
X016899Y005813D03*
X016902Y005813D03*
X016904Y005813D03*
X016910Y005813D03*
X016914Y005813D03*
X016920Y005813D03*
X016926Y005813D03*
X016930Y005813D03*
X016935Y005813D03*
X016937Y005813D03*
X016941Y005813D03*
X016943Y005813D03*
X016949Y005813D03*
X016953Y005813D03*
X016959Y005813D03*
X016965Y005813D03*
X016968Y005813D03*
X016974Y005813D03*
X016976Y005813D03*
X016980Y005813D03*
X016982Y005813D03*
X016988Y005813D03*
X016994Y005813D03*
X017071Y005813D03*
X017075Y005813D03*
X017081Y005813D03*
X017087Y005813D03*
X017093Y005813D03*
X017097Y005813D03*
X017102Y005813D03*
X017104Y005813D03*
X017233Y005672D03*
X017048Y005538D03*
X017052Y005413D03*
X017025Y005411D03*
X017033Y005289D03*
X017036Y005287D03*
X017027Y005109D03*
X016935Y005109D03*
X016930Y005110D03*
X016965Y004705D03*
X016968Y004705D03*
X016974Y004705D03*
X016976Y004705D03*
X016980Y004705D03*
X016982Y004705D03*
X016988Y004705D03*
X016994Y004705D03*
X017081Y004705D03*
X017087Y004705D03*
X017093Y004705D03*
X017097Y004705D03*
X017102Y004705D03*
X017104Y004705D03*
X016881Y004705D03*
X016875Y004705D03*
X016869Y004705D03*
X016866Y004705D03*
X016860Y004705D03*
X016858Y004705D03*
X016854Y004705D03*
X016854Y004371D03*
X016858Y004371D03*
X016860Y004371D03*
X016866Y004371D03*
X016869Y004371D03*
X016875Y004371D03*
X016881Y004371D03*
X016885Y004371D03*
X016891Y004371D03*
X016897Y004371D03*
X016899Y004371D03*
X016902Y004371D03*
X016904Y004371D03*
X016910Y004371D03*
X016914Y004371D03*
X016920Y004371D03*
X016926Y004371D03*
X016930Y004371D03*
X016935Y004371D03*
X016937Y004371D03*
X016941Y004371D03*
X016943Y004371D03*
X016949Y004371D03*
X016953Y004371D03*
X016959Y004371D03*
X016965Y004371D03*
X016968Y004371D03*
X016974Y004371D03*
X016976Y004371D03*
X016980Y004371D03*
X016982Y004371D03*
X016988Y004371D03*
X016994Y004371D03*
X016998Y004371D03*
X017003Y004371D03*
X016998Y004204D03*
X016994Y004204D03*
X016988Y004204D03*
X016982Y004204D03*
X016980Y004204D03*
X016976Y004204D03*
X016974Y004204D03*
X016968Y004204D03*
X016965Y004204D03*
X016959Y004204D03*
X016953Y004204D03*
X016949Y004204D03*
X016943Y004204D03*
X016941Y004204D03*
X016937Y004204D03*
X016935Y004204D03*
X016930Y004204D03*
X016926Y004204D03*
X016920Y004204D03*
X016914Y004204D03*
X016910Y004204D03*
X016904Y004204D03*
X016902Y004204D03*
X016899Y004204D03*
X016897Y004204D03*
X016891Y004204D03*
X016885Y004204D03*
X016881Y004204D03*
X016875Y004204D03*
X016869Y004204D03*
X016866Y004204D03*
X016860Y004204D03*
X016858Y004204D03*
X016854Y004204D03*
X016854Y004035D03*
X016858Y004035D03*
X016860Y004035D03*
X016866Y004035D03*
X016869Y004035D03*
X016875Y004035D03*
X016881Y004035D03*
X016885Y004035D03*
X016891Y004035D03*
X016897Y004035D03*
X016899Y004035D03*
X016902Y004035D03*
X016904Y004035D03*
X016910Y004035D03*
X016914Y004035D03*
X016920Y004035D03*
X016926Y004035D03*
X016930Y004035D03*
X016935Y004035D03*
X016937Y004035D03*
X016941Y004035D03*
X016943Y004035D03*
X016949Y004035D03*
X016953Y004035D03*
X016959Y004035D03*
X016965Y004035D03*
X016968Y004035D03*
X016974Y004035D03*
X016976Y004035D03*
X016980Y004035D03*
X016982Y004035D03*
X016988Y004035D03*
X016994Y004035D03*
X016998Y004035D03*
X017003Y004035D03*
X017071Y004035D03*
X017075Y004035D03*
X017081Y004035D03*
X017087Y004035D03*
X017093Y004035D03*
X017097Y004035D03*
X017102Y004035D03*
X017104Y004035D03*
X017567Y004380D03*
X017570Y004380D03*
X017576Y004380D03*
X017582Y004380D03*
X017588Y004380D03*
X017592Y004380D03*
X017598Y004380D03*
X017600Y004380D03*
X017603Y004380D03*
X017605Y004380D03*
X017611Y004380D03*
X017615Y004380D03*
X017621Y004380D03*
X017627Y004380D03*
X017631Y004380D03*
X017637Y004380D03*
X017638Y004380D03*
X017642Y004380D03*
X017644Y004380D03*
X017650Y004380D03*
X017654Y004380D03*
X017660Y004380D03*
X017666Y004380D03*
X017671Y004380D03*
X017675Y004380D03*
X017681Y004380D03*
X017683Y004380D03*
X017687Y004380D03*
X017689Y004380D03*
X017695Y004380D03*
X017699Y004380D03*
X017704Y004380D03*
X017710Y004380D03*
X017710Y004553D03*
X017704Y004553D03*
X017699Y004553D03*
X017695Y004553D03*
X017689Y004553D03*
X017687Y004553D03*
X017683Y004553D03*
X017681Y004553D03*
X017675Y004553D03*
X017671Y004553D03*
X017666Y004553D03*
X017660Y004553D03*
X017654Y004553D03*
X017650Y004553D03*
X017644Y004553D03*
X017642Y004553D03*
X017638Y004553D03*
X017637Y004553D03*
X017631Y004553D03*
X017627Y004553D03*
X017621Y004553D03*
X017615Y004553D03*
X017611Y004553D03*
X017605Y004553D03*
X017603Y004553D03*
X017600Y004553D03*
X017598Y004553D03*
X017592Y004553D03*
X017588Y004553D03*
X017582Y004553D03*
X017576Y004553D03*
X017570Y004553D03*
X017567Y004553D03*
X017493Y004553D03*
X017489Y004553D03*
X017483Y004553D03*
X017481Y004553D03*
X017477Y004553D03*
X017475Y004553D03*
X017471Y004553D03*
X017470Y004553D03*
X017464Y004553D03*
X017460Y004553D03*
X017460Y004839D03*
X017464Y004839D03*
X017470Y004839D03*
X017471Y004839D03*
X017475Y004839D03*
X017477Y004839D03*
X017481Y004839D03*
X017483Y004839D03*
X017489Y004839D03*
X017493Y004839D03*
X017499Y004839D03*
X017504Y004839D03*
X017508Y004839D03*
X017514Y004839D03*
X017516Y004839D03*
X017520Y004839D03*
X017522Y004839D03*
X017528Y004839D03*
X017532Y004839D03*
X017537Y004839D03*
X017543Y004839D03*
X017547Y004839D03*
X017553Y004839D03*
X017555Y004839D03*
X017559Y004839D03*
X017561Y004839D03*
X017567Y004839D03*
X017570Y004839D03*
X017576Y004839D03*
X017582Y004839D03*
X017588Y004839D03*
X017592Y004839D03*
X017598Y004839D03*
X017600Y004839D03*
X017603Y004839D03*
X017605Y004839D03*
X017611Y004839D03*
X017615Y004839D03*
X017621Y004839D03*
X017627Y004839D03*
X017631Y004839D03*
X017637Y004839D03*
X017638Y004839D03*
X017642Y004839D03*
X017644Y004839D03*
X017650Y004839D03*
X017654Y004839D03*
X017660Y004839D03*
X017666Y004839D03*
X017671Y004839D03*
X017675Y004839D03*
X017681Y004839D03*
X017683Y004839D03*
X017687Y004839D03*
X017689Y004839D03*
X017695Y004839D03*
X017699Y004839D03*
X017704Y004839D03*
X017710Y004839D03*
X017714Y004839D03*
X017720Y004839D03*
X017722Y004839D03*
X017726Y004839D03*
X017728Y004839D03*
X017734Y004839D03*
X017737Y004839D03*
X017743Y004839D03*
X017749Y004839D03*
X017753Y004839D03*
X017759Y004839D03*
X017761Y004839D03*
X017765Y004839D03*
X017767Y004839D03*
X017771Y004839D03*
X017772Y004839D03*
X017778Y004839D03*
X017782Y004839D03*
X017788Y004839D03*
X017794Y004839D03*
X017798Y004839D03*
X017804Y004839D03*
X017805Y004839D03*
X017809Y004839D03*
X017811Y004839D03*
X017817Y004839D03*
X017821Y004839D03*
X017827Y004839D03*
X017833Y004839D03*
X017837Y004839D03*
X017842Y004839D03*
X017844Y004839D03*
X017848Y004839D03*
X017850Y004839D03*
X016885Y006289D03*
X016881Y006289D03*
X016875Y006289D03*
X016869Y006289D03*
X016866Y006289D03*
X016860Y006289D03*
X016858Y006289D03*
X016854Y006289D03*
X016852Y006289D03*
X016846Y006289D03*
X016842Y006289D03*
X016836Y006289D03*
X016831Y006289D03*
X016827Y006289D03*
X016821Y006289D03*
X016819Y006289D03*
X016815Y006289D03*
X016813Y006289D03*
X016807Y006289D03*
X016803Y006289D03*
X016798Y006289D03*
X016792Y006289D03*
X016786Y006289D03*
X016782Y006289D03*
X016776Y006289D03*
X016774Y006289D03*
X016770Y006289D03*
X016768Y006289D03*
X016763Y006289D03*
X016759Y006289D03*
X016753Y006289D03*
X016747Y006289D03*
X016743Y006289D03*
X016737Y006289D03*
X016735Y006289D03*
X016732Y006289D03*
X016730Y006289D03*
X016871Y003324D03*
X017835Y002932D03*
D21*
X017345Y002633D03*
X017343Y002633D03*
X017019Y004037D03*
X017013Y004037D03*
X017009Y004204D03*
X016998Y004497D03*
X017003Y004499D03*
X016953Y004499D03*
X016953Y004703D03*
X017003Y004703D03*
X017042Y005118D03*
X017042Y005283D03*
X016910Y005279D03*
X016910Y005410D03*
X017019Y005415D03*
X017108Y005476D03*
X016943Y005542D03*
X017186Y005672D03*
X017231Y005672D03*
X017013Y005815D03*
X017009Y005982D03*
X017009Y006491D03*
X016949Y006491D03*
X017093Y006891D03*
X017081Y006897D03*
X017066Y006903D03*
X017009Y007045D03*
X017042Y007058D03*
X017052Y007062D03*
X017058Y007064D03*
X017066Y007068D03*
X017071Y007070D03*
X017081Y007074D03*
X016858Y006981D03*
X016854Y006979D03*
X016852Y006979D03*
X016842Y006975D03*
X016831Y006969D03*
X016815Y006963D03*
X016803Y006957D03*
X016798Y006955D03*
X016786Y006951D03*
X016782Y006949D03*
X016774Y006946D03*
X016770Y006944D03*
X016768Y006944D03*
X016759Y006940D03*
X016753Y006938D03*
X016743Y006934D03*
X016735Y006930D03*
X016732Y006928D03*
X016730Y006928D03*
X017714Y005410D03*
X017553Y004551D03*
X017543Y004384D03*
X017722Y004231D03*
X017726Y004231D03*
D22*
X017685Y004380D03*
X017640Y004380D03*
X017602Y004380D03*
X017602Y004553D03*
X017640Y004553D03*
X017685Y004553D03*
X017479Y004553D03*
X017473Y004553D03*
X017473Y004839D03*
X017479Y004839D03*
X017518Y004839D03*
X017557Y004839D03*
X017602Y004839D03*
X017640Y004839D03*
X017685Y004839D03*
X017724Y004839D03*
X017763Y004839D03*
X017769Y004839D03*
X017807Y004839D03*
X017846Y004839D03*
X017106Y004705D03*
X016978Y004705D03*
X016856Y004705D03*
X016856Y004371D03*
X016901Y004371D03*
X016939Y004371D03*
X016978Y004371D03*
X016978Y004204D03*
X016939Y004204D03*
X016901Y004204D03*
X016856Y004204D03*
X016856Y004035D03*
X016901Y004035D03*
X016939Y004035D03*
X016978Y004035D03*
X017106Y004035D03*
X017714Y003495D03*
X017837Y002932D03*
X016939Y005544D03*
X016939Y005813D03*
X016901Y005813D03*
X016856Y005813D03*
X016978Y005813D03*
X017106Y005813D03*
X016978Y005982D03*
X016939Y005982D03*
X016901Y005982D03*
X016856Y005982D03*
X016856Y006289D03*
X016817Y006289D03*
X016772Y006289D03*
X016734Y006289D03*
X016978Y006495D03*
X017106Y006289D03*
X017106Y006773D03*
X017145Y006773D03*
X017184Y006773D03*
X017190Y006773D03*
X017229Y006773D03*
X017062Y006773D03*
X017023Y006773D03*
X016978Y006773D03*
X016939Y006773D03*
X016901Y006773D03*
X016856Y006773D03*
X017023Y006920D03*
D23*
X017106Y006885D03*
X017023Y007050D03*
X016817Y006963D03*
X016772Y006946D03*
X016734Y006930D03*
X017023Y004367D03*
X017724Y004231D03*
X017341Y002633D03*
D24*
X017602Y003274D03*
X017603Y004045D03*
X017605Y004045D03*
X017600Y004045D03*
X017598Y004045D03*
X017592Y004045D03*
X017588Y004045D03*
X017582Y004045D03*
X017576Y004045D03*
X017570Y004045D03*
X017567Y004045D03*
X017561Y004045D03*
X017559Y004045D03*
X017555Y004045D03*
X017553Y004045D03*
X017547Y004045D03*
X017543Y004045D03*
X017537Y004045D03*
X017532Y004045D03*
X017528Y004045D03*
X017522Y004045D03*
X017520Y004045D03*
X017611Y004045D03*
X017615Y004045D03*
X017621Y004045D03*
X017683Y004045D03*
X017687Y004045D03*
X017689Y004045D03*
X017695Y004045D03*
X017699Y004045D03*
X017704Y004045D03*
X017710Y004045D03*
X017714Y004045D03*
X017720Y004045D03*
X017722Y004045D03*
X017726Y004045D03*
X017728Y004045D03*
X017734Y004045D03*
X017737Y004045D03*
X017743Y004045D03*
X017749Y004045D03*
X017753Y004045D03*
X017759Y004045D03*
X017761Y004045D03*
X017765Y004045D03*
X017767Y004045D03*
X017771Y004045D03*
X017772Y004045D03*
X017561Y004552D03*
X017559Y004552D03*
X017555Y004552D03*
X017837Y004696D03*
X017021Y004368D03*
X017019Y004368D03*
X016959Y004498D03*
X016926Y005113D03*
X017033Y005111D03*
X017036Y005113D03*
X016941Y005543D03*
X016910Y005543D03*
X017003Y005983D03*
X017097Y006890D03*
X017052Y006908D03*
X017027Y006919D03*
X017025Y006919D03*
X016998Y006931D03*
X016968Y007028D03*
X016982Y007034D03*
X016998Y007040D03*
X017013Y007046D03*
X017025Y007051D03*
X017027Y007051D03*
X017097Y007081D03*
X016737Y006931D03*
D25*
X016739Y006932D03*
X016745Y006934D03*
X016751Y006936D03*
X016755Y006938D03*
X016761Y006940D03*
X016767Y006944D03*
X016784Y006949D03*
X016800Y006957D03*
X016811Y006961D03*
X016823Y006967D03*
X016829Y006969D03*
X016838Y006973D03*
X016844Y006975D03*
X016867Y006984D03*
X017029Y007052D03*
X017056Y007064D03*
X017068Y007068D03*
X017079Y007074D03*
X017095Y007080D03*
X017101Y007082D03*
X017056Y006907D03*
X017079Y006897D03*
X017095Y006891D03*
X017101Y006889D03*
X016951Y006491D03*
X016945Y006489D03*
X017011Y005815D03*
X017056Y005417D03*
X017040Y005116D03*
X016922Y005116D03*
X016951Y004703D03*
X017005Y004703D03*
X017005Y004499D03*
X016961Y004497D03*
X016957Y004499D03*
X017011Y004204D03*
X017017Y004037D03*
X017712Y004229D03*
X017551Y004551D03*
D26*
X017572Y004553D03*
X017578Y004553D03*
X017586Y004553D03*
X017594Y004553D03*
X017609Y004553D03*
X017617Y004553D03*
X017625Y004553D03*
X017633Y004553D03*
X017648Y004553D03*
X017656Y004553D03*
X017664Y004553D03*
X017670Y004553D03*
X017677Y004553D03*
X017693Y004553D03*
X017701Y004553D03*
X017708Y004553D03*
X017487Y004553D03*
X017466Y004553D03*
X017458Y004553D03*
X017565Y004380D03*
X017572Y004380D03*
X017578Y004380D03*
X017586Y004380D03*
X017594Y004380D03*
X017609Y004380D03*
X017617Y004380D03*
X017625Y004380D03*
X017633Y004380D03*
X017648Y004380D03*
X017656Y004380D03*
X017664Y004380D03*
X017670Y004380D03*
X017677Y004380D03*
X017693Y004380D03*
X017701Y004380D03*
X017708Y004380D03*
X017099Y004705D03*
X017091Y004705D03*
X017085Y004705D03*
X017077Y004705D03*
X016992Y004705D03*
X016986Y004705D03*
X016970Y004705D03*
X016879Y004705D03*
X016871Y004705D03*
X016864Y004705D03*
X016864Y004371D03*
X016871Y004371D03*
X016879Y004371D03*
X016887Y004371D03*
X016893Y004371D03*
X016908Y004371D03*
X016916Y004371D03*
X016924Y004371D03*
X016932Y004371D03*
X016947Y004371D03*
X016955Y004371D03*
X016963Y004371D03*
X016970Y004371D03*
X016986Y004371D03*
X016992Y004371D03*
X017000Y004371D03*
X017007Y004371D03*
X017000Y004204D03*
X016992Y004204D03*
X016986Y004204D03*
X016970Y004204D03*
X016963Y004204D03*
X016955Y004204D03*
X016947Y004204D03*
X016932Y004204D03*
X016924Y004204D03*
X016916Y004204D03*
X016908Y004204D03*
X016893Y004204D03*
X016887Y004204D03*
X016879Y004204D03*
X016871Y004204D03*
X016864Y004204D03*
X016864Y004035D03*
X016871Y004035D03*
X016879Y004035D03*
X016887Y004035D03*
X016893Y004035D03*
X016908Y004035D03*
X016916Y004035D03*
X016924Y004035D03*
X016932Y004035D03*
X016947Y004035D03*
X016955Y004035D03*
X016963Y004035D03*
X016970Y004035D03*
X016986Y004035D03*
X016992Y004035D03*
X017000Y004035D03*
X017077Y004035D03*
X017085Y004035D03*
X017091Y004035D03*
X017099Y004035D03*
X017458Y004839D03*
X017466Y004839D03*
X017487Y004839D03*
X017495Y004839D03*
X017503Y004839D03*
X017510Y004839D03*
X017526Y004839D03*
X017534Y004839D03*
X017541Y004839D03*
X017549Y004839D03*
X017565Y004839D03*
X017572Y004839D03*
X017578Y004839D03*
X017586Y004839D03*
X017594Y004839D03*
X017609Y004839D03*
X017617Y004839D03*
X017625Y004839D03*
X017633Y004839D03*
X017648Y004839D03*
X017656Y004839D03*
X017664Y004839D03*
X017670Y004839D03*
X017677Y004839D03*
X017693Y004839D03*
X017701Y004839D03*
X017708Y004839D03*
X017716Y004839D03*
X017732Y004839D03*
X017739Y004839D03*
X017747Y004839D03*
X017755Y004839D03*
X017776Y004839D03*
X017784Y004839D03*
X017792Y004839D03*
X017800Y004839D03*
X017815Y004839D03*
X017823Y004839D03*
X017831Y004839D03*
X017838Y004839D03*
X017031Y005110D03*
X016932Y005110D03*
X016916Y005406D03*
X016916Y005545D03*
X016916Y005813D03*
X016908Y005813D03*
X016893Y005813D03*
X016887Y005813D03*
X016879Y005813D03*
X016871Y005813D03*
X016864Y005813D03*
X016924Y005813D03*
X016932Y005813D03*
X016947Y005813D03*
X016955Y005813D03*
X016963Y005813D03*
X016970Y005813D03*
X016986Y005813D03*
X016992Y005813D03*
X017077Y005813D03*
X017085Y005813D03*
X017091Y005813D03*
X017099Y005813D03*
X017000Y005982D03*
X016992Y005982D03*
X016986Y005982D03*
X016970Y005982D03*
X016963Y005982D03*
X016955Y005982D03*
X016947Y005982D03*
X016932Y005982D03*
X016924Y005982D03*
X016916Y005982D03*
X016908Y005982D03*
X016893Y005982D03*
X016887Y005982D03*
X016879Y005982D03*
X016871Y005982D03*
X016864Y005982D03*
X017007Y006149D03*
X017077Y006289D03*
X017085Y006289D03*
X017091Y006289D03*
X017099Y006289D03*
X016879Y006289D03*
X016871Y006289D03*
X016864Y006289D03*
X016848Y006289D03*
X016840Y006289D03*
X016833Y006289D03*
X016825Y006289D03*
X016809Y006289D03*
X016801Y006289D03*
X016796Y006289D03*
X016788Y006289D03*
X016780Y006289D03*
X016765Y006289D03*
X016757Y006289D03*
X016749Y006289D03*
X016741Y006289D03*
X016986Y006495D03*
X016986Y006773D03*
X016992Y006773D03*
X017000Y006773D03*
X017007Y006773D03*
X017015Y006773D03*
X017031Y006773D03*
X017038Y006773D03*
X017046Y006773D03*
X017054Y006773D03*
X017069Y006773D03*
X017077Y006773D03*
X017085Y006773D03*
X017091Y006773D03*
X017099Y006773D03*
X017114Y006773D03*
X017122Y006773D03*
X017130Y006773D03*
X017137Y006773D03*
X017153Y006773D03*
X017161Y006773D03*
X017168Y006773D03*
X017176Y006773D03*
X017198Y006773D03*
X017205Y006773D03*
X017213Y006773D03*
X017221Y006773D03*
X017236Y006773D03*
X017244Y006773D03*
X017000Y006930D03*
X016986Y006936D03*
X016970Y006942D03*
X016963Y006946D03*
X016963Y006773D03*
X016970Y006773D03*
X016955Y006773D03*
X016947Y006773D03*
X016932Y006773D03*
X016924Y006773D03*
X016916Y006773D03*
X016908Y006773D03*
X016893Y006773D03*
X016887Y006773D03*
X016879Y006773D03*
X016871Y006773D03*
X016864Y006773D03*
D27*
X016864Y006627D03*
X017007Y006491D03*
X017099Y006889D03*
X017085Y006895D03*
X017069Y006901D03*
X017038Y007056D03*
X017069Y007070D03*
X017085Y007076D03*
X017099Y007082D03*
X016871Y006986D03*
X016840Y006973D03*
X016825Y006967D03*
X016809Y006961D03*
X016801Y006957D03*
X016796Y006955D03*
X016788Y006951D03*
X016749Y006936D03*
X016741Y006932D03*
X017015Y005815D03*
X016908Y005542D03*
X017054Y005415D03*
X016924Y005114D03*
X016955Y004703D03*
X017007Y004703D03*
X017007Y004499D03*
X017000Y004497D03*
X016963Y004497D03*
X016955Y004499D03*
X017007Y004204D03*
X017015Y004037D03*
X017549Y004551D03*
D28*
X017553Y004381D03*
X017555Y004381D03*
X017559Y004381D03*
X017561Y004381D03*
X017108Y004589D03*
X016994Y004496D03*
X016988Y004496D03*
X016982Y004496D03*
X016980Y004496D03*
X016976Y004496D03*
X016974Y004496D03*
X016968Y004496D03*
X016965Y004496D03*
X017009Y004370D03*
X017013Y004370D03*
X017003Y004203D03*
X017009Y004036D03*
X016852Y004589D03*
X016959Y004704D03*
X016998Y004704D03*
X016914Y005407D03*
X017021Y005412D03*
X017052Y005535D03*
X017009Y005814D03*
X017003Y005814D03*
X016998Y005814D03*
X017013Y006148D03*
X016994Y006290D03*
X016988Y006290D03*
X016982Y006290D03*
X016980Y006290D03*
X016976Y006290D03*
X016974Y006290D03*
X016968Y006290D03*
X016965Y006290D03*
X017108Y006405D03*
X017003Y006492D03*
X016998Y006494D03*
X016994Y006494D03*
X016988Y006494D03*
X016968Y006494D03*
X016965Y006494D03*
X016953Y006492D03*
X017087Y006894D03*
X017071Y006900D03*
X017064Y006904D03*
X017060Y006906D03*
X017058Y006906D03*
X017048Y006910D03*
X017042Y006912D03*
X017036Y006916D03*
X017033Y006916D03*
X017021Y006921D03*
X016988Y006935D03*
X016968Y006943D03*
X016949Y007020D03*
X016959Y007024D03*
X016965Y007026D03*
X016974Y007030D03*
X016976Y007032D03*
X016980Y007032D03*
X016988Y007036D03*
X016994Y007038D03*
X017003Y007042D03*
X017021Y007049D03*
X017036Y007055D03*
X017060Y007065D03*
X017064Y007067D03*
X017087Y007077D03*
X017093Y007079D03*
X016747Y006935D03*
X016850Y002999D03*
X017543Y002948D03*
D29*
X017541Y004045D03*
X017534Y004045D03*
X017526Y004045D03*
X017549Y004045D03*
X017565Y004045D03*
X017572Y004045D03*
X017578Y004045D03*
X017586Y004045D03*
X017594Y004045D03*
X017609Y004045D03*
X017617Y004045D03*
X017625Y004045D03*
X017693Y004045D03*
X017701Y004045D03*
X017708Y004045D03*
X017716Y004045D03*
X017732Y004045D03*
X017739Y004045D03*
X017747Y004045D03*
X017755Y004045D03*
X017458Y004443D03*
X017565Y004552D03*
X017038Y005286D03*
X017007Y005983D03*
X017054Y006908D03*
X017038Y006914D03*
X017007Y006927D03*
X016992Y006933D03*
X016955Y007022D03*
X016970Y007028D03*
X017000Y007040D03*
X017054Y007063D03*
X016757Y006939D03*
D30*
X016763Y006942D03*
X016776Y006948D03*
X016792Y006953D03*
X016807Y006959D03*
X016819Y006965D03*
X016821Y006965D03*
X017019Y007049D03*
X017033Y007054D03*
X017048Y007060D03*
X017075Y007072D03*
X017102Y007083D03*
X017104Y007083D03*
X017075Y006899D03*
X017102Y006887D03*
X017104Y006887D03*
X016959Y006493D03*
X016959Y006291D03*
X016998Y006291D03*
X017019Y006147D03*
X017021Y006147D03*
X017547Y004382D03*
X017545Y002949D03*
D31*
X017549Y004382D03*
X017000Y006291D03*
X016963Y006291D03*
X017000Y006493D03*
X017091Y006893D03*
X017091Y007078D03*
X016864Y006983D03*
X016848Y006977D03*
X016833Y006971D03*
X016780Y006948D03*
X016765Y006942D03*
D32*
X016778Y006948D03*
X016794Y006953D03*
X016805Y006959D03*
X016834Y006971D03*
X016850Y006977D03*
X016862Y006983D03*
X017089Y006893D03*
X017089Y007078D03*
X017001Y006493D03*
X017001Y006291D03*
X016996Y006291D03*
X016961Y006291D03*
X016957Y006291D03*
X017551Y004382D03*
X017584Y004250D03*
D33*
X017580Y004251D03*
X017574Y004251D03*
X017569Y004251D03*
X017563Y004251D03*
X017590Y004249D03*
X017596Y004247D03*
X017706Y004226D03*
X017718Y004230D03*
X017730Y004232D03*
X017736Y004232D03*
X017741Y004230D03*
X017745Y004230D03*
X017545Y004383D03*
X017539Y004385D03*
X017545Y004550D03*
X017835Y004696D03*
X017011Y004702D03*
X017011Y004500D03*
X016951Y004500D03*
X016945Y004502D03*
X016918Y005119D03*
X017044Y005119D03*
X017044Y005280D03*
X016945Y005539D03*
X016906Y005541D03*
X017017Y005816D03*
X017011Y005983D03*
X017029Y006145D03*
X017005Y006292D03*
X016951Y006292D03*
X017017Y006488D03*
X017011Y006490D03*
X016790Y006952D03*
D34*
X016813Y006962D03*
X016827Y006968D03*
X016836Y006972D03*
X016846Y006976D03*
X016860Y006982D03*
X016866Y006983D03*
X016869Y006985D03*
X016866Y006626D03*
X016910Y006626D03*
X016941Y006488D03*
X016943Y006488D03*
X017013Y006490D03*
X017021Y006486D03*
X016852Y006405D03*
X016953Y006292D03*
X017003Y006292D03*
X017025Y006146D03*
X017027Y006145D03*
X017013Y005983D03*
X017019Y005816D03*
X017188Y005671D03*
X016920Y005117D03*
X016949Y004702D03*
X017009Y004702D03*
X017013Y004502D03*
X017009Y004500D03*
X016949Y004500D03*
X017025Y004366D03*
X017027Y004366D03*
X017021Y004038D03*
X017553Y004249D03*
X017561Y004251D03*
X017567Y004251D03*
X017570Y004251D03*
X017576Y004251D03*
X017582Y004251D03*
X017588Y004249D03*
X017600Y004245D03*
X017704Y004226D03*
X017710Y004228D03*
X017714Y004230D03*
X017720Y004230D03*
X017728Y004232D03*
X017734Y004232D03*
X017737Y004232D03*
X017743Y004230D03*
X017547Y004550D03*
X017794Y004696D03*
X017712Y003494D03*
X017596Y003269D03*
X017594Y003269D03*
X017588Y003261D03*
X017833Y002927D03*
D35*
X017685Y003369D03*
X017689Y003374D03*
X017749Y003491D03*
X016833Y003033D03*
D36*
X016834Y003024D03*
X016858Y002942D03*
X016957Y002779D03*
X017064Y002779D03*
X017207Y002620D03*
X017487Y002733D03*
X017541Y002632D03*
X017625Y002670D03*
X017648Y002935D03*
X017553Y002993D03*
X017580Y003035D03*
X017603Y003070D03*
X017609Y003078D03*
X017642Y003133D03*
X017570Y003199D03*
X017526Y003257D03*
X017530Y003354D03*
X017652Y003346D03*
X017658Y003323D03*
X017732Y003311D03*
X017741Y003335D03*
X017771Y003412D03*
X017697Y003237D03*
X017887Y003199D03*
X017771Y002981D03*
X017848Y002927D03*
X017413Y003191D03*
X017407Y003187D03*
X017275Y003125D03*
X017252Y002888D03*
X016864Y003292D03*
X016858Y003323D03*
X016867Y003346D03*
X016902Y003412D03*
X017118Y003610D03*
D37*
X016834Y003030D03*
D38*
X016836Y003022D03*
X017504Y002921D03*
X017506Y002921D03*
X017666Y003344D03*
X017739Y003492D03*
D39*
X017516Y002927D03*
X016838Y003016D03*
D40*
X016848Y004589D03*
X017503Y005498D03*
X017670Y005496D03*
D41*
X016848Y005202D03*
D42*
X016848Y005475D03*
D43*
X016848Y006404D03*
D44*
X016848Y006626D03*
X017708Y005809D03*
X017701Y005805D03*
X017693Y005803D03*
X017670Y005793D03*
X017625Y005774D03*
X017617Y005770D03*
X017586Y005756D03*
X017572Y005750D03*
X017549Y005741D03*
X017526Y005731D03*
X017503Y005721D03*
X017495Y005684D03*
X017503Y005680D03*
X017510Y005678D03*
X017549Y005661D03*
X017565Y005655D03*
X017572Y005651D03*
X017578Y005649D03*
X017586Y005645D03*
X017609Y005636D03*
X017625Y005630D03*
X017633Y005626D03*
X017648Y005620D03*
X017664Y005612D03*
X017693Y005601D03*
X017701Y005597D03*
X017625Y005523D03*
X017572Y005529D03*
X017510Y005315D03*
X017367Y005663D03*
X017380Y005669D03*
X017403Y005678D03*
X017450Y005698D03*
D45*
X016840Y003017D03*
D46*
X016850Y004588D03*
X017691Y005466D03*
D47*
X017101Y005671D03*
X017095Y005671D03*
X017089Y005671D03*
X017083Y005671D03*
X017079Y005671D03*
X017073Y005671D03*
X017068Y005671D03*
X017056Y005671D03*
X017050Y005671D03*
X017044Y005671D03*
X017040Y005671D03*
X017035Y005671D03*
X017029Y005671D03*
X017017Y005671D03*
X017011Y005671D03*
X017005Y005671D03*
X017001Y005671D03*
X016996Y005671D03*
X016990Y005671D03*
X016984Y005671D03*
X016972Y005671D03*
X016967Y005671D03*
X016961Y005671D03*
X016957Y005671D03*
X016951Y005671D03*
X016945Y005671D03*
X016934Y005671D03*
X016928Y005671D03*
X016922Y005671D03*
X016918Y005671D03*
X016912Y005671D03*
X016906Y005671D03*
X016895Y005671D03*
X016889Y005671D03*
X016883Y005671D03*
X016877Y005671D03*
X016873Y005671D03*
X016867Y005671D03*
X016862Y005671D03*
X016922Y005546D03*
X016928Y005546D03*
X016934Y005546D03*
X016850Y005475D03*
X016922Y005403D03*
X017044Y005539D03*
X017029Y005109D03*
X017011Y005104D03*
X016951Y005104D03*
X016945Y005106D03*
X016945Y004847D03*
X016951Y004847D03*
X016957Y004847D03*
X016961Y004847D03*
X016934Y004847D03*
X016928Y004847D03*
X016922Y004847D03*
X016918Y004847D03*
X016912Y004847D03*
X016906Y004847D03*
X016895Y004847D03*
X016889Y004847D03*
X016883Y004847D03*
X016877Y004847D03*
X016873Y004847D03*
X016867Y004847D03*
X016862Y004847D03*
X017035Y004847D03*
X017040Y004847D03*
X017044Y004847D03*
X017050Y004847D03*
X017056Y004847D03*
X017068Y004847D03*
X017073Y004847D03*
X017079Y004847D03*
X017083Y004847D03*
X017089Y004847D03*
X017095Y004847D03*
X017101Y004847D03*
X017112Y004847D03*
X017118Y004847D03*
X017124Y004847D03*
X017128Y004847D03*
X017134Y004847D03*
X017139Y004847D03*
X017151Y004847D03*
X017157Y004847D03*
X017163Y004847D03*
X017167Y004847D03*
X017172Y004847D03*
X017178Y004847D03*
X017196Y004847D03*
X017202Y004847D03*
X017207Y004847D03*
X017211Y004847D03*
X017217Y004847D03*
X017223Y004847D03*
X017235Y004847D03*
X017240Y004847D03*
X017246Y004847D03*
X017462Y004696D03*
X017468Y004696D03*
X017485Y004696D03*
X017491Y004696D03*
X017497Y004696D03*
X017501Y004696D03*
X017506Y004696D03*
X017512Y004696D03*
X017524Y004696D03*
X017530Y004696D03*
X017536Y004696D03*
X017539Y004696D03*
X017545Y004696D03*
X017551Y004696D03*
X017563Y004696D03*
X017569Y004696D03*
X017574Y004696D03*
X017580Y004696D03*
X017584Y004696D03*
X017590Y004696D03*
X017596Y004696D03*
X017607Y004696D03*
X017613Y004696D03*
X017619Y004696D03*
X017623Y004696D03*
X017629Y004696D03*
X017635Y004696D03*
X017646Y004696D03*
X017652Y004696D03*
X017658Y004696D03*
X017662Y004696D03*
X017668Y004696D03*
X017673Y004696D03*
X017679Y004696D03*
X017691Y004696D03*
X017697Y004696D03*
X017703Y004696D03*
X017706Y004696D03*
X017712Y004696D03*
X017718Y005003D03*
X017730Y005003D03*
X017736Y005003D03*
X017741Y005003D03*
X017745Y005003D03*
X017751Y005003D03*
X017757Y005003D03*
X017774Y005003D03*
X017780Y005003D03*
X017786Y005003D03*
X017790Y005003D03*
X017796Y005003D03*
X017802Y005003D03*
X017658Y005003D03*
X017652Y005003D03*
X017646Y005003D03*
X017635Y005003D03*
X017629Y005003D03*
X017623Y005003D03*
X017619Y005003D03*
X017613Y005003D03*
X017607Y005003D03*
X017596Y005003D03*
X017590Y005003D03*
X017584Y005003D03*
X017580Y005003D03*
X017574Y005003D03*
X017569Y005003D03*
X017563Y005003D03*
X017551Y005003D03*
X017545Y005003D03*
X017539Y005003D03*
X017536Y005003D03*
X017530Y005003D03*
X017524Y005003D03*
X017512Y005003D03*
X017506Y005003D03*
X017501Y005003D03*
X017497Y005003D03*
X017491Y005003D03*
X017485Y005003D03*
X017468Y005003D03*
X017462Y005003D03*
D48*
X017786Y004696D03*
X017840Y004696D03*
X016850Y006403D03*
D49*
X016850Y006625D03*
X017491Y005336D03*
D50*
X016842Y003009D03*
D51*
X017372Y002638D03*
X017376Y002638D03*
X017578Y003250D03*
X017687Y004213D03*
X017532Y004240D03*
X017532Y004545D03*
X017804Y004695D03*
X017042Y004934D03*
X017036Y004928D03*
X016941Y004940D03*
X016926Y004953D03*
X016920Y004959D03*
X016902Y004975D03*
X016881Y004994D03*
X016869Y005004D03*
X016854Y005017D03*
X016852Y005202D03*
X016902Y005417D03*
X017013Y005421D03*
X017200Y005672D03*
X017219Y005672D03*
X017033Y005821D03*
X016875Y006627D03*
X016885Y006986D03*
X016930Y004510D03*
D52*
X016935Y004507D03*
X017025Y004507D03*
X017027Y004508D03*
X017036Y004361D03*
X017021Y004204D03*
X017537Y004244D03*
X017543Y004246D03*
X017611Y004239D03*
X017689Y004215D03*
X017761Y004225D03*
X017532Y004388D03*
X017798Y004695D03*
X017021Y004699D03*
X016904Y005415D03*
X016852Y005476D03*
X017058Y005528D03*
X017192Y005672D03*
X017104Y005924D03*
X017036Y006142D03*
X017019Y006295D03*
X016941Y006295D03*
X016930Y006481D03*
X017027Y006483D03*
X016869Y006627D03*
X016881Y006986D03*
X016875Y003326D03*
X017582Y003256D03*
X017827Y002918D03*
D53*
X017687Y005475D03*
X017483Y005473D03*
X016852Y006626D03*
D54*
X016854Y006626D03*
X017481Y005469D03*
X017454Y005410D03*
X017514Y005300D03*
X017627Y003303D03*
X017629Y003303D03*
X017850Y002954D03*
X016844Y003008D03*
X016866Y003315D03*
D55*
X017551Y002954D03*
X017033Y004041D03*
X017104Y004144D03*
X016854Y004589D03*
X016935Y004698D03*
X016937Y004698D03*
X016959Y004923D03*
X016953Y004929D03*
X016943Y004937D03*
X016937Y004942D03*
X016930Y004950D03*
X016910Y004968D03*
X016897Y004979D03*
X016910Y005127D03*
X017194Y005671D03*
X017021Y006296D03*
X016937Y006296D03*
X016904Y006626D03*
X016902Y006626D03*
X017827Y004696D03*
X017765Y004222D03*
D56*
X017788Y004696D03*
X017710Y004696D03*
X017704Y004696D03*
X017699Y004696D03*
X017695Y004696D03*
X017689Y004696D03*
X017687Y004696D03*
X017683Y004696D03*
X017681Y004696D03*
X017675Y004696D03*
X017671Y004696D03*
X017666Y004696D03*
X017660Y004696D03*
X017654Y004696D03*
X017650Y004696D03*
X017644Y004696D03*
X017642Y004696D03*
X017638Y004696D03*
X017637Y004696D03*
X017631Y004696D03*
X017627Y004696D03*
X017621Y004696D03*
X017615Y004696D03*
X017611Y004696D03*
X017605Y004696D03*
X017603Y004696D03*
X017600Y004696D03*
X017598Y004696D03*
X017592Y004696D03*
X017588Y004696D03*
X017582Y004696D03*
X017576Y004696D03*
X017570Y004696D03*
X017567Y004696D03*
X017561Y004696D03*
X017559Y004696D03*
X017555Y004696D03*
X017553Y004696D03*
X017547Y004696D03*
X017543Y004696D03*
X017537Y004696D03*
X017532Y004696D03*
X017528Y004696D03*
X017522Y004696D03*
X017520Y004696D03*
X017516Y004696D03*
X017514Y004696D03*
X017508Y004696D03*
X017504Y004696D03*
X017499Y004696D03*
X017493Y004696D03*
X017489Y004696D03*
X017483Y004696D03*
X017481Y004696D03*
X017477Y004696D03*
X017475Y004696D03*
X017471Y004696D03*
X017470Y004696D03*
X017464Y004696D03*
X017460Y004696D03*
X017242Y004847D03*
X017238Y004847D03*
X017233Y004847D03*
X017231Y004847D03*
X017227Y004847D03*
X017225Y004847D03*
X017219Y004847D03*
X017215Y004847D03*
X017209Y004847D03*
X017203Y004847D03*
X017200Y004847D03*
X017194Y004847D03*
X017192Y004847D03*
X017188Y004847D03*
X017186Y004847D03*
X017182Y004847D03*
X017180Y004847D03*
X017174Y004847D03*
X017170Y004847D03*
X017165Y004847D03*
X017159Y004847D03*
X017155Y004847D03*
X017149Y004847D03*
X017147Y004847D03*
X017143Y004847D03*
X017141Y004847D03*
X017135Y004847D03*
X017132Y004847D03*
X017126Y004847D03*
X017120Y004847D03*
X017116Y004847D03*
X017110Y004847D03*
X017108Y004847D03*
X017104Y004847D03*
X017102Y004847D03*
X017097Y004847D03*
X017093Y004847D03*
X017087Y004847D03*
X017081Y004847D03*
X017075Y004847D03*
X017071Y004847D03*
X017066Y004847D03*
X017064Y004847D03*
X017060Y004847D03*
X017058Y004847D03*
X017052Y004847D03*
X017048Y004847D03*
X017042Y004847D03*
X017036Y004847D03*
X017033Y004847D03*
X016959Y004847D03*
X016953Y004847D03*
X016949Y004847D03*
X016943Y004847D03*
X016941Y004847D03*
X016937Y004847D03*
X016935Y004847D03*
X016930Y004847D03*
X016926Y004847D03*
X016920Y004847D03*
X016914Y004847D03*
X016910Y004847D03*
X016904Y004847D03*
X016902Y004847D03*
X016899Y004847D03*
X016897Y004847D03*
X016891Y004847D03*
X016885Y004847D03*
X016881Y004847D03*
X016875Y004847D03*
X016869Y004847D03*
X016866Y004847D03*
X016860Y004847D03*
X016858Y004847D03*
X016854Y004847D03*
X016941Y005106D03*
X016943Y005106D03*
X016937Y005108D03*
X016949Y005104D03*
X016953Y005104D03*
X017003Y005102D03*
X017013Y005104D03*
X017019Y005106D03*
X017021Y005106D03*
X017025Y005108D03*
X017021Y005294D03*
X017048Y005412D03*
X017036Y005541D03*
X016937Y005544D03*
X016935Y005544D03*
X016930Y005546D03*
X016926Y005546D03*
X016920Y005546D03*
X016914Y005544D03*
X016914Y005671D03*
X016910Y005671D03*
X016904Y005671D03*
X016902Y005671D03*
X016899Y005671D03*
X016897Y005671D03*
X016891Y005671D03*
X016885Y005671D03*
X016881Y005671D03*
X016875Y005671D03*
X016869Y005671D03*
X016866Y005671D03*
X016860Y005671D03*
X016858Y005671D03*
X016854Y005671D03*
X016920Y005671D03*
X016926Y005671D03*
X016930Y005671D03*
X016935Y005671D03*
X016937Y005671D03*
X016941Y005671D03*
X016943Y005671D03*
X016949Y005671D03*
X016953Y005671D03*
X016959Y005671D03*
X016965Y005671D03*
X016968Y005671D03*
X016974Y005671D03*
X016976Y005671D03*
X016980Y005671D03*
X016982Y005671D03*
X016988Y005671D03*
X016994Y005671D03*
X016998Y005671D03*
X017003Y005671D03*
X017009Y005671D03*
X017013Y005671D03*
X017019Y005671D03*
X017021Y005671D03*
X017025Y005671D03*
X017027Y005671D03*
X017033Y005671D03*
X017036Y005671D03*
X017042Y005671D03*
X017048Y005671D03*
X017052Y005671D03*
X017058Y005671D03*
X017060Y005671D03*
X017064Y005671D03*
X017066Y005671D03*
X017071Y005671D03*
X017075Y005671D03*
X017081Y005671D03*
X017087Y005671D03*
X017093Y005671D03*
X017097Y005671D03*
X017102Y005671D03*
X017104Y005671D03*
X017182Y005671D03*
X017108Y006086D03*
X016914Y006626D03*
X016860Y006626D03*
X017460Y005003D03*
X017464Y005003D03*
X017470Y005003D03*
X017471Y005003D03*
X017475Y005003D03*
X017477Y005003D03*
X017481Y005003D03*
X017483Y005003D03*
X017489Y005003D03*
X017493Y005003D03*
X017499Y005003D03*
X017504Y005003D03*
X017508Y005003D03*
X017514Y005003D03*
X017516Y005003D03*
X017520Y005003D03*
X017522Y005003D03*
X017528Y005003D03*
X017532Y005003D03*
X017537Y005003D03*
X017543Y005003D03*
X017547Y005003D03*
X017553Y005003D03*
X017555Y005003D03*
X017559Y005003D03*
X017561Y005003D03*
X017567Y005003D03*
X017570Y005003D03*
X017576Y005003D03*
X017582Y005003D03*
X017588Y005003D03*
X017592Y005003D03*
X017598Y005003D03*
X017600Y005003D03*
X017603Y005003D03*
X017605Y005003D03*
X017611Y005003D03*
X017615Y005003D03*
X017621Y005003D03*
X017627Y005003D03*
X017631Y005003D03*
X017637Y005003D03*
X017638Y005003D03*
X017642Y005003D03*
X017644Y005003D03*
X017650Y005003D03*
X017654Y005003D03*
X017660Y005003D03*
X017714Y005003D03*
X017720Y005003D03*
X017722Y005003D03*
X017726Y005003D03*
X017728Y005003D03*
X017734Y005003D03*
X017737Y005003D03*
X017743Y005003D03*
X017749Y005003D03*
X017753Y005003D03*
X017759Y005003D03*
X017761Y005003D03*
X017765Y005003D03*
X017767Y005003D03*
X017771Y005003D03*
X017772Y005003D03*
X017778Y005003D03*
X017782Y005003D03*
X017788Y005003D03*
X017794Y005003D03*
X017798Y005003D03*
X017804Y005003D03*
X017805Y005003D03*
X017809Y005003D03*
X017537Y002942D03*
D57*
X017567Y002966D03*
X017557Y003230D03*
X016860Y002985D03*
X017522Y004539D03*
X016854Y005205D03*
X017009Y005430D03*
X017710Y005410D03*
X017048Y006129D03*
X017036Y006304D03*
X016914Y006467D03*
D58*
X016920Y006474D03*
X016891Y006627D03*
X016885Y006627D03*
X016930Y006299D03*
X017036Y005823D03*
X016854Y005476D03*
X017104Y004992D03*
X016930Y004695D03*
X017522Y004396D03*
X017621Y004229D03*
X017701Y003495D03*
X017572Y003244D03*
X016891Y006986D03*
D59*
X016891Y006150D03*
X016897Y006150D03*
X016899Y006150D03*
X016902Y006150D03*
X016904Y006150D03*
X016910Y006150D03*
X016914Y006150D03*
X016920Y006150D03*
X016926Y006150D03*
X016930Y006150D03*
X016935Y006150D03*
X016937Y006150D03*
X016941Y006150D03*
X016943Y006150D03*
X016949Y006150D03*
X016953Y006150D03*
X016959Y006150D03*
X016965Y006150D03*
X016968Y006150D03*
X016974Y006150D03*
X016976Y006150D03*
X016980Y006150D03*
X016982Y006150D03*
X016988Y006150D03*
X016994Y006150D03*
X016998Y006150D03*
X016885Y006150D03*
X016881Y006150D03*
X016875Y006150D03*
X016869Y006150D03*
X016866Y006150D03*
X016860Y006150D03*
X016858Y006150D03*
X016854Y006150D03*
X016920Y005405D03*
X017027Y005410D03*
X017042Y005410D03*
X017027Y005292D03*
X017025Y005292D03*
X017108Y004307D03*
X016848Y003001D03*
X017838Y002935D03*
D60*
X017817Y002905D03*
X017557Y002956D03*
X016881Y003329D03*
X017704Y003496D03*
X017036Y004043D03*
X017027Y004205D03*
X017104Y004307D03*
X016926Y004513D03*
X017036Y004515D03*
X017048Y004939D03*
X017052Y004943D03*
X017058Y004948D03*
X017060Y004950D03*
X017064Y004954D03*
X017066Y004956D03*
X017071Y004962D03*
X017075Y004966D03*
X017081Y004970D03*
X017087Y004975D03*
X017093Y004981D03*
X017097Y004985D03*
X016860Y005012D03*
X017203Y005671D03*
X017209Y005671D03*
X017215Y005671D03*
X017027Y005983D03*
X017104Y006088D03*
X017042Y006137D03*
X017027Y006298D03*
X017025Y006298D03*
X016854Y006405D03*
X017036Y006477D03*
X016899Y006626D03*
X016897Y006626D03*
X016881Y006626D03*
X017805Y004696D03*
X017809Y004696D03*
X017811Y004696D03*
X017817Y004696D03*
X017821Y004696D03*
X017528Y004238D03*
D61*
X017722Y003494D03*
X016846Y003004D03*
D62*
X016883Y003333D03*
X017563Y003236D03*
X017402Y002645D03*
X016856Y004589D03*
X016856Y006405D03*
D63*
X016856Y005671D03*
X016901Y005671D03*
X016939Y005671D03*
X016978Y005671D03*
X017023Y005671D03*
X017062Y005671D03*
X017106Y005671D03*
X017023Y005294D03*
X017023Y005108D03*
X016939Y005108D03*
X016939Y004847D03*
X016901Y004847D03*
X016856Y004847D03*
X017062Y004847D03*
X017106Y004847D03*
X017145Y004847D03*
X017184Y004847D03*
X017190Y004847D03*
X017229Y004847D03*
X017473Y004696D03*
X017479Y004696D03*
X017518Y004696D03*
X017557Y004696D03*
X017602Y004696D03*
X017640Y004696D03*
X017685Y004696D03*
X017724Y005003D03*
X017763Y005003D03*
X017769Y005003D03*
X017807Y005003D03*
X017640Y005003D03*
X017602Y005003D03*
X017557Y005003D03*
X017518Y005003D03*
X017479Y005003D03*
X017473Y005003D03*
X017600Y003272D03*
D64*
X017555Y002956D03*
X017821Y002909D03*
X017386Y002641D03*
X017685Y004210D03*
X017807Y004696D03*
X017062Y004952D03*
X016856Y005016D03*
X016901Y005533D03*
D65*
X016856Y005205D03*
D66*
X016856Y005477D03*
X017547Y003220D03*
X017417Y002649D03*
D67*
X016978Y006150D03*
X016939Y006150D03*
X016901Y006150D03*
X016856Y006150D03*
D68*
X016856Y006627D03*
X017532Y002937D03*
X017310Y002627D03*
D69*
X017547Y002950D03*
X017592Y003265D03*
X017229Y005671D03*
X016856Y006980D03*
D70*
X016902Y005269D03*
X017058Y005141D03*
X017102Y004589D03*
X016858Y004589D03*
X017520Y004228D03*
X017551Y003224D03*
X017794Y002878D03*
X017429Y002653D03*
X017427Y002653D03*
D71*
X017823Y002914D03*
X017767Y004221D03*
X017042Y004357D03*
X017025Y004204D03*
X017033Y004512D03*
X017027Y004697D03*
X017025Y004697D03*
X017033Y004924D03*
X016904Y004973D03*
X016899Y004978D03*
X016891Y004984D03*
X016885Y004990D03*
X016866Y005008D03*
X016858Y005013D03*
X017052Y005128D03*
X016949Y005534D03*
X016935Y006297D03*
D72*
X016858Y005204D03*
X017048Y004679D03*
X017471Y004442D03*
D73*
X017102Y005202D03*
X016858Y005476D03*
X017048Y005835D03*
X016914Y006311D03*
X017464Y005410D03*
X017454Y002662D03*
D74*
X017421Y002650D03*
X017800Y002885D03*
X017543Y003217D03*
X017520Y004536D03*
X016902Y005142D03*
X016858Y006404D03*
X017048Y006462D03*
D75*
X016858Y006627D03*
X017110Y005476D03*
X017477Y005460D03*
X017611Y003285D03*
D76*
X016850Y003299D03*
X017215Y002619D03*
X017217Y002619D03*
D77*
X017438Y002657D03*
X017444Y002657D03*
X017450Y002661D03*
X017788Y002870D03*
X017534Y003208D03*
X017689Y003496D03*
X016889Y003336D03*
X017048Y004055D03*
X017097Y004144D03*
X016860Y004589D03*
X016914Y006985D03*
D78*
X016860Y005205D03*
X016982Y004878D03*
X016910Y004674D03*
X017673Y003498D03*
X017588Y002983D03*
X017734Y002818D03*
X017537Y002694D03*
X017522Y002686D03*
X017518Y002686D03*
D79*
X017495Y002676D03*
X017757Y002841D03*
X017761Y002845D03*
X017763Y002845D03*
X017582Y002977D03*
X017510Y003187D03*
X016895Y003342D03*
X017093Y004144D03*
X016860Y005477D03*
X016959Y005511D03*
X017048Y006315D03*
D80*
X016860Y006405D03*
X017097Y006088D03*
X017685Y003498D03*
X016893Y003338D03*
X017460Y002663D03*
X017778Y002861D03*
X017784Y002867D03*
D81*
X017553Y002952D03*
X016852Y002995D03*
X017708Y003496D03*
D82*
X016852Y003302D03*
D83*
X016862Y004589D03*
X016996Y004873D03*
X017095Y006088D03*
X016912Y006314D03*
X016862Y006405D03*
D84*
X017035Y006478D03*
X017040Y006138D03*
X017035Y005821D03*
X017217Y005672D03*
X017712Y005410D03*
X017073Y004963D03*
X017040Y004932D03*
X016906Y004971D03*
X016895Y004980D03*
X016889Y004986D03*
X016883Y004992D03*
X016873Y005000D03*
X016867Y005006D03*
X016862Y005011D03*
X017040Y004359D03*
X017619Y004231D03*
X016883Y006986D03*
D85*
X016862Y005205D03*
D86*
X016862Y005476D03*
X016961Y005509D03*
X017001Y005448D03*
X017468Y005410D03*
X017005Y004877D03*
D87*
X017029Y005410D03*
X017044Y005410D03*
X016918Y005405D03*
X016918Y006150D03*
X016922Y006150D03*
X016928Y006150D03*
X016934Y006150D03*
X016945Y006150D03*
X016951Y006150D03*
X016957Y006150D03*
X016961Y006150D03*
X016967Y006150D03*
X016972Y006150D03*
X016984Y006150D03*
X016990Y006150D03*
X016996Y006150D03*
X017001Y006150D03*
X016912Y006150D03*
X016906Y006150D03*
X016895Y006150D03*
X016889Y006150D03*
X016883Y006150D03*
X016877Y006150D03*
X016873Y006150D03*
X016867Y006150D03*
X016862Y006150D03*
D88*
X017017Y006148D03*
X016990Y006290D03*
X016984Y006290D03*
X016972Y006290D03*
X016967Y006290D03*
X016957Y006492D03*
X016961Y006494D03*
X016967Y006494D03*
X016990Y006494D03*
X016996Y006494D03*
X017005Y006492D03*
X016912Y006626D03*
X016862Y006626D03*
X017001Y006929D03*
X017017Y006923D03*
X017029Y006917D03*
X017035Y006916D03*
X017044Y006912D03*
X017050Y006910D03*
X017073Y006900D03*
X017017Y007048D03*
X017005Y007044D03*
X017001Y007042D03*
X016990Y007036D03*
X016972Y007030D03*
X016961Y007024D03*
X016951Y007020D03*
X017035Y007055D03*
X017044Y007059D03*
X017050Y007061D03*
X017073Y007071D03*
X017005Y005814D03*
X017001Y005814D03*
X016912Y005409D03*
X017035Y005288D03*
X017001Y004704D03*
X016961Y004704D03*
X016957Y004704D03*
X016967Y004496D03*
X016972Y004496D03*
X016984Y004496D03*
X016990Y004496D03*
X016996Y004496D03*
X017011Y004370D03*
X017005Y004203D03*
X017001Y004203D03*
X017005Y004036D03*
X017011Y004036D03*
D89*
X017023Y004698D03*
X016939Y004941D03*
X017023Y006296D03*
X017106Y006405D03*
X016901Y006626D03*
X016854Y002993D03*
D90*
X016854Y003302D03*
X017745Y003492D03*
D91*
X016864Y004589D03*
X016986Y004876D03*
X016864Y006405D03*
D92*
X016955Y006949D03*
X016955Y005671D03*
X016963Y005671D03*
X016970Y005671D03*
X016986Y005671D03*
X016992Y005671D03*
X017000Y005671D03*
X017007Y005671D03*
X017015Y005671D03*
X017031Y005671D03*
X017038Y005671D03*
X017046Y005671D03*
X017054Y005671D03*
X017069Y005671D03*
X017077Y005671D03*
X017085Y005671D03*
X017091Y005671D03*
X017099Y005671D03*
X017046Y005539D03*
X016932Y005546D03*
X016924Y005546D03*
X016924Y005671D03*
X016932Y005671D03*
X016947Y005671D03*
X016916Y005671D03*
X016908Y005671D03*
X016893Y005671D03*
X016887Y005671D03*
X016879Y005671D03*
X016871Y005671D03*
X016864Y005671D03*
X016924Y005403D03*
X017015Y005296D03*
X017031Y005290D03*
X016947Y005104D03*
X016947Y004847D03*
X016955Y004847D03*
X016932Y004847D03*
X016924Y004847D03*
X016916Y004847D03*
X016908Y004847D03*
X016893Y004847D03*
X016887Y004847D03*
X016879Y004847D03*
X016871Y004847D03*
X016864Y004847D03*
X017031Y004847D03*
X017038Y004847D03*
X017046Y004847D03*
X017054Y004847D03*
X017069Y004847D03*
X017077Y004847D03*
X017085Y004847D03*
X017091Y004847D03*
X017099Y004847D03*
X017114Y004847D03*
X017122Y004847D03*
X017130Y004847D03*
X017137Y004847D03*
X017153Y004847D03*
X017161Y004847D03*
X017168Y004847D03*
X017176Y004847D03*
X017198Y004847D03*
X017205Y004847D03*
X017213Y004847D03*
X017221Y004847D03*
X017236Y004847D03*
X017244Y004847D03*
X017458Y004696D03*
X017466Y004696D03*
X017487Y004696D03*
X017495Y004696D03*
X017503Y004696D03*
X017510Y004696D03*
X017526Y004696D03*
X017534Y004696D03*
X017541Y004696D03*
X017549Y004696D03*
X017565Y004696D03*
X017572Y004696D03*
X017578Y004696D03*
X017586Y004696D03*
X017594Y004696D03*
X017609Y004696D03*
X017617Y004696D03*
X017625Y004696D03*
X017633Y004696D03*
X017648Y004696D03*
X017656Y004696D03*
X017664Y004696D03*
X017670Y004696D03*
X017677Y004696D03*
X017693Y004696D03*
X017701Y004696D03*
X017708Y004696D03*
X017838Y004696D03*
X017800Y005003D03*
X017792Y005003D03*
X017784Y005003D03*
X017776Y005003D03*
X017755Y005003D03*
X017747Y005003D03*
X017739Y005003D03*
X017732Y005003D03*
X017716Y005003D03*
X017656Y005003D03*
X017648Y005003D03*
X017633Y005003D03*
X017625Y005003D03*
X017617Y005003D03*
X017609Y005003D03*
X017594Y005003D03*
X017586Y005003D03*
X017578Y005003D03*
X017572Y005003D03*
X017565Y005003D03*
X017549Y005003D03*
X017541Y005003D03*
X017534Y005003D03*
X017526Y005003D03*
X017510Y005003D03*
X017503Y005003D03*
X017495Y005003D03*
X017487Y005003D03*
X017466Y005003D03*
X017458Y005003D03*
D93*
X017069Y004959D03*
X017046Y004938D03*
X016908Y004969D03*
X016887Y004988D03*
X016864Y005009D03*
X017526Y004392D03*
X017823Y004695D03*
X017198Y005672D03*
X016924Y006478D03*
D94*
X016864Y005205D03*
D95*
X016864Y005477D03*
X017046Y004205D03*
D96*
X017046Y005410D03*
X017000Y006150D03*
X016992Y006150D03*
X016986Y006150D03*
X016970Y006150D03*
X016963Y006150D03*
X016955Y006150D03*
X016947Y006150D03*
X016932Y006150D03*
X016924Y006150D03*
X016916Y006150D03*
X016908Y006150D03*
X016893Y006150D03*
X016887Y006150D03*
X016879Y006150D03*
X016871Y006150D03*
X016864Y006150D03*
D97*
X017102Y005923D03*
X017033Y004694D03*
X016856Y002989D03*
X017388Y002643D03*
X017390Y002643D03*
D98*
X016856Y003305D03*
X016926Y005275D03*
D99*
X016980Y004879D03*
X017009Y004879D03*
X016866Y004588D03*
X017087Y005924D03*
X016866Y006406D03*
X016871Y002970D03*
D100*
X017071Y004144D03*
X017087Y004587D03*
X016866Y005205D03*
X016988Y005469D03*
X016976Y005484D03*
X017475Y005410D03*
D101*
X016998Y005456D03*
X016866Y005478D03*
X017481Y004442D03*
X016904Y003349D03*
X017588Y002718D03*
X017605Y002728D03*
X017650Y002757D03*
X017662Y002765D03*
X017673Y002770D03*
X017679Y002774D03*
X017695Y002788D03*
D102*
X017559Y002958D03*
X017392Y002643D03*
X016858Y002989D03*
X017703Y003496D03*
D103*
X016858Y003304D03*
D104*
X016858Y003319D03*
X017035Y003261D03*
X017475Y003331D03*
X017687Y003373D03*
X017747Y003350D03*
X017765Y003397D03*
X017819Y003397D03*
X017708Y003261D03*
X017687Y003218D03*
X017804Y002997D03*
X017870Y002997D03*
X017765Y002907D03*
X017809Y002849D03*
X017703Y002861D03*
X017431Y002705D03*
X016963Y002771D03*
X016924Y002818D03*
X016897Y002861D03*
X017236Y003653D03*
X017475Y003653D03*
D105*
X017083Y004144D03*
X016867Y004587D03*
D106*
X016867Y005205D03*
D107*
X016867Y005477D03*
X016967Y004886D03*
X017083Y004307D03*
X017079Y004144D03*
X017089Y006407D03*
D108*
X016867Y006406D03*
X016945Y006986D03*
D109*
X016906Y006626D03*
X016867Y006626D03*
X017035Y006143D03*
X016906Y005412D03*
X017017Y004700D03*
X017539Y004548D03*
X017536Y004387D03*
X017757Y004226D03*
X017796Y004696D03*
X017035Y004362D03*
X017029Y004039D03*
D110*
X016860Y003310D03*
X017671Y005495D03*
D111*
X017471Y005410D03*
X016968Y005495D03*
X016968Y004885D03*
X017021Y004885D03*
X016869Y004588D03*
X017473Y003155D03*
X017468Y003149D03*
D112*
X017427Y003115D03*
X017421Y003111D03*
X016869Y005205D03*
X016875Y005477D03*
X016881Y006409D03*
D113*
X016869Y005476D03*
X017087Y005476D03*
X017489Y004442D03*
X017462Y003145D03*
X017454Y003139D03*
X017605Y002998D03*
D114*
X017671Y002769D03*
X017666Y002766D03*
X017656Y002758D03*
X017635Y002746D03*
X017629Y002742D03*
X017627Y002742D03*
X017611Y002731D03*
X017602Y002727D03*
X017596Y002723D03*
X017594Y002723D03*
X017590Y002719D03*
X017081Y004144D03*
X017483Y004441D03*
X017019Y004884D03*
X017081Y005925D03*
X016869Y006407D03*
D115*
X017691Y003498D03*
X017539Y003214D03*
X017790Y002872D03*
X017448Y002659D03*
X016862Y002981D03*
D116*
X016906Y002845D03*
X017112Y002802D03*
X017250Y002608D03*
X017464Y002608D03*
X017448Y002713D03*
X017501Y002923D03*
X017524Y002954D03*
X017456Y003067D03*
X017600Y003237D03*
X017607Y003393D03*
X017745Y003346D03*
X017837Y003366D03*
X017881Y003226D03*
X017745Y003482D03*
X017631Y003591D03*
X017036Y003560D03*
X016990Y003521D03*
X016891Y003393D03*
X016877Y003366D03*
X016862Y003292D03*
X016998Y003265D03*
X017068Y003059D03*
X017143Y003078D03*
X017774Y002799D03*
X017852Y002935D03*
X017858Y002946D03*
X017866Y002993D03*
D117*
X016862Y003314D03*
X017640Y005295D03*
X017473Y005701D03*
D118*
X016992Y005465D03*
X016871Y004587D03*
D119*
X016924Y004955D03*
X016871Y005002D03*
X017038Y004930D03*
D120*
X016871Y005205D03*
D121*
X016871Y005477D03*
D122*
X017077Y005924D03*
X016871Y006408D03*
X016963Y004887D03*
X017077Y004145D03*
D123*
X017617Y004234D03*
X017800Y004696D03*
X016947Y004935D03*
X016932Y004948D03*
X016916Y004962D03*
X016893Y004983D03*
X016879Y004995D03*
X017221Y005671D03*
X017031Y006481D03*
X016871Y006626D03*
D124*
X017541Y003215D03*
X016864Y002982D03*
D125*
X016864Y003315D03*
X017642Y003319D03*
X017285Y002624D03*
X017281Y002624D03*
D126*
X017073Y004144D03*
X017491Y004441D03*
X016873Y004587D03*
D127*
X016873Y005206D03*
D128*
X017089Y005201D03*
X016873Y005477D03*
X016877Y004587D03*
X017083Y004587D03*
X017073Y004307D03*
D129*
X017073Y005924D03*
X016873Y006408D03*
D130*
X016928Y006481D03*
X016873Y006626D03*
X017196Y005671D03*
X017223Y005671D03*
X016912Y004966D03*
X016918Y004960D03*
X016922Y004956D03*
X016945Y004937D03*
X016951Y004931D03*
X016957Y004925D03*
X017802Y004696D03*
X017825Y004696D03*
X017829Y004696D03*
D131*
X017751Y004229D03*
X017703Y004225D03*
X017551Y004248D03*
X017017Y004503D03*
X016945Y004701D03*
X017017Y005417D03*
X017056Y005532D03*
X017011Y006293D03*
X016873Y006986D03*
D132*
X016914Y004682D03*
X017097Y004307D03*
X017470Y004443D03*
X017528Y003202D03*
X016866Y002977D03*
X017468Y002667D03*
D133*
X017339Y002667D03*
X017277Y002643D03*
X017293Y002600D03*
X017209Y002620D03*
X016959Y002775D03*
X016920Y002826D03*
X016881Y002888D03*
X017155Y003082D03*
X017215Y003102D03*
X017499Y003113D03*
X017518Y003136D03*
X017656Y003156D03*
X017666Y003175D03*
X017677Y003199D03*
X017679Y003202D03*
X017718Y003280D03*
X017728Y003303D03*
X017755Y003366D03*
X017755Y003370D03*
X017778Y003436D03*
X017739Y003478D03*
X017751Y003490D03*
X017596Y003610D03*
X017588Y003614D03*
X017561Y003370D03*
X017466Y003327D03*
X017627Y003276D03*
X017677Y003354D03*
X017868Y003288D03*
X017871Y003269D03*
X017883Y003043D03*
X017763Y002977D03*
X017650Y002935D03*
X017679Y002845D03*
X017757Y002779D03*
X017794Y002826D03*
X017807Y002845D03*
X017689Y002713D03*
X017650Y002686D03*
X017627Y002670D03*
X017339Y002954D03*
X017343Y002958D03*
X017304Y002927D03*
X016866Y003342D03*
X016934Y003459D03*
X017071Y003583D03*
D134*
X017444Y003131D03*
X017075Y004307D03*
X016875Y004587D03*
D135*
X016949Y004933D03*
X016935Y004944D03*
X016914Y004964D03*
X016875Y004999D03*
X017052Y005273D03*
X017025Y005983D03*
X017033Y006479D03*
X016926Y006479D03*
X017528Y004391D03*
X017615Y004236D03*
X017367Y002637D03*
D136*
X017388Y003088D03*
X016875Y005205D03*
D137*
X017071Y005924D03*
X016875Y006408D03*
D138*
X016935Y006485D03*
X016937Y006485D03*
X016949Y006293D03*
X017009Y006293D03*
X017021Y005817D03*
X017025Y005817D03*
X017227Y005672D03*
X016904Y005538D03*
X016943Y004701D03*
X017013Y004701D03*
X017021Y004505D03*
X017019Y004503D03*
X016943Y004503D03*
X016941Y004503D03*
X017025Y004039D03*
X017592Y004248D03*
X017598Y004246D03*
X017603Y004242D03*
X017605Y004242D03*
X017699Y004223D03*
X017749Y004229D03*
X017537Y004386D03*
X017833Y004695D03*
X017710Y003495D03*
X016875Y006986D03*
D139*
X016867Y002975D03*
X017475Y002668D03*
X017580Y002975D03*
D140*
X016867Y003317D03*
D141*
X017530Y004240D03*
X017524Y004393D03*
X017530Y004544D03*
X017813Y004696D03*
X017819Y004696D03*
X017101Y004989D03*
X017095Y004983D03*
X017089Y004977D03*
X017083Y004972D03*
X017068Y004958D03*
X017056Y004946D03*
X017035Y004927D03*
X016877Y004997D03*
X017029Y004696D03*
X017035Y004513D03*
X017202Y005671D03*
X017207Y005671D03*
X017211Y005671D03*
X016934Y006298D03*
X016922Y006477D03*
X016895Y006626D03*
X016883Y006626D03*
X016877Y006626D03*
D142*
X016877Y005205D03*
D143*
X016877Y005477D03*
X017662Y005007D03*
X017668Y005007D03*
X017673Y005007D03*
X017679Y005007D03*
X017691Y005007D03*
X017697Y005007D03*
X017703Y005007D03*
X017706Y005007D03*
X017712Y005007D03*
X016883Y006409D03*
D144*
X016877Y006408D03*
X017073Y006087D03*
X017083Y005476D03*
D145*
X017017Y005983D03*
X016945Y006294D03*
X016934Y006484D03*
X016877Y006985D03*
X017545Y004247D03*
X017607Y004241D03*
D146*
X016869Y002973D03*
D147*
X016869Y003321D03*
X017539Y002944D03*
X017844Y002944D03*
X017889Y003131D03*
X017326Y002630D03*
D148*
X017069Y004307D03*
X016879Y004585D03*
D149*
X016879Y005206D03*
D150*
X016879Y005477D03*
D151*
X016879Y006408D03*
D152*
X016932Y006298D03*
X016893Y006626D03*
X016879Y006626D03*
X016887Y006985D03*
X017205Y005671D03*
X017213Y005671D03*
X017054Y005271D03*
X016908Y005129D03*
X017077Y004966D03*
X017085Y004974D03*
X017091Y004979D03*
X017054Y004944D03*
X017031Y004923D03*
X016932Y004696D03*
X016924Y004515D03*
X017815Y004696D03*
D153*
X017031Y004040D03*
X017015Y005419D03*
X017031Y005819D03*
X017038Y006140D03*
X016879Y006986D03*
D154*
X016881Y004585D03*
X016893Y002950D03*
D155*
X017361Y003068D03*
X016939Y003369D03*
X016881Y005206D03*
D156*
X016881Y005477D03*
X017640Y003498D03*
X017883Y003133D03*
X016895Y002950D03*
D157*
X016873Y002969D03*
X017497Y003175D03*
X017741Y002826D03*
X017541Y002698D03*
X017536Y002694D03*
X017520Y002686D03*
D158*
X017598Y003270D03*
X016873Y003325D03*
D159*
X016883Y004585D03*
D160*
X016883Y005206D03*
D161*
X016883Y005477D03*
X017068Y005475D03*
D162*
X016965Y005501D03*
X017470Y005410D03*
X017013Y004881D03*
X016976Y004881D03*
X016875Y002967D03*
X017551Y002701D03*
X017557Y002702D03*
X017716Y002803D03*
X017718Y002805D03*
D163*
X017217Y002983D03*
X017209Y002979D03*
X016943Y002917D03*
X017644Y004131D03*
X017794Y004131D03*
X017075Y004618D03*
X016885Y004618D03*
X017071Y006376D03*
D164*
X016885Y005206D03*
X017617Y003499D03*
D165*
X017633Y003499D03*
X017390Y003089D03*
X017384Y003085D03*
X017066Y005476D03*
X016885Y005476D03*
D166*
X016885Y006409D03*
X017415Y003107D03*
X017411Y003103D03*
D167*
X017592Y002721D03*
X017576Y002713D03*
X017569Y002709D03*
X016877Y002966D03*
D168*
X017357Y002635D03*
X017829Y002921D03*
X016877Y003325D03*
X017023Y004506D03*
X017190Y005671D03*
D169*
X017069Y006377D03*
X016887Y004617D03*
D170*
X016887Y005206D03*
D171*
X016887Y005477D03*
D172*
X016887Y006376D03*
X017792Y004131D03*
D173*
X017038Y004044D03*
X017031Y004695D03*
X017099Y004986D03*
X017054Y005132D03*
X017038Y006474D03*
X016887Y006627D03*
D174*
X017664Y003498D03*
X016908Y003352D03*
X016879Y002964D03*
D175*
X016879Y003329D03*
X017570Y003243D03*
X017574Y003247D03*
X017819Y002909D03*
D176*
X017786Y004133D03*
X016889Y004616D03*
D177*
X016889Y005205D03*
D178*
X016889Y005477D03*
D179*
X017073Y004617D03*
X016889Y006377D03*
D180*
X016918Y006472D03*
X016889Y006627D03*
X017029Y006299D03*
X017029Y005984D03*
X016906Y005277D03*
X017079Y004969D03*
X017462Y004442D03*
X017044Y004355D03*
X017029Y004204D03*
X016889Y006986D03*
D181*
X016994Y005461D03*
X016881Y002962D03*
D182*
X016943Y003039D03*
X017033Y003261D03*
X017172Y003261D03*
X017328Y003284D03*
X017421Y003195D03*
X017633Y003117D03*
X017689Y003218D03*
X017633Y003284D03*
X017656Y003350D03*
X017716Y003463D03*
X017749Y003486D03*
X017778Y003439D03*
X017701Y003540D03*
X017602Y003606D03*
X017871Y002997D03*
X017673Y002841D03*
X017479Y002729D03*
X017662Y002694D03*
X017262Y002896D03*
X016943Y002795D03*
X016881Y003373D03*
X016928Y003451D03*
D183*
X017182Y002967D03*
X017572Y003499D03*
X017638Y004134D03*
X017782Y004134D03*
X016891Y004615D03*
X017066Y006379D03*
D184*
X016891Y005205D03*
X017821Y004115D03*
X017306Y003034D03*
X017304Y003034D03*
X016920Y002933D03*
D185*
X017376Y003079D03*
X017627Y003499D03*
X017629Y003499D03*
X016891Y005476D03*
D186*
X016891Y006378D03*
D187*
X017456Y003142D03*
X016883Y002960D03*
D188*
X017784Y004134D03*
X017069Y004615D03*
X016893Y004615D03*
D189*
X016893Y005205D03*
D190*
X016893Y005477D03*
D191*
X016893Y006378D03*
D192*
X017046Y006132D03*
X016893Y006986D03*
X017031Y004204D03*
D193*
X016885Y002956D03*
D194*
X016885Y003336D03*
X017413Y002648D03*
D195*
X016895Y004614D03*
D196*
X016895Y005205D03*
D197*
X016895Y005476D03*
X017829Y004106D03*
D198*
X017491Y004134D03*
X017068Y004615D03*
X016895Y006379D03*
D199*
X017040Y005825D03*
X017056Y005136D03*
X017035Y004693D03*
X016895Y006986D03*
D200*
X016887Y002957D03*
D201*
X016887Y003336D03*
X017549Y003223D03*
X017695Y003497D03*
X017048Y004349D03*
X016920Y004689D03*
X017058Y005260D03*
X016953Y005524D03*
X016904Y006986D03*
X016902Y006986D03*
X017411Y002648D03*
D202*
X017064Y004613D03*
X016897Y004613D03*
X016899Y006380D03*
X017060Y006380D03*
D203*
X016897Y005205D03*
X017470Y004119D03*
X017817Y004119D03*
X016959Y003379D03*
X017656Y003045D03*
X017877Y003146D03*
D204*
X017635Y003026D03*
X017355Y003065D03*
X016897Y005477D03*
D205*
X017066Y004614D03*
X016984Y003391D03*
X017184Y002968D03*
X017064Y006380D03*
X016897Y006380D03*
D206*
X017033Y005983D03*
X016904Y005137D03*
X017042Y004521D03*
X017102Y004307D03*
X017567Y003239D03*
X017807Y002894D03*
X016897Y006985D03*
D207*
X017081Y006409D03*
X017071Y004307D03*
X017611Y003004D03*
X016889Y002954D03*
D208*
X017165Y002958D03*
X017170Y002962D03*
X017172Y002962D03*
X016988Y003393D03*
X017567Y003498D03*
X017499Y004137D03*
X016899Y004612D03*
X016902Y006381D03*
X017058Y006381D03*
D209*
X016899Y005205D03*
X017654Y004121D03*
X017596Y003498D03*
X017283Y003020D03*
X017277Y003016D03*
X017262Y003008D03*
X016926Y002927D03*
D210*
X016899Y005476D03*
D211*
X017104Y005476D03*
X017042Y005827D03*
X016899Y006986D03*
X017464Y004442D03*
X017522Y004231D03*
X017772Y004213D03*
X017561Y003235D03*
D212*
X017615Y003006D03*
X016891Y002952D03*
D213*
X016891Y003336D03*
X017532Y003208D03*
X017440Y002657D03*
D214*
X016901Y004611D03*
D215*
X016901Y004975D03*
X017763Y004224D03*
X017706Y003496D03*
X017584Y003257D03*
X017023Y005983D03*
D216*
X016901Y005205D03*
X017266Y003010D03*
D217*
X017394Y002643D03*
X017813Y002900D03*
X016901Y005422D03*
D218*
X017062Y004612D03*
X016990Y003393D03*
X016901Y006381D03*
D219*
X016901Y006985D03*
X017518Y004401D03*
X017555Y003228D03*
X017563Y002962D03*
X017805Y002892D03*
X017409Y002647D03*
D220*
X017161Y002957D03*
X017060Y004611D03*
X017058Y004611D03*
X016902Y004611D03*
X016904Y006382D03*
D221*
X016943Y006294D03*
X017013Y006294D03*
X017025Y006484D03*
X017021Y005983D03*
X017019Y005983D03*
X016902Y005537D03*
X017460Y004443D03*
X017547Y004247D03*
X017590Y003263D03*
X017549Y002952D03*
D222*
X017155Y002952D03*
X017149Y002952D03*
X016904Y004610D03*
X017052Y006383D03*
D223*
X017033Y006301D03*
X016926Y006301D03*
X017460Y005410D03*
X016904Y005274D03*
X016926Y004693D03*
X017771Y004217D03*
D224*
X017403Y003100D03*
X017625Y003016D03*
X016897Y002950D03*
D225*
X016897Y003342D03*
X017491Y002674D03*
X017771Y002853D03*
D226*
X016906Y004609D03*
D227*
X016922Y004517D03*
X017524Y004234D03*
X017623Y004226D03*
X016906Y005133D03*
X017011Y005426D03*
X017044Y006135D03*
D228*
X016906Y006382D03*
D229*
X016918Y006307D03*
X016906Y006986D03*
X017462Y005410D03*
X016918Y004687D03*
D230*
X017386Y003086D03*
X016899Y002946D03*
D231*
X016899Y003344D03*
X017501Y003177D03*
D232*
X017054Y004609D03*
X016908Y004609D03*
D233*
X016932Y004509D03*
X017031Y004509D03*
X017038Y004360D03*
X017534Y004241D03*
X017534Y004546D03*
X016955Y004927D03*
X016908Y005278D03*
X017458Y005410D03*
D234*
X017054Y005533D03*
X016908Y005410D03*
X017015Y005983D03*
X017007Y006292D03*
X016955Y006292D03*
X016947Y006490D03*
X017015Y006488D03*
X016947Y004702D03*
X016947Y004502D03*
X017015Y004502D03*
X017541Y004385D03*
X017565Y004251D03*
X017572Y004251D03*
X017578Y004251D03*
X017586Y004249D03*
X017594Y004247D03*
X017701Y004224D03*
X017708Y004228D03*
X017716Y004230D03*
X017732Y004232D03*
X017739Y004232D03*
X017747Y004230D03*
X017792Y004696D03*
D235*
X016908Y006383D03*
D236*
X016947Y006293D03*
X017031Y006144D03*
X016908Y006627D03*
X017046Y005279D03*
X017015Y004701D03*
X017549Y004248D03*
D237*
X017099Y004143D03*
X017046Y004052D03*
X017046Y005831D03*
X017099Y005924D03*
X016908Y006986D03*
D238*
X017064Y005475D03*
X016932Y003366D03*
X017382Y003082D03*
X017627Y003020D03*
X017629Y003020D03*
X016901Y002946D03*
D239*
X016901Y003346D03*
X017528Y002690D03*
X016937Y006985D03*
D240*
X016920Y006986D03*
X016910Y004536D03*
X017522Y003198D03*
X017518Y003196D03*
X017471Y002667D03*
X017466Y002666D03*
X017462Y002664D03*
D241*
X016910Y006317D03*
D242*
X017042Y006308D03*
X016910Y006459D03*
X017042Y004686D03*
X017516Y004405D03*
X017572Y002969D03*
X017796Y002880D03*
D243*
X017435Y002655D03*
X016910Y006985D03*
D244*
X016902Y002944D03*
D245*
X016902Y003345D03*
D246*
X017468Y004442D03*
X017044Y004685D03*
X016912Y004530D03*
D247*
X016912Y004679D03*
D248*
X016934Y004508D03*
X017536Y004547D03*
X017530Y004390D03*
X017539Y004244D03*
X017536Y004242D03*
X017613Y004237D03*
X017691Y004217D03*
X017050Y005126D03*
X016912Y005124D03*
X017050Y005276D03*
X017029Y005819D03*
X017017Y006295D03*
X017029Y006481D03*
D249*
X017235Y005672D03*
X017035Y005542D03*
X017035Y005410D03*
X017040Y005410D03*
X017005Y005299D03*
X017011Y005297D03*
X016912Y005279D03*
D250*
X016912Y006464D03*
D251*
X016912Y006986D03*
D252*
X017075Y005201D03*
X016904Y002942D03*
D253*
X017415Y002649D03*
X017802Y002886D03*
X017545Y003220D03*
X017036Y004205D03*
X016914Y004527D03*
X017104Y005201D03*
X017102Y005477D03*
X017036Y005983D03*
X016920Y006306D03*
X017102Y006407D03*
D254*
X017033Y006143D03*
X017027Y005818D03*
X017225Y005671D03*
X017058Y005420D03*
X017108Y005201D03*
X017048Y005123D03*
X016914Y005123D03*
X016941Y004700D03*
X017019Y004700D03*
X016937Y004506D03*
X017019Y004203D03*
X017027Y004039D03*
X017695Y004220D03*
X017753Y004228D03*
X017759Y004226D03*
X017537Y004548D03*
D255*
X017842Y004696D03*
X017110Y005201D03*
X016914Y005278D03*
X017108Y005923D03*
X017617Y003292D03*
D256*
X017365Y003070D03*
X016906Y002942D03*
D257*
X016906Y003349D03*
X017584Y002718D03*
X017691Y002784D03*
X017699Y002790D03*
D258*
X017625Y004220D03*
X017038Y004690D03*
X016916Y004523D03*
X017046Y006465D03*
D259*
X016916Y006310D03*
X016916Y004684D03*
D260*
X017031Y004364D03*
X017534Y004387D03*
X017541Y004245D03*
X017609Y004239D03*
X017755Y004228D03*
X017831Y004696D03*
X017046Y005121D03*
X016916Y005121D03*
X016932Y006482D03*
D261*
X017176Y005672D03*
X017716Y005410D03*
X016916Y005279D03*
D262*
X017046Y004352D03*
X016924Y006302D03*
X016916Y006469D03*
D263*
X016916Y006627D03*
X017031Y005410D03*
X017038Y005410D03*
X017007Y005297D03*
D264*
X016916Y006986D03*
D265*
X017347Y003059D03*
X017637Y003028D03*
X017642Y003032D03*
X016908Y002938D03*
D266*
X016918Y004522D03*
D267*
X016918Y005278D03*
D268*
X016918Y006627D03*
D269*
X016918Y006986D03*
X017101Y005476D03*
X017040Y004204D03*
D270*
X017827Y004109D03*
X016943Y003371D03*
X017339Y003055D03*
X017345Y003059D03*
X017640Y003032D03*
X016910Y002938D03*
X017071Y005201D03*
D271*
X017093Y005201D03*
X017075Y005925D03*
X017087Y006407D03*
X017075Y004144D03*
X016910Y003352D03*
X017460Y003142D03*
D272*
X017811Y002898D03*
X017400Y002645D03*
X017396Y002645D03*
X017042Y004047D03*
X017033Y004205D03*
X017520Y004399D03*
X017104Y004589D03*
X016920Y004519D03*
X017102Y006088D03*
X017104Y006405D03*
D273*
X017493Y005486D03*
X017675Y005490D03*
X017681Y005337D03*
X016920Y005278D03*
X017644Y003321D03*
X017518Y002929D03*
X017856Y002964D03*
D274*
X017846Y002947D03*
X017306Y002627D03*
X017108Y004143D03*
X017238Y005672D03*
X016920Y006627D03*
D275*
X016912Y002936D03*
D276*
X016912Y003354D03*
X017452Y003136D03*
X017658Y003498D03*
D277*
X017044Y004049D03*
X017101Y004144D03*
X016922Y004690D03*
X017044Y005828D03*
X017101Y005923D03*
X017035Y005983D03*
X016922Y006304D03*
D278*
X017112Y006404D03*
X017462Y005701D03*
X017668Y005499D03*
X017497Y005328D03*
X016922Y005277D03*
X017112Y004592D03*
D279*
X017780Y004696D03*
X017240Y005671D03*
X016922Y006626D03*
D280*
X016922Y006986D03*
X017706Y005410D03*
D281*
X017646Y003035D03*
X016914Y002935D03*
D282*
X016914Y003356D03*
D283*
X016924Y004691D03*
D284*
X016924Y005276D03*
X017526Y005514D03*
X017664Y005318D03*
X017609Y005289D03*
X017458Y005701D03*
D285*
X017487Y005478D03*
X017487Y005341D03*
X017526Y005296D03*
X016924Y006626D03*
D286*
X017099Y006407D03*
X016924Y006985D03*
D287*
X017312Y003036D03*
X016916Y002934D03*
D288*
X016916Y003356D03*
X017493Y004441D03*
D289*
X017009Y005103D03*
X017019Y005295D03*
X016930Y005402D03*
X016926Y005402D03*
X017042Y005540D03*
D290*
X017671Y005325D03*
X017675Y005329D03*
X016926Y006626D03*
X017650Y003327D03*
X017268Y002622D03*
D291*
X017483Y002671D03*
X017769Y002850D03*
X016998Y004874D03*
X016994Y004874D03*
X017093Y005924D03*
X016926Y006986D03*
D292*
X016951Y003375D03*
X016918Y002933D03*
D293*
X016918Y003357D03*
X017648Y003499D03*
D294*
X017035Y004042D03*
X016928Y004512D03*
X016934Y004697D03*
X017044Y004936D03*
X017050Y004942D03*
D295*
X016928Y004694D03*
X017056Y005267D03*
X016928Y006300D03*
X017040Y006473D03*
X017040Y004045D03*
D296*
X017029Y004509D03*
X016961Y004921D03*
X016934Y004946D03*
X016928Y004952D03*
D297*
X016928Y005112D03*
X017035Y005112D03*
X016996Y006932D03*
D298*
X016928Y005274D03*
D299*
X017017Y005295D03*
X016928Y005402D03*
X017040Y005540D03*
X017017Y005105D03*
X017005Y005103D03*
X016957Y005103D03*
D300*
X017774Y004696D03*
X017852Y004696D03*
X017112Y004140D03*
X016928Y006626D03*
D301*
X016928Y006986D03*
X017095Y004308D03*
D302*
X017650Y003499D03*
X017435Y003122D03*
X016920Y003357D03*
X017071Y006087D03*
D303*
X016930Y005274D03*
X017679Y003363D03*
X017229Y002619D03*
D304*
X017489Y002673D03*
X017499Y002677D03*
X017506Y003184D03*
X017093Y004308D03*
X017097Y005476D03*
X017097Y006406D03*
X016930Y006986D03*
D305*
X017287Y003022D03*
X017279Y003018D03*
X016922Y002929D03*
D306*
X017417Y003109D03*
X016922Y003360D03*
X017685Y005007D03*
D307*
X016932Y005273D03*
D308*
X016932Y005402D03*
X017038Y005540D03*
X017015Y005105D03*
X017007Y005103D03*
X016955Y005103D03*
D309*
X017091Y005924D03*
X016932Y006986D03*
D310*
X017285Y003022D03*
X017281Y003018D03*
X017275Y003014D03*
X016924Y002929D03*
D311*
X017419Y003110D03*
X017619Y003011D03*
X016924Y003361D03*
D312*
X016934Y005271D03*
D313*
X016934Y006985D03*
D314*
X016926Y003362D03*
D315*
X017677Y003497D03*
X017755Y002836D03*
X017751Y002835D03*
X017749Y002833D03*
X017743Y002827D03*
X017512Y002683D03*
X017475Y004442D03*
X016935Y006986D03*
D316*
X017594Y003500D03*
X017268Y003010D03*
X016928Y002925D03*
D317*
X017405Y003099D03*
X016928Y003363D03*
D318*
X016930Y002924D03*
D319*
X016930Y003364D03*
D320*
X017023Y004039D03*
X017106Y004306D03*
X016939Y004505D03*
X017023Y005817D03*
X017023Y006485D03*
D321*
X016939Y006295D03*
X016939Y004699D03*
X017023Y004204D03*
D322*
X017557Y004250D03*
X017602Y004244D03*
X017106Y006087D03*
X016939Y006487D03*
D323*
X016939Y006986D03*
D324*
X017504Y004473D03*
X017588Y003498D03*
X017590Y003498D03*
X017248Y003001D03*
X016932Y002923D03*
D325*
X017489Y003169D03*
X017495Y003173D03*
X017671Y003498D03*
X017087Y004144D03*
X017724Y002810D03*
X017545Y002698D03*
X017543Y002696D03*
X017534Y002692D03*
X017093Y006407D03*
X016943Y006985D03*
X016941Y006985D03*
D326*
X017514Y004471D03*
X017675Y004127D03*
X017804Y004127D03*
X016970Y003387D03*
X017229Y002991D03*
X017233Y002991D03*
X016934Y002921D03*
X017666Y003057D03*
D327*
X016934Y003365D03*
D328*
X017231Y002991D03*
X016935Y002921D03*
D329*
X017369Y003073D03*
X016935Y003367D03*
D330*
X017219Y002985D03*
X016937Y002919D03*
X017584Y003498D03*
D331*
X017357Y003068D03*
X016937Y003369D03*
D332*
X017693Y004218D03*
X016947Y005537D03*
X017015Y006294D03*
D333*
X016947Y006985D03*
X017085Y004144D03*
D334*
X017582Y003498D03*
X016972Y003385D03*
X017221Y002985D03*
X017223Y002985D03*
X017215Y002981D03*
X016939Y002919D03*
D335*
X016941Y002917D03*
X016974Y003387D03*
D336*
X016941Y003370D03*
D337*
X017040Y004519D03*
X016951Y005529D03*
X017035Y006302D03*
X017044Y006469D03*
D338*
X017569Y003497D03*
X017675Y003068D03*
X017180Y002965D03*
X017174Y002963D03*
X017167Y002959D03*
X016945Y002916D03*
D339*
X017334Y003050D03*
X016945Y003372D03*
D340*
X017038Y004204D03*
X016955Y005520D03*
X017099Y006087D03*
D341*
X017015Y006148D03*
X016992Y006290D03*
X016986Y006290D03*
X016970Y006290D03*
X016955Y006492D03*
X016963Y006494D03*
X016970Y006494D03*
X016992Y006494D03*
X017077Y006898D03*
X017046Y006912D03*
X017031Y006917D03*
X017015Y006923D03*
X016963Y007026D03*
X016986Y007036D03*
X016992Y007038D03*
X017007Y007044D03*
X017015Y007048D03*
X017031Y007053D03*
X017046Y007059D03*
X017077Y007073D03*
X017007Y005814D03*
X017000Y005814D03*
X017038Y005115D03*
X017000Y004704D03*
X016963Y004704D03*
X016970Y004496D03*
X016986Y004496D03*
X016992Y004496D03*
X017015Y004370D03*
X017007Y004036D03*
D342*
X017168Y002962D03*
X016947Y002915D03*
D343*
X017324Y003044D03*
X017330Y003048D03*
X016947Y003374D03*
D344*
X017095Y004144D03*
X016957Y005515D03*
D345*
X017631Y004138D03*
X017868Y003159D03*
X017677Y003069D03*
X016949Y002914D03*
D346*
X017316Y003039D03*
X016949Y003373D03*
D347*
X016959Y005200D03*
X016965Y005200D03*
X016968Y005200D03*
X016994Y005200D03*
X016998Y005200D03*
D348*
X017157Y002956D03*
X016951Y002913D03*
D349*
X016961Y005200D03*
X016967Y005200D03*
X016972Y005200D03*
X016990Y005200D03*
X016996Y005200D03*
X017001Y005200D03*
D350*
X016953Y002911D03*
D351*
X016953Y003375D03*
X017607Y003500D03*
D352*
X017000Y005200D03*
X016992Y005200D03*
X016970Y005200D03*
X016963Y005200D03*
D353*
X016963Y005505D03*
D354*
X017508Y004140D03*
X017139Y002946D03*
X017137Y002946D03*
X016955Y002911D03*
D355*
X017293Y003024D03*
X017301Y003030D03*
X017650Y003043D03*
X016955Y003377D03*
D356*
X017466Y003148D03*
X017662Y003498D03*
X017633Y002744D03*
X017081Y004307D03*
X017025Y004886D03*
X016965Y004886D03*
X017699Y005410D03*
D357*
X016957Y002911D03*
D358*
X016957Y003379D03*
X017875Y003146D03*
D359*
X017095Y005201D03*
X016967Y005498D03*
D360*
X016974Y005201D03*
X016988Y005201D03*
X017514Y004142D03*
X017516Y004142D03*
X017132Y002944D03*
X016959Y002909D03*
D361*
X016961Y002907D03*
D362*
X016961Y003381D03*
D363*
X017085Y004307D03*
X016970Y004884D03*
X017085Y006088D03*
X017091Y006407D03*
D364*
X016970Y005492D03*
D365*
X017001Y003397D03*
X016963Y002907D03*
D366*
X016963Y003382D03*
D367*
X016972Y004883D03*
X017017Y004883D03*
D368*
X017089Y004588D03*
X017089Y005476D03*
X016972Y005489D03*
D369*
X016965Y002904D03*
D370*
X017260Y003006D03*
X016967Y003383D03*
X016965Y003383D03*
X017811Y004123D03*
D371*
X016974Y004882D03*
X017087Y006088D03*
X017483Y003164D03*
X017704Y002795D03*
X017689Y002783D03*
X017561Y002705D03*
D372*
X017027Y004888D03*
X016974Y005486D03*
D373*
X017009Y003401D03*
X017087Y002927D03*
X017077Y002923D03*
X016967Y002903D03*
D374*
X017122Y002941D03*
X017126Y002941D03*
X017685Y003079D03*
X016982Y005200D03*
X016980Y005200D03*
X016976Y005200D03*
D375*
X017691Y003087D03*
X016968Y002902D03*
D376*
X016968Y003384D03*
D377*
X017557Y004381D03*
X016978Y004496D03*
X017023Y005412D03*
X017184Y005671D03*
X016978Y006290D03*
X017062Y006904D03*
X016978Y007032D03*
X017106Y007084D03*
D378*
X016978Y004880D03*
X017730Y002816D03*
X017539Y002696D03*
X017532Y002692D03*
D379*
X017120Y002939D03*
X017683Y003079D03*
X016978Y005200D03*
D380*
X016978Y005480D03*
X017448Y003133D03*
D381*
X017557Y004045D03*
X017602Y004045D03*
X017685Y004045D03*
X017724Y004045D03*
X017763Y004045D03*
X017769Y004045D03*
X017557Y004552D03*
X017106Y005923D03*
X016978Y006939D03*
D382*
X017015Y003403D03*
X017071Y002921D03*
X016970Y002901D03*
D383*
X017450Y003135D03*
X017656Y003499D03*
X017695Y005410D03*
X016980Y005479D03*
X017075Y006087D03*
D384*
X017009Y006926D03*
X016994Y006932D03*
X016982Y006938D03*
X016980Y006938D03*
X017332Y002631D03*
X017337Y002631D03*
X017339Y002631D03*
D385*
X017056Y002916D03*
X017050Y002914D03*
X017048Y002912D03*
X016972Y002902D03*
X017695Y003091D03*
D386*
X016982Y005477D03*
D387*
X017697Y003093D03*
X016974Y002901D03*
D388*
X017089Y004144D03*
X016984Y004878D03*
D389*
X016984Y005200D03*
D390*
X016984Y005474D03*
D391*
X017029Y002908D03*
X016976Y002901D03*
D392*
X016976Y003387D03*
X017668Y003061D03*
D393*
X016986Y005200D03*
D394*
X017091Y005201D03*
X016986Y005473D03*
X017085Y006409D03*
X017077Y004307D03*
D395*
X017522Y003496D03*
X017017Y002903D03*
X017015Y002903D03*
X016978Y002900D03*
D396*
X017205Y002978D03*
X016978Y003388D03*
D397*
X017499Y003177D03*
X017504Y003181D03*
X017679Y003498D03*
X017510Y002682D03*
X017506Y002680D03*
X017504Y002680D03*
X017097Y004589D03*
X017003Y004876D03*
X016988Y004876D03*
X017704Y005409D03*
X017093Y006088D03*
D398*
X017019Y002905D03*
X016980Y002898D03*
D399*
X016980Y003389D03*
X017870Y003156D03*
D400*
X017044Y004204D03*
X017001Y004875D03*
X016990Y004875D03*
X017044Y005984D03*
D401*
X016990Y005467D03*
X017029Y004888D03*
D402*
X016990Y002898D03*
X016982Y002898D03*
D403*
X017188Y002968D03*
X016982Y003390D03*
D404*
X016992Y004875D03*
X017000Y004875D03*
X017466Y005410D03*
D405*
X016984Y002897D03*
D406*
X016986Y002897D03*
D407*
X016986Y003392D03*
D408*
X016996Y005458D03*
X017079Y005924D03*
D409*
X017033Y003410D03*
X016988Y002898D03*
D410*
X017000Y005452D03*
X017085Y005924D03*
D411*
X017035Y003410D03*
X017703Y003100D03*
X016992Y002898D03*
D412*
X017153Y002952D03*
X016992Y003395D03*
D413*
X016994Y002899D03*
D414*
X017145Y002950D03*
X016994Y003397D03*
X017557Y003498D03*
D415*
X017605Y003279D03*
X017013Y005297D03*
X017009Y005297D03*
X017003Y005299D03*
X017033Y005410D03*
X017036Y005410D03*
D416*
X017003Y005444D03*
D417*
X016996Y002899D03*
D418*
X016996Y003396D03*
X017553Y003497D03*
D419*
X017005Y005440D03*
D420*
X017516Y003495D03*
X017005Y002901D03*
X016998Y002901D03*
D421*
X016998Y003397D03*
X017866Y003160D03*
D422*
X017007Y004878D03*
X017099Y005201D03*
X017091Y006088D03*
D423*
X017007Y005435D03*
X017708Y005410D03*
X017099Y004308D03*
D424*
X017518Y003495D03*
X017003Y002901D03*
X017000Y002901D03*
D425*
X017000Y003397D03*
X017549Y003498D03*
X017551Y003498D03*
D426*
X017520Y003495D03*
X017031Y003409D03*
X017007Y002901D03*
X017001Y002901D03*
D427*
X017089Y004307D03*
X017011Y004880D03*
D428*
X017003Y003399D03*
X017099Y002931D03*
D429*
X017013Y004203D03*
D430*
X017005Y003399D03*
X017104Y002933D03*
X017097Y002931D03*
D431*
X017015Y004204D03*
X017541Y004549D03*
D432*
X017015Y004882D03*
D433*
X017007Y003400D03*
X017091Y002928D03*
D434*
X017017Y004204D03*
X017029Y004365D03*
X017697Y004221D03*
D435*
X017027Y002906D03*
X017023Y002906D03*
X017011Y002902D03*
X017009Y002902D03*
D436*
X017351Y002634D03*
X017355Y002634D03*
X017555Y004250D03*
X017559Y004250D03*
X017543Y004549D03*
X017033Y004363D03*
X017048Y005277D03*
X017019Y006487D03*
D437*
X017537Y003497D03*
X017011Y003402D03*
D438*
X017013Y002903D03*
D439*
X017013Y003403D03*
X017858Y003169D03*
D440*
X017638Y002748D03*
X017023Y004886D03*
D441*
X017106Y004143D03*
X017023Y006147D03*
X017062Y007066D03*
D442*
X017017Y003404D03*
X017054Y002915D03*
D443*
X017046Y002913D03*
X017019Y003404D03*
D444*
X017524Y003497D03*
X017699Y003095D03*
X017021Y002906D03*
D445*
X017036Y002910D03*
X017021Y003405D03*
D446*
X017526Y004236D03*
X017031Y005983D03*
X017031Y006300D03*
D447*
X017528Y003496D03*
X017023Y003406D03*
D448*
X017025Y002906D03*
D449*
X017031Y002907D03*
X017035Y002909D03*
X017025Y003406D03*
X017526Y003496D03*
D450*
X017035Y004204D03*
X017044Y004524D03*
D451*
X017027Y003408D03*
X017701Y003098D03*
D452*
X017561Y002961D03*
X017405Y002646D03*
X017036Y004691D03*
D453*
X017029Y003408D03*
D454*
X017038Y004517D03*
X017526Y004542D03*
X017038Y005824D03*
D455*
X017038Y005983D03*
D456*
X017038Y006305D03*
D457*
X017040Y006306D03*
X017040Y004688D03*
X017101Y004307D03*
D458*
X017101Y004589D03*
X017040Y005983D03*
X017044Y006310D03*
X017101Y006407D03*
D459*
X017033Y002908D03*
D460*
X017473Y002668D03*
X017479Y002668D03*
X017772Y002855D03*
X017578Y002975D03*
X017042Y004205D03*
X017516Y004529D03*
D461*
X017042Y005983D03*
D462*
X017042Y006471D03*
X017102Y004144D03*
D463*
X017036Y003408D03*
D464*
X017466Y004443D03*
X017046Y004527D03*
D465*
X017046Y004681D03*
D466*
X017046Y005984D03*
D467*
X017046Y006312D03*
D468*
X017038Y002910D03*
D469*
X017038Y003410D03*
X017504Y003494D03*
D470*
X017602Y002996D03*
X017048Y004206D03*
X017048Y005984D03*
X017081Y006087D03*
D471*
X017048Y004530D03*
X017537Y003211D03*
D472*
X017040Y002910D03*
D473*
X017040Y003410D03*
X017854Y003177D03*
D474*
X017050Y004199D03*
X017056Y005978D03*
D475*
X017050Y004608D03*
D476*
X017050Y005979D03*
D477*
X017050Y006383D03*
X017056Y004610D03*
D478*
X017042Y002911D03*
D479*
X017042Y003412D03*
D480*
X017052Y004199D03*
X017052Y005978D03*
D481*
X017052Y004609D03*
X017504Y004139D03*
X017679Y003071D03*
D482*
X017044Y002912D03*
D483*
X017044Y003412D03*
D484*
X017054Y004198D03*
D485*
X017054Y005978D03*
D486*
X017054Y006382D03*
D487*
X017046Y003414D03*
D488*
X017056Y004198D03*
D489*
X017497Y004137D03*
X017056Y006381D03*
D490*
X017050Y003414D03*
X017048Y003414D03*
D491*
X017058Y004198D03*
X017060Y005977D03*
X017058Y005977D03*
D492*
X017064Y005976D03*
X017060Y004197D03*
D493*
X017060Y005201D03*
X017289Y003022D03*
D494*
X017367Y003072D03*
X017372Y003076D03*
X017633Y003022D03*
X017460Y004104D03*
X017060Y005475D03*
D495*
X017052Y002915D03*
D496*
X017052Y003414D03*
X017493Y003494D03*
D497*
X017062Y004197D03*
X017062Y005976D03*
D498*
X017062Y005201D03*
D499*
X017062Y005476D03*
X017881Y003132D03*
D500*
X017062Y006380D03*
D501*
X017056Y003416D03*
X017054Y003416D03*
D502*
X017064Y004196D03*
X017066Y005975D03*
D503*
X017064Y005200D03*
D504*
X017066Y004112D03*
D505*
X017066Y004307D03*
X017666Y005007D03*
X017671Y005007D03*
X017675Y005007D03*
X017681Y005007D03*
X017683Y005007D03*
X017687Y005007D03*
X017689Y005007D03*
X017695Y005007D03*
X017699Y005007D03*
X017704Y005007D03*
X017710Y005007D03*
X017423Y003113D03*
X017617Y003010D03*
D506*
X017611Y003499D03*
X017660Y004114D03*
X017066Y005200D03*
D507*
X017536Y003496D03*
X017058Y002917D03*
D508*
X017058Y003417D03*
D509*
X017068Y004112D03*
X017068Y005891D03*
D510*
X017079Y005475D03*
X017079Y006409D03*
X017068Y004307D03*
D511*
X017068Y005201D03*
D512*
X017068Y006087D03*
D513*
X017068Y006378D03*
D514*
X017532Y003496D03*
X017060Y002917D03*
D515*
X017060Y003418D03*
D516*
X017069Y004111D03*
D517*
X017069Y005201D03*
D518*
X017069Y005476D03*
D519*
X017069Y005891D03*
D520*
X017069Y006087D03*
D521*
X017534Y003496D03*
X017062Y002917D03*
D522*
X017062Y003418D03*
D523*
X017200Y002975D03*
X017194Y002971D03*
X017671Y003063D03*
X017489Y004133D03*
X017071Y004616D03*
D524*
X017071Y005476D03*
X017621Y003013D03*
D525*
X017079Y002923D03*
X017064Y002919D03*
D526*
X017064Y003419D03*
D527*
X017073Y005201D03*
D528*
X017073Y005476D03*
D529*
X017073Y006376D03*
X017485Y004131D03*
D530*
X017083Y002926D03*
X017066Y002920D03*
D531*
X017066Y003420D03*
X017071Y003420D03*
D532*
X017644Y003499D03*
X017075Y005476D03*
X017075Y006410D03*
D533*
X017075Y002923D03*
X017068Y002919D03*
D534*
X017068Y003420D03*
D535*
X017077Y004585D03*
D536*
X017831Y004104D03*
X017077Y005201D03*
D537*
X017077Y005476D03*
D538*
X017077Y006087D03*
D539*
X017077Y006409D03*
X017664Y005007D03*
X017670Y005007D03*
X017677Y005007D03*
X017693Y005007D03*
X017701Y005007D03*
X017708Y005007D03*
D540*
X017069Y002921D03*
D541*
X017069Y003421D03*
D542*
X017079Y004307D03*
D543*
X017079Y004585D03*
D544*
X017079Y005201D03*
D545*
X017697Y005410D03*
X017079Y006087D03*
D546*
X017087Y005200D03*
X017081Y004586D03*
X017429Y003118D03*
D547*
X017635Y003500D03*
X017081Y005201D03*
D548*
X017081Y005476D03*
X017438Y003126D03*
D549*
X017073Y002922D03*
X017541Y003497D03*
D550*
X017073Y003422D03*
X017720Y003123D03*
D551*
X017083Y005201D03*
D552*
X017083Y005924D03*
D553*
X017083Y006087D03*
D554*
X017083Y006407D03*
D555*
X017470Y003492D03*
X017075Y003422D03*
D556*
X017085Y004587D03*
D557*
X017085Y005200D03*
D558*
X017085Y005476D03*
D559*
X017077Y003424D03*
D560*
X017885Y003133D03*
X017712Y002799D03*
X017710Y002799D03*
X017701Y002791D03*
X017578Y002713D03*
X017572Y002709D03*
X017087Y004307D03*
X017093Y004587D03*
X017097Y005201D03*
X017093Y005477D03*
D561*
X017079Y003424D03*
D562*
X017089Y005924D03*
D563*
X017089Y006088D03*
D564*
X017089Y002928D03*
X017081Y002924D03*
D565*
X017081Y003424D03*
D566*
X017091Y004143D03*
D567*
X017091Y004307D03*
D568*
X017091Y004588D03*
X017091Y005476D03*
D569*
X017087Y003426D03*
X017083Y003426D03*
D570*
X017085Y002926D03*
D571*
X017085Y003426D03*
X017842Y003185D03*
D572*
X017095Y004588D03*
X017703Y005410D03*
X017095Y005476D03*
D573*
X017095Y005924D03*
D574*
X017095Y006407D03*
D575*
X017097Y005924D03*
D576*
X017089Y003427D03*
D577*
X017099Y004588D03*
X017099Y005476D03*
D578*
X017091Y003428D03*
D579*
X017101Y005201D03*
D580*
X017101Y006088D03*
D581*
X017543Y003496D03*
X017545Y003496D03*
X017095Y002929D03*
X017093Y002929D03*
D582*
X017093Y003428D03*
X017095Y003428D03*
D583*
X017382Y002640D03*
X017384Y002640D03*
X017528Y004543D03*
X017102Y004990D03*
D584*
X017097Y003429D03*
D585*
X017576Y003248D03*
X017106Y004590D03*
D586*
X017106Y004994D03*
X017106Y005476D03*
X017769Y004219D03*
D587*
X017569Y003241D03*
X017106Y005201D03*
D588*
X017099Y003430D03*
X017840Y003187D03*
D589*
X017689Y003081D03*
X017110Y002935D03*
X017101Y002932D03*
D590*
X017101Y003431D03*
D591*
X017110Y004141D03*
X017528Y005295D03*
X017642Y005295D03*
X017471Y005701D03*
X017110Y005922D03*
D592*
X017110Y006085D03*
X017110Y004306D03*
X017528Y002935D03*
X017301Y002625D03*
X017299Y002625D03*
D593*
X017304Y002626D03*
X017110Y004591D03*
X017782Y004696D03*
X017844Y004696D03*
X017110Y006405D03*
D594*
X017864Y003166D03*
X017102Y002933D03*
D595*
X017102Y003431D03*
D596*
X017112Y004306D03*
X017551Y005290D03*
X017501Y005323D03*
X017619Y005290D03*
X017662Y005504D03*
X017658Y005506D03*
X017524Y005513D03*
X017512Y005506D03*
X017112Y006084D03*
D597*
X017539Y005292D03*
X017629Y005292D03*
X017673Y005327D03*
X017112Y005201D03*
D598*
X017112Y005475D03*
X017497Y005492D03*
X017501Y005496D03*
D599*
X017112Y005920D03*
D600*
X017433Y003488D03*
X017104Y003432D03*
D601*
X017106Y002935D03*
D602*
X017106Y003432D03*
X017110Y003432D03*
X017435Y003488D03*
X017438Y003488D03*
X017838Y003187D03*
D603*
X017687Y003081D03*
X017108Y002935D03*
D604*
X017732Y003136D03*
X017436Y003488D03*
X017108Y003432D03*
D605*
X017112Y002937D03*
X017518Y004143D03*
D606*
X017112Y003434D03*
X017837Y003189D03*
D607*
X017118Y002937D03*
X017114Y002937D03*
D608*
X017114Y003434D03*
X017118Y003434D03*
D609*
X017116Y002937D03*
D610*
X017116Y003434D03*
D611*
X017120Y003436D03*
D612*
X017122Y003436D03*
D613*
X017124Y002941D03*
D614*
X017124Y003436D03*
D615*
X017126Y003437D03*
X017132Y003437D03*
D616*
X017128Y002942D03*
D617*
X017128Y003437D03*
D618*
X017130Y002943D03*
D619*
X017130Y003437D03*
D620*
X017134Y002945D03*
D621*
X017134Y003438D03*
X017405Y003485D03*
X017833Y003192D03*
X017835Y003192D03*
D622*
X017555Y003497D03*
X017135Y002945D03*
D623*
X017135Y003438D03*
X017402Y003485D03*
X017737Y003145D03*
D624*
X017137Y003439D03*
D625*
X017139Y003440D03*
D626*
X017141Y002947D03*
D627*
X017141Y003440D03*
D628*
X017159Y002956D03*
X017143Y002948D03*
D629*
X017143Y003440D03*
D630*
X017145Y003441D03*
X017384Y003482D03*
X017388Y003482D03*
X017390Y003484D03*
X017739Y003150D03*
D631*
X017681Y003074D03*
X017147Y002950D03*
X017559Y003498D03*
D632*
X017741Y003150D03*
X017147Y003441D03*
D633*
X017149Y003442D03*
D634*
X017151Y002952D03*
D635*
X017151Y003442D03*
D636*
X017153Y003442D03*
D637*
X017155Y003443D03*
X017161Y003443D03*
X017382Y003482D03*
D638*
X017380Y003482D03*
X017157Y003443D03*
D639*
X017159Y003443D03*
X017378Y003482D03*
D640*
X017168Y005672D03*
D641*
X017170Y005672D03*
X017460Y005701D03*
X017537Y005520D03*
X017520Y005510D03*
X017516Y005509D03*
X017642Y005516D03*
X017615Y005289D03*
X017611Y005289D03*
X017561Y005289D03*
X017559Y005289D03*
X017555Y005289D03*
X017862Y002974D03*
X017256Y002621D03*
X017254Y002621D03*
D642*
X017163Y002957D03*
D643*
X017163Y003445D03*
X017168Y003445D03*
D644*
X017530Y005294D03*
X017172Y005671D03*
D645*
X017165Y003445D03*
D646*
X017728Y003493D03*
X017483Y005347D03*
X017242Y005672D03*
X017174Y005672D03*
X017475Y005701D03*
X017477Y005701D03*
D647*
X017167Y003445D03*
D648*
X017178Y005671D03*
D649*
X017355Y003480D03*
X017184Y003451D03*
X017182Y003451D03*
X017170Y003447D03*
D650*
X017716Y003496D03*
X017718Y003496D03*
X017840Y002936D03*
X017328Y002630D03*
X017322Y002630D03*
X017180Y005671D03*
D651*
X017372Y003482D03*
X017178Y003449D03*
X017176Y003449D03*
X017172Y003449D03*
X017743Y003154D03*
D652*
X017370Y003482D03*
X017180Y003449D03*
X017174Y003449D03*
D653*
X017176Y002964D03*
X017493Y004135D03*
X017637Y004135D03*
X017778Y004135D03*
D654*
X017673Y003068D03*
X017178Y002965D03*
D655*
X017186Y002968D03*
D656*
X017186Y003451D03*
X017747Y003160D03*
D657*
X017365Y003480D03*
X017357Y003480D03*
X017188Y003451D03*
D658*
X017190Y002970D03*
D659*
X017190Y003452D03*
X017194Y003452D03*
X017343Y003479D03*
X017345Y003479D03*
X017351Y003479D03*
D660*
X017192Y002970D03*
D661*
X017192Y003452D03*
X017198Y003452D03*
X017330Y003475D03*
X017347Y003479D03*
X017353Y003479D03*
X017825Y003198D03*
D662*
X017576Y003498D03*
X017196Y002973D03*
X017640Y004133D03*
D663*
X017349Y003479D03*
X017196Y003452D03*
D664*
X017198Y002974D03*
D665*
X017200Y003453D03*
X017328Y003476D03*
X017332Y003476D03*
D666*
X017574Y003498D03*
X017670Y003063D03*
X017202Y002975D03*
D667*
X017202Y003454D03*
X017207Y003454D03*
X017314Y003473D03*
X017324Y003473D03*
D668*
X017203Y002976D03*
D669*
X017203Y003454D03*
X017318Y003473D03*
X017326Y003473D03*
D670*
X017322Y003473D03*
X017316Y003473D03*
X017312Y003473D03*
X017337Y003477D03*
X017339Y003477D03*
X017221Y003458D03*
X017209Y003454D03*
X017205Y003454D03*
D671*
X017207Y002978D03*
D672*
X017211Y002619D03*
D673*
X017211Y002980D03*
D674*
X017211Y003457D03*
X017219Y003457D03*
D675*
X017703Y003250D03*
X017491Y002910D03*
X017213Y002619D03*
D676*
X017213Y002980D03*
X017580Y003499D03*
D677*
X017213Y003457D03*
D678*
X017215Y003457D03*
X017217Y003457D03*
D679*
X017493Y002912D03*
X017219Y002621D03*
D680*
X017221Y002620D03*
X017223Y002620D03*
X017499Y002915D03*
D681*
X017823Y003199D03*
X017304Y003472D03*
X017233Y003459D03*
X017229Y003459D03*
X017223Y003459D03*
D682*
X017225Y002619D03*
D683*
X017225Y002989D03*
D684*
X017225Y003459D03*
X017231Y003459D03*
X017236Y003459D03*
X017308Y003472D03*
D685*
X017227Y002619D03*
D686*
X017227Y002989D03*
D687*
X017227Y003459D03*
X017235Y003459D03*
X017310Y003472D03*
D688*
X017693Y005460D03*
X017236Y005672D03*
D689*
X017231Y002620D03*
D690*
X017233Y002620D03*
D691*
X017235Y002620D03*
X017866Y002983D03*
D692*
X017235Y002993D03*
X017479Y004127D03*
D693*
X017534Y005293D03*
X017633Y005293D03*
X017677Y005332D03*
X017495Y005489D03*
X017244Y005672D03*
X017466Y005701D03*
D694*
X017503Y002919D03*
X017236Y002620D03*
D695*
X017236Y002994D03*
X017664Y003056D03*
X017586Y003499D03*
D696*
X017584Y005287D03*
X017580Y005287D03*
X017590Y005287D03*
X017662Y005287D03*
X017668Y005287D03*
X017673Y005287D03*
X017679Y005287D03*
X017691Y005287D03*
X017697Y005287D03*
X017703Y005287D03*
X017706Y005287D03*
X017712Y005287D03*
X017718Y005287D03*
X017730Y005287D03*
X017736Y005287D03*
X017741Y005287D03*
X017745Y005287D03*
X017751Y005287D03*
X017757Y005287D03*
X017774Y005287D03*
X017780Y005287D03*
X017786Y005287D03*
X017790Y005287D03*
X017796Y005287D03*
X017802Y005287D03*
X017813Y005287D03*
X017819Y005287D03*
X017825Y005287D03*
X017829Y005287D03*
X017835Y005287D03*
X017840Y005287D03*
X017852Y005287D03*
X017858Y005287D03*
X017629Y005522D03*
X017623Y005524D03*
X017613Y005526D03*
X017607Y005528D03*
X017590Y005530D03*
X017584Y005530D03*
X017580Y005530D03*
X017569Y005528D03*
X017563Y005528D03*
X017607Y005637D03*
X017635Y005625D03*
X017658Y005615D03*
X017668Y005611D03*
X017691Y005602D03*
X017530Y005670D03*
X017506Y005722D03*
X017501Y005720D03*
X017497Y005718D03*
X017491Y005716D03*
X017452Y005699D03*
X017446Y005697D03*
X017429Y005689D03*
X017402Y005678D03*
X017390Y005674D03*
X017384Y005670D03*
X017378Y005668D03*
X017372Y005666D03*
X017369Y005664D03*
X017363Y005662D03*
X017345Y005654D03*
X017246Y005672D03*
X017545Y005740D03*
X017569Y005749D03*
X017596Y005761D03*
X017619Y005771D03*
X017646Y005782D03*
X017673Y005794D03*
X017452Y005410D03*
X017462Y005287D03*
X017468Y005287D03*
X017485Y005287D03*
X017491Y005287D03*
X017497Y005287D03*
X017501Y005287D03*
X017506Y005287D03*
X017512Y005287D03*
D697*
X017743Y003490D03*
X017868Y002985D03*
X017238Y002620D03*
D698*
X017238Y002995D03*
X017871Y003150D03*
D699*
X017293Y003470D03*
X017289Y003470D03*
X017238Y003462D03*
D700*
X017240Y002621D03*
X017246Y002621D03*
D701*
X017240Y002996D03*
D702*
X017240Y003462D03*
X017252Y003464D03*
X017281Y003468D03*
X017285Y003470D03*
X017291Y003470D03*
D703*
X017242Y002621D03*
D704*
X017242Y002997D03*
X017250Y003001D03*
D705*
X017250Y003463D03*
X017242Y003463D03*
D706*
X017244Y002621D03*
D707*
X017244Y002998D03*
X017650Y004126D03*
X017508Y004472D03*
D708*
X017283Y003469D03*
X017248Y003463D03*
X017244Y003463D03*
D709*
X017246Y002998D03*
D710*
X017246Y003463D03*
X017320Y003474D03*
D711*
X017248Y002621D03*
X017460Y005287D03*
X017464Y005287D03*
X017470Y005287D03*
X017471Y005287D03*
X017475Y005287D03*
X017477Y005287D03*
X017481Y005287D03*
X017483Y005287D03*
X017489Y005287D03*
X017493Y005287D03*
X017499Y005287D03*
X017504Y005287D03*
X017508Y005287D03*
X017582Y005287D03*
X017588Y005287D03*
X017660Y005287D03*
X017666Y005287D03*
X017671Y005287D03*
X017675Y005287D03*
X017681Y005287D03*
X017683Y005287D03*
X017687Y005287D03*
X017689Y005287D03*
X017695Y005287D03*
X017699Y005287D03*
X017704Y005287D03*
X017710Y005287D03*
X017714Y005287D03*
X017720Y005287D03*
X017722Y005287D03*
X017726Y005287D03*
X017728Y005287D03*
X017734Y005287D03*
X017737Y005287D03*
X017743Y005287D03*
X017749Y005287D03*
X017753Y005287D03*
X017759Y005287D03*
X017761Y005287D03*
X017765Y005287D03*
X017767Y005287D03*
X017771Y005287D03*
X017772Y005287D03*
X017778Y005287D03*
X017782Y005287D03*
X017788Y005287D03*
X017794Y005287D03*
X017798Y005287D03*
X017804Y005287D03*
X017805Y005287D03*
X017809Y005287D03*
X017811Y005287D03*
X017817Y005287D03*
X017821Y005287D03*
X017827Y005287D03*
X017833Y005287D03*
X017837Y005287D03*
X017842Y005287D03*
X017844Y005287D03*
X017848Y005287D03*
X017850Y005287D03*
X017856Y005287D03*
X017615Y005526D03*
X017605Y005528D03*
X017603Y005528D03*
X017600Y005528D03*
X017592Y005530D03*
X017588Y005530D03*
X017582Y005530D03*
X017570Y005528D03*
X017567Y005528D03*
X017555Y005526D03*
X017603Y005639D03*
X017631Y005627D03*
X017644Y005621D03*
X017654Y005617D03*
X017671Y005610D03*
X017681Y005606D03*
X017687Y005604D03*
X017695Y005600D03*
X017699Y005598D03*
X017704Y005596D03*
X017567Y005654D03*
X017528Y005732D03*
X017532Y005734D03*
X017547Y005740D03*
X017555Y005744D03*
X017561Y005745D03*
X017582Y005755D03*
X017588Y005757D03*
X017592Y005759D03*
X017605Y005765D03*
X017615Y005769D03*
X017642Y005780D03*
X017514Y005726D03*
X017504Y005722D03*
X017493Y005716D03*
X017438Y005693D03*
X017433Y005691D03*
X017425Y005687D03*
X017415Y005683D03*
X017409Y005681D03*
X017405Y005679D03*
X017400Y005678D03*
X017398Y005676D03*
X017392Y005674D03*
X017386Y005672D03*
X017382Y005670D03*
X017376Y005668D03*
X017370Y005664D03*
X017365Y005662D03*
X017361Y005660D03*
X017349Y005656D03*
X017347Y005654D03*
X017337Y005650D03*
D712*
X017668Y003348D03*
X017250Y002622D03*
D713*
X017252Y002621D03*
D714*
X017252Y003003D03*
D715*
X017254Y003003D03*
X017256Y003003D03*
D716*
X017256Y003465D03*
X017254Y003465D03*
X017260Y003465D03*
X017262Y003465D03*
X017273Y003467D03*
X017277Y003467D03*
X017749Y003166D03*
X017751Y003166D03*
D717*
X017654Y003333D03*
X017737Y003492D03*
X017266Y002622D03*
X017258Y002622D03*
X017518Y005510D03*
D718*
X017258Y003006D03*
D719*
X017258Y003465D03*
X017271Y003467D03*
X017821Y003201D03*
D720*
X017656Y003333D03*
X017512Y002925D03*
X017262Y002622D03*
X017260Y002622D03*
X017547Y005290D03*
X017553Y005290D03*
X017499Y005325D03*
X017621Y005290D03*
X017660Y005506D03*
X017654Y005510D03*
X017514Y005508D03*
D721*
X017264Y002622D03*
D722*
X017264Y003008D03*
D723*
X017264Y003466D03*
X017269Y003466D03*
X017297Y003471D03*
D724*
X017295Y003471D03*
X017302Y003471D03*
X017266Y003466D03*
D725*
X017268Y003466D03*
X017299Y003471D03*
X017301Y003471D03*
X017306Y003471D03*
D726*
X017275Y002622D03*
X017269Y002622D03*
D727*
X017269Y003011D03*
D728*
X017271Y002622D03*
D729*
X017271Y003012D03*
D730*
X017273Y002622D03*
X017277Y002622D03*
X017532Y005294D03*
X017637Y005294D03*
X017638Y005294D03*
X017470Y005700D03*
D731*
X017273Y003012D03*
D732*
X017275Y003467D03*
X017819Y003201D03*
D733*
X017638Y003315D03*
X017524Y002931D03*
X017852Y002958D03*
X017279Y002624D03*
X017685Y005343D03*
D734*
X017287Y003470D03*
X017279Y003468D03*
D735*
X017640Y003317D03*
X017522Y002931D03*
X017283Y002624D03*
X017778Y004696D03*
X017848Y004696D03*
X017644Y005296D03*
X017683Y005480D03*
D736*
X017287Y002626D03*
D737*
X017289Y002626D03*
X017293Y002626D03*
X017633Y003309D03*
X017635Y003309D03*
X017650Y005298D03*
X017687Y005346D03*
X017520Y005298D03*
D738*
X017854Y002960D03*
X017291Y002626D03*
D739*
X017291Y003023D03*
D740*
X017295Y002624D03*
X017846Y004696D03*
D741*
X017295Y003026D03*
D742*
X017297Y002624D03*
X017848Y002954D03*
D743*
X017297Y003027D03*
D744*
X017299Y003029D03*
D745*
X017623Y003298D03*
X017302Y002626D03*
D746*
X017302Y003031D03*
X017310Y003035D03*
D747*
X017308Y002627D03*
D748*
X017308Y003035D03*
D749*
X017534Y002938D03*
X017316Y002628D03*
X017312Y002628D03*
X017621Y003296D03*
X017477Y005360D03*
D750*
X017720Y003494D03*
X017842Y002942D03*
X017320Y002628D03*
X017314Y002628D03*
D751*
X017314Y003039D03*
D752*
X017318Y002629D03*
D753*
X017318Y003039D03*
D754*
X017320Y003042D03*
D755*
X017322Y003043D03*
X017644Y003035D03*
D756*
X017536Y002940D03*
X017324Y002630D03*
X017613Y003286D03*
D757*
X017334Y005649D03*
D758*
X017326Y003044D03*
D759*
X017458Y005287D03*
X017466Y005287D03*
X017487Y005287D03*
X017495Y005287D03*
X017503Y005287D03*
X017510Y005287D03*
X017578Y005287D03*
X017586Y005287D03*
X017664Y005287D03*
X017670Y005287D03*
X017677Y005287D03*
X017693Y005287D03*
X017701Y005287D03*
X017708Y005287D03*
X017716Y005287D03*
X017732Y005287D03*
X017739Y005287D03*
X017747Y005287D03*
X017755Y005287D03*
X017776Y005287D03*
X017784Y005287D03*
X017792Y005287D03*
X017800Y005287D03*
X017815Y005287D03*
X017823Y005287D03*
X017831Y005287D03*
X017838Y005287D03*
X017854Y005287D03*
X017617Y005526D03*
X017594Y005530D03*
X017586Y005530D03*
X017578Y005530D03*
X017565Y005528D03*
X017549Y005524D03*
X017594Y005643D03*
X017617Y005633D03*
X017677Y005608D03*
X017708Y005594D03*
X017534Y005668D03*
X017534Y005734D03*
X017541Y005738D03*
X017565Y005747D03*
X017578Y005753D03*
X017609Y005767D03*
X017633Y005777D03*
X017656Y005786D03*
X017487Y005714D03*
X017442Y005695D03*
X017419Y005685D03*
X017388Y005672D03*
X017374Y005666D03*
X017359Y005660D03*
X017336Y005650D03*
D760*
X017328Y003045D03*
D761*
X017330Y002631D03*
X017336Y002631D03*
D762*
X017339Y005652D03*
X017357Y005658D03*
X017524Y005730D03*
X017551Y005742D03*
X017584Y005646D03*
D763*
X017464Y004111D03*
X017879Y003138D03*
X017337Y003053D03*
X017332Y003049D03*
D764*
X017341Y005652D03*
X017353Y005658D03*
X017355Y005658D03*
X017508Y005724D03*
X017537Y005736D03*
X017570Y005652D03*
X017598Y005641D03*
D765*
X017334Y002631D03*
D766*
X017334Y003476D03*
X017341Y003478D03*
D767*
X017343Y005653D03*
D768*
X017336Y003053D03*
D769*
X017336Y003476D03*
D770*
X017341Y003055D03*
D771*
X017473Y005287D03*
X017479Y005287D03*
X017685Y005287D03*
X017724Y005287D03*
X017763Y005287D03*
X017769Y005287D03*
X017807Y005287D03*
X017846Y005287D03*
X017602Y005528D03*
X017557Y005526D03*
X017640Y005623D03*
X017602Y005763D03*
X017518Y005728D03*
X017396Y005676D03*
X017351Y005656D03*
D772*
X017621Y003499D03*
X017351Y003062D03*
X017343Y003058D03*
D773*
X017347Y002633D03*
D774*
X017349Y002634D03*
D775*
X017349Y003060D03*
D776*
X017353Y002634D03*
D777*
X017353Y003063D03*
D778*
X017586Y003259D03*
X017359Y002635D03*
D779*
X017359Y003068D03*
D780*
X017359Y003481D03*
X017363Y003481D03*
D781*
X017361Y002636D03*
D782*
X017361Y003481D03*
X017367Y003481D03*
D783*
X017363Y002636D03*
D784*
X017363Y003070D03*
D785*
X017365Y002636D03*
D786*
X017369Y002637D03*
D787*
X017369Y003482D03*
X017374Y003482D03*
D788*
X017370Y002638D03*
X017378Y002638D03*
D789*
X017370Y003076D03*
X017631Y003022D03*
D790*
X017374Y002638D03*
D791*
X017374Y003077D03*
D792*
X017376Y003481D03*
D793*
X017378Y003081D03*
D794*
X017380Y002640D03*
D795*
X017380Y003082D03*
D796*
X017510Y002923D03*
X017662Y003342D03*
X017508Y005317D03*
X017532Y005517D03*
X017543Y005523D03*
X017547Y005523D03*
X017553Y005525D03*
X017576Y005529D03*
X017598Y005529D03*
X017621Y005525D03*
X017627Y005523D03*
X017637Y005519D03*
X017675Y005609D03*
X017666Y005612D03*
X017660Y005614D03*
X017650Y005618D03*
X017638Y005624D03*
X017637Y005624D03*
X017621Y005632D03*
X017611Y005636D03*
X017605Y005638D03*
X017600Y005640D03*
X017592Y005644D03*
X017588Y005645D03*
X017582Y005647D03*
X017576Y005649D03*
X017561Y005657D03*
X017559Y005657D03*
X017555Y005659D03*
X017553Y005659D03*
X017547Y005663D03*
X017543Y005663D03*
X017537Y005667D03*
X017532Y005669D03*
X017522Y005673D03*
X017520Y005675D03*
X017516Y005675D03*
X017508Y005678D03*
X017504Y005680D03*
X017493Y005684D03*
X017489Y005686D03*
X017489Y005715D03*
X017499Y005719D03*
X017516Y005727D03*
X017520Y005729D03*
X017522Y005729D03*
X017543Y005739D03*
X017553Y005743D03*
X017559Y005745D03*
X017570Y005750D03*
X017576Y005752D03*
X017598Y005762D03*
X017600Y005762D03*
X017603Y005764D03*
X017611Y005768D03*
X017627Y005774D03*
X017631Y005776D03*
X017638Y005779D03*
X017644Y005781D03*
X017654Y005785D03*
X017660Y005787D03*
X017666Y005791D03*
X017671Y005793D03*
X017681Y005797D03*
X017683Y005799D03*
X017687Y005799D03*
X017695Y005803D03*
X017699Y005805D03*
X017704Y005807D03*
X017710Y005811D03*
X017448Y005698D03*
X017444Y005696D03*
X017436Y005692D03*
X017431Y005690D03*
X017421Y005686D03*
X017394Y005675D03*
X017689Y005603D03*
D797*
X017386Y003482D03*
D798*
X017392Y003089D03*
D799*
X017392Y003483D03*
X017398Y003483D03*
D800*
X017394Y003092D03*
D801*
X017394Y003483D03*
D802*
X017396Y003093D03*
D803*
X017396Y003483D03*
X017400Y003483D03*
D804*
X017559Y003232D03*
X017809Y002898D03*
X017398Y002645D03*
D805*
X017398Y003095D03*
D806*
X017512Y005313D03*
X017536Y005519D03*
X017545Y005523D03*
X017551Y005525D03*
X017574Y005529D03*
X017596Y005529D03*
X017619Y005525D03*
X017635Y005519D03*
X017673Y005609D03*
X017679Y005607D03*
X017662Y005614D03*
X017652Y005618D03*
X017646Y005620D03*
X017623Y005630D03*
X017619Y005632D03*
X017596Y005642D03*
X017590Y005644D03*
X017580Y005647D03*
X017574Y005651D03*
X017569Y005653D03*
X017563Y005655D03*
X017551Y005661D03*
X017545Y005663D03*
X017536Y005667D03*
X017524Y005673D03*
X017506Y005678D03*
X017497Y005684D03*
X017491Y005686D03*
X017512Y005725D03*
X017530Y005733D03*
X017536Y005735D03*
X017539Y005737D03*
X017563Y005746D03*
X017574Y005752D03*
X017584Y005756D03*
X017590Y005758D03*
X017613Y005768D03*
X017629Y005776D03*
X017652Y005785D03*
X017658Y005787D03*
X017668Y005791D03*
X017679Y005797D03*
X017697Y005805D03*
X017703Y005807D03*
X017706Y005809D03*
X017712Y005811D03*
X017423Y005686D03*
X017417Y005684D03*
X017407Y005680D03*
X017703Y005597D03*
X017706Y005595D03*
D807*
X017400Y003095D03*
D808*
X017402Y003098D03*
X017638Y003498D03*
D809*
X017594Y005288D03*
X017572Y005288D03*
X017565Y005288D03*
X017541Y005521D03*
X017609Y005527D03*
X017633Y005521D03*
X017670Y005611D03*
X017656Y005616D03*
X017541Y005665D03*
X017526Y005671D03*
X017487Y005688D03*
X017495Y005717D03*
X017427Y005688D03*
X017411Y005682D03*
X017594Y005760D03*
X017648Y005783D03*
X017664Y005789D03*
X017677Y005795D03*
D810*
X017403Y002646D03*
D811*
X017736Y003145D03*
X017407Y003485D03*
X017403Y003485D03*
D812*
X017563Y005288D03*
X017569Y005288D03*
X017574Y005288D03*
X017596Y005288D03*
X017539Y005521D03*
X017613Y005634D03*
X017629Y005628D03*
X017697Y005599D03*
X017712Y005593D03*
X017539Y005665D03*
X017512Y005677D03*
X017501Y005682D03*
X017456Y005700D03*
X017440Y005694D03*
X017413Y005682D03*
X017580Y005754D03*
X017607Y005766D03*
X017623Y005772D03*
X017635Y005778D03*
X017662Y005789D03*
X017691Y005801D03*
D813*
X017553Y003226D03*
X017565Y002966D03*
X017804Y002888D03*
X017407Y002647D03*
D814*
X017407Y003100D03*
D815*
X017409Y003103D03*
D816*
X017600Y003063D03*
X017646Y003140D03*
X017631Y003284D03*
X017805Y003420D03*
X017409Y003307D03*
X017858Y003028D03*
X017866Y002973D03*
X017858Y002950D03*
X017524Y002752D03*
D817*
X017417Y003487D03*
X017409Y003487D03*
D818*
X017411Y003487D03*
X017415Y003487D03*
X017734Y003141D03*
D819*
X017413Y003105D03*
D820*
X017413Y003487D03*
X017419Y003487D03*
D821*
X017419Y002650D03*
D822*
X017421Y003487D03*
X017423Y003487D03*
D823*
X017423Y002652D03*
D824*
X017425Y002653D03*
X017569Y002968D03*
D825*
X017425Y003114D03*
D826*
X017425Y003488D03*
D827*
X017508Y002923D03*
X017640Y005517D03*
X017602Y005640D03*
X017557Y005659D03*
X017518Y005675D03*
X017557Y005745D03*
X017640Y005779D03*
X017685Y005799D03*
X017435Y005692D03*
D828*
X017429Y003487D03*
X017427Y003487D03*
D829*
X017431Y002653D03*
D830*
X017613Y003006D03*
X017431Y003119D03*
D831*
X017431Y003489D03*
D832*
X017433Y002655D03*
D833*
X017433Y003122D03*
D834*
X017436Y002655D03*
D835*
X017436Y003124D03*
D836*
X017440Y003128D03*
D837*
X017440Y003489D03*
D838*
X017687Y003496D03*
X017530Y003204D03*
X017526Y003201D03*
X017786Y002870D03*
X017792Y002874D03*
X017452Y002661D03*
X017442Y002657D03*
D839*
X017442Y003129D03*
X017652Y003498D03*
D840*
X017442Y003490D03*
X017726Y003131D03*
D841*
X017452Y004446D03*
D842*
X017444Y003489D03*
X017728Y003132D03*
D843*
X017454Y004444D03*
X017522Y005297D03*
D844*
X017567Y005288D03*
X017570Y005288D03*
X017576Y005288D03*
X017592Y005288D03*
X017598Y005288D03*
X017600Y005288D03*
X017603Y005288D03*
X017605Y005288D03*
X017644Y005515D03*
X017631Y005521D03*
X017611Y005527D03*
X017561Y005527D03*
X017559Y005527D03*
X017528Y005515D03*
X017615Y005634D03*
X017627Y005628D03*
X017642Y005622D03*
X017683Y005605D03*
X017710Y005593D03*
X017528Y005671D03*
X017514Y005677D03*
X017499Y005682D03*
X017454Y005700D03*
X017567Y005748D03*
X017621Y005772D03*
X017637Y005778D03*
X017650Y005783D03*
X017675Y005795D03*
X017689Y005801D03*
D845*
X017446Y002658D03*
D846*
X017609Y003000D03*
X017446Y003132D03*
D847*
X017446Y003489D03*
D848*
X017456Y004443D03*
D849*
X017448Y003489D03*
D850*
X017458Y004097D03*
D851*
X017450Y003490D03*
D852*
X017452Y003490D03*
D853*
X017462Y004107D03*
D854*
X017454Y003491D03*
X017724Y003128D03*
D855*
X017508Y005503D03*
X017464Y005701D03*
D856*
X017464Y002666D03*
X017456Y002662D03*
D857*
X017456Y003492D03*
D858*
X017466Y004113D03*
X017823Y004113D03*
D859*
X017458Y002663D03*
D860*
X017458Y003142D03*
D861*
X017458Y003491D03*
D862*
X017468Y004116D03*
D863*
X017536Y005293D03*
X017635Y005293D03*
X017673Y005493D03*
X017468Y005701D03*
D864*
X017460Y003492D03*
D865*
X017462Y003491D03*
D866*
X017471Y004120D03*
X017666Y004120D03*
D867*
X017464Y003147D03*
X017473Y005410D03*
D868*
X017464Y003490D03*
X017722Y003125D03*
D869*
X017473Y004122D03*
D870*
X017473Y004442D03*
X017508Y003184D03*
X017584Y002980D03*
D871*
X017473Y003492D03*
X017471Y003492D03*
X017468Y003492D03*
X017466Y003492D03*
D872*
X017475Y004124D03*
X017809Y004124D03*
X017499Y004474D03*
D873*
X017477Y004125D03*
X017671Y004125D03*
X017805Y004125D03*
D874*
X017477Y004442D03*
X017590Y002984D03*
X017728Y002813D03*
D875*
X017470Y002667D03*
X017524Y003198D03*
D876*
X017470Y003151D03*
X017646Y002753D03*
X017607Y002730D03*
D877*
X017563Y002706D03*
X017555Y002702D03*
X017714Y002801D03*
X017722Y002809D03*
X017592Y002986D03*
X017479Y004442D03*
D878*
X017479Y005355D03*
D879*
X017479Y005465D03*
D880*
X017479Y005700D03*
D881*
X017666Y003499D03*
X017471Y003153D03*
X017644Y002753D03*
X017617Y002735D03*
D882*
X017481Y004128D03*
D883*
X017516Y005299D03*
X017481Y005351D03*
X017654Y005299D03*
X017689Y005349D03*
X017689Y005470D03*
X017483Y005701D03*
X017481Y005701D03*
D884*
X017483Y004129D03*
X017798Y004129D03*
D885*
X017475Y003157D03*
X017697Y002788D03*
X017625Y002741D03*
X017598Y002724D03*
X017586Y002718D03*
D886*
X017848Y003181D03*
X017481Y003492D03*
X017475Y003492D03*
D887*
X017485Y004441D03*
D888*
X017524Y005296D03*
X017485Y005344D03*
D889*
X017485Y005476D03*
D890*
X017658Y005301D03*
X017485Y005701D03*
D891*
X017477Y002668D03*
D892*
X017615Y002734D03*
X017623Y002738D03*
X017631Y002742D03*
X017654Y002758D03*
X017683Y002777D03*
X017600Y002991D03*
X017477Y003158D03*
D893*
X017477Y003492D03*
D894*
X017487Y004132D03*
D895*
X017487Y004441D03*
D896*
X017479Y003161D03*
X017594Y002988D03*
X017596Y002988D03*
X017685Y002780D03*
X017621Y002737D03*
X017582Y002714D03*
X017567Y002708D03*
D897*
X017718Y003119D03*
X017483Y003492D03*
X017479Y003492D03*
D898*
X017489Y005338D03*
X017683Y005340D03*
X017681Y005483D03*
D899*
X017489Y005482D03*
D900*
X017681Y003497D03*
X017520Y003196D03*
X017514Y003190D03*
X017765Y002846D03*
X017487Y002671D03*
X017481Y002671D03*
D901*
X017481Y003161D03*
D902*
X017491Y005485D03*
X017679Y005485D03*
D903*
X017666Y005500D03*
X017504Y005500D03*
X017499Y005494D03*
X017493Y005333D03*
X017537Y005292D03*
X017631Y005292D03*
X017850Y004696D03*
D904*
X017767Y002849D03*
X017759Y002841D03*
X017493Y002674D03*
X017485Y002672D03*
D905*
X017485Y003165D03*
D906*
X017485Y003493D03*
D907*
X017495Y004136D03*
D908*
X017495Y004474D03*
D909*
X017495Y005330D03*
X017510Y005505D03*
D910*
X017491Y003169D03*
X017487Y003166D03*
X017887Y003131D03*
X017736Y002820D03*
X017732Y002816D03*
X017720Y002808D03*
X017559Y002703D03*
D911*
X017491Y003494D03*
X017487Y003494D03*
D912*
X017652Y004123D03*
X017497Y004474D03*
D913*
X017489Y003494D03*
X017712Y003113D03*
X017850Y003179D03*
D914*
X017501Y004138D03*
D915*
X017501Y004474D03*
D916*
X017675Y003498D03*
X017493Y003171D03*
X017737Y002822D03*
X017524Y002686D03*
D917*
X017503Y004139D03*
D918*
X017503Y004473D03*
D919*
X017503Y005322D03*
X017534Y005518D03*
X017648Y005512D03*
D920*
X017495Y002914D03*
D921*
X017495Y003493D03*
D922*
X017504Y005320D03*
X017660Y005314D03*
X017666Y005320D03*
X017650Y005512D03*
X017638Y005518D03*
X017522Y005512D03*
D923*
X017503Y002679D03*
X017497Y002677D03*
D924*
X017497Y002915D03*
X017870Y002989D03*
X017681Y003366D03*
X017747Y003490D03*
D925*
X017497Y003493D03*
D926*
X017506Y004140D03*
D927*
X017673Y004126D03*
X017506Y004472D03*
D928*
X017607Y005289D03*
X017613Y005289D03*
X017506Y005318D03*
X017530Y005516D03*
X017646Y005514D03*
X017652Y005510D03*
D929*
X017506Y005501D03*
X017545Y005291D03*
X017623Y005291D03*
D930*
X017499Y003494D03*
D931*
X017501Y002678D03*
D932*
X017501Y002915D03*
D933*
X017706Y003105D03*
X017852Y003175D03*
X017501Y003494D03*
D934*
X017510Y004141D03*
D935*
X017510Y004472D03*
D936*
X017510Y005724D03*
D937*
X017503Y003181D03*
D938*
X017503Y003495D03*
D939*
X017512Y004141D03*
D940*
X017802Y004127D03*
X017512Y004471D03*
D941*
X017512Y003495D03*
X017510Y003495D03*
X017506Y003495D03*
X017704Y003102D03*
D942*
X017753Y002836D03*
X017516Y002685D03*
X017508Y002681D03*
D943*
X017508Y003495D03*
D944*
X017518Y004534D03*
D945*
X017518Y005299D03*
D946*
X017512Y003188D03*
D947*
X017586Y002981D03*
X017514Y002684D03*
D948*
X017514Y002927D03*
X017648Y003327D03*
X017736Y003492D03*
D949*
X017514Y003495D03*
D950*
X017524Y004540D03*
D951*
X017683Y003497D03*
X017516Y003192D03*
D952*
X017520Y002929D03*
D953*
X017526Y002690D03*
X017530Y002690D03*
D954*
X017526Y002934D03*
D955*
X017530Y002936D03*
X017619Y003294D03*
D956*
X017860Y003169D03*
X017530Y003497D03*
D957*
X017541Y005291D03*
X017625Y005291D03*
D958*
X017627Y005291D03*
X017543Y005291D03*
D959*
X017693Y003498D03*
X017536Y003210D03*
X017570Y002969D03*
D960*
X017539Y003497D03*
D961*
X017549Y005290D03*
X017617Y005290D03*
X017670Y005323D03*
X017664Y005502D03*
X017656Y005508D03*
D962*
X017541Y002946D03*
D963*
X017547Y002699D03*
D964*
X017547Y003497D03*
D965*
X017557Y005289D03*
D966*
X017739Y002824D03*
X017549Y002700D03*
D967*
X017553Y002701D03*
X017565Y002706D03*
X017703Y002792D03*
X017726Y002811D03*
D968*
X017561Y003500D03*
X017627Y004139D03*
D969*
X017563Y003499D03*
D970*
X017565Y003237D03*
X017815Y002903D03*
D971*
X017565Y003499D03*
D972*
X017708Y002799D03*
X017580Y002713D03*
X017574Y002713D03*
X017570Y002709D03*
D973*
X017570Y003497D03*
D974*
X017574Y002972D03*
D975*
X017576Y002973D03*
X017782Y002865D03*
D976*
X017578Y003499D03*
D977*
X017580Y003253D03*
X017825Y002915D03*
D978*
X017592Y003499D03*
D979*
X017602Y005288D03*
X017685Y005605D03*
D980*
X017598Y002991D03*
X017693Y002785D03*
X017687Y002781D03*
X017681Y002777D03*
X017670Y002769D03*
X017664Y002766D03*
X017648Y002754D03*
X017637Y002746D03*
X017613Y002733D03*
X017609Y002731D03*
X017603Y002727D03*
D981*
X017598Y003498D03*
D982*
X017675Y002772D03*
X017660Y002763D03*
X017600Y002726D03*
D983*
X017600Y003499D03*
D984*
X017602Y003498D03*
X017605Y003498D03*
D985*
X017603Y002996D03*
D986*
X017603Y003276D03*
D987*
X017603Y003498D03*
D988*
X017607Y003000D03*
D989*
X017607Y003281D03*
D990*
X017609Y003283D03*
D991*
X017609Y003499D03*
X017613Y003499D03*
X017648Y003040D03*
D992*
X017615Y003288D03*
D993*
X017615Y003500D03*
D994*
X017619Y002735D03*
D995*
X017619Y003499D03*
D996*
X017629Y004139D03*
D997*
X017623Y003013D03*
D998*
X017638Y003030D03*
X017623Y003500D03*
D999*
X017633Y004137D03*
D1000*
X017625Y003299D03*
D1001*
X017625Y003499D03*
D1002*
X017635Y004136D03*
X017774Y004136D03*
D1003*
X017730Y003493D03*
X017631Y003308D03*
X017685Y005478D03*
D1004*
X017631Y003498D03*
D1005*
X017642Y004132D03*
X017788Y004132D03*
D1006*
X017637Y003312D03*
D1007*
X017637Y003500D03*
D1008*
X017646Y004129D03*
X017679Y004129D03*
D1009*
X017646Y005297D03*
D1010*
X017648Y004127D03*
D1011*
X017648Y005297D03*
D1012*
X017677Y002773D03*
X017640Y002750D03*
D1013*
X017642Y002750D03*
X017658Y002762D03*
D1014*
X017642Y003500D03*
D1015*
X017652Y005299D03*
D1016*
X017646Y003321D03*
D1017*
X017646Y003498D03*
D1018*
X017656Y004119D03*
X017664Y004119D03*
D1019*
X017656Y005301D03*
D1020*
X017658Y004115D03*
D1021*
X017652Y002757D03*
D1022*
X017652Y003043D03*
D1023*
X017652Y003329D03*
D1024*
X017662Y004117D03*
X017819Y004117D03*
D1025*
X017662Y005316D03*
D1026*
X017654Y003045D03*
D1027*
X017654Y003499D03*
D1028*
X017658Y003049D03*
D1029*
X017658Y003338D03*
D1030*
X017668Y004122D03*
D1031*
X017668Y005321D03*
D1032*
X017807Y004125D03*
X017660Y003051D03*
D1033*
X017660Y003339D03*
D1034*
X017660Y003499D03*
D1035*
X017670Y004124D03*
D1036*
X017662Y003054D03*
D1037*
X017664Y003344D03*
X017670Y003350D03*
X017741Y003492D03*
D1038*
X017668Y002767D03*
D1039*
X017706Y002795D03*
X017668Y003498D03*
D1040*
X017677Y004128D03*
X017800Y004128D03*
D1041*
X017677Y005488D03*
D1042*
X017670Y003498D03*
D1043*
X017679Y005335D03*
D1044*
X017671Y003353D03*
D1045*
X017681Y004130D03*
D1046*
X017673Y003356D03*
D1047*
X017683Y004206D03*
D1048*
X017675Y003357D03*
D1049*
X017677Y003362D03*
D1050*
X017691Y005354D03*
D1051*
X017683Y003368D03*
X017858Y003313D03*
D1052*
X017693Y005360D03*
D1053*
X017701Y005410D03*
D1054*
X017693Y003090D03*
D1055*
X017697Y003496D03*
D1056*
X017699Y003496D03*
D1057*
X017708Y003107D03*
D1058*
X017718Y005409D03*
D1059*
X017710Y003111D03*
D1060*
X017714Y003114D03*
D1061*
X017716Y003117D03*
D1062*
X017724Y003493D03*
D1063*
X017726Y003493D03*
D1064*
X017730Y003136D03*
D1065*
X017732Y003493D03*
D1066*
X017734Y003493D03*
D1067*
X017745Y002828D03*
D1068*
X017745Y003157D03*
D1069*
X017747Y002831D03*
D1070*
X017753Y003169D03*
D1071*
X017755Y003168D03*
D1072*
X017757Y003176D03*
D1073*
X017759Y003180D03*
D1074*
X017761Y003181D03*
D1075*
X017763Y003187D03*
X017811Y003206D03*
D1076*
X017765Y003186D03*
D1077*
X017767Y003191D03*
D1078*
X017776Y004135D03*
D1079*
X017776Y004696D03*
D1080*
X017802Y003210D03*
X017769Y003195D03*
D1081*
X017771Y003197D03*
D1082*
X017780Y004135D03*
D1083*
X017772Y003202D03*
D1084*
X017774Y002857D03*
D1085*
X017774Y003202D03*
D1086*
X017784Y004696D03*
D1087*
X017776Y002858D03*
D1088*
X017776Y003207D03*
D1089*
X017778Y003208D03*
D1090*
X017780Y002863D03*
D1091*
X017780Y003213D03*
D1092*
X017790Y004132D03*
D1093*
X017782Y003217D03*
D1094*
X017784Y003219D03*
D1095*
X017786Y003218D03*
D1096*
X017796Y004130D03*
D1097*
X017788Y003218D03*
D1098*
X017790Y003218D03*
D1099*
X017792Y003216D03*
D1100*
X017794Y003215D03*
D1101*
X017796Y003213D03*
D1102*
X017798Y002881D03*
D1103*
X017798Y003214D03*
D1104*
X017800Y003212D03*
D1105*
X017804Y003211D03*
D1106*
X017813Y004121D03*
D1107*
X017805Y003208D03*
D1108*
X017815Y004120D03*
D1109*
X017807Y003208D03*
D1110*
X017809Y003206D03*
D1111*
X017813Y003205D03*
D1112*
X017815Y003203D03*
D1113*
X017825Y004111D03*
D1114*
X017817Y003202D03*
D1115*
X017833Y004099D03*
D1116*
X017835Y004091D03*
D1117*
X017827Y003197D03*
D1118*
X017829Y003195D03*
D1119*
X017831Y002924D03*
D1120*
X017831Y003195D03*
D1121*
X017835Y002894D03*
D1122*
X017844Y003185D03*
D1123*
X017846Y003181D03*
D1124*
X017856Y003173D03*
D1125*
X017858Y002969D03*
D1126*
X017860Y002969D03*
D1127*
X017862Y003165D03*
D1128*
X017864Y002976D03*
D1129*
X017873Y003151D03*
D1130*
X017422Y009264D02*
X017278Y009264D01*
X017259Y009454D01*
X017195Y009475D01*
X017135Y009506D01*
X016986Y009385D01*
X016885Y009486D01*
X017006Y009635D01*
X016975Y009695D01*
X016954Y009759D01*
X016764Y009778D01*
X016764Y009922D01*
X016954Y009941D01*
X016975Y010005D01*
X017006Y010065D01*
X016885Y010214D01*
X016986Y010315D01*
X017135Y010194D01*
X017195Y010225D01*
X017259Y010246D01*
X017278Y010436D01*
X017422Y010436D01*
X017441Y010246D01*
X017505Y010225D01*
X017421Y010021D01*
X017378Y010032D01*
X017334Y010034D01*
X017291Y010025D01*
X017251Y010006D01*
X017217Y009978D01*
X017190Y009942D01*
X017173Y009902D01*
X017166Y009858D01*
X017169Y009814D01*
X017183Y009772D01*
X017206Y009735D01*
X017238Y009704D01*
X017276Y009681D01*
X017318Y009668D01*
X017362Y009666D01*
X017406Y009674D01*
X017446Y009692D01*
X017481Y009719D01*
X017507Y009754D01*
X017526Y009793D01*
X017534Y009836D01*
X017532Y009879D01*
X017521Y009921D01*
X017725Y010005D01*
X017746Y009941D01*
X017936Y009922D01*
X017936Y009778D01*
X017746Y009759D01*
X017725Y009695D01*
X017694Y009635D01*
X017815Y009486D01*
X017714Y009385D01*
X017565Y009506D01*
X017505Y009475D01*
X017441Y009454D01*
X017422Y009264D01*
X017427Y009316D02*
X017273Y009316D01*
X017267Y009374D02*
X017433Y009374D01*
X017439Y009432D02*
X017261Y009432D01*
X017167Y009489D02*
X017533Y009489D01*
X017585Y009489D02*
X017813Y009489D01*
X017766Y009547D02*
X016934Y009547D01*
X016981Y009604D02*
X017719Y009604D01*
X017708Y009662D02*
X016992Y009662D01*
X016967Y009719D02*
X017222Y009719D01*
X017181Y009777D02*
X016775Y009777D01*
X016764Y009834D02*
X017167Y009834D01*
X017171Y009892D02*
X016764Y009892D01*
X016957Y009950D02*
X017196Y009950D01*
X017254Y010007D02*
X016976Y010007D01*
X017005Y010065D02*
X017439Y010065D01*
X017463Y010122D02*
X016959Y010122D01*
X016912Y010180D02*
X017487Y010180D01*
X017467Y010237D02*
X017233Y010237D01*
X017264Y010295D02*
X017436Y010295D01*
X017430Y010352D02*
X017270Y010352D01*
X017275Y010410D02*
X017425Y010410D01*
X017082Y010237D02*
X016908Y010237D01*
X016966Y010295D02*
X017012Y010295D01*
X017529Y009892D02*
X017936Y009892D01*
X017936Y009834D02*
X017534Y009834D01*
X017518Y009777D02*
X017925Y009777D01*
X017733Y009719D02*
X017480Y009719D01*
X017590Y009950D02*
X017743Y009950D01*
X017760Y009432D02*
X017656Y009432D01*
X017114Y009489D02*
X016887Y009489D01*
X016940Y009432D02*
X017044Y009432D01*
M02*
