G75*
G70*
%OFA0B0*%
%FSLAX24Y24*%
%IPPOS*%
%LPD*%
%AMOC8*
5,1,8,0,0,1.08239X$1,22.5*
%
%ADD10C,0.0100*%
%ADD11C,0.0600*%
%ADD12C,0.0240*%
%ADD13C,0.0080*%
%ADD14C,0.0270*%
%ADD15C,0.0320*%
%ADD16C,0.0120*%
%ADD17C,0.0240*%
D10*
X001820Y001850D02*
X016150Y001840D01*
X016150Y004250D01*
X017550Y005650D01*
X017550Y009850D01*
X017530Y009870D02*
X016350Y011050D01*
X001820Y011060D01*
X001820Y001850D01*
X002757Y002149D02*
X002815Y002206D01*
X002880Y002364D01*
X002880Y002536D01*
X002815Y002694D01*
X002694Y002815D01*
X002536Y002880D01*
X002364Y002880D01*
X002206Y002815D01*
X002120Y002728D01*
X002120Y002965D01*
X002217Y002925D01*
X002323Y002925D01*
X002420Y002965D01*
X002495Y003040D01*
X002535Y003137D01*
X002535Y003243D01*
X002495Y003340D01*
X002420Y003415D01*
X002323Y003455D01*
X002217Y003455D01*
X002120Y003415D01*
X002120Y009172D01*
X002206Y009085D01*
X002364Y009020D01*
X002536Y009020D01*
X002694Y009085D01*
X002815Y009206D01*
X002880Y009364D01*
X002880Y009536D01*
X002815Y009694D01*
X002694Y009815D01*
X002536Y009880D01*
X002364Y009880D01*
X002206Y009815D01*
X002120Y009728D01*
X002120Y010172D01*
X002206Y010085D01*
X002364Y010020D01*
X002536Y010020D01*
X002694Y010085D01*
X002815Y010206D01*
X002880Y010364D01*
X002880Y010536D01*
X002815Y010694D01*
X002749Y010759D01*
X003151Y010759D01*
X003085Y010694D01*
X003020Y010536D01*
X003020Y010364D01*
X003085Y010206D01*
X003206Y010085D01*
X003364Y010020D01*
X003536Y010020D01*
X003694Y010085D01*
X003815Y010206D01*
X003880Y010364D01*
X003880Y010536D01*
X003815Y010694D01*
X003749Y010759D01*
X004150Y010758D01*
X004085Y010694D01*
X004020Y010536D01*
X004020Y010364D01*
X004085Y010206D01*
X004206Y010085D01*
X004364Y010020D01*
X004536Y010020D01*
X004694Y010085D01*
X004815Y010206D01*
X004880Y010364D01*
X004880Y010536D01*
X004815Y010694D01*
X004750Y010758D01*
X005150Y010758D01*
X005085Y010694D01*
X005020Y010536D01*
X005020Y010364D01*
X005085Y010206D01*
X005206Y010085D01*
X005250Y010067D01*
X005250Y009872D01*
X005242Y009892D01*
X005172Y009962D01*
X005080Y010000D01*
X004980Y010000D01*
X004888Y009962D01*
X004818Y009892D01*
X004780Y009800D01*
X004780Y009728D01*
X004694Y009815D01*
X004536Y009880D01*
X004364Y009880D01*
X004206Y009815D01*
X004085Y009694D01*
X004020Y009536D01*
X004020Y009374D01*
X003938Y009292D01*
X003900Y009200D01*
X003900Y005400D01*
X003938Y005308D01*
X004008Y005238D01*
X005700Y003546D01*
X005700Y002808D01*
X005694Y002815D01*
X005536Y002880D01*
X005364Y002880D01*
X005206Y002815D01*
X005085Y002694D01*
X005020Y002536D01*
X005020Y002364D01*
X005085Y002206D01*
X005144Y002148D01*
X004756Y002148D01*
X004815Y002206D01*
X004880Y002364D01*
X004880Y002536D01*
X004815Y002694D01*
X004694Y002815D01*
X004536Y002880D01*
X004364Y002880D01*
X004206Y002815D01*
X004085Y002694D01*
X004020Y002536D01*
X004020Y002364D01*
X004085Y002206D01*
X004144Y002148D01*
X003757Y002149D01*
X003815Y002206D01*
X003880Y002364D01*
X003880Y002536D01*
X003815Y002694D01*
X003694Y002815D01*
X003536Y002880D01*
X003364Y002880D01*
X003206Y002815D01*
X003085Y002694D01*
X003020Y002536D01*
X003020Y002364D01*
X003085Y002206D01*
X003143Y002149D01*
X002757Y002149D01*
X002816Y002211D02*
X003084Y002211D01*
X003043Y002310D02*
X002857Y002310D01*
X002880Y002408D02*
X003020Y002408D01*
X003020Y002507D02*
X002880Y002507D01*
X002851Y002605D02*
X003049Y002605D01*
X003095Y002704D02*
X002805Y002704D01*
X002706Y002802D02*
X003194Y002802D01*
X003706Y002802D02*
X004194Y002802D01*
X004095Y002704D02*
X003805Y002704D01*
X003851Y002605D02*
X004049Y002605D01*
X004020Y002507D02*
X003880Y002507D01*
X003880Y002408D02*
X004020Y002408D01*
X004043Y002310D02*
X003857Y002310D01*
X003816Y002211D02*
X004084Y002211D01*
X004816Y002211D02*
X005084Y002211D01*
X005043Y002310D02*
X004857Y002310D01*
X004880Y002408D02*
X005020Y002408D01*
X005020Y002507D02*
X004880Y002507D01*
X004851Y002605D02*
X005049Y002605D01*
X005095Y002704D02*
X004805Y002704D01*
X004706Y002802D02*
X005194Y002802D01*
X005700Y002901D02*
X002120Y002901D01*
X002120Y002802D02*
X002194Y002802D01*
X002454Y002999D02*
X005700Y002999D01*
X005700Y003098D02*
X002519Y003098D01*
X002535Y003196D02*
X005700Y003196D01*
X005700Y003295D02*
X002514Y003295D01*
X002442Y003393D02*
X005700Y003393D01*
X005700Y003492D02*
X002120Y003492D01*
X002120Y003590D02*
X005656Y003590D01*
X005558Y003689D02*
X002120Y003689D01*
X002120Y003787D02*
X005459Y003787D01*
X005361Y003886D02*
X002120Y003886D01*
X002120Y003984D02*
X005262Y003984D01*
X005164Y004083D02*
X002120Y004083D01*
X002120Y004181D02*
X005065Y004181D01*
X004967Y004280D02*
X002120Y004280D01*
X002120Y004378D02*
X004868Y004378D01*
X004770Y004477D02*
X002120Y004477D01*
X002120Y004575D02*
X003270Y004575D01*
X003280Y004565D02*
X003377Y004525D01*
X003483Y004525D01*
X003580Y004565D01*
X003655Y004640D01*
X003695Y004737D01*
X003695Y004843D01*
X003655Y004940D01*
X003580Y005015D01*
X003483Y005055D01*
X003377Y005055D01*
X003280Y005015D01*
X003205Y004940D01*
X003165Y004843D01*
X003165Y004737D01*
X003205Y004640D01*
X003280Y004565D01*
X003191Y004674D02*
X002120Y004674D01*
X002120Y004772D02*
X003165Y004772D01*
X003177Y004871D02*
X002120Y004871D01*
X002120Y004969D02*
X003234Y004969D01*
X003626Y004969D02*
X004277Y004969D01*
X004179Y005068D02*
X002120Y005068D01*
X002120Y005166D02*
X004080Y005166D01*
X003982Y005265D02*
X002120Y005265D01*
X002120Y005363D02*
X003915Y005363D01*
X003900Y005462D02*
X002120Y005462D01*
X002120Y005560D02*
X003900Y005560D01*
X003900Y005659D02*
X002120Y005659D01*
X002120Y005757D02*
X003900Y005757D01*
X003900Y005856D02*
X002120Y005856D01*
X002120Y005954D02*
X003900Y005954D01*
X003900Y006053D02*
X002120Y006053D01*
X002120Y006151D02*
X003900Y006151D01*
X003900Y006250D02*
X002120Y006250D01*
X002120Y006348D02*
X003900Y006348D01*
X003900Y006447D02*
X002120Y006447D01*
X002120Y006545D02*
X003900Y006545D01*
X003900Y006644D02*
X002120Y006644D01*
X002120Y006742D02*
X003900Y006742D01*
X003900Y006841D02*
X002120Y006841D01*
X002120Y006939D02*
X003900Y006939D01*
X003900Y007038D02*
X002120Y007038D01*
X002120Y007136D02*
X003900Y007136D01*
X003900Y007235D02*
X002120Y007235D01*
X002120Y007333D02*
X003900Y007333D01*
X003900Y007432D02*
X002120Y007432D01*
X002120Y007530D02*
X003900Y007530D01*
X003900Y007629D02*
X002120Y007629D01*
X002120Y007727D02*
X003900Y007727D01*
X003900Y007826D02*
X002120Y007826D01*
X002120Y007924D02*
X003900Y007924D01*
X003900Y008023D02*
X003454Y008023D01*
X003492Y008038D02*
X003562Y008108D01*
X003600Y008200D01*
X003600Y008300D01*
X003562Y008392D01*
X003492Y008462D01*
X003400Y008500D01*
X003300Y008500D01*
X003208Y008462D01*
X003138Y008392D01*
X003100Y008300D01*
X003100Y008200D01*
X003138Y008108D01*
X003208Y008038D01*
X003300Y008000D01*
X003400Y008000D01*
X003492Y008038D01*
X003567Y008121D02*
X003900Y008121D01*
X003900Y008220D02*
X003600Y008220D01*
X003592Y008318D02*
X003900Y008318D01*
X003900Y008417D02*
X003537Y008417D01*
X003163Y008417D02*
X002120Y008417D01*
X002120Y008515D02*
X003900Y008515D01*
X003900Y008614D02*
X002120Y008614D01*
X002120Y008712D02*
X003900Y008712D01*
X003900Y008811D02*
X002120Y008811D01*
X002120Y008909D02*
X003900Y008909D01*
X003900Y009008D02*
X002120Y009008D01*
X002120Y009106D02*
X002186Y009106D01*
X002714Y009106D02*
X003186Y009106D01*
X003206Y009085D02*
X003085Y009206D01*
X003020Y009364D01*
X003020Y009536D01*
X003085Y009694D01*
X003206Y009815D01*
X003364Y009880D01*
X003536Y009880D01*
X003694Y009815D01*
X003815Y009694D01*
X003880Y009536D01*
X003880Y009364D01*
X003815Y009206D01*
X003694Y009085D01*
X003536Y009020D01*
X003364Y009020D01*
X003206Y009085D01*
X003087Y009205D02*
X002813Y009205D01*
X002855Y009303D02*
X003045Y009303D01*
X003020Y009402D02*
X002880Y009402D01*
X002880Y009500D02*
X003020Y009500D01*
X003046Y009599D02*
X002854Y009599D01*
X002811Y009697D02*
X003089Y009697D01*
X003187Y009796D02*
X002713Y009796D01*
X002699Y010091D02*
X003201Y010091D01*
X003102Y010190D02*
X002798Y010190D01*
X002848Y010288D02*
X003052Y010288D01*
X003020Y010387D02*
X002880Y010387D01*
X002880Y010485D02*
X003020Y010485D01*
X003040Y010584D02*
X002860Y010584D01*
X002819Y010682D02*
X003081Y010682D01*
X003819Y010682D02*
X004081Y010682D01*
X004040Y010584D02*
X003860Y010584D01*
X003880Y010485D02*
X004020Y010485D01*
X004020Y010387D02*
X003880Y010387D01*
X003848Y010288D02*
X004052Y010288D01*
X004102Y010190D02*
X003798Y010190D01*
X003699Y010091D02*
X004201Y010091D01*
X004699Y010091D02*
X005201Y010091D01*
X005250Y009993D02*
X005098Y009993D01*
X004962Y009993D02*
X002120Y009993D01*
X002120Y010091D02*
X002201Y010091D01*
X002120Y009894D02*
X004820Y009894D01*
X004780Y009796D02*
X004713Y009796D01*
X004872Y009554D02*
X004888Y009538D01*
X004980Y009500D01*
X004880Y009500D01*
X004880Y009536D02*
X004872Y009554D01*
X004880Y009536D02*
X004880Y009364D01*
X004815Y009206D01*
X004694Y009085D01*
X004536Y009020D01*
X004400Y009020D01*
X004400Y005554D01*
X006162Y003792D01*
X006200Y003700D01*
X006200Y002808D01*
X006206Y002815D01*
X006364Y002880D01*
X006536Y002880D01*
X006694Y002815D01*
X006815Y002694D01*
X006880Y002536D01*
X006880Y002364D01*
X006815Y002206D01*
X006755Y002147D01*
X007146Y002146D01*
X007085Y002206D01*
X007020Y002364D01*
X007020Y002536D01*
X007085Y002694D01*
X007206Y002815D01*
X007364Y002880D01*
X007536Y002880D01*
X007694Y002815D01*
X007815Y002694D01*
X007880Y002536D01*
X007880Y002364D01*
X007815Y002206D01*
X007754Y002146D01*
X008146Y002146D01*
X008085Y002206D01*
X008020Y002364D01*
X008020Y002536D01*
X008085Y002694D01*
X008206Y002815D01*
X008364Y002880D01*
X008536Y002880D01*
X008694Y002815D01*
X008815Y002694D01*
X008880Y002536D01*
X008880Y002364D01*
X008815Y002206D01*
X008753Y002145D01*
X009147Y002145D01*
X009085Y002206D01*
X009020Y002364D01*
X009020Y002536D01*
X009085Y002694D01*
X009206Y002815D01*
X009364Y002880D01*
X009536Y002880D01*
X009694Y002815D01*
X009815Y002694D01*
X009880Y002536D01*
X009880Y002364D01*
X009815Y002206D01*
X009753Y002144D01*
X010148Y002144D01*
X010085Y002206D01*
X010020Y002364D01*
X010020Y002536D01*
X010085Y002694D01*
X010102Y002710D01*
X010060Y002710D01*
X009968Y002748D01*
X009898Y002818D01*
X009860Y002910D01*
X009860Y003010D01*
X009898Y003102D01*
X009968Y003172D01*
X010032Y003198D01*
X009958Y003272D01*
X009932Y003208D01*
X009862Y003138D01*
X009770Y003100D01*
X009670Y003100D01*
X009578Y003138D01*
X009508Y003208D01*
X009470Y003300D01*
X009470Y003400D01*
X009478Y003420D01*
X009160Y003420D01*
X009020Y003280D01*
X008920Y003180D01*
X008280Y003180D01*
X008180Y003280D01*
X008080Y003380D01*
X008080Y003505D01*
X008010Y003435D01*
X007913Y003395D01*
X007807Y003395D01*
X007710Y003435D01*
X007635Y003510D01*
X007595Y003607D01*
X007595Y003650D01*
X007115Y003650D01*
X006715Y004050D01*
X006610Y004155D01*
X006610Y007835D01*
X006460Y007985D01*
X006397Y007985D01*
X006300Y008025D01*
X006250Y008075D01*
X006200Y008025D01*
X006103Y007985D01*
X005997Y007985D01*
X005900Y008025D01*
X005850Y008075D01*
X005800Y008025D01*
X005703Y007985D01*
X005597Y007985D01*
X005500Y008025D01*
X005425Y008100D01*
X005385Y008197D01*
X005385Y008303D01*
X005425Y008400D01*
X005500Y008475D01*
X005597Y008515D01*
X005703Y008515D01*
X005800Y008475D01*
X005850Y008425D01*
X005900Y008475D01*
X005997Y008515D01*
X006103Y008515D01*
X006200Y008475D01*
X006250Y008425D01*
X006300Y008475D01*
X006378Y008507D01*
X005375Y009510D01*
X005270Y009615D01*
X005270Y009676D01*
X005242Y009608D01*
X005172Y009538D01*
X005080Y009500D01*
X005385Y009500D01*
X005287Y009599D02*
X005232Y009599D01*
X005080Y009500D02*
X004980Y009500D01*
X004880Y009402D02*
X005484Y009402D01*
X005582Y009303D02*
X004855Y009303D01*
X004813Y009205D02*
X005681Y009205D01*
X005779Y009106D02*
X004714Y009106D01*
X004400Y009008D02*
X005878Y009008D01*
X005976Y008909D02*
X004400Y008909D01*
X004400Y008811D02*
X006075Y008811D01*
X006173Y008712D02*
X004400Y008712D01*
X004400Y008614D02*
X006272Y008614D01*
X006370Y008515D02*
X004400Y008515D01*
X004400Y008417D02*
X005442Y008417D01*
X005391Y008318D02*
X004400Y008318D01*
X004400Y008220D02*
X005385Y008220D01*
X005417Y008121D02*
X004400Y008121D01*
X004400Y008023D02*
X005507Y008023D01*
X005793Y008023D02*
X005907Y008023D01*
X006193Y008023D02*
X006307Y008023D01*
X006521Y007924D02*
X004400Y007924D01*
X004400Y007826D02*
X004802Y007826D01*
X004818Y007842D02*
X004748Y007772D01*
X004710Y007680D01*
X004710Y007580D01*
X004748Y007488D01*
X004818Y007418D01*
X004910Y007380D01*
X005010Y007380D01*
X005102Y007418D01*
X005172Y007488D01*
X005210Y007580D01*
X005210Y007680D01*
X005172Y007772D01*
X005102Y007842D01*
X005010Y007880D01*
X004910Y007880D01*
X004818Y007842D01*
X004730Y007727D02*
X004400Y007727D01*
X004400Y007629D02*
X004710Y007629D01*
X004731Y007530D02*
X004400Y007530D01*
X004400Y007432D02*
X004805Y007432D01*
X005115Y007432D02*
X006610Y007432D01*
X006610Y007530D02*
X005189Y007530D01*
X005210Y007629D02*
X006610Y007629D01*
X006610Y007727D02*
X005190Y007727D01*
X005118Y007826D02*
X006610Y007826D01*
X006790Y007910D02*
X006450Y008250D01*
X006790Y007910D02*
X006790Y004230D01*
X007190Y003830D01*
X007690Y003830D01*
X007860Y003660D01*
X008066Y003492D02*
X008080Y003492D01*
X008080Y003393D02*
X007651Y003393D01*
X007655Y003383D02*
X007615Y003480D01*
X007540Y003555D01*
X007443Y003595D01*
X007337Y003595D01*
X007240Y003555D01*
X007165Y003480D01*
X007125Y003383D01*
X007125Y003277D01*
X007165Y003180D01*
X007240Y003105D01*
X007337Y003065D01*
X007443Y003065D01*
X007540Y003105D01*
X007615Y003180D01*
X007655Y003277D01*
X007655Y003383D01*
X007655Y003295D02*
X008165Y003295D01*
X008264Y003196D02*
X007621Y003196D01*
X007521Y003098D02*
X008764Y003098D01*
X008738Y003072D02*
X008700Y002980D01*
X008700Y002880D01*
X008738Y002788D01*
X008808Y002718D01*
X008900Y002680D01*
X009000Y002680D01*
X009092Y002718D01*
X009162Y002788D01*
X009200Y002880D01*
X009200Y002980D01*
X009162Y003072D01*
X009092Y003142D01*
X009000Y003180D01*
X008900Y003180D01*
X008808Y003142D01*
X008738Y003072D01*
X008708Y002999D02*
X006200Y002999D01*
X006200Y002901D02*
X008700Y002901D01*
X008706Y002802D02*
X008732Y002802D01*
X008805Y002704D02*
X008844Y002704D01*
X008851Y002605D02*
X009049Y002605D01*
X009056Y002704D02*
X009095Y002704D01*
X009168Y002802D02*
X009194Y002802D01*
X009200Y002901D02*
X009864Y002901D01*
X009860Y002999D02*
X009192Y002999D01*
X009136Y003098D02*
X009896Y003098D01*
X009920Y003196D02*
X010026Y003196D01*
X009914Y002802D02*
X009706Y002802D01*
X009805Y002704D02*
X010095Y002704D01*
X010049Y002605D02*
X009851Y002605D01*
X009880Y002507D02*
X010020Y002507D01*
X010020Y002408D02*
X009880Y002408D01*
X009857Y002310D02*
X010043Y002310D01*
X010084Y002211D02*
X009816Y002211D01*
X009084Y002211D02*
X008816Y002211D01*
X008857Y002310D02*
X009043Y002310D01*
X009020Y002408D02*
X008880Y002408D01*
X008880Y002507D02*
X009020Y002507D01*
X008194Y002802D02*
X007706Y002802D01*
X007805Y002704D02*
X008095Y002704D01*
X008049Y002605D02*
X007851Y002605D01*
X007880Y002507D02*
X008020Y002507D01*
X008020Y002408D02*
X007880Y002408D01*
X007857Y002310D02*
X008043Y002310D01*
X008084Y002211D02*
X007816Y002211D01*
X007084Y002211D02*
X006816Y002211D01*
X006857Y002310D02*
X007043Y002310D01*
X007020Y002408D02*
X006880Y002408D01*
X006880Y002507D02*
X007020Y002507D01*
X007049Y002605D02*
X006851Y002605D01*
X006805Y002704D02*
X007095Y002704D01*
X007194Y002802D02*
X006706Y002802D01*
X006200Y003098D02*
X007259Y003098D01*
X007159Y003196D02*
X006200Y003196D01*
X006200Y003295D02*
X007125Y003295D01*
X007129Y003393D02*
X006200Y003393D01*
X006200Y003492D02*
X007177Y003492D01*
X007325Y003590D02*
X006200Y003590D01*
X006200Y003689D02*
X007077Y003689D01*
X006978Y003787D02*
X006164Y003787D01*
X006068Y003886D02*
X006880Y003886D01*
X006781Y003984D02*
X005970Y003984D01*
X005871Y004083D02*
X006683Y004083D01*
X006610Y004181D02*
X005773Y004181D01*
X005674Y004280D02*
X006610Y004280D01*
X006610Y004378D02*
X005576Y004378D01*
X005477Y004477D02*
X006610Y004477D01*
X006610Y004575D02*
X005379Y004575D01*
X005280Y004674D02*
X006610Y004674D01*
X006610Y004772D02*
X005182Y004772D01*
X005083Y004871D02*
X006610Y004871D01*
X006610Y004969D02*
X004985Y004969D01*
X004886Y005068D02*
X006610Y005068D01*
X006610Y005166D02*
X004788Y005166D01*
X004689Y005265D02*
X006610Y005265D01*
X006610Y005363D02*
X004591Y005363D01*
X004492Y005462D02*
X006610Y005462D01*
X006610Y005560D02*
X004400Y005560D01*
X004400Y005659D02*
X004907Y005659D01*
X004875Y005690D02*
X004950Y005615D01*
X005047Y005575D01*
X005153Y005575D01*
X005250Y005615D01*
X005325Y005690D01*
X005365Y005787D01*
X005365Y005893D01*
X005325Y005990D01*
X005289Y006026D01*
X005322Y006058D01*
X005360Y006150D01*
X005360Y006250D01*
X005322Y006342D01*
X005252Y006412D01*
X005160Y006450D01*
X005100Y006450D01*
X005100Y006460D01*
X005170Y006460D01*
X005262Y006498D01*
X005332Y006568D01*
X005370Y006660D01*
X005370Y006760D01*
X005460Y006760D01*
X005552Y006798D01*
X005622Y006868D01*
X005660Y006960D01*
X005660Y007060D01*
X005622Y007152D01*
X005552Y007222D01*
X005460Y007260D01*
X005360Y007260D01*
X005268Y007222D01*
X005198Y007152D01*
X005160Y007060D01*
X005160Y006960D01*
X005070Y006960D01*
X004978Y006922D01*
X004908Y006852D01*
X004870Y006760D01*
X004870Y006660D01*
X004800Y006660D01*
X004708Y006622D01*
X004638Y006552D01*
X004600Y006460D01*
X004600Y006360D01*
X004638Y006268D01*
X004708Y006198D01*
X004800Y006160D01*
X004860Y006160D01*
X004860Y006150D01*
X004898Y006058D01*
X004921Y006036D01*
X004875Y005990D01*
X004835Y005893D01*
X004835Y005787D01*
X004875Y005690D01*
X004848Y005757D02*
X004400Y005757D01*
X004400Y005856D02*
X004835Y005856D01*
X004860Y005954D02*
X004400Y005954D01*
X004400Y006053D02*
X004904Y006053D01*
X004860Y006151D02*
X004400Y006151D01*
X004400Y006250D02*
X004657Y006250D01*
X004605Y006348D02*
X004400Y006348D01*
X004400Y006447D02*
X004600Y006447D01*
X004635Y006545D02*
X004400Y006545D01*
X004400Y006644D02*
X004760Y006644D01*
X004870Y006660D02*
X004870Y006660D01*
X004870Y006742D02*
X004400Y006742D01*
X004400Y006841D02*
X004903Y006841D01*
X005020Y006939D02*
X004400Y006939D01*
X004400Y007038D02*
X005160Y007038D01*
X005160Y006960D02*
X005160Y006960D01*
X005370Y006760D02*
X005370Y006760D01*
X005370Y006742D02*
X006610Y006742D01*
X006610Y006644D02*
X005363Y006644D01*
X005309Y006545D02*
X006610Y006545D01*
X006610Y006447D02*
X005168Y006447D01*
X005100Y006460D02*
X005100Y006460D01*
X005316Y006348D02*
X006610Y006348D01*
X006610Y006250D02*
X005360Y006250D01*
X005360Y006151D02*
X006610Y006151D01*
X006610Y006053D02*
X005316Y006053D01*
X005340Y005954D02*
X006610Y005954D01*
X006610Y005856D02*
X005365Y005856D01*
X005352Y005757D02*
X006610Y005757D01*
X006610Y005659D02*
X005293Y005659D01*
X004376Y004871D02*
X003683Y004871D01*
X003695Y004772D02*
X004474Y004772D01*
X004573Y004674D02*
X003669Y004674D01*
X003590Y004575D02*
X004671Y004575D01*
X006970Y004575D02*
X007200Y004575D01*
X007200Y004530D02*
X007238Y004438D01*
X007296Y004380D01*
X007238Y004322D01*
X007200Y004230D01*
X007200Y004130D01*
X007238Y004038D01*
X007266Y004010D01*
X007265Y004010D01*
X006970Y004305D01*
X006970Y007915D01*
X007090Y007795D01*
X007090Y006795D01*
X007195Y006690D01*
X007515Y006370D01*
X007915Y006370D01*
X008210Y006075D01*
X008210Y005755D01*
X008315Y005650D01*
X008555Y005410D01*
X009355Y005410D01*
X009953Y004812D01*
X009928Y004802D01*
X009858Y004732D01*
X009820Y004640D01*
X009820Y004561D01*
X009154Y005161D01*
X009105Y005210D01*
X009099Y005210D01*
X009095Y005214D01*
X009025Y005210D01*
X007825Y005210D01*
X007445Y004830D01*
X007400Y004830D01*
X007308Y004792D01*
X007238Y004722D01*
X007200Y004630D01*
X007200Y004530D01*
X007222Y004477D02*
X006970Y004477D01*
X006970Y004378D02*
X007294Y004378D01*
X007221Y004280D02*
X006995Y004280D01*
X007094Y004181D02*
X007200Y004181D01*
X007192Y004083D02*
X007220Y004083D01*
X007455Y003590D02*
X007602Y003590D01*
X007603Y003492D02*
X007654Y003492D01*
X008936Y003196D02*
X009520Y003196D01*
X009472Y003295D02*
X009035Y003295D01*
X009133Y003393D02*
X009470Y003393D01*
X010406Y004220D02*
X010693Y004450D01*
X012305Y004450D01*
X012410Y004555D01*
X012890Y005035D01*
X012890Y005665D01*
X012785Y005770D01*
X012538Y006017D01*
X012518Y006057D01*
X012487Y006067D01*
X012465Y006090D01*
X012432Y006090D01*
X012360Y006120D01*
X012260Y006120D01*
X012168Y006082D01*
X012098Y006012D01*
X012086Y005983D01*
X012020Y006010D01*
X011920Y006010D01*
X011828Y005972D01*
X011758Y005902D01*
X011720Y005810D01*
X011720Y005710D01*
X011755Y005626D01*
X011755Y005405D01*
X011640Y005290D01*
X010701Y005290D01*
X010730Y005360D01*
X010730Y005460D01*
X010692Y005552D01*
X010622Y005622D01*
X010530Y005660D01*
X010430Y005660D01*
X010419Y005655D01*
X009565Y006510D01*
X009821Y006510D01*
X009800Y006460D01*
X009800Y006360D01*
X009838Y006268D01*
X009908Y006198D01*
X010000Y006160D01*
X010100Y006160D01*
X010192Y006198D01*
X010262Y006268D01*
X010275Y006300D01*
X010460Y006115D01*
X010565Y006010D01*
X010766Y006010D01*
X010798Y005978D01*
X010890Y005940D01*
X010990Y005940D01*
X011082Y005978D01*
X011095Y005991D01*
X011108Y005958D01*
X011178Y005888D01*
X011270Y005850D01*
X011370Y005850D01*
X011462Y005888D01*
X011532Y005958D01*
X011570Y006050D01*
X011570Y006150D01*
X011532Y006242D01*
X011462Y006312D01*
X011370Y006350D01*
X011270Y006350D01*
X011178Y006312D01*
X011165Y006299D01*
X011152Y006332D01*
X011144Y006340D01*
X011212Y006408D01*
X011250Y006500D01*
X011250Y006600D01*
X011212Y006692D01*
X011180Y006724D01*
X011180Y006785D01*
X010970Y006995D01*
X010910Y007055D01*
X012785Y008930D01*
X014705Y008930D01*
X014945Y009170D01*
X015050Y009275D01*
X015050Y010155D01*
X014868Y010336D01*
X014880Y010364D01*
X014880Y010536D01*
X014815Y010694D01*
X014757Y010751D01*
X015143Y010751D01*
X015085Y010694D01*
X015020Y010536D01*
X015020Y010364D01*
X015085Y010206D01*
X015206Y010085D01*
X015364Y010020D01*
X015536Y010020D01*
X015694Y010085D01*
X015815Y010206D01*
X015880Y010364D01*
X015880Y010536D01*
X015815Y010694D01*
X015758Y010750D01*
X016050Y010750D01*
X016050Y004574D01*
X015896Y004420D01*
X015888Y004403D01*
X015865Y004460D01*
X015790Y004535D01*
X015693Y004575D01*
X015587Y004575D01*
X015490Y004535D01*
X015415Y004460D01*
X015375Y004363D01*
X015375Y004257D01*
X015415Y004160D01*
X015490Y004085D01*
X015587Y004045D01*
X015693Y004045D01*
X015790Y004085D01*
X015850Y004145D01*
X015850Y003657D01*
X015783Y003685D01*
X015707Y003685D01*
X015725Y003727D01*
X015725Y003833D01*
X015685Y003930D01*
X015610Y004005D01*
X015513Y004045D01*
X015407Y004045D01*
X015310Y004005D01*
X015235Y003930D01*
X015195Y003833D01*
X015195Y003727D01*
X015201Y003712D01*
X015120Y003794D01*
X015120Y004741D01*
X015135Y004777D01*
X015135Y004883D01*
X015095Y004980D01*
X015020Y005055D01*
X014923Y005095D01*
X014817Y005095D01*
X014720Y005055D01*
X014645Y004980D01*
X014605Y004883D01*
X014605Y004777D01*
X014620Y004741D01*
X014620Y003640D01*
X014658Y003548D01*
X014736Y003470D01*
X014660Y003470D01*
X014633Y003459D01*
X014595Y003550D01*
X014520Y003625D01*
X014510Y003629D01*
X014510Y003921D01*
X014520Y003931D01*
X014520Y004089D01*
X013789Y004820D01*
X013631Y004820D01*
X013621Y004810D01*
X012715Y004810D01*
X012610Y004705D01*
X012265Y004360D01*
X012210Y004360D01*
X012118Y004322D01*
X012115Y004319D01*
X012052Y004382D01*
X011960Y004420D01*
X011860Y004420D01*
X011768Y004382D01*
X011698Y004312D01*
X011660Y004220D01*
X010406Y004220D01*
X010480Y004280D02*
X011685Y004280D01*
X011764Y004378D02*
X010603Y004378D01*
X010630Y004630D02*
X010230Y004310D01*
X009830Y004310D01*
X009030Y005030D01*
X007900Y005030D01*
X007450Y004580D01*
X007218Y004674D02*
X006970Y004674D01*
X006970Y004772D02*
X007288Y004772D01*
X007486Y004871D02*
X006970Y004871D01*
X006970Y004969D02*
X007584Y004969D01*
X007683Y005068D02*
X006970Y005068D01*
X006970Y005166D02*
X007781Y005166D01*
X008307Y005659D02*
X006970Y005659D01*
X006970Y005757D02*
X008210Y005757D01*
X008210Y005856D02*
X006970Y005856D01*
X006970Y005954D02*
X008210Y005954D01*
X008210Y006053D02*
X006970Y006053D01*
X006970Y006151D02*
X008134Y006151D01*
X008036Y006250D02*
X006970Y006250D01*
X006970Y006348D02*
X007937Y006348D01*
X007990Y006550D02*
X007590Y006550D01*
X007270Y006870D01*
X007270Y007890D01*
X007250Y007890D01*
X005450Y009690D01*
X005450Y009810D01*
X005430Y009830D01*
X005430Y010430D01*
X005450Y010450D01*
X005052Y010288D02*
X004848Y010288D01*
X004880Y010387D02*
X005020Y010387D01*
X005020Y010485D02*
X004880Y010485D01*
X004860Y010584D02*
X005040Y010584D01*
X005081Y010682D02*
X004819Y010682D01*
X004798Y010190D02*
X005102Y010190D01*
X005240Y009894D02*
X005250Y009894D01*
X004187Y009796D02*
X003713Y009796D01*
X003811Y009697D02*
X004089Y009697D01*
X004046Y009599D02*
X003854Y009599D01*
X003880Y009500D02*
X004020Y009500D01*
X004020Y009402D02*
X003880Y009402D01*
X003855Y009303D02*
X003949Y009303D01*
X003902Y009205D02*
X003813Y009205D01*
X003900Y009106D02*
X003714Y009106D01*
X003108Y008318D02*
X002120Y008318D01*
X002120Y008220D02*
X003100Y008220D01*
X003133Y008121D02*
X002120Y008121D01*
X002120Y008023D02*
X003246Y008023D01*
X004400Y007333D02*
X006610Y007333D01*
X006610Y007235D02*
X005521Y007235D01*
X005628Y007136D02*
X006610Y007136D01*
X006610Y007038D02*
X005660Y007038D01*
X005651Y006939D02*
X006610Y006939D01*
X006610Y006841D02*
X005594Y006841D01*
X005192Y007136D02*
X004400Y007136D01*
X004400Y007235D02*
X005299Y007235D01*
X006970Y007235D02*
X007090Y007235D01*
X007090Y007333D02*
X006970Y007333D01*
X006970Y007432D02*
X007090Y007432D01*
X007090Y007530D02*
X006970Y007530D01*
X006970Y007629D02*
X007090Y007629D01*
X007090Y007727D02*
X006970Y007727D01*
X006970Y007826D02*
X007060Y007826D01*
X007450Y007795D02*
X007970Y007275D01*
X007970Y006730D01*
X007665Y006730D01*
X007450Y006945D01*
X007450Y007795D01*
X007450Y007727D02*
X007518Y007727D01*
X007450Y007629D02*
X007617Y007629D01*
X007715Y007530D02*
X007450Y007530D01*
X007450Y007432D02*
X007814Y007432D01*
X007912Y007333D02*
X007450Y007333D01*
X007450Y007235D02*
X007970Y007235D01*
X007970Y007136D02*
X007450Y007136D01*
X007450Y007038D02*
X007970Y007038D01*
X007970Y006939D02*
X007456Y006939D01*
X007554Y006841D02*
X007970Y006841D01*
X007970Y006742D02*
X007653Y006742D01*
X007340Y006545D02*
X006970Y006545D01*
X006970Y006447D02*
X007439Y006447D01*
X007242Y006644D02*
X006970Y006644D01*
X006970Y006742D02*
X007143Y006742D01*
X007090Y006841D02*
X006970Y006841D01*
X006970Y006939D02*
X007090Y006939D01*
X007090Y007038D02*
X006970Y007038D01*
X006970Y007136D02*
X007090Y007136D01*
X007990Y006550D02*
X008390Y006150D01*
X008390Y005830D01*
X008630Y005590D01*
X009430Y005590D01*
X010150Y004870D01*
X011840Y004870D01*
X012020Y005050D01*
X011690Y005110D02*
X010230Y005110D01*
X009030Y006310D01*
X008550Y006310D01*
X008150Y006710D01*
X008150Y007350D01*
X006710Y008790D01*
X006710Y009990D01*
X006450Y010250D01*
X006450Y010450D01*
X006950Y009670D02*
X007450Y010170D01*
X007450Y010450D01*
X006950Y009670D02*
X006950Y008950D01*
X008390Y007510D01*
X008390Y006870D01*
X008710Y006550D01*
X009270Y006550D01*
X010410Y005410D01*
X010729Y005462D02*
X011755Y005462D01*
X011755Y005560D02*
X010684Y005560D01*
X010533Y005659D02*
X011741Y005659D01*
X011720Y005757D02*
X010318Y005757D01*
X010416Y005659D02*
X010427Y005659D01*
X010219Y005856D02*
X011257Y005856D01*
X011383Y005856D02*
X011739Y005856D01*
X011810Y005954D02*
X011528Y005954D01*
X011570Y006053D02*
X012139Y006053D01*
X012310Y005870D02*
X012390Y005910D01*
X012710Y005590D01*
X012710Y005110D01*
X012230Y004630D01*
X010630Y004630D01*
X009898Y004772D02*
X009586Y004772D01*
X009695Y004674D02*
X009834Y004674D01*
X009820Y004575D02*
X009805Y004575D01*
X009895Y004871D02*
X009476Y004871D01*
X009367Y004969D02*
X009796Y004969D01*
X009698Y005068D02*
X009257Y005068D01*
X009149Y005166D02*
X009599Y005166D01*
X009501Y005265D02*
X006970Y005265D01*
X006970Y005363D02*
X009402Y005363D01*
X009315Y005770D02*
X008705Y005770D01*
X008570Y005905D01*
X008570Y006130D01*
X008955Y006130D01*
X009315Y005770D01*
X009230Y005856D02*
X008619Y005856D01*
X008570Y005954D02*
X009131Y005954D01*
X009033Y006053D02*
X008570Y006053D01*
X008405Y005560D02*
X006970Y005560D01*
X006970Y005462D02*
X008504Y005462D01*
X009628Y006447D02*
X009800Y006447D01*
X009805Y006348D02*
X009727Y006348D01*
X009825Y006250D02*
X009857Y006250D01*
X009924Y006151D02*
X010424Y006151D01*
X010326Y006250D02*
X010243Y006250D01*
X010022Y006053D02*
X010523Y006053D01*
X010640Y006190D02*
X010940Y006190D01*
X011024Y005954D02*
X011112Y005954D01*
X010856Y005954D02*
X010121Y005954D01*
X010640Y006190D02*
X010140Y006690D01*
X009610Y006690D01*
X007700Y008600D01*
X007700Y008820D01*
X009270Y007670D02*
X011450Y009850D01*
X011450Y010450D01*
X011755Y010753D02*
X012145Y010753D01*
X012085Y010694D01*
X012020Y010536D01*
X012020Y010364D01*
X012085Y010206D01*
X012206Y010085D01*
X012224Y010078D01*
X010475Y008330D01*
X010185Y008330D01*
X011525Y009670D01*
X011630Y009775D01*
X011630Y010059D01*
X011694Y010085D01*
X011815Y010206D01*
X011880Y010364D01*
X011880Y010536D01*
X011815Y010694D01*
X011755Y010753D01*
X011819Y010682D02*
X012081Y010682D01*
X012040Y010584D02*
X011860Y010584D01*
X011880Y010485D02*
X012020Y010485D01*
X012020Y010387D02*
X011880Y010387D01*
X011848Y010288D02*
X012052Y010288D01*
X012102Y010190D02*
X011798Y010190D01*
X011699Y010091D02*
X012201Y010091D01*
X012138Y009993D02*
X011630Y009993D01*
X011630Y009894D02*
X012039Y009894D01*
X011941Y009796D02*
X011630Y009796D01*
X011552Y009697D02*
X011842Y009697D01*
X011744Y009599D02*
X011453Y009599D01*
X011355Y009500D02*
X011645Y009500D01*
X011547Y009402D02*
X011256Y009402D01*
X011158Y009303D02*
X011448Y009303D01*
X011350Y009205D02*
X011059Y009205D01*
X010961Y009106D02*
X011251Y009106D01*
X011153Y009008D02*
X010862Y009008D01*
X010764Y008909D02*
X011054Y008909D01*
X010956Y008811D02*
X010665Y008811D01*
X010567Y008712D02*
X010857Y008712D01*
X010759Y008614D02*
X010468Y008614D01*
X010370Y008515D02*
X010660Y008515D01*
X010562Y008417D02*
X010271Y008417D01*
X010150Y008150D02*
X010550Y008150D01*
X012470Y010070D01*
X012660Y010072D02*
X012660Y009991D01*
X012549Y009880D01*
X012535Y009880D01*
X012425Y009770D01*
X012875Y009770D01*
X013199Y010093D01*
X013085Y010206D01*
X013020Y010364D01*
X013020Y010536D01*
X013085Y010694D01*
X013144Y010752D01*
X012756Y010752D01*
X012815Y010694D01*
X012880Y010536D01*
X012880Y010364D01*
X012815Y010206D01*
X012694Y010085D01*
X012660Y010072D01*
X012699Y010091D02*
X013196Y010091D01*
X013102Y010190D02*
X012798Y010190D01*
X012848Y010288D02*
X013052Y010288D01*
X013020Y010387D02*
X012880Y010387D01*
X012880Y010485D02*
X013020Y010485D01*
X013040Y010584D02*
X012860Y010584D01*
X012819Y010682D02*
X013081Y010682D01*
X013450Y010450D02*
X013450Y010090D01*
X012950Y009590D01*
X012390Y009590D01*
X010710Y007910D01*
X010360Y007910D01*
X010000Y007550D01*
X009630Y007480D02*
X009630Y007630D01*
X010150Y008150D01*
X009270Y007670D02*
X009270Y007350D01*
X009700Y006920D01*
X010790Y006920D01*
X011000Y006710D01*
X011000Y006550D01*
X011232Y006644D02*
X016050Y006644D01*
X016050Y006742D02*
X011180Y006742D01*
X011124Y006841D02*
X016050Y006841D01*
X016050Y006939D02*
X011026Y006939D01*
X010927Y007038D02*
X016050Y007038D01*
X016050Y007136D02*
X010991Y007136D01*
X011089Y007235D02*
X016050Y007235D01*
X016050Y007333D02*
X011188Y007333D01*
X011286Y007432D02*
X012115Y007432D01*
X012128Y007418D02*
X012220Y007380D01*
X012320Y007380D01*
X012412Y007418D01*
X012482Y007488D01*
X012520Y007580D01*
X012520Y007680D01*
X012482Y007772D01*
X012412Y007842D01*
X012320Y007880D01*
X012220Y007880D01*
X012128Y007842D01*
X012058Y007772D01*
X012020Y007680D01*
X012020Y007580D01*
X012058Y007488D01*
X012128Y007418D01*
X012041Y007530D02*
X011385Y007530D01*
X011483Y007629D02*
X012020Y007629D01*
X012040Y007727D02*
X011582Y007727D01*
X011680Y007826D02*
X012112Y007826D01*
X011779Y007924D02*
X013440Y007924D01*
X013455Y007960D02*
X013415Y007863D01*
X013415Y007757D01*
X013455Y007660D01*
X013530Y007585D01*
X013627Y007545D01*
X013733Y007545D01*
X013830Y007585D01*
X013905Y007660D01*
X013945Y007757D01*
X013945Y007863D01*
X013905Y007960D01*
X013830Y008035D01*
X013733Y008075D01*
X013627Y008075D01*
X013530Y008035D01*
X013455Y007960D01*
X013518Y008023D02*
X011877Y008023D01*
X011976Y008121D02*
X016050Y008121D01*
X016050Y008023D02*
X013842Y008023D01*
X013920Y007924D02*
X014783Y007924D01*
X014760Y007915D02*
X014857Y007955D01*
X014963Y007955D01*
X015060Y007915D01*
X015135Y007840D01*
X015175Y007743D01*
X015175Y007637D01*
X015135Y007540D01*
X015060Y007465D01*
X014963Y007425D01*
X014857Y007425D01*
X014760Y007465D01*
X014685Y007540D01*
X014645Y007637D01*
X014645Y007743D01*
X014685Y007840D01*
X014760Y007915D01*
X014679Y007826D02*
X013945Y007826D01*
X013932Y007727D02*
X014645Y007727D01*
X014649Y007629D02*
X013873Y007629D01*
X013487Y007629D02*
X012520Y007629D01*
X012500Y007727D02*
X013428Y007727D01*
X013415Y007826D02*
X012428Y007826D01*
X012499Y007530D02*
X014695Y007530D01*
X014842Y007432D02*
X012425Y007432D01*
X012074Y008220D02*
X016050Y008220D01*
X016050Y008318D02*
X012173Y008318D01*
X012271Y008417D02*
X016050Y008417D01*
X016050Y008515D02*
X012370Y008515D01*
X012468Y008614D02*
X016050Y008614D01*
X016050Y008712D02*
X012567Y008712D01*
X012665Y008811D02*
X016050Y008811D01*
X016050Y008909D02*
X012764Y008909D01*
X012710Y009110D02*
X014630Y009110D01*
X014870Y009350D01*
X014870Y010080D01*
X014500Y010450D01*
X014450Y010450D01*
X014860Y010584D02*
X015040Y010584D01*
X015020Y010485D02*
X014880Y010485D01*
X014880Y010387D02*
X015020Y010387D01*
X015052Y010288D02*
X014917Y010288D01*
X015015Y010190D02*
X015102Y010190D01*
X015050Y010091D02*
X015201Y010091D01*
X015050Y009993D02*
X016050Y009993D01*
X016050Y010091D02*
X015699Y010091D01*
X015798Y010190D02*
X016050Y010190D01*
X016050Y010288D02*
X015848Y010288D01*
X015880Y010387D02*
X016050Y010387D01*
X016050Y010485D02*
X015880Y010485D01*
X015860Y010584D02*
X016050Y010584D01*
X016050Y010682D02*
X015819Y010682D01*
X015081Y010682D02*
X014819Y010682D01*
X015050Y009894D02*
X016050Y009894D01*
X016050Y009796D02*
X015050Y009796D01*
X015050Y009697D02*
X016050Y009697D01*
X016050Y009599D02*
X015050Y009599D01*
X015050Y009500D02*
X016050Y009500D01*
X016050Y009402D02*
X015050Y009402D01*
X015050Y009303D02*
X016050Y009303D01*
X016050Y009205D02*
X014979Y009205D01*
X014881Y009106D02*
X016050Y009106D01*
X016050Y009008D02*
X014782Y009008D01*
X013990Y009910D02*
X013430Y009350D01*
X012550Y009350D01*
X010740Y007540D01*
X010460Y007540D01*
X010470Y007190D02*
X010790Y007190D01*
X012710Y009110D01*
X012901Y009796D02*
X012450Y009796D01*
X012563Y009894D02*
X012999Y009894D01*
X013098Y009993D02*
X012660Y009993D01*
X015038Y007924D02*
X016050Y007924D01*
X016050Y007826D02*
X015141Y007826D01*
X015175Y007727D02*
X016050Y007727D01*
X016050Y007629D02*
X015171Y007629D01*
X015125Y007530D02*
X016050Y007530D01*
X016050Y007432D02*
X014978Y007432D01*
X016050Y006545D02*
X011250Y006545D01*
X011228Y006447D02*
X016050Y006447D01*
X016050Y006348D02*
X011375Y006348D01*
X011265Y006348D02*
X011152Y006348D01*
X011524Y006250D02*
X016050Y006250D01*
X016050Y006151D02*
X011569Y006151D01*
X012520Y006053D02*
X016050Y006053D01*
X016050Y005954D02*
X012601Y005954D01*
X012699Y005856D02*
X016050Y005856D01*
X016050Y005757D02*
X012798Y005757D01*
X012890Y005659D02*
X016050Y005659D01*
X016050Y005560D02*
X012890Y005560D01*
X012890Y005462D02*
X016050Y005462D01*
X016050Y005363D02*
X012890Y005363D01*
X012890Y005265D02*
X013121Y005265D01*
X013138Y005282D02*
X013068Y005212D01*
X013030Y005120D01*
X013030Y005020D01*
X013068Y004928D01*
X013138Y004858D01*
X013230Y004820D01*
X013330Y004820D01*
X013422Y004858D01*
X013492Y004928D01*
X013530Y005020D01*
X013530Y005120D01*
X013492Y005212D01*
X013422Y005282D01*
X013330Y005320D01*
X013230Y005320D01*
X013138Y005282D01*
X013049Y005166D02*
X012890Y005166D01*
X012890Y005068D02*
X013030Y005068D01*
X013051Y004969D02*
X012824Y004969D01*
X012725Y004871D02*
X013126Y004871D01*
X013434Y004871D02*
X014605Y004871D01*
X014607Y004772D02*
X013837Y004772D01*
X013935Y004674D02*
X014620Y004674D01*
X014620Y004575D02*
X014034Y004575D01*
X014132Y004477D02*
X014620Y004477D01*
X014620Y004378D02*
X014231Y004378D01*
X014329Y004280D02*
X014620Y004280D01*
X014620Y004181D02*
X014428Y004181D01*
X014520Y004083D02*
X014620Y004083D01*
X014620Y003984D02*
X014520Y003984D01*
X014510Y003886D02*
X014620Y003886D01*
X014620Y003787D02*
X014510Y003787D01*
X014510Y003689D02*
X014620Y003689D01*
X014641Y003590D02*
X014555Y003590D01*
X014619Y003492D02*
X014715Y003492D01*
X014370Y003400D02*
X014330Y003440D01*
X014330Y004010D01*
X014150Y003921D02*
X014150Y003555D01*
X014145Y003550D01*
X014105Y003453D01*
X014105Y003347D01*
X014145Y003250D01*
X014220Y003175D01*
X014317Y003135D01*
X014423Y003135D01*
X014467Y003153D01*
X014498Y003078D01*
X014568Y003008D01*
X014660Y002970D01*
X014695Y002970D01*
X014675Y002923D01*
X014675Y002822D01*
X014536Y002880D01*
X014364Y002880D01*
X014206Y002815D01*
X014085Y002694D01*
X014020Y002536D01*
X014020Y002364D01*
X014085Y002206D01*
X014150Y002141D01*
X013750Y002142D01*
X013815Y002206D01*
X013880Y002364D01*
X013880Y002536D01*
X013815Y002694D01*
X013694Y002815D01*
X013536Y002880D01*
X013364Y002880D01*
X013206Y002815D01*
X013085Y002694D01*
X013020Y002536D01*
X013020Y002364D01*
X013085Y002206D01*
X013150Y002142D01*
X012779Y002142D01*
X012793Y002157D01*
X012835Y002214D01*
X012867Y002277D01*
X012889Y002345D01*
X012898Y002400D01*
X012500Y002400D01*
X012500Y002500D01*
X012400Y002500D01*
X012400Y002898D01*
X012345Y002889D01*
X012277Y002867D01*
X012214Y002835D01*
X012157Y002793D01*
X012107Y002743D01*
X012065Y002686D01*
X012033Y002623D01*
X012011Y002555D01*
X012002Y002500D01*
X012400Y002500D01*
X012400Y002400D01*
X012002Y002400D01*
X012011Y002345D01*
X012033Y002277D01*
X012065Y002214D01*
X012107Y002157D01*
X012121Y002143D01*
X011779Y002143D01*
X011793Y002157D01*
X011835Y002214D01*
X011867Y002277D01*
X011889Y002345D01*
X011898Y002400D01*
X011500Y002400D01*
X011500Y002500D01*
X011400Y002500D01*
X011400Y002836D01*
X011412Y002848D01*
X011450Y002940D01*
X011450Y003010D01*
X011520Y002940D01*
X011585Y002940D01*
X011595Y002930D01*
X012796Y002930D01*
X012828Y002898D01*
X012920Y002860D01*
X013020Y002860D01*
X013112Y002898D01*
X013182Y002968D01*
X013220Y003060D01*
X013220Y003160D01*
X013182Y003252D01*
X013112Y003322D01*
X013020Y003360D01*
X012920Y003360D01*
X012828Y003322D01*
X012796Y003290D01*
X012143Y003290D01*
X012180Y003380D01*
X012180Y003480D01*
X012142Y003572D01*
X012079Y003635D01*
X012112Y003668D01*
X012150Y003760D01*
X012150Y003860D01*
X012137Y003890D01*
X012210Y003860D01*
X012265Y003860D01*
X012265Y003787D01*
X012150Y003787D01*
X012139Y003886D02*
X012149Y003886D01*
X012265Y003787D02*
X012305Y003690D01*
X012380Y003615D01*
X012477Y003575D01*
X012583Y003575D01*
X012680Y003615D01*
X012746Y003681D01*
X012808Y003618D01*
X012900Y003580D01*
X013000Y003580D01*
X013092Y003618D01*
X013162Y003688D01*
X013200Y003780D01*
X013200Y003880D01*
X013162Y003972D01*
X013092Y004042D01*
X013043Y004062D01*
X013100Y004085D01*
X013175Y004160D01*
X013215Y004257D01*
X013215Y004363D01*
X013179Y004450D01*
X013621Y004450D01*
X014150Y003921D01*
X014150Y003886D02*
X013198Y003886D01*
X013200Y003787D02*
X014150Y003787D01*
X014150Y003689D02*
X013162Y003689D01*
X013024Y003590D02*
X014150Y003590D01*
X014121Y003492D02*
X012175Y003492D01*
X012180Y003393D02*
X014105Y003393D01*
X014127Y003295D02*
X013139Y003295D01*
X013205Y003196D02*
X014199Y003196D01*
X014490Y003098D02*
X013220Y003098D01*
X013195Y002999D02*
X014590Y002999D01*
X014675Y002901D02*
X013114Y002901D01*
X013194Y002802D02*
X012731Y002802D01*
X012743Y002793D02*
X012686Y002835D01*
X012623Y002867D01*
X012555Y002889D01*
X012500Y002898D01*
X012500Y002500D01*
X012898Y002500D01*
X012889Y002555D01*
X012867Y002623D01*
X012835Y002686D01*
X012793Y002743D01*
X012743Y002793D01*
X012822Y002704D02*
X013095Y002704D01*
X013049Y002605D02*
X012873Y002605D01*
X012897Y002507D02*
X013020Y002507D01*
X013020Y002408D02*
X012500Y002408D01*
X012500Y002507D02*
X012400Y002507D01*
X012400Y002605D02*
X012500Y002605D01*
X012500Y002704D02*
X012400Y002704D01*
X012400Y002802D02*
X012500Y002802D01*
X012169Y002802D02*
X011731Y002802D01*
X011743Y002793D02*
X011686Y002835D01*
X011623Y002867D01*
X011555Y002889D01*
X011500Y002898D01*
X011500Y002500D01*
X011898Y002500D01*
X011889Y002555D01*
X011867Y002623D01*
X011835Y002686D01*
X011793Y002743D01*
X011743Y002793D01*
X011822Y002704D02*
X012078Y002704D01*
X012027Y002605D02*
X011873Y002605D01*
X011897Y002507D02*
X012003Y002507D01*
X012022Y002310D02*
X011878Y002310D01*
X011833Y002211D02*
X012067Y002211D01*
X012400Y002408D02*
X011500Y002408D01*
X011500Y002507D02*
X011400Y002507D01*
X011400Y002605D02*
X011500Y002605D01*
X011500Y002704D02*
X011400Y002704D01*
X011400Y002802D02*
X011500Y002802D01*
X011434Y002901D02*
X012826Y002901D01*
X012970Y003110D02*
X011670Y003110D01*
X011461Y002999D02*
X011450Y002999D01*
X012144Y003295D02*
X012801Y003295D01*
X012876Y003590D02*
X012619Y003590D01*
X012441Y003590D02*
X012124Y003590D01*
X012120Y003689D02*
X012307Y003689D01*
X012270Y004110D02*
X012790Y004630D01*
X013710Y004630D01*
X013693Y004378D02*
X013209Y004378D01*
X013215Y004280D02*
X013792Y004280D01*
X013890Y004181D02*
X013183Y004181D01*
X013093Y004083D02*
X013989Y004083D01*
X014087Y003984D02*
X013150Y003984D01*
X012270Y004110D02*
X012260Y004110D01*
X012283Y004378D02*
X012056Y004378D01*
X012331Y004477D02*
X012382Y004477D01*
X012430Y004575D02*
X012480Y004575D01*
X012528Y004674D02*
X012579Y004674D01*
X012627Y004772D02*
X012677Y004772D01*
X013509Y004969D02*
X014641Y004969D01*
X014751Y005068D02*
X013530Y005068D01*
X013511Y005166D02*
X016050Y005166D01*
X016050Y005068D02*
X014989Y005068D01*
X015099Y004969D02*
X016050Y004969D01*
X016050Y004871D02*
X015135Y004871D01*
X015133Y004772D02*
X016050Y004772D01*
X016050Y004674D02*
X015120Y004674D01*
X015120Y004575D02*
X016050Y004575D01*
X015952Y004477D02*
X015848Y004477D01*
X015432Y004477D02*
X015120Y004477D01*
X015120Y004378D02*
X015381Y004378D01*
X015375Y004280D02*
X015120Y004280D01*
X015120Y004181D02*
X015407Y004181D01*
X015497Y004083D02*
X015120Y004083D01*
X015120Y003984D02*
X015289Y003984D01*
X015217Y003886D02*
X015120Y003886D01*
X015127Y003787D02*
X015195Y003787D01*
X015631Y003984D02*
X015850Y003984D01*
X015850Y003886D02*
X015703Y003886D01*
X015725Y003787D02*
X015850Y003787D01*
X015850Y003689D02*
X015709Y003689D01*
X015783Y004083D02*
X015850Y004083D01*
X016050Y005265D02*
X013439Y005265D01*
X011713Y005363D02*
X010730Y005363D01*
X009315Y006730D02*
X008785Y006730D01*
X008570Y006945D01*
X008570Y007475D01*
X009315Y006730D01*
X009303Y006742D02*
X008773Y006742D01*
X008674Y006841D02*
X009205Y006841D01*
X009106Y006939D02*
X008576Y006939D01*
X008570Y007038D02*
X009008Y007038D01*
X008909Y007136D02*
X008570Y007136D01*
X008570Y007235D02*
X008811Y007235D01*
X008712Y007333D02*
X008570Y007333D01*
X008570Y007432D02*
X008614Y007432D01*
X002187Y009796D02*
X002120Y009796D01*
X012878Y002310D02*
X013043Y002310D01*
X013084Y002211D02*
X012833Y002211D01*
X013706Y002802D02*
X014194Y002802D01*
X014095Y002704D02*
X013805Y002704D01*
X013851Y002605D02*
X014049Y002605D01*
X014020Y002507D02*
X013880Y002507D01*
X013880Y002408D02*
X014020Y002408D01*
X014043Y002310D02*
X013857Y002310D01*
X013816Y002211D02*
X014084Y002211D01*
D11*
X014450Y002450D03*
X013450Y002450D03*
X012450Y002450D03*
X011450Y002450D03*
X010450Y002450D03*
X009450Y002450D03*
X008450Y002450D03*
X007450Y002450D03*
X006450Y002450D03*
X005450Y002450D03*
X004450Y002450D03*
X003450Y002450D03*
X002450Y002450D03*
X002450Y009450D03*
X003450Y009450D03*
X004450Y009450D03*
X004450Y010450D03*
X003450Y010450D03*
X002450Y010450D03*
X005450Y010450D03*
X006450Y010450D03*
X007450Y010450D03*
X008450Y010450D03*
X009450Y010450D03*
X010450Y010450D03*
X011450Y010450D03*
X012450Y010450D03*
X013450Y010450D03*
X014450Y010450D03*
X015450Y010450D03*
X015450Y002450D03*
D12*
X014710Y003220D03*
X012970Y003110D03*
X012950Y003830D03*
X012260Y004110D03*
X011910Y004170D03*
X011900Y003810D03*
X011930Y003430D03*
X011200Y002990D03*
X010110Y002960D03*
X009720Y003350D03*
X008950Y002930D03*
X007450Y004180D03*
X007790Y004290D03*
X007450Y004580D03*
X005950Y002850D03*
X010070Y004590D03*
X010480Y005410D03*
X010940Y006190D03*
X011320Y006100D03*
X011000Y006550D03*
X010550Y006630D03*
X010050Y006410D03*
X010470Y007190D03*
X010460Y007540D03*
X010000Y007550D03*
X009630Y007480D03*
X008780Y008540D03*
X008410Y009660D03*
X010070Y009670D03*
X010950Y009910D03*
X011750Y009830D03*
X012790Y009910D03*
X013990Y009910D03*
X015350Y009590D03*
X015750Y009590D03*
X012270Y007630D03*
X010870Y008870D03*
X012310Y005870D03*
X011970Y005760D03*
X012350Y005190D03*
X012020Y005050D03*
X013280Y005070D03*
X005410Y007010D03*
X005120Y006710D03*
X004850Y006410D03*
X005110Y006200D03*
X004960Y007630D03*
X003350Y008250D03*
X005030Y009750D03*
D13*
X010410Y005410D02*
X010480Y005410D01*
X011690Y005110D02*
X011700Y005110D01*
X011925Y005335D01*
X011925Y005715D01*
X011970Y005760D01*
X011660Y004050D02*
X009550Y004050D01*
X009370Y004230D01*
X008640Y004230D01*
X008750Y003950D02*
X008350Y003950D01*
X008050Y004250D01*
X007830Y004250D01*
X007790Y004290D01*
X007640Y003990D02*
X007450Y004180D01*
X007640Y003990D02*
X007990Y003990D01*
X008250Y003730D01*
X008250Y003450D01*
X008350Y003350D01*
X008850Y003350D01*
X009090Y003590D01*
X009880Y003590D01*
X010480Y002990D01*
X011200Y002990D01*
X011350Y003350D02*
X010380Y003350D01*
X009950Y003780D01*
X008920Y003780D01*
X008750Y003950D01*
X011350Y003350D02*
X011590Y003110D01*
X011670Y003110D01*
X011900Y003810D02*
X011660Y004050D01*
D14*
X012530Y003840D03*
X012950Y004310D03*
X014370Y003400D03*
X014940Y002870D03*
X015730Y003420D03*
X015460Y003780D03*
X015640Y004310D03*
X014870Y004830D03*
X015750Y004950D03*
X014250Y006050D03*
X013450Y006050D03*
X013450Y006850D03*
X014250Y006850D03*
X014910Y007690D03*
X013680Y007810D03*
X014250Y009390D03*
X007950Y009950D03*
X007290Y009470D03*
X007540Y009180D03*
X007700Y008820D03*
X006450Y008250D03*
X006050Y008250D03*
X005650Y008250D03*
X004890Y007990D03*
X006450Y006450D03*
X005100Y005840D03*
X005550Y004850D03*
X004510Y004440D03*
X003430Y004790D03*
X002270Y003190D03*
X005040Y002900D03*
X007390Y003330D03*
X007860Y003660D03*
X008570Y003650D03*
X008640Y004230D03*
X008250Y004650D03*
X010420Y003700D03*
D15*
X008750Y005950D03*
X007750Y005950D03*
X007750Y006950D03*
X008750Y006950D03*
D16*
X012470Y010070D02*
X012470Y010430D01*
X012450Y010450D01*
X013710Y004630D02*
X014330Y004010D01*
D17*
X014870Y003690D02*
X015450Y003110D01*
X015450Y002450D01*
X014870Y003690D02*
X014870Y004830D01*
X005950Y003650D02*
X005950Y002850D01*
X005950Y003650D02*
X004150Y005450D01*
X004150Y009150D01*
X004450Y009450D01*
M02*
