G75*
%MOIN*%
%OFA0B0*%
%FSLAX24Y24*%
%IPPOS*%
%LPD*%
%AMOC8*
5,1,8,0,0,1.08239X$1,22.5*
%
%ADD10C,0.0100*%
%ADD11C,0.0125*%
%ADD12C,0.0394*%
%ADD13R,0.0394X0.0472*%
%ADD14R,0.0217X0.0472*%
%ADD15R,0.0310X0.0350*%
%ADD16R,0.0551X0.0630*%
%ADD17C,0.0087*%
%ADD18C,0.0190*%
%ADD19R,0.0880X0.0480*%
%ADD20R,0.0866X0.1417*%
%ADD21R,0.0327X0.0248*%
%ADD22C,0.0700*%
%ADD23C,0.0660*%
%ADD24C,0.0175*%
%ADD25OC8,0.0240*%
%ADD26C,0.0080*%
%ADD27OC8,0.0270*%
%ADD28C,0.0160*%
%ADD29C,0.0570*%
%ADD30C,0.0720*%
%ADD31C,0.0240*%
%ADD32C,0.0320*%
%ADD33C,0.0120*%
D10*
X001820Y001850D02*
X017340Y001840D01*
X018270Y002770D01*
X018270Y010130D01*
X017350Y011050D01*
X001820Y011050D01*
X001820Y001850D01*
X002728Y002049D02*
X002857Y002178D01*
X002930Y002355D01*
X002930Y002545D01*
X002857Y002722D01*
X002722Y002857D01*
X002545Y002930D01*
X002355Y002930D01*
X002178Y002857D01*
X002043Y002722D01*
X002020Y002666D01*
X002020Y009286D01*
X002060Y009189D01*
X002189Y009060D01*
X002358Y008990D01*
X002541Y008990D01*
X002711Y009060D01*
X002780Y009129D01*
X002780Y008880D01*
X002880Y008780D01*
X003080Y008580D01*
X006701Y008580D01*
X006851Y008430D01*
X006645Y008430D01*
X006560Y008515D01*
X006340Y008515D01*
X006250Y008425D01*
X006160Y008515D01*
X005940Y008515D01*
X005850Y008425D01*
X005760Y008515D01*
X005540Y008515D01*
X005385Y008360D01*
X005385Y008270D01*
X005230Y008425D01*
X005125Y008530D01*
X004195Y008530D01*
X003915Y008250D01*
X003810Y008145D01*
X003810Y005039D01*
X003751Y004980D01*
X003615Y004980D01*
X003540Y005055D01*
X003320Y005055D01*
X003165Y004900D01*
X003165Y004680D01*
X003315Y004530D01*
X003090Y004305D01*
X003090Y004233D01*
X003068Y004255D01*
X002874Y004255D01*
X002818Y004311D01*
X002660Y004311D01*
X002604Y004255D01*
X002409Y004255D01*
X002333Y004179D01*
X002333Y003655D01*
X002260Y003655D01*
X002105Y003500D01*
X002105Y003280D01*
X002260Y003125D01*
X002480Y003125D01*
X002635Y003280D01*
X002635Y003323D01*
X002692Y003365D01*
X003068Y003365D01*
X003090Y003387D01*
X003090Y003195D01*
X003195Y003090D01*
X003270Y003015D01*
X003270Y002895D01*
X003178Y002857D01*
X003043Y002722D01*
X002970Y002545D01*
X002970Y002355D01*
X003043Y002178D01*
X003172Y002049D01*
X002728Y002049D01*
X002797Y002119D02*
X003103Y002119D01*
X003027Y002217D02*
X002873Y002217D01*
X002914Y002316D02*
X002986Y002316D01*
X002970Y002414D02*
X002930Y002414D01*
X002930Y002513D02*
X002970Y002513D01*
X002997Y002611D02*
X002903Y002611D01*
X002862Y002710D02*
X003038Y002710D01*
X003129Y002808D02*
X002771Y002808D01*
X002602Y002907D02*
X003270Y002907D01*
X003270Y003005D02*
X002020Y003005D01*
X002020Y002907D02*
X002298Y002907D01*
X002129Y002808D02*
X002020Y002808D01*
X002020Y002710D02*
X002038Y002710D01*
X002020Y003104D02*
X003182Y003104D01*
X003090Y003202D02*
X002557Y003202D01*
X002635Y003301D02*
X003090Y003301D01*
X003270Y003270D02*
X003270Y004230D01*
X003510Y004470D01*
X004070Y004470D01*
X004250Y004650D01*
X004250Y006920D01*
X004960Y007630D01*
X005210Y007635D02*
X005300Y007635D01*
X005300Y007667D02*
X005300Y007590D01*
X005210Y007590D01*
X005210Y007734D01*
X005064Y007880D01*
X004856Y007880D01*
X004710Y007734D01*
X004710Y007635D01*
X004170Y007095D01*
X004170Y007995D01*
X004345Y008170D01*
X004975Y008170D01*
X005317Y007829D01*
X005314Y007825D01*
X005300Y007770D01*
X005300Y007693D01*
X005562Y007693D01*
X005562Y007667D01*
X005300Y007667D01*
X005320Y007680D02*
X005050Y007950D01*
X004930Y007950D01*
X004890Y007990D01*
X004808Y007832D02*
X004170Y007832D01*
X004170Y007930D02*
X005215Y007930D01*
X005117Y008029D02*
X004203Y008029D01*
X004302Y008127D02*
X005018Y008127D01*
X005050Y008350D02*
X004270Y008350D01*
X003990Y008070D01*
X003990Y004950D01*
X003810Y005074D02*
X002020Y005074D01*
X002020Y005172D02*
X003810Y005172D01*
X003810Y005271D02*
X002020Y005271D01*
X002020Y005369D02*
X003810Y005369D01*
X003810Y005468D02*
X002020Y005468D01*
X002020Y005566D02*
X003810Y005566D01*
X003810Y005665D02*
X002020Y005665D01*
X002020Y005763D02*
X003810Y005763D01*
X003810Y005862D02*
X002020Y005862D01*
X002020Y005960D02*
X003810Y005960D01*
X003810Y006059D02*
X002020Y006059D01*
X002020Y006157D02*
X003203Y006157D01*
X003165Y006173D02*
X003285Y006123D01*
X003415Y006123D01*
X003535Y006173D01*
X003627Y006265D01*
X003677Y006385D01*
X003677Y006515D01*
X003627Y006635D01*
X003535Y006727D01*
X003415Y006777D01*
X003285Y006777D01*
X003165Y006727D01*
X003073Y006635D01*
X003023Y006515D01*
X003023Y006385D01*
X003073Y006265D01*
X003165Y006173D01*
X003082Y006256D02*
X002020Y006256D01*
X002020Y006354D02*
X003036Y006354D01*
X003023Y006453D02*
X002020Y006453D01*
X002020Y006551D02*
X003038Y006551D01*
X003087Y006650D02*
X002020Y006650D01*
X002020Y006748D02*
X003215Y006748D01*
X003485Y006748D02*
X003810Y006748D01*
X003810Y006650D02*
X003613Y006650D01*
X003662Y006551D02*
X003810Y006551D01*
X003810Y006453D02*
X003677Y006453D01*
X003664Y006354D02*
X003810Y006354D01*
X003810Y006256D02*
X003618Y006256D01*
X003497Y006157D02*
X003810Y006157D01*
X004430Y006157D02*
X004860Y006157D01*
X004860Y006160D02*
X004860Y006096D01*
X004921Y006036D01*
X004835Y005950D01*
X004835Y005730D01*
X004860Y005705D01*
X004633Y005705D01*
X004520Y005592D01*
X004520Y005308D01*
X004633Y005195D01*
X004660Y005195D01*
X004660Y003715D01*
X004375Y003430D01*
X004270Y003325D01*
X004270Y002895D01*
X004178Y002857D01*
X004043Y002722D01*
X003970Y002545D01*
X003970Y002355D01*
X004043Y002178D01*
X004173Y002048D01*
X003728Y002049D01*
X003857Y002178D01*
X003930Y002355D01*
X003930Y002545D01*
X003857Y002722D01*
X003722Y002857D01*
X003630Y002895D01*
X003630Y003165D01*
X003525Y003270D01*
X003525Y003270D01*
X003450Y003345D01*
X003450Y003399D01*
X003473Y003375D01*
X003508Y003355D01*
X003546Y003345D01*
X003791Y003345D01*
X003791Y003760D01*
X003891Y003760D01*
X003891Y003345D01*
X004137Y003345D01*
X004175Y003355D01*
X004209Y003375D01*
X004237Y003403D01*
X004257Y003437D01*
X004267Y003475D01*
X004267Y003760D01*
X003891Y003760D01*
X003891Y003860D01*
X003791Y003860D01*
X003791Y004275D01*
X003570Y004275D01*
X003585Y004290D01*
X004145Y004290D01*
X004430Y004575D01*
X004430Y006845D01*
X004690Y007105D01*
X004690Y006604D01*
X004600Y006514D01*
X004600Y006306D01*
X004746Y006160D01*
X004860Y006160D01*
X004898Y006059D02*
X004430Y006059D01*
X004430Y005960D02*
X004845Y005960D01*
X004835Y005862D02*
X004430Y005862D01*
X004430Y005763D02*
X004835Y005763D01*
X004592Y005665D02*
X004430Y005665D01*
X004430Y005566D02*
X004520Y005566D01*
X004520Y005468D02*
X004430Y005468D01*
X004430Y005369D02*
X004520Y005369D01*
X004557Y005271D02*
X004430Y005271D01*
X004430Y005172D02*
X004660Y005172D01*
X004660Y005074D02*
X004430Y005074D01*
X004430Y004975D02*
X004660Y004975D01*
X004660Y004877D02*
X004430Y004877D01*
X004430Y004778D02*
X004660Y004778D01*
X004660Y004680D02*
X004430Y004680D01*
X004430Y004581D02*
X004660Y004581D01*
X004660Y004483D02*
X004337Y004483D01*
X004239Y004384D02*
X004660Y004384D01*
X004660Y004286D02*
X003580Y004286D01*
X003791Y004187D02*
X003891Y004187D01*
X003891Y004275D02*
X003891Y003860D01*
X004267Y003860D01*
X004267Y004145D01*
X004257Y004183D01*
X004237Y004217D01*
X004209Y004245D01*
X004175Y004265D01*
X004137Y004275D01*
X003891Y004275D01*
X003891Y004089D02*
X003791Y004089D01*
X003791Y003990D02*
X003891Y003990D01*
X003891Y003892D02*
X003791Y003892D01*
X003891Y003793D02*
X004660Y003793D01*
X004660Y003892D02*
X004267Y003892D01*
X004267Y003990D02*
X004660Y003990D01*
X004660Y004089D02*
X004267Y004089D01*
X004254Y004187D02*
X004660Y004187D01*
X005000Y004187D02*
X005132Y004187D01*
X005034Y004089D02*
X005000Y004089D01*
X005000Y004055D02*
X005000Y005184D01*
X005035Y005175D01*
X005112Y005175D01*
X005112Y005437D01*
X005138Y005437D01*
X005138Y005463D01*
X005562Y005463D01*
X005562Y005437D01*
X005588Y005437D01*
X005588Y005175D01*
X005665Y005175D01*
X005720Y005189D01*
X005763Y005215D01*
X005783Y005195D01*
X005910Y005195D01*
X005775Y005060D01*
X005670Y004955D01*
X005670Y004725D01*
X005000Y004055D01*
X005000Y004286D02*
X005231Y004286D01*
X005329Y004384D02*
X005000Y004384D01*
X005000Y004483D02*
X005428Y004483D01*
X005526Y004581D02*
X005000Y004581D01*
X005000Y004680D02*
X005625Y004680D01*
X005670Y004778D02*
X005000Y004778D01*
X005000Y004877D02*
X005670Y004877D01*
X005690Y004975D02*
X005000Y004975D01*
X005000Y005074D02*
X005789Y005074D01*
X005887Y005172D02*
X005000Y005172D01*
X005138Y005175D02*
X005215Y005175D01*
X005270Y005189D01*
X005318Y005217D01*
X005350Y005249D01*
X005382Y005217D01*
X005430Y005189D01*
X005485Y005175D01*
X005562Y005175D01*
X005562Y005437D01*
X005400Y005437D01*
X005138Y005437D01*
X005138Y005175D01*
X005138Y005271D02*
X005112Y005271D01*
X005112Y005369D02*
X005138Y005369D01*
X005562Y005369D02*
X005588Y005369D01*
X005588Y005271D02*
X005562Y005271D01*
X005925Y005450D02*
X006225Y005925D01*
X006350Y006050D01*
X005583Y006050D01*
X005550Y005978D01*
X005877Y006230D02*
X005877Y006268D01*
X005874Y006270D01*
X005965Y006270D01*
X006070Y006375D01*
X006305Y006610D01*
X006438Y006610D01*
X006598Y006450D01*
X006562Y006414D01*
X006560Y006414D01*
X006375Y006230D01*
X005877Y006230D01*
X005877Y006256D02*
X006401Y006256D01*
X006499Y006354D02*
X006049Y006354D01*
X006147Y006453D02*
X006595Y006453D01*
X006497Y006551D02*
X006246Y006551D01*
X006230Y006790D02*
X005890Y006450D01*
X005360Y006450D01*
X005110Y006200D01*
X004651Y006256D02*
X004430Y006256D01*
X004430Y006354D02*
X004600Y006354D01*
X004600Y006453D02*
X004430Y006453D01*
X004430Y006551D02*
X004637Y006551D01*
X004690Y006650D02*
X004430Y006650D01*
X004430Y006748D02*
X004690Y006748D01*
X004690Y006847D02*
X004431Y006847D01*
X004530Y006945D02*
X004690Y006945D01*
X004690Y007044D02*
X004628Y007044D01*
X004414Y007339D02*
X004170Y007339D01*
X004170Y007241D02*
X004316Y007241D01*
X004217Y007142D02*
X004170Y007142D01*
X004170Y007438D02*
X004513Y007438D01*
X004611Y007536D02*
X004170Y007536D01*
X004170Y007635D02*
X004710Y007635D01*
X004710Y007733D02*
X004170Y007733D01*
X003810Y007733D02*
X002020Y007733D01*
X002020Y007635D02*
X003810Y007635D01*
X003810Y007536D02*
X002020Y007536D01*
X002020Y007438D02*
X003810Y007438D01*
X003810Y007339D02*
X002020Y007339D01*
X002020Y007241D02*
X003810Y007241D01*
X003810Y007142D02*
X002020Y007142D01*
X002020Y007044D02*
X003810Y007044D01*
X003810Y006945D02*
X002020Y006945D01*
X002020Y006847D02*
X003810Y006847D01*
X003810Y007832D02*
X002020Y007832D01*
X002020Y007930D02*
X003810Y007930D01*
X003810Y008029D02*
X003182Y008029D01*
X003154Y008000D02*
X003300Y008146D01*
X003300Y008354D01*
X003154Y008500D01*
X002946Y008500D01*
X002800Y008354D01*
X002800Y008146D01*
X002946Y008000D01*
X003154Y008000D01*
X003281Y008127D02*
X003810Y008127D01*
X003891Y008226D02*
X003300Y008226D01*
X003300Y008324D02*
X003989Y008324D01*
X004088Y008423D02*
X003231Y008423D01*
X003040Y008620D02*
X002020Y008620D01*
X002020Y008718D02*
X002942Y008718D01*
X002843Y008817D02*
X002020Y008817D01*
X002020Y008915D02*
X002780Y008915D01*
X002780Y009014D02*
X002598Y009014D01*
X002763Y009112D02*
X002780Y009112D01*
X002302Y009014D02*
X002020Y009014D01*
X002020Y009112D02*
X002137Y009112D01*
X002051Y009211D02*
X002020Y009211D01*
X002020Y008521D02*
X004186Y008521D01*
X005050Y008350D02*
X005450Y007950D01*
X007028Y007950D01*
X007477Y007501D01*
X007338Y007362D02*
X007020Y007680D01*
X005925Y007680D01*
X005575Y007680D02*
X005320Y007680D01*
X005300Y007733D02*
X005210Y007733D01*
X005112Y007832D02*
X005314Y007832D01*
X005331Y008324D02*
X005385Y008324D01*
X005448Y008423D02*
X005232Y008423D01*
X005134Y008521D02*
X006760Y008521D01*
X006785Y008750D02*
X007756Y007779D01*
X007617Y007640D02*
X007007Y008250D01*
X006450Y008250D01*
X006884Y007500D02*
X006945Y007500D01*
X007001Y007445D01*
X006989Y007433D01*
X007199Y007223D01*
X007199Y007223D01*
X006989Y007433D01*
X006970Y007414D01*
X006893Y007490D01*
X006884Y007500D01*
X006946Y007438D02*
X006993Y007438D01*
X007083Y007339D02*
X007083Y007339D01*
X007181Y007241D02*
X007181Y007241D01*
X007199Y007223D02*
X007472Y006950D01*
X007750Y006950D01*
X007636Y006950D01*
X006782Y006095D01*
X006781Y006095D02*
X006571Y005885D01*
X006781Y006095D01*
X006781Y006095D01*
X006745Y006059D02*
X006745Y006059D01*
X006646Y005960D02*
X006646Y005960D01*
X006571Y005885D02*
X006586Y005870D01*
X006180Y005465D01*
X006180Y005517D01*
X006366Y005812D01*
X006425Y005870D01*
X006525Y005870D01*
X006555Y005901D01*
X006571Y005885D01*
X006577Y005862D02*
X006416Y005862D01*
X006478Y005763D02*
X006336Y005763D01*
X006380Y005665D02*
X006273Y005665D01*
X006281Y005566D02*
X006211Y005566D01*
X006183Y005468D02*
X006180Y005468D01*
X006350Y006050D02*
X006450Y006050D01*
X006634Y006234D01*
X006642Y006234D01*
X006921Y005956D02*
X006921Y005951D01*
X005850Y004880D01*
X005850Y004650D01*
X004830Y003630D01*
X004450Y003250D01*
X004450Y002450D01*
X004797Y002119D02*
X005103Y002119D01*
X005043Y002178D02*
X005173Y002048D01*
X004727Y002048D01*
X004857Y002178D01*
X004930Y002355D01*
X004930Y002545D01*
X004857Y002722D01*
X004722Y002857D01*
X004630Y002895D01*
X004630Y003175D01*
X005010Y003555D01*
X005270Y003815D01*
X005270Y002895D01*
X005178Y002857D01*
X005043Y002722D01*
X004970Y002545D01*
X004970Y002355D01*
X005043Y002178D01*
X005027Y002217D02*
X004873Y002217D01*
X004914Y002316D02*
X004986Y002316D01*
X004970Y002414D02*
X004930Y002414D01*
X004930Y002513D02*
X004970Y002513D01*
X004997Y002611D02*
X004903Y002611D01*
X004862Y002710D02*
X005038Y002710D01*
X005129Y002808D02*
X004771Y002808D01*
X004630Y002907D02*
X005270Y002907D01*
X005270Y003005D02*
X004630Y003005D01*
X004630Y003104D02*
X005270Y003104D01*
X005270Y003202D02*
X004657Y003202D01*
X004755Y003301D02*
X005270Y003301D01*
X005270Y003399D02*
X004854Y003399D01*
X004952Y003498D02*
X005270Y003498D01*
X005270Y003596D02*
X005051Y003596D01*
X005149Y003695D02*
X005270Y003695D01*
X005270Y003793D02*
X005248Y003793D01*
X005450Y003850D02*
X005450Y002450D01*
X006300Y002650D02*
X006450Y002500D01*
X006450Y002450D01*
X006300Y002650D02*
X006300Y004778D01*
X007199Y005677D01*
X007060Y005817D02*
X006100Y004857D01*
X006100Y004500D01*
X005450Y003850D01*
X004640Y003695D02*
X004267Y003695D01*
X004267Y003596D02*
X004541Y003596D01*
X004443Y003498D02*
X004267Y003498D01*
X004233Y003399D02*
X004344Y003399D01*
X004270Y003301D02*
X003494Y003301D01*
X003593Y003202D02*
X004270Y003202D01*
X004270Y003104D02*
X003630Y003104D01*
X003630Y003005D02*
X004270Y003005D01*
X004270Y002907D02*
X003630Y002907D01*
X003771Y002808D02*
X004129Y002808D01*
X004038Y002710D02*
X003862Y002710D01*
X003903Y002611D02*
X003997Y002611D01*
X003970Y002513D02*
X003930Y002513D01*
X003930Y002414D02*
X003970Y002414D01*
X003986Y002316D02*
X003914Y002316D01*
X003873Y002217D02*
X004027Y002217D01*
X004103Y002119D02*
X003797Y002119D01*
X003450Y002450D02*
X003450Y003090D01*
X003270Y003270D01*
X003791Y003399D02*
X003891Y003399D01*
X003891Y003498D02*
X003791Y003498D01*
X003791Y003596D02*
X003891Y003596D01*
X003891Y003695D02*
X003791Y003695D01*
X003090Y004286D02*
X002843Y004286D01*
X002634Y004286D02*
X002020Y004286D01*
X002020Y004384D02*
X003169Y004384D01*
X003268Y004483D02*
X002020Y004483D01*
X002020Y004581D02*
X003264Y004581D01*
X003166Y004680D02*
X002020Y004680D01*
X002020Y004778D02*
X003165Y004778D01*
X003165Y004877D02*
X002020Y004877D01*
X002020Y004975D02*
X003240Y004975D01*
X002341Y004187D02*
X002020Y004187D01*
X002020Y004089D02*
X002333Y004089D01*
X002333Y003990D02*
X002020Y003990D01*
X002020Y003892D02*
X002333Y003892D01*
X002333Y003793D02*
X002020Y003793D01*
X002020Y003695D02*
X002333Y003695D01*
X002201Y003596D02*
X002020Y003596D01*
X002020Y003498D02*
X002105Y003498D01*
X002105Y003399D02*
X002020Y003399D01*
X002020Y003301D02*
X002105Y003301D01*
X002183Y003202D02*
X002020Y003202D01*
X006500Y003350D02*
X007400Y002450D01*
X007450Y002450D01*
X007270Y003030D02*
X007750Y003030D01*
X008330Y002450D01*
X008450Y002450D01*
X009450Y002450D02*
X009450Y002850D01*
X008950Y003350D01*
X007850Y003350D01*
X007270Y003030D02*
X006700Y003600D01*
X006700Y004622D01*
X007477Y005399D01*
X007338Y005538D02*
X006500Y004700D01*
X006500Y003350D01*
X006950Y004250D02*
X006950Y004593D01*
X007617Y005260D01*
X007895Y004981D02*
X008750Y005836D01*
X008750Y005950D01*
X008811Y005960D02*
X008669Y005960D01*
X008712Y006059D02*
X008571Y006059D01*
X008614Y006157D02*
X008472Y006157D01*
X008515Y006256D02*
X008374Y006256D01*
X008417Y006354D02*
X008275Y006354D01*
X008250Y006379D02*
X008321Y006450D01*
X008250Y006521D01*
X008930Y007201D01*
X009001Y007130D01*
X008321Y006450D01*
X009001Y005770D01*
X008930Y005699D01*
X008250Y006379D01*
X007570Y005699D01*
X007499Y005770D01*
X008179Y006450D01*
X007499Y007130D01*
X007570Y007201D01*
X008250Y006521D01*
X008179Y006450D01*
X008250Y006379D01*
X008225Y006354D02*
X008083Y006354D01*
X008126Y006256D02*
X007985Y006256D01*
X008028Y006157D02*
X007886Y006157D01*
X007929Y006059D02*
X007788Y006059D01*
X007831Y005960D02*
X007689Y005960D01*
X007732Y005862D02*
X007591Y005862D01*
X007634Y005763D02*
X007506Y005763D01*
X007950Y006450D02*
X008250Y006450D01*
X008318Y006453D02*
X008323Y006453D01*
X008280Y006551D02*
X008422Y006551D01*
X008379Y006650D02*
X008520Y006650D01*
X008477Y006748D02*
X008619Y006748D01*
X008576Y006847D02*
X008717Y006847D01*
X008674Y006945D02*
X008816Y006945D01*
X008750Y006950D02*
X008950Y006950D01*
X009450Y006450D01*
X009642Y006450D01*
X009858Y006234D01*
X009719Y006095D02*
X009864Y005950D01*
X010150Y006250D02*
X010050Y006350D01*
X010050Y006410D01*
X010320Y006880D02*
X010380Y006940D01*
X010574Y006940D01*
X010720Y007086D01*
X010720Y007294D01*
X010644Y007370D01*
X010710Y007436D01*
X010710Y007640D01*
X012020Y007640D01*
X012020Y007526D01*
X012166Y007380D01*
X012300Y007380D01*
X012300Y007360D01*
X012314Y007305D01*
X012342Y007257D01*
X012382Y007217D01*
X012430Y007189D01*
X012485Y007175D01*
X012562Y007175D01*
X012562Y007437D01*
X012588Y007437D01*
X012588Y007175D01*
X012665Y007175D01*
X012720Y007189D01*
X012763Y007215D01*
X012783Y007195D01*
X012950Y007195D01*
X012970Y007175D01*
X012352Y007175D01*
X012276Y007099D01*
X012276Y006361D01*
X012277Y006360D01*
X011995Y006360D01*
X012004Y006395D01*
X012004Y006680D01*
X011629Y006680D01*
X011629Y006780D01*
X012004Y006780D01*
X012004Y007065D01*
X011994Y007103D01*
X011974Y007137D01*
X011947Y007165D01*
X011912Y007185D01*
X011874Y007195D01*
X011629Y007195D01*
X011629Y006780D01*
X011529Y006780D01*
X011529Y007195D01*
X011283Y007195D01*
X011245Y007185D01*
X011211Y007165D01*
X011183Y007137D01*
X011163Y007103D01*
X011153Y007065D01*
X011153Y006780D01*
X011529Y006780D01*
X011529Y006680D01*
X011629Y006680D01*
X011629Y006265D01*
X011728Y006265D01*
X011700Y006237D01*
X011570Y006107D01*
X011570Y006204D01*
X011509Y006265D01*
X011529Y006265D01*
X011529Y006680D01*
X011224Y006680D01*
X011104Y006800D01*
X010896Y006800D01*
X010816Y006720D01*
X010800Y006720D01*
X010800Y006734D01*
X010654Y006880D01*
X010320Y006880D01*
X010579Y006945D02*
X011153Y006945D01*
X011153Y006847D02*
X010687Y006847D01*
X010786Y006748D02*
X010844Y006748D01*
X011156Y006748D02*
X011529Y006748D01*
X011529Y006650D02*
X011629Y006650D01*
X011629Y006748D02*
X012276Y006748D01*
X012276Y006650D02*
X012004Y006650D01*
X012004Y006551D02*
X012276Y006551D01*
X012276Y006453D02*
X012004Y006453D01*
X011719Y006256D02*
X011518Y006256D01*
X011529Y006354D02*
X011629Y006354D01*
X011629Y006453D02*
X011529Y006453D01*
X011529Y006551D02*
X011629Y006551D01*
X011629Y006847D02*
X011529Y006847D01*
X011529Y006945D02*
X011629Y006945D01*
X011629Y007044D02*
X011529Y007044D01*
X011529Y007142D02*
X011629Y007142D01*
X011969Y007142D02*
X012319Y007142D01*
X012359Y007241D02*
X010720Y007241D01*
X010720Y007142D02*
X011188Y007142D01*
X011153Y007044D02*
X010677Y007044D01*
X010675Y007339D02*
X012305Y007339D01*
X012109Y007438D02*
X010710Y007438D01*
X010710Y007536D02*
X012020Y007536D01*
X012020Y007635D02*
X010710Y007635D01*
X011013Y007980D02*
X011055Y008022D01*
X011055Y008478D01*
X010928Y008605D01*
X010625Y008605D01*
X010625Y008615D01*
X010611Y008670D01*
X010583Y008718D01*
X010546Y008754D01*
X010605Y008813D01*
X010605Y008882D01*
X010639Y008875D01*
X010712Y008875D01*
X010712Y009212D01*
X010788Y009212D01*
X010788Y009288D01*
X010712Y009288D01*
X010712Y009625D01*
X010639Y009625D01*
X010593Y009616D01*
X010550Y009598D01*
X010511Y009572D01*
X010501Y009562D01*
X010495Y009566D01*
X010440Y009580D01*
X010363Y009580D01*
X010363Y009318D01*
X010337Y009318D01*
X010337Y009580D01*
X010260Y009580D01*
X010220Y009569D01*
X010220Y009774D01*
X010074Y009920D01*
X009866Y009920D01*
X009725Y009779D01*
X009667Y009837D01*
X009233Y009837D01*
X009159Y009763D01*
X009153Y009763D01*
X009048Y009657D01*
X008950Y009560D01*
X008808Y009560D01*
X008780Y009532D01*
X008780Y009714D01*
X008634Y009860D01*
X008426Y009860D01*
X008280Y009714D01*
X008280Y009506D01*
X008189Y009506D01*
X008170Y009525D02*
X008170Y009795D01*
X008215Y009840D01*
X008215Y010028D01*
X008355Y009970D01*
X008545Y009970D01*
X008722Y010043D01*
X008857Y010178D01*
X008930Y010355D01*
X008930Y010545D01*
X008857Y010722D01*
X008729Y010850D01*
X009171Y010850D01*
X009043Y010722D01*
X008970Y010545D01*
X008970Y010355D01*
X009043Y010178D01*
X009178Y010043D01*
X009355Y009970D01*
X009545Y009970D01*
X009722Y010043D01*
X009857Y010178D01*
X009930Y010355D01*
X009930Y010545D01*
X009857Y010722D01*
X009729Y010850D01*
X010171Y010850D01*
X010043Y010722D01*
X009970Y010545D01*
X009970Y010355D01*
X010043Y010178D01*
X010178Y010043D01*
X010355Y009970D01*
X010545Y009970D01*
X010722Y010043D01*
X010857Y010178D01*
X010930Y010355D01*
X010930Y010545D01*
X010857Y010722D01*
X010729Y010850D01*
X011171Y010850D01*
X011043Y010722D01*
X010970Y010545D01*
X010970Y010355D01*
X011043Y010178D01*
X011178Y010043D01*
X011355Y009970D01*
X011545Y009970D01*
X011722Y010043D01*
X011857Y010178D01*
X011930Y010355D01*
X011930Y010545D01*
X011857Y010722D01*
X011729Y010850D01*
X012171Y010850D01*
X012043Y010722D01*
X011970Y010545D01*
X011970Y010355D01*
X012043Y010178D01*
X012178Y010043D01*
X012355Y009970D01*
X012545Y009970D01*
X012722Y010043D01*
X012857Y010178D01*
X012930Y010355D01*
X012930Y010545D01*
X012857Y010722D01*
X012729Y010850D01*
X013171Y010850D01*
X013043Y010722D01*
X012970Y010545D01*
X012970Y010355D01*
X013043Y010178D01*
X013178Y010043D01*
X013355Y009970D01*
X013545Y009970D01*
X013722Y010043D01*
X013857Y010178D01*
X013930Y010355D01*
X013930Y010545D01*
X013857Y010722D01*
X013729Y010850D01*
X014171Y010850D01*
X014043Y010722D01*
X013970Y010545D01*
X013970Y010355D01*
X014043Y010178D01*
X014061Y010160D01*
X013886Y010160D01*
X013740Y010014D01*
X013740Y009806D01*
X013886Y009660D01*
X014094Y009660D01*
X014164Y009730D01*
X015025Y009730D01*
X015291Y009996D01*
X015355Y009970D01*
X015545Y009970D01*
X015722Y010043D01*
X015857Y010178D01*
X015930Y010355D01*
X015930Y010545D01*
X015857Y010722D01*
X015729Y010850D01*
X016450Y010850D01*
X016450Y002041D01*
X015717Y002041D01*
X015722Y002043D01*
X015857Y002178D01*
X015930Y002355D01*
X015930Y002545D01*
X015857Y002722D01*
X015722Y002857D01*
X015545Y002930D01*
X015355Y002930D01*
X015205Y002868D01*
X015205Y002980D01*
X015050Y003135D01*
X014830Y003135D01*
X014675Y002980D01*
X014675Y002876D01*
X014545Y002930D01*
X014480Y002930D01*
X014140Y003270D01*
X014140Y003386D01*
X014226Y003300D01*
X014400Y003300D01*
X014400Y003296D01*
X014546Y003150D01*
X014754Y003150D01*
X014849Y003245D01*
X015049Y003245D01*
X015125Y003321D01*
X015125Y003740D01*
X015143Y003740D01*
X015193Y003690D01*
X015487Y003690D01*
X015502Y003705D01*
X015540Y003705D01*
X015695Y003860D01*
X015695Y004045D01*
X015750Y004045D01*
X015905Y004200D01*
X015905Y004420D01*
X015750Y004575D01*
X015530Y004575D01*
X015505Y004550D01*
X015505Y004579D01*
X015429Y004655D01*
X015420Y004655D01*
X015420Y004845D01*
X015449Y004845D01*
X015525Y004921D01*
X015525Y005138D01*
X015640Y005253D01*
X015640Y006957D01*
X015517Y007080D01*
X015277Y007320D01*
X014957Y007320D01*
X014852Y007425D01*
X015020Y007425D01*
X015175Y007580D01*
X015175Y007800D01*
X015020Y007955D01*
X014800Y007955D01*
X014660Y007815D01*
X014660Y008437D01*
X014262Y008835D01*
X014262Y009125D01*
X014360Y009125D01*
X014515Y009280D01*
X014515Y009500D01*
X014360Y009655D01*
X014140Y009655D01*
X013985Y009500D01*
X013985Y009280D01*
X014037Y009228D01*
X013862Y009228D01*
X013851Y009217D01*
X013850Y009218D01*
X013816Y009238D01*
X013778Y009248D01*
X013654Y009248D01*
X013654Y008866D01*
X013646Y008866D01*
X013646Y009248D01*
X013522Y009248D01*
X013484Y009238D01*
X013450Y009218D01*
X013449Y009217D01*
X013438Y009228D01*
X013114Y009228D01*
X013038Y009152D01*
X013038Y008761D01*
X012995Y008786D01*
X012940Y008800D01*
X012863Y008800D01*
X012863Y008538D01*
X012837Y008538D01*
X012837Y008800D01*
X012760Y008800D01*
X012705Y008786D01*
X012657Y008758D01*
X012617Y008718D01*
X012589Y008670D01*
X012575Y008615D01*
X012575Y008538D01*
X012837Y008538D01*
X012837Y008512D01*
X012575Y008512D01*
X012575Y008435D01*
X012589Y008380D01*
X012615Y008337D01*
X012595Y008317D01*
X012595Y008033D01*
X012708Y007920D01*
X012850Y007920D01*
X013007Y007764D01*
X013038Y007733D01*
X013038Y007705D01*
X012783Y007705D01*
X012763Y007685D01*
X012720Y007711D01*
X012665Y007725D01*
X012588Y007725D01*
X012588Y007463D01*
X012562Y007463D01*
X012562Y007725D01*
X012520Y007725D01*
X012520Y007734D01*
X012397Y007857D01*
X012420Y007880D01*
X012420Y008420D01*
X012245Y008595D01*
X012245Y008595D01*
X012205Y008635D01*
X012205Y008667D01*
X012130Y008742D01*
X012130Y008841D01*
X012025Y008947D01*
X012010Y008947D01*
X011855Y009102D01*
X011855Y009478D01*
X011728Y009605D01*
X011372Y009605D01*
X011245Y009478D01*
X011245Y009022D01*
X011372Y008895D01*
X011582Y008895D01*
X011752Y008724D01*
X011695Y008667D01*
X011695Y008618D01*
X011661Y008625D01*
X011588Y008625D01*
X011588Y008288D01*
X011512Y008288D01*
X011512Y008625D01*
X011439Y008625D01*
X011393Y008616D01*
X011350Y008598D01*
X011311Y008572D01*
X011278Y008539D01*
X011252Y008500D01*
X011234Y008457D01*
X011225Y008411D01*
X011225Y008288D01*
X011512Y008288D01*
X011512Y008212D01*
X011225Y008212D01*
X011225Y008089D01*
X011234Y008043D01*
X011252Y008000D01*
X011265Y007980D01*
X011013Y007980D01*
X011055Y008029D02*
X011240Y008029D01*
X011225Y008127D02*
X011055Y008127D01*
X011055Y008226D02*
X011512Y008226D01*
X011550Y008250D02*
X011650Y008150D01*
X011950Y008150D01*
X011963Y008162D02*
X011963Y007980D01*
X011937Y007980D01*
X011937Y008162D01*
X011963Y008162D01*
X011963Y008127D02*
X011937Y008127D01*
X011937Y008029D02*
X011963Y008029D01*
X012420Y008029D02*
X012599Y008029D01*
X012595Y008127D02*
X012420Y008127D01*
X012420Y008226D02*
X012595Y008226D01*
X012602Y008324D02*
X012420Y008324D01*
X012418Y008423D02*
X012578Y008423D01*
X012576Y008620D02*
X012221Y008620D01*
X012154Y008718D02*
X012618Y008718D01*
X012837Y008718D02*
X012863Y008718D01*
X012863Y008620D02*
X012837Y008620D01*
X012837Y008521D02*
X012319Y008521D01*
X011950Y008525D02*
X011950Y008767D01*
X012130Y008817D02*
X013038Y008817D01*
X013038Y008915D02*
X012056Y008915D01*
X012124Y009014D02*
X011944Y009014D01*
X011855Y009112D02*
X012053Y009112D01*
X012073Y009065D02*
X012165Y008973D01*
X012285Y008923D01*
X012415Y008923D01*
X012535Y008973D01*
X012627Y009065D01*
X012677Y009185D01*
X012677Y009315D01*
X012627Y009435D01*
X012535Y009527D01*
X012415Y009577D01*
X012285Y009577D01*
X012165Y009527D01*
X012073Y009435D01*
X012023Y009315D01*
X012023Y009185D01*
X012073Y009065D01*
X012023Y009211D02*
X011855Y009211D01*
X011855Y009309D02*
X012023Y009309D01*
X012061Y009408D02*
X011855Y009408D01*
X011827Y009506D02*
X012144Y009506D01*
X012556Y009506D02*
X013991Y009506D01*
X013985Y009408D02*
X012639Y009408D01*
X012677Y009309D02*
X013985Y009309D01*
X013654Y009211D02*
X013646Y009211D01*
X013646Y009112D02*
X013654Y009112D01*
X013646Y009014D02*
X013654Y009014D01*
X013646Y008915D02*
X013654Y008915D01*
X014024Y008862D02*
X014050Y008836D01*
X014050Y008550D01*
X013850Y008350D01*
X013450Y008350D01*
X013276Y008524D01*
X013276Y008862D01*
X013038Y009014D02*
X012576Y009014D01*
X012647Y009112D02*
X013038Y009112D01*
X013096Y009211D02*
X012677Y009211D01*
X011728Y009605D02*
X014090Y009605D01*
X014137Y009703D02*
X016450Y009703D01*
X016450Y009605D02*
X014410Y009605D01*
X014509Y009506D02*
X016450Y009506D01*
X016450Y009408D02*
X014515Y009408D01*
X014515Y009309D02*
X016450Y009309D01*
X016450Y009211D02*
X014445Y009211D01*
X014262Y009112D02*
X016450Y009112D01*
X016450Y009014D02*
X014262Y009014D01*
X014262Y008915D02*
X016450Y008915D01*
X016450Y008817D02*
X014280Y008817D01*
X014379Y008718D02*
X016450Y008718D01*
X016450Y008620D02*
X014477Y008620D01*
X014576Y008521D02*
X016450Y008521D01*
X016450Y008423D02*
X014660Y008423D01*
X014660Y008324D02*
X016450Y008324D01*
X016450Y008226D02*
X016037Y008226D01*
X016035Y008227D02*
X015915Y008277D01*
X015785Y008277D01*
X015665Y008227D01*
X015573Y008135D01*
X015523Y008015D01*
X015523Y007885D01*
X015573Y007765D01*
X015665Y007673D01*
X015785Y007623D01*
X015915Y007623D01*
X016035Y007673D01*
X016127Y007765D01*
X016177Y007885D01*
X016177Y008015D01*
X016127Y008135D01*
X016035Y008227D01*
X016130Y008127D02*
X016450Y008127D01*
X016450Y008029D02*
X016171Y008029D01*
X016177Y007930D02*
X016450Y007930D01*
X016450Y007832D02*
X016155Y007832D01*
X016095Y007733D02*
X016450Y007733D01*
X016450Y007635D02*
X015942Y007635D01*
X015758Y007635D02*
X015175Y007635D01*
X015175Y007733D02*
X015605Y007733D01*
X015545Y007832D02*
X015143Y007832D01*
X015045Y007930D02*
X015523Y007930D01*
X015529Y008029D02*
X014660Y008029D01*
X014660Y008127D02*
X015570Y008127D01*
X015663Y008226D02*
X014660Y008226D01*
X014660Y007930D02*
X014775Y007930D01*
X014677Y007832D02*
X014660Y007832D01*
X015032Y007438D02*
X016450Y007438D01*
X016450Y007536D02*
X015131Y007536D01*
X014938Y007339D02*
X016450Y007339D01*
X016450Y007241D02*
X015356Y007241D01*
X015455Y007142D02*
X016450Y007142D01*
X016450Y007044D02*
X015553Y007044D01*
X015640Y006945D02*
X016450Y006945D01*
X016450Y006847D02*
X015640Y006847D01*
X015640Y006748D02*
X016450Y006748D01*
X016450Y006650D02*
X015640Y006650D01*
X015640Y006551D02*
X016450Y006551D01*
X016450Y006453D02*
X015640Y006453D01*
X015640Y006354D02*
X016450Y006354D01*
X016450Y006256D02*
X015640Y006256D01*
X015640Y006157D02*
X016450Y006157D01*
X016450Y006059D02*
X015640Y006059D01*
X015640Y005960D02*
X016450Y005960D01*
X016450Y005862D02*
X015640Y005862D01*
X015640Y005763D02*
X016450Y005763D01*
X016450Y005665D02*
X015640Y005665D01*
X015640Y005566D02*
X016450Y005566D01*
X016450Y005468D02*
X015640Y005468D01*
X015640Y005369D02*
X016450Y005369D01*
X016450Y005271D02*
X015640Y005271D01*
X015559Y005172D02*
X016450Y005172D01*
X016450Y005074D02*
X015525Y005074D01*
X015525Y004975D02*
X016450Y004975D01*
X016450Y004877D02*
X015480Y004877D01*
X015420Y004778D02*
X016450Y004778D01*
X016450Y004680D02*
X015420Y004680D01*
X015503Y004581D02*
X016450Y004581D01*
X016450Y004483D02*
X015842Y004483D01*
X015905Y004384D02*
X016450Y004384D01*
X016450Y004286D02*
X015905Y004286D01*
X015892Y004187D02*
X016450Y004187D01*
X016450Y004089D02*
X015793Y004089D01*
X015695Y003990D02*
X016450Y003990D01*
X016450Y003892D02*
X015695Y003892D01*
X015628Y003793D02*
X016450Y003793D01*
X016450Y003695D02*
X015940Y003695D01*
X015920Y003715D02*
X015700Y003715D01*
X015545Y003560D01*
X015545Y003340D01*
X015700Y003185D01*
X015920Y003185D01*
X016075Y003340D01*
X016075Y003560D01*
X015920Y003715D01*
X016039Y003596D02*
X016450Y003596D01*
X016450Y003498D02*
X016075Y003498D01*
X016075Y003399D02*
X016450Y003399D01*
X016450Y003301D02*
X016035Y003301D01*
X015937Y003202D02*
X016450Y003202D01*
X016450Y003104D02*
X015081Y003104D01*
X015180Y003005D02*
X016450Y003005D01*
X016450Y002907D02*
X015602Y002907D01*
X015771Y002808D02*
X016450Y002808D01*
X016450Y002710D02*
X015862Y002710D01*
X015903Y002611D02*
X016450Y002611D01*
X016450Y002513D02*
X015930Y002513D01*
X015930Y002414D02*
X016450Y002414D01*
X016450Y002316D02*
X015914Y002316D01*
X015873Y002217D02*
X016450Y002217D01*
X016450Y002119D02*
X015797Y002119D01*
X015298Y002907D02*
X015205Y002907D01*
X014799Y003104D02*
X014307Y003104D01*
X014208Y003202D02*
X014494Y003202D01*
X014405Y003005D02*
X014700Y003005D01*
X014675Y002907D02*
X014602Y002907D01*
X014806Y003202D02*
X015683Y003202D01*
X015585Y003301D02*
X015104Y003301D01*
X015125Y003399D02*
X015545Y003399D01*
X015545Y003498D02*
X015125Y003498D01*
X015125Y003596D02*
X015581Y003596D01*
X015491Y003695D02*
X015680Y003695D01*
X015400Y003900D02*
X015430Y003970D01*
X015400Y003900D02*
X015250Y004050D01*
X015250Y004320D01*
X015220Y004350D01*
X015240Y004370D01*
X015240Y005150D01*
X014870Y004830D02*
X014850Y004740D01*
X014460Y004350D01*
X015125Y003695D02*
X015189Y003695D01*
X014840Y003550D02*
X014710Y003420D01*
X014650Y003400D01*
X014226Y003301D02*
X014140Y003301D01*
X013240Y003163D02*
X013240Y002883D01*
X013178Y002857D01*
X013043Y002722D01*
X012970Y002545D01*
X012970Y002355D01*
X013043Y002178D01*
X013178Y002043D01*
X013179Y002043D01*
X012740Y002043D01*
X012776Y002069D01*
X012831Y002124D01*
X012878Y002188D01*
X012913Y002258D01*
X012938Y002333D01*
X012948Y002400D01*
X012500Y002400D01*
X012500Y002500D01*
X012400Y002500D01*
X012400Y002948D01*
X012333Y002938D01*
X012258Y002913D01*
X012188Y002878D01*
X012124Y002831D01*
X012069Y002776D01*
X012022Y002712D01*
X011987Y002642D01*
X011962Y002567D01*
X011952Y002500D01*
X012400Y002500D01*
X012400Y002400D01*
X011952Y002400D01*
X011962Y002333D01*
X011987Y002258D01*
X012022Y002188D01*
X012069Y002124D01*
X012124Y002069D01*
X012159Y002043D01*
X011741Y002044D01*
X011776Y002069D01*
X011831Y002124D01*
X011878Y002188D01*
X011913Y002258D01*
X011938Y002333D01*
X011948Y002400D01*
X011500Y002400D01*
X011500Y002500D01*
X011400Y002500D01*
X011400Y002948D01*
X011333Y002938D01*
X011258Y002913D01*
X011250Y002909D01*
X011250Y003094D01*
X011104Y003240D01*
X010950Y003240D01*
X010840Y003350D01*
X011150Y003350D01*
X011150Y003690D01*
X011250Y003690D01*
X011250Y003350D01*
X011660Y003350D01*
X011680Y003355D01*
X011680Y003326D01*
X011826Y003180D01*
X012034Y003180D01*
X012154Y003300D01*
X012806Y003300D01*
X012720Y003214D01*
X012720Y003006D01*
X012866Y002860D01*
X013074Y002860D01*
X013220Y003006D01*
X013220Y003183D01*
X013240Y003163D01*
X013240Y003104D02*
X013220Y003104D01*
X013219Y003005D02*
X013240Y003005D01*
X013240Y002907D02*
X013120Y002907D01*
X013129Y002808D02*
X012799Y002808D01*
X012776Y002831D02*
X012712Y002878D01*
X012642Y002913D01*
X012567Y002938D01*
X012500Y002948D01*
X012500Y002500D01*
X012948Y002500D01*
X012938Y002567D01*
X012913Y002642D01*
X012878Y002712D01*
X012831Y002776D01*
X012776Y002831D01*
X012820Y002907D02*
X012655Y002907D01*
X012721Y003005D02*
X011250Y003005D01*
X011240Y003104D02*
X012720Y003104D01*
X012720Y003202D02*
X012056Y003202D01*
X011804Y003202D02*
X011142Y003202D01*
X010890Y003301D02*
X011706Y003301D01*
X011250Y003399D02*
X011150Y003399D01*
X011150Y003498D02*
X011250Y003498D01*
X011250Y003596D02*
X011150Y003596D01*
X010606Y003104D02*
X010220Y003104D01*
X010220Y003202D02*
X010508Y003202D01*
X010450Y003260D02*
X010750Y002960D01*
X010750Y002886D01*
X010896Y002740D01*
X011043Y002740D01*
X011022Y002712D01*
X010987Y002642D01*
X010962Y002567D01*
X010952Y002500D01*
X011400Y002500D01*
X011400Y002400D01*
X010952Y002400D01*
X010962Y002333D01*
X010987Y002258D01*
X011022Y002188D01*
X011069Y002124D01*
X011124Y002069D01*
X011158Y002044D01*
X010723Y002044D01*
X010857Y002178D01*
X010930Y002355D01*
X010930Y002545D01*
X010857Y002722D01*
X010722Y002857D01*
X010545Y002930D01*
X010355Y002930D01*
X010178Y002857D01*
X010131Y002810D01*
X010082Y002858D01*
X010220Y002996D01*
X010220Y003204D01*
X010074Y003350D01*
X009970Y003350D01*
X009970Y003454D01*
X009940Y003483D01*
X009948Y003487D01*
X009980Y003520D01*
X010140Y003360D01*
X010240Y003260D01*
X010450Y003260D01*
X010199Y003301D02*
X010123Y003301D01*
X010101Y003399D02*
X009970Y003399D01*
X009958Y003498D02*
X010002Y003498D01*
X009760Y003710D02*
X009755Y003715D01*
X009755Y003720D01*
X009058Y004250D02*
X008466Y004842D01*
X008250Y004660D02*
X008227Y004660D01*
X008034Y004842D01*
X008866Y005763D02*
X008994Y005763D01*
X008909Y005862D02*
X008768Y005862D01*
X008182Y006453D02*
X008177Y006453D01*
X008220Y006551D02*
X008078Y006551D01*
X008121Y006650D02*
X007980Y006650D01*
X008023Y006748D02*
X007881Y006748D01*
X007924Y006847D02*
X007783Y006847D01*
X007826Y006945D02*
X007684Y006945D01*
X007727Y007044D02*
X007586Y007044D01*
X007629Y007142D02*
X007511Y007142D01*
X006782Y006805D02*
X006536Y007050D01*
X005717Y007050D01*
X005550Y006922D01*
X005537Y006883D01*
X005410Y007010D01*
X005550Y006922D02*
X005550Y006750D01*
X006230Y006790D02*
X006518Y006790D01*
X006642Y006666D01*
X007895Y007918D02*
X006864Y008950D01*
X005050Y008950D01*
X006050Y009850D02*
X006242Y009850D01*
X008034Y008058D01*
X008749Y007506D02*
X008883Y007640D01*
X008883Y007640D01*
X008749Y007506D01*
X008749Y007506D01*
X008750Y007507D02*
X008750Y006950D01*
X008773Y007044D02*
X008914Y007044D01*
X008871Y007142D02*
X008989Y007142D01*
X008750Y007507D02*
X008883Y007640D01*
X009094Y007851D01*
X009077Y007867D01*
X009140Y007930D01*
X009240Y008030D01*
X009240Y008035D01*
X009620Y008415D01*
X009620Y008423D01*
X009667Y008423D01*
X009743Y008499D01*
X009743Y008716D01*
X009768Y008740D01*
X009808Y008700D01*
X010092Y008700D01*
X010150Y008758D01*
X010154Y008754D01*
X010117Y008718D01*
X010089Y008670D01*
X010075Y008615D01*
X010075Y008538D01*
X010337Y008538D01*
X010337Y008512D01*
X010075Y008512D01*
X010075Y008435D01*
X010089Y008380D01*
X010110Y008345D01*
X009626Y008345D01*
X009527Y008245D01*
X009113Y007832D01*
X009094Y007851D01*
X008883Y007640D01*
X008883Y007640D01*
X008878Y007635D02*
X008878Y007635D01*
X008976Y007733D02*
X008976Y007733D01*
X009075Y007832D02*
X009075Y007832D01*
X009140Y007930D02*
X009211Y007930D01*
X009239Y008029D02*
X009310Y008029D01*
X009332Y008127D02*
X009408Y008127D01*
X009431Y008226D02*
X009507Y008226D01*
X009529Y008324D02*
X009605Y008324D01*
X009620Y008423D02*
X010078Y008423D01*
X010076Y008620D02*
X009743Y008620D01*
X009745Y008718D02*
X009790Y008718D01*
X009743Y008521D02*
X010337Y008521D01*
X010350Y008525D02*
X010575Y008750D01*
X010750Y008750D01*
X011150Y008750D01*
X011550Y008350D01*
X011550Y008250D01*
X011512Y008324D02*
X011588Y008324D01*
X011588Y008423D02*
X011512Y008423D01*
X011512Y008521D02*
X011588Y008521D01*
X011588Y008620D02*
X011512Y008620D01*
X011412Y008620D02*
X010624Y008620D01*
X010582Y008718D02*
X011746Y008718D01*
X011695Y008620D02*
X011688Y008620D01*
X011660Y008817D02*
X010605Y008817D01*
X010712Y008915D02*
X010788Y008915D01*
X010788Y008875D02*
X010861Y008875D01*
X010907Y008884D01*
X010950Y008902D01*
X010989Y008928D01*
X011022Y008961D01*
X011048Y009000D01*
X011066Y009043D01*
X011075Y009089D01*
X011075Y009212D01*
X010788Y009212D01*
X010788Y008875D01*
X010750Y008750D02*
X010750Y009550D01*
X010550Y009550D01*
X010450Y009450D01*
X010095Y009450D01*
X009950Y009305D01*
X009963Y009309D02*
X010337Y009309D01*
X010337Y009318D02*
X010337Y009292D01*
X010075Y009292D01*
X009963Y009292D01*
X009963Y009318D01*
X009963Y009420D01*
X009937Y009420D01*
X009937Y009318D01*
X009963Y009318D01*
X010337Y009318D01*
X010350Y009350D02*
X010450Y009450D01*
X010363Y009408D02*
X010337Y009408D01*
X010350Y009350D02*
X009950Y009350D01*
X009937Y009318D02*
X009937Y009292D01*
X009675Y009292D01*
X009675Y009215D01*
X009689Y009160D01*
X009704Y009135D01*
X009653Y009135D01*
X009548Y009030D01*
X009450Y008932D01*
X009352Y009030D01*
X009247Y009135D01*
X009177Y009135D01*
X009205Y009163D01*
X009205Y009305D01*
X009231Y009331D01*
X009233Y009329D01*
X009667Y009329D01*
X009675Y009337D01*
X009675Y009318D01*
X009937Y009318D01*
X009937Y009309D02*
X009209Y009309D01*
X009205Y009211D02*
X009676Y009211D01*
X009630Y009112D02*
X009270Y009112D01*
X009352Y009030D02*
X009352Y009030D01*
X009368Y009014D02*
X009532Y009014D01*
X009728Y008955D02*
X009950Y008955D01*
X010350Y008955D01*
X010118Y008718D02*
X010110Y008718D01*
X009728Y008955D02*
X009450Y008677D01*
X009172Y008955D01*
X008950Y008955D01*
X008950Y009305D02*
X008650Y009305D01*
X008135Y009305D01*
X007990Y009450D01*
X007990Y009910D01*
X007950Y009950D01*
X008215Y009999D02*
X008286Y009999D01*
X008215Y009900D02*
X009846Y009900D01*
X009748Y009802D02*
X009702Y009802D01*
X009450Y009583D02*
X009228Y009583D01*
X008950Y009305D01*
X008995Y009605D02*
X008780Y009605D01*
X008780Y009703D02*
X009093Y009703D01*
X009198Y009802D02*
X008692Y009802D01*
X008614Y009999D02*
X009286Y009999D01*
X009124Y010097D02*
X008776Y010097D01*
X008864Y010196D02*
X009036Y010196D01*
X008995Y010294D02*
X008905Y010294D01*
X008930Y010393D02*
X008970Y010393D01*
X008970Y010491D02*
X008930Y010491D01*
X008912Y010590D02*
X008988Y010590D01*
X009029Y010688D02*
X008871Y010688D01*
X008792Y010787D02*
X009108Y010787D01*
X009792Y010787D02*
X010108Y010787D01*
X010029Y010688D02*
X009871Y010688D01*
X009912Y010590D02*
X009988Y010590D01*
X009970Y010491D02*
X009930Y010491D01*
X009930Y010393D02*
X009970Y010393D01*
X009995Y010294D02*
X009905Y010294D01*
X009864Y010196D02*
X010036Y010196D01*
X010124Y010097D02*
X009776Y010097D01*
X009614Y009999D02*
X010286Y009999D01*
X010094Y009900D02*
X010700Y009900D01*
X010700Y009806D02*
X010846Y009660D01*
X011054Y009660D01*
X011200Y009806D01*
X011200Y010014D01*
X011054Y010160D01*
X010846Y010160D01*
X010700Y010014D01*
X010700Y009806D01*
X010705Y009802D02*
X010192Y009802D01*
X010220Y009703D02*
X010803Y009703D01*
X010788Y009625D02*
X010788Y009288D01*
X011075Y009288D01*
X011075Y009411D01*
X011066Y009457D01*
X011048Y009500D01*
X011022Y009539D01*
X010989Y009572D01*
X010950Y009598D01*
X010907Y009616D01*
X010861Y009625D01*
X010788Y009625D01*
X010788Y009605D02*
X010712Y009605D01*
X010712Y009506D02*
X010788Y009506D01*
X010788Y009408D02*
X010712Y009408D01*
X010712Y009309D02*
X010788Y009309D01*
X010788Y009211D02*
X010712Y009211D01*
X010712Y009112D02*
X010788Y009112D01*
X010788Y009014D02*
X010712Y009014D01*
X010969Y008915D02*
X011352Y008915D01*
X011254Y009014D02*
X011054Y009014D01*
X011075Y009112D02*
X011245Y009112D01*
X011245Y009211D02*
X011075Y009211D01*
X011075Y009309D02*
X011245Y009309D01*
X011245Y009408D02*
X011075Y009408D01*
X011044Y009506D02*
X011273Y009506D01*
X011372Y009605D02*
X010934Y009605D01*
X011097Y009703D02*
X013843Y009703D01*
X013745Y009802D02*
X011195Y009802D01*
X011200Y009900D02*
X013740Y009900D01*
X013740Y009999D02*
X013614Y009999D01*
X013776Y010097D02*
X013823Y010097D01*
X013864Y010196D02*
X014036Y010196D01*
X013995Y010294D02*
X013905Y010294D01*
X013930Y010393D02*
X013970Y010393D01*
X013970Y010491D02*
X013930Y010491D01*
X013912Y010590D02*
X013988Y010590D01*
X014029Y010688D02*
X013871Y010688D01*
X013792Y010787D02*
X014108Y010787D01*
X013108Y010787D02*
X012792Y010787D01*
X012871Y010688D02*
X013029Y010688D01*
X012988Y010590D02*
X012912Y010590D01*
X012930Y010491D02*
X012970Y010491D01*
X012970Y010393D02*
X012930Y010393D01*
X012905Y010294D02*
X012995Y010294D01*
X013036Y010196D02*
X012864Y010196D01*
X012776Y010097D02*
X013124Y010097D01*
X013286Y009999D02*
X012614Y009999D01*
X012286Y009999D02*
X011614Y009999D01*
X011776Y010097D02*
X012124Y010097D01*
X012036Y010196D02*
X011864Y010196D01*
X011905Y010294D02*
X011995Y010294D01*
X011970Y010393D02*
X011930Y010393D01*
X011930Y010491D02*
X011970Y010491D01*
X011988Y010590D02*
X011912Y010590D01*
X011871Y010688D02*
X012029Y010688D01*
X012108Y010787D02*
X011792Y010787D01*
X011108Y010787D02*
X010792Y010787D01*
X010871Y010688D02*
X011029Y010688D01*
X010988Y010590D02*
X010912Y010590D01*
X010930Y010491D02*
X010970Y010491D01*
X010970Y010393D02*
X010930Y010393D01*
X010905Y010294D02*
X010995Y010294D01*
X011036Y010196D02*
X010864Y010196D01*
X010783Y010097D02*
X010776Y010097D01*
X010700Y009999D02*
X010614Y009999D01*
X010566Y009605D02*
X010220Y009605D01*
X010337Y009506D02*
X010363Y009506D01*
X009963Y009408D02*
X009937Y009408D01*
X011117Y010097D02*
X011124Y010097D01*
X011200Y009999D02*
X011286Y009999D01*
X011266Y008521D02*
X011012Y008521D01*
X011055Y008423D02*
X011227Y008423D01*
X011225Y008324D02*
X011055Y008324D01*
X012420Y007930D02*
X012698Y007930D01*
X012939Y007832D02*
X012422Y007832D01*
X012520Y007733D02*
X013037Y007733D01*
X013187Y007838D02*
X013276Y007838D01*
X013304Y007810D01*
X013680Y007810D01*
X013187Y007838D02*
X012850Y008175D01*
X012825Y008175D01*
X012588Y007635D02*
X012562Y007635D01*
X012562Y007536D02*
X012588Y007536D01*
X012588Y007339D02*
X012562Y007339D01*
X012562Y007241D02*
X012588Y007241D01*
X012276Y007044D02*
X012004Y007044D01*
X012004Y006945D02*
X012276Y006945D01*
X012276Y006847D02*
X012004Y006847D01*
X012681Y006730D02*
X012925Y006974D01*
X013105Y006945D02*
X013620Y006945D01*
X013620Y006847D02*
X013087Y006847D01*
X013087Y006881D02*
X013105Y006899D01*
X013105Y007048D01*
X013087Y007067D01*
X013087Y007099D01*
X013016Y007170D01*
X013620Y007170D01*
X013620Y006717D01*
X013583Y006680D01*
X013197Y006680D01*
X013087Y006790D01*
X013087Y006881D01*
X013129Y006748D02*
X013620Y006748D01*
X013620Y007044D02*
X013105Y007044D01*
X013044Y007142D02*
X013620Y007142D01*
X014040Y007023D02*
X014157Y007140D01*
X014543Y007140D01*
X014660Y007023D01*
X014783Y006900D01*
X015103Y006900D01*
X015220Y006783D01*
X015220Y005455D01*
X015080Y005455D01*
X015080Y005656D01*
X015145Y005721D01*
X015145Y006179D01*
X015088Y006236D01*
X015180Y006328D01*
X015180Y006612D01*
X015067Y006725D01*
X014783Y006725D01*
X014763Y006705D01*
X014720Y006731D01*
X014665Y006745D01*
X014588Y006745D01*
X014588Y006483D01*
X014562Y006483D01*
X014562Y006745D01*
X014485Y006745D01*
X014430Y006731D01*
X014382Y006703D01*
X014342Y006663D01*
X014314Y006615D01*
X014300Y006560D01*
X014300Y006483D01*
X014562Y006483D01*
X014562Y006457D01*
X014588Y006457D01*
X014588Y006195D01*
X014591Y006195D01*
X014575Y006179D01*
X014575Y005721D01*
X014651Y005645D01*
X014660Y005645D01*
X014660Y005455D01*
X014582Y005455D01*
X014477Y005560D01*
X014152Y005885D01*
X014112Y005885D01*
X014125Y005935D01*
X014125Y006012D01*
X013863Y006012D01*
X013863Y006038D01*
X013837Y006038D01*
X013837Y006300D01*
X013797Y006300D01*
X013917Y006420D01*
X014040Y006543D01*
X014040Y007023D01*
X014061Y007044D02*
X014639Y007044D01*
X014738Y006945D02*
X014040Y006945D01*
X014040Y006847D02*
X015156Y006847D01*
X015220Y006748D02*
X014040Y006748D01*
X014040Y006650D02*
X014335Y006650D01*
X014300Y006551D02*
X014040Y006551D01*
X013950Y006453D02*
X014300Y006453D01*
X014300Y006457D02*
X014300Y006380D01*
X014314Y006325D01*
X014342Y006277D01*
X014382Y006237D01*
X014430Y006209D01*
X014485Y006195D01*
X014562Y006195D01*
X014562Y006457D01*
X014300Y006457D01*
X014307Y006354D02*
X013851Y006354D01*
X013863Y006300D02*
X013863Y006038D01*
X014125Y006038D01*
X014125Y006115D01*
X014111Y006170D01*
X014083Y006218D01*
X014043Y006258D01*
X013995Y006286D01*
X013940Y006300D01*
X013863Y006300D01*
X013863Y006256D02*
X013837Y006256D01*
X013837Y006157D02*
X013863Y006157D01*
X013863Y006059D02*
X013837Y006059D01*
X013837Y006038D02*
X013837Y006012D01*
X013575Y006012D01*
X013575Y005935D01*
X013588Y005885D01*
X013312Y005885D01*
X012912Y006285D01*
X012998Y006285D01*
X013023Y006260D01*
X013661Y006260D01*
X013657Y006258D01*
X013617Y006218D01*
X013589Y006170D01*
X013575Y006115D01*
X013575Y006038D01*
X013837Y006038D01*
X014125Y006059D02*
X014575Y006059D01*
X014575Y006157D02*
X014114Y006157D01*
X014045Y006256D02*
X014364Y006256D01*
X014562Y006256D02*
X014588Y006256D01*
X014588Y006354D02*
X014562Y006354D01*
X014562Y006453D02*
X014588Y006453D01*
X014588Y006551D02*
X014562Y006551D01*
X014562Y006650D02*
X014588Y006650D01*
X014860Y006405D02*
X014925Y006470D01*
X014860Y006405D02*
X014860Y005950D01*
X014870Y005940D01*
X014575Y005960D02*
X014125Y005960D01*
X014175Y005862D02*
X014575Y005862D01*
X014575Y005763D02*
X014274Y005763D01*
X014372Y005665D02*
X014632Y005665D01*
X014660Y005566D02*
X014471Y005566D01*
X014569Y005468D02*
X014660Y005468D01*
X015080Y005468D02*
X015220Y005468D01*
X015220Y005566D02*
X015080Y005566D01*
X015088Y005665D02*
X015220Y005665D01*
X015220Y005763D02*
X015145Y005763D01*
X015145Y005862D02*
X015220Y005862D01*
X015220Y005960D02*
X015145Y005960D01*
X015145Y006059D02*
X015220Y006059D01*
X015220Y006157D02*
X015145Y006157D01*
X015108Y006256D02*
X015220Y006256D01*
X015220Y006354D02*
X015180Y006354D01*
X015180Y006453D02*
X015220Y006453D01*
X015220Y006551D02*
X015180Y006551D01*
X015143Y006650D02*
X015220Y006650D01*
X014070Y007350D02*
X013050Y007350D01*
X012950Y007450D01*
X012925Y007450D01*
X012941Y006256D02*
X013655Y006256D01*
X013586Y006157D02*
X013040Y006157D01*
X013138Y006059D02*
X013575Y006059D01*
X013575Y005960D02*
X013237Y005960D01*
X011620Y006157D02*
X011570Y006157D01*
X008779Y007536D02*
X008779Y007536D01*
X008301Y009485D02*
X008210Y009485D01*
X008170Y009525D01*
X008170Y009605D02*
X008280Y009605D01*
X008280Y009703D02*
X008170Y009703D01*
X008176Y009802D02*
X008368Y009802D01*
X008280Y009506D02*
X008301Y009485D01*
X002869Y008423D02*
X002020Y008423D01*
X002020Y008324D02*
X002800Y008324D01*
X002800Y008226D02*
X002020Y008226D01*
X002020Y008127D02*
X002819Y008127D01*
X002918Y008029D02*
X002020Y008029D01*
X010130Y002907D02*
X010298Y002907D01*
X010220Y003005D02*
X010705Y003005D01*
X010750Y002907D02*
X010602Y002907D01*
X010771Y002808D02*
X010828Y002808D01*
X010862Y002710D02*
X011021Y002710D01*
X010977Y002611D02*
X010903Y002611D01*
X010930Y002513D02*
X010954Y002513D01*
X010930Y002414D02*
X011400Y002414D01*
X011400Y002513D02*
X011500Y002513D01*
X011500Y002500D02*
X011500Y002948D01*
X011567Y002938D01*
X011642Y002913D01*
X011712Y002878D01*
X011776Y002831D01*
X011831Y002776D01*
X011878Y002712D01*
X011913Y002642D01*
X011938Y002567D01*
X011948Y002500D01*
X011500Y002500D01*
X011500Y002414D02*
X012400Y002414D01*
X012400Y002513D02*
X012500Y002513D01*
X012500Y002611D02*
X012400Y002611D01*
X012400Y002710D02*
X012500Y002710D01*
X012500Y002808D02*
X012400Y002808D01*
X012400Y002907D02*
X012500Y002907D01*
X012245Y002907D02*
X011655Y002907D01*
X011500Y002907D02*
X011400Y002907D01*
X011400Y002808D02*
X011500Y002808D01*
X011500Y002710D02*
X011400Y002710D01*
X011400Y002611D02*
X011500Y002611D01*
X011799Y002808D02*
X012101Y002808D01*
X012021Y002710D02*
X011879Y002710D01*
X011923Y002611D02*
X011977Y002611D01*
X011954Y002513D02*
X011946Y002513D01*
X011932Y002316D02*
X011968Y002316D01*
X012008Y002217D02*
X011892Y002217D01*
X011826Y002119D02*
X012074Y002119D01*
X012500Y002414D02*
X012970Y002414D01*
X012970Y002513D02*
X012946Y002513D01*
X012923Y002611D02*
X012997Y002611D01*
X013038Y002710D02*
X012879Y002710D01*
X012932Y002316D02*
X012986Y002316D01*
X013027Y002217D02*
X012892Y002217D01*
X012826Y002119D02*
X013103Y002119D01*
X011074Y002119D02*
X010797Y002119D01*
X010873Y002217D02*
X011008Y002217D01*
X010968Y002316D02*
X010914Y002316D01*
X010450Y002450D02*
X010450Y002500D01*
X010400Y002550D01*
X015096Y009802D02*
X016450Y009802D01*
X016450Y009900D02*
X015195Y009900D01*
X014950Y009910D02*
X015450Y010410D01*
X015450Y010450D01*
X015792Y010787D02*
X016450Y010787D01*
X016450Y010688D02*
X015871Y010688D01*
X015912Y010590D02*
X016450Y010590D01*
X016450Y010491D02*
X015930Y010491D01*
X015930Y010393D02*
X016450Y010393D01*
X016450Y010294D02*
X015905Y010294D01*
X015864Y010196D02*
X016450Y010196D01*
X016450Y010097D02*
X015776Y010097D01*
X015614Y009999D02*
X016450Y009999D01*
X014950Y009910D02*
X013990Y009910D01*
D11*
X012913Y008588D02*
X012913Y008462D01*
X012787Y008462D01*
X012787Y008588D01*
X012913Y008588D01*
X012913Y008586D02*
X012787Y008586D01*
X012913Y008238D02*
X012913Y008112D01*
X012787Y008112D01*
X012787Y008238D01*
X012913Y008238D01*
X012913Y008236D02*
X012787Y008236D01*
X012013Y008238D02*
X012013Y008112D01*
X011887Y008112D01*
X011887Y008238D01*
X012013Y008238D01*
X012013Y008236D02*
X011887Y008236D01*
X012013Y008462D02*
X012013Y008588D01*
X012013Y008462D02*
X011887Y008462D01*
X011887Y008588D01*
X012013Y008588D01*
X012013Y008586D02*
X011887Y008586D01*
X010287Y008588D02*
X010287Y008462D01*
X010287Y008588D02*
X010413Y008588D01*
X010413Y008462D01*
X010287Y008462D01*
X010287Y008586D02*
X010413Y008586D01*
X010413Y008892D02*
X010413Y009018D01*
X010413Y008892D02*
X010287Y008892D01*
X010287Y009018D01*
X010413Y009018D01*
X010413Y009016D02*
X010287Y009016D01*
X010013Y009018D02*
X010013Y008892D01*
X009887Y008892D01*
X009887Y009018D01*
X010013Y009018D01*
X010013Y009016D02*
X009887Y009016D01*
X010013Y009242D02*
X010013Y009368D01*
X010013Y009242D02*
X009887Y009242D01*
X009887Y009368D01*
X010013Y009368D01*
X010013Y009366D02*
X009887Y009366D01*
X010413Y009368D02*
X010413Y009242D01*
X010287Y009242D01*
X010287Y009368D01*
X010413Y009368D01*
X010413Y009366D02*
X010287Y009366D01*
X009013Y009368D02*
X009013Y009242D01*
X008887Y009242D01*
X008887Y009368D01*
X009013Y009368D01*
X009013Y009366D02*
X008887Y009366D01*
X009013Y009018D02*
X009013Y008892D01*
X008887Y008892D01*
X008887Y009018D01*
X009013Y009018D01*
X009013Y009016D02*
X008887Y009016D01*
X010287Y008238D02*
X010287Y008112D01*
X010287Y008238D02*
X010413Y008238D01*
X010413Y008112D01*
X010287Y008112D01*
X010287Y008236D02*
X010413Y008236D01*
X012512Y007513D02*
X012638Y007513D01*
X012638Y007387D01*
X012512Y007387D01*
X012512Y007513D01*
X012512Y007511D02*
X012638Y007511D01*
X012862Y007513D02*
X012988Y007513D01*
X012988Y007387D01*
X012862Y007387D01*
X012862Y007513D01*
X012862Y007511D02*
X012988Y007511D01*
X014512Y006407D02*
X014638Y006407D01*
X014512Y006407D02*
X014512Y006533D01*
X014638Y006533D01*
X014638Y006407D01*
X014638Y006531D02*
X014512Y006531D01*
X014862Y006407D02*
X014988Y006407D01*
X014862Y006407D02*
X014862Y006533D01*
X014988Y006533D01*
X014988Y006407D01*
X014988Y006531D02*
X014862Y006531D01*
X013913Y006088D02*
X013913Y005962D01*
X013787Y005962D01*
X013787Y006088D01*
X013913Y006088D01*
X013913Y006086D02*
X013787Y006086D01*
X013913Y005738D02*
X013913Y005612D01*
X013787Y005612D01*
X013787Y005738D01*
X013913Y005738D01*
X013913Y005736D02*
X013787Y005736D01*
X009818Y003657D02*
X009692Y003657D01*
X009692Y003783D01*
X009818Y003783D01*
X009818Y003657D01*
X009818Y003781D02*
X009692Y003781D01*
X009468Y003657D02*
X009342Y003657D01*
X009342Y003783D01*
X009468Y003783D01*
X009468Y003657D01*
X009468Y003781D02*
X009342Y003781D01*
X005988Y005513D02*
X005862Y005513D01*
X005988Y005513D02*
X005988Y005387D01*
X005862Y005387D01*
X005862Y005513D01*
X005862Y005511D02*
X005988Y005511D01*
X005638Y005513D02*
X005512Y005513D01*
X005638Y005513D02*
X005638Y005387D01*
X005512Y005387D01*
X005512Y005513D01*
X005512Y005511D02*
X005638Y005511D01*
X005188Y005387D02*
X005062Y005387D01*
X005062Y005513D01*
X005188Y005513D01*
X005188Y005387D01*
X005188Y005511D02*
X005062Y005511D01*
X004838Y005387D02*
X004712Y005387D01*
X004712Y005513D01*
X004838Y005513D01*
X004838Y005387D01*
X004838Y005511D02*
X004712Y005511D01*
X005512Y007743D02*
X005638Y007743D01*
X005638Y007617D01*
X005512Y007617D01*
X005512Y007743D01*
X005512Y007741D02*
X005638Y007741D01*
X005862Y007743D02*
X005988Y007743D01*
X005988Y007617D01*
X005862Y007617D01*
X005862Y007743D01*
X005862Y007741D02*
X005988Y007741D01*
D12*
X003350Y006450D03*
X012350Y009250D03*
X015850Y007950D03*
D13*
X005550Y006922D03*
X005550Y005978D03*
D14*
X013276Y007838D03*
X014024Y007838D03*
X014024Y008862D03*
X013650Y008862D03*
X013276Y008862D03*
D15*
X014860Y005950D03*
X014480Y005150D03*
X015240Y005150D03*
X015220Y004350D03*
X014460Y004350D03*
X014840Y003550D03*
D16*
X012681Y006730D03*
X011579Y006730D03*
X003841Y003810D03*
X002739Y003810D03*
D17*
X006577Y006153D02*
X006723Y006299D01*
X006577Y006153D02*
X006561Y006169D01*
X006707Y006315D01*
X006723Y006299D01*
X006663Y006239D02*
X006631Y006239D01*
X006717Y006014D02*
X006863Y006160D01*
X006717Y006014D02*
X006701Y006030D01*
X006847Y006176D01*
X006863Y006160D01*
X006803Y006100D02*
X006771Y006100D01*
X006856Y005875D02*
X007002Y006021D01*
X006856Y005875D02*
X006840Y005891D01*
X006986Y006037D01*
X007002Y006021D01*
X006942Y005961D02*
X006910Y005961D01*
X006995Y005736D02*
X007141Y005882D01*
X006995Y005736D02*
X006979Y005752D01*
X007125Y005898D01*
X007141Y005882D01*
X007081Y005822D02*
X007049Y005822D01*
X007134Y005596D02*
X007280Y005742D01*
X007134Y005596D02*
X007118Y005612D01*
X007264Y005758D01*
X007280Y005742D01*
X007220Y005682D02*
X007188Y005682D01*
X007273Y005457D02*
X007419Y005603D01*
X007273Y005457D02*
X007257Y005473D01*
X007403Y005619D01*
X007419Y005603D01*
X007359Y005543D02*
X007327Y005543D01*
X007412Y005318D02*
X007558Y005464D01*
X007412Y005318D02*
X007396Y005334D01*
X007542Y005480D01*
X007558Y005464D01*
X007498Y005404D02*
X007466Y005404D01*
X007552Y005179D02*
X007698Y005325D01*
X007552Y005179D02*
X007536Y005195D01*
X007682Y005341D01*
X007698Y005325D01*
X007638Y005265D02*
X007606Y005265D01*
X007691Y005040D02*
X007837Y005186D01*
X007691Y005040D02*
X007675Y005056D01*
X007821Y005202D01*
X007837Y005186D01*
X007777Y005126D02*
X007745Y005126D01*
X007830Y004900D02*
X007976Y005046D01*
X007830Y004900D02*
X007814Y004916D01*
X007960Y005062D01*
X007976Y005046D01*
X007916Y004986D02*
X007884Y004986D01*
X007969Y004761D02*
X008115Y004907D01*
X007969Y004761D02*
X007953Y004777D01*
X008099Y004923D01*
X008115Y004907D01*
X008055Y004847D02*
X008023Y004847D01*
X008401Y004923D02*
X008547Y004777D01*
X008531Y004761D01*
X008385Y004907D01*
X008401Y004923D01*
X008445Y004847D02*
X008477Y004847D01*
X008686Y004916D02*
X008540Y005062D01*
X008686Y004916D02*
X008670Y004900D01*
X008524Y005046D01*
X008540Y005062D01*
X008584Y004986D02*
X008616Y004986D01*
X008825Y005056D02*
X008679Y005202D01*
X008825Y005056D02*
X008809Y005040D01*
X008663Y005186D01*
X008679Y005202D01*
X008723Y005126D02*
X008755Y005126D01*
X008964Y005195D02*
X008818Y005341D01*
X008964Y005195D02*
X008948Y005179D01*
X008802Y005325D01*
X008818Y005341D01*
X008862Y005265D02*
X008894Y005265D01*
X009104Y005334D02*
X008958Y005480D01*
X009104Y005334D02*
X009088Y005318D01*
X008942Y005464D01*
X008958Y005480D01*
X009002Y005404D02*
X009034Y005404D01*
X009243Y005473D02*
X009097Y005619D01*
X009243Y005473D02*
X009227Y005457D01*
X009081Y005603D01*
X009097Y005619D01*
X009141Y005543D02*
X009173Y005543D01*
X009382Y005612D02*
X009236Y005758D01*
X009382Y005612D02*
X009366Y005596D01*
X009220Y005742D01*
X009236Y005758D01*
X009280Y005682D02*
X009312Y005682D01*
X009521Y005752D02*
X009375Y005898D01*
X009521Y005752D02*
X009505Y005736D01*
X009359Y005882D01*
X009375Y005898D01*
X009419Y005822D02*
X009451Y005822D01*
X009660Y005891D02*
X009514Y006037D01*
X009660Y005891D02*
X009644Y005875D01*
X009498Y006021D01*
X009514Y006037D01*
X009558Y005961D02*
X009590Y005961D01*
X009800Y006030D02*
X009654Y006176D01*
X009800Y006030D02*
X009784Y006014D01*
X009638Y006160D01*
X009654Y006176D01*
X009698Y006100D02*
X009730Y006100D01*
X009939Y006169D02*
X009793Y006315D01*
X009939Y006169D02*
X009923Y006153D01*
X009777Y006299D01*
X009793Y006315D01*
X009837Y006239D02*
X009869Y006239D01*
X009777Y006601D02*
X009923Y006747D01*
X009939Y006731D01*
X009793Y006585D01*
X009777Y006601D01*
X009847Y006671D02*
X009879Y006671D01*
X009784Y006886D02*
X009638Y006740D01*
X009784Y006886D02*
X009800Y006870D01*
X009654Y006724D01*
X009638Y006740D01*
X009708Y006810D02*
X009740Y006810D01*
X009644Y007025D02*
X009498Y006879D01*
X009644Y007025D02*
X009660Y007009D01*
X009514Y006863D01*
X009498Y006879D01*
X009568Y006949D02*
X009600Y006949D01*
X009505Y007164D02*
X009359Y007018D01*
X009505Y007164D02*
X009521Y007148D01*
X009375Y007002D01*
X009359Y007018D01*
X009429Y007088D02*
X009461Y007088D01*
X009366Y007304D02*
X009220Y007158D01*
X009366Y007304D02*
X009382Y007288D01*
X009236Y007142D01*
X009220Y007158D01*
X009290Y007228D02*
X009322Y007228D01*
X009227Y007443D02*
X009081Y007297D01*
X009227Y007443D02*
X009243Y007427D01*
X009097Y007281D01*
X009081Y007297D01*
X009151Y007367D02*
X009183Y007367D01*
X009088Y007582D02*
X008942Y007436D01*
X009088Y007582D02*
X009104Y007566D01*
X008958Y007420D01*
X008942Y007436D01*
X009012Y007506D02*
X009044Y007506D01*
X008948Y007721D02*
X008802Y007575D01*
X008948Y007721D02*
X008964Y007705D01*
X008818Y007559D01*
X008802Y007575D01*
X008872Y007645D02*
X008904Y007645D01*
X008809Y007860D02*
X008663Y007714D01*
X008809Y007860D02*
X008825Y007844D01*
X008679Y007698D01*
X008663Y007714D01*
X008733Y007784D02*
X008765Y007784D01*
X008670Y007999D02*
X008524Y007853D01*
X008670Y007999D02*
X008686Y007983D01*
X008540Y007837D01*
X008524Y007853D01*
X008594Y007923D02*
X008626Y007923D01*
X008531Y008139D02*
X008385Y007993D01*
X008531Y008139D02*
X008547Y008123D01*
X008401Y007977D01*
X008385Y007993D01*
X008455Y008063D02*
X008487Y008063D01*
X008099Y007977D02*
X007953Y008123D01*
X007969Y008139D01*
X008115Y007993D01*
X008099Y007977D01*
X008045Y008063D02*
X008013Y008063D01*
X007814Y007983D02*
X007960Y007837D01*
X007814Y007983D02*
X007830Y007999D01*
X007976Y007853D01*
X007960Y007837D01*
X007906Y007923D02*
X007874Y007923D01*
X007675Y007844D02*
X007821Y007698D01*
X007675Y007844D02*
X007691Y007860D01*
X007837Y007714D01*
X007821Y007698D01*
X007767Y007784D02*
X007735Y007784D01*
X007536Y007705D02*
X007682Y007559D01*
X007536Y007705D02*
X007552Y007721D01*
X007698Y007575D01*
X007682Y007559D01*
X007628Y007645D02*
X007596Y007645D01*
X007396Y007566D02*
X007542Y007420D01*
X007396Y007566D02*
X007412Y007582D01*
X007558Y007436D01*
X007542Y007420D01*
X007488Y007506D02*
X007456Y007506D01*
X007257Y007427D02*
X007403Y007281D01*
X007257Y007427D02*
X007273Y007443D01*
X007419Y007297D01*
X007403Y007281D01*
X007349Y007367D02*
X007317Y007367D01*
X007118Y007288D02*
X007264Y007142D01*
X007118Y007288D02*
X007134Y007304D01*
X007280Y007158D01*
X007264Y007142D01*
X007210Y007228D02*
X007178Y007228D01*
X006979Y007148D02*
X007125Y007002D01*
X006979Y007148D02*
X006995Y007164D01*
X007141Y007018D01*
X007125Y007002D01*
X007071Y007088D02*
X007039Y007088D01*
X006840Y007009D02*
X006986Y006863D01*
X006840Y007009D02*
X006856Y007025D01*
X007002Y006879D01*
X006986Y006863D01*
X006932Y006949D02*
X006900Y006949D01*
X006701Y006870D02*
X006847Y006724D01*
X006701Y006870D02*
X006717Y006886D01*
X006863Y006740D01*
X006847Y006724D01*
X006793Y006810D02*
X006761Y006810D01*
X006561Y006731D02*
X006707Y006585D01*
X006561Y006731D02*
X006577Y006747D01*
X006723Y006601D01*
X006707Y006585D01*
X006653Y006671D02*
X006621Y006671D01*
D18*
X007041Y006450D02*
X008250Y005241D01*
X007041Y006450D02*
X008250Y007659D01*
X009459Y006450D01*
X008250Y005241D01*
X008439Y005430D02*
X008061Y005430D01*
X007872Y005619D02*
X008628Y005619D01*
X008817Y005808D02*
X007683Y005808D01*
X007494Y005997D02*
X009006Y005997D01*
X009195Y006186D02*
X007305Y006186D01*
X007116Y006375D02*
X009384Y006375D01*
X009345Y006564D02*
X007155Y006564D01*
X007344Y006753D02*
X009156Y006753D01*
X008967Y006942D02*
X007533Y006942D01*
X007722Y007131D02*
X008778Y007131D01*
X008589Y007320D02*
X007911Y007320D01*
X008100Y007509D02*
X008400Y007509D01*
D19*
X011200Y005560D03*
X011200Y004650D03*
X011200Y003740D03*
D20*
X013640Y004650D03*
D21*
X009450Y008677D03*
X009450Y009583D03*
D22*
X009450Y010450D03*
X008450Y010450D03*
X007450Y010450D03*
X006450Y010450D03*
X005450Y010450D03*
X004450Y010450D03*
X003450Y010450D03*
X002450Y010450D03*
X010450Y010450D03*
X011450Y010450D03*
X012450Y010450D03*
X013450Y010450D03*
X014450Y010450D03*
X015450Y010450D03*
X015450Y002450D03*
X014450Y002450D03*
X013450Y002450D03*
X012450Y002450D03*
X011450Y002450D03*
X010450Y002450D03*
X009450Y002450D03*
X008450Y002450D03*
X007450Y002450D03*
X006450Y002450D03*
X005450Y002450D03*
X004450Y002450D03*
X003450Y002450D03*
X002450Y002450D03*
D23*
X002450Y009450D03*
X003450Y009450D03*
X004450Y009450D03*
D24*
X010662Y009388D02*
X010662Y009112D01*
X010662Y009388D02*
X010838Y009388D01*
X010838Y009112D01*
X010662Y009112D01*
X010662Y009286D02*
X010838Y009286D01*
X011462Y009388D02*
X011462Y009112D01*
X011462Y009388D02*
X011638Y009388D01*
X011638Y009112D01*
X011462Y009112D01*
X011462Y009286D02*
X011638Y009286D01*
X011462Y008388D02*
X011462Y008112D01*
X011462Y008388D02*
X011638Y008388D01*
X011638Y008112D01*
X011462Y008112D01*
X011462Y008286D02*
X011638Y008286D01*
X010662Y008388D02*
X010662Y008112D01*
X010662Y008388D02*
X010838Y008388D01*
X010838Y008112D01*
X010662Y008112D01*
X010662Y008286D02*
X010838Y008286D01*
D25*
X010770Y008770D03*
X010440Y009450D03*
X010750Y009550D03*
X010950Y009910D03*
X009970Y009670D03*
X008530Y009610D03*
X008780Y008540D03*
X010000Y007550D03*
X009630Y007480D03*
X010460Y007540D03*
X010470Y007190D03*
X010550Y006630D03*
X011000Y006550D03*
X010940Y006190D03*
X011320Y006100D03*
X011970Y005760D03*
X012310Y005870D03*
X012350Y005190D03*
X012020Y005050D03*
X011910Y004170D03*
X012260Y004110D03*
X011900Y003810D03*
X011930Y003430D03*
X011000Y002990D03*
X009970Y003100D03*
X009720Y003350D03*
X008950Y002930D03*
X007450Y004180D03*
X007790Y004290D03*
X007450Y004580D03*
X008110Y005950D03*
X007750Y006350D03*
X010050Y006410D03*
X010480Y005410D03*
X009870Y004790D03*
X012990Y003830D03*
X012970Y003110D03*
X014330Y003550D03*
X014650Y003400D03*
X016050Y003150D03*
X016350Y002950D03*
X016050Y002750D03*
X016350Y002550D03*
X016350Y002150D03*
X016350Y003350D03*
X016350Y003750D03*
X016050Y003950D03*
X016350Y004150D03*
X016050Y004350D03*
X016350Y004550D03*
X016050Y004750D03*
X016350Y004950D03*
X016050Y005150D03*
X016350Y005350D03*
X016350Y005750D03*
X016350Y006150D03*
X015960Y007100D03*
X015610Y007100D03*
X015250Y007450D03*
X015250Y007850D03*
X015250Y008250D03*
X015250Y008650D03*
X015250Y009050D03*
X015650Y009050D03*
X016050Y009250D03*
X015650Y009450D03*
X015250Y009450D03*
X015950Y009750D03*
X016050Y010250D03*
X013990Y009910D03*
X011950Y010030D03*
X012270Y007630D03*
X013280Y005070D03*
X016380Y007550D03*
X016380Y007950D03*
X016380Y008350D03*
X016100Y008610D03*
X005950Y002850D03*
X002650Y005850D03*
X002250Y005850D03*
X002250Y007050D03*
X002650Y007050D03*
X003050Y008250D03*
X004960Y007630D03*
X005410Y007010D03*
X005120Y006710D03*
X004850Y006410D03*
X005110Y006200D03*
X005030Y009550D03*
D26*
X005050Y008950D02*
X004150Y008950D01*
X003950Y009150D01*
X003950Y009950D01*
X004450Y010450D01*
X002950Y009850D02*
X002450Y010350D01*
X002450Y010450D01*
X002950Y009850D02*
X002950Y008950D01*
X003150Y008750D01*
X006785Y008750D01*
X007540Y009180D02*
X007570Y009150D01*
X007850Y009150D01*
X008050Y008950D01*
X008050Y008473D01*
X008466Y008058D01*
X008605Y007918D02*
X008638Y007918D01*
X008638Y007938D01*
X008750Y008050D01*
X008750Y008190D01*
X008500Y008440D01*
X008500Y009155D01*
X008650Y009305D01*
X009450Y008677D02*
X009450Y008485D01*
X008744Y007779D01*
X008749Y007779D01*
X009070Y008100D01*
X009070Y008250D01*
X008780Y008540D01*
X009697Y008175D02*
X010350Y008175D01*
X010664Y008175D01*
X010739Y008250D01*
X010750Y008250D01*
X010460Y007540D02*
X010430Y007540D01*
X009960Y007070D01*
X009705Y007070D01*
X009579Y006944D01*
X009440Y007083D02*
X009587Y007230D01*
X009730Y007230D01*
X010000Y007500D01*
X010000Y007550D01*
X009630Y007480D02*
X009558Y007480D01*
X009301Y007223D01*
X009162Y007362D02*
X009610Y007810D01*
X012110Y007810D01*
X012250Y007950D01*
X012250Y008350D01*
X012075Y008525D01*
X011950Y008525D01*
X011950Y008767D02*
X011550Y009167D01*
X011550Y009250D01*
X009697Y008175D02*
X009023Y007501D01*
X009719Y006805D02*
X009824Y006910D01*
X010110Y006910D01*
X010340Y007140D01*
X010470Y007190D01*
X010470Y006710D02*
X009902Y006710D01*
X009858Y006666D01*
X010150Y006250D02*
X010150Y006150D01*
X009950Y005950D01*
X009864Y005950D01*
X009770Y005790D02*
X009604Y005956D01*
X009579Y005956D01*
X009440Y005817D02*
X009637Y005620D01*
X010130Y005620D01*
X010700Y006190D01*
X010940Y006190D01*
X011140Y005940D02*
X010670Y005940D01*
X010190Y005460D01*
X009518Y005460D01*
X009301Y005677D01*
X009162Y005538D02*
X009400Y005300D01*
X010370Y005300D01*
X010480Y005410D01*
X010610Y005190D02*
X011780Y005190D01*
X011950Y005360D01*
X011950Y005740D01*
X011970Y005760D01*
X011320Y006100D02*
X011280Y006080D01*
X011140Y005940D01*
X011000Y006550D02*
X010820Y006550D01*
X010060Y005790D01*
X009770Y005790D01*
X009290Y005140D02*
X009031Y005399D01*
X009023Y005399D01*
X008883Y005260D02*
X009793Y004350D01*
X010270Y004350D01*
X010470Y004550D01*
X010470Y004810D01*
X010680Y005020D01*
X011990Y005020D01*
X012020Y005050D01*
X011890Y004190D02*
X011910Y004170D01*
X011890Y004190D02*
X009675Y004190D01*
X008744Y005121D01*
X008605Y004981D02*
X009586Y004000D01*
X009900Y004000D01*
X010050Y003850D01*
X010050Y003690D01*
X010310Y003430D01*
X010520Y003430D01*
X010960Y002990D01*
X011000Y002990D01*
X011050Y002550D02*
X010540Y003060D01*
X010410Y003060D01*
X009760Y003710D01*
X009405Y003720D02*
X009405Y003903D01*
X009058Y004250D01*
X008770Y003930D02*
X010150Y002550D01*
X010400Y002550D01*
X011050Y002550D02*
X011320Y002550D01*
X011460Y002410D01*
X008770Y003930D02*
X008520Y003930D01*
X007610Y004840D01*
X007610Y004975D01*
X007756Y005121D01*
X006950Y004250D02*
X006950Y003750D01*
X007030Y003670D01*
X007430Y003670D01*
X007750Y003350D01*
X007850Y003350D01*
X009290Y005140D02*
X010560Y005140D01*
X010610Y005190D01*
X010550Y006630D02*
X010470Y006710D01*
X007060Y007083D02*
X006723Y007420D01*
X005221Y007420D01*
X004860Y007059D01*
X004860Y006420D01*
X004850Y006410D01*
X005120Y006710D02*
X005120Y007080D01*
X005300Y007260D01*
X006585Y007260D01*
X006921Y006944D01*
X004830Y005395D02*
X004830Y003630D01*
X004830Y005395D02*
X004775Y005450D01*
D27*
X005100Y005840D03*
X006450Y006450D03*
X007750Y005950D03*
X008750Y005950D03*
X008750Y006950D03*
X007750Y006950D03*
X006450Y008250D03*
X006050Y008250D03*
X005650Y008250D03*
X004890Y007990D03*
X007290Y009470D03*
X007540Y009180D03*
X007700Y008820D03*
X007950Y009950D03*
X006050Y009850D03*
X005550Y004850D03*
X004510Y004440D03*
X003430Y004790D03*
X002370Y003390D03*
X004950Y002900D03*
X007390Y003330D03*
X007860Y003660D03*
X008570Y003650D03*
X008640Y004230D03*
X008250Y004660D03*
X010420Y003700D03*
X012530Y003840D03*
X012850Y004170D03*
X013050Y004360D03*
X014870Y004830D03*
X015640Y004310D03*
X015430Y003970D03*
X015810Y003450D03*
X014940Y002870D03*
X014250Y006050D03*
X013450Y006050D03*
X013450Y006850D03*
X014250Y006850D03*
X014910Y007690D03*
X013680Y007810D03*
X014250Y009390D03*
D28*
X014024Y008862D02*
X014024Y008776D01*
X014450Y008350D01*
X014450Y007450D01*
X014350Y007350D01*
X014630Y007350D01*
X014870Y007110D01*
X015190Y007110D01*
X015430Y006870D01*
X015430Y005340D01*
X015240Y005150D01*
X014870Y004830D02*
X014870Y005940D01*
X014390Y005350D02*
X014065Y005675D01*
X013850Y005675D01*
X013225Y005675D01*
X012750Y006150D01*
X011910Y006150D01*
X011480Y005720D01*
X011480Y005560D01*
X011200Y005560D01*
X012681Y006730D02*
X012850Y006730D01*
X013110Y006470D01*
X013670Y006470D01*
X013830Y006630D01*
X013830Y007110D01*
X014070Y007350D01*
X014350Y007350D01*
X011950Y008175D02*
X011636Y008175D01*
X014390Y005350D02*
X014390Y005240D01*
X014480Y005150D01*
X013670Y004620D02*
X013640Y004650D01*
X013670Y004620D02*
X013670Y004230D01*
X013950Y003950D01*
X013910Y003910D01*
X013950Y003950D02*
X015230Y003950D01*
X015280Y003900D01*
X015400Y003900D01*
X013450Y003250D02*
X013450Y002450D01*
X013450Y003250D02*
X013190Y003510D01*
X012010Y003510D01*
X011930Y003430D01*
X002739Y003659D02*
X002370Y003390D01*
X002739Y003659D02*
X002739Y003810D01*
D29*
X003510Y005470D03*
X003510Y007430D03*
D30*
X002450Y007830D03*
X002450Y005070D03*
D31*
X011200Y003740D02*
X011450Y003490D01*
X011450Y002450D01*
X011450Y002420D01*
X011460Y002410D01*
X011450Y002450D02*
X012450Y002450D01*
D32*
X013850Y003150D02*
X013850Y003850D01*
X013910Y003910D01*
X013640Y004650D02*
X013070Y004630D01*
X013050Y004360D01*
X012850Y004170D01*
X013250Y004650D02*
X011200Y004650D01*
X013250Y004650D02*
X013640Y004650D01*
X013850Y003150D02*
X014450Y002550D01*
X014450Y002450D01*
D33*
X013250Y004650D02*
X013280Y004680D01*
X013280Y005070D01*
X003990Y004950D02*
X003830Y004790D01*
X003430Y004790D01*
X002739Y004121D02*
X002739Y003810D01*
M02*
