G75*
G70*
%OFA0B0*%
%FSLAX24Y24*%
%IPPOS*%
%LPD*%
%AMOC8*
5,1,8,0,0,1.08239X$1,22.5*
%
%ADD10C,0.0100*%
%ADD11C,0.0600*%
%ADD12C,0.0240*%
%ADD13C,0.0270*%
%ADD14C,0.0320*%
%ADD15C,0.0160*%
%ADD16C,0.0400*%
%ADD17C,0.0080*%
%ADD18C,0.0120*%
%ADD19C,0.0240*%
D10*
X001820Y001850D02*
X016150Y001840D01*
X016150Y004250D01*
X017550Y005650D01*
X017550Y009850D01*
X017530Y009870D02*
X016350Y011050D01*
X001820Y011060D01*
X001820Y001850D01*
X002757Y002149D02*
X002815Y002206D01*
X002880Y002364D01*
X002880Y002536D01*
X002815Y002694D01*
X002694Y002815D01*
X002536Y002880D01*
X002364Y002880D01*
X002206Y002815D01*
X002120Y002728D01*
X002120Y002965D01*
X002217Y002925D01*
X002323Y002925D01*
X002420Y002965D01*
X002495Y003040D01*
X002535Y003137D01*
X002535Y003243D01*
X002495Y003340D01*
X002420Y003415D01*
X002323Y003455D01*
X002217Y003455D01*
X002120Y003415D01*
X002120Y009172D01*
X002206Y009085D01*
X002364Y009020D01*
X002536Y009020D01*
X002694Y009085D01*
X002815Y009206D01*
X002880Y009364D01*
X002880Y009536D01*
X002815Y009694D01*
X002694Y009815D01*
X002536Y009880D01*
X002364Y009880D01*
X002206Y009815D01*
X002120Y009728D01*
X002120Y010172D01*
X002206Y010085D01*
X002364Y010020D01*
X002536Y010020D01*
X002694Y010085D01*
X002815Y010206D01*
X002880Y010364D01*
X002880Y010536D01*
X002815Y010694D01*
X002749Y010759D01*
X003151Y010759D01*
X003085Y010694D01*
X003020Y010536D01*
X003020Y010364D01*
X003085Y010206D01*
X003206Y010085D01*
X003364Y010020D01*
X003536Y010020D01*
X003694Y010085D01*
X003815Y010206D01*
X003880Y010364D01*
X003880Y010536D01*
X003815Y010694D01*
X003749Y010759D01*
X004150Y010758D01*
X004085Y010694D01*
X004020Y010536D01*
X004020Y010364D01*
X004085Y010206D01*
X004206Y010085D01*
X004364Y010020D01*
X004536Y010020D01*
X004694Y010085D01*
X004815Y010206D01*
X004880Y010364D01*
X004880Y010536D01*
X004815Y010694D01*
X004750Y010758D01*
X005150Y010758D01*
X005085Y010694D01*
X005020Y010536D01*
X005020Y010364D01*
X005085Y010206D01*
X005206Y010085D01*
X005364Y010020D01*
X005536Y010020D01*
X005694Y010085D01*
X005815Y010206D01*
X005880Y010364D01*
X005880Y010536D01*
X005815Y010694D01*
X005751Y010757D01*
X006149Y010757D01*
X006085Y010694D01*
X006020Y010536D01*
X006020Y010364D01*
X006085Y010206D01*
X006206Y010085D01*
X006364Y010020D01*
X006536Y010020D01*
X006694Y010085D01*
X006815Y010206D01*
X006880Y010364D01*
X006880Y010536D01*
X006815Y010694D01*
X006752Y010757D01*
X007148Y010756D01*
X007085Y010694D01*
X007020Y010536D01*
X007020Y010364D01*
X007085Y010206D01*
X007206Y010085D01*
X007316Y010040D01*
X007147Y010040D01*
X007127Y010060D01*
X006953Y010060D01*
X005840Y008947D01*
X005840Y008773D01*
X005860Y008753D01*
X005860Y008435D01*
X005825Y008400D01*
X005785Y008303D01*
X005785Y008197D01*
X005825Y008100D01*
X005900Y008025D01*
X005997Y007985D01*
X006103Y007985D01*
X006200Y008025D01*
X006250Y008075D01*
X006300Y008025D01*
X006397Y007985D01*
X006503Y007985D01*
X006600Y008025D01*
X006675Y008100D01*
X006715Y008197D01*
X006715Y008303D01*
X006675Y008400D01*
X006600Y008475D01*
X006503Y008515D01*
X006397Y008515D01*
X006300Y008475D01*
X006250Y008425D01*
X006240Y008435D01*
X006240Y008753D01*
X007036Y009549D01*
X007025Y009523D01*
X007025Y009417D01*
X007065Y009320D01*
X007140Y009245D01*
X007237Y009205D01*
X007275Y009205D01*
X007275Y009127D01*
X007315Y009030D01*
X007390Y008955D01*
X007458Y008927D01*
X007435Y008873D01*
X007435Y008767D01*
X007475Y008670D01*
X007550Y008595D01*
X007647Y008555D01*
X007753Y008555D01*
X007850Y008595D01*
X007925Y008670D01*
X007965Y008767D01*
X007965Y008866D01*
X008171Y008660D01*
X009271Y008660D01*
X009571Y008360D01*
X012171Y008360D01*
X013416Y007115D01*
X013397Y007115D01*
X013300Y007075D01*
X013225Y007000D01*
X013185Y006903D01*
X013185Y006797D01*
X013225Y006700D01*
X013300Y006625D01*
X013397Y006585D01*
X013503Y006585D01*
X013600Y006625D01*
X013660Y006685D01*
X013660Y006215D01*
X013600Y006275D01*
X013503Y006315D01*
X013397Y006315D01*
X013300Y006275D01*
X013225Y006200D01*
X013185Y006103D01*
X013185Y005997D01*
X013225Y005900D01*
X013300Y005825D01*
X013397Y005785D01*
X013503Y005785D01*
X013600Y005825D01*
X013660Y005885D01*
X013660Y004860D01*
X012184Y004860D01*
X012232Y004908D01*
X012253Y004960D01*
X012300Y004940D01*
X012400Y004940D01*
X012492Y004978D01*
X012562Y005048D01*
X012600Y005140D01*
X012600Y005171D01*
X012840Y005411D01*
X012840Y007183D01*
X012841Y007184D01*
X012840Y007261D01*
X012840Y007339D01*
X012839Y007340D01*
X012839Y007341D01*
X012783Y007395D01*
X012729Y007450D01*
X012727Y007450D01*
X012520Y007652D01*
X012520Y007680D01*
X012482Y007772D01*
X012412Y007842D01*
X012320Y007880D01*
X012220Y007880D01*
X012128Y007842D01*
X012058Y007772D01*
X012020Y007680D01*
X012020Y007580D01*
X012058Y007488D01*
X012128Y007418D01*
X012220Y007380D01*
X012254Y007380D01*
X012460Y007180D01*
X012460Y006074D01*
X012452Y006082D01*
X012360Y006120D01*
X012260Y006120D01*
X012168Y006082D01*
X012098Y006012D01*
X012086Y005983D01*
X012020Y006010D01*
X011920Y006010D01*
X011828Y005972D01*
X011758Y005902D01*
X011720Y005810D01*
X011720Y005710D01*
X011758Y005618D01*
X011828Y005548D01*
X011920Y005510D01*
X012020Y005510D01*
X012112Y005548D01*
X012182Y005618D01*
X012194Y005647D01*
X012260Y005620D01*
X012360Y005620D01*
X012452Y005658D01*
X012460Y005666D01*
X012460Y005569D01*
X012331Y005440D01*
X012300Y005440D01*
X012208Y005402D01*
X012138Y005332D01*
X012117Y005280D01*
X012070Y005300D01*
X011970Y005300D01*
X011878Y005262D01*
X011808Y005192D01*
X011770Y005100D01*
X011770Y005000D01*
X011808Y004908D01*
X011856Y004860D01*
X010663Y004860D01*
X010304Y004501D01*
X010320Y004540D01*
X010320Y004640D01*
X010282Y004732D01*
X010212Y004802D01*
X010120Y004840D01*
X010020Y004840D01*
X009928Y004802D01*
X009858Y004732D01*
X009820Y004640D01*
X009820Y004540D01*
X009858Y004448D01*
X009928Y004378D01*
X010020Y004340D01*
X010120Y004340D01*
X010159Y004356D01*
X010063Y004260D01*
X009463Y004260D01*
X008433Y003230D01*
X007635Y003230D01*
X007655Y003277D01*
X007655Y003383D01*
X007615Y003480D01*
X007540Y003555D01*
X007443Y003595D01*
X007337Y003595D01*
X007240Y003555D01*
X007165Y003480D01*
X007142Y003424D01*
X006830Y003737D01*
X006737Y003830D01*
X006616Y003880D01*
X004287Y003880D01*
X003760Y004407D01*
X003760Y004856D01*
X003710Y004977D01*
X003617Y005070D01*
X003496Y005120D01*
X003364Y005120D01*
X003243Y005070D01*
X003150Y004977D01*
X003100Y004856D01*
X003100Y004204D01*
X003150Y004083D01*
X003243Y003990D01*
X003963Y003270D01*
X004084Y003220D01*
X006413Y003220D01*
X006863Y002770D01*
X006984Y002720D01*
X007112Y002720D01*
X007085Y002694D01*
X007020Y002536D01*
X007020Y002364D01*
X007085Y002206D01*
X007146Y002146D01*
X006755Y002147D01*
X006815Y002206D01*
X006880Y002364D01*
X006880Y002536D01*
X006815Y002694D01*
X006694Y002815D01*
X006536Y002880D01*
X006364Y002880D01*
X006206Y002815D01*
X006200Y002808D01*
X006200Y002900D01*
X006162Y002992D01*
X006092Y003062D01*
X006000Y003100D01*
X005900Y003100D01*
X005808Y003062D01*
X005738Y002992D01*
X005700Y002900D01*
X005700Y002808D01*
X005694Y002815D01*
X005536Y002880D01*
X005364Y002880D01*
X005305Y002855D01*
X005305Y002953D01*
X005265Y003050D01*
X005190Y003125D01*
X005093Y003165D01*
X004987Y003165D01*
X004890Y003125D01*
X004815Y003050D01*
X004775Y002953D01*
X004775Y002847D01*
X004815Y002750D01*
X004890Y002675D01*
X004987Y002635D01*
X005061Y002635D01*
X005020Y002536D01*
X005020Y002364D01*
X005085Y002206D01*
X005144Y002148D01*
X004756Y002148D01*
X004815Y002206D01*
X004880Y002364D01*
X004880Y002536D01*
X004815Y002694D01*
X004694Y002815D01*
X004536Y002880D01*
X004364Y002880D01*
X004206Y002815D01*
X004085Y002694D01*
X004020Y002536D01*
X004020Y002364D01*
X004085Y002206D01*
X004144Y002148D01*
X003757Y002149D01*
X003815Y002206D01*
X003880Y002364D01*
X003880Y002536D01*
X003815Y002694D01*
X003694Y002815D01*
X003536Y002880D01*
X003364Y002880D01*
X003206Y002815D01*
X003085Y002694D01*
X003020Y002536D01*
X003020Y002364D01*
X003085Y002206D01*
X003143Y002149D01*
X002757Y002149D01*
X002816Y002211D02*
X003084Y002211D01*
X003043Y002310D02*
X002857Y002310D01*
X002880Y002408D02*
X003020Y002408D01*
X003020Y002507D02*
X002880Y002507D01*
X002851Y002605D02*
X003049Y002605D01*
X003095Y002704D02*
X002805Y002704D01*
X002706Y002802D02*
X003194Y002802D01*
X003706Y002802D02*
X004194Y002802D01*
X004095Y002704D02*
X003805Y002704D01*
X003851Y002605D02*
X004049Y002605D01*
X004020Y002507D02*
X003880Y002507D01*
X003880Y002408D02*
X004020Y002408D01*
X004043Y002310D02*
X003857Y002310D01*
X003816Y002211D02*
X004084Y002211D01*
X004816Y002211D02*
X005084Y002211D01*
X005043Y002310D02*
X004857Y002310D01*
X004880Y002408D02*
X005020Y002408D01*
X005020Y002507D02*
X004880Y002507D01*
X004851Y002605D02*
X005049Y002605D01*
X004862Y002704D02*
X004805Y002704D01*
X004794Y002802D02*
X004706Y002802D01*
X004775Y002901D02*
X002120Y002901D01*
X002120Y002802D02*
X002194Y002802D01*
X002454Y002999D02*
X004794Y002999D01*
X004863Y003098D02*
X002519Y003098D01*
X002535Y003196D02*
X006437Y003196D01*
X006536Y003098D02*
X006006Y003098D01*
X005894Y003098D02*
X005217Y003098D01*
X005286Y002999D02*
X005745Y002999D01*
X005700Y002901D02*
X005305Y002901D01*
X006155Y002999D02*
X006634Y002999D01*
X006733Y002901D02*
X006200Y002901D01*
X006706Y002802D02*
X006831Y002802D01*
X006805Y002704D02*
X007095Y002704D01*
X007049Y002605D02*
X006851Y002605D01*
X006880Y002507D02*
X007020Y002507D01*
X007020Y002408D02*
X006880Y002408D01*
X006857Y002310D02*
X007043Y002310D01*
X007084Y002211D02*
X006816Y002211D01*
X007100Y003000D02*
X007050Y003050D01*
X007100Y003000D02*
X007660Y003000D01*
X007710Y003050D01*
X008550Y003050D01*
X008697Y002901D02*
X008700Y002901D01*
X008700Y002903D02*
X008700Y002880D01*
X008738Y002788D01*
X008808Y002718D01*
X008900Y002680D01*
X009000Y002680D01*
X009092Y002718D01*
X009162Y002788D01*
X009200Y002880D01*
X009200Y002980D01*
X009162Y003072D01*
X009092Y003142D01*
X009000Y003180D01*
X008977Y003180D01*
X009637Y003840D01*
X010237Y003840D01*
X010360Y003963D01*
X010837Y004440D01*
X013563Y004440D01*
X014338Y003665D01*
X014317Y003665D01*
X014220Y003625D01*
X014145Y003550D01*
X014105Y003453D01*
X014105Y003347D01*
X014145Y003250D01*
X014220Y003175D01*
X014317Y003135D01*
X014423Y003135D01*
X014467Y003153D01*
X014498Y003078D01*
X014568Y003008D01*
X014660Y002970D01*
X014695Y002970D01*
X014675Y002923D01*
X014675Y002840D01*
X014623Y002867D01*
X014555Y002889D01*
X014500Y002898D01*
X014500Y002500D01*
X014898Y002500D01*
X014889Y002555D01*
X014871Y002612D01*
X014887Y002605D01*
X014873Y002605D01*
X014887Y002605D02*
X014993Y002605D01*
X015049Y002605D01*
X015060Y002633D02*
X015020Y002536D01*
X015020Y002364D01*
X015085Y002206D01*
X015151Y002141D01*
X014777Y002141D01*
X014793Y002157D01*
X014835Y002214D01*
X014867Y002277D01*
X014889Y002345D01*
X014898Y002400D01*
X014500Y002400D01*
X014500Y002500D01*
X014400Y002500D01*
X014400Y002898D01*
X014345Y002889D01*
X014277Y002867D01*
X014214Y002835D01*
X014157Y002793D01*
X014107Y002743D01*
X014065Y002686D01*
X014033Y002623D01*
X014011Y002555D01*
X014002Y002500D01*
X014400Y002500D01*
X014400Y002400D01*
X014002Y002400D01*
X014011Y002345D01*
X014033Y002277D01*
X014065Y002214D01*
X014107Y002157D01*
X014122Y002141D01*
X013750Y002142D01*
X013815Y002206D01*
X013880Y002364D01*
X013880Y002536D01*
X013815Y002694D01*
X013694Y002815D01*
X013640Y002837D01*
X013640Y003229D01*
X013529Y003340D01*
X013179Y003690D01*
X013163Y003690D01*
X013200Y003780D01*
X013200Y003880D01*
X013162Y003972D01*
X013092Y004042D01*
X013000Y004080D01*
X012900Y004080D01*
X012808Y004042D01*
X012755Y003989D01*
X012755Y003990D01*
X012680Y004065D01*
X012583Y004105D01*
X012510Y004105D01*
X012510Y004160D01*
X012472Y004252D01*
X012402Y004322D01*
X012310Y004360D01*
X012210Y004360D01*
X012118Y004322D01*
X012115Y004319D01*
X012052Y004382D01*
X011960Y004420D01*
X011860Y004420D01*
X011768Y004382D01*
X011698Y004312D01*
X011660Y004220D01*
X011660Y004120D01*
X011698Y004028D01*
X011731Y003995D01*
X011688Y003952D01*
X011650Y003860D01*
X011650Y003760D01*
X011688Y003668D01*
X011751Y003605D01*
X011718Y003572D01*
X011680Y003480D01*
X011680Y003380D01*
X011718Y003288D01*
X011788Y003218D01*
X011880Y003180D01*
X011980Y003180D01*
X012072Y003218D01*
X012142Y003288D01*
X012151Y003310D01*
X012816Y003310D01*
X012758Y003252D01*
X012720Y003160D01*
X012720Y003060D01*
X012758Y002968D01*
X012828Y002898D01*
X012920Y002860D01*
X013020Y002860D01*
X013112Y002898D01*
X013182Y002968D01*
X013220Y003060D01*
X013220Y003111D01*
X013260Y003071D01*
X013260Y002837D01*
X013206Y002815D01*
X013085Y002694D01*
X013020Y002536D01*
X013020Y002364D01*
X013085Y002206D01*
X013150Y002142D01*
X012750Y002142D01*
X012815Y002206D01*
X012880Y002364D01*
X012880Y002536D01*
X012815Y002694D01*
X012694Y002815D01*
X012536Y002880D01*
X012364Y002880D01*
X012206Y002815D01*
X012085Y002694D01*
X012020Y002536D01*
X012020Y002364D01*
X012085Y002206D01*
X012149Y002143D01*
X011751Y002143D01*
X011815Y002206D01*
X011880Y002364D01*
X011880Y002536D01*
X011815Y002694D01*
X011694Y002815D01*
X011536Y002880D01*
X011425Y002880D01*
X011450Y002940D01*
X011450Y003040D01*
X011412Y003132D01*
X011342Y003202D01*
X011250Y003240D01*
X011150Y003240D01*
X011058Y003202D01*
X010988Y003132D01*
X010950Y003040D01*
X010950Y002940D01*
X010988Y002848D01*
X011058Y002778D01*
X011137Y002745D01*
X011085Y002694D01*
X011020Y002536D01*
X011020Y002364D01*
X011085Y002206D01*
X011148Y002143D01*
X010752Y002144D01*
X010815Y002206D01*
X010880Y002364D01*
X010880Y002536D01*
X010815Y002694D01*
X010694Y002815D01*
X010536Y002880D01*
X010364Y002880D01*
X010344Y002871D01*
X010360Y002910D01*
X010360Y003010D01*
X010322Y003102D01*
X010252Y003172D01*
X010160Y003210D01*
X010060Y003210D01*
X009968Y003172D01*
X009898Y003102D01*
X009860Y003010D01*
X009860Y002910D01*
X009898Y002818D01*
X009968Y002748D01*
X010060Y002710D01*
X010102Y002710D01*
X010085Y002694D01*
X010020Y002536D01*
X010020Y002364D01*
X010085Y002206D01*
X010148Y002144D01*
X009753Y002144D01*
X009815Y002206D01*
X009880Y002364D01*
X009880Y002536D01*
X009815Y002694D01*
X009694Y002815D01*
X009536Y002880D01*
X009364Y002880D01*
X009206Y002815D01*
X009085Y002694D01*
X009020Y002536D01*
X009020Y002364D01*
X009085Y002206D01*
X009147Y002145D01*
X008753Y002145D01*
X008815Y002206D01*
X008880Y002364D01*
X008880Y002536D01*
X008815Y002694D01*
X008694Y002815D01*
X008632Y002840D01*
X008637Y002840D01*
X008700Y002903D01*
X008706Y002802D02*
X008732Y002802D01*
X008805Y002704D02*
X008844Y002704D01*
X008851Y002605D02*
X009049Y002605D01*
X009056Y002704D02*
X009095Y002704D01*
X009168Y002802D02*
X009194Y002802D01*
X009200Y002901D02*
X009864Y002901D01*
X009860Y002999D02*
X009192Y002999D01*
X009136Y003098D02*
X009896Y003098D01*
X009862Y003138D02*
X009932Y003208D01*
X009970Y003300D01*
X009970Y003400D01*
X009932Y003492D01*
X009862Y003562D01*
X009770Y003600D01*
X009670Y003600D01*
X009578Y003562D01*
X009508Y003492D01*
X009470Y003400D01*
X009470Y003300D01*
X009508Y003208D01*
X009578Y003138D01*
X009670Y003100D01*
X009770Y003100D01*
X009862Y003138D01*
X009920Y003196D02*
X010026Y003196D01*
X009968Y003295D02*
X011716Y003295D01*
X011680Y003393D02*
X009970Y003393D01*
X009932Y003492D02*
X011685Y003492D01*
X011736Y003590D02*
X009794Y003590D01*
X009646Y003590D02*
X009387Y003590D01*
X009288Y003492D02*
X009508Y003492D01*
X009470Y003393D02*
X009190Y003393D01*
X009091Y003295D02*
X009472Y003295D01*
X009520Y003196D02*
X008993Y003196D01*
X008596Y003393D02*
X007651Y003393D01*
X007710Y003435D02*
X007807Y003395D01*
X007913Y003395D01*
X008010Y003435D01*
X008085Y003510D01*
X008125Y003607D01*
X008125Y003713D01*
X008085Y003810D01*
X008010Y003885D01*
X007913Y003925D01*
X007807Y003925D01*
X007710Y003885D01*
X007635Y003810D01*
X007595Y003713D01*
X007595Y003607D01*
X007635Y003510D01*
X007710Y003435D01*
X007654Y003492D02*
X007603Y003492D01*
X007602Y003590D02*
X007455Y003590D01*
X007325Y003590D02*
X006977Y003590D01*
X007075Y003492D02*
X007177Y003492D01*
X006878Y003689D02*
X007595Y003689D01*
X007626Y003787D02*
X006780Y003787D01*
X007238Y004038D02*
X007200Y004130D01*
X007200Y004230D01*
X007238Y004322D01*
X007296Y004380D01*
X007238Y004438D01*
X007200Y004530D01*
X007200Y004630D01*
X007238Y004722D01*
X007308Y004792D01*
X007400Y004830D01*
X007500Y004830D01*
X007592Y004792D01*
X007662Y004722D01*
X007700Y004630D01*
X007700Y004530D01*
X007697Y004522D01*
X007740Y004540D01*
X007840Y004540D01*
X007932Y004502D01*
X008002Y004432D01*
X008040Y004340D01*
X008040Y004240D01*
X008002Y004148D01*
X007932Y004078D01*
X007840Y004040D01*
X007740Y004040D01*
X007674Y004067D01*
X007662Y004038D01*
X007592Y003968D01*
X007500Y003930D01*
X007400Y003930D01*
X007308Y003968D01*
X007238Y004038D01*
X007220Y004083D02*
X004084Y004083D01*
X003986Y004181D02*
X004443Y004181D01*
X004457Y004175D02*
X004563Y004175D01*
X004660Y004215D01*
X004735Y004290D01*
X004775Y004387D01*
X004775Y004493D01*
X004735Y004590D01*
X004660Y004665D01*
X004563Y004705D01*
X004457Y004705D01*
X004360Y004665D01*
X004285Y004590D01*
X004245Y004493D01*
X004245Y004387D01*
X004285Y004290D01*
X004360Y004215D01*
X004457Y004175D01*
X004577Y004181D02*
X007200Y004181D01*
X007221Y004280D02*
X004724Y004280D01*
X004771Y004378D02*
X007294Y004378D01*
X007222Y004477D02*
X004775Y004477D01*
X004741Y004575D02*
X007200Y004575D01*
X007218Y004674D02*
X005748Y004674D01*
X005775Y004700D02*
X005815Y004797D01*
X005815Y004903D01*
X005775Y005000D01*
X005700Y005075D01*
X005603Y005115D01*
X005497Y005115D01*
X005400Y005075D01*
X005325Y005000D01*
X005285Y004903D01*
X005285Y004797D01*
X005325Y004700D01*
X005400Y004625D01*
X005497Y004585D01*
X005603Y004585D01*
X005700Y004625D01*
X005775Y004700D01*
X005805Y004772D02*
X007288Y004772D01*
X007612Y004772D02*
X009898Y004772D01*
X009834Y004674D02*
X007682Y004674D01*
X007700Y004575D02*
X009820Y004575D01*
X009846Y004477D02*
X008737Y004477D01*
X008693Y004495D02*
X008587Y004495D01*
X008490Y004455D01*
X008415Y004380D01*
X008375Y004283D01*
X008375Y004177D01*
X008415Y004080D01*
X008490Y004005D01*
X008587Y003965D01*
X008693Y003965D01*
X008790Y004005D01*
X008865Y004080D01*
X008905Y004177D01*
X008905Y004283D01*
X008865Y004380D01*
X008790Y004455D01*
X008693Y004495D01*
X008543Y004477D02*
X007957Y004477D01*
X008024Y004378D02*
X008414Y004378D01*
X008375Y004280D02*
X008040Y004280D01*
X008015Y004181D02*
X008375Y004181D01*
X008414Y004083D02*
X007936Y004083D01*
X008008Y003886D02*
X009089Y003886D01*
X009187Y003984D02*
X008739Y003984D01*
X008866Y004083D02*
X009286Y004083D01*
X009384Y004181D02*
X008905Y004181D01*
X008905Y004280D02*
X010083Y004280D01*
X009929Y004378D02*
X008866Y004378D01*
X008541Y003984D02*
X007608Y003984D01*
X007712Y003886D02*
X004281Y003886D01*
X004183Y003984D02*
X007292Y003984D01*
X008094Y003787D02*
X008990Y003787D01*
X008892Y003689D02*
X008125Y003689D01*
X008118Y003590D02*
X008793Y003590D01*
X008695Y003492D02*
X008066Y003492D01*
X007655Y003295D02*
X008498Y003295D01*
X007635Y003230D02*
X007635Y003230D01*
X008880Y002507D02*
X009020Y002507D01*
X009020Y002408D02*
X008880Y002408D01*
X008857Y002310D02*
X009043Y002310D01*
X009084Y002211D02*
X008816Y002211D01*
X009706Y002802D02*
X009914Y002802D01*
X009805Y002704D02*
X010095Y002704D01*
X010049Y002605D02*
X009851Y002605D01*
X009880Y002507D02*
X010020Y002507D01*
X010020Y002408D02*
X009880Y002408D01*
X009857Y002310D02*
X010043Y002310D01*
X010084Y002211D02*
X009816Y002211D01*
X010706Y002802D02*
X011034Y002802D01*
X011095Y002704D02*
X010805Y002704D01*
X010851Y002605D02*
X011049Y002605D01*
X011020Y002507D02*
X010880Y002507D01*
X010880Y002408D02*
X011020Y002408D01*
X011043Y002310D02*
X010857Y002310D01*
X010816Y002211D02*
X011084Y002211D01*
X011816Y002211D02*
X012084Y002211D01*
X012043Y002310D02*
X011857Y002310D01*
X011880Y002408D02*
X012020Y002408D01*
X012020Y002507D02*
X011880Y002507D01*
X011851Y002605D02*
X012049Y002605D01*
X012095Y002704D02*
X011805Y002704D01*
X011706Y002802D02*
X012194Y002802D01*
X012706Y002802D02*
X013194Y002802D01*
X013260Y002901D02*
X013114Y002901D01*
X013195Y002999D02*
X013260Y002999D01*
X013234Y003098D02*
X013220Y003098D01*
X013476Y003393D02*
X014105Y003393D01*
X014121Y003492D02*
X013377Y003492D01*
X013279Y003590D02*
X014185Y003590D01*
X014315Y003689D02*
X013180Y003689D01*
X013200Y003787D02*
X014216Y003787D01*
X014118Y003886D02*
X013198Y003886D01*
X013150Y003984D02*
X014019Y003984D01*
X013921Y004083D02*
X012637Y004083D01*
X012501Y004181D02*
X013822Y004181D01*
X013724Y004280D02*
X012444Y004280D01*
X012056Y004378D02*
X013625Y004378D01*
X013660Y004871D02*
X012194Y004871D01*
X012470Y004969D02*
X013660Y004969D01*
X013660Y005068D02*
X012570Y005068D01*
X012600Y005166D02*
X013660Y005166D01*
X013660Y005265D02*
X012693Y005265D01*
X012792Y005363D02*
X013660Y005363D01*
X013660Y005462D02*
X012840Y005462D01*
X012840Y005560D02*
X013660Y005560D01*
X013660Y005659D02*
X012840Y005659D01*
X012840Y005757D02*
X013660Y005757D01*
X013660Y005856D02*
X013630Y005856D01*
X013270Y005856D02*
X012840Y005856D01*
X012840Y005954D02*
X013203Y005954D01*
X013185Y006053D02*
X012840Y006053D01*
X012840Y006151D02*
X013205Y006151D01*
X013275Y006250D02*
X012840Y006250D01*
X012840Y006348D02*
X013660Y006348D01*
X013660Y006250D02*
X013625Y006250D01*
X013660Y006447D02*
X012840Y006447D01*
X012840Y006545D02*
X013660Y006545D01*
X013660Y006644D02*
X013618Y006644D01*
X013282Y006644D02*
X012840Y006644D01*
X012840Y006742D02*
X013208Y006742D01*
X013185Y006841D02*
X012840Y006841D01*
X012840Y006939D02*
X013200Y006939D01*
X013263Y007038D02*
X012840Y007038D01*
X012840Y007136D02*
X013395Y007136D01*
X013297Y007235D02*
X012840Y007235D01*
X012840Y007333D02*
X013198Y007333D01*
X013100Y007432D02*
X012747Y007432D01*
X012645Y007530D02*
X013001Y007530D01*
X012903Y007629D02*
X012544Y007629D01*
X012500Y007727D02*
X012804Y007727D01*
X012706Y007826D02*
X012428Y007826D01*
X012607Y007924D02*
X005150Y007924D01*
X005155Y007937D02*
X005155Y008043D01*
X005115Y008140D01*
X005040Y008215D01*
X004943Y008255D01*
X004837Y008255D01*
X004740Y008215D01*
X004665Y008140D01*
X004625Y008043D01*
X004625Y007937D01*
X004665Y007840D01*
X004740Y007765D01*
X004745Y007763D01*
X004710Y007680D01*
X004710Y007580D01*
X004748Y007488D01*
X004818Y007418D01*
X004910Y007380D01*
X005010Y007380D01*
X005102Y007418D01*
X005172Y007488D01*
X005210Y007580D01*
X005210Y007680D01*
X005172Y007772D01*
X005109Y007834D01*
X005115Y007840D01*
X005155Y007937D01*
X005155Y008023D02*
X005907Y008023D01*
X005817Y008121D02*
X005123Y008121D01*
X005028Y008220D02*
X005785Y008220D01*
X005791Y008318D02*
X003592Y008318D01*
X003600Y008300D02*
X003562Y008392D01*
X003492Y008462D01*
X003400Y008500D01*
X003300Y008500D01*
X003208Y008462D01*
X003138Y008392D01*
X003100Y008300D01*
X003100Y008200D01*
X003138Y008108D01*
X003208Y008038D01*
X003300Y008000D01*
X003400Y008000D01*
X003492Y008038D01*
X003562Y008108D01*
X003600Y008200D01*
X003600Y008300D01*
X003600Y008220D02*
X004752Y008220D01*
X004657Y008121D02*
X003567Y008121D01*
X003454Y008023D02*
X004625Y008023D01*
X004630Y007924D02*
X002120Y007924D01*
X002120Y007826D02*
X004680Y007826D01*
X004730Y007727D02*
X002120Y007727D01*
X002120Y007629D02*
X004710Y007629D01*
X004731Y007530D02*
X002120Y007530D01*
X002120Y007432D02*
X004805Y007432D01*
X005115Y007432D02*
X009380Y007432D01*
X009380Y007430D02*
X009418Y007338D01*
X009488Y007268D01*
X009580Y007230D01*
X009680Y007230D01*
X009772Y007268D01*
X009842Y007338D01*
X009847Y007350D01*
X009858Y007338D01*
X009950Y007300D01*
X010050Y007300D01*
X010142Y007338D01*
X010212Y007408D01*
X010228Y007447D01*
X010248Y007398D01*
X010286Y007360D01*
X010258Y007332D01*
X010220Y007240D01*
X010220Y007140D01*
X010258Y007048D01*
X010328Y006978D01*
X010420Y006940D01*
X010520Y006940D01*
X010612Y006978D01*
X010682Y007048D01*
X010720Y007140D01*
X010720Y007240D01*
X010682Y007332D01*
X010644Y007370D01*
X010672Y007398D01*
X010710Y007490D01*
X010710Y007590D01*
X010672Y007682D01*
X010602Y007752D01*
X010510Y007790D01*
X010410Y007790D01*
X010318Y007752D01*
X010248Y007682D01*
X010232Y007643D01*
X010212Y007692D01*
X010142Y007762D01*
X010050Y007800D01*
X009950Y007800D01*
X009858Y007762D01*
X009788Y007692D01*
X009783Y007680D01*
X009772Y007692D01*
X009680Y007730D01*
X009580Y007730D01*
X009488Y007692D01*
X009418Y007622D01*
X009380Y007530D01*
X005189Y007530D01*
X005210Y007629D02*
X009425Y007629D01*
X009380Y007530D02*
X009380Y007430D01*
X009423Y007333D02*
X002120Y007333D01*
X002120Y007235D02*
X007679Y007235D01*
X007692Y007240D02*
X007586Y007196D01*
X007504Y007114D01*
X007460Y007008D01*
X007460Y006892D01*
X007504Y006786D01*
X007586Y006704D01*
X007692Y006660D01*
X007808Y006660D01*
X007914Y006704D01*
X007996Y006786D01*
X008040Y006892D01*
X008040Y007008D01*
X007996Y007114D01*
X007914Y007196D01*
X007808Y007240D01*
X007692Y007240D01*
X007821Y007235D02*
X008679Y007235D01*
X008692Y007240D02*
X008586Y007196D01*
X008504Y007114D01*
X008460Y007008D01*
X008460Y006892D01*
X008504Y006786D01*
X008586Y006704D01*
X008692Y006660D01*
X008808Y006660D01*
X008914Y006704D01*
X008996Y006786D01*
X009040Y006892D01*
X009040Y007008D01*
X008996Y007114D01*
X008914Y007196D01*
X008808Y007240D01*
X008692Y007240D01*
X008821Y007235D02*
X009569Y007235D01*
X009691Y007235D02*
X010220Y007235D01*
X010222Y007136D02*
X008974Y007136D01*
X009028Y007038D02*
X010269Y007038D01*
X010408Y006842D02*
X010338Y006772D01*
X010300Y006680D01*
X010300Y006580D01*
X010338Y006488D01*
X010408Y006418D01*
X010500Y006380D01*
X010600Y006380D01*
X010692Y006418D01*
X010757Y006483D01*
X010788Y006408D01*
X010796Y006400D01*
X010728Y006332D01*
X010690Y006240D01*
X010690Y006140D01*
X010728Y006048D01*
X010798Y005978D01*
X010890Y005940D01*
X010990Y005940D01*
X011082Y005978D01*
X011095Y005991D01*
X011108Y005958D01*
X011178Y005888D01*
X011270Y005850D01*
X011370Y005850D01*
X011462Y005888D01*
X011532Y005958D01*
X011570Y006050D01*
X011570Y006150D01*
X011532Y006242D01*
X011462Y006312D01*
X011370Y006350D01*
X011270Y006350D01*
X011178Y006312D01*
X011165Y006299D01*
X011152Y006332D01*
X011144Y006340D01*
X011212Y006408D01*
X011250Y006500D01*
X011250Y006600D01*
X011212Y006692D01*
X011142Y006762D01*
X011050Y006800D01*
X010950Y006800D01*
X010858Y006762D01*
X010793Y006697D01*
X010762Y006772D01*
X010692Y006842D01*
X010600Y006880D01*
X010500Y006880D01*
X010408Y006842D01*
X010407Y006841D02*
X009019Y006841D01*
X009040Y006939D02*
X012460Y006939D01*
X012460Y006841D02*
X010693Y006841D01*
X010774Y006742D02*
X010838Y006742D01*
X011162Y006742D02*
X012460Y006742D01*
X012460Y006644D02*
X011232Y006644D01*
X011250Y006545D02*
X012460Y006545D01*
X012460Y006447D02*
X011228Y006447D01*
X011265Y006348D02*
X011152Y006348D01*
X011375Y006348D02*
X012460Y006348D01*
X012460Y006250D02*
X011524Y006250D01*
X011569Y006151D02*
X012460Y006151D01*
X012139Y006053D02*
X011570Y006053D01*
X011528Y005954D02*
X011810Y005954D01*
X011739Y005856D02*
X011383Y005856D01*
X011257Y005856D02*
X009025Y005856D01*
X009040Y005892D02*
X008996Y005786D01*
X008914Y005704D01*
X008808Y005660D01*
X008692Y005660D01*
X008586Y005704D01*
X008504Y005786D01*
X008460Y005892D01*
X008460Y006008D01*
X008504Y006114D01*
X008586Y006196D01*
X008692Y006240D01*
X008808Y006240D01*
X008914Y006196D01*
X008996Y006114D01*
X009040Y006008D01*
X009040Y005892D01*
X009040Y005954D02*
X010856Y005954D01*
X010726Y006053D02*
X009021Y006053D01*
X008959Y006151D02*
X010690Y006151D01*
X010694Y006250D02*
X006624Y006250D01*
X006600Y006225D02*
X006675Y006300D01*
X006715Y006397D01*
X006715Y006503D01*
X006675Y006600D01*
X006600Y006675D01*
X006503Y006715D01*
X006397Y006715D01*
X006300Y006675D01*
X006225Y006600D01*
X006185Y006503D01*
X006185Y006397D01*
X006225Y006300D01*
X006300Y006225D01*
X006397Y006185D01*
X006503Y006185D01*
X006600Y006225D01*
X006695Y006348D02*
X010744Y006348D01*
X010720Y006447D02*
X010772Y006447D01*
X010380Y006447D02*
X006715Y006447D01*
X006697Y006545D02*
X010315Y006545D01*
X010300Y006644D02*
X006631Y006644D01*
X006269Y006644D02*
X005363Y006644D01*
X005370Y006660D02*
X005332Y006568D01*
X005262Y006498D01*
X005170Y006460D01*
X005100Y006460D01*
X005100Y006460D01*
X005100Y006450D01*
X005160Y006450D01*
X005252Y006412D01*
X005322Y006342D01*
X005360Y006250D01*
X005360Y006150D01*
X005322Y006058D01*
X005252Y005988D01*
X005160Y005950D01*
X005060Y005950D01*
X004968Y005988D01*
X004898Y006058D01*
X004860Y006150D01*
X004860Y006160D01*
X004800Y006160D01*
X004708Y006198D01*
X004638Y006268D01*
X004600Y006360D01*
X004600Y006460D01*
X004638Y006552D01*
X004708Y006622D01*
X004800Y006660D01*
X004870Y006660D01*
X004870Y006660D01*
X004870Y006760D01*
X004908Y006852D01*
X004978Y006922D01*
X005070Y006960D01*
X005170Y006960D01*
X005262Y006922D01*
X005332Y006852D01*
X005370Y006760D01*
X005370Y006660D01*
X005370Y006742D02*
X007548Y006742D01*
X007481Y006841D02*
X005337Y006841D01*
X005220Y006939D02*
X007460Y006939D01*
X007472Y007038D02*
X002120Y007038D01*
X002120Y007136D02*
X007526Y007136D01*
X007974Y007136D02*
X008526Y007136D01*
X008472Y007038D02*
X008028Y007038D01*
X008040Y006939D02*
X008460Y006939D01*
X008481Y006841D02*
X008019Y006841D01*
X007952Y006742D02*
X008548Y006742D01*
X008952Y006742D02*
X010326Y006742D01*
X010671Y007038D02*
X012460Y007038D01*
X012460Y007136D02*
X010718Y007136D01*
X010720Y007235D02*
X012404Y007235D01*
X012303Y007333D02*
X010681Y007333D01*
X010686Y007432D02*
X012115Y007432D01*
X012041Y007530D02*
X010710Y007530D01*
X010694Y007629D02*
X012020Y007629D01*
X012040Y007727D02*
X010627Y007727D01*
X010293Y007727D02*
X010177Y007727D01*
X010222Y007432D02*
X010234Y007432D01*
X010259Y007333D02*
X010129Y007333D01*
X009871Y007333D02*
X009837Y007333D01*
X009823Y007727D02*
X009687Y007727D01*
X009573Y007727D02*
X005190Y007727D01*
X005118Y007826D02*
X012112Y007826D01*
X012410Y008121D02*
X006683Y008121D01*
X006715Y008220D02*
X012312Y008220D01*
X012213Y008318D02*
X006709Y008318D01*
X006658Y008417D02*
X009515Y008417D01*
X009416Y008515D02*
X006240Y008515D01*
X006240Y008614D02*
X007532Y008614D01*
X007458Y008712D02*
X006240Y008712D01*
X006298Y008811D02*
X007435Y008811D01*
X007450Y008909D02*
X006396Y008909D01*
X006495Y009008D02*
X007338Y009008D01*
X007284Y009106D02*
X006593Y009106D01*
X006692Y009205D02*
X007275Y009205D01*
X007082Y009303D02*
X006790Y009303D01*
X006889Y009402D02*
X007032Y009402D01*
X007025Y009500D02*
X006987Y009500D01*
X006689Y009796D02*
X005280Y009796D01*
X005280Y009800D02*
X005242Y009892D01*
X005172Y009962D01*
X005080Y010000D01*
X004980Y010000D01*
X004888Y009962D01*
X004818Y009892D01*
X004780Y009800D01*
X004780Y009728D01*
X004694Y009815D01*
X004536Y009880D01*
X004364Y009880D01*
X004206Y009815D01*
X004085Y009694D01*
X004020Y009536D01*
X004020Y009364D01*
X004085Y009206D01*
X004206Y009085D01*
X004364Y009020D01*
X004536Y009020D01*
X004694Y009085D01*
X004815Y009206D01*
X004880Y009364D01*
X004880Y009536D01*
X004872Y009554D01*
X004888Y009538D01*
X004980Y009500D01*
X004880Y009500D01*
X004880Y009402D02*
X006295Y009402D01*
X006393Y009500D02*
X005080Y009500D01*
X005172Y009538D01*
X005242Y009608D01*
X005280Y009700D01*
X005280Y009800D01*
X005240Y009894D02*
X006787Y009894D01*
X006886Y009993D02*
X005098Y009993D01*
X004962Y009993D02*
X002120Y009993D01*
X002120Y010091D02*
X002201Y010091D01*
X002120Y009894D02*
X004820Y009894D01*
X004780Y009796D02*
X004713Y009796D01*
X004980Y009500D02*
X005080Y009500D01*
X005232Y009599D02*
X006492Y009599D01*
X006590Y009697D02*
X005279Y009697D01*
X005201Y010091D02*
X004699Y010091D01*
X004798Y010190D02*
X005102Y010190D01*
X005052Y010288D02*
X004848Y010288D01*
X004880Y010387D02*
X005020Y010387D01*
X005020Y010485D02*
X004880Y010485D01*
X004860Y010584D02*
X005040Y010584D01*
X005081Y010682D02*
X004819Y010682D01*
X004081Y010682D02*
X003819Y010682D01*
X003860Y010584D02*
X004040Y010584D01*
X004020Y010485D02*
X003880Y010485D01*
X003880Y010387D02*
X004020Y010387D01*
X004052Y010288D02*
X003848Y010288D01*
X003798Y010190D02*
X004102Y010190D01*
X004201Y010091D02*
X003699Y010091D01*
X003536Y009880D02*
X003364Y009880D01*
X003206Y009815D01*
X003085Y009694D01*
X003020Y009536D01*
X003020Y009364D01*
X003085Y009206D01*
X003206Y009085D01*
X003364Y009020D01*
X003536Y009020D01*
X003694Y009085D01*
X003815Y009206D01*
X003880Y009364D01*
X003880Y009536D01*
X003815Y009694D01*
X003694Y009815D01*
X003536Y009880D01*
X003713Y009796D02*
X004187Y009796D01*
X004089Y009697D02*
X003811Y009697D01*
X003854Y009599D02*
X004046Y009599D01*
X004020Y009500D02*
X003880Y009500D01*
X003880Y009402D02*
X004020Y009402D01*
X004045Y009303D02*
X003855Y009303D01*
X003813Y009205D02*
X004087Y009205D01*
X004186Y009106D02*
X003714Y009106D01*
X003186Y009106D02*
X002714Y009106D01*
X002813Y009205D02*
X003087Y009205D01*
X003045Y009303D02*
X002855Y009303D01*
X002880Y009402D02*
X003020Y009402D01*
X003020Y009500D02*
X002880Y009500D01*
X002854Y009599D02*
X003046Y009599D01*
X003089Y009697D02*
X002811Y009697D01*
X002713Y009796D02*
X003187Y009796D01*
X003201Y010091D02*
X002699Y010091D01*
X002798Y010190D02*
X003102Y010190D01*
X003052Y010288D02*
X002848Y010288D01*
X002880Y010387D02*
X003020Y010387D01*
X003020Y010485D02*
X002880Y010485D01*
X002860Y010584D02*
X003040Y010584D01*
X003081Y010682D02*
X002819Y010682D01*
X002187Y009796D02*
X002120Y009796D01*
X002120Y009106D02*
X002186Y009106D01*
X002120Y009008D02*
X005901Y009008D01*
X005840Y008909D02*
X002120Y008909D01*
X002120Y008811D02*
X005840Y008811D01*
X005860Y008712D02*
X002120Y008712D01*
X002120Y008614D02*
X005860Y008614D01*
X005860Y008515D02*
X002120Y008515D01*
X002120Y008417D02*
X003163Y008417D01*
X003108Y008318D02*
X002120Y008318D01*
X002120Y008220D02*
X003100Y008220D01*
X003133Y008121D02*
X002120Y008121D01*
X002120Y008023D02*
X003246Y008023D01*
X003537Y008417D02*
X005842Y008417D01*
X006193Y008023D02*
X006307Y008023D01*
X006593Y008023D02*
X012509Y008023D01*
X011112Y005954D02*
X011024Y005954D01*
X010684Y005560D02*
X011816Y005560D01*
X011741Y005659D02*
X010533Y005659D01*
X010530Y005660D02*
X010430Y005660D01*
X010338Y005622D01*
X010268Y005552D01*
X010230Y005460D01*
X010230Y005360D01*
X010268Y005268D01*
X010338Y005198D01*
X010430Y005160D01*
X010530Y005160D01*
X010622Y005198D01*
X010692Y005268D01*
X010730Y005360D01*
X010730Y005460D01*
X010692Y005552D01*
X010622Y005622D01*
X010530Y005660D01*
X010427Y005659D02*
X002120Y005659D01*
X002120Y005757D02*
X007533Y005757D01*
X007504Y005786D02*
X007586Y005704D01*
X007692Y005660D01*
X007808Y005660D01*
X007914Y005704D01*
X007996Y005786D01*
X008040Y005892D01*
X008040Y006008D01*
X007996Y006114D01*
X007914Y006196D01*
X007808Y006240D01*
X007692Y006240D01*
X007586Y006196D01*
X007504Y006114D01*
X007460Y006008D01*
X007460Y005892D01*
X007504Y005786D01*
X007475Y005856D02*
X002120Y005856D01*
X002120Y005954D02*
X005051Y005954D01*
X005169Y005954D02*
X007460Y005954D01*
X007479Y006053D02*
X005316Y006053D01*
X005360Y006151D02*
X007541Y006151D01*
X007959Y006151D02*
X008541Y006151D01*
X008479Y006053D02*
X008021Y006053D01*
X008040Y005954D02*
X008460Y005954D01*
X008475Y005856D02*
X008025Y005856D01*
X007967Y005757D02*
X008533Y005757D01*
X008967Y005757D02*
X011720Y005757D01*
X012124Y005560D02*
X012451Y005560D01*
X012452Y005659D02*
X012460Y005659D01*
X012353Y005462D02*
X010729Y005462D01*
X010730Y005363D02*
X012169Y005363D01*
X011885Y005265D02*
X010688Y005265D01*
X010544Y005166D02*
X011797Y005166D01*
X011770Y005068D02*
X005707Y005068D01*
X005788Y004969D02*
X011783Y004969D01*
X011846Y004871D02*
X005815Y004871D01*
X005393Y005068D02*
X003619Y005068D01*
X003713Y004969D02*
X005312Y004969D01*
X005285Y004871D02*
X003754Y004871D01*
X003760Y004772D02*
X005295Y004772D01*
X005352Y004674D02*
X004639Y004674D01*
X004381Y004674D02*
X003760Y004674D01*
X003760Y004575D02*
X004279Y004575D01*
X004245Y004477D02*
X003760Y004477D01*
X003789Y004378D02*
X004249Y004378D01*
X004296Y004280D02*
X003887Y004280D01*
X003348Y003886D02*
X002120Y003886D01*
X002120Y003984D02*
X003249Y003984D01*
X003151Y004083D02*
X002120Y004083D01*
X002120Y004181D02*
X003110Y004181D01*
X003100Y004280D02*
X002120Y004280D01*
X002120Y004378D02*
X003100Y004378D01*
X003100Y004477D02*
X002120Y004477D01*
X002120Y004575D02*
X003100Y004575D01*
X003100Y004674D02*
X002120Y004674D01*
X002120Y004772D02*
X003100Y004772D01*
X003106Y004871D02*
X002120Y004871D01*
X002120Y004969D02*
X003147Y004969D01*
X003241Y005068D02*
X002120Y005068D01*
X002120Y005166D02*
X010416Y005166D01*
X010272Y005265D02*
X002120Y005265D01*
X002120Y005363D02*
X010230Y005363D01*
X010231Y005462D02*
X002120Y005462D01*
X002120Y005560D02*
X010276Y005560D01*
X010242Y004772D02*
X010575Y004772D01*
X010477Y004674D02*
X010306Y004674D01*
X010320Y004575D02*
X010378Y004575D01*
X010676Y004280D02*
X011685Y004280D01*
X011660Y004181D02*
X010578Y004181D01*
X010479Y004083D02*
X011676Y004083D01*
X011720Y003984D02*
X010381Y003984D01*
X010282Y003886D02*
X011661Y003886D01*
X011650Y003787D02*
X009584Y003787D01*
X009485Y003689D02*
X011680Y003689D01*
X012144Y003295D02*
X012801Y003295D01*
X012735Y003196D02*
X012018Y003196D01*
X011842Y003196D02*
X011348Y003196D01*
X011426Y003098D02*
X012720Y003098D01*
X012745Y002999D02*
X011450Y002999D01*
X011434Y002901D02*
X012826Y002901D01*
X012805Y002704D02*
X013095Y002704D01*
X013049Y002605D02*
X012851Y002605D01*
X012880Y002507D02*
X013020Y002507D01*
X013020Y002408D02*
X012880Y002408D01*
X012857Y002310D02*
X013043Y002310D01*
X013084Y002211D02*
X012816Y002211D01*
X013706Y002802D02*
X014169Y002802D01*
X014078Y002704D02*
X013805Y002704D01*
X013851Y002605D02*
X014027Y002605D01*
X014003Y002507D02*
X013880Y002507D01*
X013880Y002408D02*
X014400Y002408D01*
X014400Y002507D02*
X014500Y002507D01*
X014500Y002605D02*
X014400Y002605D01*
X014400Y002704D02*
X014500Y002704D01*
X014500Y002802D02*
X014400Y002802D01*
X014675Y002901D02*
X013640Y002901D01*
X013640Y002999D02*
X014590Y002999D01*
X014490Y003098D02*
X013640Y003098D01*
X013640Y003196D02*
X014199Y003196D01*
X014127Y003295D02*
X013574Y003295D01*
X014733Y003864D02*
X014749Y003880D01*
X015500Y003880D01*
X015630Y003750D01*
X015630Y003665D01*
X015580Y003645D01*
X015505Y003570D01*
X015465Y003473D01*
X015465Y003367D01*
X015505Y003270D01*
X015580Y003195D01*
X015677Y003155D01*
X015783Y003155D01*
X015850Y003183D01*
X015850Y002608D01*
X015815Y002694D01*
X015694Y002815D01*
X015536Y002880D01*
X015364Y002880D01*
X015206Y002815D01*
X015202Y002810D01*
X015205Y002817D01*
X015205Y002923D01*
X015165Y003020D01*
X015090Y003095D01*
X014993Y003135D01*
X014945Y003135D01*
X014960Y003170D01*
X014960Y003270D01*
X014922Y003362D01*
X014920Y003364D01*
X014920Y003677D01*
X014797Y003800D01*
X014733Y003864D01*
X014810Y003787D02*
X015593Y003787D01*
X015630Y003689D02*
X014908Y003689D01*
X014920Y003590D02*
X015525Y003590D01*
X015473Y003492D02*
X014920Y003492D01*
X014920Y003393D02*
X015465Y003393D01*
X015495Y003295D02*
X014950Y003295D01*
X014960Y003196D02*
X015579Y003196D01*
X015850Y003098D02*
X015083Y003098D01*
X015173Y002999D02*
X015850Y002999D01*
X015850Y002901D02*
X015205Y002901D01*
X015060Y002633D02*
X014993Y002605D01*
X015020Y002507D02*
X014897Y002507D01*
X015020Y002408D02*
X014500Y002408D01*
X014833Y002211D02*
X015084Y002211D01*
X015043Y002310D02*
X014878Y002310D01*
X014067Y002211D02*
X013816Y002211D01*
X013857Y002310D02*
X014022Y002310D01*
X015706Y002802D02*
X015850Y002802D01*
X015850Y002704D02*
X015805Y002704D01*
X011764Y004378D02*
X010775Y004378D01*
X011052Y003196D02*
X010194Y003196D01*
X010324Y003098D02*
X010974Y003098D01*
X010950Y002999D02*
X010360Y002999D01*
X010356Y002901D02*
X010966Y002901D01*
X006276Y006250D02*
X005360Y006250D01*
X005316Y006348D02*
X006205Y006348D01*
X006185Y006447D02*
X005168Y006447D01*
X005309Y006545D02*
X006203Y006545D01*
X005020Y006939D02*
X002120Y006939D01*
X002120Y006841D02*
X004903Y006841D01*
X004870Y006742D02*
X002120Y006742D01*
X002120Y006644D02*
X004760Y006644D01*
X004635Y006545D02*
X002120Y006545D01*
X002120Y006447D02*
X004600Y006447D01*
X004605Y006348D02*
X002120Y006348D01*
X002120Y006250D02*
X004657Y006250D01*
X004860Y006151D02*
X002120Y006151D01*
X002120Y006053D02*
X004904Y006053D01*
X003446Y003787D02*
X002120Y003787D01*
X002120Y003689D02*
X003545Y003689D01*
X003643Y003590D02*
X002120Y003590D01*
X002120Y003492D02*
X003742Y003492D01*
X003840Y003393D02*
X002442Y003393D01*
X002514Y003295D02*
X003939Y003295D01*
X007868Y008614D02*
X009318Y008614D01*
X008119Y008712D02*
X007942Y008712D01*
X007965Y008811D02*
X008021Y008811D01*
X006196Y009303D02*
X004855Y009303D01*
X004813Y009205D02*
X006098Y009205D01*
X005999Y009106D02*
X004714Y009106D01*
X005699Y010091D02*
X006201Y010091D01*
X006102Y010190D02*
X005798Y010190D01*
X005848Y010288D02*
X006052Y010288D01*
X006020Y010387D02*
X005880Y010387D01*
X005880Y010485D02*
X006020Y010485D01*
X006040Y010584D02*
X005860Y010584D01*
X005819Y010682D02*
X006081Y010682D01*
X006819Y010682D02*
X007081Y010682D01*
X007040Y010584D02*
X006860Y010584D01*
X006880Y010485D02*
X007020Y010485D01*
X007020Y010387D02*
X006880Y010387D01*
X006848Y010288D02*
X007052Y010288D01*
X007102Y010190D02*
X006798Y010190D01*
X006699Y010091D02*
X007201Y010091D01*
D11*
X007450Y010450D03*
X006450Y010450D03*
X005450Y010450D03*
X004450Y010450D03*
X003450Y010450D03*
X002450Y010450D03*
X002450Y009450D03*
X003450Y009450D03*
X004450Y009450D03*
X008450Y010450D03*
X009450Y010450D03*
X010450Y010450D03*
X011450Y010450D03*
X012450Y010450D03*
X013450Y010450D03*
X014450Y010450D03*
X015450Y010450D03*
X015450Y002450D03*
X014450Y002450D03*
X013450Y002450D03*
X012450Y002450D03*
X011450Y002450D03*
X010450Y002450D03*
X009450Y002450D03*
X008450Y002450D03*
X007450Y002450D03*
X006450Y002450D03*
X005450Y002450D03*
X004450Y002450D03*
X003450Y002450D03*
X002450Y002450D03*
D12*
X005950Y002850D03*
X007450Y004180D03*
X007790Y004290D03*
X007450Y004580D03*
X009720Y003350D03*
X010110Y002960D03*
X011200Y002990D03*
X011930Y003430D03*
X011900Y003810D03*
X012260Y004110D03*
X011910Y004170D03*
X012950Y003830D03*
X012970Y003110D03*
X014710Y003220D03*
X013280Y005070D03*
X012350Y005190D03*
X012020Y005050D03*
X011970Y005760D03*
X012310Y005870D03*
X011320Y006100D03*
X010940Y006190D03*
X011000Y006550D03*
X010550Y006630D03*
X010050Y006410D03*
X010470Y007190D03*
X010460Y007540D03*
X010000Y007550D03*
X009630Y007480D03*
X008780Y008540D03*
X008410Y009660D03*
X010070Y009670D03*
X010950Y009910D03*
X011750Y009830D03*
X012790Y009910D03*
X013990Y009910D03*
X015350Y009590D03*
X015750Y009590D03*
X012270Y007630D03*
X010870Y008870D03*
X010480Y005410D03*
X010070Y004590D03*
X008950Y002930D03*
X005110Y006200D03*
X004850Y006410D03*
X005120Y006710D03*
X005410Y007010D03*
X004960Y007630D03*
X003350Y008250D03*
X005030Y009750D03*
D13*
X007290Y009470D03*
X007540Y009180D03*
X007700Y008820D03*
X006450Y008250D03*
X006050Y008250D03*
X005650Y008250D03*
X004890Y007990D03*
X006450Y006450D03*
X005100Y005840D03*
X005550Y004850D03*
X004510Y004440D03*
X003430Y004790D03*
X002270Y003190D03*
X005040Y002900D03*
X007390Y003330D03*
X007860Y003660D03*
X008570Y003650D03*
X008640Y004230D03*
X008250Y004650D03*
X010420Y003700D03*
X012530Y003840D03*
X012950Y004310D03*
X014370Y003400D03*
X014940Y002870D03*
X015730Y003420D03*
X015460Y003780D03*
X015640Y004310D03*
X014870Y004830D03*
X015750Y004950D03*
X014250Y006050D03*
X013450Y006050D03*
X013450Y006850D03*
X014250Y006850D03*
X014910Y007690D03*
X013680Y007810D03*
X014250Y009390D03*
X007950Y009950D03*
D14*
X007750Y006950D03*
X008750Y006950D03*
X008750Y005950D03*
X007750Y005950D03*
D15*
X009550Y004050D02*
X008550Y003050D01*
X009550Y004050D02*
X010150Y004050D01*
X010750Y004650D01*
X013650Y004650D01*
X014710Y003590D01*
X014710Y003220D01*
X007040Y009850D02*
X006050Y008860D01*
D16*
X003430Y004790D02*
X003430Y004270D01*
X004150Y003550D01*
X006550Y003550D01*
X007050Y003050D01*
D17*
X014650Y004050D02*
X015570Y004050D01*
X015800Y003820D01*
X015800Y003550D01*
X015730Y003480D01*
X015730Y003420D01*
D18*
X014650Y004050D02*
X013850Y004850D01*
X013850Y006950D01*
X012250Y008550D01*
X009650Y008550D01*
X009350Y008850D01*
X008250Y008850D01*
X007630Y009470D01*
X007290Y009470D01*
X007040Y009850D02*
X007650Y009850D01*
X008250Y009250D01*
X006050Y008860D02*
X006050Y008250D01*
X012270Y007630D02*
X012650Y007260D01*
X012650Y005490D01*
X012350Y005190D01*
X012010Y003500D02*
X013100Y003500D01*
X013450Y003150D01*
X013450Y002450D01*
X012010Y003500D02*
X011930Y003420D01*
X015350Y004600D02*
X015640Y004310D01*
D19*
X015350Y004600D02*
X015350Y008150D01*
X014550Y008950D01*
X011950Y008950D01*
X011650Y009250D01*
X008250Y009250D01*
M02*
