%
M48
M72
T01C0.0120
T02C0.0150
T03C0.0380
T04C0.0400
T05C0.0480
%
T01
X5950Y2850
X7450Y4180
X7790Y4290
X7450Y4580
X8110Y5950
X7750Y6350
X9630Y7480
X10000Y7550
X10460Y7540
X10470Y7190
X10550Y6630
X11000Y6550
X10940Y6190
X11320Y6100
X11970Y5760
X12310Y5870
X12350Y5190
X12020Y5050
X11910Y4170
X12260Y4110
X11900Y3810
X11930Y3430
X11000Y2990
X9970Y3100
X9720Y3350
X8950Y2930
X9870Y4790
X10480Y5410
X10050Y6410
X12270Y7630
X10770Y8770
X10440Y9450
X10750Y9550
X10950Y9910
X9970Y9670
X8530Y9610
X8780Y8540
X11950Y10030
X12790Y9910
X13990Y9910
X15250Y9450
X15650Y9450
X15950Y9750
X16050Y9250
X15650Y9050
X15250Y9050
X15250Y8650
X15250Y8250
X15250Y7850
X15250Y7450
X15610Y7100
X15960Y7100
X16380Y7550
X16380Y7950
X16380Y8350
X16100Y8610
X16050Y10250
X16350Y6150
X16350Y5750
X16350Y5350
X16050Y5150
X16350Y4950
X16050Y4750
X16350Y4550
X16050Y4350
X16350Y4150
X16050Y3950
X16350Y3750
X16350Y3350
X16050Y3150
X16350Y2950
X16050Y2750
X16350Y2550
X16350Y2150
X14650Y3400
X14330Y3550
X12990Y3830
X12970Y3110
X13280Y5070
X5410Y7010
X5120Y6710
X4850Y6410
X5110Y6200
X4960Y7630
X3050Y8250
X2650Y7050
X2250Y7050
X2250Y5850
X2650Y5850
X5030Y9550
T02
X5650Y8250
X6050Y8250
X6450Y8250
X7700Y8820
X7540Y9180
X7290Y9470
X7950Y9950
X4890Y7990
X6450Y6450
X7750Y5950
X8750Y5950
X8750Y6950
X7750Y6950
X5100Y5840
X5550Y4850
X4510Y4440
X3430Y4790
X2370Y3390
X4950Y2900
X7390Y3330
X7860Y3660
X8570Y3650
X8640Y4230
X8250Y4660
X10420Y3700
X12530Y3840
X12850Y4170
X13050Y4360
X14870Y4830
X15640Y4310
X15430Y3970
X15810Y3450
X14940Y2870
X14250Y6050
X13450Y6050
X13450Y6850
X14250Y6850
X14910Y7690
X13680Y7810
X14250Y9390
T03
X3510Y7430
X3510Y5470
T04
X2450Y2450
X3450Y2450
X4450Y2450
X5450Y2450
X6450Y2450
X7450Y2450
X8450Y2450
X9450Y2450
X10450Y2450
X11450Y2450
X12450Y2450
X13450Y2450
X14450Y2450
X15450Y2450
X4450Y9450
X3450Y9450
X2450Y9450
X2450Y10450
X3450Y10450
X4450Y10450
X5450Y10450
X6450Y10450
X7450Y10450
X8450Y10450
X9450Y10450
X10450Y10450
X11450Y10450
X12450Y10450
X13450Y10450
X14450Y10450
X15450Y10450
T05
X2450Y7830
X2450Y5070
M30
