G75*
G70*
%OFA0B0*%
%FSLAX24Y24*%
%IPPOS*%
%LPD*%
%AMOC8*
5,1,8,0,0,1.08239X$1,22.5*
%
%ADD10C,0.0100*%
%ADD11C,0.0125*%
%ADD12C,0.0394*%
%ADD13R,0.0394X0.0394*%
%ADD14R,0.0315X0.0112*%
%ADD15R,0.0112X0.0315*%
%ADD16R,0.1378X0.1378*%
%ADD17C,0.0088*%
%ADD18R,0.0866X0.0512*%
%ADD19R,0.1000X0.0400*%
%ADD20R,0.0413X0.0512*%
%ADD21R,0.0630X0.0710*%
%ADD22C,0.0059*%
%ADD23R,0.0551X0.0394*%
%ADD24R,0.0315X0.0315*%
%ADD25R,0.0500X0.0250*%
%ADD26C,0.0700*%
%ADD27C,0.0660*%
%ADD28R,0.0551X0.0138*%
%ADD29R,0.0748X0.0709*%
%ADD30OC8,0.0240*%
%ADD31C,0.0080*%
%ADD32OC8,0.0270*%
%ADD33C,0.0160*%
%ADD34OC8,0.0320*%
%ADD35C,0.0120*%
%ADD36C,0.0240*%
D10*
X001820Y001850D02*
X016150Y001840D01*
X016150Y004250D01*
X017550Y005650D01*
X017550Y009850D01*
X017530Y009870D02*
X016350Y011050D01*
X001820Y011060D01*
X001820Y001850D01*
X002828Y002149D02*
X002857Y002178D01*
X002930Y002355D01*
X002930Y002545D01*
X002857Y002722D01*
X002722Y002857D01*
X002545Y002930D01*
X002385Y002930D01*
X002535Y003080D01*
X002535Y003158D01*
X002640Y003263D01*
X002640Y003345D01*
X002799Y003345D01*
X002875Y003421D01*
X002875Y004006D01*
X003105Y004236D01*
X003105Y003421D01*
X003181Y003345D01*
X003919Y003345D01*
X003995Y003421D01*
X003995Y003425D01*
X003997Y003422D01*
X004045Y003394D01*
X004100Y003380D01*
X004177Y003380D01*
X004177Y003642D01*
X004203Y003642D01*
X004203Y003380D01*
X004280Y003380D01*
X004335Y003394D01*
X004383Y003422D01*
X004390Y003429D01*
X004397Y003422D01*
X004445Y003394D01*
X004500Y003380D01*
X004577Y003380D01*
X004577Y003642D01*
X004603Y003642D01*
X004603Y003380D01*
X004680Y003380D01*
X004735Y003394D01*
X004783Y003422D01*
X004823Y003462D01*
X004843Y003497D01*
X004843Y003377D01*
X004853Y003339D01*
X004872Y003305D01*
X004900Y003277D01*
X004935Y003257D01*
X004973Y003247D01*
X005121Y003247D01*
X005121Y003526D01*
X005179Y003526D01*
X005179Y003247D01*
X005327Y003247D01*
X005365Y003257D01*
X005400Y003277D01*
X005428Y003305D01*
X005447Y003339D01*
X005457Y003377D01*
X005457Y003379D01*
X005726Y003379D01*
X005726Y003321D01*
X005783Y003321D01*
X005783Y003043D01*
X005789Y003043D01*
X005700Y002954D01*
X005700Y002866D01*
X005545Y002930D01*
X005355Y002930D01*
X005178Y002857D01*
X005043Y002722D01*
X004970Y002545D01*
X004970Y002355D01*
X005043Y002178D01*
X005073Y002148D01*
X004827Y002148D01*
X004857Y002178D01*
X004930Y002355D01*
X004930Y002545D01*
X004857Y002722D01*
X004722Y002857D01*
X004545Y002930D01*
X004355Y002930D01*
X004178Y002857D01*
X004043Y002722D01*
X003970Y002545D01*
X003970Y002355D01*
X004043Y002178D01*
X004073Y002148D01*
X003827Y002149D01*
X003857Y002178D01*
X003930Y002355D01*
X003930Y002545D01*
X003857Y002722D01*
X003722Y002857D01*
X003545Y002930D01*
X003355Y002930D01*
X003178Y002857D01*
X003043Y002722D01*
X002970Y002545D01*
X002970Y002355D01*
X003043Y002178D01*
X003072Y002149D01*
X002828Y002149D01*
X002871Y002211D02*
X003029Y002211D01*
X002989Y002310D02*
X002911Y002310D01*
X002930Y002408D02*
X002970Y002408D01*
X002970Y002507D02*
X002930Y002507D01*
X002905Y002605D02*
X002995Y002605D01*
X003035Y002704D02*
X002865Y002704D01*
X002777Y002802D02*
X003123Y002802D01*
X003283Y002901D02*
X002617Y002901D01*
X002454Y002999D02*
X005745Y002999D01*
X005726Y003043D02*
X005726Y003321D01*
X005447Y003321D01*
X005447Y003173D01*
X005457Y003135D01*
X005477Y003100D01*
X005505Y003072D01*
X005539Y003053D01*
X005577Y003043D01*
X005726Y003043D01*
X005726Y003098D02*
X005783Y003098D01*
X005783Y003196D02*
X005726Y003196D01*
X005726Y003295D02*
X005783Y003295D01*
X005447Y003295D02*
X005417Y003295D01*
X005447Y003196D02*
X002573Y003196D01*
X002535Y003098D02*
X005480Y003098D01*
X005617Y002901D02*
X005700Y002901D01*
X005283Y002901D02*
X004617Y002901D01*
X004777Y002802D02*
X005123Y002802D01*
X005035Y002704D02*
X004865Y002704D01*
X004905Y002605D02*
X004995Y002605D01*
X004970Y002507D02*
X004930Y002507D01*
X004930Y002408D02*
X004970Y002408D01*
X004989Y002310D02*
X004911Y002310D01*
X004871Y002211D02*
X005029Y002211D01*
X004029Y002211D02*
X003871Y002211D01*
X003911Y002310D02*
X003989Y002310D01*
X003970Y002408D02*
X003930Y002408D01*
X003930Y002507D02*
X003970Y002507D01*
X003995Y002605D02*
X003905Y002605D01*
X003865Y002704D02*
X004035Y002704D01*
X004123Y002802D02*
X003777Y002802D01*
X003617Y002901D02*
X004283Y002901D01*
X004883Y003295D02*
X002640Y003295D01*
X002847Y003393D02*
X003133Y003393D01*
X003105Y003492D02*
X002875Y003492D01*
X002875Y003590D02*
X003105Y003590D01*
X003105Y003689D02*
X002875Y003689D01*
X002875Y003787D02*
X003105Y003787D01*
X003105Y003886D02*
X002875Y003886D01*
X002875Y003984D02*
X003105Y003984D01*
X003105Y004083D02*
X002951Y004083D01*
X003050Y004181D02*
X003105Y004181D01*
X003640Y004315D02*
X003640Y004625D01*
X003695Y004680D01*
X003695Y004900D01*
X003540Y005055D01*
X003320Y005055D01*
X003220Y004955D01*
X003220Y005719D01*
X003493Y005719D01*
X003493Y005938D01*
X003493Y005938D01*
X003493Y005719D01*
X003789Y005719D01*
X003827Y005730D01*
X003861Y005749D01*
X003889Y005777D01*
X003909Y005811D01*
X003919Y005850D01*
X003919Y005938D01*
X003493Y005938D01*
X003493Y005938D01*
X003919Y005938D01*
X003919Y006027D01*
X003909Y006065D01*
X003899Y006082D01*
X003899Y006147D01*
X003970Y006075D01*
X004075Y005970D01*
X004158Y005970D01*
X004165Y005963D01*
X004165Y005936D01*
X004123Y005894D01*
X004123Y005393D01*
X004199Y005317D01*
X004701Y005317D01*
X004770Y005386D01*
X004770Y005140D01*
X004767Y005145D01*
X004739Y005173D01*
X004705Y005193D01*
X004667Y005203D01*
X004498Y005203D01*
X004498Y004905D01*
X004402Y004905D01*
X004402Y005203D01*
X004233Y005203D01*
X004195Y005193D01*
X004161Y005173D01*
X004133Y005145D01*
X004113Y005111D01*
X004103Y005073D01*
X004103Y004905D01*
X004402Y004905D01*
X004402Y004808D01*
X004498Y004808D01*
X004498Y004509D01*
X004667Y004509D01*
X004705Y004520D01*
X004739Y004539D01*
X004767Y004567D01*
X004787Y004602D01*
X004797Y004640D01*
X004797Y004808D01*
X004498Y004808D01*
X004498Y004905D01*
X004797Y004905D01*
X004797Y005073D01*
X004794Y005085D01*
X004846Y005033D01*
X004895Y005033D01*
X004895Y004783D01*
X004928Y004750D01*
X004895Y004717D01*
X004895Y004433D01*
X004917Y004411D01*
X004863Y004357D01*
X004863Y003934D01*
X004939Y003858D01*
X004956Y003858D01*
X004935Y003852D01*
X004900Y003832D01*
X004872Y003804D01*
X004857Y003777D01*
X004851Y003800D01*
X004825Y003843D01*
X004845Y003863D01*
X004845Y004147D01*
X004732Y004260D01*
X004448Y004260D01*
X004403Y004215D01*
X004377Y004215D01*
X004332Y004260D01*
X003974Y004260D01*
X003919Y004315D01*
X003640Y004315D01*
X003640Y004378D02*
X004884Y004378D01*
X004895Y004477D02*
X003640Y004477D01*
X003640Y004575D02*
X004129Y004575D01*
X004133Y004567D02*
X004161Y004539D01*
X004195Y004520D01*
X004233Y004509D01*
X004402Y004509D01*
X004402Y004808D01*
X004103Y004808D01*
X004103Y004640D01*
X004113Y004602D01*
X004133Y004567D01*
X004103Y004674D02*
X003688Y004674D01*
X003695Y004772D02*
X004103Y004772D01*
X004103Y004969D02*
X003626Y004969D01*
X003695Y004871D02*
X004402Y004871D01*
X004498Y004871D02*
X004895Y004871D01*
X004895Y004969D02*
X004797Y004969D01*
X004797Y005068D02*
X004811Y005068D01*
X004770Y005166D02*
X004746Y005166D01*
X004770Y005265D02*
X003220Y005265D01*
X003220Y005363D02*
X004153Y005363D01*
X004123Y005462D02*
X003220Y005462D01*
X003220Y005560D02*
X004123Y005560D01*
X004123Y005659D02*
X003220Y005659D01*
X003493Y005757D02*
X003493Y005757D01*
X003493Y005856D02*
X003493Y005856D01*
X003869Y005757D02*
X004123Y005757D01*
X004123Y005856D02*
X003919Y005856D01*
X003919Y005954D02*
X004165Y005954D01*
X004150Y006150D02*
X004375Y006150D01*
X004150Y006150D02*
X003850Y006450D01*
X003493Y006450D01*
X003493Y006706D02*
X004331Y006706D01*
X004375Y006750D01*
X004872Y007000D02*
X004964Y006908D01*
X005016Y006960D01*
X005160Y006960D01*
X005160Y007114D01*
X005306Y007260D01*
X005514Y007260D01*
X005600Y007174D01*
X005600Y007237D01*
X005862Y007237D01*
X005862Y007263D01*
X005862Y007525D01*
X005785Y007525D01*
X005730Y007511D01*
X005682Y007483D01*
X005642Y007443D01*
X005614Y007395D01*
X005600Y007340D01*
X005600Y007263D01*
X005862Y007263D01*
X005888Y007263D01*
X005888Y007525D01*
X005906Y007525D01*
X005571Y007860D01*
X005460Y007971D01*
X005460Y008065D01*
X005385Y008140D01*
X005385Y008288D01*
X005311Y008288D01*
X005311Y008587D01*
X005311Y008683D01*
X005609Y008683D01*
X005609Y008852D01*
X005599Y008890D01*
X005579Y008924D01*
X005552Y008952D01*
X005536Y008961D01*
X005589Y009014D01*
X005589Y009055D01*
X006511Y009055D01*
X006511Y009014D01*
X006564Y008961D01*
X006548Y008952D01*
X006521Y008924D01*
X006501Y008890D01*
X006491Y008852D01*
X006491Y008683D01*
X006789Y008683D01*
X006789Y008587D01*
X006491Y008587D01*
X006491Y008515D01*
X005609Y008515D01*
X005609Y008587D01*
X005311Y008587D01*
X005214Y008587D01*
X004916Y008587D01*
X004916Y008418D01*
X004926Y008380D01*
X004946Y008346D01*
X004974Y008318D01*
X004875Y008318D01*
X004867Y008333D02*
X004839Y008361D01*
X004805Y008380D01*
X004767Y008391D01*
X004598Y008391D01*
X004598Y008092D01*
X004502Y008092D01*
X004502Y008391D01*
X004436Y008391D01*
X004452Y008412D01*
X004453Y008413D01*
X004454Y008415D01*
X004455Y008417D01*
X004454Y008418D01*
X004466Y008462D01*
X004485Y008503D01*
X004487Y008504D01*
X004487Y008506D01*
X004488Y008508D01*
X004487Y008510D01*
X004491Y008555D01*
X004503Y008598D01*
X004504Y008600D01*
X004504Y008602D01*
X004504Y008604D01*
X004503Y008605D01*
X004499Y008650D01*
X004503Y008695D01*
X004504Y008696D01*
X004504Y008698D01*
X004504Y008700D01*
X004503Y008702D01*
X004491Y008745D01*
X004487Y008790D01*
X004488Y008792D01*
X004487Y008794D01*
X004487Y008796D01*
X004485Y008797D01*
X004466Y008838D01*
X004454Y008882D01*
X004455Y008883D01*
X004454Y008885D01*
X004453Y008887D01*
X004452Y008888D01*
X004426Y008925D01*
X004407Y008966D01*
X004407Y008967D01*
X004405Y008969D01*
X004404Y008971D01*
X004403Y008971D01*
X004384Y008990D01*
X004541Y008990D01*
X004711Y009060D01*
X004840Y009189D01*
X004910Y009358D01*
X004910Y009363D01*
X004936Y009337D01*
X004936Y009014D01*
X004989Y008961D01*
X004974Y008952D01*
X004946Y008924D01*
X004926Y008890D01*
X004916Y008852D01*
X004916Y008683D01*
X005214Y008683D01*
X005214Y008587D01*
X005214Y008288D01*
X005046Y008288D01*
X005008Y008298D01*
X004974Y008318D01*
X004887Y008298D02*
X004867Y008333D01*
X004887Y008298D02*
X004897Y008260D01*
X004897Y008092D01*
X004598Y008092D01*
X004598Y007995D01*
X004897Y007995D01*
X004897Y007880D01*
X005064Y007880D01*
X005210Y007734D01*
X005210Y007526D01*
X005064Y007380D01*
X004877Y007380D01*
X004877Y007006D01*
X004872Y007000D01*
X004877Y007038D02*
X005160Y007038D01*
X005182Y007136D02*
X004877Y007136D01*
X004877Y007235D02*
X005281Y007235D01*
X005115Y007432D02*
X005636Y007432D01*
X005600Y007333D02*
X004877Y007333D01*
X005210Y007530D02*
X005901Y007530D01*
X005888Y007432D02*
X005862Y007432D01*
X005862Y007333D02*
X005888Y007333D01*
X005888Y007237D02*
X005888Y007005D01*
X005862Y007005D01*
X005862Y007237D01*
X005888Y007237D01*
X005888Y007235D02*
X005862Y007235D01*
X005862Y007136D02*
X005888Y007136D01*
X005888Y007038D02*
X005862Y007038D01*
X005600Y007235D02*
X005539Y007235D01*
X005803Y007629D02*
X005210Y007629D01*
X005210Y007727D02*
X005704Y007727D01*
X005606Y007826D02*
X005118Y007826D01*
X004897Y007924D02*
X005507Y007924D01*
X005460Y008023D02*
X004598Y008023D01*
X004598Y008121D02*
X004502Y008121D01*
X004502Y008220D02*
X004598Y008220D01*
X004598Y008318D02*
X004502Y008318D01*
X004455Y008417D02*
X004916Y008417D01*
X004916Y008515D02*
X004487Y008515D01*
X004502Y008614D02*
X005214Y008614D01*
X005311Y008614D02*
X006789Y008614D01*
X006491Y008712D02*
X005609Y008712D01*
X005609Y008811D02*
X006491Y008811D01*
X006512Y008909D02*
X005588Y008909D01*
X005583Y009008D02*
X006517Y009008D01*
X006491Y008515D02*
X006340Y008515D01*
X006250Y008425D01*
X006160Y008515D01*
X005940Y008515D01*
X005850Y008425D01*
X005760Y008515D01*
X005609Y008515D01*
X005311Y008515D02*
X005214Y008515D01*
X005214Y008417D02*
X005311Y008417D01*
X005311Y008318D02*
X005214Y008318D01*
X005385Y008220D02*
X004897Y008220D01*
X004897Y008121D02*
X005404Y008121D01*
X006050Y008050D02*
X006050Y008250D01*
X006050Y008050D02*
X007158Y006942D01*
X007325Y006942D01*
X007325Y006745D02*
X007955Y006745D01*
X008250Y006450D01*
X008348Y006548D01*
X008250Y006450D02*
X008152Y006352D01*
X007325Y006352D01*
X007325Y006548D02*
X007252Y006548D01*
X007250Y006550D01*
X007010Y006550D01*
X007010Y006790D01*
X006650Y007150D01*
X006250Y007150D01*
X006250Y007250D01*
X006225Y007250D02*
X006250Y007150D01*
X006431Y006970D02*
X006575Y006970D01*
X006830Y006715D01*
X006830Y006609D01*
X006664Y006609D01*
X006664Y006253D01*
X006564Y006253D01*
X006564Y006609D01*
X006486Y006609D01*
X006500Y006660D01*
X006500Y006737D01*
X006238Y006737D01*
X006238Y006763D01*
X006500Y006763D01*
X006500Y006840D01*
X006486Y006895D01*
X006458Y006943D01*
X006431Y006970D01*
X006460Y006939D02*
X006606Y006939D01*
X006705Y006841D02*
X006500Y006841D01*
X006238Y006742D02*
X006803Y006742D01*
X006830Y006644D02*
X006496Y006644D01*
X006564Y006545D02*
X006664Y006545D01*
X006664Y006447D02*
X006564Y006447D01*
X006564Y006348D02*
X006664Y006348D01*
X007010Y006260D02*
X007115Y006155D01*
X007325Y006155D01*
X007325Y005958D02*
X007317Y005950D01*
X007050Y005950D01*
X006850Y005750D01*
X006050Y005750D01*
X005850Y005950D01*
X005850Y006167D01*
X005886Y006203D01*
X005886Y006404D01*
X005150Y005790D02*
X005100Y005840D01*
X005150Y005790D02*
X005150Y005608D01*
X004770Y005363D02*
X004747Y005363D01*
X004498Y005166D02*
X004402Y005166D01*
X004402Y005068D02*
X004498Y005068D01*
X004498Y004969D02*
X004402Y004969D01*
X004402Y004772D02*
X004498Y004772D01*
X004498Y004674D02*
X004402Y004674D01*
X004402Y004575D02*
X004498Y004575D01*
X004771Y004575D02*
X004895Y004575D01*
X004895Y004674D02*
X004797Y004674D01*
X004797Y004772D02*
X004906Y004772D01*
X005150Y004575D02*
X005150Y004145D01*
X004863Y004181D02*
X004811Y004181D01*
X004845Y004083D02*
X004863Y004083D01*
X004863Y003984D02*
X004845Y003984D01*
X004845Y003886D02*
X004911Y003886D01*
X004863Y003787D02*
X004854Y003787D01*
X004840Y003492D02*
X004843Y003492D01*
X004843Y003393D02*
X004729Y003393D01*
X004603Y003393D02*
X004577Y003393D01*
X004577Y003492D02*
X004603Y003492D01*
X004603Y003590D02*
X004577Y003590D01*
X004451Y003393D02*
X004329Y003393D01*
X004203Y003393D02*
X004177Y003393D01*
X004177Y003492D02*
X004203Y003492D01*
X004203Y003590D02*
X004177Y003590D01*
X004051Y003393D02*
X003967Y003393D01*
X005121Y003393D02*
X005179Y003393D01*
X005179Y003295D02*
X005121Y003295D01*
X005121Y003492D02*
X005179Y003492D01*
X005447Y003770D02*
X005428Y003804D01*
X005400Y003832D01*
X005365Y003852D01*
X005344Y003858D01*
X005361Y003858D01*
X005437Y003934D01*
X005437Y004357D01*
X005383Y004411D01*
X005405Y004433D01*
X005405Y004717D01*
X005372Y004750D01*
X005405Y004783D01*
X005405Y005033D01*
X005454Y005033D01*
X005529Y005108D01*
X005529Y005022D01*
X005539Y004983D01*
X005559Y004949D01*
X005587Y004921D01*
X005619Y004903D01*
X005614Y004895D01*
X005600Y004840D01*
X005600Y004763D01*
X005862Y004763D01*
X005862Y004737D01*
X005600Y004737D01*
X005600Y004660D01*
X005601Y004657D01*
X005577Y004657D01*
X005539Y004647D01*
X005505Y004628D01*
X005477Y004600D01*
X005457Y004565D01*
X005447Y004527D01*
X005447Y004379D01*
X005726Y004379D01*
X005726Y004321D01*
X005783Y004321D01*
X005783Y004043D01*
X005783Y003879D01*
X005726Y003879D01*
X005726Y004321D01*
X005447Y004321D01*
X005447Y004173D01*
X005457Y004135D01*
X005477Y004100D01*
X005457Y004065D01*
X005447Y004027D01*
X005447Y003879D01*
X005726Y003879D01*
X005726Y003821D01*
X005447Y003821D01*
X005447Y003770D01*
X005447Y003787D02*
X005437Y003787D01*
X005447Y003886D02*
X005389Y003886D01*
X005437Y003984D02*
X005447Y003984D01*
X005437Y004083D02*
X005467Y004083D01*
X005477Y004100D02*
X005478Y004100D01*
X005477Y004100D01*
X005447Y004181D02*
X005437Y004181D01*
X005437Y004280D02*
X005447Y004280D01*
X005416Y004378D02*
X005726Y004378D01*
X005726Y004280D02*
X005783Y004280D01*
X005783Y004181D02*
X005726Y004181D01*
X005726Y004083D02*
X005783Y004083D01*
X005783Y003984D02*
X005726Y003984D01*
X005726Y003886D02*
X005783Y003886D01*
X006345Y003850D02*
X006775Y003850D01*
X006775Y003350D02*
X006345Y003350D01*
X007125Y003350D02*
X007390Y003330D01*
X008160Y003360D02*
X008170Y003350D01*
X008175Y003350D01*
X008175Y004008D01*
X007790Y004290D02*
X007750Y004330D01*
X007750Y005525D01*
X007758Y005525D01*
X007325Y005625D02*
X007325Y005761D01*
X007325Y005625D02*
X007050Y005350D01*
X006667Y005350D01*
X006614Y005297D01*
X006614Y005139D01*
X006225Y004750D01*
X006345Y004350D02*
X006775Y004350D01*
X005600Y004674D02*
X005405Y004674D01*
X005394Y004772D02*
X005600Y004772D01*
X005608Y004871D02*
X005405Y004871D01*
X005405Y004969D02*
X005548Y004969D01*
X005529Y005068D02*
X005489Y005068D01*
X005150Y004925D02*
X005150Y005288D01*
X005405Y004575D02*
X005463Y004575D01*
X005447Y004477D02*
X005405Y004477D01*
X004863Y004280D02*
X003954Y004280D01*
X003234Y004969D02*
X003220Y004969D01*
X003220Y005068D02*
X004103Y005068D01*
X004154Y005166D02*
X003220Y005166D01*
X003912Y006053D02*
X003993Y006053D01*
X003481Y006950D02*
X003110Y006950D01*
X003481Y006950D02*
X003493Y006962D01*
X004933Y006939D02*
X004995Y006939D01*
X007010Y006550D02*
X007010Y006260D01*
X007325Y007139D02*
X007250Y007214D01*
X007750Y007383D02*
X007750Y007750D01*
X007450Y008050D01*
X007700Y008100D02*
X007700Y008820D01*
X008050Y008550D02*
X008050Y008050D01*
X008152Y007948D01*
X008152Y007375D01*
X007955Y007375D02*
X007955Y007845D01*
X007700Y008100D01*
X008375Y008150D02*
X008375Y007925D01*
X008550Y007750D01*
X009075Y007895D02*
X009150Y007820D01*
X009290Y007680D01*
X009404Y007680D01*
X009440Y007644D01*
X009526Y007730D01*
X009734Y007730D01*
X009780Y007684D01*
X009896Y007800D01*
X010104Y007800D01*
X010235Y007669D01*
X010356Y007790D01*
X010564Y007790D01*
X010710Y007644D01*
X010710Y007464D01*
X010764Y007464D01*
X010720Y007508D01*
X010720Y007792D01*
X010833Y007905D01*
X011117Y007905D01*
X011137Y007885D01*
X011180Y007911D01*
X011235Y007925D01*
X011312Y007925D01*
X011312Y007663D01*
X011338Y007663D01*
X011338Y007925D01*
X011415Y007925D01*
X011470Y007911D01*
X011518Y007883D01*
X011558Y007843D01*
X011575Y007812D01*
X011600Y007836D01*
X011644Y007862D01*
X011693Y007875D01*
X011812Y007875D01*
X011812Y007588D01*
X011888Y007588D01*
X011888Y007875D01*
X012007Y007875D01*
X012056Y007862D01*
X012100Y007836D01*
X012111Y007825D01*
X012166Y007880D01*
X012265Y007880D01*
X012175Y007970D01*
X011875Y007970D01*
X011770Y008075D01*
X011645Y008200D01*
X011645Y008223D01*
X011617Y008195D01*
X011333Y008195D01*
X011220Y008308D01*
X011220Y008592D01*
X011278Y008650D01*
X011220Y008708D01*
X011220Y008992D01*
X011310Y009082D01*
X011245Y009147D01*
X011245Y009400D01*
X010985Y009660D01*
X010846Y009660D01*
X010776Y009730D01*
X010320Y009730D01*
X010320Y009566D01*
X010174Y009420D01*
X010060Y009420D01*
X009920Y009280D01*
X009920Y009249D01*
X009940Y009229D01*
X009940Y008171D01*
X009829Y008060D01*
X009780Y008011D01*
X009780Y008008D01*
X009667Y007895D01*
X009383Y007895D01*
X009350Y007928D01*
X009317Y007895D01*
X009075Y007895D01*
X009145Y007826D02*
X010753Y007826D01*
X010720Y007727D02*
X010627Y007727D01*
X010710Y007629D02*
X010720Y007629D01*
X010710Y007530D02*
X010720Y007530D01*
X010975Y007650D02*
X010975Y007153D01*
X011120Y007078D01*
X011050Y006950D01*
X011650Y006350D01*
X012350Y006350D01*
X012548Y006548D01*
X012866Y006548D01*
X012866Y006352D02*
X012602Y006352D01*
X012400Y006150D01*
X012350Y005950D02*
X012310Y005870D01*
X012350Y005950D02*
X012450Y005950D01*
X012655Y006155D01*
X012866Y006155D01*
X013153Y006400D02*
X013800Y006400D01*
X013800Y006500D01*
X013153Y006500D01*
X013153Y006400D01*
X013153Y006447D02*
X013800Y006447D01*
X013850Y006450D02*
X013650Y006450D01*
X013250Y006050D01*
X013250Y005850D01*
X013161Y005761D01*
X012866Y005761D01*
X013161Y005466D02*
X012890Y005195D01*
X012350Y005195D01*
X012095Y005300D02*
X011916Y005300D01*
X011770Y005154D01*
X011770Y004946D01*
X011916Y004800D01*
X012124Y004800D01*
X012264Y004940D01*
X012492Y004940D01*
X012567Y005015D01*
X012965Y005015D01*
X013030Y005080D01*
X013030Y004966D01*
X013166Y004830D01*
X012675Y004830D01*
X012455Y004610D01*
X012350Y004505D01*
X012350Y004405D01*
X012265Y004490D01*
X012250Y004490D01*
X012120Y004620D01*
X012120Y004620D01*
X012020Y004720D01*
X011389Y004720D01*
X011389Y004775D01*
X011388Y004775D01*
X011415Y004775D01*
X011470Y004789D01*
X011518Y004817D01*
X011558Y004857D01*
X011586Y004905D01*
X011600Y004960D01*
X011600Y005037D01*
X011338Y005037D01*
X011338Y005063D01*
X011600Y005063D01*
X011600Y005140D01*
X011586Y005195D01*
X011562Y005236D01*
X011607Y005236D01*
X011683Y005312D01*
X011683Y005843D01*
X011820Y005980D01*
X011836Y005980D01*
X011720Y005864D01*
X011720Y005656D01*
X011866Y005510D01*
X012074Y005510D01*
X012075Y005511D01*
X012075Y005455D01*
X012089Y005400D01*
X012115Y005357D01*
X012095Y005337D01*
X012095Y005300D01*
X012111Y005363D02*
X011683Y005363D01*
X011683Y005462D02*
X012075Y005462D01*
X012096Y005532D02*
X012121Y005558D01*
X012337Y005558D01*
X012337Y005532D01*
X012096Y005532D01*
X011816Y005560D02*
X011683Y005560D01*
X011683Y005659D02*
X011720Y005659D01*
X011720Y005757D02*
X011683Y005757D01*
X011696Y005856D02*
X011720Y005856D01*
X011794Y005954D02*
X011810Y005954D01*
X011120Y005622D02*
X010975Y005547D01*
X010975Y005050D01*
X011565Y004871D02*
X011846Y004871D01*
X011770Y004969D02*
X011600Y004969D01*
X011600Y005068D02*
X011770Y005068D01*
X011782Y005166D02*
X011593Y005166D01*
X011636Y005265D02*
X011881Y005265D01*
X012194Y004871D02*
X013126Y004871D01*
X013030Y004969D02*
X012521Y004969D01*
X012617Y004772D02*
X011389Y004772D01*
X012067Y004674D02*
X012519Y004674D01*
X012420Y004575D02*
X012165Y004575D01*
X012278Y004477D02*
X012350Y004477D01*
X012530Y004430D02*
X012530Y003840D01*
X012260Y004110D02*
X012190Y004180D01*
X012190Y004310D01*
X012530Y004430D02*
X012750Y004650D01*
X013250Y004650D01*
X013555Y004955D01*
X013555Y005466D01*
X013752Y005466D02*
X013752Y005152D01*
X013752Y004423D01*
X013850Y004325D01*
X013450Y004325D01*
X013863Y003988D02*
X014125Y003988D01*
X014125Y004065D01*
X014111Y004120D01*
X014085Y004163D01*
X014105Y004183D01*
X014105Y004290D01*
X014150Y004245D01*
X014150Y003750D01*
X014123Y003757D01*
X014058Y003757D01*
X014083Y003782D01*
X014111Y003830D01*
X014125Y003885D01*
X014125Y003962D01*
X013863Y003962D01*
X013863Y003988D01*
X013863Y003984D02*
X014150Y003984D01*
X014150Y003886D02*
X014125Y003886D01*
X014150Y003787D02*
X014085Y003787D01*
X014120Y004083D02*
X014150Y004083D01*
X014150Y004181D02*
X014103Y004181D01*
X014105Y004280D02*
X014116Y004280D01*
X014330Y004320D02*
X014330Y003440D01*
X014370Y003400D01*
X014555Y003590D02*
X014780Y003590D01*
X014780Y003492D02*
X014635Y003492D01*
X014635Y003510D02*
X014510Y003635D01*
X014510Y004190D01*
X014780Y003920D01*
X014780Y003470D01*
X014635Y003470D01*
X014635Y003510D01*
X014510Y003689D02*
X014780Y003689D01*
X014780Y003787D02*
X014510Y003787D01*
X014510Y003886D02*
X014780Y003886D01*
X014716Y003984D02*
X014510Y003984D01*
X014510Y004083D02*
X014617Y004083D01*
X014519Y004181D02*
X014510Y004181D01*
X014330Y004320D02*
X013948Y004702D01*
X013948Y005466D01*
X014145Y005466D02*
X014145Y004855D01*
X014150Y004850D01*
X013752Y005152D02*
X013750Y005150D01*
X013030Y005068D02*
X013017Y005068D01*
X014342Y005958D02*
X013850Y006450D01*
X014342Y006942D01*
X014834Y006942D01*
X014834Y006745D02*
X015270Y006745D01*
X015350Y006825D01*
X015277Y006548D02*
X014834Y006548D01*
X014834Y006352D02*
X015048Y006352D01*
X015350Y006050D01*
X015725Y006050D01*
X015750Y006075D01*
X015220Y005900D02*
X015220Y004730D01*
X015640Y004310D01*
X015848Y004477D02*
X015952Y004477D01*
X015900Y004425D02*
X015750Y004575D01*
X015630Y004575D01*
X015400Y004805D01*
X015400Y005018D01*
X015405Y005014D01*
X015460Y005000D01*
X015537Y005000D01*
X015537Y005262D01*
X015563Y005262D01*
X015563Y005000D01*
X015640Y005000D01*
X015695Y005014D01*
X015743Y005042D01*
X015750Y005049D01*
X015757Y005042D01*
X015805Y005014D01*
X015860Y005000D01*
X015937Y005000D01*
X015937Y005262D01*
X015963Y005262D01*
X015963Y005000D01*
X016040Y005000D01*
X016095Y005014D01*
X016113Y005025D01*
X016117Y004641D01*
X015900Y004425D01*
X016051Y004575D02*
X015630Y004575D01*
X015531Y004674D02*
X016117Y004674D01*
X016116Y004772D02*
X015433Y004772D01*
X015400Y004871D02*
X016115Y004871D01*
X016114Y004969D02*
X015400Y004969D01*
X015537Y005068D02*
X015563Y005068D01*
X015563Y005166D02*
X015537Y005166D01*
X015937Y005166D02*
X015963Y005166D01*
X015963Y005068D02*
X015937Y005068D01*
X015950Y005625D02*
X015875Y005625D01*
X015625Y005625D02*
X015550Y005625D01*
X014834Y005761D02*
X014834Y005958D01*
X014342Y005958D01*
X013850Y006450D02*
X013550Y006750D01*
X013350Y006750D01*
X013358Y006742D01*
X013650Y006450D01*
X013550Y006750D02*
X013550Y006850D01*
X013555Y006855D01*
X013555Y007434D01*
X013358Y007434D01*
X013358Y006742D01*
X012866Y006745D02*
X012445Y006745D01*
X012350Y006650D01*
X012125Y006650D01*
X011775Y006650D02*
X011775Y007475D01*
X011850Y007550D01*
X011812Y007629D02*
X011888Y007629D01*
X011888Y007727D02*
X011812Y007727D01*
X011812Y007826D02*
X011888Y007826D01*
X012111Y007826D02*
X012112Y007826D01*
X012221Y007924D02*
X011419Y007924D01*
X011338Y007924D02*
X011312Y007924D01*
X011231Y007924D02*
X009696Y007924D01*
X009791Y008023D02*
X011823Y008023D01*
X011724Y008121D02*
X009890Y008121D01*
X009940Y008220D02*
X011308Y008220D01*
X011220Y008318D02*
X009940Y008318D01*
X009940Y008417D02*
X011220Y008417D01*
X011220Y008515D02*
X009940Y008515D01*
X009940Y008614D02*
X011241Y008614D01*
X011220Y008712D02*
X009940Y008712D01*
X009940Y008811D02*
X011220Y008811D01*
X011220Y008909D02*
X009940Y008909D01*
X009940Y009008D02*
X011235Y009008D01*
X011286Y009106D02*
X009940Y009106D01*
X009940Y009205D02*
X011245Y009205D01*
X011245Y009303D02*
X009943Y009303D01*
X010042Y009402D02*
X011244Y009402D01*
X011145Y009500D02*
X010254Y009500D01*
X010320Y009599D02*
X011047Y009599D01*
X010809Y009697D02*
X010320Y009697D01*
X010230Y009910D02*
X010950Y009910D01*
X010990Y009910D01*
X011550Y009350D01*
X011500Y009655D02*
X011200Y009955D01*
X011200Y010014D01*
X011054Y010160D01*
X010846Y010160D01*
X010776Y010090D01*
X010769Y010090D01*
X010857Y010178D01*
X010930Y010355D01*
X010930Y010545D01*
X010857Y010722D01*
X010825Y010754D01*
X011075Y010754D01*
X011043Y010722D01*
X010970Y010545D01*
X010970Y010355D01*
X011043Y010178D01*
X011178Y010043D01*
X011355Y009970D01*
X011545Y009970D01*
X011722Y010043D01*
X011857Y010178D01*
X011930Y010355D01*
X011930Y010545D01*
X011857Y010722D01*
X011826Y010753D01*
X012074Y010753D01*
X012043Y010722D01*
X011970Y010545D01*
X011970Y010355D01*
X012043Y010178D01*
X012178Y010043D01*
X012355Y009970D01*
X012545Y009970D01*
X012722Y010043D01*
X012857Y010178D01*
X012930Y010355D01*
X012930Y010545D01*
X012857Y010722D01*
X012826Y010752D01*
X013073Y010752D01*
X013043Y010722D01*
X012970Y010545D01*
X012970Y010355D01*
X013043Y010178D01*
X013178Y010043D01*
X013355Y009970D01*
X013545Y009970D01*
X013722Y010043D01*
X013857Y010178D01*
X013930Y010355D01*
X013930Y010545D01*
X013857Y010722D01*
X013827Y010752D01*
X014073Y010752D01*
X014043Y010722D01*
X013970Y010545D01*
X013970Y010355D01*
X014043Y010178D01*
X014061Y010160D01*
X013886Y010160D01*
X013740Y010014D01*
X013740Y009806D01*
X013886Y009660D01*
X014094Y009660D01*
X014240Y009806D01*
X014240Y010014D01*
X014233Y010020D01*
X014355Y009970D01*
X014545Y009970D01*
X014722Y010043D01*
X014857Y010178D01*
X014930Y010355D01*
X014930Y010545D01*
X014857Y010722D01*
X014828Y010751D01*
X015072Y010751D01*
X015043Y010722D01*
X014970Y010545D01*
X014970Y010355D01*
X015043Y010178D01*
X015178Y010043D01*
X015355Y009970D01*
X015545Y009970D01*
X015722Y010043D01*
X015857Y010178D01*
X015930Y010355D01*
X015930Y010545D01*
X015857Y010722D01*
X015828Y010750D01*
X016059Y010750D01*
X016075Y009100D01*
X016016Y009100D01*
X016025Y009135D01*
X016025Y009212D01*
X015763Y009212D01*
X015763Y009238D01*
X015737Y009238D01*
X015737Y009500D01*
X015660Y009500D01*
X015605Y009486D01*
X015557Y009458D01*
X015550Y009451D01*
X015543Y009458D01*
X015495Y009486D01*
X015440Y009500D01*
X015363Y009500D01*
X015363Y009238D01*
X015337Y009238D01*
X015337Y009500D01*
X015260Y009500D01*
X015205Y009486D01*
X015157Y009458D01*
X015117Y009418D01*
X015089Y009370D01*
X015075Y009315D01*
X015075Y009238D01*
X015337Y009238D01*
X015337Y009212D01*
X015075Y009212D01*
X015075Y009135D01*
X015089Y009080D01*
X015115Y009037D01*
X015095Y009017D01*
X015095Y008733D01*
X015100Y008728D01*
X015100Y008572D01*
X015095Y008567D01*
X015095Y008283D01*
X015128Y008250D01*
X015095Y008217D01*
X015095Y007933D01*
X015100Y007928D01*
X015100Y007875D01*
X015020Y007955D01*
X014905Y007955D01*
X014905Y008217D01*
X014885Y008237D01*
X014911Y008280D01*
X014925Y008335D01*
X014925Y008412D01*
X014663Y008412D01*
X014663Y008438D01*
X014925Y008438D01*
X014925Y008515D01*
X015095Y008515D01*
X015095Y008417D02*
X014663Y008417D01*
X014921Y008318D02*
X015095Y008318D01*
X015097Y008220D02*
X014903Y008220D01*
X014905Y008121D02*
X015095Y008121D01*
X015095Y008023D02*
X014905Y008023D01*
X015051Y007924D02*
X015100Y007924D01*
X014910Y007690D02*
X014910Y007215D01*
X014834Y007139D01*
X014539Y007434D02*
X014550Y007445D01*
X014550Y007975D01*
X014650Y008075D01*
X014925Y008515D02*
X014911Y008570D01*
X014883Y008618D01*
X014843Y008658D01*
X014835Y008662D01*
X014905Y008733D01*
X014905Y009017D01*
X014885Y009037D01*
X014911Y009080D01*
X014925Y009135D01*
X014925Y009212D01*
X014663Y009212D01*
X014663Y009238D01*
X014637Y009238D01*
X014637Y009500D01*
X014560Y009500D01*
X014515Y009488D01*
X014515Y009500D01*
X014360Y009655D01*
X014140Y009655D01*
X013985Y009500D01*
X013985Y009280D01*
X014070Y009195D01*
X014070Y008975D01*
X014175Y008870D01*
X014183Y008862D01*
X014162Y008842D01*
X014162Y008792D01*
X014130Y008825D01*
X014105Y008850D01*
X014105Y008867D01*
X014030Y008942D01*
X014030Y009225D01*
X013925Y009330D01*
X013751Y009504D01*
X013751Y009713D01*
X013675Y009789D01*
X013154Y009789D01*
X013077Y009713D01*
X013077Y009093D01*
X013154Y009017D01*
X013670Y009017D01*
X013670Y008942D01*
X013631Y008903D01*
X013464Y008903D01*
X013464Y008547D01*
X013364Y008547D01*
X013364Y008447D01*
X013057Y008447D01*
X013057Y008380D01*
X013023Y008415D01*
X013023Y008807D01*
X012946Y008883D01*
X012525Y008883D01*
X012525Y008915D01*
X012511Y008970D01*
X012495Y008997D01*
X012636Y008997D01*
X012636Y009353D01*
X012736Y009353D01*
X012736Y009453D01*
X012636Y009453D01*
X012636Y009809D01*
X012459Y009809D01*
X012421Y009798D01*
X012387Y009779D01*
X012359Y009751D01*
X012339Y009717D01*
X012329Y009678D01*
X012329Y009669D01*
X012307Y009675D01*
X012188Y009675D01*
X012188Y009388D01*
X012112Y009388D01*
X012112Y009675D01*
X011993Y009675D01*
X011944Y009662D01*
X011900Y009636D01*
X011864Y009600D01*
X011843Y009565D01*
X011753Y009655D01*
X011500Y009655D01*
X011458Y009697D02*
X012334Y009697D01*
X012416Y009796D02*
X011359Y009796D01*
X011261Y009894D02*
X013740Y009894D01*
X013740Y009993D02*
X013600Y009993D01*
X013770Y010091D02*
X013817Y010091D01*
X013862Y010190D02*
X014038Y010190D01*
X013998Y010288D02*
X013902Y010288D01*
X013930Y010387D02*
X013970Y010387D01*
X013970Y010485D02*
X013930Y010485D01*
X013914Y010584D02*
X013986Y010584D01*
X014027Y010682D02*
X013873Y010682D01*
X013027Y010682D02*
X012873Y010682D01*
X012914Y010584D02*
X012986Y010584D01*
X012970Y010485D02*
X012930Y010485D01*
X012930Y010387D02*
X012970Y010387D01*
X012998Y010288D02*
X012902Y010288D01*
X012862Y010190D02*
X013038Y010190D01*
X013130Y010091D02*
X012770Y010091D01*
X012600Y009993D02*
X013300Y009993D01*
X013077Y009697D02*
X013038Y009697D01*
X013043Y009678D02*
X013032Y009717D01*
X013013Y009751D01*
X012985Y009779D01*
X012950Y009798D01*
X012912Y009809D01*
X012736Y009809D01*
X012736Y009453D01*
X013043Y009453D01*
X013043Y009678D01*
X013043Y009599D02*
X013077Y009599D01*
X013077Y009500D02*
X013043Y009500D01*
X013077Y009402D02*
X012736Y009402D01*
X012736Y009353D02*
X013043Y009353D01*
X013043Y009127D01*
X013032Y009089D01*
X013013Y009055D01*
X012985Y009027D01*
X012950Y009007D01*
X012912Y008997D01*
X012736Y008997D01*
X012736Y009353D01*
X012736Y009303D02*
X012636Y009303D01*
X012686Y009314D02*
X013350Y008650D01*
X013350Y008561D01*
X013414Y008497D01*
X013536Y008375D01*
X013364Y008515D02*
X013023Y008515D01*
X013057Y008547D02*
X013364Y008547D01*
X013364Y008903D01*
X013188Y008903D01*
X013150Y008893D01*
X013115Y008873D01*
X013087Y008845D01*
X013068Y008811D01*
X013057Y008773D01*
X013057Y008547D01*
X013057Y008614D02*
X013023Y008614D01*
X013023Y008712D02*
X013057Y008712D01*
X013068Y008811D02*
X013019Y008811D01*
X012951Y009008D02*
X013670Y009008D01*
X013637Y008909D02*
X012525Y008909D01*
X012636Y009008D02*
X012736Y009008D01*
X012736Y009106D02*
X012636Y009106D01*
X012636Y009205D02*
X012736Y009205D01*
X012686Y009314D02*
X012686Y009403D01*
X012636Y009500D02*
X012736Y009500D01*
X012736Y009599D02*
X012636Y009599D01*
X012636Y009697D02*
X012736Y009697D01*
X012736Y009796D02*
X012636Y009796D01*
X012955Y009796D02*
X013751Y009796D01*
X013751Y009697D02*
X013849Y009697D01*
X013751Y009599D02*
X014084Y009599D01*
X014131Y009697D02*
X016069Y009697D01*
X016070Y009599D02*
X014416Y009599D01*
X014515Y009500D02*
X016071Y009500D01*
X016072Y009402D02*
X015992Y009402D01*
X015983Y009418D02*
X016011Y009370D01*
X016025Y009315D01*
X016025Y009238D01*
X015763Y009238D01*
X015763Y009500D01*
X015840Y009500D01*
X015895Y009486D01*
X015943Y009458D01*
X015983Y009418D01*
X016025Y009303D02*
X016073Y009303D01*
X016074Y009205D02*
X016025Y009205D01*
X016017Y009106D02*
X016075Y009106D01*
X015763Y009303D02*
X015737Y009303D01*
X015737Y009402D02*
X015763Y009402D01*
X015363Y009402D02*
X015337Y009402D01*
X015337Y009303D02*
X015363Y009303D01*
X015108Y009402D02*
X014892Y009402D01*
X014883Y009418D02*
X014911Y009370D01*
X014925Y009315D01*
X014925Y009238D01*
X014663Y009238D01*
X014663Y009500D01*
X014740Y009500D01*
X014795Y009486D01*
X014843Y009458D01*
X014883Y009418D01*
X014925Y009303D02*
X015075Y009303D01*
X015075Y009205D02*
X014925Y009205D01*
X014917Y009106D02*
X015083Y009106D01*
X015095Y009008D02*
X014905Y009008D01*
X014905Y008909D02*
X015095Y008909D01*
X015095Y008811D02*
X014905Y008811D01*
X014884Y008712D02*
X015100Y008712D01*
X015100Y008614D02*
X014885Y008614D01*
X014650Y008875D02*
X014450Y008875D01*
X014425Y008875D01*
X014250Y009050D01*
X014250Y009390D01*
X014061Y009205D02*
X014030Y009205D01*
X014030Y009106D02*
X014070Y009106D01*
X014070Y009008D02*
X014030Y009008D01*
X014063Y008909D02*
X014136Y008909D01*
X014144Y008811D02*
X014162Y008811D01*
X014342Y008767D02*
X014450Y008875D01*
X014342Y008767D02*
X014342Y007434D01*
X014145Y007434D02*
X014145Y008555D01*
X013950Y008750D01*
X013850Y008750D01*
X013850Y009150D01*
X013597Y009403D01*
X013414Y009403D01*
X013755Y009500D02*
X013985Y009500D01*
X013985Y009402D02*
X013853Y009402D01*
X013952Y009303D02*
X013985Y009303D01*
X014229Y009796D02*
X016068Y009796D01*
X016068Y009894D02*
X014240Y009894D01*
X014240Y009993D02*
X014300Y009993D01*
X014600Y009993D02*
X015300Y009993D01*
X015130Y010091D02*
X014770Y010091D01*
X014862Y010190D02*
X015038Y010190D01*
X014998Y010288D02*
X014902Y010288D01*
X014930Y010387D02*
X014970Y010387D01*
X014970Y010485D02*
X014930Y010485D01*
X014914Y010584D02*
X014986Y010584D01*
X015027Y010682D02*
X014873Y010682D01*
X015873Y010682D02*
X016060Y010682D01*
X016061Y010584D02*
X015914Y010584D01*
X015930Y010485D02*
X016062Y010485D01*
X016063Y010387D02*
X015930Y010387D01*
X015902Y010288D02*
X016064Y010288D01*
X016065Y010190D02*
X015862Y010190D01*
X015770Y010091D02*
X016066Y010091D01*
X016067Y009993D02*
X015600Y009993D01*
X014663Y009402D02*
X014637Y009402D01*
X014637Y009303D02*
X014663Y009303D01*
X013464Y008811D02*
X013364Y008811D01*
X013364Y008712D02*
X013464Y008712D01*
X013464Y008614D02*
X013364Y008614D01*
X013057Y008417D02*
X013023Y008417D01*
X013083Y008100D02*
X012686Y008497D01*
X012664Y008475D01*
X012250Y008475D01*
X012250Y008150D02*
X011950Y008150D01*
X011825Y008275D01*
X011825Y008450D01*
X011645Y008220D02*
X011642Y008220D01*
X011475Y008450D02*
X011475Y008850D01*
X011825Y008850D02*
X011825Y009075D01*
X012112Y009402D02*
X012188Y009402D01*
X012188Y009500D02*
X012112Y009500D01*
X012112Y009599D02*
X012188Y009599D01*
X011863Y009599D02*
X011810Y009599D01*
X011600Y009993D02*
X012300Y009993D01*
X012130Y010091D02*
X011770Y010091D01*
X011862Y010190D02*
X012038Y010190D01*
X011998Y010288D02*
X011902Y010288D01*
X011930Y010387D02*
X011970Y010387D01*
X011970Y010485D02*
X011930Y010485D01*
X011914Y010584D02*
X011986Y010584D01*
X012027Y010682D02*
X011873Y010682D01*
X011027Y010682D02*
X010873Y010682D01*
X010914Y010584D02*
X010986Y010584D01*
X010970Y010485D02*
X010930Y010485D01*
X010930Y010387D02*
X010970Y010387D01*
X010998Y010288D02*
X010902Y010288D01*
X010862Y010190D02*
X011038Y010190D01*
X011123Y010091D02*
X011130Y010091D01*
X011200Y009993D02*
X011300Y009993D01*
X010777Y010091D02*
X010770Y010091D01*
X010230Y009910D02*
X010150Y009990D01*
X009910Y009990D01*
X009670Y009750D01*
X008950Y009750D01*
X008870Y009670D01*
X008870Y008870D01*
X009164Y008576D01*
X009283Y008576D01*
X009346Y007924D02*
X009354Y007924D01*
X009243Y007727D02*
X009523Y007727D01*
X009737Y007727D02*
X009823Y007727D01*
X010177Y007727D02*
X010293Y007727D01*
X010225Y007421D02*
X010286Y007360D01*
X010220Y007294D01*
X010220Y007086D01*
X010366Y006940D01*
X010557Y006940D01*
X010557Y006880D01*
X010446Y006880D01*
X010373Y006807D01*
X010000Y007180D01*
X009900Y007280D01*
X009784Y007280D01*
X009850Y007346D01*
X009896Y007300D01*
X010104Y007300D01*
X010225Y007421D01*
X010259Y007333D02*
X010137Y007333D01*
X010220Y007235D02*
X009946Y007235D01*
X009863Y007333D02*
X009837Y007333D01*
X010044Y007136D02*
X010220Y007136D01*
X010269Y007038D02*
X010143Y007038D01*
X010241Y006939D02*
X010557Y006939D01*
X010407Y006841D02*
X010340Y006841D01*
X010010Y006450D02*
X009650Y006450D01*
X009650Y006415D01*
X009650Y006050D01*
X009558Y005958D01*
X009175Y005958D01*
X008742Y005525D02*
X008742Y005358D01*
X008850Y005250D01*
X008750Y005050D02*
X008545Y005255D01*
X008545Y005525D01*
X009209Y004550D02*
X009183Y004524D01*
X010075Y004108D02*
X010075Y003350D01*
X010070Y003345D01*
X010425Y003350D02*
X010425Y003575D01*
X010420Y003700D01*
X010425Y003350D02*
X010450Y003325D01*
X009650Y003450D02*
X009550Y003350D01*
X009325Y003350D01*
X008975Y003350D02*
X008975Y003568D01*
X009183Y003776D01*
X008570Y003650D02*
X008525Y003635D01*
X008525Y003350D01*
X010075Y004108D02*
X010117Y004150D01*
X011450Y002990D02*
X012100Y002990D01*
X012260Y003150D01*
X012360Y003250D01*
X012360Y003268D01*
X012405Y003223D01*
X012405Y003175D01*
X012540Y003040D01*
X012640Y002940D01*
X012786Y002940D01*
X012866Y002860D01*
X013074Y002860D01*
X013220Y003006D01*
X013220Y003163D01*
X013566Y003163D01*
X013642Y003239D01*
X013642Y003256D01*
X013648Y003235D01*
X013668Y003200D01*
X013696Y003172D01*
X013730Y003153D01*
X013768Y003143D01*
X013917Y003143D01*
X013917Y003421D01*
X013974Y003421D01*
X013974Y003143D01*
X014123Y003143D01*
X014161Y003153D01*
X014195Y003172D01*
X014209Y003186D01*
X014260Y003135D01*
X014460Y003135D01*
X014460Y003116D01*
X014606Y002970D01*
X014675Y002970D01*
X014675Y002876D01*
X014545Y002930D01*
X014355Y002930D01*
X014178Y002857D01*
X014043Y002722D01*
X013970Y002545D01*
X013970Y002355D01*
X014043Y002178D01*
X014080Y002141D01*
X013820Y002142D01*
X013857Y002178D01*
X013930Y002355D01*
X013930Y002545D01*
X013857Y002722D01*
X013722Y002857D01*
X013545Y002930D01*
X013355Y002930D01*
X013178Y002857D01*
X013043Y002722D01*
X012970Y002545D01*
X012970Y002355D01*
X013043Y002178D01*
X013079Y002142D01*
X012844Y002142D01*
X012878Y002188D01*
X012913Y002258D01*
X012938Y002333D01*
X012948Y002400D01*
X012500Y002400D01*
X012500Y002500D01*
X012400Y002500D01*
X012400Y002948D01*
X012333Y002938D01*
X012258Y002913D01*
X012188Y002878D01*
X012124Y002831D01*
X012069Y002776D01*
X012022Y002712D01*
X011987Y002642D01*
X011962Y002567D01*
X011952Y002500D01*
X012400Y002500D01*
X012400Y002400D01*
X011952Y002400D01*
X011962Y002333D01*
X011987Y002258D01*
X012022Y002188D01*
X012055Y002143D01*
X011845Y002143D01*
X011878Y002188D01*
X011913Y002258D01*
X011938Y002333D01*
X011948Y002400D01*
X011500Y002400D01*
X011500Y002500D01*
X011400Y002500D01*
X011400Y002836D01*
X011450Y002886D01*
X011450Y002990D01*
X011500Y002948D02*
X011500Y002500D01*
X011948Y002500D01*
X011938Y002567D01*
X011913Y002642D01*
X011878Y002712D01*
X011831Y002776D01*
X011776Y002831D01*
X011712Y002878D01*
X011642Y002913D01*
X011567Y002938D01*
X011500Y002948D01*
X011500Y002901D02*
X011450Y002901D01*
X011400Y002802D02*
X011500Y002802D01*
X011500Y002704D02*
X011400Y002704D01*
X011400Y002605D02*
X011500Y002605D01*
X011500Y002507D02*
X011400Y002507D01*
X011500Y002408D02*
X012400Y002408D01*
X012400Y002507D02*
X012500Y002507D01*
X012500Y002500D02*
X012500Y002948D01*
X012567Y002938D01*
X012642Y002913D01*
X012712Y002878D01*
X012776Y002831D01*
X012831Y002776D01*
X012878Y002712D01*
X012913Y002642D01*
X012938Y002567D01*
X012948Y002500D01*
X012500Y002500D01*
X012500Y002408D02*
X012970Y002408D01*
X012970Y002507D02*
X012947Y002507D01*
X012925Y002605D02*
X012995Y002605D01*
X013035Y002704D02*
X012882Y002704D01*
X012805Y002802D02*
X013123Y002802D01*
X013114Y002901D02*
X013283Y002901D01*
X013213Y002999D02*
X014577Y002999D01*
X014617Y002901D02*
X014675Y002901D01*
X014479Y003098D02*
X013220Y003098D01*
X013355Y003450D02*
X012925Y003450D01*
X012482Y003098D02*
X012208Y003098D01*
X012306Y003196D02*
X012405Y003196D01*
X012581Y002999D02*
X012109Y002999D01*
X012233Y002901D02*
X011667Y002901D01*
X011805Y002802D02*
X012095Y002802D01*
X012018Y002704D02*
X011882Y002704D01*
X011925Y002605D02*
X011975Y002605D01*
X011953Y002507D02*
X011947Y002507D01*
X011930Y002310D02*
X011970Y002310D01*
X012011Y002211D02*
X011889Y002211D01*
X012400Y002605D02*
X012500Y002605D01*
X012500Y002704D02*
X012400Y002704D01*
X012400Y002802D02*
X012500Y002802D01*
X012500Y002901D02*
X012400Y002901D01*
X012667Y002901D02*
X012826Y002901D01*
X013617Y002901D02*
X014283Y002901D01*
X014123Y002802D02*
X013777Y002802D01*
X013865Y002704D02*
X014035Y002704D01*
X013995Y002605D02*
X013905Y002605D01*
X013930Y002507D02*
X013970Y002507D01*
X013970Y002408D02*
X013930Y002408D01*
X013911Y002310D02*
X013989Y002310D01*
X014029Y002211D02*
X013871Y002211D01*
X013029Y002211D02*
X012889Y002211D01*
X012930Y002310D02*
X012989Y002310D01*
X013600Y003196D02*
X013672Y003196D01*
X013917Y003196D02*
X013974Y003196D01*
X013974Y003295D02*
X013917Y003295D01*
X013917Y003393D02*
X013974Y003393D01*
X010050Y006410D02*
X010010Y006450D01*
X009637Y006752D02*
X009480Y006752D01*
X009480Y006778D01*
X009637Y006778D01*
X009637Y006752D01*
X011312Y007727D02*
X011338Y007727D01*
X011338Y007826D02*
X011312Y007826D01*
X011568Y007826D02*
X011589Y007826D01*
X012270Y007630D02*
X012360Y007550D01*
X012450Y007550D01*
X012861Y007139D01*
X012866Y007139D01*
X012866Y006942D02*
X012458Y006942D01*
X012350Y007050D01*
X012125Y007050D01*
X013150Y007445D02*
X013150Y007650D01*
X012850Y007950D01*
X012450Y007950D01*
X012250Y008150D01*
X013083Y008100D02*
X013800Y008100D01*
X013948Y007952D01*
X013948Y007434D01*
X013752Y007434D02*
X013752Y007748D01*
X013690Y007810D01*
X013680Y007810D01*
X013161Y007434D02*
X013150Y007445D01*
X014539Y007434D02*
X014539Y007464D01*
X015277Y006548D02*
X015350Y006475D01*
X013077Y009106D02*
X013037Y009106D01*
X013043Y009205D02*
X013077Y009205D01*
X013077Y009303D02*
X013043Y009303D01*
X007758Y007375D02*
X007750Y007383D01*
X005263Y009265D02*
X005030Y009498D01*
X005030Y009750D01*
X004936Y009303D02*
X004887Y009303D01*
X004846Y009205D02*
X004936Y009205D01*
X004936Y009106D02*
X004757Y009106D01*
X004584Y009008D02*
X004942Y009008D01*
X004937Y008909D02*
X004437Y008909D01*
X004479Y008811D02*
X004916Y008811D01*
X004916Y008712D02*
X004500Y008712D01*
D11*
X005812Y007313D02*
X005938Y007313D01*
X005938Y007187D01*
X005812Y007187D01*
X005812Y007313D01*
X005812Y007311D02*
X005938Y007311D01*
X006162Y007313D02*
X006288Y007313D01*
X006288Y007187D01*
X006162Y007187D01*
X006162Y007313D01*
X006162Y007311D02*
X006288Y007311D01*
X006288Y006687D02*
X006162Y006687D01*
X006162Y006813D01*
X006288Y006813D01*
X006288Y006687D01*
X006288Y006811D02*
X006162Y006811D01*
X005938Y006687D02*
X005812Y006687D01*
X005812Y006813D01*
X005938Y006813D01*
X005938Y006687D01*
X005938Y006811D02*
X005812Y006811D01*
X004788Y006813D02*
X004662Y006813D01*
X004788Y006813D02*
X004788Y006687D01*
X004662Y006687D01*
X004662Y006813D01*
X004662Y006811D02*
X004788Y006811D01*
X004438Y006813D02*
X004312Y006813D01*
X004438Y006813D02*
X004438Y006687D01*
X004312Y006687D01*
X004312Y006813D01*
X004312Y006811D02*
X004438Y006811D01*
X004438Y006213D02*
X004312Y006213D01*
X004438Y006213D02*
X004438Y006087D01*
X004312Y006087D01*
X004312Y006213D01*
X004312Y006211D02*
X004438Y006211D01*
X004662Y006213D02*
X004788Y006213D01*
X004788Y006087D01*
X004662Y006087D01*
X004662Y006213D01*
X004662Y006211D02*
X004788Y006211D01*
X005087Y004988D02*
X005087Y004862D01*
X005087Y004988D02*
X005213Y004988D01*
X005213Y004862D01*
X005087Y004862D01*
X005087Y004986D02*
X005213Y004986D01*
X005087Y004638D02*
X005087Y004512D01*
X005087Y004638D02*
X005213Y004638D01*
X005213Y004512D01*
X005087Y004512D01*
X005087Y004636D02*
X005213Y004636D01*
X005812Y004813D02*
X005938Y004813D01*
X005938Y004687D01*
X005812Y004687D01*
X005812Y004813D01*
X005812Y004811D02*
X005938Y004811D01*
X006162Y004813D02*
X006288Y004813D01*
X006288Y004687D01*
X006162Y004687D01*
X006162Y004813D01*
X006162Y004811D02*
X006288Y004811D01*
X006712Y004413D02*
X006838Y004413D01*
X006838Y004287D01*
X006712Y004287D01*
X006712Y004413D01*
X006712Y004411D02*
X006838Y004411D01*
X007062Y004413D02*
X007188Y004413D01*
X007188Y004287D01*
X007062Y004287D01*
X007062Y004413D01*
X007062Y004411D02*
X007188Y004411D01*
X007188Y003913D02*
X007062Y003913D01*
X007188Y003913D02*
X007188Y003787D01*
X007062Y003787D01*
X007062Y003913D01*
X007062Y003911D02*
X007188Y003911D01*
X006838Y003913D02*
X006712Y003913D01*
X006838Y003913D02*
X006838Y003787D01*
X006712Y003787D01*
X006712Y003913D01*
X006712Y003911D02*
X006838Y003911D01*
X006838Y003413D02*
X006712Y003413D01*
X006838Y003413D02*
X006838Y003287D01*
X006712Y003287D01*
X006712Y003413D01*
X006712Y003411D02*
X006838Y003411D01*
X007062Y003413D02*
X007188Y003413D01*
X007188Y003287D01*
X007062Y003287D01*
X007062Y003413D01*
X007062Y003411D02*
X007188Y003411D01*
X008112Y003413D02*
X008238Y003413D01*
X008238Y003287D01*
X008112Y003287D01*
X008112Y003413D01*
X008112Y003411D02*
X008238Y003411D01*
X008462Y003413D02*
X008588Y003413D01*
X008588Y003287D01*
X008462Y003287D01*
X008462Y003413D01*
X008462Y003411D02*
X008588Y003411D01*
X008912Y003413D02*
X009038Y003413D01*
X009038Y003287D01*
X008912Y003287D01*
X008912Y003413D01*
X008912Y003411D02*
X009038Y003411D01*
X009262Y003413D02*
X009388Y003413D01*
X009388Y003287D01*
X009262Y003287D01*
X009262Y003413D01*
X009262Y003411D02*
X009388Y003411D01*
X010012Y003413D02*
X010138Y003413D01*
X010138Y003287D01*
X010012Y003287D01*
X010012Y003413D01*
X010012Y003411D02*
X010138Y003411D01*
X010362Y003413D02*
X010488Y003413D01*
X010488Y003287D01*
X010362Y003287D01*
X010362Y003413D01*
X010362Y003411D02*
X010488Y003411D01*
X010812Y003413D02*
X010938Y003413D01*
X010938Y003287D01*
X010812Y003287D01*
X010812Y003413D01*
X010812Y003411D02*
X010938Y003411D01*
X011162Y003413D02*
X011288Y003413D01*
X011288Y003287D01*
X011162Y003287D01*
X011162Y003413D01*
X011162Y003411D02*
X011288Y003411D01*
X012512Y003513D02*
X012638Y003513D01*
X012638Y003387D01*
X012512Y003387D01*
X012512Y003513D01*
X012512Y003511D02*
X012638Y003511D01*
X012862Y003513D02*
X012988Y003513D01*
X012988Y003387D01*
X012862Y003387D01*
X012862Y003513D01*
X012862Y003511D02*
X012988Y003511D01*
X013513Y003912D02*
X013513Y004038D01*
X013513Y003912D02*
X013387Y003912D01*
X013387Y004038D01*
X013513Y004038D01*
X013513Y004036D02*
X013387Y004036D01*
X013513Y004262D02*
X013513Y004388D01*
X013513Y004262D02*
X013387Y004262D01*
X013387Y004388D01*
X013513Y004388D01*
X013513Y004386D02*
X013387Y004386D01*
X013913Y004388D02*
X013913Y004262D01*
X013787Y004262D01*
X013787Y004388D01*
X013913Y004388D01*
X013913Y004386D02*
X013787Y004386D01*
X013913Y004038D02*
X013913Y003912D01*
X013787Y003912D01*
X013787Y004038D01*
X013913Y004038D01*
X013913Y004036D02*
X013787Y004036D01*
X012287Y005132D02*
X012287Y005258D01*
X012413Y005258D01*
X012413Y005132D01*
X012287Y005132D01*
X012287Y005256D02*
X012413Y005256D01*
X012287Y005482D02*
X012287Y005608D01*
X012413Y005608D01*
X012413Y005482D01*
X012287Y005482D01*
X012287Y005606D02*
X012413Y005606D01*
X011388Y004987D02*
X011262Y004987D01*
X011262Y005113D01*
X011388Y005113D01*
X011388Y004987D01*
X011388Y005111D02*
X011262Y005111D01*
X011038Y004987D02*
X010912Y004987D01*
X010912Y005113D01*
X011038Y005113D01*
X011038Y004987D01*
X011038Y005111D02*
X010912Y005111D01*
X009713Y006352D02*
X009713Y006478D01*
X009713Y006352D02*
X009587Y006352D01*
X009587Y006478D01*
X009713Y006478D01*
X009713Y006476D02*
X009587Y006476D01*
X009713Y006702D02*
X009713Y006828D01*
X009713Y006702D02*
X009587Y006702D01*
X009587Y006828D01*
X009713Y006828D01*
X009713Y006826D02*
X009587Y006826D01*
X008813Y005887D02*
X007687Y005887D01*
X007687Y007013D01*
X008813Y007013D01*
X008813Y005887D01*
X008813Y006011D02*
X007687Y006011D01*
X007687Y006135D02*
X008813Y006135D01*
X008813Y006259D02*
X007687Y006259D01*
X007687Y006383D02*
X008813Y006383D01*
X008813Y006507D02*
X007687Y006507D01*
X007687Y006631D02*
X008813Y006631D01*
X008813Y006755D02*
X007687Y006755D01*
X007687Y006879D02*
X008813Y006879D01*
X008813Y007003D02*
X007687Y007003D01*
X008312Y008213D02*
X008438Y008213D01*
X008438Y008087D01*
X008312Y008087D01*
X008312Y008213D01*
X008312Y008211D02*
X008438Y008211D01*
X008662Y008213D02*
X008788Y008213D01*
X008788Y008087D01*
X008662Y008087D01*
X008662Y008213D01*
X008662Y008211D02*
X008788Y008211D01*
X009112Y008213D02*
X009238Y008213D01*
X009238Y008087D01*
X009112Y008087D01*
X009112Y008213D01*
X009112Y008211D02*
X009238Y008211D01*
X009462Y008213D02*
X009588Y008213D01*
X009588Y008087D01*
X009462Y008087D01*
X009462Y008213D01*
X009462Y008211D02*
X009588Y008211D01*
X010912Y007587D02*
X011038Y007587D01*
X010912Y007587D02*
X010912Y007713D01*
X011038Y007713D01*
X011038Y007587D01*
X011038Y007711D02*
X010912Y007711D01*
X011262Y007587D02*
X011388Y007587D01*
X011262Y007587D02*
X011262Y007713D01*
X011388Y007713D01*
X011388Y007587D01*
X011388Y007711D02*
X011262Y007711D01*
X011712Y007113D02*
X011838Y007113D01*
X011838Y006987D01*
X011712Y006987D01*
X011712Y007113D01*
X011712Y007111D02*
X011838Y007111D01*
X012062Y007113D02*
X012188Y007113D01*
X012188Y006987D01*
X012062Y006987D01*
X012062Y007113D01*
X012062Y007111D02*
X012188Y007111D01*
X012188Y006713D02*
X012062Y006713D01*
X012188Y006713D02*
X012188Y006587D01*
X012062Y006587D01*
X012062Y006713D01*
X012062Y006711D02*
X012188Y006711D01*
X011838Y006713D02*
X011712Y006713D01*
X011838Y006713D02*
X011838Y006587D01*
X011712Y006587D01*
X011712Y006713D01*
X011712Y006711D02*
X011838Y006711D01*
X013787Y008312D02*
X013787Y008438D01*
X013913Y008438D01*
X013913Y008312D01*
X013787Y008312D01*
X013787Y008436D02*
X013913Y008436D01*
X013787Y008662D02*
X013787Y008788D01*
X013913Y008788D01*
X013913Y008662D01*
X013787Y008662D01*
X013787Y008786D02*
X013913Y008786D01*
X014713Y008812D02*
X014713Y008938D01*
X014713Y008812D02*
X014587Y008812D01*
X014587Y008938D01*
X014713Y008938D01*
X014713Y008936D02*
X014587Y008936D01*
X014713Y009162D02*
X014713Y009288D01*
X014713Y009162D02*
X014587Y009162D01*
X014587Y009288D01*
X014713Y009288D01*
X014713Y009286D02*
X014587Y009286D01*
X015413Y009288D02*
X015413Y009162D01*
X015287Y009162D01*
X015287Y009288D01*
X015413Y009288D01*
X015413Y009286D02*
X015287Y009286D01*
X015813Y009288D02*
X015813Y009162D01*
X015687Y009162D01*
X015687Y009288D01*
X015813Y009288D01*
X015813Y009286D02*
X015687Y009286D01*
X015813Y008938D02*
X015813Y008812D01*
X015687Y008812D01*
X015687Y008938D01*
X015813Y008938D01*
X015813Y008936D02*
X015687Y008936D01*
X015413Y008938D02*
X015413Y008812D01*
X015287Y008812D01*
X015287Y008938D01*
X015413Y008938D01*
X015413Y008936D02*
X015287Y008936D01*
X015287Y008488D02*
X015287Y008362D01*
X015287Y008488D02*
X015413Y008488D01*
X015413Y008362D01*
X015287Y008362D01*
X015287Y008486D02*
X015413Y008486D01*
X015287Y008138D02*
X015287Y008012D01*
X015287Y008138D02*
X015413Y008138D01*
X015413Y008012D01*
X015287Y008012D01*
X015287Y008136D02*
X015413Y008136D01*
X015413Y007688D02*
X015413Y007562D01*
X015287Y007562D01*
X015287Y007688D01*
X015413Y007688D01*
X015413Y007686D02*
X015287Y007686D01*
X015413Y007338D02*
X015413Y007212D01*
X015287Y007212D01*
X015287Y007338D01*
X015413Y007338D01*
X015413Y007336D02*
X015287Y007336D01*
X015413Y006888D02*
X015413Y006762D01*
X015287Y006762D01*
X015287Y006888D01*
X015413Y006888D01*
X015413Y006886D02*
X015287Y006886D01*
X015413Y006538D02*
X015413Y006412D01*
X015287Y006412D01*
X015287Y006538D01*
X015413Y006538D01*
X015413Y006536D02*
X015287Y006536D01*
X015687Y006488D02*
X015687Y006362D01*
X015687Y006488D02*
X015813Y006488D01*
X015813Y006362D01*
X015687Y006362D01*
X015687Y006486D02*
X015813Y006486D01*
X015687Y006138D02*
X015687Y006012D01*
X015687Y006138D02*
X015813Y006138D01*
X015813Y006012D01*
X015687Y006012D01*
X015687Y006136D02*
X015813Y006136D01*
X016013Y005688D02*
X016013Y005562D01*
X015887Y005562D01*
X015887Y005688D01*
X016013Y005688D01*
X016013Y005686D02*
X015887Y005686D01*
X015613Y005688D02*
X015613Y005562D01*
X015487Y005562D01*
X015487Y005688D01*
X015613Y005688D01*
X015613Y005686D02*
X015487Y005686D01*
X015613Y005338D02*
X015613Y005212D01*
X015487Y005212D01*
X015487Y005338D01*
X015613Y005338D01*
X015613Y005336D02*
X015487Y005336D01*
X016013Y005338D02*
X016013Y005212D01*
X015887Y005212D01*
X015887Y005338D01*
X016013Y005338D01*
X016013Y005336D02*
X015887Y005336D01*
X014713Y008012D02*
X014713Y008138D01*
X014713Y008012D02*
X014587Y008012D01*
X014587Y008138D01*
X014713Y008138D01*
X014713Y008136D02*
X014587Y008136D01*
X014713Y008362D02*
X014713Y008488D01*
X014713Y008362D02*
X014587Y008362D01*
X014587Y008488D01*
X014713Y008488D01*
X014713Y008486D02*
X014587Y008486D01*
X012313Y008538D02*
X012313Y008412D01*
X012187Y008412D01*
X012187Y008538D01*
X012313Y008538D01*
X012313Y008536D02*
X012187Y008536D01*
X012313Y008762D02*
X012313Y008888D01*
X012313Y008762D02*
X012187Y008762D01*
X012187Y008888D01*
X012313Y008888D01*
X012313Y008886D02*
X012187Y008886D01*
X011888Y008787D02*
X011762Y008787D01*
X011762Y008913D01*
X011888Y008913D01*
X011888Y008787D01*
X011888Y008911D02*
X011762Y008911D01*
X011538Y008787D02*
X011412Y008787D01*
X011412Y008913D01*
X011538Y008913D01*
X011538Y008787D01*
X011538Y008911D02*
X011412Y008911D01*
X011412Y008513D02*
X011538Y008513D01*
X011538Y008387D01*
X011412Y008387D01*
X011412Y008513D01*
X011412Y008511D02*
X011538Y008511D01*
X011762Y008513D02*
X011888Y008513D01*
X011888Y008387D01*
X011762Y008387D01*
X011762Y008513D01*
X011762Y008511D02*
X011888Y008511D01*
X004653Y004068D02*
X004653Y003942D01*
X004527Y003942D01*
X004527Y004068D01*
X004653Y004068D01*
X004653Y004066D02*
X004527Y004066D01*
X004127Y004068D02*
X004127Y003942D01*
X004127Y004068D02*
X004253Y004068D01*
X004253Y003942D01*
X004127Y003942D01*
X004127Y004066D02*
X004253Y004066D01*
X004127Y003718D02*
X004127Y003592D01*
X004127Y003718D02*
X004253Y003718D01*
X004253Y003592D01*
X004127Y003592D01*
X004127Y003716D02*
X004253Y003716D01*
X004653Y003718D02*
X004653Y003592D01*
X004527Y003592D01*
X004527Y003718D01*
X004653Y003718D01*
X004653Y003716D02*
X004527Y003716D01*
D12*
X003950Y008650D03*
D13*
X004550Y008044D03*
X005263Y008635D03*
X005263Y009265D03*
X006837Y009265D03*
X006837Y008635D03*
X004550Y007256D03*
X004450Y005644D03*
X004450Y004856D03*
D14*
X012866Y005761D03*
X012866Y005958D03*
X012866Y006155D03*
X012866Y006352D03*
X012866Y006548D03*
X012866Y006745D03*
X012866Y006942D03*
X012866Y007139D03*
X014834Y007139D03*
X014834Y006942D03*
X014834Y006745D03*
X014834Y006548D03*
X014834Y006352D03*
X014834Y006155D03*
X014834Y005958D03*
X014834Y005761D03*
D15*
X014539Y005466D03*
X014342Y005466D03*
X014145Y005466D03*
X013948Y005466D03*
X013752Y005466D03*
X013555Y005466D03*
X013358Y005466D03*
X013161Y005466D03*
X013161Y007434D03*
X013358Y007434D03*
X013555Y007434D03*
X013752Y007434D03*
X013948Y007434D03*
X014145Y007434D03*
X014342Y007434D03*
X014539Y007434D03*
D16*
X013850Y006450D03*
D17*
X012581Y007681D02*
X012319Y007681D01*
X012581Y007681D02*
X012581Y007419D01*
X012319Y007419D01*
X012319Y007681D01*
X012319Y007506D02*
X012581Y007506D01*
X012581Y007593D02*
X012319Y007593D01*
X012319Y007680D02*
X012581Y007680D01*
X011981Y007681D02*
X011719Y007681D01*
X011981Y007681D02*
X011981Y007419D01*
X011719Y007419D01*
X011719Y007681D01*
X011719Y007506D02*
X011981Y007506D01*
X011981Y007593D02*
X011719Y007593D01*
X011719Y007680D02*
X011981Y007680D01*
X012019Y009219D02*
X012281Y009219D01*
X012019Y009219D02*
X012019Y009481D01*
X012281Y009481D01*
X012281Y009219D01*
X012281Y009306D02*
X012019Y009306D01*
X012019Y009393D02*
X012281Y009393D01*
X012281Y009480D02*
X012019Y009480D01*
X011681Y009219D02*
X011419Y009219D01*
X011419Y009481D01*
X011681Y009481D01*
X011681Y009219D01*
X011681Y009306D02*
X011419Y009306D01*
X011419Y009393D02*
X011681Y009393D01*
X011681Y009480D02*
X011419Y009480D01*
D18*
X011120Y007078D03*
X011120Y005622D03*
D19*
X016750Y006250D03*
X016750Y008850D03*
D20*
X013414Y008497D03*
X012686Y008497D03*
X012686Y009403D03*
X013414Y009403D03*
X006614Y006203D03*
X005886Y006203D03*
X005886Y005297D03*
X006614Y005297D03*
D21*
X003550Y003830D03*
X002430Y003830D03*
D22*
X007216Y005731D02*
X007434Y005731D01*
X007216Y005731D02*
X007216Y005791D01*
X007434Y005791D01*
X007434Y005731D01*
X007434Y005789D02*
X007216Y005789D01*
X007216Y005928D02*
X007434Y005928D01*
X007216Y005928D02*
X007216Y005988D01*
X007434Y005988D01*
X007434Y005928D01*
X007434Y005986D02*
X007216Y005986D01*
X007216Y006125D02*
X007434Y006125D01*
X007216Y006125D02*
X007216Y006185D01*
X007434Y006185D01*
X007434Y006125D01*
X007434Y006183D02*
X007216Y006183D01*
X007216Y006322D02*
X007434Y006322D01*
X007216Y006322D02*
X007216Y006382D01*
X007434Y006382D01*
X007434Y006322D01*
X007434Y006380D02*
X007216Y006380D01*
X007216Y006518D02*
X007434Y006518D01*
X007216Y006518D02*
X007216Y006578D01*
X007434Y006578D01*
X007434Y006518D01*
X007434Y006576D02*
X007216Y006576D01*
X007216Y006715D02*
X007434Y006715D01*
X007216Y006715D02*
X007216Y006775D01*
X007434Y006775D01*
X007434Y006715D01*
X007434Y006773D02*
X007216Y006773D01*
X007216Y006912D02*
X007434Y006912D01*
X007216Y006912D02*
X007216Y006972D01*
X007434Y006972D01*
X007434Y006912D01*
X007434Y006970D02*
X007216Y006970D01*
X007216Y007109D02*
X007434Y007109D01*
X007216Y007109D02*
X007216Y007169D01*
X007434Y007169D01*
X007434Y007109D01*
X007434Y007167D02*
X007216Y007167D01*
X007531Y007266D02*
X007591Y007266D01*
X007531Y007266D02*
X007531Y007484D01*
X007591Y007484D01*
X007591Y007266D01*
X007591Y007324D02*
X007531Y007324D01*
X007531Y007382D02*
X007591Y007382D01*
X007591Y007440D02*
X007531Y007440D01*
X007728Y007266D02*
X007788Y007266D01*
X007728Y007266D02*
X007728Y007484D01*
X007788Y007484D01*
X007788Y007266D01*
X007788Y007324D02*
X007728Y007324D01*
X007728Y007382D02*
X007788Y007382D01*
X007788Y007440D02*
X007728Y007440D01*
X007925Y007266D02*
X007985Y007266D01*
X007925Y007266D02*
X007925Y007484D01*
X007985Y007484D01*
X007985Y007266D01*
X007985Y007324D02*
X007925Y007324D01*
X007925Y007382D02*
X007985Y007382D01*
X007985Y007440D02*
X007925Y007440D01*
X008122Y007266D02*
X008182Y007266D01*
X008122Y007266D02*
X008122Y007484D01*
X008182Y007484D01*
X008182Y007266D01*
X008182Y007324D02*
X008122Y007324D01*
X008122Y007382D02*
X008182Y007382D01*
X008182Y007440D02*
X008122Y007440D01*
X008318Y007266D02*
X008378Y007266D01*
X008318Y007266D02*
X008318Y007484D01*
X008378Y007484D01*
X008378Y007266D01*
X008378Y007324D02*
X008318Y007324D01*
X008318Y007382D02*
X008378Y007382D01*
X008378Y007440D02*
X008318Y007440D01*
X008515Y007266D02*
X008575Y007266D01*
X008515Y007266D02*
X008515Y007484D01*
X008575Y007484D01*
X008575Y007266D01*
X008575Y007324D02*
X008515Y007324D01*
X008515Y007382D02*
X008575Y007382D01*
X008575Y007440D02*
X008515Y007440D01*
X008712Y007266D02*
X008772Y007266D01*
X008712Y007266D02*
X008712Y007484D01*
X008772Y007484D01*
X008772Y007266D01*
X008772Y007324D02*
X008712Y007324D01*
X008712Y007382D02*
X008772Y007382D01*
X008772Y007440D02*
X008712Y007440D01*
X008909Y007266D02*
X008969Y007266D01*
X008909Y007266D02*
X008909Y007484D01*
X008969Y007484D01*
X008969Y007266D01*
X008969Y007324D02*
X008909Y007324D01*
X008909Y007382D02*
X008969Y007382D01*
X008969Y007440D02*
X008909Y007440D01*
X009066Y007109D02*
X009284Y007109D01*
X009066Y007109D02*
X009066Y007169D01*
X009284Y007169D01*
X009284Y007109D01*
X009284Y007167D02*
X009066Y007167D01*
X009066Y006912D02*
X009284Y006912D01*
X009066Y006912D02*
X009066Y006972D01*
X009284Y006972D01*
X009284Y006912D01*
X009284Y006970D02*
X009066Y006970D01*
X009066Y006715D02*
X009284Y006715D01*
X009066Y006715D02*
X009066Y006775D01*
X009284Y006775D01*
X009284Y006715D01*
X009284Y006773D02*
X009066Y006773D01*
X009066Y006518D02*
X009284Y006518D01*
X009066Y006518D02*
X009066Y006578D01*
X009284Y006578D01*
X009284Y006518D01*
X009284Y006576D02*
X009066Y006576D01*
X009066Y006322D02*
X009284Y006322D01*
X009066Y006322D02*
X009066Y006382D01*
X009284Y006382D01*
X009284Y006322D01*
X009284Y006380D02*
X009066Y006380D01*
X009066Y006125D02*
X009284Y006125D01*
X009066Y006125D02*
X009066Y006185D01*
X009284Y006185D01*
X009284Y006125D01*
X009284Y006183D02*
X009066Y006183D01*
X009066Y005928D02*
X009284Y005928D01*
X009066Y005928D02*
X009066Y005988D01*
X009284Y005988D01*
X009284Y005928D01*
X009284Y005986D02*
X009066Y005986D01*
X009066Y005731D02*
X009284Y005731D01*
X009066Y005731D02*
X009066Y005791D01*
X009284Y005791D01*
X009284Y005731D01*
X009284Y005789D02*
X009066Y005789D01*
X008969Y005416D02*
X008909Y005416D01*
X008909Y005634D01*
X008969Y005634D01*
X008969Y005416D01*
X008969Y005474D02*
X008909Y005474D01*
X008909Y005532D02*
X008969Y005532D01*
X008969Y005590D02*
X008909Y005590D01*
X008772Y005416D02*
X008712Y005416D01*
X008712Y005634D01*
X008772Y005634D01*
X008772Y005416D01*
X008772Y005474D02*
X008712Y005474D01*
X008712Y005532D02*
X008772Y005532D01*
X008772Y005590D02*
X008712Y005590D01*
X008575Y005416D02*
X008515Y005416D01*
X008515Y005634D01*
X008575Y005634D01*
X008575Y005416D01*
X008575Y005474D02*
X008515Y005474D01*
X008515Y005532D02*
X008575Y005532D01*
X008575Y005590D02*
X008515Y005590D01*
X008378Y005416D02*
X008318Y005416D01*
X008318Y005634D01*
X008378Y005634D01*
X008378Y005416D01*
X008378Y005474D02*
X008318Y005474D01*
X008318Y005532D02*
X008378Y005532D01*
X008378Y005590D02*
X008318Y005590D01*
X008182Y005416D02*
X008122Y005416D01*
X008122Y005634D01*
X008182Y005634D01*
X008182Y005416D01*
X008182Y005474D02*
X008122Y005474D01*
X008122Y005532D02*
X008182Y005532D01*
X008182Y005590D02*
X008122Y005590D01*
X007985Y005416D02*
X007925Y005416D01*
X007925Y005634D01*
X007985Y005634D01*
X007985Y005416D01*
X007985Y005474D02*
X007925Y005474D01*
X007925Y005532D02*
X007985Y005532D01*
X007985Y005590D02*
X007925Y005590D01*
X007788Y005416D02*
X007728Y005416D01*
X007728Y005634D01*
X007788Y005634D01*
X007788Y005416D01*
X007788Y005474D02*
X007728Y005474D01*
X007728Y005532D02*
X007788Y005532D01*
X007788Y005590D02*
X007728Y005590D01*
X007591Y005416D02*
X007531Y005416D01*
X007531Y005634D01*
X007591Y005634D01*
X007591Y005416D01*
X007591Y005474D02*
X007531Y005474D01*
X007531Y005532D02*
X007591Y005532D01*
X007591Y005590D02*
X007531Y005590D01*
D23*
X009183Y004524D03*
X010117Y004150D03*
X009183Y003776D03*
X008317Y004150D03*
X010983Y003776D03*
X010983Y004524D03*
X009283Y008576D03*
X008417Y008950D03*
X009283Y009324D03*
D24*
X006345Y004350D03*
X005755Y004350D03*
X005150Y004145D03*
X005755Y003850D03*
X006345Y003850D03*
X006345Y003350D03*
X005755Y003350D03*
X005150Y003555D03*
X013355Y003450D03*
X013945Y003450D03*
D25*
X005150Y005288D03*
X005150Y005608D03*
D26*
X005450Y002450D03*
X004450Y002450D03*
X003450Y002450D03*
X002450Y002450D03*
X006450Y002450D03*
X007450Y002450D03*
X008450Y002450D03*
X009450Y002450D03*
X010450Y002450D03*
X011450Y002450D03*
X012450Y002450D03*
X013450Y002450D03*
X014450Y002450D03*
X015450Y002450D03*
X015450Y010450D03*
X014450Y010450D03*
X013450Y010450D03*
X012450Y010450D03*
X011450Y010450D03*
X010450Y010450D03*
X009450Y010450D03*
X008450Y010450D03*
X007450Y010450D03*
X006450Y010450D03*
X005450Y010450D03*
X004450Y010450D03*
X003450Y010450D03*
X002450Y010450D03*
D27*
X002450Y009450D03*
X003450Y009450D03*
X004450Y009450D03*
D28*
X003493Y006962D03*
X003493Y006706D03*
X003493Y006450D03*
X003493Y006194D03*
X003493Y005938D03*
D29*
X002450Y004875D03*
X002450Y008025D03*
D30*
X003350Y008250D03*
X004960Y007630D03*
X005410Y007010D03*
X005120Y006710D03*
X004850Y006410D03*
X005110Y006200D03*
X007450Y004580D03*
X007790Y004290D03*
X007450Y004180D03*
X008950Y002930D03*
X009720Y003350D03*
X010110Y002960D03*
X011200Y002990D03*
X011930Y003430D03*
X011900Y003810D03*
X012260Y004110D03*
X011910Y004170D03*
X012950Y003830D03*
X012970Y003110D03*
X014710Y003220D03*
X013280Y005070D03*
X012350Y005190D03*
X012020Y005050D03*
X011970Y005760D03*
X012310Y005870D03*
X011320Y006100D03*
X010940Y006190D03*
X011000Y006550D03*
X010550Y006630D03*
X010050Y006410D03*
X010470Y007190D03*
X010460Y007540D03*
X010000Y007550D03*
X009630Y007480D03*
X008780Y008540D03*
X008410Y009660D03*
X010070Y009670D03*
X010950Y009910D03*
X011750Y009830D03*
X012790Y009910D03*
X013990Y009910D03*
X015350Y009590D03*
X015750Y009590D03*
X012270Y007630D03*
X010870Y008870D03*
X010480Y005410D03*
X010070Y004590D03*
X005950Y002850D03*
X005030Y009750D03*
D31*
X006250Y009250D02*
X006650Y009250D01*
X007250Y009850D01*
X007850Y009850D01*
X007950Y009950D01*
X007990Y009910D01*
X007990Y008610D01*
X008050Y008550D01*
X008417Y008950D02*
X008417Y009527D01*
X008410Y009660D01*
X007540Y009180D02*
X007400Y009040D01*
X007400Y008100D01*
X007450Y008050D01*
X008550Y007750D02*
X008980Y007750D01*
X009620Y007110D01*
X009830Y007110D01*
X010310Y006630D01*
X010310Y006310D01*
X009761Y005761D01*
X009175Y005761D01*
X008939Y005525D02*
X008939Y005441D01*
X009200Y005180D01*
X009730Y005180D01*
X009890Y005020D01*
X010280Y005020D01*
X010550Y004750D01*
X010550Y004250D01*
X010650Y004150D01*
X011560Y004150D01*
X011900Y003810D01*
X011584Y003776D02*
X011930Y003430D01*
X012190Y003320D02*
X012030Y003160D01*
X011415Y003160D01*
X011225Y003350D01*
X010875Y003350D02*
X010875Y003668D01*
X010983Y003776D01*
X011584Y003776D01*
X012190Y003320D02*
X012190Y004310D01*
X011950Y004550D01*
X011009Y004550D01*
X010983Y004524D01*
X011325Y005050D02*
X011650Y005050D01*
X011750Y005150D01*
X011750Y005350D01*
X012050Y005350D01*
X012245Y005545D01*
X012350Y005545D01*
X012400Y006150D02*
X011750Y006150D01*
X011350Y005750D01*
X011248Y005750D01*
X011120Y005622D01*
X010210Y004840D02*
X009800Y004840D01*
X009630Y005010D01*
X009080Y005010D01*
X008850Y005240D01*
X008850Y005250D01*
X008750Y005050D02*
X008950Y004850D01*
X009520Y004850D01*
X009780Y004590D01*
X010070Y004590D01*
X010210Y004840D02*
X010340Y004710D01*
X010340Y004273D01*
X010117Y004150D01*
X010250Y004283D01*
X009650Y004057D02*
X009183Y004524D01*
X008640Y004230D02*
X008317Y004150D01*
X007860Y003660D02*
X007670Y003850D01*
X007125Y003850D01*
X007295Y004180D02*
X007450Y004180D01*
X007295Y004180D02*
X007125Y004350D01*
X007450Y004580D02*
X007450Y005414D01*
X007561Y005525D01*
X008250Y006450D02*
X008750Y005950D01*
X008750Y006350D01*
X008550Y006550D01*
X008350Y006550D01*
X008250Y006450D01*
X008550Y006450D01*
X008650Y006550D01*
X008550Y006550D01*
X008650Y006550D02*
X009177Y006550D01*
X009175Y006548D01*
X009333Y006548D01*
X009350Y006550D02*
X009177Y006550D01*
X009350Y006550D02*
X009565Y006765D01*
X009650Y006765D01*
X009650Y008150D02*
X009670Y008150D01*
X009750Y008230D01*
X009750Y009350D01*
X010070Y009670D01*
X011550Y009350D02*
X011825Y009075D01*
X008780Y008540D02*
X008725Y008485D01*
X008725Y008150D01*
X008740Y008165D01*
X007250Y007280D02*
X007190Y007340D01*
X007190Y009370D01*
X007290Y009470D01*
X006837Y009265D02*
X006265Y009265D01*
X006250Y009250D01*
X005875Y007250D02*
X005875Y007100D01*
X005120Y006710D02*
X004765Y006710D01*
X004725Y006750D01*
X004375Y006750D02*
X004335Y006710D01*
X004850Y006410D02*
X004850Y006275D01*
X004725Y006150D01*
X007250Y007214D02*
X007250Y007280D01*
X009650Y004057D02*
X009650Y003450D01*
X009650Y003420D01*
X009720Y003350D01*
X010070Y003345D02*
X010070Y003000D01*
X010110Y002960D01*
X008950Y002930D02*
X008950Y003325D01*
X008975Y003350D01*
X012575Y003450D02*
X012575Y003245D01*
X012710Y003110D01*
X012970Y003110D01*
X012950Y003830D02*
X013305Y003830D01*
X013450Y003975D01*
X014539Y004641D02*
X015140Y004040D01*
X015140Y003650D01*
X015360Y003430D01*
X015720Y003430D01*
X015730Y003420D01*
X014950Y002880D02*
X014940Y002870D01*
X014950Y002880D02*
X014950Y003990D01*
X014150Y004790D01*
X014150Y004850D01*
X014539Y004641D02*
X014539Y005466D01*
X015210Y005910D02*
X015210Y005950D01*
X015190Y005970D01*
X015190Y005980D01*
X015015Y006155D01*
X014834Y006155D01*
X015210Y005910D02*
X015220Y005900D01*
D32*
X014250Y006050D03*
X013450Y006050D03*
X013450Y006850D03*
X014250Y006850D03*
X014910Y007690D03*
X013680Y007810D03*
X014250Y009390D03*
X007950Y009950D03*
X007290Y009470D03*
X007540Y009180D03*
X007700Y008820D03*
X006450Y008250D03*
X006050Y008250D03*
X005650Y008250D03*
X004890Y007990D03*
X006450Y006450D03*
X005100Y005840D03*
X005550Y004850D03*
X004510Y004440D03*
X003430Y004790D03*
X002270Y003190D03*
X005040Y002900D03*
X007390Y003330D03*
X007860Y003660D03*
X008570Y003650D03*
X008640Y004230D03*
X008250Y004650D03*
X010420Y003700D03*
X012530Y003840D03*
X012950Y004310D03*
X014370Y003400D03*
X014940Y002870D03*
X015730Y003420D03*
X015460Y003780D03*
X015640Y004310D03*
X014870Y004830D03*
X015750Y004950D03*
D33*
X013945Y003975D02*
X013945Y003450D01*
X013945Y003975D02*
X013850Y003975D01*
X006837Y008635D02*
X005263Y008635D01*
X005263Y009265D02*
X006837Y009265D01*
X004550Y007256D02*
X004375Y007081D01*
X004375Y006750D01*
X004375Y006150D02*
X004375Y005719D01*
X004450Y005644D01*
X003430Y004790D02*
X003430Y003950D01*
X003550Y003830D01*
X003770Y004050D01*
X004145Y004050D01*
X004190Y004005D01*
X004590Y004005D01*
X005875Y004750D02*
X005875Y005286D01*
X005886Y005297D01*
X005886Y006404D02*
X005886Y006739D01*
X005875Y006750D01*
X002430Y003830D02*
X002430Y003350D01*
X002270Y003190D01*
X012150Y009350D02*
X012250Y009250D01*
X012250Y008825D01*
D34*
X008750Y006950D03*
X007750Y006950D03*
X007750Y005950D03*
X008750Y005950D03*
D35*
X006250Y007250D02*
X006250Y007450D01*
X005650Y008050D01*
X005650Y008250D01*
X003450Y009450D02*
X003350Y009350D01*
X003350Y008250D01*
X003110Y006950D02*
X003030Y006870D01*
X003030Y004430D01*
X002430Y003830D01*
X005950Y002890D02*
X005950Y002850D01*
X005950Y002890D02*
X006050Y002990D01*
X007790Y002990D01*
X008160Y003360D01*
X008170Y003360D01*
X008175Y004008D02*
X008317Y004150D01*
X012350Y005190D02*
X012350Y005195D01*
X013850Y006450D02*
X014250Y006850D01*
X013850Y008375D02*
X013536Y008375D01*
X013850Y008725D02*
X013850Y008750D01*
X009750Y009150D02*
X009750Y008250D01*
X009650Y008150D01*
X009525Y008150D01*
X009175Y008150D02*
X009175Y008484D01*
X009283Y008576D01*
X009750Y009150D02*
X009576Y009324D01*
X009283Y009324D01*
X008417Y008950D02*
X008375Y008892D01*
X008375Y008150D01*
D36*
X015350Y008075D02*
X015350Y007625D01*
X015350Y007275D02*
X015350Y006825D01*
X015350Y006475D02*
X015700Y006475D01*
X015750Y006425D01*
X015750Y006075D02*
X015750Y005750D01*
X015625Y005625D01*
X015750Y005750D02*
X015875Y005625D01*
X015350Y008425D02*
X015350Y008875D01*
X015750Y008875D01*
X015775Y008850D01*
X016750Y008850D01*
M02*
