G75*
G70*
%OFA0B0*%
%FSLAX24Y24*%
%IPPOS*%
%LPD*%
%AMOC8*
5,1,8,0,0,1.08239X$1,22.5*
%
%ADD10C,0.0100*%
%ADD11C,0.0125*%
%ADD12C,0.0394*%
%ADD13R,0.0394X0.0472*%
%ADD14R,0.0217X0.0472*%
%ADD15R,0.0310X0.0350*%
%ADD16R,0.0551X0.0630*%
%ADD17R,0.0413X0.0512*%
%ADD18C,0.0087*%
%ADD19C,0.0190*%
%ADD20R,0.0880X0.0480*%
%ADD21R,0.0866X0.1417*%
%ADD22R,0.0327X0.0248*%
%ADD23C,0.0700*%
%ADD24C,0.0660*%
%ADD25OC8,0.0240*%
%ADD26C,0.0080*%
%ADD27OC8,0.0270*%
%ADD28OC8,0.0320*%
%ADD29C,0.0160*%
%ADD30C,0.0320*%
%ADD31C,0.0120*%
D10*
X001820Y001850D02*
X016150Y001840D01*
X016150Y004250D01*
X017550Y005650D01*
X017550Y009850D01*
X017530Y009870D02*
X016350Y011050D01*
X001820Y011060D01*
X001820Y001850D01*
X003450Y002450D02*
X003450Y003090D01*
X003270Y003270D01*
X003270Y004230D01*
X003510Y004470D01*
X004070Y004470D01*
X004250Y004650D01*
X004250Y006920D01*
X004960Y007630D01*
X004710Y007635D02*
X004170Y007095D01*
X004170Y007995D01*
X004345Y008170D01*
X004975Y008170D01*
X005375Y007770D01*
X005600Y007770D01*
X005600Y007693D01*
X005862Y007693D01*
X005862Y007667D01*
X005600Y007667D01*
X005600Y007590D01*
X005210Y007590D01*
X005210Y007734D01*
X005064Y007880D01*
X004856Y007880D01*
X004710Y007734D01*
X004710Y007635D01*
X004704Y007629D02*
X004170Y007629D01*
X004170Y007727D02*
X004710Y007727D01*
X004802Y007826D02*
X004170Y007826D01*
X004170Y007924D02*
X005221Y007924D01*
X005123Y008023D02*
X004197Y008023D01*
X004296Y008121D02*
X005024Y008121D01*
X005050Y008350D02*
X004270Y008350D01*
X003990Y008070D01*
X003990Y004950D01*
X004430Y004969D02*
X004660Y004969D01*
X004660Y004871D02*
X004430Y004871D01*
X004430Y004772D02*
X004660Y004772D01*
X004660Y004674D02*
X004430Y004674D01*
X004430Y004575D02*
X004430Y006845D01*
X004690Y007105D01*
X004690Y006604D01*
X004600Y006514D01*
X004600Y006306D01*
X004746Y006160D01*
X004860Y006160D01*
X004860Y006096D01*
X004921Y006036D01*
X004835Y005950D01*
X004835Y005730D01*
X004860Y005705D01*
X004633Y005705D01*
X004520Y005592D01*
X004520Y005308D01*
X004633Y005195D01*
X004660Y005195D01*
X004660Y003715D01*
X004375Y003430D01*
X004270Y003325D01*
X004270Y002895D01*
X004178Y002857D01*
X004043Y002722D01*
X003970Y002545D01*
X003970Y002355D01*
X004043Y002178D01*
X004073Y002148D01*
X003827Y002149D01*
X003857Y002178D01*
X003930Y002355D01*
X003930Y002545D01*
X003857Y002722D01*
X003722Y002857D01*
X003630Y002895D01*
X003630Y003165D01*
X003525Y003270D01*
X003450Y003345D01*
X003450Y003399D01*
X003473Y003375D01*
X003508Y003355D01*
X003546Y003345D01*
X003791Y003345D01*
X003791Y003760D01*
X003891Y003760D01*
X003891Y003345D01*
X004137Y003345D01*
X004175Y003355D01*
X004209Y003375D01*
X004237Y003403D01*
X004257Y003437D01*
X004267Y003475D01*
X004267Y003760D01*
X003891Y003760D01*
X003891Y003860D01*
X003791Y003860D01*
X003791Y004275D01*
X003570Y004275D01*
X003585Y004290D01*
X004145Y004290D01*
X004430Y004575D01*
X004660Y004575D01*
X004660Y004477D02*
X004331Y004477D01*
X004233Y004378D02*
X004660Y004378D01*
X004660Y004280D02*
X003574Y004280D01*
X003791Y004181D02*
X003891Y004181D01*
X003891Y004275D02*
X003891Y003860D01*
X004267Y003860D01*
X004267Y004145D01*
X004257Y004183D01*
X004237Y004217D01*
X004209Y004245D01*
X004175Y004265D01*
X004137Y004275D01*
X003891Y004275D01*
X003891Y004083D02*
X003791Y004083D01*
X003791Y003984D02*
X003891Y003984D01*
X003891Y003886D02*
X003791Y003886D01*
X003891Y003787D02*
X004660Y003787D01*
X004660Y003886D02*
X004267Y003886D01*
X004267Y003984D02*
X004660Y003984D01*
X004660Y004083D02*
X004267Y004083D01*
X004257Y004181D02*
X004660Y004181D01*
X005000Y004181D02*
X005126Y004181D01*
X005028Y004083D02*
X005000Y004083D01*
X005000Y004055D02*
X005000Y005184D01*
X005035Y005175D01*
X005112Y005175D01*
X005112Y005437D01*
X005138Y005437D01*
X005138Y005175D01*
X005215Y005175D01*
X005270Y005189D01*
X005318Y005217D01*
X005350Y005249D01*
X005382Y005217D01*
X005430Y005189D01*
X005485Y005175D01*
X005562Y005175D01*
X005562Y005437D01*
X005588Y005437D01*
X005588Y005175D01*
X005665Y005175D01*
X005720Y005189D01*
X005763Y005215D01*
X005783Y005195D01*
X005910Y005195D01*
X005775Y005060D01*
X005670Y004955D01*
X005670Y004725D01*
X005000Y004055D01*
X005000Y004280D02*
X005225Y004280D01*
X005323Y004378D02*
X005000Y004378D01*
X005000Y004477D02*
X005422Y004477D01*
X005520Y004575D02*
X005000Y004575D01*
X005000Y004674D02*
X005619Y004674D01*
X005670Y004772D02*
X005000Y004772D01*
X005000Y004871D02*
X005670Y004871D01*
X005684Y004969D02*
X005000Y004969D01*
X005000Y005068D02*
X005783Y005068D01*
X005881Y005166D02*
X005000Y005166D01*
X005112Y005265D02*
X005138Y005265D01*
X005138Y005363D02*
X005112Y005363D01*
X005562Y005363D02*
X005588Y005363D01*
X005588Y005265D02*
X005562Y005265D01*
X005925Y005450D02*
X006225Y005925D01*
X006350Y006050D01*
X005583Y006050D01*
X005550Y006017D01*
X005877Y006230D02*
X005877Y006270D01*
X005965Y006270D01*
X006305Y006610D01*
X006438Y006610D01*
X006598Y006450D01*
X006562Y006414D01*
X006560Y006414D01*
X006375Y006230D01*
X005877Y006230D01*
X005877Y006250D02*
X006395Y006250D01*
X006493Y006348D02*
X006043Y006348D01*
X006141Y006447D02*
X006594Y006447D01*
X006503Y006545D02*
X006240Y006545D01*
X006230Y006790D02*
X005890Y006450D01*
X005360Y006450D01*
X005110Y006200D01*
X004860Y006151D02*
X004430Y006151D01*
X004430Y006053D02*
X004904Y006053D01*
X004839Y005954D02*
X004430Y005954D01*
X004430Y005856D02*
X004835Y005856D01*
X004835Y005757D02*
X004430Y005757D01*
X004430Y005659D02*
X004586Y005659D01*
X004520Y005560D02*
X004430Y005560D01*
X004430Y005462D02*
X004520Y005462D01*
X004520Y005363D02*
X004430Y005363D01*
X004430Y005265D02*
X004563Y005265D01*
X004660Y005166D02*
X004430Y005166D01*
X004430Y005068D02*
X004660Y005068D01*
X005850Y004880D02*
X005850Y004650D01*
X004830Y003630D01*
X004450Y003250D01*
X004450Y002450D01*
X003995Y002605D02*
X003905Y002605D01*
X003930Y002507D02*
X003970Y002507D01*
X003970Y002408D02*
X003930Y002408D01*
X003911Y002310D02*
X003989Y002310D01*
X004029Y002211D02*
X003871Y002211D01*
X003865Y002704D02*
X004035Y002704D01*
X004123Y002802D02*
X003777Y002802D01*
X003630Y002901D02*
X004270Y002901D01*
X004270Y002999D02*
X003630Y002999D01*
X003630Y003098D02*
X004270Y003098D01*
X004270Y003196D02*
X003599Y003196D01*
X003500Y003295D02*
X004270Y003295D01*
X004227Y003393D02*
X004338Y003393D01*
X004267Y003492D02*
X004437Y003492D01*
X004535Y003590D02*
X004267Y003590D01*
X004267Y003689D02*
X004634Y003689D01*
X004946Y003492D02*
X005270Y003492D01*
X005270Y003590D02*
X005045Y003590D01*
X005010Y003555D02*
X004630Y003175D01*
X004630Y002895D01*
X004722Y002857D01*
X004857Y002722D01*
X004930Y002545D01*
X004930Y002355D01*
X004857Y002178D01*
X004827Y002148D01*
X005073Y002148D01*
X005043Y002178D01*
X004970Y002355D01*
X004970Y002545D01*
X005043Y002722D01*
X005178Y002857D01*
X005270Y002895D01*
X005270Y003815D01*
X005010Y003555D01*
X005143Y003689D02*
X005270Y003689D01*
X005270Y003787D02*
X005242Y003787D01*
X005450Y003850D02*
X005450Y002450D01*
X004995Y002605D02*
X004905Y002605D01*
X004930Y002507D02*
X004970Y002507D01*
X004970Y002408D02*
X004930Y002408D01*
X004911Y002310D02*
X004989Y002310D01*
X005029Y002211D02*
X004871Y002211D01*
X004865Y002704D02*
X005035Y002704D01*
X005123Y002802D02*
X004777Y002802D01*
X004630Y002901D02*
X005270Y002901D01*
X005270Y002999D02*
X004630Y002999D01*
X004630Y003098D02*
X005270Y003098D01*
X005270Y003196D02*
X004651Y003196D01*
X004749Y003295D02*
X005270Y003295D01*
X005270Y003393D02*
X004848Y003393D01*
X005450Y003850D02*
X006100Y004500D01*
X006100Y004857D01*
X007060Y005817D01*
X006921Y005951D02*
X005850Y004880D01*
X006300Y004778D02*
X006300Y002650D01*
X006450Y002500D01*
X006450Y002450D01*
X006500Y003350D02*
X007400Y002450D01*
X007450Y002450D01*
X007750Y003030D02*
X008330Y002450D01*
X008450Y002450D01*
X007750Y003030D02*
X007270Y003030D01*
X006700Y003600D01*
X006700Y004622D01*
X007477Y005399D01*
X007338Y005538D02*
X006500Y004700D01*
X006500Y003350D01*
X006950Y004250D02*
X006950Y004593D01*
X007617Y005260D01*
X007895Y004981D02*
X008750Y005836D01*
X008750Y005950D01*
X008817Y005954D02*
X008675Y005954D01*
X008718Y006053D02*
X008577Y006053D01*
X008620Y006151D02*
X008478Y006151D01*
X008521Y006250D02*
X008380Y006250D01*
X008423Y006348D02*
X008281Y006348D01*
X008250Y006379D02*
X008321Y006450D01*
X009001Y005770D01*
X008930Y005699D01*
X008250Y006379D01*
X007570Y005699D01*
X007499Y005770D01*
X008179Y006450D01*
X007499Y007130D01*
X007570Y007201D01*
X008250Y006521D01*
X008179Y006450D01*
X008250Y006379D01*
X008219Y006348D02*
X008077Y006348D01*
X008120Y006250D02*
X007979Y006250D01*
X008022Y006151D02*
X007880Y006151D01*
X007923Y006053D02*
X007782Y006053D01*
X007825Y005954D02*
X007683Y005954D01*
X007726Y005856D02*
X007585Y005856D01*
X007628Y005757D02*
X007512Y005757D01*
X007199Y005677D02*
X006300Y004778D01*
X006350Y006050D02*
X006450Y006050D01*
X006634Y006234D01*
X006642Y006234D01*
X006782Y006095D02*
X007636Y006950D01*
X007750Y006950D01*
X007472Y006950D01*
X007199Y007223D01*
X007505Y007136D02*
X007635Y007136D01*
X007592Y007038D02*
X007733Y007038D01*
X007690Y006939D02*
X007832Y006939D01*
X007789Y006841D02*
X007930Y006841D01*
X007887Y006742D02*
X008029Y006742D01*
X007986Y006644D02*
X008127Y006644D01*
X008084Y006545D02*
X008226Y006545D01*
X008250Y006521D02*
X008930Y007201D01*
X009001Y007130D01*
X008321Y006450D01*
X008250Y006521D01*
X008274Y006545D02*
X008416Y006545D01*
X008373Y006644D02*
X008514Y006644D01*
X008471Y006742D02*
X008613Y006742D01*
X008570Y006841D02*
X008711Y006841D01*
X008668Y006939D02*
X008810Y006939D01*
X008750Y006950D02*
X008950Y006950D01*
X009450Y006450D01*
X009642Y006450D01*
X009858Y006234D01*
X009719Y006095D02*
X009864Y005950D01*
X010150Y006250D02*
X010050Y006350D01*
X010050Y006410D01*
X010320Y006880D02*
X010380Y006940D01*
X010574Y006940D01*
X010720Y007086D01*
X010720Y007294D01*
X010644Y007370D01*
X010710Y007436D01*
X010710Y007640D01*
X012020Y007640D01*
X012020Y007526D01*
X012166Y007380D01*
X012300Y007380D01*
X012300Y007360D01*
X012314Y007305D01*
X012342Y007257D01*
X012382Y007217D01*
X012430Y007189D01*
X012485Y007175D01*
X012562Y007175D01*
X012562Y007437D01*
X012588Y007437D01*
X012588Y007175D01*
X012665Y007175D01*
X012720Y007189D01*
X012763Y007215D01*
X012783Y007195D01*
X012950Y007195D01*
X012970Y007175D01*
X012352Y007175D01*
X012276Y007099D01*
X012276Y006440D01*
X012004Y006440D01*
X012004Y006680D01*
X011629Y006680D01*
X011629Y006780D01*
X012004Y006780D01*
X012004Y007065D01*
X011994Y007103D01*
X011974Y007137D01*
X011947Y007165D01*
X011912Y007185D01*
X011874Y007195D01*
X011629Y007195D01*
X011629Y006780D01*
X011529Y006780D01*
X011529Y007195D01*
X011283Y007195D01*
X011245Y007185D01*
X011211Y007165D01*
X011183Y007137D01*
X011163Y007103D01*
X011153Y007065D01*
X011153Y006780D01*
X011529Y006780D01*
X011529Y006680D01*
X011224Y006680D01*
X011104Y006800D01*
X010896Y006800D01*
X010816Y006720D01*
X010800Y006720D01*
X010800Y006734D01*
X010654Y006880D01*
X010320Y006880D01*
X010379Y006939D02*
X011153Y006939D01*
X011153Y006841D02*
X010693Y006841D01*
X010792Y006742D02*
X010838Y006742D01*
X011162Y006742D02*
X011529Y006742D01*
X011529Y006841D02*
X011629Y006841D01*
X011629Y006939D02*
X011529Y006939D01*
X011529Y007038D02*
X011629Y007038D01*
X011629Y007136D02*
X011529Y007136D01*
X011183Y007136D02*
X010720Y007136D01*
X010720Y007235D02*
X012365Y007235D01*
X012313Y007136D02*
X011975Y007136D01*
X012004Y007038D02*
X012276Y007038D01*
X012276Y006939D02*
X012004Y006939D01*
X012004Y006841D02*
X012276Y006841D01*
X012276Y006742D02*
X011629Y006742D01*
X012004Y006644D02*
X012276Y006644D01*
X012276Y006545D02*
X012004Y006545D01*
X012004Y006447D02*
X012276Y006447D01*
X012681Y006730D02*
X012925Y006974D01*
X013105Y006939D02*
X013620Y006939D01*
X013620Y006841D02*
X013087Y006841D01*
X013087Y006881D02*
X013105Y006899D01*
X013105Y007048D01*
X013087Y007067D01*
X013087Y007099D01*
X013016Y007170D01*
X013620Y007170D01*
X013620Y006717D01*
X013583Y006680D01*
X013197Y006680D01*
X013087Y006790D01*
X013087Y006881D01*
X013135Y006742D02*
X013620Y006742D01*
X013620Y007038D02*
X013105Y007038D01*
X013050Y007136D02*
X013620Y007136D01*
X014040Y007023D02*
X014157Y007140D01*
X014543Y007140D01*
X014660Y007023D01*
X014783Y006900D01*
X015103Y006900D01*
X015220Y006783D01*
X015220Y005455D01*
X015080Y005455D01*
X015080Y005656D01*
X015145Y005721D01*
X015145Y006179D01*
X015088Y006236D01*
X015180Y006328D01*
X015180Y006612D01*
X015067Y006725D01*
X014783Y006725D01*
X014763Y006705D01*
X014720Y006731D01*
X014665Y006745D01*
X014588Y006745D01*
X014588Y006483D01*
X014562Y006483D01*
X014562Y006745D01*
X014485Y006745D01*
X014430Y006731D01*
X014382Y006703D01*
X014342Y006663D01*
X014314Y006615D01*
X014300Y006560D01*
X014300Y006483D01*
X014562Y006483D01*
X014562Y006457D01*
X014588Y006457D01*
X014588Y006195D01*
X014591Y006195D01*
X014575Y006179D01*
X014575Y005721D01*
X014651Y005645D01*
X014660Y005645D01*
X014660Y005455D01*
X014582Y005455D01*
X014477Y005560D01*
X014152Y005885D01*
X014112Y005885D01*
X014125Y005935D01*
X014125Y006012D01*
X013863Y006012D01*
X013863Y006038D01*
X013837Y006038D01*
X013837Y006300D01*
X013797Y006300D01*
X013917Y006420D01*
X014040Y006543D01*
X014040Y007023D01*
X014055Y007038D02*
X014645Y007038D01*
X014547Y007136D02*
X014153Y007136D01*
X014070Y007350D02*
X014350Y007350D01*
X014550Y007550D01*
X014550Y008250D01*
X014350Y008450D01*
X014150Y008450D01*
X014050Y008550D01*
X014050Y008836D01*
X014024Y008862D01*
X014262Y008909D02*
X016050Y008909D01*
X016050Y008811D02*
X014262Y008811D01*
X014262Y008712D02*
X016050Y008712D01*
X016050Y008614D02*
X014441Y008614D01*
X014425Y008630D02*
X014262Y008630D01*
X014262Y009125D01*
X014360Y009125D01*
X014515Y009280D01*
X014515Y009500D01*
X014360Y009655D01*
X014140Y009655D01*
X013985Y009500D01*
X013985Y009280D01*
X014037Y009228D01*
X013862Y009228D01*
X013851Y009217D01*
X013850Y009218D01*
X013816Y009238D01*
X013778Y009248D01*
X013654Y009248D01*
X013654Y008866D01*
X013646Y008866D01*
X013646Y009248D01*
X013522Y009248D01*
X013484Y009238D01*
X013450Y009218D01*
X013449Y009217D01*
X013438Y009228D01*
X013114Y009228D01*
X013038Y009152D01*
X013038Y008761D01*
X012995Y008786D01*
X012940Y008800D01*
X012863Y008800D01*
X012863Y008538D01*
X012837Y008538D01*
X012837Y008800D01*
X012760Y008800D01*
X012705Y008786D01*
X012657Y008758D01*
X012617Y008718D01*
X012589Y008670D01*
X012575Y008615D01*
X012575Y008538D01*
X012837Y008538D01*
X012837Y008512D01*
X012575Y008512D01*
X012575Y008435D01*
X012589Y008380D01*
X012615Y008337D01*
X012595Y008317D01*
X012595Y008033D01*
X012708Y007920D01*
X012850Y007920D01*
X013007Y007764D01*
X013038Y007733D01*
X013038Y007705D01*
X012783Y007705D01*
X012763Y007685D01*
X012720Y007711D01*
X012665Y007725D01*
X012588Y007725D01*
X012588Y007463D01*
X012562Y007463D01*
X012562Y007725D01*
X012520Y007725D01*
X012520Y007734D01*
X012397Y007857D01*
X012420Y007880D01*
X012420Y008420D01*
X012245Y008595D01*
X012205Y008635D01*
X012205Y008667D01*
X012130Y008742D01*
X012130Y008841D01*
X011851Y009121D01*
X011851Y009513D01*
X011775Y009589D01*
X011254Y009589D01*
X011177Y009513D01*
X011177Y008893D01*
X011254Y008817D01*
X011646Y008817D01*
X011745Y008717D01*
X011731Y008703D01*
X011564Y008703D01*
X011564Y008347D01*
X011464Y008347D01*
X011464Y008247D01*
X011157Y008247D01*
X011157Y008022D01*
X011168Y007983D01*
X011170Y007980D01*
X011115Y007980D01*
X011123Y007987D01*
X011123Y008607D01*
X011046Y008683D01*
X010525Y008683D01*
X010516Y008673D01*
X010495Y008686D01*
X010440Y008700D01*
X010363Y008700D01*
X010363Y008438D01*
X010337Y008438D01*
X010337Y008700D01*
X010260Y008700D01*
X010205Y008686D01*
X010157Y008658D01*
X010117Y008618D01*
X010089Y008570D01*
X010075Y008515D01*
X009836Y008515D01*
X009832Y008509D02*
X009980Y008700D01*
X010092Y008700D01*
X010150Y008758D01*
X010208Y008700D01*
X010492Y008700D01*
X010589Y008797D01*
X010736Y008797D01*
X010736Y009153D01*
X010836Y009153D01*
X010836Y009253D01*
X010736Y009253D01*
X010736Y009609D01*
X010559Y009609D01*
X010521Y009598D01*
X010487Y009579D01*
X010478Y009570D01*
X010440Y009580D01*
X010363Y009580D01*
X010363Y009318D01*
X010337Y009318D01*
X010337Y009580D01*
X010320Y009580D01*
X010320Y009774D01*
X010174Y009920D01*
X009966Y009920D01*
X009820Y009774D01*
X009820Y009569D01*
X009805Y009566D01*
X009757Y009538D01*
X009743Y009524D01*
X009743Y009761D01*
X009667Y009837D01*
X009233Y009837D01*
X009157Y009761D01*
X009157Y009673D01*
X009144Y009664D01*
X009097Y009647D01*
X009085Y009622D01*
X008998Y009560D01*
X008808Y009560D01*
X008733Y009485D01*
X008589Y009485D01*
X008660Y009556D01*
X008660Y009764D01*
X008514Y009910D01*
X008306Y009910D01*
X008170Y009774D01*
X008170Y009795D01*
X008215Y009840D01*
X008215Y010028D01*
X008355Y009970D01*
X008545Y009970D01*
X008722Y010043D01*
X008857Y010178D01*
X008930Y010355D01*
X008930Y010545D01*
X008857Y010722D01*
X008824Y010755D01*
X009076Y010755D01*
X009043Y010722D01*
X008970Y010545D01*
X008970Y010355D01*
X009043Y010178D01*
X009178Y010043D01*
X009355Y009970D01*
X009545Y009970D01*
X009722Y010043D01*
X009857Y010178D01*
X009930Y010355D01*
X009930Y010545D01*
X009857Y010722D01*
X009824Y010754D01*
X010075Y010754D01*
X010043Y010722D01*
X009970Y010545D01*
X009970Y010355D01*
X010043Y010178D01*
X010178Y010043D01*
X010355Y009970D01*
X010545Y009970D01*
X010722Y010043D01*
X010857Y010178D01*
X010930Y010355D01*
X010930Y010545D01*
X010857Y010722D01*
X010825Y010754D01*
X011075Y010754D01*
X011043Y010722D01*
X010970Y010545D01*
X010970Y010355D01*
X011043Y010178D01*
X011178Y010043D01*
X011355Y009970D01*
X011545Y009970D01*
X011722Y010043D01*
X011857Y010178D01*
X011930Y010355D01*
X011930Y010545D01*
X011857Y010722D01*
X011826Y010753D01*
X012074Y010753D01*
X012043Y010722D01*
X011970Y010545D01*
X011970Y010355D01*
X012043Y010178D01*
X012178Y010043D01*
X012355Y009970D01*
X012545Y009970D01*
X012722Y010043D01*
X012857Y010178D01*
X012930Y010355D01*
X012930Y010545D01*
X012857Y010722D01*
X012826Y010752D01*
X013073Y010752D01*
X013043Y010722D01*
X012970Y010545D01*
X012970Y010355D01*
X013043Y010178D01*
X013178Y010043D01*
X013355Y009970D01*
X013545Y009970D01*
X013722Y010043D01*
X013857Y010178D01*
X013930Y010355D01*
X013930Y010545D01*
X013857Y010722D01*
X013827Y010752D01*
X014073Y010752D01*
X014043Y010722D01*
X013970Y010545D01*
X013970Y010355D01*
X014043Y010178D01*
X014061Y010160D01*
X013886Y010160D01*
X013740Y010014D01*
X013740Y009806D01*
X013886Y009660D01*
X014094Y009660D01*
X014164Y009730D01*
X015025Y009730D01*
X015130Y009835D01*
X015130Y009835D01*
X015291Y009996D01*
X015355Y009970D01*
X015545Y009970D01*
X015722Y010043D01*
X015857Y010178D01*
X015930Y010355D01*
X015930Y010545D01*
X015857Y010722D01*
X015828Y010750D01*
X016050Y010750D01*
X016050Y004574D01*
X015900Y004425D01*
X015750Y004575D01*
X015530Y004575D01*
X015505Y004550D01*
X015505Y004579D01*
X015429Y004655D01*
X015420Y004655D01*
X015420Y004845D01*
X015449Y004845D01*
X015525Y004921D01*
X015525Y005138D01*
X015640Y005253D01*
X015640Y006957D01*
X015517Y007080D01*
X015277Y007320D01*
X014957Y007320D01*
X014852Y007425D01*
X015020Y007425D01*
X015175Y007580D01*
X015175Y007800D01*
X015020Y007955D01*
X014800Y007955D01*
X014730Y007885D01*
X014730Y008325D01*
X014530Y008525D01*
X014425Y008630D01*
X014540Y008515D02*
X016050Y008515D01*
X016050Y008417D02*
X014638Y008417D01*
X014730Y008318D02*
X016050Y008318D01*
X016050Y008220D02*
X014730Y008220D01*
X014730Y008121D02*
X016050Y008121D01*
X016050Y008023D02*
X014730Y008023D01*
X014730Y007924D02*
X014769Y007924D01*
X015051Y007924D02*
X016050Y007924D01*
X016050Y007826D02*
X015149Y007826D01*
X015175Y007727D02*
X016050Y007727D01*
X016050Y007629D02*
X015175Y007629D01*
X015125Y007530D02*
X016050Y007530D01*
X016050Y007432D02*
X015026Y007432D01*
X014944Y007333D02*
X016050Y007333D01*
X016050Y007235D02*
X015362Y007235D01*
X015461Y007136D02*
X016050Y007136D01*
X016050Y007038D02*
X015559Y007038D01*
X015640Y006939D02*
X016050Y006939D01*
X016050Y006841D02*
X015640Y006841D01*
X015640Y006742D02*
X016050Y006742D01*
X016050Y006644D02*
X015640Y006644D01*
X015640Y006545D02*
X016050Y006545D01*
X016050Y006447D02*
X015640Y006447D01*
X015640Y006348D02*
X016050Y006348D01*
X016050Y006250D02*
X015640Y006250D01*
X015640Y006151D02*
X016050Y006151D01*
X016050Y006053D02*
X015640Y006053D01*
X015640Y005954D02*
X016050Y005954D01*
X016050Y005856D02*
X015640Y005856D01*
X015640Y005757D02*
X016050Y005757D01*
X016050Y005659D02*
X015640Y005659D01*
X015640Y005560D02*
X016050Y005560D01*
X016050Y005462D02*
X015640Y005462D01*
X015640Y005363D02*
X016050Y005363D01*
X016050Y005265D02*
X015640Y005265D01*
X015553Y005166D02*
X016050Y005166D01*
X016050Y005068D02*
X015525Y005068D01*
X015525Y004969D02*
X016050Y004969D01*
X016050Y004871D02*
X015474Y004871D01*
X015420Y004772D02*
X016050Y004772D01*
X016050Y004674D02*
X015420Y004674D01*
X015505Y004575D02*
X016050Y004575D01*
X015952Y004477D02*
X015848Y004477D01*
X015240Y004370D02*
X015220Y004350D01*
X015250Y004320D01*
X015250Y004050D01*
X015400Y003900D01*
X015460Y003780D01*
X014840Y003550D02*
X014710Y003420D01*
X014710Y003220D01*
X013240Y003163D02*
X013240Y002883D01*
X013178Y002857D01*
X013043Y002722D01*
X012970Y002545D01*
X012970Y002355D01*
X013043Y002178D01*
X013079Y002142D01*
X012844Y002142D01*
X012878Y002188D01*
X012913Y002258D01*
X012938Y002333D01*
X012948Y002400D01*
X012500Y002400D01*
X012500Y002500D01*
X012400Y002500D01*
X012400Y002948D01*
X012333Y002938D01*
X012258Y002913D01*
X012188Y002878D01*
X012124Y002831D01*
X012069Y002776D01*
X012022Y002712D01*
X011987Y002642D01*
X011962Y002567D01*
X011952Y002500D01*
X012400Y002500D01*
X012400Y002400D01*
X011952Y002400D01*
X011962Y002333D01*
X011987Y002258D01*
X012022Y002188D01*
X012055Y002143D01*
X011845Y002143D01*
X011878Y002188D01*
X011913Y002258D01*
X011938Y002333D01*
X011948Y002400D01*
X011500Y002400D01*
X011500Y002500D01*
X011400Y002500D01*
X011400Y002836D01*
X011450Y002886D01*
X011450Y003094D01*
X011304Y003240D01*
X011096Y003240D01*
X011023Y003167D01*
X010840Y003350D01*
X011150Y003350D01*
X011150Y003690D01*
X011250Y003690D01*
X011250Y003350D01*
X011660Y003350D01*
X011680Y003355D01*
X011680Y003326D01*
X011826Y003180D01*
X012034Y003180D01*
X012154Y003300D01*
X012806Y003300D01*
X012720Y003214D01*
X012720Y003006D01*
X012866Y002860D01*
X013074Y002860D01*
X013220Y003006D01*
X013220Y003183D01*
X013240Y003163D01*
X013240Y003098D02*
X013220Y003098D01*
X013213Y002999D02*
X013240Y002999D01*
X013240Y002901D02*
X013114Y002901D01*
X013123Y002802D02*
X012805Y002802D01*
X012831Y002776D02*
X012776Y002831D01*
X012712Y002878D01*
X012642Y002913D01*
X012567Y002938D01*
X012500Y002948D01*
X012500Y002500D01*
X012948Y002500D01*
X012938Y002567D01*
X012913Y002642D01*
X012878Y002712D01*
X012831Y002776D01*
X012882Y002704D02*
X013035Y002704D01*
X012995Y002605D02*
X012925Y002605D01*
X012947Y002507D02*
X012970Y002507D01*
X012970Y002408D02*
X012500Y002408D01*
X012500Y002507D02*
X012400Y002507D01*
X012400Y002605D02*
X012500Y002605D01*
X012500Y002704D02*
X012400Y002704D01*
X012400Y002802D02*
X012500Y002802D01*
X012500Y002901D02*
X012400Y002901D01*
X012233Y002901D02*
X011667Y002901D01*
X011642Y002913D02*
X011567Y002938D01*
X011500Y002948D01*
X011500Y002500D01*
X011948Y002500D01*
X011938Y002567D01*
X011913Y002642D01*
X011878Y002712D01*
X011831Y002776D01*
X011776Y002831D01*
X011712Y002878D01*
X011642Y002913D01*
X011500Y002901D02*
X011450Y002901D01*
X011450Y002999D02*
X012727Y002999D01*
X012720Y003098D02*
X011446Y003098D01*
X011348Y003196D02*
X011810Y003196D01*
X011712Y003295D02*
X010896Y003295D01*
X010994Y003196D02*
X011052Y003196D01*
X011150Y003393D02*
X011250Y003393D01*
X011250Y003492D02*
X011150Y003492D01*
X011150Y003590D02*
X011250Y003590D01*
X011250Y003689D02*
X011150Y003689D01*
X010610Y003885D02*
X010530Y003965D01*
X010310Y003965D01*
X010220Y003875D01*
X010220Y003920D01*
X010120Y004020D01*
X010615Y004020D01*
X010610Y004000D01*
X010610Y003885D01*
X010609Y003886D02*
X010610Y003886D01*
X010610Y003984D02*
X010156Y003984D01*
X010120Y004020D02*
X010120Y004020D01*
X010220Y003886D02*
X010231Y003886D01*
X009980Y003520D02*
X009948Y003487D01*
X009940Y003483D01*
X009970Y003454D01*
X009970Y003246D01*
X009832Y003108D01*
X009868Y003072D01*
X010006Y003210D01*
X010214Y003210D01*
X010360Y003064D01*
X010360Y002930D01*
X010545Y002930D01*
X010722Y002857D01*
X010857Y002722D01*
X010930Y002545D01*
X010930Y002355D01*
X010857Y002178D01*
X010823Y002144D01*
X011055Y002144D01*
X011022Y002188D01*
X010987Y002258D01*
X010962Y002333D01*
X010952Y002400D01*
X011400Y002400D01*
X011400Y002500D01*
X010952Y002500D01*
X010962Y002567D01*
X010987Y002642D01*
X011022Y002712D01*
X011065Y002771D01*
X011016Y002820D01*
X010890Y002820D01*
X010450Y003260D01*
X010240Y003260D01*
X010140Y003360D01*
X009980Y003520D01*
X009952Y003492D02*
X010008Y003492D01*
X009970Y003393D02*
X010107Y003393D01*
X010205Y003295D02*
X009970Y003295D01*
X009992Y003196D02*
X009920Y003196D01*
X009894Y003098D02*
X009843Y003098D01*
X010228Y003196D02*
X010514Y003196D01*
X010612Y003098D02*
X010326Y003098D01*
X010360Y002999D02*
X010711Y002999D01*
X010617Y002901D02*
X010809Y002901D01*
X010777Y002802D02*
X011034Y002802D01*
X011018Y002704D02*
X010865Y002704D01*
X010905Y002605D02*
X010975Y002605D01*
X010953Y002507D02*
X010930Y002507D01*
X010930Y002408D02*
X011400Y002408D01*
X011400Y002507D02*
X011500Y002507D01*
X011500Y002605D02*
X011400Y002605D01*
X011400Y002704D02*
X011500Y002704D01*
X011500Y002802D02*
X011400Y002802D01*
X011805Y002802D02*
X012095Y002802D01*
X012018Y002704D02*
X011882Y002704D01*
X011925Y002605D02*
X011975Y002605D01*
X011953Y002507D02*
X011947Y002507D01*
X011930Y002310D02*
X011970Y002310D01*
X012011Y002211D02*
X011889Y002211D01*
X011500Y002408D02*
X012400Y002408D01*
X012889Y002211D02*
X013029Y002211D01*
X012989Y002310D02*
X012930Y002310D01*
X012826Y002901D02*
X012667Y002901D01*
X012720Y003196D02*
X012050Y003196D01*
X012148Y003295D02*
X012801Y003295D01*
X014460Y004350D02*
X014850Y004740D01*
X014870Y004830D01*
X015240Y005150D02*
X015240Y004370D01*
X015220Y005462D02*
X015080Y005462D01*
X015080Y005560D02*
X015220Y005560D01*
X015220Y005659D02*
X015082Y005659D01*
X015145Y005757D02*
X015220Y005757D01*
X015220Y005856D02*
X015145Y005856D01*
X015145Y005954D02*
X015220Y005954D01*
X015220Y006053D02*
X015145Y006053D01*
X015145Y006151D02*
X015220Y006151D01*
X015220Y006250D02*
X015102Y006250D01*
X015180Y006348D02*
X015220Y006348D01*
X015220Y006447D02*
X015180Y006447D01*
X015180Y006545D02*
X015220Y006545D01*
X015220Y006644D02*
X015149Y006644D01*
X015220Y006742D02*
X014677Y006742D01*
X014588Y006742D02*
X014562Y006742D01*
X014473Y006742D02*
X014040Y006742D01*
X014040Y006644D02*
X014331Y006644D01*
X014300Y006545D02*
X014040Y006545D01*
X013944Y006447D02*
X014300Y006447D01*
X014300Y006457D02*
X014300Y006380D01*
X014314Y006325D01*
X014342Y006277D01*
X014382Y006237D01*
X014430Y006209D01*
X014485Y006195D01*
X014562Y006195D01*
X014562Y006457D01*
X014300Y006457D01*
X014308Y006348D02*
X013845Y006348D01*
X013863Y006300D02*
X013863Y006038D01*
X014125Y006038D01*
X014125Y006115D01*
X014111Y006170D01*
X014083Y006218D01*
X014043Y006258D01*
X013995Y006286D01*
X013940Y006300D01*
X013863Y006300D01*
X013863Y006250D02*
X013837Y006250D01*
X013837Y006151D02*
X013863Y006151D01*
X013863Y006053D02*
X013837Y006053D01*
X013837Y006038D02*
X013837Y006012D01*
X013575Y006012D01*
X013575Y005935D01*
X013589Y005880D01*
X013615Y005837D01*
X013595Y005817D01*
X013595Y005800D01*
X013277Y005800D01*
X012792Y006285D01*
X012998Y006285D01*
X013023Y006260D01*
X013661Y006260D01*
X013657Y006258D01*
X013617Y006218D01*
X013589Y006170D01*
X013575Y006115D01*
X013575Y006038D01*
X013837Y006038D01*
X013575Y006053D02*
X013024Y006053D01*
X012926Y006151D02*
X013585Y006151D01*
X013649Y006250D02*
X012827Y006250D01*
X013123Y005954D02*
X013575Y005954D01*
X013604Y005856D02*
X013221Y005856D01*
X014125Y005954D02*
X014575Y005954D01*
X014575Y005856D02*
X014181Y005856D01*
X014280Y005757D02*
X014575Y005757D01*
X014638Y005659D02*
X014378Y005659D01*
X014477Y005560D02*
X014660Y005560D01*
X014660Y005462D02*
X014575Y005462D01*
X014870Y005940D02*
X014860Y005950D01*
X014860Y006405D01*
X014925Y006470D01*
X014588Y006447D02*
X014562Y006447D01*
X014562Y006545D02*
X014588Y006545D01*
X014588Y006644D02*
X014562Y006644D01*
X014562Y006348D02*
X014588Y006348D01*
X014588Y006250D02*
X014562Y006250D01*
X014575Y006151D02*
X014115Y006151D01*
X014125Y006053D02*
X014575Y006053D01*
X014370Y006250D02*
X014051Y006250D01*
X014040Y006841D02*
X015162Y006841D01*
X014744Y006939D02*
X014040Y006939D01*
X014070Y007350D02*
X013050Y007350D01*
X012950Y007450D01*
X012925Y007450D01*
X012588Y007432D02*
X012562Y007432D01*
X012562Y007530D02*
X012588Y007530D01*
X012588Y007629D02*
X012562Y007629D01*
X012520Y007727D02*
X013038Y007727D01*
X012945Y007826D02*
X012428Y007826D01*
X012420Y007924D02*
X012704Y007924D01*
X012605Y008023D02*
X012420Y008023D01*
X012420Y008121D02*
X012595Y008121D01*
X012595Y008220D02*
X012420Y008220D01*
X012420Y008318D02*
X012596Y008318D01*
X012580Y008417D02*
X012420Y008417D01*
X012325Y008515D02*
X012837Y008515D01*
X012837Y008614D02*
X012863Y008614D01*
X012863Y008712D02*
X012837Y008712D01*
X012614Y008712D02*
X012160Y008712D01*
X012130Y008811D02*
X013038Y008811D01*
X013038Y008909D02*
X012062Y008909D01*
X011964Y009008D02*
X013038Y009008D01*
X013038Y009106D02*
X011865Y009106D01*
X011851Y009205D02*
X013090Y009205D01*
X013276Y008862D02*
X013276Y008524D01*
X013450Y008350D01*
X013850Y008350D01*
X014050Y008550D01*
X014262Y009008D02*
X016050Y009008D01*
X016050Y009106D02*
X014262Y009106D01*
X014439Y009205D02*
X016050Y009205D01*
X016050Y009303D02*
X014515Y009303D01*
X014515Y009402D02*
X016050Y009402D01*
X016050Y009500D02*
X014515Y009500D01*
X014416Y009599D02*
X016050Y009599D01*
X016050Y009697D02*
X014131Y009697D01*
X014084Y009599D02*
X011050Y009599D01*
X011050Y009598D02*
X011012Y009609D01*
X010836Y009609D01*
X010836Y009253D01*
X011143Y009253D01*
X011143Y009478D01*
X011132Y009517D01*
X011113Y009551D01*
X011085Y009579D01*
X011050Y009598D01*
X011054Y009660D02*
X011200Y009806D01*
X011200Y010014D01*
X011054Y010160D01*
X010846Y010160D01*
X010700Y010014D01*
X010700Y009806D01*
X010846Y009660D01*
X011054Y009660D01*
X011091Y009697D02*
X013849Y009697D01*
X013751Y009796D02*
X011189Y009796D01*
X011200Y009894D02*
X013740Y009894D01*
X013740Y009993D02*
X013600Y009993D01*
X013770Y010091D02*
X013817Y010091D01*
X013862Y010190D02*
X014038Y010190D01*
X013998Y010288D02*
X013902Y010288D01*
X013930Y010387D02*
X013970Y010387D01*
X013970Y010485D02*
X013930Y010485D01*
X013914Y010584D02*
X013986Y010584D01*
X014027Y010682D02*
X013873Y010682D01*
X013027Y010682D02*
X012873Y010682D01*
X012914Y010584D02*
X012986Y010584D01*
X012970Y010485D02*
X012930Y010485D01*
X012930Y010387D02*
X012970Y010387D01*
X012998Y010288D02*
X012902Y010288D01*
X012862Y010190D02*
X013038Y010190D01*
X013130Y010091D02*
X012770Y010091D01*
X012600Y009993D02*
X013300Y009993D01*
X013990Y009910D02*
X014950Y009910D01*
X015450Y010410D01*
X015450Y010450D01*
X015902Y010288D02*
X016050Y010288D01*
X016050Y010190D02*
X015862Y010190D01*
X015770Y010091D02*
X016050Y010091D01*
X016050Y009993D02*
X015600Y009993D01*
X015300Y009993D02*
X015287Y009993D01*
X015189Y009894D02*
X016050Y009894D01*
X016050Y009796D02*
X015090Y009796D01*
X015930Y010387D02*
X016050Y010387D01*
X016050Y010485D02*
X015930Y010485D01*
X015914Y010584D02*
X016050Y010584D01*
X016050Y010682D02*
X015873Y010682D01*
X013985Y009500D02*
X011851Y009500D01*
X011851Y009402D02*
X013985Y009402D01*
X013985Y009303D02*
X011851Y009303D01*
X011514Y009203D02*
X011950Y008767D01*
X011950Y008525D01*
X011740Y008712D02*
X010504Y008712D01*
X010363Y008614D02*
X010337Y008614D01*
X010337Y008515D02*
X010363Y008515D01*
X010337Y008438D02*
X010075Y008438D01*
X010075Y008515D01*
X010075Y008412D02*
X010075Y008335D01*
X010089Y008280D01*
X010110Y008245D01*
X009526Y008245D01*
X009427Y008145D01*
X009113Y007832D01*
X009094Y007851D01*
X009077Y007867D01*
X009140Y007930D01*
X009240Y008030D01*
X009240Y008035D01*
X009520Y008315D01*
X009520Y008315D01*
X009617Y008412D01*
X009621Y008409D01*
X009652Y008413D01*
X009681Y008403D01*
X009723Y008422D01*
X009769Y008428D01*
X009788Y008453D01*
X009816Y008466D01*
X009832Y008509D01*
X009913Y008614D02*
X010115Y008614D01*
X010104Y008712D02*
X010196Y008712D01*
X010350Y008955D02*
X009950Y008955D01*
X009672Y008597D01*
X009450Y008677D01*
X009228Y008597D01*
X008950Y008955D01*
X008950Y009305D02*
X008650Y009305D01*
X008135Y009305D01*
X007990Y009450D01*
X007990Y009910D01*
X007950Y009950D01*
X008215Y009993D02*
X008300Y009993D01*
X008290Y009894D02*
X008215Y009894D01*
X008192Y009796D02*
X008170Y009796D01*
X008530Y009894D02*
X009940Y009894D01*
X009842Y009796D02*
X009708Y009796D01*
X009743Y009697D02*
X009820Y009697D01*
X009820Y009599D02*
X009743Y009599D01*
X009450Y009583D02*
X009228Y009503D01*
X008950Y009305D01*
X008748Y009500D02*
X008604Y009500D01*
X008660Y009599D02*
X009052Y009599D01*
X009157Y009697D02*
X008660Y009697D01*
X008628Y009796D02*
X009192Y009796D01*
X009300Y009993D02*
X008600Y009993D01*
X008770Y010091D02*
X009130Y010091D01*
X009038Y010190D02*
X008862Y010190D01*
X008902Y010288D02*
X008998Y010288D01*
X008970Y010387D02*
X008930Y010387D01*
X008930Y010485D02*
X008970Y010485D01*
X008986Y010584D02*
X008914Y010584D01*
X008873Y010682D02*
X009027Y010682D01*
X009873Y010682D02*
X010027Y010682D01*
X009986Y010584D02*
X009914Y010584D01*
X009930Y010485D02*
X009970Y010485D01*
X009970Y010387D02*
X009930Y010387D01*
X009902Y010288D02*
X009998Y010288D01*
X010038Y010190D02*
X009862Y010190D01*
X009770Y010091D02*
X010130Y010091D01*
X010300Y009993D02*
X009600Y009993D01*
X010200Y009894D02*
X010700Y009894D01*
X010700Y009993D02*
X010600Y009993D01*
X010770Y010091D02*
X010777Y010091D01*
X010862Y010190D02*
X011038Y010190D01*
X010998Y010288D02*
X010902Y010288D01*
X010930Y010387D02*
X010970Y010387D01*
X010970Y010485D02*
X010930Y010485D01*
X010914Y010584D02*
X010986Y010584D01*
X011027Y010682D02*
X010873Y010682D01*
X011123Y010091D02*
X011130Y010091D01*
X011200Y009993D02*
X011300Y009993D01*
X011600Y009993D02*
X012300Y009993D01*
X012130Y010091D02*
X011770Y010091D01*
X011862Y010190D02*
X012038Y010190D01*
X011998Y010288D02*
X011902Y010288D01*
X011930Y010387D02*
X011970Y010387D01*
X011970Y010485D02*
X011930Y010485D01*
X011914Y010584D02*
X011986Y010584D01*
X012027Y010682D02*
X011873Y010682D01*
X010809Y009697D02*
X010320Y009697D01*
X010320Y009599D02*
X010522Y009599D01*
X010363Y009500D02*
X010337Y009500D01*
X010337Y009402D02*
X010363Y009402D01*
X010736Y009402D02*
X010836Y009402D01*
X010836Y009500D02*
X010736Y009500D01*
X010736Y009599D02*
X010836Y009599D01*
X010711Y009796D02*
X010298Y009796D01*
X010736Y009303D02*
X010836Y009303D01*
X010836Y009205D02*
X011177Y009205D01*
X011143Y009153D02*
X010836Y009153D01*
X010836Y008797D01*
X011012Y008797D01*
X011050Y008807D01*
X011085Y008827D01*
X011113Y008855D01*
X011132Y008889D01*
X011143Y008927D01*
X011143Y009153D01*
X011143Y009106D02*
X011177Y009106D01*
X011177Y009008D02*
X011143Y009008D01*
X011138Y008909D02*
X011177Y008909D01*
X011056Y008811D02*
X011652Y008811D01*
X011464Y008703D02*
X011288Y008703D01*
X011250Y008693D01*
X011215Y008673D01*
X011187Y008645D01*
X011168Y008611D01*
X011157Y008573D01*
X011157Y008347D01*
X011464Y008347D01*
X011464Y008703D01*
X011464Y008614D02*
X011564Y008614D01*
X011564Y008515D02*
X011464Y008515D01*
X011464Y008417D02*
X011564Y008417D01*
X011464Y008318D02*
X011123Y008318D01*
X011123Y008220D02*
X011157Y008220D01*
X011157Y008121D02*
X011123Y008121D01*
X011123Y008023D02*
X011157Y008023D01*
X011157Y008417D02*
X011123Y008417D01*
X011123Y008515D02*
X011157Y008515D01*
X011169Y008614D02*
X011116Y008614D01*
X010836Y008811D02*
X010736Y008811D01*
X010736Y008909D02*
X010836Y008909D01*
X010836Y009008D02*
X010736Y009008D01*
X010736Y009106D02*
X010836Y009106D01*
X011143Y009303D02*
X011177Y009303D01*
X011177Y009402D02*
X011143Y009402D01*
X011137Y009500D02*
X011177Y009500D01*
X012227Y008614D02*
X012575Y008614D01*
X012825Y008175D02*
X012850Y008175D01*
X013187Y007838D01*
X013276Y007838D01*
X013304Y007810D01*
X013680Y007810D01*
X012588Y007333D02*
X012562Y007333D01*
X012562Y007235D02*
X012588Y007235D01*
X012307Y007333D02*
X010681Y007333D01*
X010705Y007432D02*
X012115Y007432D01*
X012020Y007530D02*
X010710Y007530D01*
X010710Y007629D02*
X012020Y007629D01*
X011153Y007038D02*
X010671Y007038D01*
X009205Y007924D02*
X009134Y007924D01*
X009094Y007851D02*
X008883Y007640D01*
X008749Y007506D01*
X008749Y007506D01*
X008883Y007640D01*
X008883Y007640D01*
X008750Y007507D01*
X008750Y006950D01*
X008767Y007038D02*
X008908Y007038D01*
X008865Y007136D02*
X008995Y007136D01*
X008773Y007530D02*
X008773Y007530D01*
X008872Y007629D02*
X008872Y007629D01*
X008883Y007640D02*
X008883Y007640D01*
X009094Y007851D01*
X009069Y007826D02*
X009069Y007826D01*
X008970Y007727D02*
X008970Y007727D01*
X009233Y008023D02*
X009304Y008023D01*
X009326Y008121D02*
X009402Y008121D01*
X009425Y008220D02*
X009501Y008220D01*
X009523Y008318D02*
X010079Y008318D01*
X010075Y008412D02*
X010337Y008412D01*
X010337Y008438D01*
X010337Y008417D02*
X009711Y008417D01*
X008034Y008058D02*
X006242Y009850D01*
X005310Y009850D01*
X004710Y010450D01*
X004450Y010450D01*
X006864Y008950D02*
X007895Y007918D01*
X007756Y007779D02*
X006785Y008750D01*
X007007Y008250D02*
X006450Y008250D01*
X007007Y008250D02*
X007617Y007640D01*
X007477Y007501D02*
X007028Y007950D01*
X005450Y007950D01*
X005050Y008350D01*
X005118Y007826D02*
X005320Y007826D01*
X005210Y007727D02*
X005600Y007727D01*
X005600Y007629D02*
X005210Y007629D01*
X004605Y007530D02*
X004170Y007530D01*
X004170Y007432D02*
X004507Y007432D01*
X004408Y007333D02*
X004170Y007333D01*
X004170Y007235D02*
X004310Y007235D01*
X004211Y007136D02*
X004170Y007136D01*
X004430Y006841D02*
X004690Y006841D01*
X004690Y006939D02*
X004524Y006939D01*
X004622Y007038D02*
X004690Y007038D01*
X004690Y006742D02*
X004430Y006742D01*
X004430Y006644D02*
X004690Y006644D01*
X004631Y006545D02*
X004430Y006545D01*
X004430Y006447D02*
X004600Y006447D01*
X004600Y006348D02*
X004430Y006348D01*
X004430Y006250D02*
X004657Y006250D01*
X005550Y006750D02*
X005550Y006883D01*
X005537Y006883D01*
X005410Y007010D01*
X005550Y006883D02*
X005717Y007050D01*
X006536Y007050D01*
X006782Y006805D01*
X006642Y006666D02*
X006518Y006790D01*
X006230Y006790D01*
X007020Y007680D02*
X007338Y007362D01*
X007020Y007680D02*
X006225Y007680D01*
X007950Y006450D02*
X008250Y006450D01*
X008317Y006447D02*
X008324Y006447D01*
X008183Y006447D02*
X008176Y006447D01*
X008774Y005856D02*
X008915Y005856D01*
X008872Y005757D02*
X008988Y005757D01*
X008466Y004842D02*
X009058Y004250D01*
X009755Y003720D02*
X009755Y003715D01*
X009760Y003710D01*
X008950Y003350D02*
X009450Y002850D01*
X009450Y002450D01*
X010400Y002550D02*
X010450Y002500D01*
X010450Y002450D01*
X010911Y002310D02*
X010970Y002310D01*
X011011Y002211D02*
X010871Y002211D01*
X008950Y003350D02*
X007850Y003350D01*
X008227Y004650D02*
X008250Y004650D01*
X008227Y004650D02*
X008034Y004842D01*
X006921Y005951D02*
X006921Y005956D01*
X003891Y003689D02*
X003791Y003689D01*
X003791Y003590D02*
X003891Y003590D01*
X003891Y003492D02*
X003791Y003492D01*
X003791Y003393D02*
X003891Y003393D01*
X003455Y003393D02*
X003450Y003393D01*
X013646Y008909D02*
X013654Y008909D01*
X013646Y009008D02*
X013654Y009008D01*
X013646Y009106D02*
X013654Y009106D01*
X013646Y009205D02*
X013654Y009205D01*
D11*
X012913Y008588D02*
X012913Y008462D01*
X012787Y008462D01*
X012787Y008588D01*
X012913Y008588D01*
X012913Y008586D02*
X012787Y008586D01*
X012913Y008238D02*
X012913Y008112D01*
X012787Y008112D01*
X012787Y008238D01*
X012913Y008238D01*
X012913Y008236D02*
X012787Y008236D01*
X012013Y008238D02*
X012013Y008112D01*
X011887Y008112D01*
X011887Y008238D01*
X012013Y008238D01*
X012013Y008236D02*
X011887Y008236D01*
X012013Y008462D02*
X012013Y008588D01*
X012013Y008462D02*
X011887Y008462D01*
X011887Y008588D01*
X012013Y008588D01*
X012013Y008586D02*
X011887Y008586D01*
X010287Y008488D02*
X010287Y008362D01*
X010287Y008488D02*
X010413Y008488D01*
X010413Y008362D01*
X010287Y008362D01*
X010287Y008486D02*
X010413Y008486D01*
X010287Y008138D02*
X010287Y008012D01*
X010287Y008138D02*
X010413Y008138D01*
X010413Y008012D01*
X010287Y008012D01*
X010287Y008136D02*
X010413Y008136D01*
X010413Y008892D02*
X010413Y009018D01*
X010413Y008892D02*
X010287Y008892D01*
X010287Y009018D01*
X010413Y009018D01*
X010413Y009016D02*
X010287Y009016D01*
X010013Y009018D02*
X010013Y008892D01*
X009887Y008892D01*
X009887Y009018D01*
X010013Y009018D01*
X010013Y009016D02*
X009887Y009016D01*
X010013Y009242D02*
X010013Y009368D01*
X010013Y009242D02*
X009887Y009242D01*
X009887Y009368D01*
X010013Y009368D01*
X010013Y009366D02*
X009887Y009366D01*
X010413Y009368D02*
X010413Y009242D01*
X010287Y009242D01*
X010287Y009368D01*
X010413Y009368D01*
X010413Y009366D02*
X010287Y009366D01*
X009013Y009368D02*
X009013Y009242D01*
X008887Y009242D01*
X008887Y009368D01*
X009013Y009368D01*
X009013Y009366D02*
X008887Y009366D01*
X009013Y009018D02*
X009013Y008892D01*
X008887Y008892D01*
X008887Y009018D01*
X009013Y009018D01*
X009013Y009016D02*
X008887Y009016D01*
X006288Y007743D02*
X006162Y007743D01*
X006288Y007743D02*
X006288Y007617D01*
X006162Y007617D01*
X006162Y007743D01*
X006162Y007741D02*
X006288Y007741D01*
X005938Y007743D02*
X005812Y007743D01*
X005938Y007743D02*
X005938Y007617D01*
X005812Y007617D01*
X005812Y007743D01*
X005812Y007741D02*
X005938Y007741D01*
X005988Y005513D02*
X005862Y005513D01*
X005988Y005513D02*
X005988Y005387D01*
X005862Y005387D01*
X005862Y005513D01*
X005862Y005511D02*
X005988Y005511D01*
X005638Y005513D02*
X005512Y005513D01*
X005638Y005513D02*
X005638Y005387D01*
X005512Y005387D01*
X005512Y005513D01*
X005512Y005511D02*
X005638Y005511D01*
X005188Y005387D02*
X005062Y005387D01*
X005062Y005513D01*
X005188Y005513D01*
X005188Y005387D01*
X005188Y005511D02*
X005062Y005511D01*
X004838Y005387D02*
X004712Y005387D01*
X004712Y005513D01*
X004838Y005513D01*
X004838Y005387D01*
X004838Y005511D02*
X004712Y005511D01*
X009342Y003657D02*
X009468Y003657D01*
X009342Y003657D02*
X009342Y003783D01*
X009468Y003783D01*
X009468Y003657D01*
X009468Y003781D02*
X009342Y003781D01*
X009692Y003657D02*
X009818Y003657D01*
X009692Y003657D02*
X009692Y003783D01*
X009818Y003783D01*
X009818Y003657D01*
X009818Y003781D02*
X009692Y003781D01*
X013913Y005612D02*
X013913Y005738D01*
X013913Y005612D02*
X013787Y005612D01*
X013787Y005738D01*
X013913Y005738D01*
X013913Y005736D02*
X013787Y005736D01*
X013913Y005962D02*
X013913Y006088D01*
X013913Y005962D02*
X013787Y005962D01*
X013787Y006088D01*
X013913Y006088D01*
X013913Y006086D02*
X013787Y006086D01*
X014512Y006407D02*
X014638Y006407D01*
X014512Y006407D02*
X014512Y006533D01*
X014638Y006533D01*
X014638Y006407D01*
X014638Y006531D02*
X014512Y006531D01*
X014862Y006407D02*
X014988Y006407D01*
X014862Y006407D02*
X014862Y006533D01*
X014988Y006533D01*
X014988Y006407D01*
X014988Y006531D02*
X014862Y006531D01*
X012988Y007513D02*
X012862Y007513D01*
X012988Y007513D02*
X012988Y007387D01*
X012862Y007387D01*
X012862Y007513D01*
X012862Y007511D02*
X012988Y007511D01*
X012638Y007513D02*
X012512Y007513D01*
X012638Y007513D02*
X012638Y007387D01*
X012512Y007387D01*
X012512Y007513D01*
X012512Y007511D02*
X012638Y007511D01*
D12*
X002450Y008650D03*
D13*
X005550Y006883D03*
X005550Y006017D03*
D14*
X013276Y007838D03*
X014024Y007838D03*
X014024Y008862D03*
X013650Y008862D03*
X013276Y008862D03*
D15*
X014860Y005950D03*
X014480Y005150D03*
X015240Y005150D03*
X015220Y004350D03*
X014460Y004350D03*
X014840Y003550D03*
D16*
X012681Y006730D03*
X011579Y006730D03*
X003841Y003810D03*
X002739Y003810D03*
D17*
X010786Y008297D03*
X011514Y008297D03*
X011514Y009203D03*
X010786Y009203D03*
D18*
X008809Y007860D02*
X008663Y007714D01*
X008809Y007860D02*
X008825Y007844D01*
X008679Y007698D01*
X008663Y007714D01*
X008733Y007784D02*
X008765Y007784D01*
X008948Y007721D02*
X008802Y007575D01*
X008948Y007721D02*
X008964Y007705D01*
X008818Y007559D01*
X008802Y007575D01*
X008872Y007645D02*
X008904Y007645D01*
X009088Y007582D02*
X008942Y007436D01*
X009088Y007582D02*
X009104Y007566D01*
X008958Y007420D01*
X008942Y007436D01*
X009012Y007506D02*
X009044Y007506D01*
X009227Y007443D02*
X009081Y007297D01*
X009227Y007443D02*
X009243Y007427D01*
X009097Y007281D01*
X009081Y007297D01*
X009151Y007367D02*
X009183Y007367D01*
X009366Y007304D02*
X009220Y007158D01*
X009366Y007304D02*
X009382Y007288D01*
X009236Y007142D01*
X009220Y007158D01*
X009290Y007228D02*
X009322Y007228D01*
X009505Y007164D02*
X009359Y007018D01*
X009505Y007164D02*
X009521Y007148D01*
X009375Y007002D01*
X009359Y007018D01*
X009429Y007088D02*
X009461Y007088D01*
X009644Y007025D02*
X009498Y006879D01*
X009644Y007025D02*
X009660Y007009D01*
X009514Y006863D01*
X009498Y006879D01*
X009568Y006949D02*
X009600Y006949D01*
X009784Y006886D02*
X009638Y006740D01*
X009784Y006886D02*
X009800Y006870D01*
X009654Y006724D01*
X009638Y006740D01*
X009708Y006810D02*
X009740Y006810D01*
X009923Y006747D02*
X009777Y006601D01*
X009923Y006747D02*
X009939Y006731D01*
X009793Y006585D01*
X009777Y006601D01*
X009847Y006671D02*
X009879Y006671D01*
X009793Y006315D02*
X009939Y006169D01*
X009923Y006153D01*
X009777Y006299D01*
X009793Y006315D01*
X009837Y006239D02*
X009869Y006239D01*
X009800Y006030D02*
X009654Y006176D01*
X009800Y006030D02*
X009784Y006014D01*
X009638Y006160D01*
X009654Y006176D01*
X009698Y006100D02*
X009730Y006100D01*
X009660Y005891D02*
X009514Y006037D01*
X009660Y005891D02*
X009644Y005875D01*
X009498Y006021D01*
X009514Y006037D01*
X009558Y005961D02*
X009590Y005961D01*
X009521Y005752D02*
X009375Y005898D01*
X009521Y005752D02*
X009505Y005736D01*
X009359Y005882D01*
X009375Y005898D01*
X009419Y005822D02*
X009451Y005822D01*
X009382Y005612D02*
X009236Y005758D01*
X009382Y005612D02*
X009366Y005596D01*
X009220Y005742D01*
X009236Y005758D01*
X009280Y005682D02*
X009312Y005682D01*
X009243Y005473D02*
X009097Y005619D01*
X009243Y005473D02*
X009227Y005457D01*
X009081Y005603D01*
X009097Y005619D01*
X009141Y005543D02*
X009173Y005543D01*
X009104Y005334D02*
X008958Y005480D01*
X009104Y005334D02*
X009088Y005318D01*
X008942Y005464D01*
X008958Y005480D01*
X009002Y005404D02*
X009034Y005404D01*
X008964Y005195D02*
X008818Y005341D01*
X008964Y005195D02*
X008948Y005179D01*
X008802Y005325D01*
X008818Y005341D01*
X008862Y005265D02*
X008894Y005265D01*
X008825Y005056D02*
X008679Y005202D01*
X008825Y005056D02*
X008809Y005040D01*
X008663Y005186D01*
X008679Y005202D01*
X008723Y005126D02*
X008755Y005126D01*
X008686Y004916D02*
X008540Y005062D01*
X008686Y004916D02*
X008670Y004900D01*
X008524Y005046D01*
X008540Y005062D01*
X008584Y004986D02*
X008616Y004986D01*
X008547Y004777D02*
X008401Y004923D01*
X008547Y004777D02*
X008531Y004761D01*
X008385Y004907D01*
X008401Y004923D01*
X008445Y004847D02*
X008477Y004847D01*
X008115Y004907D02*
X007969Y004761D01*
X007953Y004777D01*
X008099Y004923D01*
X008115Y004907D01*
X008055Y004847D02*
X008023Y004847D01*
X007830Y004900D02*
X007976Y005046D01*
X007830Y004900D02*
X007814Y004916D01*
X007960Y005062D01*
X007976Y005046D01*
X007916Y004986D02*
X007884Y004986D01*
X007691Y005040D02*
X007837Y005186D01*
X007691Y005040D02*
X007675Y005056D01*
X007821Y005202D01*
X007837Y005186D01*
X007777Y005126D02*
X007745Y005126D01*
X007552Y005179D02*
X007698Y005325D01*
X007552Y005179D02*
X007536Y005195D01*
X007682Y005341D01*
X007698Y005325D01*
X007638Y005265D02*
X007606Y005265D01*
X007412Y005318D02*
X007558Y005464D01*
X007412Y005318D02*
X007396Y005334D01*
X007542Y005480D01*
X007558Y005464D01*
X007498Y005404D02*
X007466Y005404D01*
X007273Y005457D02*
X007419Y005603D01*
X007273Y005457D02*
X007257Y005473D01*
X007403Y005619D01*
X007419Y005603D01*
X007359Y005543D02*
X007327Y005543D01*
X007134Y005596D02*
X007280Y005742D01*
X007134Y005596D02*
X007118Y005612D01*
X007264Y005758D01*
X007280Y005742D01*
X007220Y005682D02*
X007188Y005682D01*
X006995Y005736D02*
X007141Y005882D01*
X006995Y005736D02*
X006979Y005752D01*
X007125Y005898D01*
X007141Y005882D01*
X007081Y005822D02*
X007049Y005822D01*
X006856Y005875D02*
X007002Y006021D01*
X006856Y005875D02*
X006840Y005891D01*
X006986Y006037D01*
X007002Y006021D01*
X006942Y005961D02*
X006910Y005961D01*
X006717Y006014D02*
X006863Y006160D01*
X006717Y006014D02*
X006701Y006030D01*
X006847Y006176D01*
X006863Y006160D01*
X006803Y006100D02*
X006771Y006100D01*
X006577Y006153D02*
X006723Y006299D01*
X006577Y006153D02*
X006561Y006169D01*
X006707Y006315D01*
X006723Y006299D01*
X006663Y006239D02*
X006631Y006239D01*
X006707Y006585D02*
X006561Y006731D01*
X006577Y006747D01*
X006723Y006601D01*
X006707Y006585D01*
X006653Y006671D02*
X006621Y006671D01*
X006701Y006870D02*
X006847Y006724D01*
X006701Y006870D02*
X006717Y006886D01*
X006863Y006740D01*
X006847Y006724D01*
X006793Y006810D02*
X006761Y006810D01*
X006840Y007009D02*
X006986Y006863D01*
X006840Y007009D02*
X006856Y007025D01*
X007002Y006879D01*
X006986Y006863D01*
X006932Y006949D02*
X006900Y006949D01*
X006979Y007148D02*
X007125Y007002D01*
X006979Y007148D02*
X006995Y007164D01*
X007141Y007018D01*
X007125Y007002D01*
X007071Y007088D02*
X007039Y007088D01*
X007118Y007288D02*
X007264Y007142D01*
X007118Y007288D02*
X007134Y007304D01*
X007280Y007158D01*
X007264Y007142D01*
X007210Y007228D02*
X007178Y007228D01*
X007257Y007427D02*
X007403Y007281D01*
X007257Y007427D02*
X007273Y007443D01*
X007419Y007297D01*
X007403Y007281D01*
X007349Y007367D02*
X007317Y007367D01*
X007396Y007566D02*
X007542Y007420D01*
X007396Y007566D02*
X007412Y007582D01*
X007558Y007436D01*
X007542Y007420D01*
X007488Y007506D02*
X007456Y007506D01*
X007536Y007705D02*
X007682Y007559D01*
X007536Y007705D02*
X007552Y007721D01*
X007698Y007575D01*
X007682Y007559D01*
X007628Y007645D02*
X007596Y007645D01*
X007675Y007844D02*
X007821Y007698D01*
X007675Y007844D02*
X007691Y007860D01*
X007837Y007714D01*
X007821Y007698D01*
X007767Y007784D02*
X007735Y007784D01*
X007814Y007983D02*
X007960Y007837D01*
X007814Y007983D02*
X007830Y007999D01*
X007976Y007853D01*
X007960Y007837D01*
X007906Y007923D02*
X007874Y007923D01*
X007953Y008123D02*
X008099Y007977D01*
X007953Y008123D02*
X007969Y008139D01*
X008115Y007993D01*
X008099Y007977D01*
X008045Y008063D02*
X008013Y008063D01*
X008385Y007993D02*
X008531Y008139D01*
X008547Y008123D01*
X008401Y007977D01*
X008385Y007993D01*
X008455Y008063D02*
X008487Y008063D01*
X008670Y007999D02*
X008524Y007853D01*
X008670Y007999D02*
X008686Y007983D01*
X008540Y007837D01*
X008524Y007853D01*
X008594Y007923D02*
X008626Y007923D01*
D19*
X007041Y006450D02*
X008250Y005241D01*
X007041Y006450D02*
X008250Y007659D01*
X009459Y006450D01*
X008250Y005241D01*
X008439Y005430D02*
X008061Y005430D01*
X007872Y005619D02*
X008628Y005619D01*
X008817Y005808D02*
X007683Y005808D01*
X007494Y005997D02*
X009006Y005997D01*
X009195Y006186D02*
X007305Y006186D01*
X007116Y006375D02*
X009384Y006375D01*
X009345Y006564D02*
X007155Y006564D01*
X007344Y006753D02*
X009156Y006753D01*
X008967Y006942D02*
X007533Y006942D01*
X007722Y007131D02*
X008778Y007131D01*
X008589Y007320D02*
X007911Y007320D01*
X008100Y007509D02*
X008400Y007509D01*
D20*
X011200Y005560D03*
X011200Y004650D03*
X011200Y003740D03*
D21*
X013640Y004650D03*
D22*
X009450Y008677D03*
X009450Y009583D03*
D23*
X009450Y010450D03*
X008450Y010450D03*
X007450Y010450D03*
X006450Y010450D03*
X005450Y010450D03*
X004450Y010450D03*
X003450Y010450D03*
X002450Y010450D03*
X010450Y010450D03*
X011450Y010450D03*
X012450Y010450D03*
X013450Y010450D03*
X014450Y010450D03*
X015450Y010450D03*
X015450Y002450D03*
X014450Y002450D03*
X013450Y002450D03*
X012450Y002450D03*
X011450Y002450D03*
X010450Y002450D03*
X009450Y002450D03*
X008450Y002450D03*
X007450Y002450D03*
X006450Y002450D03*
X005450Y002450D03*
X004450Y002450D03*
X003450Y002450D03*
X002450Y002450D03*
D24*
X002450Y009450D03*
X003450Y009450D03*
X004450Y009450D03*
D25*
X005030Y009750D03*
X003350Y008250D03*
X004960Y007630D03*
X005410Y007010D03*
X005120Y006710D03*
X004850Y006410D03*
X005110Y006200D03*
X007450Y004580D03*
X007790Y004290D03*
X007450Y004180D03*
X008950Y002930D03*
X009720Y003350D03*
X010110Y002960D03*
X011200Y002990D03*
X011930Y003430D03*
X011900Y003810D03*
X012260Y004110D03*
X011910Y004170D03*
X012950Y003830D03*
X012970Y003110D03*
X014710Y003220D03*
X013280Y005070D03*
X012350Y005190D03*
X012020Y005050D03*
X011970Y005760D03*
X012310Y005870D03*
X011320Y006100D03*
X010940Y006190D03*
X011000Y006550D03*
X010550Y006630D03*
X010050Y006410D03*
X010470Y007190D03*
X010460Y007540D03*
X010000Y007550D03*
X009630Y007480D03*
X008780Y008540D03*
X008410Y009660D03*
X010070Y009670D03*
X010950Y009910D03*
X011750Y009830D03*
X012790Y009910D03*
X013990Y009910D03*
X015350Y009590D03*
X015750Y009590D03*
X012270Y007630D03*
X010870Y008870D03*
X010480Y005410D03*
X010070Y004590D03*
X005950Y002850D03*
D26*
X006950Y003750D02*
X007030Y003670D01*
X007430Y003670D01*
X007750Y003350D01*
X007850Y003350D01*
X008520Y003930D02*
X008770Y003930D01*
X010150Y002550D01*
X010400Y002550D01*
X010620Y003060D02*
X011130Y002550D01*
X011320Y002550D01*
X011460Y002410D01*
X011200Y002990D02*
X010960Y002990D01*
X010520Y003430D01*
X010310Y003430D01*
X010050Y003690D01*
X010050Y003850D01*
X009900Y004000D01*
X009586Y004000D01*
X008605Y004981D01*
X008744Y005121D02*
X009675Y004190D01*
X011890Y004190D01*
X011910Y004170D01*
X011990Y005020D02*
X010680Y005020D01*
X010470Y004810D01*
X010470Y004550D01*
X010270Y004350D01*
X009793Y004350D01*
X008883Y005260D01*
X009023Y005399D02*
X009031Y005399D01*
X009290Y005140D01*
X010560Y005140D01*
X010610Y005190D01*
X011780Y005190D01*
X011950Y005360D01*
X011950Y005740D01*
X011970Y005760D01*
X011320Y006100D02*
X011280Y006080D01*
X011140Y005940D01*
X010670Y005940D01*
X010190Y005460D01*
X009518Y005460D01*
X009301Y005677D01*
X009440Y005817D02*
X009637Y005620D01*
X010130Y005620D01*
X010700Y006190D01*
X010940Y006190D01*
X011000Y006550D02*
X010820Y006550D01*
X010060Y005790D01*
X009770Y005790D01*
X009604Y005956D01*
X009579Y005956D01*
X009864Y005950D02*
X009950Y005950D01*
X010150Y006150D01*
X010150Y006250D01*
X009858Y006666D02*
X009902Y006710D01*
X010470Y006710D01*
X010550Y006630D01*
X010110Y006910D02*
X010340Y007140D01*
X010470Y007190D01*
X010110Y006910D02*
X009824Y006910D01*
X009719Y006805D01*
X009579Y006944D02*
X009705Y007070D01*
X009960Y007070D01*
X010430Y007540D01*
X010460Y007540D01*
X010000Y007550D02*
X010000Y007500D01*
X009730Y007230D01*
X009587Y007230D01*
X009440Y007083D01*
X009301Y007223D02*
X009558Y007480D01*
X009630Y007480D01*
X009610Y007810D02*
X012110Y007810D01*
X012250Y007950D01*
X012250Y008350D01*
X012075Y008525D01*
X011950Y008525D01*
X010786Y008297D02*
X010564Y008075D01*
X010350Y008075D01*
X009597Y008075D01*
X009023Y007501D01*
X009162Y007362D02*
X009610Y007810D01*
X009070Y008100D02*
X009070Y008250D01*
X008780Y008540D01*
X008500Y008440D02*
X008500Y009155D01*
X008650Y009305D01*
X008050Y008950D02*
X007850Y009150D01*
X007570Y009150D01*
X007540Y009180D01*
X008050Y008950D02*
X008050Y008473D01*
X008466Y008058D01*
X008605Y007918D02*
X008638Y007918D01*
X008638Y007938D01*
X008750Y008050D01*
X008750Y008190D01*
X008500Y008440D01*
X009070Y008100D02*
X008749Y007779D01*
X008744Y007779D01*
X009450Y008485D01*
X009450Y008677D01*
X006864Y008950D02*
X004150Y008950D01*
X003950Y009150D01*
X003950Y009950D01*
X003450Y010450D01*
X002950Y009850D02*
X002450Y010350D01*
X002450Y010450D01*
X002950Y009850D02*
X002950Y008950D01*
X003150Y008750D01*
X006785Y008750D01*
X006723Y007420D02*
X005221Y007420D01*
X004860Y007059D01*
X004860Y006420D01*
X004850Y006410D01*
X005120Y006710D02*
X005120Y007080D01*
X005300Y007260D01*
X006585Y007260D01*
X006921Y006944D01*
X007060Y007083D02*
X006723Y007420D01*
X004775Y005450D02*
X004830Y005395D01*
X004830Y003630D01*
X006950Y003750D02*
X006950Y004250D01*
X007610Y004840D02*
X008520Y003930D01*
X009058Y004250D02*
X009405Y003903D01*
X009405Y003720D01*
X009760Y003710D02*
X010410Y003060D01*
X010620Y003060D01*
X011990Y005020D02*
X012020Y005050D01*
X010480Y005410D02*
X010370Y005300D01*
X009400Y005300D01*
X009162Y005538D01*
X007756Y005121D02*
X007610Y004975D01*
X007610Y004840D01*
D27*
X008250Y004650D03*
X008640Y004230D03*
X008570Y003650D03*
X007860Y003660D03*
X007390Y003330D03*
X005550Y004850D03*
X004510Y004440D03*
X003430Y004790D03*
X005100Y005840D03*
X006450Y006450D03*
X004890Y007990D03*
X005650Y008250D03*
X006050Y008250D03*
X006450Y008250D03*
X007700Y008820D03*
X007540Y009180D03*
X007290Y009470D03*
X007950Y009950D03*
X013450Y006850D03*
X014250Y006850D03*
X014910Y007690D03*
X013680Y007810D03*
X014250Y009390D03*
X014250Y006050D03*
X013450Y006050D03*
X014870Y004830D03*
X015750Y004950D03*
X015640Y004310D03*
X015460Y003780D03*
X015730Y003420D03*
X014940Y002870D03*
X014370Y003400D03*
X012950Y004310D03*
X012530Y003840D03*
X010420Y003700D03*
X005040Y002900D03*
X002270Y003190D03*
D28*
X007750Y005950D03*
X008750Y005950D03*
X008750Y006950D03*
X007750Y006950D03*
D29*
X011200Y005560D02*
X011480Y005560D01*
X011480Y005720D01*
X011990Y006230D01*
X012550Y006230D01*
X013190Y005590D01*
X013765Y005590D01*
X013850Y005675D01*
X014065Y005675D01*
X014390Y005350D01*
X014390Y005240D01*
X014480Y005150D01*
X014870Y004830D02*
X014870Y005940D01*
X015430Y005340D02*
X015240Y005150D01*
X015430Y005340D02*
X015430Y006870D01*
X015190Y007110D01*
X014870Y007110D01*
X014630Y007350D01*
X014070Y007350D01*
X013830Y007110D01*
X013830Y006630D01*
X013670Y006470D01*
X013110Y006470D01*
X012850Y006730D01*
X012681Y006730D01*
X011950Y008175D02*
X011636Y008175D01*
X011514Y008297D01*
X013640Y004650D02*
X013670Y004620D01*
X013670Y004230D01*
X013950Y003950D01*
X013910Y003910D01*
X013910Y003110D01*
X014450Y002570D01*
X013450Y002450D02*
X013450Y003250D01*
X013190Y003510D01*
X012010Y003510D01*
X011930Y003430D01*
X013950Y003950D02*
X015230Y003950D01*
X015280Y003900D01*
X015400Y003900D01*
X002739Y003810D02*
X002739Y003659D01*
X002270Y003190D01*
D30*
X011200Y004650D02*
X013250Y004650D01*
X013640Y004650D01*
X013070Y004630D01*
X012950Y004310D01*
D31*
X013250Y004650D02*
X013280Y004680D01*
X013280Y005070D01*
X003990Y004950D02*
X003830Y004790D01*
X003430Y004790D01*
X002739Y004121D02*
X002739Y003810D01*
M02*
