G75*
G70*
%OFA0B0*%
%FSLAX24Y24*%
%IPPOS*%
%LPD*%
%AMOC8*
5,1,8,0,0,1.08239X$1,22.5*
%
%ADD10C,0.0100*%
%ADD11C,0.0040*%
%ADD12C,0.0030*%
%ADD13R,0.0276X0.0138*%
%ADD14C,0.0050*%
%ADD15R,0.0094X0.0157*%
%ADD16R,0.0157X0.0094*%
%ADD17C,0.0080*%
%ADD18C,0.0060*%
%ADD19R,0.0290X0.0690*%
%ADD20C,0.0070*%
%ADD21R,0.0230X0.0180*%
%ADD22R,0.0157X0.0354*%
%ADD23R,0.0118X0.0059*%
%ADD24R,0.0118X0.0118*%
%ADD25R,0.0354X0.0157*%
%ADD26R,0.0059X0.0118*%
%ADD27R,0.0200X0.0200*%
D10*
X001820Y001850D02*
X016150Y001840D01*
X016150Y004250D01*
X017550Y005650D01*
X017550Y009850D01*
X017530Y009870D02*
X016350Y011050D01*
X001820Y011060D01*
X001820Y001850D01*
D11*
X002234Y002830D02*
X002394Y002830D01*
X002314Y002830D02*
X002314Y003070D01*
X002234Y002990D01*
X002492Y003030D02*
X002532Y003070D01*
X002612Y003070D01*
X002652Y003030D01*
X002652Y002990D01*
X002612Y002950D01*
X002652Y002910D01*
X002652Y002870D01*
X002612Y002830D01*
X002532Y002830D01*
X002492Y002870D01*
X002572Y002950D02*
X002612Y002950D01*
X003117Y002910D02*
X003237Y002910D01*
X003277Y002950D01*
X003277Y003030D01*
X003237Y003070D01*
X003117Y003070D01*
X003117Y002830D01*
X003197Y002910D02*
X003277Y002830D01*
X003374Y002870D02*
X003414Y002830D01*
X003494Y002830D01*
X003534Y002870D01*
X003534Y002910D01*
X003494Y002950D01*
X003414Y002950D01*
X003374Y002990D01*
X003374Y003030D01*
X003414Y003070D01*
X003494Y003070D01*
X003534Y003030D01*
X003632Y003070D02*
X003792Y003070D01*
X003712Y003070D02*
X003712Y002830D01*
X004019Y002830D02*
X004019Y002990D01*
X004099Y003070D01*
X004179Y002990D01*
X004179Y002830D01*
X004277Y002830D02*
X004277Y003070D01*
X004397Y003070D01*
X004437Y003030D01*
X004437Y002950D01*
X004397Y002910D01*
X004277Y002910D01*
X004357Y002910D02*
X004437Y002830D01*
X004534Y002830D02*
X004694Y002830D01*
X004792Y002830D02*
X004792Y003070D01*
X004952Y003070D01*
X004872Y002950D02*
X004792Y002950D01*
X004694Y003070D02*
X004534Y003070D01*
X004534Y002830D01*
X004534Y002950D02*
X004614Y002950D01*
X004179Y002950D02*
X004019Y002950D01*
X004993Y003673D02*
X004993Y004027D01*
X005307Y004027D02*
X005307Y003673D01*
X005873Y003693D02*
X006227Y003693D01*
X006227Y003507D02*
X005873Y003507D01*
X005873Y003193D02*
X006227Y003193D01*
X006314Y003070D02*
X006394Y002990D01*
X006394Y002830D01*
X006394Y002950D02*
X006234Y002950D01*
X006234Y002990D02*
X006234Y002830D01*
X006492Y002950D02*
X006652Y002950D01*
X006612Y002830D02*
X006612Y003070D01*
X006492Y002950D01*
X006314Y003070D02*
X006234Y002990D01*
X005652Y002950D02*
X005652Y002870D01*
X005612Y002830D01*
X005532Y002830D01*
X005492Y002870D01*
X005492Y002950D02*
X005572Y002990D01*
X005612Y002990D01*
X005652Y002950D01*
X005652Y003070D02*
X005492Y003070D01*
X005492Y002950D01*
X005394Y002950D02*
X005234Y002950D01*
X005234Y002990D02*
X005234Y002830D01*
X005394Y002830D02*
X005394Y002990D01*
X005314Y003070D01*
X005234Y002990D01*
X005873Y004007D02*
X006227Y004007D01*
X006227Y004193D02*
X005873Y004193D01*
X005873Y004507D02*
X006227Y004507D01*
X004588Y004955D02*
X004312Y004955D01*
X004312Y005545D01*
X004588Y005545D01*
X004588Y004955D01*
X007234Y002990D02*
X007314Y003070D01*
X007394Y002990D01*
X007394Y002830D01*
X007492Y002870D02*
X007532Y002830D01*
X007612Y002830D01*
X007652Y002870D01*
X007652Y002910D01*
X007612Y002950D01*
X007572Y002950D01*
X007612Y002950D02*
X007652Y002990D01*
X007652Y003030D01*
X007612Y003070D01*
X007532Y003070D01*
X007492Y003030D01*
X007394Y002950D02*
X007234Y002950D01*
X007234Y002990D02*
X007234Y002830D01*
X008234Y002830D02*
X008234Y002990D01*
X008314Y003070D01*
X008394Y002990D01*
X008394Y002830D01*
X008492Y002830D02*
X008652Y002990D01*
X008652Y003030D01*
X008612Y003070D01*
X008532Y003070D01*
X008492Y003030D01*
X008394Y002950D02*
X008234Y002950D01*
X008492Y002830D02*
X008652Y002830D01*
X009234Y002830D02*
X009234Y002990D01*
X009314Y003070D01*
X009394Y002990D01*
X009394Y002830D01*
X009492Y002830D02*
X009652Y002830D01*
X009572Y002830D02*
X009572Y003070D01*
X009492Y002990D01*
X009394Y002950D02*
X009234Y002950D01*
X010234Y002950D02*
X010394Y002950D01*
X010394Y002990D02*
X010314Y003070D01*
X010234Y002990D01*
X010234Y002830D01*
X010394Y002830D02*
X010394Y002990D01*
X010492Y003030D02*
X010532Y003070D01*
X010612Y003070D01*
X010652Y003030D01*
X010492Y002870D01*
X010532Y002830D01*
X010612Y002830D01*
X010652Y002870D01*
X010652Y003030D01*
X010492Y003030D02*
X010492Y002870D01*
X011147Y002870D02*
X011187Y002830D01*
X011267Y002830D01*
X011307Y002870D01*
X011307Y002950D01*
X011227Y002950D01*
X011307Y003030D02*
X011267Y003070D01*
X011187Y003070D01*
X011147Y003030D01*
X011147Y002870D01*
X011404Y002830D02*
X011404Y003070D01*
X011564Y002830D01*
X011564Y003070D01*
X011662Y003070D02*
X011782Y003070D01*
X011822Y003030D01*
X011822Y002870D01*
X011782Y002830D01*
X011662Y002830D01*
X011662Y003070D01*
X012147Y003030D02*
X012147Y002870D01*
X012187Y002830D01*
X012267Y002830D01*
X012307Y002870D01*
X012307Y002950D01*
X012227Y002950D01*
X012307Y003030D02*
X012267Y003070D01*
X012187Y003070D01*
X012147Y003030D01*
X012404Y003070D02*
X012564Y002830D01*
X012564Y003070D01*
X012662Y003070D02*
X012782Y003070D01*
X012822Y003030D01*
X012822Y002870D01*
X012782Y002830D01*
X012662Y002830D01*
X012662Y003070D01*
X012404Y003070D02*
X012404Y002830D01*
X013147Y002870D02*
X013187Y002830D01*
X013267Y002830D01*
X013307Y002870D01*
X013307Y002910D01*
X013267Y002950D01*
X013227Y002950D01*
X013267Y002950D02*
X013307Y002990D01*
X013307Y003030D01*
X013267Y003070D01*
X013187Y003070D01*
X013147Y003030D01*
X013404Y003070D02*
X013404Y002910D01*
X013484Y002830D01*
X013564Y002910D01*
X013564Y003070D01*
X013662Y003030D02*
X013702Y003070D01*
X013782Y003070D01*
X013822Y003030D01*
X013822Y002990D01*
X013782Y002950D01*
X013822Y002910D01*
X013822Y002870D01*
X013782Y002830D01*
X013702Y002830D01*
X013662Y002870D01*
X013742Y002950D02*
X013782Y002950D01*
X014204Y002950D02*
X014284Y002990D01*
X014324Y002990D01*
X014364Y002950D01*
X014364Y002870D01*
X014324Y002830D01*
X014244Y002830D01*
X014204Y002870D01*
X014204Y002950D02*
X014204Y003070D01*
X014364Y003070D01*
X014462Y003070D02*
X014462Y002910D01*
X014542Y002830D01*
X014622Y002910D01*
X014622Y003070D01*
X015132Y003070D02*
X015132Y002910D01*
X015213Y002830D01*
X015293Y002910D01*
X015293Y003070D01*
X015390Y002990D02*
X015430Y002990D01*
X015430Y002830D01*
X015390Y002830D02*
X015470Y002830D01*
X015562Y002830D02*
X015562Y002990D01*
X015682Y002990D01*
X015722Y002950D01*
X015722Y002830D01*
X015430Y003070D02*
X015430Y003110D01*
X013827Y003293D02*
X013473Y003293D01*
X013473Y003607D02*
X013827Y003607D01*
X004688Y007355D02*
X004412Y007355D01*
X004412Y007945D01*
X004688Y007945D01*
X004688Y007355D01*
X004674Y009830D02*
X004594Y009830D01*
X004554Y009870D01*
X004594Y009950D02*
X004554Y009990D01*
X004554Y010030D01*
X004594Y010070D01*
X004674Y010070D01*
X004714Y010030D01*
X004674Y009950D02*
X004714Y009910D01*
X004714Y009870D01*
X004674Y009830D01*
X004674Y009950D02*
X004594Y009950D01*
X004463Y009830D02*
X004382Y009830D01*
X004423Y009830D02*
X004423Y010070D01*
X004463Y010070D02*
X004382Y010070D01*
X004285Y010070D02*
X004285Y009830D01*
X004125Y009830D02*
X004125Y010070D01*
X004205Y009990D01*
X004285Y010070D01*
X003878Y010070D02*
X003798Y010070D01*
X003838Y010070D02*
X003838Y009830D01*
X003798Y009830D02*
X003878Y009830D01*
X003700Y009870D02*
X003660Y009830D01*
X003580Y009830D01*
X003540Y009870D01*
X003580Y009950D02*
X003660Y009950D01*
X003700Y009910D01*
X003700Y009870D01*
X003580Y009950D02*
X003540Y009990D01*
X003540Y010030D01*
X003580Y010070D01*
X003660Y010070D01*
X003700Y010030D01*
X003443Y010030D02*
X003443Y009870D01*
X003403Y009830D01*
X003323Y009830D01*
X003282Y009870D01*
X003282Y010030D01*
X003323Y010070D01*
X003403Y010070D01*
X003443Y010030D01*
X003185Y010070D02*
X003185Y009830D01*
X003025Y009830D02*
X003025Y010070D01*
X003105Y009990D01*
X003185Y010070D01*
X002772Y010070D02*
X002612Y009910D01*
X002652Y009950D02*
X002772Y009830D01*
X002612Y009830D02*
X002612Y010070D01*
X002514Y010030D02*
X002474Y010070D01*
X002394Y010070D01*
X002354Y010030D01*
X002354Y009870D01*
X002394Y009830D01*
X002474Y009830D01*
X002514Y009870D01*
X002257Y009870D02*
X002217Y009830D01*
X002137Y009830D01*
X002097Y009870D01*
X002137Y009950D02*
X002217Y009950D01*
X002257Y009910D01*
X002257Y009870D01*
X002137Y009950D02*
X002097Y009990D01*
X002097Y010030D01*
X002137Y010070D01*
X002217Y010070D01*
X002257Y010030D01*
X004812Y010030D02*
X004812Y009870D01*
X004852Y009830D01*
X004932Y009830D01*
X004972Y009870D01*
X004972Y010030D01*
X004932Y010070D01*
X004852Y010070D01*
X004812Y010030D01*
X005254Y009990D02*
X005334Y010070D01*
X005334Y009830D01*
X005254Y009830D02*
X005414Y009830D01*
X005512Y009870D02*
X005672Y010030D01*
X005672Y009870D01*
X005632Y009830D01*
X005552Y009830D01*
X005512Y009870D01*
X005512Y010030D01*
X005552Y010070D01*
X005632Y010070D01*
X005672Y010030D01*
X006362Y010030D02*
X006362Y009990D01*
X006402Y009950D01*
X006522Y009950D01*
X006522Y009870D02*
X006522Y010030D01*
X006482Y010070D01*
X006402Y010070D01*
X006362Y010030D01*
X006362Y009870D02*
X006402Y009830D01*
X006482Y009830D01*
X006522Y009870D01*
X007362Y009870D02*
X007362Y009910D01*
X007402Y009950D01*
X007482Y009950D01*
X007522Y009910D01*
X007522Y009870D01*
X007482Y009830D01*
X007402Y009830D01*
X007362Y009870D01*
X007402Y009950D02*
X007362Y009990D01*
X007362Y010030D01*
X007402Y010070D01*
X007482Y010070D01*
X007522Y010030D01*
X007522Y009990D01*
X007482Y009950D01*
X008362Y009870D02*
X008362Y009830D01*
X008362Y009870D02*
X008522Y010030D01*
X008522Y010070D01*
X008362Y010070D01*
X009362Y009950D02*
X009362Y009870D01*
X009402Y009830D01*
X009482Y009830D01*
X009522Y009870D01*
X009522Y009910D01*
X009482Y009950D01*
X009362Y009950D01*
X009442Y010030D01*
X009522Y010070D01*
X010362Y010070D02*
X010362Y009950D01*
X010442Y009990D01*
X010482Y009990D01*
X010522Y009950D01*
X010522Y009870D01*
X010482Y009830D01*
X010402Y009830D01*
X010362Y009870D01*
X010362Y010070D02*
X010522Y010070D01*
X011362Y009950D02*
X011522Y009950D01*
X011482Y009830D02*
X011482Y010070D01*
X011362Y009950D01*
X012362Y009870D02*
X012402Y009830D01*
X012482Y009830D01*
X012522Y009870D01*
X012522Y009910D01*
X012482Y009950D01*
X012442Y009950D01*
X012482Y009950D02*
X012522Y009990D01*
X012522Y010030D01*
X012482Y010070D01*
X012402Y010070D01*
X012362Y010030D01*
X013362Y010030D02*
X013402Y010070D01*
X013482Y010070D01*
X013522Y010030D01*
X013522Y009990D01*
X013362Y009830D01*
X013522Y009830D01*
X014204Y010070D02*
X014364Y010070D01*
X014284Y010070D02*
X014284Y009830D01*
X014462Y009830D02*
X014622Y010070D01*
X014462Y010070D02*
X014622Y009830D01*
X015204Y009830D02*
X015204Y010070D01*
X015324Y010070D01*
X015364Y010030D01*
X015364Y009950D01*
X015324Y009910D01*
X015204Y009910D01*
X015284Y009910D02*
X015364Y009830D01*
X015462Y009830D02*
X015622Y010070D01*
X015462Y010070D02*
X015622Y009830D01*
D12*
X015625Y009400D02*
X015875Y009400D01*
X015888Y009398D01*
X015900Y009393D01*
X015910Y009385D01*
X015918Y009375D01*
X015923Y009363D01*
X015925Y009350D01*
X015925Y008750D01*
X015923Y008737D01*
X015918Y008725D01*
X015910Y008715D01*
X015900Y008707D01*
X015888Y008702D01*
X015875Y008700D01*
X015625Y008700D01*
X015612Y008702D01*
X015600Y008707D01*
X015590Y008715D01*
X015582Y008725D01*
X015577Y008737D01*
X015575Y008750D01*
X015575Y009350D01*
X015577Y009363D01*
X015582Y009375D01*
X015590Y009385D01*
X015600Y009393D01*
X015612Y009398D01*
X015625Y009400D01*
X015525Y009350D02*
X015525Y008750D01*
X015523Y008737D01*
X015518Y008725D01*
X015510Y008715D01*
X015500Y008707D01*
X015488Y008702D01*
X015475Y008700D01*
X015225Y008700D01*
X015212Y008702D01*
X015200Y008707D01*
X015190Y008715D01*
X015182Y008725D01*
X015177Y008737D01*
X015175Y008750D01*
X015175Y009350D01*
X015177Y009363D01*
X015182Y009375D01*
X015190Y009385D01*
X015200Y009393D01*
X015212Y009398D01*
X015225Y009400D01*
X015475Y009400D01*
X015488Y009398D01*
X015500Y009393D01*
X015510Y009385D01*
X015518Y009375D01*
X015523Y009363D01*
X015525Y009350D01*
X014825Y009350D02*
X014825Y008750D01*
X014823Y008737D01*
X014818Y008725D01*
X014810Y008715D01*
X014800Y008707D01*
X014788Y008702D01*
X014775Y008700D01*
X014525Y008700D01*
X014512Y008702D01*
X014500Y008707D01*
X014490Y008715D01*
X014482Y008725D01*
X014477Y008737D01*
X014475Y008750D01*
X014475Y009350D01*
X014477Y009363D01*
X014482Y009375D01*
X014490Y009385D01*
X014500Y009393D01*
X014512Y009398D01*
X014525Y009400D01*
X014775Y009400D01*
X014788Y009398D01*
X014800Y009393D01*
X014810Y009385D01*
X014818Y009375D01*
X014823Y009363D01*
X014825Y009350D01*
X014025Y008850D02*
X014025Y008250D01*
X014023Y008237D01*
X014018Y008225D01*
X014010Y008215D01*
X014000Y008207D01*
X013988Y008202D01*
X013975Y008200D01*
X013725Y008200D01*
X013712Y008202D01*
X013700Y008207D01*
X013690Y008215D01*
X013682Y008225D01*
X013677Y008237D01*
X013675Y008250D01*
X013675Y008850D01*
X013677Y008863D01*
X013682Y008875D01*
X013690Y008885D01*
X013700Y008893D01*
X013712Y008898D01*
X013725Y008900D01*
X013975Y008900D01*
X013988Y008898D01*
X014000Y008893D01*
X014010Y008885D01*
X014018Y008875D01*
X014023Y008863D01*
X014025Y008850D01*
X014475Y008550D02*
X014475Y007950D01*
X014477Y007937D01*
X014482Y007925D01*
X014490Y007915D01*
X014500Y007907D01*
X014512Y007902D01*
X014525Y007900D01*
X014775Y007900D01*
X014788Y007902D01*
X014800Y007907D01*
X014810Y007915D01*
X014818Y007925D01*
X014823Y007937D01*
X014825Y007950D01*
X014825Y008550D01*
X014823Y008563D01*
X014818Y008575D01*
X014810Y008585D01*
X014800Y008593D01*
X014788Y008598D01*
X014775Y008600D01*
X014525Y008600D01*
X014512Y008598D01*
X014500Y008593D01*
X014490Y008585D01*
X014482Y008575D01*
X014477Y008563D01*
X014475Y008550D01*
X015175Y008550D02*
X015175Y007950D01*
X015177Y007937D01*
X015182Y007925D01*
X015190Y007915D01*
X015200Y007907D01*
X015212Y007902D01*
X015225Y007900D01*
X015475Y007900D01*
X015488Y007902D01*
X015500Y007907D01*
X015510Y007915D01*
X015518Y007925D01*
X015523Y007937D01*
X015525Y007950D01*
X015525Y008550D01*
X015523Y008563D01*
X015518Y008575D01*
X015510Y008585D01*
X015500Y008593D01*
X015488Y008598D01*
X015475Y008600D01*
X015225Y008600D01*
X015212Y008598D01*
X015200Y008593D01*
X015190Y008585D01*
X015182Y008575D01*
X015177Y008563D01*
X015175Y008550D01*
X015225Y007800D02*
X015475Y007800D01*
X015488Y007798D01*
X015500Y007793D01*
X015510Y007785D01*
X015518Y007775D01*
X015523Y007763D01*
X015525Y007750D01*
X015525Y007150D01*
X015523Y007137D01*
X015518Y007125D01*
X015510Y007115D01*
X015500Y007107D01*
X015488Y007102D01*
X015475Y007100D01*
X015225Y007100D01*
X015212Y007102D01*
X015200Y007107D01*
X015190Y007115D01*
X015182Y007125D01*
X015177Y007137D01*
X015175Y007150D01*
X015175Y007750D01*
X015177Y007763D01*
X015182Y007775D01*
X015190Y007785D01*
X015200Y007793D01*
X015212Y007798D01*
X015225Y007800D01*
X015225Y007000D02*
X015475Y007000D01*
X015488Y006998D01*
X015500Y006993D01*
X015510Y006985D01*
X015518Y006975D01*
X015523Y006963D01*
X015525Y006950D01*
X015525Y006350D01*
X015523Y006337D01*
X015518Y006325D01*
X015510Y006315D01*
X015500Y006307D01*
X015488Y006302D01*
X015475Y006300D01*
X015225Y006300D01*
X015212Y006302D01*
X015200Y006307D01*
X015190Y006315D01*
X015182Y006325D01*
X015177Y006337D01*
X015175Y006350D01*
X015175Y006950D01*
X015177Y006963D01*
X015182Y006975D01*
X015190Y006985D01*
X015200Y006993D01*
X015212Y006998D01*
X015225Y007000D01*
X015625Y006600D02*
X015875Y006600D01*
X015888Y006598D01*
X015900Y006593D01*
X015910Y006585D01*
X015918Y006575D01*
X015923Y006563D01*
X015925Y006550D01*
X015925Y005950D01*
X015923Y005937D01*
X015918Y005925D01*
X015910Y005915D01*
X015900Y005907D01*
X015888Y005902D01*
X015875Y005900D01*
X015625Y005900D01*
X015612Y005902D01*
X015600Y005907D01*
X015590Y005915D01*
X015582Y005925D01*
X015577Y005937D01*
X015575Y005950D01*
X015575Y006550D01*
X015577Y006563D01*
X015582Y006575D01*
X015590Y006585D01*
X015600Y006593D01*
X015612Y006598D01*
X015625Y006600D01*
X016815Y006872D02*
X016912Y006776D01*
X017105Y006776D01*
X016960Y006776D02*
X016960Y006969D01*
X016912Y006969D02*
X017105Y006969D01*
X017105Y007070D02*
X016815Y007070D01*
X016815Y007264D01*
X016960Y007167D02*
X016960Y007070D01*
X016912Y006969D02*
X016815Y006872D01*
X016075Y005800D02*
X015825Y005800D01*
X015812Y005798D01*
X015800Y005793D01*
X015790Y005785D01*
X015782Y005775D01*
X015777Y005763D01*
X015775Y005750D01*
X015775Y005150D01*
X015777Y005137D01*
X015782Y005125D01*
X015790Y005115D01*
X015800Y005107D01*
X015812Y005102D01*
X015825Y005100D01*
X016075Y005100D01*
X016088Y005102D01*
X016100Y005107D01*
X016110Y005115D01*
X016118Y005125D01*
X016123Y005137D01*
X016125Y005150D01*
X016125Y005750D01*
X016123Y005763D01*
X016118Y005775D01*
X016110Y005785D01*
X016100Y005793D01*
X016088Y005798D01*
X016075Y005800D01*
X015725Y005750D02*
X015725Y005150D01*
X015723Y005137D01*
X015718Y005125D01*
X015710Y005115D01*
X015700Y005107D01*
X015688Y005102D01*
X015675Y005100D01*
X015425Y005100D01*
X015412Y005102D01*
X015400Y005107D01*
X015390Y005115D01*
X015382Y005125D01*
X015377Y005137D01*
X015375Y005150D01*
X015375Y005750D01*
X015377Y005763D01*
X015382Y005775D01*
X015390Y005785D01*
X015400Y005793D01*
X015412Y005798D01*
X015425Y005800D01*
X015675Y005800D01*
X015688Y005798D01*
X015700Y005793D01*
X015710Y005785D01*
X015718Y005775D01*
X015723Y005763D01*
X015725Y005750D01*
X014025Y004450D02*
X014025Y003850D01*
X014023Y003837D01*
X014018Y003825D01*
X014010Y003815D01*
X014000Y003807D01*
X013988Y003802D01*
X013975Y003800D01*
X013725Y003800D01*
X013712Y003802D01*
X013700Y003807D01*
X013690Y003815D01*
X013682Y003825D01*
X013677Y003837D01*
X013675Y003850D01*
X013675Y004450D01*
X013677Y004463D01*
X013682Y004475D01*
X013690Y004485D01*
X013700Y004493D01*
X013712Y004498D01*
X013725Y004500D01*
X013975Y004500D01*
X013988Y004498D01*
X014000Y004493D01*
X014010Y004485D01*
X014018Y004475D01*
X014023Y004463D01*
X014025Y004450D01*
X013625Y004450D02*
X013625Y003850D01*
X013623Y003837D01*
X013618Y003825D01*
X013610Y003815D01*
X013600Y003807D01*
X013588Y003802D01*
X013575Y003800D01*
X013325Y003800D01*
X013312Y003802D01*
X013300Y003807D01*
X013290Y003815D01*
X013282Y003825D01*
X013277Y003837D01*
X013275Y003850D01*
X013275Y004450D01*
X013277Y004463D01*
X013282Y004475D01*
X013290Y004485D01*
X013300Y004493D01*
X013312Y004498D01*
X013325Y004500D01*
X013575Y004500D01*
X013588Y004498D01*
X013600Y004493D01*
X013610Y004485D01*
X013618Y004475D01*
X013623Y004463D01*
X013625Y004450D01*
X013050Y003625D02*
X012450Y003625D01*
X012437Y003623D01*
X012425Y003618D01*
X012415Y003610D01*
X012407Y003600D01*
X012402Y003588D01*
X012400Y003575D01*
X012400Y003325D01*
X012402Y003312D01*
X012407Y003300D01*
X012415Y003290D01*
X012425Y003282D01*
X012437Y003277D01*
X012450Y003275D01*
X013050Y003275D01*
X013063Y003277D01*
X013075Y003282D01*
X013085Y003290D01*
X013093Y003300D01*
X013098Y003312D01*
X013100Y003325D01*
X013100Y003575D01*
X013098Y003588D01*
X013093Y003600D01*
X013085Y003610D01*
X013075Y003618D01*
X013063Y003623D01*
X013050Y003625D01*
X011400Y003475D02*
X011400Y003225D01*
X011398Y003212D01*
X011393Y003200D01*
X011385Y003190D01*
X011375Y003182D01*
X011363Y003177D01*
X011350Y003175D01*
X010750Y003175D01*
X010737Y003177D01*
X010725Y003182D01*
X010715Y003190D01*
X010707Y003200D01*
X010702Y003212D01*
X010700Y003225D01*
X010700Y003475D01*
X010702Y003488D01*
X010707Y003500D01*
X010715Y003510D01*
X010725Y003518D01*
X010737Y003523D01*
X010750Y003525D01*
X011350Y003525D01*
X011363Y003523D01*
X011375Y003518D01*
X011385Y003510D01*
X011393Y003500D01*
X011398Y003488D01*
X011400Y003475D01*
X010600Y003475D02*
X010600Y003225D01*
X010598Y003212D01*
X010593Y003200D01*
X010585Y003190D01*
X010575Y003182D01*
X010563Y003177D01*
X010550Y003175D01*
X009950Y003175D01*
X009937Y003177D01*
X009925Y003182D01*
X009915Y003190D01*
X009907Y003200D01*
X009902Y003212D01*
X009900Y003225D01*
X009900Y003475D01*
X009902Y003488D01*
X009907Y003500D01*
X009915Y003510D01*
X009925Y003518D01*
X009937Y003523D01*
X009950Y003525D01*
X010550Y003525D01*
X010563Y003523D01*
X010575Y003518D01*
X010585Y003510D01*
X010593Y003500D01*
X010598Y003488D01*
X010600Y003475D01*
X009500Y003475D02*
X009500Y003225D01*
X009498Y003212D01*
X009493Y003200D01*
X009485Y003190D01*
X009475Y003182D01*
X009463Y003177D01*
X009450Y003175D01*
X008850Y003175D01*
X008837Y003177D01*
X008825Y003182D01*
X008815Y003190D01*
X008807Y003200D01*
X008802Y003212D01*
X008800Y003225D01*
X008800Y003475D01*
X008802Y003488D01*
X008807Y003500D01*
X008815Y003510D01*
X008825Y003518D01*
X008837Y003523D01*
X008850Y003525D01*
X009450Y003525D01*
X009463Y003523D01*
X009475Y003518D01*
X009485Y003510D01*
X009493Y003500D01*
X009498Y003488D01*
X009500Y003475D01*
X008700Y003475D02*
X008700Y003225D01*
X008698Y003212D01*
X008693Y003200D01*
X008685Y003190D01*
X008675Y003182D01*
X008663Y003177D01*
X008650Y003175D01*
X008050Y003175D01*
X008037Y003177D01*
X008025Y003182D01*
X008015Y003190D01*
X008007Y003200D01*
X008002Y003212D01*
X008000Y003225D01*
X008000Y003475D01*
X008002Y003488D01*
X008007Y003500D01*
X008015Y003510D01*
X008025Y003518D01*
X008037Y003523D01*
X008050Y003525D01*
X008650Y003525D01*
X008663Y003523D01*
X008675Y003518D01*
X008685Y003510D01*
X008693Y003500D01*
X008698Y003488D01*
X008700Y003475D01*
X007300Y003475D02*
X007300Y003225D01*
X007298Y003212D01*
X007293Y003200D01*
X007285Y003190D01*
X007275Y003182D01*
X007263Y003177D01*
X007250Y003175D01*
X006650Y003175D01*
X006637Y003177D01*
X006625Y003182D01*
X006615Y003190D01*
X006607Y003200D01*
X006602Y003212D01*
X006600Y003225D01*
X006600Y003475D01*
X006602Y003488D01*
X006607Y003500D01*
X006615Y003510D01*
X006625Y003518D01*
X006637Y003523D01*
X006650Y003525D01*
X007250Y003525D01*
X007263Y003523D01*
X007275Y003518D01*
X007285Y003510D01*
X007293Y003500D01*
X007298Y003488D01*
X007300Y003475D01*
X007250Y003675D02*
X006650Y003675D01*
X006637Y003677D01*
X006625Y003682D01*
X006615Y003690D01*
X006607Y003700D01*
X006602Y003712D01*
X006600Y003725D01*
X006600Y003975D01*
X006602Y003988D01*
X006607Y004000D01*
X006615Y004010D01*
X006625Y004018D01*
X006637Y004023D01*
X006650Y004025D01*
X007250Y004025D01*
X007263Y004023D01*
X007275Y004018D01*
X007285Y004010D01*
X007293Y004000D01*
X007298Y003988D01*
X007300Y003975D01*
X007300Y003725D01*
X007298Y003712D01*
X007293Y003700D01*
X007285Y003690D01*
X007275Y003682D01*
X007263Y003677D01*
X007250Y003675D01*
X007250Y004175D02*
X006650Y004175D01*
X006637Y004177D01*
X006625Y004182D01*
X006615Y004190D01*
X006607Y004200D01*
X006602Y004212D01*
X006600Y004225D01*
X006600Y004475D01*
X006602Y004488D01*
X006607Y004500D01*
X006615Y004510D01*
X006625Y004518D01*
X006637Y004523D01*
X006650Y004525D01*
X007250Y004525D01*
X007263Y004523D01*
X007275Y004518D01*
X007285Y004510D01*
X007293Y004500D01*
X007298Y004488D01*
X007300Y004475D01*
X007300Y004225D01*
X007298Y004212D01*
X007293Y004200D01*
X007285Y004190D01*
X007275Y004182D01*
X007263Y004177D01*
X007250Y004175D01*
X006400Y004625D02*
X006400Y004875D01*
X006398Y004888D01*
X006393Y004900D01*
X006385Y004910D01*
X006375Y004918D01*
X006363Y004923D01*
X006350Y004925D01*
X005750Y004925D01*
X005737Y004923D01*
X005725Y004918D01*
X005715Y004910D01*
X005707Y004900D01*
X005702Y004888D01*
X005700Y004875D01*
X005700Y004625D01*
X005702Y004612D01*
X005707Y004600D01*
X005715Y004590D01*
X005725Y004582D01*
X005737Y004577D01*
X005750Y004575D01*
X006350Y004575D01*
X006363Y004577D01*
X006375Y004582D01*
X006385Y004590D01*
X006393Y004600D01*
X006398Y004612D01*
X006400Y004625D01*
X005325Y004450D02*
X005325Y005050D01*
X005323Y005063D01*
X005318Y005075D01*
X005310Y005085D01*
X005300Y005093D01*
X005288Y005098D01*
X005275Y005100D01*
X005025Y005100D01*
X005012Y005098D01*
X005000Y005093D01*
X004990Y005085D01*
X004982Y005075D01*
X004977Y005063D01*
X004975Y005050D01*
X004975Y004450D01*
X004977Y004437D01*
X004982Y004425D01*
X004990Y004415D01*
X005000Y004407D01*
X005012Y004402D01*
X005025Y004400D01*
X005275Y004400D01*
X005288Y004402D01*
X005300Y004407D01*
X005310Y004415D01*
X005318Y004425D01*
X005323Y004437D01*
X005325Y004450D01*
X004765Y004130D02*
X004765Y003530D01*
X004763Y003517D01*
X004758Y003505D01*
X004750Y003495D01*
X004740Y003487D01*
X004728Y003482D01*
X004715Y003480D01*
X004465Y003480D01*
X004452Y003482D01*
X004440Y003487D01*
X004430Y003495D01*
X004422Y003505D01*
X004417Y003517D01*
X004415Y003530D01*
X004415Y004130D01*
X004417Y004143D01*
X004422Y004155D01*
X004430Y004165D01*
X004440Y004173D01*
X004452Y004178D01*
X004465Y004180D01*
X004715Y004180D01*
X004728Y004178D01*
X004740Y004173D01*
X004750Y004165D01*
X004758Y004155D01*
X004763Y004143D01*
X004765Y004130D01*
X004365Y004130D02*
X004365Y003530D01*
X004363Y003517D01*
X004358Y003505D01*
X004350Y003495D01*
X004340Y003487D01*
X004328Y003482D01*
X004315Y003480D01*
X004065Y003480D01*
X004052Y003482D01*
X004040Y003487D01*
X004030Y003495D01*
X004022Y003505D01*
X004017Y003517D01*
X004015Y003530D01*
X004015Y004130D01*
X004017Y004143D01*
X004022Y004155D01*
X004030Y004165D01*
X004040Y004173D01*
X004052Y004178D01*
X004065Y004180D01*
X004315Y004180D01*
X004328Y004178D01*
X004340Y004173D01*
X004350Y004165D01*
X004358Y004155D01*
X004363Y004143D01*
X004365Y004130D01*
X004250Y005975D02*
X004850Y005975D01*
X004863Y005977D01*
X004875Y005982D01*
X004885Y005990D01*
X004893Y006000D01*
X004898Y006012D01*
X004900Y006025D01*
X004900Y006275D01*
X004898Y006288D01*
X004893Y006300D01*
X004885Y006310D01*
X004875Y006318D01*
X004863Y006323D01*
X004850Y006325D01*
X004250Y006325D01*
X004237Y006323D01*
X004225Y006318D01*
X004215Y006310D01*
X004207Y006300D01*
X004202Y006288D01*
X004200Y006275D01*
X004200Y006025D01*
X004202Y006012D01*
X004207Y006000D01*
X004215Y005990D01*
X004225Y005982D01*
X004237Y005977D01*
X004250Y005975D01*
X004250Y006575D02*
X004850Y006575D01*
X004863Y006577D01*
X004875Y006582D01*
X004885Y006590D01*
X004893Y006600D01*
X004898Y006612D01*
X004900Y006625D01*
X004900Y006875D01*
X004898Y006888D01*
X004893Y006900D01*
X004885Y006910D01*
X004875Y006918D01*
X004863Y006923D01*
X004850Y006925D01*
X004250Y006925D01*
X004237Y006923D01*
X004225Y006918D01*
X004215Y006910D01*
X004207Y006900D01*
X004202Y006888D01*
X004200Y006875D01*
X004200Y006625D01*
X004202Y006612D01*
X004207Y006600D01*
X004215Y006590D01*
X004225Y006582D01*
X004237Y006577D01*
X004250Y006575D01*
X005700Y006625D02*
X005700Y006875D01*
X005702Y006888D01*
X005707Y006900D01*
X005715Y006910D01*
X005725Y006918D01*
X005737Y006923D01*
X005750Y006925D01*
X006350Y006925D01*
X006363Y006923D01*
X006375Y006918D01*
X006385Y006910D01*
X006393Y006900D01*
X006398Y006888D01*
X006400Y006875D01*
X006400Y006625D01*
X006398Y006612D01*
X006393Y006600D01*
X006385Y006590D01*
X006375Y006582D01*
X006363Y006577D01*
X006350Y006575D01*
X005750Y006575D01*
X005737Y006577D01*
X005725Y006582D01*
X005715Y006590D01*
X005707Y006600D01*
X005702Y006612D01*
X005700Y006625D01*
X005750Y007075D02*
X006350Y007075D01*
X006363Y007077D01*
X006375Y007082D01*
X006385Y007090D01*
X006393Y007100D01*
X006398Y007112D01*
X006400Y007125D01*
X006400Y007375D01*
X006398Y007388D01*
X006393Y007400D01*
X006385Y007410D01*
X006375Y007418D01*
X006363Y007423D01*
X006350Y007425D01*
X005750Y007425D01*
X005737Y007423D01*
X005725Y007418D01*
X005715Y007410D01*
X005707Y007400D01*
X005702Y007388D01*
X005700Y007375D01*
X005700Y007125D01*
X005702Y007112D01*
X005707Y007100D01*
X005715Y007090D01*
X005725Y007082D01*
X005737Y007077D01*
X005750Y007075D01*
X008200Y008025D02*
X008200Y008275D01*
X008202Y008288D01*
X008207Y008300D01*
X008215Y008310D01*
X008225Y008318D01*
X008237Y008323D01*
X008250Y008325D01*
X008850Y008325D01*
X008863Y008323D01*
X008875Y008318D01*
X008885Y008310D01*
X008893Y008300D01*
X008898Y008288D01*
X008900Y008275D01*
X008900Y008025D01*
X008898Y008012D01*
X008893Y008000D01*
X008885Y007990D01*
X008875Y007982D01*
X008863Y007977D01*
X008850Y007975D01*
X008250Y007975D01*
X008237Y007977D01*
X008225Y007982D01*
X008215Y007990D01*
X008207Y008000D01*
X008202Y008012D01*
X008200Y008025D01*
X009000Y008025D02*
X009000Y008275D01*
X009002Y008288D01*
X009007Y008300D01*
X009015Y008310D01*
X009025Y008318D01*
X009037Y008323D01*
X009050Y008325D01*
X009650Y008325D01*
X009663Y008323D01*
X009675Y008318D01*
X009685Y008310D01*
X009693Y008300D01*
X009698Y008288D01*
X009700Y008275D01*
X009700Y008025D01*
X009698Y008012D01*
X009693Y008000D01*
X009685Y007990D01*
X009675Y007982D01*
X009663Y007977D01*
X009650Y007975D01*
X009050Y007975D01*
X009037Y007977D01*
X009025Y007982D01*
X009015Y007990D01*
X009007Y008000D01*
X009002Y008012D01*
X009000Y008025D01*
X009525Y006940D02*
X009775Y006940D01*
X009788Y006938D01*
X009800Y006933D01*
X009810Y006925D01*
X009818Y006915D01*
X009823Y006903D01*
X009825Y006890D01*
X009825Y006290D01*
X009823Y006277D01*
X009818Y006265D01*
X009810Y006255D01*
X009800Y006247D01*
X009788Y006242D01*
X009775Y006240D01*
X009525Y006240D01*
X009512Y006242D01*
X009500Y006247D01*
X009490Y006255D01*
X009482Y006265D01*
X009477Y006277D01*
X009475Y006290D01*
X009475Y006890D01*
X009477Y006903D01*
X009482Y006915D01*
X009490Y006925D01*
X009500Y006933D01*
X009512Y006938D01*
X009525Y006940D01*
X010800Y007525D02*
X010800Y007775D01*
X010802Y007788D01*
X010807Y007800D01*
X010815Y007810D01*
X010825Y007818D01*
X010837Y007823D01*
X010850Y007825D01*
X011450Y007825D01*
X011463Y007823D01*
X011475Y007818D01*
X011485Y007810D01*
X011493Y007800D01*
X011498Y007788D01*
X011500Y007775D01*
X011500Y007525D01*
X011498Y007512D01*
X011493Y007500D01*
X011485Y007490D01*
X011475Y007482D01*
X011463Y007477D01*
X011450Y007475D01*
X010850Y007475D01*
X010837Y007477D01*
X010825Y007482D01*
X010815Y007490D01*
X010807Y007500D01*
X010802Y007512D01*
X010800Y007525D01*
X011600Y007175D02*
X011600Y006925D01*
X011602Y006912D01*
X011607Y006900D01*
X011615Y006890D01*
X011625Y006882D01*
X011637Y006877D01*
X011650Y006875D01*
X012250Y006875D01*
X012263Y006877D01*
X012275Y006882D01*
X012285Y006890D01*
X012293Y006900D01*
X012298Y006912D01*
X012300Y006925D01*
X012300Y007175D01*
X012298Y007188D01*
X012293Y007200D01*
X012285Y007210D01*
X012275Y007218D01*
X012263Y007223D01*
X012250Y007225D01*
X011650Y007225D01*
X011637Y007223D01*
X011625Y007218D01*
X011615Y007210D01*
X011607Y007200D01*
X011602Y007188D01*
X011600Y007175D01*
X011650Y006825D02*
X012250Y006825D01*
X012263Y006823D01*
X012275Y006818D01*
X012285Y006810D01*
X012293Y006800D01*
X012298Y006788D01*
X012300Y006775D01*
X012300Y006525D01*
X012298Y006512D01*
X012293Y006500D01*
X012285Y006490D01*
X012275Y006482D01*
X012263Y006477D01*
X012250Y006475D01*
X011650Y006475D01*
X011637Y006477D01*
X011625Y006482D01*
X011615Y006490D01*
X011607Y006500D01*
X011602Y006512D01*
X011600Y006525D01*
X011600Y006775D01*
X011602Y006788D01*
X011607Y006800D01*
X011615Y006810D01*
X011625Y006818D01*
X011637Y006823D01*
X011650Y006825D01*
X012225Y005720D02*
X012475Y005720D01*
X012488Y005718D01*
X012500Y005713D01*
X012510Y005705D01*
X012518Y005695D01*
X012523Y005683D01*
X012525Y005670D01*
X012525Y005070D01*
X012523Y005057D01*
X012518Y005045D01*
X012510Y005035D01*
X012500Y005027D01*
X012488Y005022D01*
X012475Y005020D01*
X012225Y005020D01*
X012212Y005022D01*
X012200Y005027D01*
X012190Y005035D01*
X012182Y005045D01*
X012177Y005057D01*
X012175Y005070D01*
X012175Y005670D01*
X012177Y005683D01*
X012182Y005695D01*
X012190Y005705D01*
X012200Y005713D01*
X012212Y005718D01*
X012225Y005720D01*
X011500Y005175D02*
X011500Y004925D01*
X011498Y004912D01*
X011493Y004900D01*
X011485Y004890D01*
X011475Y004882D01*
X011463Y004877D01*
X011450Y004875D01*
X010850Y004875D01*
X010837Y004877D01*
X010825Y004882D01*
X010815Y004890D01*
X010807Y004900D01*
X010802Y004912D01*
X010800Y004925D01*
X010800Y005175D01*
X010802Y005188D01*
X010807Y005200D01*
X010815Y005210D01*
X010825Y005218D01*
X010837Y005223D01*
X010850Y005225D01*
X011450Y005225D01*
X011463Y005223D01*
X011475Y005218D01*
X011485Y005210D01*
X011493Y005200D01*
X011498Y005188D01*
X011500Y005175D01*
X011350Y008275D02*
X011950Y008275D01*
X011963Y008277D01*
X011975Y008282D01*
X011985Y008290D01*
X011993Y008300D01*
X011998Y008312D01*
X012000Y008325D01*
X012000Y008575D01*
X011998Y008588D01*
X011993Y008600D01*
X011985Y008610D01*
X011975Y008618D01*
X011963Y008623D01*
X011950Y008625D01*
X011350Y008625D01*
X011337Y008623D01*
X011325Y008618D01*
X011315Y008610D01*
X011307Y008600D01*
X011302Y008588D01*
X011300Y008575D01*
X011300Y008325D01*
X011302Y008312D01*
X011307Y008300D01*
X011315Y008290D01*
X011325Y008282D01*
X011337Y008277D01*
X011350Y008275D01*
X011350Y008675D02*
X011950Y008675D01*
X011963Y008677D01*
X011975Y008682D01*
X011985Y008690D01*
X011993Y008700D01*
X011998Y008712D01*
X012000Y008725D01*
X012000Y008975D01*
X011998Y008988D01*
X011993Y009000D01*
X011985Y009010D01*
X011975Y009018D01*
X011963Y009023D01*
X011950Y009025D01*
X011350Y009025D01*
X011337Y009023D01*
X011325Y009018D01*
X011315Y009010D01*
X011307Y009000D01*
X011302Y008988D01*
X011300Y008975D01*
X011300Y008725D01*
X011302Y008712D01*
X011307Y008700D01*
X011315Y008690D01*
X011325Y008682D01*
X011337Y008677D01*
X011350Y008675D01*
X012075Y008950D02*
X012075Y008350D01*
X012077Y008337D01*
X012082Y008325D01*
X012090Y008315D01*
X012100Y008307D01*
X012112Y008302D01*
X012125Y008300D01*
X012375Y008300D01*
X012388Y008302D01*
X012400Y008307D01*
X012410Y008315D01*
X012418Y008325D01*
X012423Y008337D01*
X012425Y008350D01*
X012425Y008950D01*
X012423Y008963D01*
X012418Y008975D01*
X012410Y008985D01*
X012400Y008993D01*
X012388Y008998D01*
X012375Y009000D01*
X012125Y009000D01*
X012112Y008998D01*
X012100Y008993D01*
X012090Y008985D01*
X012082Y008975D01*
X012077Y008963D01*
X012075Y008950D01*
D13*
X004550Y007876D03*
X004550Y007424D03*
X004450Y005476D03*
X004450Y005024D03*
D14*
X003572Y005111D02*
X003572Y005584D01*
X003021Y005584D01*
X003021Y007316D01*
X003572Y007316D01*
X003572Y007789D01*
X001879Y007789D01*
X001879Y005111D01*
X001604Y005111D01*
X001604Y005269D01*
X001426Y005269D01*
X001426Y005268D02*
X001409Y005272D01*
X001394Y005280D01*
X001380Y005290D01*
X001368Y005302D01*
X001358Y005317D01*
X001351Y005333D01*
X001348Y005350D01*
X001347Y005367D01*
X001348Y005367D02*
X001348Y007552D01*
X001347Y007553D02*
X001351Y007570D01*
X001359Y007585D01*
X001369Y007599D01*
X001381Y007611D01*
X001396Y007621D01*
X001412Y007628D01*
X001429Y007631D01*
X001446Y007632D01*
X001446Y007631D02*
X001604Y007631D01*
X001604Y007789D01*
X001879Y007789D01*
X005223Y008399D02*
X005223Y009501D01*
X006877Y009501D01*
X006877Y008399D01*
X005223Y008399D01*
X005617Y008871D02*
X005617Y009029D01*
X005619Y009057D01*
X005624Y009085D01*
X005632Y009113D01*
X005644Y009139D01*
X005659Y009163D01*
X005676Y009185D01*
X005697Y009206D01*
X005719Y009223D01*
X005743Y009238D01*
X005769Y009250D01*
X005797Y009258D01*
X005825Y009263D01*
X005853Y009265D01*
X006247Y009265D01*
X006275Y009263D01*
X006303Y009258D01*
X006331Y009250D01*
X006357Y009238D01*
X006381Y009223D01*
X006403Y009206D01*
X006424Y009185D01*
X006441Y009163D01*
X006456Y009139D01*
X006468Y009113D01*
X006476Y009085D01*
X006481Y009057D01*
X006483Y009029D01*
X006483Y008871D01*
X006481Y008843D01*
X006476Y008815D01*
X006468Y008787D01*
X006456Y008761D01*
X006441Y008737D01*
X006424Y008715D01*
X006403Y008694D01*
X006381Y008677D01*
X006357Y008662D01*
X006331Y008650D01*
X006303Y008642D01*
X006275Y008637D01*
X006247Y008635D01*
X005853Y008635D01*
X005825Y008637D01*
X005797Y008642D01*
X005769Y008650D01*
X005743Y008662D01*
X005719Y008677D01*
X005697Y008694D01*
X005676Y008715D01*
X005659Y008737D01*
X005644Y008761D01*
X005632Y008787D01*
X005624Y008815D01*
X005619Y008843D01*
X005617Y008871D01*
X007088Y007500D02*
X007090Y007521D01*
X007096Y007540D01*
X007105Y007559D01*
X007117Y007575D01*
X007133Y007589D01*
X007150Y007600D01*
X007169Y007608D01*
X007190Y007612D01*
X007210Y007612D01*
X007231Y007608D01*
X007250Y007600D01*
X007267Y007589D01*
X007283Y007575D01*
X007295Y007559D01*
X007304Y007540D01*
X007310Y007521D01*
X007312Y007500D01*
X007310Y007479D01*
X007304Y007460D01*
X007295Y007441D01*
X007283Y007425D01*
X007267Y007411D01*
X007250Y007400D01*
X007231Y007392D01*
X007210Y007388D01*
X007190Y007388D01*
X007169Y007392D01*
X007150Y007400D01*
X007133Y007411D01*
X007117Y007425D01*
X007105Y007441D01*
X007096Y007460D01*
X007090Y007479D01*
X007088Y007500D01*
X006742Y006380D02*
X005758Y006380D01*
X005758Y005120D01*
X006742Y005120D01*
X006742Y006380D01*
X003572Y005111D02*
X001879Y005111D01*
X010766Y005385D02*
X011474Y005385D01*
X011474Y007315D01*
X010766Y007315D01*
X010766Y005385D01*
X012866Y005466D02*
X012866Y005623D01*
X012866Y005466D02*
X013023Y005466D01*
X012866Y005466D02*
X014834Y005466D01*
X014677Y005466D01*
X014834Y005466D02*
X014834Y005623D01*
X014834Y005466D02*
X014834Y007434D01*
X014834Y007277D01*
X014834Y007434D02*
X014677Y007434D01*
X014834Y007434D02*
X012866Y007434D01*
X012866Y005466D01*
X013102Y007159D02*
X013104Y007171D01*
X013109Y007182D01*
X013118Y007191D01*
X013129Y007196D01*
X013141Y007198D01*
X013153Y007196D01*
X013164Y007191D01*
X013173Y007182D01*
X013178Y007171D01*
X013180Y007159D01*
X013178Y007147D01*
X013173Y007136D01*
X013164Y007127D01*
X013153Y007122D01*
X013141Y007120D01*
X013129Y007122D01*
X013118Y007127D01*
X013109Y007136D01*
X013104Y007147D01*
X013102Y007159D01*
X012866Y007277D02*
X013023Y007434D01*
X012700Y007300D02*
X012700Y007800D01*
X011600Y007800D01*
X011600Y007300D01*
X012700Y007300D01*
X012558Y008320D02*
X012558Y009580D01*
X013542Y009580D01*
X013542Y008320D01*
X012558Y008320D01*
X012400Y009100D02*
X011300Y009100D01*
X011300Y009600D01*
X012400Y009600D01*
X012400Y009100D01*
D15*
X013161Y007356D03*
X013358Y007356D03*
X013555Y007356D03*
X013752Y007356D03*
X013948Y007356D03*
X014145Y007356D03*
X014342Y007356D03*
X014539Y007356D03*
X014539Y005544D03*
X014342Y005544D03*
X014145Y005544D03*
X013948Y005544D03*
X013752Y005544D03*
X013555Y005544D03*
X013358Y005544D03*
X013161Y005544D03*
D16*
X012944Y005761D03*
X012944Y005958D03*
X012944Y006155D03*
X012944Y006352D03*
X012944Y006548D03*
X012944Y006745D03*
X012944Y006942D03*
X012944Y007139D03*
X014756Y007139D03*
X014756Y006942D03*
X014756Y006745D03*
X014756Y006548D03*
X014756Y006352D03*
X014756Y006155D03*
X014756Y005958D03*
X014756Y005761D03*
D17*
X016300Y006600D02*
X016300Y008500D01*
X017200Y008500D02*
X017200Y006600D01*
X016900Y006850D02*
X016750Y006700D01*
X016600Y006850D01*
X016750Y006700D02*
X016750Y007050D01*
X005544Y005765D02*
X005544Y005135D01*
X005543Y005135D02*
X005538Y005119D01*
X005530Y005103D01*
X005520Y005089D01*
X005508Y005077D01*
X005493Y005067D01*
X005477Y005060D01*
X005460Y005056D01*
X005443Y005055D01*
X005425Y005057D01*
X004875Y005057D02*
X004857Y005055D01*
X004840Y005056D01*
X004823Y005060D01*
X004807Y005067D01*
X004792Y005077D01*
X004780Y005089D01*
X004770Y005103D01*
X004762Y005119D01*
X004757Y005135D01*
X004756Y005135D02*
X004756Y005765D01*
X004757Y005765D02*
X004762Y005781D01*
X004770Y005797D01*
X004780Y005811D01*
X004792Y005823D01*
X004807Y005833D01*
X004823Y005840D01*
X004840Y005844D01*
X004857Y005845D01*
X004875Y005843D01*
X005425Y005843D02*
X005443Y005845D01*
X005460Y005844D01*
X005477Y005840D01*
X005493Y005833D01*
X005508Y005823D01*
X005520Y005811D01*
X005530Y005797D01*
X005538Y005781D01*
X005543Y005765D01*
X003572Y005584D02*
X003572Y005111D01*
X002942Y005111D01*
X003021Y005584D02*
X003572Y005584D01*
X003021Y005584D02*
X003021Y007316D01*
X003572Y007316D01*
X003572Y007789D01*
X002942Y007789D01*
X001879Y007789D02*
X001879Y005111D01*
X001604Y005111D02*
X001367Y004875D01*
X001604Y007789D02*
X001367Y008025D01*
D18*
X002615Y004150D02*
X003370Y004150D01*
X003370Y003510D02*
X002615Y003510D01*
X008490Y003590D02*
X008490Y004710D01*
X009010Y004710D01*
X009010Y003590D01*
X008490Y003590D01*
X010290Y003590D02*
X010290Y004710D01*
X010810Y004710D01*
X010810Y003590D01*
X010290Y003590D01*
X009110Y008390D02*
X008590Y008390D01*
X008590Y009510D01*
X009110Y009510D01*
X009110Y008390D01*
D19*
X003510Y003830D03*
X002470Y003830D03*
D20*
X007325Y005643D02*
X007443Y005525D01*
X009057Y005525D02*
X009175Y005643D01*
X009175Y007257D02*
X009057Y007375D01*
X007443Y007375D02*
X007325Y007257D01*
D21*
X009245Y008580D03*
X008455Y008950D03*
X009245Y009320D03*
X009145Y004520D03*
X008355Y004150D03*
X009145Y003780D03*
X010155Y004150D03*
X010945Y003780D03*
X010945Y004520D03*
D22*
X013394Y003450D03*
X013906Y003450D03*
X006306Y003350D03*
X005794Y003350D03*
X005794Y003850D03*
X006306Y003850D03*
X006306Y004350D03*
X005794Y004350D03*
D23*
X005991Y004202D03*
X005991Y003998D03*
X005991Y003702D03*
X005991Y003498D03*
X005991Y003202D03*
X005991Y004498D03*
X013709Y003598D03*
X013709Y003302D03*
D24*
X013709Y003450D03*
X005991Y003350D03*
X005991Y003850D03*
X005991Y004350D03*
X005150Y003791D03*
D25*
X005150Y003594D03*
X005150Y004106D03*
D26*
X005002Y003791D03*
X005298Y003791D03*
D27*
X005450Y002450D03*
X004450Y002450D03*
X003450Y002450D03*
X002450Y002450D03*
X006450Y002450D03*
X007450Y002450D03*
X008450Y002450D03*
X009450Y002450D03*
X010450Y002450D03*
X011450Y002450D03*
X012450Y002450D03*
X013450Y002450D03*
X014450Y002450D03*
X015450Y002450D03*
X004450Y009450D03*
X003450Y009450D03*
X002450Y009450D03*
X002450Y010450D03*
X003450Y010450D03*
X004450Y010450D03*
X005450Y010450D03*
X006450Y010450D03*
X007450Y010450D03*
X008450Y010450D03*
X009450Y010450D03*
X010450Y010450D03*
X011450Y010450D03*
X012450Y010450D03*
X013450Y010450D03*
X014450Y010450D03*
X015450Y010450D03*
M02*
