G75*
%MOIN*%
%OFA0B0*%
%FSLAX24Y24*%
%IPPOS*%
%LPD*%
%AMOC8*
5,1,8,0,0,1.08239X$1,22.5*
%
%ADD10C,0.0100*%
%ADD11C,0.0125*%
%ADD12R,0.0394X0.0394*%
%ADD13R,0.0512X0.0512*%
%ADD14R,0.0315X0.0112*%
%ADD15R,0.0112X0.0315*%
%ADD16C,0.0088*%
%ADD17R,0.0866X0.0512*%
%ADD18R,0.0630X0.0710*%
%ADD19C,0.0059*%
%ADD20R,0.0200X0.0200*%
%ADD21R,0.0551X0.0394*%
%ADD22R,0.0315X0.0315*%
%ADD23R,0.0800X0.0800*%
%ADD24R,0.0098X0.0197*%
%ADD25R,0.0551X0.0138*%
%ADD26C,0.0175*%
D10*
X001820Y001850D02*
X017340Y001840D01*
X018270Y002770D01*
X018270Y010130D01*
X017350Y011050D01*
X001820Y011050D01*
X001820Y001850D01*
D11*
X003372Y004237D02*
X003498Y004237D01*
X003372Y004237D02*
X003372Y004363D01*
X003498Y004363D01*
X003498Y004237D01*
X003498Y004361D02*
X003372Y004361D01*
X003722Y004237D02*
X003848Y004237D01*
X003722Y004237D02*
X003722Y004363D01*
X003848Y004363D01*
X003848Y004237D01*
X003848Y004361D02*
X003722Y004361D01*
X003722Y004763D02*
X003848Y004763D01*
X003848Y004637D01*
X003722Y004637D01*
X003722Y004763D01*
X003722Y004761D02*
X003848Y004761D01*
X003498Y004763D02*
X003372Y004763D01*
X003498Y004763D02*
X003498Y004637D01*
X003372Y004637D01*
X003372Y004763D01*
X003372Y004761D02*
X003498Y004761D01*
X005087Y004862D02*
X005087Y004988D01*
X005213Y004988D01*
X005213Y004862D01*
X005087Y004862D01*
X005087Y004986D02*
X005213Y004986D01*
X005087Y004638D02*
X005087Y004512D01*
X005087Y004638D02*
X005213Y004638D01*
X005213Y004512D01*
X005087Y004512D01*
X005087Y004636D02*
X005213Y004636D01*
X005812Y005013D02*
X005938Y005013D01*
X005938Y004887D01*
X005812Y004887D01*
X005812Y005013D01*
X005812Y005011D02*
X005938Y005011D01*
X006162Y005013D02*
X006288Y005013D01*
X006288Y004887D01*
X006162Y004887D01*
X006162Y005013D01*
X006162Y005011D02*
X006288Y005011D01*
X006712Y004613D02*
X006838Y004613D01*
X006838Y004487D01*
X006712Y004487D01*
X006712Y004613D01*
X006712Y004611D02*
X006838Y004611D01*
X007062Y004613D02*
X007188Y004613D01*
X007188Y004487D01*
X007062Y004487D01*
X007062Y004613D01*
X007062Y004611D02*
X007188Y004611D01*
X007188Y004113D02*
X007062Y004113D01*
X007188Y004113D02*
X007188Y003987D01*
X007062Y003987D01*
X007062Y004113D01*
X007062Y004111D02*
X007188Y004111D01*
X006838Y004113D02*
X006712Y004113D01*
X006838Y004113D02*
X006838Y003987D01*
X006712Y003987D01*
X006712Y004113D01*
X006712Y004111D02*
X006838Y004111D01*
X006838Y003613D02*
X006712Y003613D01*
X006838Y003613D02*
X006838Y003487D01*
X006712Y003487D01*
X006712Y003613D01*
X006712Y003611D02*
X006838Y003611D01*
X007062Y003613D02*
X007188Y003613D01*
X007188Y003487D01*
X007062Y003487D01*
X007062Y003613D01*
X007062Y003611D02*
X007188Y003611D01*
X008112Y003513D02*
X008238Y003513D01*
X008238Y003387D01*
X008112Y003387D01*
X008112Y003513D01*
X008112Y003511D02*
X008238Y003511D01*
X008462Y003513D02*
X008588Y003513D01*
X008588Y003387D01*
X008462Y003387D01*
X008462Y003513D01*
X008462Y003511D02*
X008588Y003511D01*
X008912Y003513D02*
X009038Y003513D01*
X009038Y003387D01*
X008912Y003387D01*
X008912Y003513D01*
X008912Y003511D02*
X009038Y003511D01*
X009262Y003513D02*
X009388Y003513D01*
X009388Y003387D01*
X009262Y003387D01*
X009262Y003513D01*
X009262Y003511D02*
X009388Y003511D01*
X010012Y003513D02*
X010138Y003513D01*
X010138Y003387D01*
X010012Y003387D01*
X010012Y003513D01*
X010012Y003511D02*
X010138Y003511D01*
X010362Y003513D02*
X010488Y003513D01*
X010488Y003387D01*
X010362Y003387D01*
X010362Y003513D01*
X010362Y003511D02*
X010488Y003511D01*
X010812Y003513D02*
X010938Y003513D01*
X010938Y003387D01*
X010812Y003387D01*
X010812Y003513D01*
X010812Y003511D02*
X010938Y003511D01*
X011162Y003513D02*
X011288Y003513D01*
X011288Y003387D01*
X011162Y003387D01*
X011162Y003513D01*
X011162Y003511D02*
X011288Y003511D01*
X012512Y003563D02*
X012638Y003563D01*
X012638Y003437D01*
X012512Y003437D01*
X012512Y003563D01*
X012512Y003561D02*
X012638Y003561D01*
X012862Y003563D02*
X012988Y003563D01*
X012988Y003437D01*
X012862Y003437D01*
X012862Y003563D01*
X012862Y003561D02*
X012988Y003561D01*
X013513Y003912D02*
X013513Y004038D01*
X013513Y003912D02*
X013387Y003912D01*
X013387Y004038D01*
X013513Y004038D01*
X013513Y004036D02*
X013387Y004036D01*
X013513Y004262D02*
X013513Y004388D01*
X013513Y004262D02*
X013387Y004262D01*
X013387Y004388D01*
X013513Y004388D01*
X013513Y004386D02*
X013387Y004386D01*
X013913Y004388D02*
X013913Y004262D01*
X013787Y004262D01*
X013787Y004388D01*
X013913Y004388D01*
X013913Y004386D02*
X013787Y004386D01*
X013913Y004038D02*
X013913Y003912D01*
X013787Y003912D01*
X013787Y004038D01*
X013913Y004038D01*
X013913Y004036D02*
X013787Y004036D01*
X015273Y004982D02*
X015273Y005108D01*
X015273Y004982D02*
X015147Y004982D01*
X015147Y005108D01*
X015273Y005108D01*
X015273Y005106D02*
X015147Y005106D01*
X015273Y005332D02*
X015273Y005458D01*
X015273Y005332D02*
X015147Y005332D01*
X015147Y005458D01*
X015273Y005458D01*
X015273Y005456D02*
X015147Y005456D01*
X015683Y005448D02*
X015683Y005322D01*
X015557Y005322D01*
X015557Y005448D01*
X015683Y005448D01*
X015683Y005446D02*
X015557Y005446D01*
X016063Y005712D02*
X016063Y005838D01*
X016063Y005712D02*
X015937Y005712D01*
X015937Y005838D01*
X016063Y005838D01*
X016063Y005836D02*
X015937Y005836D01*
X016063Y006062D02*
X016063Y006188D01*
X016063Y006062D02*
X015937Y006062D01*
X015937Y006188D01*
X016063Y006188D01*
X016063Y006186D02*
X015937Y006186D01*
X015683Y005098D02*
X015683Y004972D01*
X015557Y004972D01*
X015557Y005098D01*
X015683Y005098D01*
X015683Y005096D02*
X015557Y005096D01*
X012287Y005132D02*
X012287Y005258D01*
X012413Y005258D01*
X012413Y005132D01*
X012287Y005132D01*
X012287Y005256D02*
X012413Y005256D01*
X012287Y005482D02*
X012287Y005608D01*
X012413Y005608D01*
X012413Y005482D01*
X012287Y005482D01*
X012287Y005606D02*
X012413Y005606D01*
X011388Y005087D02*
X011262Y005087D01*
X011262Y005213D01*
X011388Y005213D01*
X011388Y005087D01*
X011388Y005211D02*
X011262Y005211D01*
X011038Y005087D02*
X010912Y005087D01*
X010912Y005213D01*
X011038Y005213D01*
X011038Y005087D01*
X011038Y005211D02*
X010912Y005211D01*
X009713Y006352D02*
X009713Y006478D01*
X009713Y006352D02*
X009587Y006352D01*
X009587Y006478D01*
X009713Y006478D01*
X009713Y006476D02*
X009587Y006476D01*
X009713Y006702D02*
X009713Y006828D01*
X009713Y006702D02*
X009587Y006702D01*
X009587Y006828D01*
X009713Y006828D01*
X009713Y006826D02*
X009587Y006826D01*
X010812Y007487D02*
X010938Y007487D01*
X010812Y007487D02*
X010812Y007613D01*
X010938Y007613D01*
X010938Y007487D01*
X010938Y007611D02*
X010812Y007611D01*
X011162Y007487D02*
X011288Y007487D01*
X011162Y007487D02*
X011162Y007613D01*
X011288Y007613D01*
X011288Y007487D01*
X011288Y007611D02*
X011162Y007611D01*
X011712Y007113D02*
X011838Y007113D01*
X011838Y006987D01*
X011712Y006987D01*
X011712Y007113D01*
X011712Y007111D02*
X011838Y007111D01*
X012062Y007113D02*
X012188Y007113D01*
X012188Y006987D01*
X012062Y006987D01*
X012062Y007113D01*
X012062Y007111D02*
X012188Y007111D01*
X012188Y006713D02*
X012062Y006713D01*
X012188Y006713D02*
X012188Y006587D01*
X012062Y006587D01*
X012062Y006713D01*
X012062Y006711D02*
X012188Y006711D01*
X011838Y006713D02*
X011712Y006713D01*
X011838Y006713D02*
X011838Y006587D01*
X011712Y006587D01*
X011712Y006713D01*
X011712Y006711D02*
X011838Y006711D01*
X009588Y008213D02*
X009462Y008213D01*
X009588Y008213D02*
X009588Y008087D01*
X009462Y008087D01*
X009462Y008213D01*
X009462Y008211D02*
X009588Y008211D01*
X009238Y008213D02*
X009112Y008213D01*
X009238Y008213D02*
X009238Y008087D01*
X009112Y008087D01*
X009112Y008213D01*
X009112Y008211D02*
X009238Y008211D01*
X008788Y008213D02*
X008662Y008213D01*
X008788Y008213D02*
X008788Y008087D01*
X008662Y008087D01*
X008662Y008213D01*
X008662Y008211D02*
X008788Y008211D01*
X008438Y008213D02*
X008312Y008213D01*
X008438Y008213D02*
X008438Y008087D01*
X008312Y008087D01*
X008312Y008213D01*
X008312Y008211D02*
X008438Y008211D01*
X006318Y007273D02*
X006192Y007273D01*
X006318Y007273D02*
X006318Y007147D01*
X006192Y007147D01*
X006192Y007273D01*
X006192Y007271D02*
X006318Y007271D01*
X005968Y007273D02*
X005842Y007273D01*
X005968Y007273D02*
X005968Y007147D01*
X005842Y007147D01*
X005842Y007273D01*
X005842Y007271D02*
X005968Y007271D01*
X005968Y006737D02*
X005842Y006737D01*
X005842Y006863D01*
X005968Y006863D01*
X005968Y006737D01*
X005968Y006861D02*
X005842Y006861D01*
X006192Y006737D02*
X006318Y006737D01*
X006192Y006737D02*
X006192Y006863D01*
X006318Y006863D01*
X006318Y006737D01*
X006318Y006861D02*
X006192Y006861D01*
X004788Y006813D02*
X004662Y006813D01*
X004788Y006813D02*
X004788Y006687D01*
X004662Y006687D01*
X004662Y006813D01*
X004662Y006811D02*
X004788Y006811D01*
X004438Y006813D02*
X004312Y006813D01*
X004438Y006813D02*
X004438Y006687D01*
X004312Y006687D01*
X004312Y006813D01*
X004312Y006811D02*
X004438Y006811D01*
X004438Y006413D02*
X004312Y006413D01*
X004438Y006413D02*
X004438Y006287D01*
X004312Y006287D01*
X004312Y006413D01*
X004312Y006411D02*
X004438Y006411D01*
X004662Y006413D02*
X004788Y006413D01*
X004788Y006287D01*
X004662Y006287D01*
X004662Y006413D01*
X004662Y006411D02*
X004788Y006411D01*
X011213Y008612D02*
X011213Y008738D01*
X011213Y008612D02*
X011087Y008612D01*
X011087Y008738D01*
X011213Y008738D01*
X011213Y008736D02*
X011087Y008736D01*
X011213Y008962D02*
X011213Y009088D01*
X011213Y008962D02*
X011087Y008962D01*
X011087Y009088D01*
X011213Y009088D01*
X011213Y009086D02*
X011087Y009086D01*
X012213Y009078D02*
X012213Y008952D01*
X012087Y008952D01*
X012087Y009078D01*
X012213Y009078D01*
X012213Y009076D02*
X012087Y009076D01*
X012213Y008728D02*
X012213Y008602D01*
X012087Y008602D01*
X012087Y008728D01*
X012213Y008728D01*
X012213Y008726D02*
X012087Y008726D01*
X013987Y008738D02*
X013987Y008612D01*
X013987Y008738D02*
X014113Y008738D01*
X014113Y008612D01*
X013987Y008612D01*
X013987Y008736D02*
X014113Y008736D01*
X013987Y008962D02*
X013987Y009088D01*
X014113Y009088D01*
X014113Y008962D01*
X013987Y008962D01*
X013987Y009086D02*
X014113Y009086D01*
X014913Y009162D02*
X014913Y009288D01*
X014913Y009162D02*
X014787Y009162D01*
X014787Y009288D01*
X014913Y009288D01*
X014913Y009286D02*
X014787Y009286D01*
X014913Y008938D02*
X014913Y008812D01*
X014787Y008812D01*
X014787Y008938D01*
X014913Y008938D01*
X014913Y008936D02*
X014787Y008936D01*
X014913Y008488D02*
X014913Y008362D01*
X014787Y008362D01*
X014787Y008488D01*
X014913Y008488D01*
X014913Y008486D02*
X014787Y008486D01*
X014913Y008138D02*
X014913Y008012D01*
X014787Y008012D01*
X014787Y008138D01*
X014913Y008138D01*
X014913Y008136D02*
X014787Y008136D01*
X015587Y008162D02*
X015587Y008288D01*
X015713Y008288D01*
X015713Y008162D01*
X015587Y008162D01*
X015587Y008286D02*
X015713Y008286D01*
X016113Y008283D02*
X016113Y008157D01*
X015987Y008157D01*
X015987Y008283D01*
X016113Y008283D01*
X016113Y008281D02*
X015987Y008281D01*
X016113Y007933D02*
X016113Y007807D01*
X015987Y007807D01*
X015987Y007933D01*
X016113Y007933D01*
X016113Y007931D02*
X015987Y007931D01*
X015587Y007938D02*
X015587Y007812D01*
X015587Y007938D02*
X015713Y007938D01*
X015713Y007812D01*
X015587Y007812D01*
X015587Y007936D02*
X015713Y007936D01*
X015738Y007508D02*
X015612Y007508D01*
X015738Y007508D02*
X015738Y007382D01*
X015612Y007382D01*
X015612Y007508D01*
X015612Y007506D02*
X015738Y007506D01*
X015962Y007508D02*
X016088Y007508D01*
X016088Y007382D01*
X015962Y007382D01*
X015962Y007508D01*
X015962Y007506D02*
X016088Y007506D01*
D12*
X006837Y008635D03*
X006837Y009265D03*
X005263Y009265D03*
X005263Y008635D03*
X004944Y007200D03*
X004156Y007200D03*
X004450Y005844D03*
X004450Y005056D03*
D13*
X013535Y006135D03*
X014165Y006135D03*
X014165Y006765D03*
X013535Y006765D03*
D14*
X012866Y006745D03*
X012866Y006942D03*
X012866Y007139D03*
X012866Y006548D03*
X012866Y006352D03*
X012866Y006155D03*
X012866Y005958D03*
X012866Y005761D03*
X014834Y005761D03*
X014834Y005958D03*
X014834Y006155D03*
X014834Y006352D03*
X014834Y006548D03*
X014834Y006745D03*
X014834Y006942D03*
X014834Y007139D03*
D15*
X014539Y007434D03*
X014342Y007434D03*
X014145Y007434D03*
X013948Y007434D03*
X013752Y007434D03*
X013555Y007434D03*
X013358Y007434D03*
X013161Y007434D03*
X013161Y005466D03*
X013358Y005466D03*
X013555Y005466D03*
X013752Y005466D03*
X013948Y005466D03*
X014145Y005466D03*
X014342Y005466D03*
X014539Y005466D03*
D16*
X012581Y007681D02*
X012319Y007681D01*
X012581Y007681D02*
X012581Y007419D01*
X012319Y007419D01*
X012319Y007681D01*
X012319Y007506D02*
X012581Y007506D01*
X012581Y007593D02*
X012319Y007593D01*
X012319Y007680D02*
X012581Y007680D01*
X012581Y008281D02*
X012319Y008281D01*
X012581Y008281D02*
X012581Y008019D01*
X012319Y008019D01*
X012319Y008281D01*
X012319Y008106D02*
X012581Y008106D01*
X012581Y008193D02*
X012319Y008193D01*
X012319Y008280D02*
X012581Y008280D01*
X011981Y008281D02*
X011719Y008281D01*
X011981Y008281D02*
X011981Y008019D01*
X011719Y008019D01*
X011719Y008281D01*
X011719Y008106D02*
X011981Y008106D01*
X011981Y008193D02*
X011719Y008193D01*
X011719Y008280D02*
X011981Y008280D01*
X011781Y008619D02*
X011781Y008881D01*
X011781Y008619D02*
X011519Y008619D01*
X011519Y008881D01*
X011781Y008881D01*
X011781Y008706D02*
X011519Y008706D01*
X011519Y008793D02*
X011781Y008793D01*
X011781Y008880D02*
X011519Y008880D01*
X011781Y009219D02*
X011781Y009481D01*
X011781Y009219D02*
X011519Y009219D01*
X011519Y009481D01*
X011781Y009481D01*
X011781Y009306D02*
X011519Y009306D01*
X011519Y009393D02*
X011781Y009393D01*
X011781Y009480D02*
X011519Y009480D01*
X011719Y007681D02*
X011981Y007681D01*
X011981Y007419D01*
X011719Y007419D01*
X011719Y007681D01*
X011719Y007506D02*
X011981Y007506D01*
X011981Y007593D02*
X011719Y007593D01*
X011719Y007680D02*
X011981Y007680D01*
D17*
X011120Y007078D03*
X011120Y005622D03*
D18*
X003550Y003700D03*
X002430Y003700D03*
D19*
X007216Y005731D02*
X007434Y005731D01*
X007216Y005731D02*
X007216Y005791D01*
X007434Y005791D01*
X007434Y005731D01*
X007434Y005789D02*
X007216Y005789D01*
X007216Y005928D02*
X007434Y005928D01*
X007216Y005928D02*
X007216Y005988D01*
X007434Y005988D01*
X007434Y005928D01*
X007434Y005986D02*
X007216Y005986D01*
X007216Y006125D02*
X007434Y006125D01*
X007216Y006125D02*
X007216Y006185D01*
X007434Y006185D01*
X007434Y006125D01*
X007434Y006183D02*
X007216Y006183D01*
X007216Y006322D02*
X007434Y006322D01*
X007216Y006322D02*
X007216Y006382D01*
X007434Y006382D01*
X007434Y006322D01*
X007434Y006380D02*
X007216Y006380D01*
X007216Y006518D02*
X007434Y006518D01*
X007216Y006518D02*
X007216Y006578D01*
X007434Y006578D01*
X007434Y006518D01*
X007434Y006576D02*
X007216Y006576D01*
X007216Y006715D02*
X007434Y006715D01*
X007216Y006715D02*
X007216Y006775D01*
X007434Y006775D01*
X007434Y006715D01*
X007434Y006773D02*
X007216Y006773D01*
X007216Y006912D02*
X007434Y006912D01*
X007216Y006912D02*
X007216Y006972D01*
X007434Y006972D01*
X007434Y006912D01*
X007434Y006970D02*
X007216Y006970D01*
X007216Y007109D02*
X007434Y007109D01*
X007216Y007109D02*
X007216Y007169D01*
X007434Y007169D01*
X007434Y007109D01*
X007434Y007167D02*
X007216Y007167D01*
X007531Y007266D02*
X007591Y007266D01*
X007531Y007266D02*
X007531Y007484D01*
X007591Y007484D01*
X007591Y007266D01*
X007591Y007324D02*
X007531Y007324D01*
X007531Y007382D02*
X007591Y007382D01*
X007591Y007440D02*
X007531Y007440D01*
X007728Y007266D02*
X007788Y007266D01*
X007728Y007266D02*
X007728Y007484D01*
X007788Y007484D01*
X007788Y007266D01*
X007788Y007324D02*
X007728Y007324D01*
X007728Y007382D02*
X007788Y007382D01*
X007788Y007440D02*
X007728Y007440D01*
X007925Y007266D02*
X007985Y007266D01*
X007925Y007266D02*
X007925Y007484D01*
X007985Y007484D01*
X007985Y007266D01*
X007985Y007324D02*
X007925Y007324D01*
X007925Y007382D02*
X007985Y007382D01*
X007985Y007440D02*
X007925Y007440D01*
X008122Y007266D02*
X008182Y007266D01*
X008122Y007266D02*
X008122Y007484D01*
X008182Y007484D01*
X008182Y007266D01*
X008182Y007324D02*
X008122Y007324D01*
X008122Y007382D02*
X008182Y007382D01*
X008182Y007440D02*
X008122Y007440D01*
X008318Y007266D02*
X008378Y007266D01*
X008318Y007266D02*
X008318Y007484D01*
X008378Y007484D01*
X008378Y007266D01*
X008378Y007324D02*
X008318Y007324D01*
X008318Y007382D02*
X008378Y007382D01*
X008378Y007440D02*
X008318Y007440D01*
X008515Y007266D02*
X008575Y007266D01*
X008515Y007266D02*
X008515Y007484D01*
X008575Y007484D01*
X008575Y007266D01*
X008575Y007324D02*
X008515Y007324D01*
X008515Y007382D02*
X008575Y007382D01*
X008575Y007440D02*
X008515Y007440D01*
X008712Y007266D02*
X008772Y007266D01*
X008712Y007266D02*
X008712Y007484D01*
X008772Y007484D01*
X008772Y007266D01*
X008772Y007324D02*
X008712Y007324D01*
X008712Y007382D02*
X008772Y007382D01*
X008772Y007440D02*
X008712Y007440D01*
X008909Y007266D02*
X008969Y007266D01*
X008909Y007266D02*
X008909Y007484D01*
X008969Y007484D01*
X008969Y007266D01*
X008969Y007324D02*
X008909Y007324D01*
X008909Y007382D02*
X008969Y007382D01*
X008969Y007440D02*
X008909Y007440D01*
X009066Y007109D02*
X009284Y007109D01*
X009066Y007109D02*
X009066Y007169D01*
X009284Y007169D01*
X009284Y007109D01*
X009284Y007167D02*
X009066Y007167D01*
X009066Y006912D02*
X009284Y006912D01*
X009066Y006912D02*
X009066Y006972D01*
X009284Y006972D01*
X009284Y006912D01*
X009284Y006970D02*
X009066Y006970D01*
X009066Y006715D02*
X009284Y006715D01*
X009066Y006715D02*
X009066Y006775D01*
X009284Y006775D01*
X009284Y006715D01*
X009284Y006773D02*
X009066Y006773D01*
X009066Y006518D02*
X009284Y006518D01*
X009066Y006518D02*
X009066Y006578D01*
X009284Y006578D01*
X009284Y006518D01*
X009284Y006576D02*
X009066Y006576D01*
X009066Y006322D02*
X009284Y006322D01*
X009066Y006322D02*
X009066Y006382D01*
X009284Y006382D01*
X009284Y006322D01*
X009284Y006380D02*
X009066Y006380D01*
X009066Y006125D02*
X009284Y006125D01*
X009066Y006125D02*
X009066Y006185D01*
X009284Y006185D01*
X009284Y006125D01*
X009284Y006183D02*
X009066Y006183D01*
X009066Y005928D02*
X009284Y005928D01*
X009066Y005928D02*
X009066Y005988D01*
X009284Y005988D01*
X009284Y005928D01*
X009284Y005986D02*
X009066Y005986D01*
X009066Y005731D02*
X009284Y005731D01*
X009066Y005731D02*
X009066Y005791D01*
X009284Y005791D01*
X009284Y005731D01*
X009284Y005789D02*
X009066Y005789D01*
X008969Y005416D02*
X008909Y005416D01*
X008909Y005634D01*
X008969Y005634D01*
X008969Y005416D01*
X008969Y005474D02*
X008909Y005474D01*
X008909Y005532D02*
X008969Y005532D01*
X008969Y005590D02*
X008909Y005590D01*
X008772Y005416D02*
X008712Y005416D01*
X008712Y005634D01*
X008772Y005634D01*
X008772Y005416D01*
X008772Y005474D02*
X008712Y005474D01*
X008712Y005532D02*
X008772Y005532D01*
X008772Y005590D02*
X008712Y005590D01*
X008575Y005416D02*
X008515Y005416D01*
X008515Y005634D01*
X008575Y005634D01*
X008575Y005416D01*
X008575Y005474D02*
X008515Y005474D01*
X008515Y005532D02*
X008575Y005532D01*
X008575Y005590D02*
X008515Y005590D01*
X008378Y005416D02*
X008318Y005416D01*
X008318Y005634D01*
X008378Y005634D01*
X008378Y005416D01*
X008378Y005474D02*
X008318Y005474D01*
X008318Y005532D02*
X008378Y005532D01*
X008378Y005590D02*
X008318Y005590D01*
X008182Y005416D02*
X008122Y005416D01*
X008122Y005634D01*
X008182Y005634D01*
X008182Y005416D01*
X008182Y005474D02*
X008122Y005474D01*
X008122Y005532D02*
X008182Y005532D01*
X008182Y005590D02*
X008122Y005590D01*
X007985Y005416D02*
X007925Y005416D01*
X007925Y005634D01*
X007985Y005634D01*
X007985Y005416D01*
X007985Y005474D02*
X007925Y005474D01*
X007925Y005532D02*
X007985Y005532D01*
X007985Y005590D02*
X007925Y005590D01*
X007788Y005416D02*
X007728Y005416D01*
X007728Y005634D01*
X007788Y005634D01*
X007788Y005416D01*
X007788Y005474D02*
X007728Y005474D01*
X007728Y005532D02*
X007788Y005532D01*
X007788Y005590D02*
X007728Y005590D01*
X007591Y005416D02*
X007531Y005416D01*
X007531Y005634D01*
X007591Y005634D01*
X007591Y005416D01*
X007591Y005474D02*
X007531Y005474D01*
X007531Y005532D02*
X007591Y005532D01*
X007591Y005590D02*
X007531Y005590D01*
D20*
X007900Y006100D03*
X008250Y006100D03*
X008600Y006100D03*
X008600Y006450D03*
X008600Y006800D03*
X008250Y006800D03*
X008250Y006450D03*
X007900Y006450D03*
X007900Y006800D03*
D21*
X009283Y008576D03*
X008417Y008950D03*
X009283Y009324D03*
X009183Y004624D03*
X009183Y003876D03*
X008317Y004250D03*
X010117Y004250D03*
X010983Y003876D03*
X010983Y004624D03*
D22*
X013355Y003500D03*
X013945Y003500D03*
X006345Y003550D03*
X005755Y003550D03*
X005150Y003555D03*
X005755Y004050D03*
X006345Y004050D03*
X006345Y004550D03*
X005755Y004550D03*
X005150Y004145D03*
D23*
X005150Y005450D03*
D24*
X015846Y006490D03*
X016043Y006490D03*
X016239Y006490D03*
X016239Y006805D03*
X016043Y006805D03*
X015846Y006805D03*
D25*
X003493Y006706D03*
X003493Y006450D03*
X003493Y006194D03*
X003493Y005938D03*
X003493Y006962D03*
D26*
X005938Y006518D02*
X005938Y006242D01*
X005762Y006242D01*
X005762Y006518D01*
X005938Y006518D01*
X005938Y006416D02*
X005762Y006416D01*
X006738Y006518D02*
X006738Y006242D01*
X006562Y006242D01*
X006562Y006518D01*
X006738Y006518D01*
X006738Y006416D02*
X006562Y006416D01*
X006738Y005518D02*
X006738Y005242D01*
X006562Y005242D01*
X006562Y005518D01*
X006738Y005518D01*
X006738Y005416D02*
X006562Y005416D01*
X005938Y005518D02*
X005938Y005242D01*
X005762Y005242D01*
X005762Y005518D01*
X005938Y005518D01*
X005938Y005416D02*
X005762Y005416D01*
X012472Y008738D02*
X012748Y008738D01*
X012748Y008562D01*
X012472Y008562D01*
X012472Y008738D01*
X012472Y008736D02*
X012748Y008736D01*
X013472Y008738D02*
X013748Y008738D01*
X013748Y008562D01*
X013472Y008562D01*
X013472Y008738D01*
X013472Y008736D02*
X013748Y008736D01*
X013748Y009538D02*
X013472Y009538D01*
X013748Y009538D02*
X013748Y009362D01*
X013472Y009362D01*
X013472Y009538D01*
X013472Y009536D02*
X013748Y009536D01*
X012748Y009538D02*
X012472Y009538D01*
X012748Y009538D02*
X012748Y009362D01*
X012472Y009362D01*
X012472Y009538D01*
X012472Y009536D02*
X012748Y009536D01*
M02*
