G75*
G70*
%OFA0B0*%
%FSLAX24Y24*%
%IPPOS*%
%LPD*%
%AMOC8*
5,1,8,0,0,1.08239X$1,22.5*
%
%ADD10C,0.0100*%
%ADD11C,0.0125*%
%ADD12R,0.0394X0.0472*%
%ADD13R,0.0217X0.0472*%
%ADD14R,0.0310X0.0350*%
%ADD15R,0.0551X0.0630*%
%ADD16R,0.0413X0.0512*%
%ADD17C,0.0500*%
%ADD18C,0.0087*%
%ADD19R,0.0880X0.0480*%
%ADD20R,0.0866X0.1417*%
%ADD21R,0.0327X0.0248*%
D10*
X001820Y001850D02*
X016150Y001840D01*
X016150Y004250D01*
X017550Y005650D01*
X017550Y009850D01*
X017530Y009870D02*
X016350Y011050D01*
X001820Y011060D01*
X001820Y001850D01*
D11*
X004712Y005387D02*
X004838Y005387D01*
X004712Y005387D02*
X004712Y005513D01*
X004838Y005513D01*
X004838Y005387D01*
X004838Y005511D02*
X004712Y005511D01*
X005062Y005387D02*
X005188Y005387D01*
X005062Y005387D02*
X005062Y005513D01*
X005188Y005513D01*
X005188Y005387D01*
X005188Y005511D02*
X005062Y005511D01*
X005512Y005513D02*
X005638Y005513D01*
X005638Y005387D01*
X005512Y005387D01*
X005512Y005513D01*
X005512Y005511D02*
X005638Y005511D01*
X005862Y005513D02*
X005988Y005513D01*
X005988Y005387D01*
X005862Y005387D01*
X005862Y005513D01*
X005862Y005511D02*
X005988Y005511D01*
X005938Y007743D02*
X005812Y007743D01*
X005938Y007743D02*
X005938Y007617D01*
X005812Y007617D01*
X005812Y007743D01*
X005812Y007741D02*
X005938Y007741D01*
X006162Y007743D02*
X006288Y007743D01*
X006288Y007617D01*
X006162Y007617D01*
X006162Y007743D01*
X006162Y007741D02*
X006288Y007741D01*
X009013Y008892D02*
X009013Y009018D01*
X009013Y008892D02*
X008887Y008892D01*
X008887Y009018D01*
X009013Y009018D01*
X009013Y009016D02*
X008887Y009016D01*
X009013Y009242D02*
X009013Y009368D01*
X009013Y009242D02*
X008887Y009242D01*
X008887Y009368D01*
X009013Y009368D01*
X009013Y009366D02*
X008887Y009366D01*
X010013Y009368D02*
X010013Y009242D01*
X009887Y009242D01*
X009887Y009368D01*
X010013Y009368D01*
X010013Y009366D02*
X009887Y009366D01*
X010413Y009368D02*
X010413Y009242D01*
X010287Y009242D01*
X010287Y009368D01*
X010413Y009368D01*
X010413Y009366D02*
X010287Y009366D01*
X010413Y009018D02*
X010413Y008892D01*
X010287Y008892D01*
X010287Y009018D01*
X010413Y009018D01*
X010413Y009016D02*
X010287Y009016D01*
X010013Y009018D02*
X010013Y008892D01*
X009887Y008892D01*
X009887Y009018D01*
X010013Y009018D01*
X010013Y009016D02*
X009887Y009016D01*
X010287Y008488D02*
X010287Y008362D01*
X010287Y008488D02*
X010413Y008488D01*
X010413Y008362D01*
X010287Y008362D01*
X010287Y008486D02*
X010413Y008486D01*
X010287Y008138D02*
X010287Y008012D01*
X010287Y008138D02*
X010413Y008138D01*
X010413Y008012D01*
X010287Y008012D01*
X010287Y008136D02*
X010413Y008136D01*
X012013Y008112D02*
X012013Y008238D01*
X012013Y008112D02*
X011887Y008112D01*
X011887Y008238D01*
X012013Y008238D01*
X012013Y008236D02*
X011887Y008236D01*
X012013Y008462D02*
X012013Y008588D01*
X012013Y008462D02*
X011887Y008462D01*
X011887Y008588D01*
X012013Y008588D01*
X012013Y008586D02*
X011887Y008586D01*
X012913Y008588D02*
X012913Y008462D01*
X012787Y008462D01*
X012787Y008588D01*
X012913Y008588D01*
X012913Y008586D02*
X012787Y008586D01*
X012913Y008238D02*
X012913Y008112D01*
X012787Y008112D01*
X012787Y008238D01*
X012913Y008238D01*
X012913Y008236D02*
X012787Y008236D01*
X012862Y007513D02*
X012988Y007513D01*
X012988Y007387D01*
X012862Y007387D01*
X012862Y007513D01*
X012862Y007511D02*
X012988Y007511D01*
X012638Y007513D02*
X012512Y007513D01*
X012638Y007513D02*
X012638Y007387D01*
X012512Y007387D01*
X012512Y007513D01*
X012512Y007511D02*
X012638Y007511D01*
X014512Y006407D02*
X014638Y006407D01*
X014512Y006407D02*
X014512Y006533D01*
X014638Y006533D01*
X014638Y006407D01*
X014638Y006531D02*
X014512Y006531D01*
X014862Y006407D02*
X014988Y006407D01*
X014862Y006407D02*
X014862Y006533D01*
X014988Y006533D01*
X014988Y006407D01*
X014988Y006531D02*
X014862Y006531D01*
X013913Y006088D02*
X013913Y005962D01*
X013787Y005962D01*
X013787Y006088D01*
X013913Y006088D01*
X013913Y006086D02*
X013787Y006086D01*
X013913Y005738D02*
X013913Y005612D01*
X013787Y005612D01*
X013787Y005738D01*
X013913Y005738D01*
X013913Y005736D02*
X013787Y005736D01*
X009818Y003657D02*
X009692Y003657D01*
X009692Y003783D01*
X009818Y003783D01*
X009818Y003657D01*
X009818Y003781D02*
X009692Y003781D01*
X009468Y003657D02*
X009342Y003657D01*
X009342Y003783D01*
X009468Y003783D01*
X009468Y003657D01*
X009468Y003781D02*
X009342Y003781D01*
D12*
X005550Y006017D03*
X005550Y006883D03*
D13*
X013276Y007838D03*
X014024Y007838D03*
X014024Y008862D03*
X013650Y008862D03*
X013276Y008862D03*
D14*
X014860Y005950D03*
X014480Y005150D03*
X015240Y005150D03*
X015220Y004350D03*
X014460Y004350D03*
X014840Y003550D03*
D15*
X012681Y006730D03*
X011579Y006730D03*
X003841Y003810D03*
X002739Y003810D03*
D16*
X010786Y008297D03*
X011514Y008297D03*
X011514Y009203D03*
X010786Y009203D03*
D17*
X008000Y006450D02*
X008002Y006481D01*
X008008Y006512D01*
X008018Y006542D01*
X008031Y006570D01*
X008048Y006597D01*
X008068Y006621D01*
X008091Y006643D01*
X008116Y006661D01*
X008144Y006676D01*
X008173Y006688D01*
X008203Y006696D01*
X008234Y006700D01*
X008266Y006700D01*
X008297Y006696D01*
X008327Y006688D01*
X008356Y006676D01*
X008384Y006661D01*
X008409Y006643D01*
X008432Y006621D01*
X008452Y006597D01*
X008469Y006570D01*
X008482Y006542D01*
X008492Y006512D01*
X008498Y006481D01*
X008500Y006450D01*
X008498Y006419D01*
X008492Y006388D01*
X008482Y006358D01*
X008469Y006330D01*
X008452Y006303D01*
X008432Y006279D01*
X008409Y006257D01*
X008384Y006239D01*
X008356Y006224D01*
X008327Y006212D01*
X008297Y006204D01*
X008266Y006200D01*
X008234Y006200D01*
X008203Y006204D01*
X008173Y006212D01*
X008144Y006224D01*
X008116Y006239D01*
X008091Y006257D01*
X008068Y006279D01*
X008048Y006303D01*
X008031Y006330D01*
X008018Y006358D01*
X008008Y006388D01*
X008002Y006419D01*
X008000Y006450D01*
D18*
X007264Y007142D02*
X007118Y007288D01*
X007134Y007304D01*
X007280Y007158D01*
X007264Y007142D01*
X007210Y007228D02*
X007178Y007228D01*
X007257Y007427D02*
X007403Y007281D01*
X007257Y007427D02*
X007273Y007443D01*
X007419Y007297D01*
X007403Y007281D01*
X007349Y007367D02*
X007317Y007367D01*
X007396Y007566D02*
X007542Y007420D01*
X007396Y007566D02*
X007412Y007582D01*
X007558Y007436D01*
X007542Y007420D01*
X007488Y007506D02*
X007456Y007506D01*
X007536Y007705D02*
X007682Y007559D01*
X007536Y007705D02*
X007552Y007721D01*
X007698Y007575D01*
X007682Y007559D01*
X007628Y007645D02*
X007596Y007645D01*
X007675Y007844D02*
X007821Y007698D01*
X007675Y007844D02*
X007691Y007860D01*
X007837Y007714D01*
X007821Y007698D01*
X007767Y007784D02*
X007735Y007784D01*
X007814Y007983D02*
X007960Y007837D01*
X007814Y007983D02*
X007830Y007999D01*
X007976Y007853D01*
X007960Y007837D01*
X007906Y007923D02*
X007874Y007923D01*
X007953Y008123D02*
X008099Y007977D01*
X007953Y008123D02*
X007969Y008139D01*
X008115Y007993D01*
X008099Y007977D01*
X008045Y008063D02*
X008013Y008063D01*
X008385Y007993D02*
X008531Y008139D01*
X008547Y008123D01*
X008401Y007977D01*
X008385Y007993D01*
X008455Y008063D02*
X008487Y008063D01*
X008670Y007999D02*
X008524Y007853D01*
X008670Y007999D02*
X008686Y007983D01*
X008540Y007837D01*
X008524Y007853D01*
X008594Y007923D02*
X008626Y007923D01*
X008809Y007860D02*
X008663Y007714D01*
X008809Y007860D02*
X008825Y007844D01*
X008679Y007698D01*
X008663Y007714D01*
X008733Y007784D02*
X008765Y007784D01*
X008948Y007721D02*
X008802Y007575D01*
X008948Y007721D02*
X008964Y007705D01*
X008818Y007559D01*
X008802Y007575D01*
X008872Y007645D02*
X008904Y007645D01*
X009088Y007582D02*
X008942Y007436D01*
X009088Y007582D02*
X009104Y007566D01*
X008958Y007420D01*
X008942Y007436D01*
X009012Y007506D02*
X009044Y007506D01*
X009227Y007443D02*
X009081Y007297D01*
X009227Y007443D02*
X009243Y007427D01*
X009097Y007281D01*
X009081Y007297D01*
X009151Y007367D02*
X009183Y007367D01*
X009366Y007304D02*
X009220Y007158D01*
X009366Y007304D02*
X009382Y007288D01*
X009236Y007142D01*
X009220Y007158D01*
X009290Y007228D02*
X009322Y007228D01*
X009505Y007164D02*
X009359Y007018D01*
X009505Y007164D02*
X009521Y007148D01*
X009375Y007002D01*
X009359Y007018D01*
X009429Y007088D02*
X009461Y007088D01*
X009644Y007025D02*
X009498Y006879D01*
X009644Y007025D02*
X009660Y007009D01*
X009514Y006863D01*
X009498Y006879D01*
X009568Y006949D02*
X009600Y006949D01*
X009784Y006886D02*
X009638Y006740D01*
X009784Y006886D02*
X009800Y006870D01*
X009654Y006724D01*
X009638Y006740D01*
X009708Y006810D02*
X009740Y006810D01*
X009923Y006747D02*
X009777Y006601D01*
X009923Y006747D02*
X009939Y006731D01*
X009793Y006585D01*
X009777Y006601D01*
X009847Y006671D02*
X009879Y006671D01*
X009793Y006315D02*
X009939Y006169D01*
X009923Y006153D01*
X009777Y006299D01*
X009793Y006315D01*
X009837Y006239D02*
X009869Y006239D01*
X009800Y006030D02*
X009654Y006176D01*
X009800Y006030D02*
X009784Y006014D01*
X009638Y006160D01*
X009654Y006176D01*
X009698Y006100D02*
X009730Y006100D01*
X009660Y005891D02*
X009514Y006037D01*
X009660Y005891D02*
X009644Y005875D01*
X009498Y006021D01*
X009514Y006037D01*
X009558Y005961D02*
X009590Y005961D01*
X009521Y005752D02*
X009375Y005898D01*
X009521Y005752D02*
X009505Y005736D01*
X009359Y005882D01*
X009375Y005898D01*
X009419Y005822D02*
X009451Y005822D01*
X009382Y005612D02*
X009236Y005758D01*
X009382Y005612D02*
X009366Y005596D01*
X009220Y005742D01*
X009236Y005758D01*
X009280Y005682D02*
X009312Y005682D01*
X009243Y005473D02*
X009097Y005619D01*
X009243Y005473D02*
X009227Y005457D01*
X009081Y005603D01*
X009097Y005619D01*
X009141Y005543D02*
X009173Y005543D01*
X009104Y005334D02*
X008958Y005480D01*
X009104Y005334D02*
X009088Y005318D01*
X008942Y005464D01*
X008958Y005480D01*
X009002Y005404D02*
X009034Y005404D01*
X008964Y005195D02*
X008818Y005341D01*
X008964Y005195D02*
X008948Y005179D01*
X008802Y005325D01*
X008818Y005341D01*
X008862Y005265D02*
X008894Y005265D01*
X008825Y005056D02*
X008679Y005202D01*
X008825Y005056D02*
X008809Y005040D01*
X008663Y005186D01*
X008679Y005202D01*
X008723Y005126D02*
X008755Y005126D01*
X008686Y004916D02*
X008540Y005062D01*
X008686Y004916D02*
X008670Y004900D01*
X008524Y005046D01*
X008540Y005062D01*
X008584Y004986D02*
X008616Y004986D01*
X008547Y004777D02*
X008401Y004923D01*
X008547Y004777D02*
X008531Y004761D01*
X008385Y004907D01*
X008401Y004923D01*
X008445Y004847D02*
X008477Y004847D01*
X008115Y004907D02*
X007969Y004761D01*
X007953Y004777D01*
X008099Y004923D01*
X008115Y004907D01*
X008055Y004847D02*
X008023Y004847D01*
X007830Y004900D02*
X007976Y005046D01*
X007830Y004900D02*
X007814Y004916D01*
X007960Y005062D01*
X007976Y005046D01*
X007916Y004986D02*
X007884Y004986D01*
X007691Y005040D02*
X007837Y005186D01*
X007691Y005040D02*
X007675Y005056D01*
X007821Y005202D01*
X007837Y005186D01*
X007777Y005126D02*
X007745Y005126D01*
X007552Y005179D02*
X007698Y005325D01*
X007552Y005179D02*
X007536Y005195D01*
X007682Y005341D01*
X007698Y005325D01*
X007638Y005265D02*
X007606Y005265D01*
X007412Y005318D02*
X007558Y005464D01*
X007412Y005318D02*
X007396Y005334D01*
X007542Y005480D01*
X007558Y005464D01*
X007498Y005404D02*
X007466Y005404D01*
X007273Y005457D02*
X007419Y005603D01*
X007273Y005457D02*
X007257Y005473D01*
X007403Y005619D01*
X007419Y005603D01*
X007359Y005543D02*
X007327Y005543D01*
X007134Y005596D02*
X007280Y005742D01*
X007134Y005596D02*
X007118Y005612D01*
X007264Y005758D01*
X007280Y005742D01*
X007220Y005682D02*
X007188Y005682D01*
X006995Y005736D02*
X007141Y005882D01*
X006995Y005736D02*
X006979Y005752D01*
X007125Y005898D01*
X007141Y005882D01*
X007081Y005822D02*
X007049Y005822D01*
X006856Y005875D02*
X007002Y006021D01*
X006856Y005875D02*
X006840Y005891D01*
X006986Y006037D01*
X007002Y006021D01*
X006942Y005961D02*
X006910Y005961D01*
X006717Y006014D02*
X006863Y006160D01*
X006717Y006014D02*
X006701Y006030D01*
X006847Y006176D01*
X006863Y006160D01*
X006803Y006100D02*
X006771Y006100D01*
X006577Y006153D02*
X006723Y006299D01*
X006577Y006153D02*
X006561Y006169D01*
X006707Y006315D01*
X006723Y006299D01*
X006663Y006239D02*
X006631Y006239D01*
X006707Y006585D02*
X006561Y006731D01*
X006577Y006747D01*
X006723Y006601D01*
X006707Y006585D01*
X006653Y006671D02*
X006621Y006671D01*
X006701Y006870D02*
X006847Y006724D01*
X006701Y006870D02*
X006717Y006886D01*
X006863Y006740D01*
X006847Y006724D01*
X006793Y006810D02*
X006761Y006810D01*
X006840Y007009D02*
X006986Y006863D01*
X006840Y007009D02*
X006856Y007025D01*
X007002Y006879D01*
X006986Y006863D01*
X006932Y006949D02*
X006900Y006949D01*
X006979Y007148D02*
X007125Y007002D01*
X006979Y007148D02*
X006995Y007164D01*
X007141Y007018D01*
X007125Y007002D01*
X007071Y007088D02*
X007039Y007088D01*
D19*
X011200Y005560D03*
X011200Y004650D03*
X011200Y003740D03*
D20*
X013640Y004650D03*
D21*
X009450Y008677D03*
X009450Y009583D03*
M02*
