G75*
%MOIN*%
%OFA0B0*%
%FSLAX24Y24*%
%IPPOS*%
%LPD*%
%AMOC8*
5,1,8,0,0,1.08239X$1,22.5*
%
%ADD10C,0.0100*%
%ADD11C,0.0145*%
%ADD12R,0.0434X0.0434*%
%ADD13R,0.0355X0.0152*%
%ADD14R,0.0152X0.0355*%
%ADD15R,0.1418X0.1418*%
%ADD16C,0.0097*%
%ADD17R,0.0906X0.0552*%
%ADD18R,0.0670X0.0750*%
%ADD19C,0.0079*%
%ADD20C,0.0160*%
%ADD21R,0.0591X0.0434*%
%ADD22R,0.0355X0.0355*%
%ADD23R,0.0540X0.0290*%
%ADD24C,0.0740*%
%ADD25C,0.0700*%
%ADD26R,0.0138X0.0237*%
%ADD27R,0.0591X0.0178*%
%ADD28C,0.0290*%
%ADD29C,0.0195*%
%ADD30C,0.0610*%
%ADD31C,0.0760*%
D10*
X001820Y001850D02*
X017340Y001840D01*
X018270Y002770D01*
X018270Y010130D01*
X017350Y011050D01*
X001820Y011050D01*
X001820Y001850D01*
D11*
X003362Y004227D02*
X003508Y004227D01*
X003362Y004227D02*
X003362Y004373D01*
X003508Y004373D01*
X003508Y004227D01*
X003508Y004371D02*
X003362Y004371D01*
X003712Y004227D02*
X003858Y004227D01*
X003712Y004227D02*
X003712Y004373D01*
X003858Y004373D01*
X003858Y004227D01*
X003858Y004371D02*
X003712Y004371D01*
X003712Y004773D02*
X003858Y004773D01*
X003858Y004627D01*
X003712Y004627D01*
X003712Y004773D01*
X003712Y004771D02*
X003858Y004771D01*
X003508Y004773D02*
X003362Y004773D01*
X003508Y004773D02*
X003508Y004627D01*
X003362Y004627D01*
X003362Y004773D01*
X003362Y004771D02*
X003508Y004771D01*
X005077Y004852D02*
X005077Y004998D01*
X005223Y004998D01*
X005223Y004852D01*
X005077Y004852D01*
X005077Y004996D02*
X005223Y004996D01*
X005077Y004648D02*
X005077Y004502D01*
X005077Y004648D02*
X005223Y004648D01*
X005223Y004502D01*
X005077Y004502D01*
X005077Y004646D02*
X005223Y004646D01*
X005802Y005023D02*
X005948Y005023D01*
X005948Y004877D01*
X005802Y004877D01*
X005802Y005023D01*
X005802Y005021D02*
X005948Y005021D01*
X006152Y005023D02*
X006298Y005023D01*
X006298Y004877D01*
X006152Y004877D01*
X006152Y005023D01*
X006152Y005021D02*
X006298Y005021D01*
X006702Y004623D02*
X006848Y004623D01*
X006848Y004477D01*
X006702Y004477D01*
X006702Y004623D01*
X006702Y004621D02*
X006848Y004621D01*
X007052Y004623D02*
X007198Y004623D01*
X007198Y004477D01*
X007052Y004477D01*
X007052Y004623D01*
X007052Y004621D02*
X007198Y004621D01*
X007198Y004123D02*
X007052Y004123D01*
X007198Y004123D02*
X007198Y003977D01*
X007052Y003977D01*
X007052Y004123D01*
X007052Y004121D02*
X007198Y004121D01*
X006848Y004123D02*
X006702Y004123D01*
X006848Y004123D02*
X006848Y003977D01*
X006702Y003977D01*
X006702Y004123D01*
X006702Y004121D02*
X006848Y004121D01*
X006848Y003623D02*
X006702Y003623D01*
X006848Y003623D02*
X006848Y003477D01*
X006702Y003477D01*
X006702Y003623D01*
X006702Y003621D02*
X006848Y003621D01*
X007052Y003623D02*
X007198Y003623D01*
X007198Y003477D01*
X007052Y003477D01*
X007052Y003623D01*
X007052Y003621D02*
X007198Y003621D01*
X008102Y003523D02*
X008248Y003523D01*
X008248Y003377D01*
X008102Y003377D01*
X008102Y003523D01*
X008102Y003521D02*
X008248Y003521D01*
X008452Y003523D02*
X008598Y003523D01*
X008598Y003377D01*
X008452Y003377D01*
X008452Y003523D01*
X008452Y003521D02*
X008598Y003521D01*
X008902Y003523D02*
X009048Y003523D01*
X009048Y003377D01*
X008902Y003377D01*
X008902Y003523D01*
X008902Y003521D02*
X009048Y003521D01*
X009252Y003523D02*
X009398Y003523D01*
X009398Y003377D01*
X009252Y003377D01*
X009252Y003523D01*
X009252Y003521D02*
X009398Y003521D01*
X010002Y003523D02*
X010148Y003523D01*
X010148Y003377D01*
X010002Y003377D01*
X010002Y003523D01*
X010002Y003521D02*
X010148Y003521D01*
X010352Y003523D02*
X010498Y003523D01*
X010498Y003377D01*
X010352Y003377D01*
X010352Y003523D01*
X010352Y003521D02*
X010498Y003521D01*
X010802Y003523D02*
X010948Y003523D01*
X010948Y003377D01*
X010802Y003377D01*
X010802Y003523D01*
X010802Y003521D02*
X010948Y003521D01*
X011152Y003523D02*
X011298Y003523D01*
X011298Y003377D01*
X011152Y003377D01*
X011152Y003523D01*
X011152Y003521D02*
X011298Y003521D01*
X012502Y003573D02*
X012648Y003573D01*
X012648Y003427D01*
X012502Y003427D01*
X012502Y003573D01*
X012502Y003571D02*
X012648Y003571D01*
X012852Y003573D02*
X012998Y003573D01*
X012998Y003427D01*
X012852Y003427D01*
X012852Y003573D01*
X012852Y003571D02*
X012998Y003571D01*
X013523Y003902D02*
X013523Y004048D01*
X013523Y003902D02*
X013377Y003902D01*
X013377Y004048D01*
X013523Y004048D01*
X013523Y004046D02*
X013377Y004046D01*
X013523Y004252D02*
X013523Y004398D01*
X013523Y004252D02*
X013377Y004252D01*
X013377Y004398D01*
X013523Y004398D01*
X013523Y004396D02*
X013377Y004396D01*
X013923Y004398D02*
X013923Y004252D01*
X013777Y004252D01*
X013777Y004398D01*
X013923Y004398D01*
X013923Y004396D02*
X013777Y004396D01*
X013923Y004048D02*
X013923Y003902D01*
X013777Y003902D01*
X013777Y004048D01*
X013923Y004048D01*
X013923Y004046D02*
X013777Y004046D01*
X015283Y004972D02*
X015283Y005118D01*
X015283Y004972D02*
X015137Y004972D01*
X015137Y005118D01*
X015283Y005118D01*
X015283Y005116D02*
X015137Y005116D01*
X015283Y005322D02*
X015283Y005468D01*
X015283Y005322D02*
X015137Y005322D01*
X015137Y005468D01*
X015283Y005468D01*
X015283Y005466D02*
X015137Y005466D01*
X015693Y005458D02*
X015693Y005312D01*
X015547Y005312D01*
X015547Y005458D01*
X015693Y005458D01*
X015693Y005456D02*
X015547Y005456D01*
X016073Y005702D02*
X016073Y005848D01*
X016073Y005702D02*
X015927Y005702D01*
X015927Y005848D01*
X016073Y005848D01*
X016073Y005846D02*
X015927Y005846D01*
X016073Y006052D02*
X016073Y006198D01*
X016073Y006052D02*
X015927Y006052D01*
X015927Y006198D01*
X016073Y006198D01*
X016073Y006196D02*
X015927Y006196D01*
X015693Y005108D02*
X015693Y004962D01*
X015547Y004962D01*
X015547Y005108D01*
X015693Y005108D01*
X015693Y005106D02*
X015547Y005106D01*
X012277Y005122D02*
X012277Y005268D01*
X012423Y005268D01*
X012423Y005122D01*
X012277Y005122D01*
X012277Y005266D02*
X012423Y005266D01*
X012277Y005472D02*
X012277Y005618D01*
X012423Y005618D01*
X012423Y005472D01*
X012277Y005472D01*
X012277Y005616D02*
X012423Y005616D01*
X011398Y005077D02*
X011252Y005077D01*
X011252Y005223D01*
X011398Y005223D01*
X011398Y005077D01*
X011398Y005221D02*
X011252Y005221D01*
X011048Y005077D02*
X010902Y005077D01*
X010902Y005223D01*
X011048Y005223D01*
X011048Y005077D01*
X011048Y005221D02*
X010902Y005221D01*
X009723Y006342D02*
X009723Y006488D01*
X009723Y006342D02*
X009577Y006342D01*
X009577Y006488D01*
X009723Y006488D01*
X009723Y006486D02*
X009577Y006486D01*
X009723Y006692D02*
X009723Y006838D01*
X009723Y006692D02*
X009577Y006692D01*
X009577Y006838D01*
X009723Y006838D01*
X009723Y006836D02*
X009577Y006836D01*
X010802Y007477D02*
X010948Y007477D01*
X010802Y007477D02*
X010802Y007623D01*
X010948Y007623D01*
X010948Y007477D01*
X010948Y007621D02*
X010802Y007621D01*
X011152Y007477D02*
X011298Y007477D01*
X011152Y007477D02*
X011152Y007623D01*
X011298Y007623D01*
X011298Y007477D01*
X011298Y007621D02*
X011152Y007621D01*
X011702Y007123D02*
X011848Y007123D01*
X011848Y006977D01*
X011702Y006977D01*
X011702Y007123D01*
X011702Y007121D02*
X011848Y007121D01*
X012052Y007123D02*
X012198Y007123D01*
X012198Y006977D01*
X012052Y006977D01*
X012052Y007123D01*
X012052Y007121D02*
X012198Y007121D01*
X012198Y006723D02*
X012052Y006723D01*
X012198Y006723D02*
X012198Y006577D01*
X012052Y006577D01*
X012052Y006723D01*
X012052Y006721D02*
X012198Y006721D01*
X011848Y006723D02*
X011702Y006723D01*
X011848Y006723D02*
X011848Y006577D01*
X011702Y006577D01*
X011702Y006723D01*
X011702Y006721D02*
X011848Y006721D01*
X009598Y008223D02*
X009452Y008223D01*
X009598Y008223D02*
X009598Y008077D01*
X009452Y008077D01*
X009452Y008223D01*
X009452Y008221D02*
X009598Y008221D01*
X009248Y008223D02*
X009102Y008223D01*
X009248Y008223D02*
X009248Y008077D01*
X009102Y008077D01*
X009102Y008223D01*
X009102Y008221D02*
X009248Y008221D01*
X008798Y008223D02*
X008652Y008223D01*
X008798Y008223D02*
X008798Y008077D01*
X008652Y008077D01*
X008652Y008223D01*
X008652Y008221D02*
X008798Y008221D01*
X008448Y008223D02*
X008302Y008223D01*
X008448Y008223D02*
X008448Y008077D01*
X008302Y008077D01*
X008302Y008223D01*
X008302Y008221D02*
X008448Y008221D01*
X006328Y007283D02*
X006182Y007283D01*
X006328Y007283D02*
X006328Y007137D01*
X006182Y007137D01*
X006182Y007283D01*
X006182Y007281D02*
X006328Y007281D01*
X005978Y007283D02*
X005832Y007283D01*
X005978Y007283D02*
X005978Y007137D01*
X005832Y007137D01*
X005832Y007283D01*
X005832Y007281D02*
X005978Y007281D01*
X005978Y006727D02*
X005832Y006727D01*
X005832Y006873D01*
X005978Y006873D01*
X005978Y006727D01*
X005978Y006871D02*
X005832Y006871D01*
X006182Y006727D02*
X006328Y006727D01*
X006182Y006727D02*
X006182Y006873D01*
X006328Y006873D01*
X006328Y006727D01*
X006328Y006871D02*
X006182Y006871D01*
X004798Y006823D02*
X004652Y006823D01*
X004798Y006823D02*
X004798Y006677D01*
X004652Y006677D01*
X004652Y006823D01*
X004652Y006821D02*
X004798Y006821D01*
X004448Y006823D02*
X004302Y006823D01*
X004448Y006823D02*
X004448Y006677D01*
X004302Y006677D01*
X004302Y006823D01*
X004302Y006821D02*
X004448Y006821D01*
X004448Y006423D02*
X004302Y006423D01*
X004448Y006423D02*
X004448Y006277D01*
X004302Y006277D01*
X004302Y006423D01*
X004302Y006421D02*
X004448Y006421D01*
X004652Y006423D02*
X004798Y006423D01*
X004798Y006277D01*
X004652Y006277D01*
X004652Y006423D01*
X004652Y006421D02*
X004798Y006421D01*
X011223Y008602D02*
X011223Y008748D01*
X011223Y008602D02*
X011077Y008602D01*
X011077Y008748D01*
X011223Y008748D01*
X011223Y008746D02*
X011077Y008746D01*
X011223Y008952D02*
X011223Y009098D01*
X011223Y008952D02*
X011077Y008952D01*
X011077Y009098D01*
X011223Y009098D01*
X011223Y009096D02*
X011077Y009096D01*
X012223Y009088D02*
X012223Y008942D01*
X012077Y008942D01*
X012077Y009088D01*
X012223Y009088D01*
X012223Y009086D02*
X012077Y009086D01*
X012223Y008738D02*
X012223Y008592D01*
X012077Y008592D01*
X012077Y008738D01*
X012223Y008738D01*
X012223Y008736D02*
X012077Y008736D01*
X013977Y008748D02*
X013977Y008602D01*
X013977Y008748D02*
X014123Y008748D01*
X014123Y008602D01*
X013977Y008602D01*
X013977Y008746D02*
X014123Y008746D01*
X013977Y008952D02*
X013977Y009098D01*
X014123Y009098D01*
X014123Y008952D01*
X013977Y008952D01*
X013977Y009096D02*
X014123Y009096D01*
X014923Y009152D02*
X014923Y009298D01*
X014923Y009152D02*
X014777Y009152D01*
X014777Y009298D01*
X014923Y009298D01*
X014923Y009296D02*
X014777Y009296D01*
X014923Y008948D02*
X014923Y008802D01*
X014777Y008802D01*
X014777Y008948D01*
X014923Y008948D01*
X014923Y008946D02*
X014777Y008946D01*
X014923Y008498D02*
X014923Y008352D01*
X014777Y008352D01*
X014777Y008498D01*
X014923Y008498D01*
X014923Y008496D02*
X014777Y008496D01*
X014923Y008148D02*
X014923Y008002D01*
X014777Y008002D01*
X014777Y008148D01*
X014923Y008148D01*
X014923Y008146D02*
X014777Y008146D01*
X015577Y008152D02*
X015577Y008298D01*
X015723Y008298D01*
X015723Y008152D01*
X015577Y008152D01*
X015577Y008296D02*
X015723Y008296D01*
X016123Y008293D02*
X016123Y008147D01*
X015977Y008147D01*
X015977Y008293D01*
X016123Y008293D01*
X016123Y008291D02*
X015977Y008291D01*
X016123Y007943D02*
X016123Y007797D01*
X015977Y007797D01*
X015977Y007943D01*
X016123Y007943D01*
X016123Y007941D02*
X015977Y007941D01*
X015577Y007948D02*
X015577Y007802D01*
X015577Y007948D02*
X015723Y007948D01*
X015723Y007802D01*
X015577Y007802D01*
X015577Y007946D02*
X015723Y007946D01*
X015748Y007518D02*
X015602Y007518D01*
X015748Y007518D02*
X015748Y007372D01*
X015602Y007372D01*
X015602Y007518D01*
X015602Y007516D02*
X015748Y007516D01*
X015952Y007518D02*
X016098Y007518D01*
X016098Y007372D01*
X015952Y007372D01*
X015952Y007518D01*
X015952Y007516D02*
X016098Y007516D01*
D12*
X006837Y008635D03*
X006837Y009265D03*
X005263Y009265D03*
X005263Y008635D03*
X004944Y007200D03*
X004156Y007200D03*
X004450Y005844D03*
X004450Y005056D03*
D13*
X012866Y005761D03*
X012866Y005958D03*
X012866Y006155D03*
X012866Y006352D03*
X012866Y006548D03*
X012866Y006745D03*
X012866Y006942D03*
X012866Y007139D03*
X014834Y007139D03*
X014834Y006942D03*
X014834Y006745D03*
X014834Y006548D03*
X014834Y006352D03*
X014834Y006155D03*
X014834Y005958D03*
X014834Y005761D03*
D14*
X014539Y005466D03*
X014342Y005466D03*
X014145Y005466D03*
X013948Y005466D03*
X013752Y005466D03*
X013555Y005466D03*
X013358Y005466D03*
X013161Y005466D03*
X013161Y007434D03*
X013358Y007434D03*
X013555Y007434D03*
X013752Y007434D03*
X013948Y007434D03*
X014145Y007434D03*
X014342Y007434D03*
X014539Y007434D03*
D15*
X013850Y006450D03*
D16*
X012596Y007696D02*
X012304Y007696D01*
X012596Y007696D02*
X012596Y007404D01*
X012304Y007404D01*
X012304Y007696D01*
X012304Y007501D02*
X012596Y007501D01*
X012596Y007598D02*
X012304Y007598D01*
X012304Y007695D02*
X012596Y007695D01*
X012596Y008296D02*
X012304Y008296D01*
X012596Y008296D02*
X012596Y008004D01*
X012304Y008004D01*
X012304Y008296D01*
X012304Y008101D02*
X012596Y008101D01*
X012596Y008198D02*
X012304Y008198D01*
X012304Y008295D02*
X012596Y008295D01*
X011996Y008296D02*
X011704Y008296D01*
X011996Y008296D02*
X011996Y008004D01*
X011704Y008004D01*
X011704Y008296D01*
X011704Y008101D02*
X011996Y008101D01*
X011996Y008198D02*
X011704Y008198D01*
X011704Y008295D02*
X011996Y008295D01*
X011796Y008604D02*
X011796Y008896D01*
X011796Y008604D02*
X011504Y008604D01*
X011504Y008896D01*
X011796Y008896D01*
X011796Y008701D02*
X011504Y008701D01*
X011504Y008798D02*
X011796Y008798D01*
X011796Y008895D02*
X011504Y008895D01*
X011796Y009204D02*
X011796Y009496D01*
X011796Y009204D02*
X011504Y009204D01*
X011504Y009496D01*
X011796Y009496D01*
X011796Y009301D02*
X011504Y009301D01*
X011504Y009398D02*
X011796Y009398D01*
X011796Y009495D02*
X011504Y009495D01*
X011704Y007696D02*
X011996Y007696D01*
X011996Y007404D01*
X011704Y007404D01*
X011704Y007696D01*
X011704Y007501D02*
X011996Y007501D01*
X011996Y007598D02*
X011704Y007598D01*
X011704Y007695D02*
X011996Y007695D01*
D17*
X011120Y007078D03*
X011120Y005622D03*
D18*
X003550Y003700D03*
X002430Y003700D03*
D19*
X007206Y005721D02*
X007444Y005721D01*
X007206Y005721D02*
X007206Y005801D01*
X007444Y005801D01*
X007444Y005721D01*
X007444Y005799D02*
X007206Y005799D01*
X007206Y005918D02*
X007444Y005918D01*
X007206Y005918D02*
X007206Y005998D01*
X007444Y005998D01*
X007444Y005918D01*
X007444Y005996D02*
X007206Y005996D01*
X007206Y006115D02*
X007444Y006115D01*
X007206Y006115D02*
X007206Y006195D01*
X007444Y006195D01*
X007444Y006115D01*
X007444Y006193D02*
X007206Y006193D01*
X007206Y006312D02*
X007444Y006312D01*
X007206Y006312D02*
X007206Y006392D01*
X007444Y006392D01*
X007444Y006312D01*
X007444Y006390D02*
X007206Y006390D01*
X007206Y006508D02*
X007444Y006508D01*
X007206Y006508D02*
X007206Y006588D01*
X007444Y006588D01*
X007444Y006508D01*
X007444Y006586D02*
X007206Y006586D01*
X007206Y006705D02*
X007444Y006705D01*
X007206Y006705D02*
X007206Y006785D01*
X007444Y006785D01*
X007444Y006705D01*
X007444Y006783D02*
X007206Y006783D01*
X007206Y006902D02*
X007444Y006902D01*
X007206Y006902D02*
X007206Y006982D01*
X007444Y006982D01*
X007444Y006902D01*
X007444Y006980D02*
X007206Y006980D01*
X007206Y007099D02*
X007444Y007099D01*
X007206Y007099D02*
X007206Y007179D01*
X007444Y007179D01*
X007444Y007099D01*
X007444Y007177D02*
X007206Y007177D01*
X007521Y007256D02*
X007601Y007256D01*
X007521Y007256D02*
X007521Y007494D01*
X007601Y007494D01*
X007601Y007256D01*
X007601Y007334D02*
X007521Y007334D01*
X007521Y007412D02*
X007601Y007412D01*
X007601Y007490D02*
X007521Y007490D01*
X007718Y007256D02*
X007798Y007256D01*
X007718Y007256D02*
X007718Y007494D01*
X007798Y007494D01*
X007798Y007256D01*
X007798Y007334D02*
X007718Y007334D01*
X007718Y007412D02*
X007798Y007412D01*
X007798Y007490D02*
X007718Y007490D01*
X007915Y007256D02*
X007995Y007256D01*
X007915Y007256D02*
X007915Y007494D01*
X007995Y007494D01*
X007995Y007256D01*
X007995Y007334D02*
X007915Y007334D01*
X007915Y007412D02*
X007995Y007412D01*
X007995Y007490D02*
X007915Y007490D01*
X008112Y007256D02*
X008192Y007256D01*
X008112Y007256D02*
X008112Y007494D01*
X008192Y007494D01*
X008192Y007256D01*
X008192Y007334D02*
X008112Y007334D01*
X008112Y007412D02*
X008192Y007412D01*
X008192Y007490D02*
X008112Y007490D01*
X008308Y007256D02*
X008388Y007256D01*
X008308Y007256D02*
X008308Y007494D01*
X008388Y007494D01*
X008388Y007256D01*
X008388Y007334D02*
X008308Y007334D01*
X008308Y007412D02*
X008388Y007412D01*
X008388Y007490D02*
X008308Y007490D01*
X008505Y007256D02*
X008585Y007256D01*
X008505Y007256D02*
X008505Y007494D01*
X008585Y007494D01*
X008585Y007256D01*
X008585Y007334D02*
X008505Y007334D01*
X008505Y007412D02*
X008585Y007412D01*
X008585Y007490D02*
X008505Y007490D01*
X008702Y007256D02*
X008782Y007256D01*
X008702Y007256D02*
X008702Y007494D01*
X008782Y007494D01*
X008782Y007256D01*
X008782Y007334D02*
X008702Y007334D01*
X008702Y007412D02*
X008782Y007412D01*
X008782Y007490D02*
X008702Y007490D01*
X008899Y007256D02*
X008979Y007256D01*
X008899Y007256D02*
X008899Y007494D01*
X008979Y007494D01*
X008979Y007256D01*
X008979Y007334D02*
X008899Y007334D01*
X008899Y007412D02*
X008979Y007412D01*
X008979Y007490D02*
X008899Y007490D01*
X009056Y007099D02*
X009294Y007099D01*
X009056Y007099D02*
X009056Y007179D01*
X009294Y007179D01*
X009294Y007099D01*
X009294Y007177D02*
X009056Y007177D01*
X009056Y006902D02*
X009294Y006902D01*
X009056Y006902D02*
X009056Y006982D01*
X009294Y006982D01*
X009294Y006902D01*
X009294Y006980D02*
X009056Y006980D01*
X009056Y006705D02*
X009294Y006705D01*
X009056Y006705D02*
X009056Y006785D01*
X009294Y006785D01*
X009294Y006705D01*
X009294Y006783D02*
X009056Y006783D01*
X009056Y006508D02*
X009294Y006508D01*
X009056Y006508D02*
X009056Y006588D01*
X009294Y006588D01*
X009294Y006508D01*
X009294Y006586D02*
X009056Y006586D01*
X009056Y006312D02*
X009294Y006312D01*
X009056Y006312D02*
X009056Y006392D01*
X009294Y006392D01*
X009294Y006312D01*
X009294Y006390D02*
X009056Y006390D01*
X009056Y006115D02*
X009294Y006115D01*
X009056Y006115D02*
X009056Y006195D01*
X009294Y006195D01*
X009294Y006115D01*
X009294Y006193D02*
X009056Y006193D01*
X009056Y005918D02*
X009294Y005918D01*
X009056Y005918D02*
X009056Y005998D01*
X009294Y005998D01*
X009294Y005918D01*
X009294Y005996D02*
X009056Y005996D01*
X009056Y005721D02*
X009294Y005721D01*
X009056Y005721D02*
X009056Y005801D01*
X009294Y005801D01*
X009294Y005721D01*
X009294Y005799D02*
X009056Y005799D01*
X008979Y005406D02*
X008899Y005406D01*
X008899Y005644D01*
X008979Y005644D01*
X008979Y005406D01*
X008979Y005484D02*
X008899Y005484D01*
X008899Y005562D02*
X008979Y005562D01*
X008979Y005640D02*
X008899Y005640D01*
X008782Y005406D02*
X008702Y005406D01*
X008702Y005644D01*
X008782Y005644D01*
X008782Y005406D01*
X008782Y005484D02*
X008702Y005484D01*
X008702Y005562D02*
X008782Y005562D01*
X008782Y005640D02*
X008702Y005640D01*
X008585Y005406D02*
X008505Y005406D01*
X008505Y005644D01*
X008585Y005644D01*
X008585Y005406D01*
X008585Y005484D02*
X008505Y005484D01*
X008505Y005562D02*
X008585Y005562D01*
X008585Y005640D02*
X008505Y005640D01*
X008388Y005406D02*
X008308Y005406D01*
X008308Y005644D01*
X008388Y005644D01*
X008388Y005406D01*
X008388Y005484D02*
X008308Y005484D01*
X008308Y005562D02*
X008388Y005562D01*
X008388Y005640D02*
X008308Y005640D01*
X008192Y005406D02*
X008112Y005406D01*
X008112Y005644D01*
X008192Y005644D01*
X008192Y005406D01*
X008192Y005484D02*
X008112Y005484D01*
X008112Y005562D02*
X008192Y005562D01*
X008192Y005640D02*
X008112Y005640D01*
X007995Y005406D02*
X007915Y005406D01*
X007915Y005644D01*
X007995Y005644D01*
X007995Y005406D01*
X007995Y005484D02*
X007915Y005484D01*
X007915Y005562D02*
X007995Y005562D01*
X007995Y005640D02*
X007915Y005640D01*
X007798Y005406D02*
X007718Y005406D01*
X007718Y005644D01*
X007798Y005644D01*
X007798Y005406D01*
X007798Y005484D02*
X007718Y005484D01*
X007718Y005562D02*
X007798Y005562D01*
X007798Y005640D02*
X007718Y005640D01*
X007601Y005406D02*
X007521Y005406D01*
X007521Y005644D01*
X007601Y005644D01*
X007601Y005406D01*
X007601Y005484D02*
X007521Y005484D01*
X007521Y005562D02*
X007601Y005562D01*
X007601Y005640D02*
X007521Y005640D01*
D20*
X007700Y005900D02*
X007700Y007000D01*
X008800Y007000D01*
X008800Y005900D01*
X007700Y005900D01*
X007700Y005915D02*
X008800Y005915D01*
X008800Y006073D02*
X007700Y006073D01*
X007700Y006232D02*
X008800Y006232D01*
X008800Y006390D02*
X007700Y006390D01*
X007700Y006549D02*
X008800Y006549D01*
X008800Y006707D02*
X007700Y006707D01*
X007700Y006866D02*
X008800Y006866D01*
D21*
X009283Y008576D03*
X008417Y008950D03*
X009283Y009324D03*
X009183Y004624D03*
X009183Y003876D03*
X008317Y004250D03*
X010117Y004250D03*
X010983Y003876D03*
X010983Y004624D03*
D22*
X013355Y003500D03*
X013945Y003500D03*
X006345Y003550D03*
X005755Y003550D03*
X005150Y003555D03*
X005755Y004050D03*
X006345Y004050D03*
X006345Y004550D03*
X005755Y004550D03*
X005150Y004145D03*
D23*
X005150Y005288D03*
X005150Y005608D03*
D24*
X005450Y002450D03*
X006450Y002450D03*
X007450Y002450D03*
X008450Y002450D03*
X009450Y002450D03*
X010450Y002450D03*
X011450Y002450D03*
X012450Y002450D03*
X013450Y002450D03*
X014450Y002450D03*
X015450Y002450D03*
X004450Y002450D03*
X003450Y002450D03*
X002450Y002450D03*
X002450Y010450D03*
X003450Y010450D03*
X004450Y010450D03*
X005450Y010450D03*
X006450Y010450D03*
X007450Y010450D03*
X008450Y010450D03*
X009450Y010450D03*
X010450Y010450D03*
X011450Y010450D03*
X012450Y010450D03*
X013450Y010450D03*
X014450Y010450D03*
X015450Y010450D03*
D25*
X004450Y009450D03*
X003450Y009450D03*
X002450Y009450D03*
D26*
X015846Y006805D03*
X016043Y006805D03*
X016239Y006805D03*
X016239Y006490D03*
X016043Y006490D03*
X015846Y006490D03*
D27*
X003493Y006450D03*
X003493Y006706D03*
X003493Y006962D03*
X003493Y006194D03*
X003493Y005938D03*
D28*
X002950Y009950D03*
X010250Y008050D03*
X015250Y004550D03*
D29*
X013758Y008748D02*
X013462Y008748D01*
X013758Y008748D02*
X013758Y008552D01*
X013462Y008552D01*
X013462Y008748D01*
X013462Y008746D02*
X013758Y008746D01*
X013758Y009548D02*
X013462Y009548D01*
X013758Y009548D02*
X013758Y009352D01*
X013462Y009352D01*
X013462Y009548D01*
X013462Y009546D02*
X013758Y009546D01*
X012758Y009548D02*
X012462Y009548D01*
X012758Y009548D02*
X012758Y009352D01*
X012462Y009352D01*
X012462Y009548D01*
X012462Y009546D02*
X012758Y009546D01*
X012758Y008748D02*
X012462Y008748D01*
X012758Y008748D02*
X012758Y008552D01*
X012462Y008552D01*
X012462Y008748D01*
X012462Y008746D02*
X012758Y008746D01*
X006748Y006528D02*
X006748Y006232D01*
X006552Y006232D01*
X006552Y006528D01*
X006748Y006528D01*
X006748Y006426D02*
X006552Y006426D01*
X005948Y006528D02*
X005948Y006232D01*
X005752Y006232D01*
X005752Y006528D01*
X005948Y006528D01*
X005948Y006426D02*
X005752Y006426D01*
X005948Y005528D02*
X005948Y005232D01*
X005752Y005232D01*
X005752Y005528D01*
X005948Y005528D01*
X005948Y005426D02*
X005752Y005426D01*
X006748Y005528D02*
X006748Y005232D01*
X006552Y005232D01*
X006552Y005528D01*
X006748Y005528D01*
X006748Y005426D02*
X006552Y005426D01*
D30*
X003510Y005470D03*
X003510Y007430D03*
D31*
X002450Y007830D03*
X002450Y005070D03*
M02*
