G75*
G70*
%OFA0B0*%
%FSLAX24Y24*%
%IPPOS*%
%LPD*%
%AMOC8*
5,1,8,0,0,1.08239X$1,22.5*
%
%ADD10C,0.0100*%
%ADD11C,0.0030*%
%ADD12C,0.0050*%
%ADD13C,0.0028*%
%ADD14R,0.0118X0.0276*%
%ADD15C,0.0060*%
%ADD16R,0.0197X0.0256*%
%ADD17R,0.0150X0.0200*%
%ADD18C,0.0080*%
%ADD19R,0.1378X0.1378*%
%ADD20C,0.0040*%
%ADD21R,0.0730X0.1260*%
%ADD22R,0.0730X0.0340*%
D10*
X001820Y001850D02*
X016150Y001840D01*
X016150Y004250D01*
X017550Y005650D01*
X017550Y009850D01*
X017530Y009870D02*
X016350Y011050D01*
X001820Y011060D01*
X001820Y001850D01*
D11*
X004650Y005275D02*
X005250Y005275D01*
X005263Y005277D01*
X005275Y005282D01*
X005285Y005290D01*
X005293Y005300D01*
X005298Y005312D01*
X005300Y005325D01*
X005300Y005575D01*
X005298Y005588D01*
X005293Y005600D01*
X005285Y005610D01*
X005275Y005618D01*
X005263Y005623D01*
X005250Y005625D01*
X004650Y005625D01*
X004637Y005623D01*
X004625Y005618D01*
X004615Y005610D01*
X004607Y005600D01*
X004602Y005588D01*
X004600Y005575D01*
X004600Y005325D01*
X004602Y005312D01*
X004607Y005300D01*
X004615Y005290D01*
X004625Y005282D01*
X004637Y005277D01*
X004650Y005275D01*
X005400Y005325D02*
X005400Y005575D01*
X005402Y005588D01*
X005407Y005600D01*
X005415Y005610D01*
X005425Y005618D01*
X005437Y005623D01*
X005450Y005625D01*
X006050Y005625D01*
X006063Y005623D01*
X006075Y005618D01*
X006085Y005610D01*
X006093Y005600D01*
X006098Y005588D01*
X006100Y005575D01*
X006100Y005325D01*
X006098Y005312D01*
X006093Y005300D01*
X006085Y005290D01*
X006075Y005282D01*
X006063Y005277D01*
X006050Y005275D01*
X005450Y005275D01*
X005437Y005277D01*
X005425Y005282D01*
X005415Y005290D01*
X005407Y005300D01*
X005402Y005312D01*
X005400Y005325D01*
X005750Y007505D02*
X006350Y007505D01*
X006363Y007507D01*
X006375Y007512D01*
X006385Y007520D01*
X006393Y007530D01*
X006398Y007542D01*
X006400Y007555D01*
X006400Y007805D01*
X006398Y007818D01*
X006393Y007830D01*
X006385Y007840D01*
X006375Y007848D01*
X006363Y007853D01*
X006350Y007855D01*
X005750Y007855D01*
X005737Y007853D01*
X005725Y007848D01*
X005715Y007840D01*
X005707Y007830D01*
X005702Y007818D01*
X005700Y007805D01*
X005700Y007555D01*
X005702Y007542D01*
X005707Y007530D01*
X005715Y007520D01*
X005725Y007512D01*
X005737Y007507D01*
X005750Y007505D01*
X008775Y008830D02*
X008775Y009430D01*
X008777Y009443D01*
X008782Y009455D01*
X008790Y009465D01*
X008800Y009473D01*
X008812Y009478D01*
X008825Y009480D01*
X009075Y009480D01*
X009088Y009478D01*
X009100Y009473D01*
X009110Y009465D01*
X009118Y009455D01*
X009123Y009443D01*
X009125Y009430D01*
X009125Y008830D01*
X009123Y008817D01*
X009118Y008805D01*
X009110Y008795D01*
X009100Y008787D01*
X009088Y008782D01*
X009075Y008780D01*
X008825Y008780D01*
X008812Y008782D01*
X008800Y008787D01*
X008790Y008795D01*
X008782Y008805D01*
X008777Y008817D01*
X008775Y008830D01*
X009775Y008830D02*
X009775Y009430D01*
X009777Y009443D01*
X009782Y009455D01*
X009790Y009465D01*
X009800Y009473D01*
X009812Y009478D01*
X009825Y009480D01*
X010075Y009480D01*
X010088Y009478D01*
X010100Y009473D01*
X010110Y009465D01*
X010118Y009455D01*
X010123Y009443D01*
X010125Y009430D01*
X010125Y008830D01*
X010123Y008817D01*
X010118Y008805D01*
X010110Y008795D01*
X010100Y008787D01*
X010088Y008782D01*
X010075Y008780D01*
X009825Y008780D01*
X009812Y008782D01*
X009800Y008787D01*
X009790Y008795D01*
X009782Y008805D01*
X009777Y008817D01*
X009775Y008830D01*
X010175Y008830D02*
X010175Y009430D01*
X010177Y009443D01*
X010182Y009455D01*
X010190Y009465D01*
X010200Y009473D01*
X010212Y009478D01*
X010225Y009480D01*
X010475Y009480D01*
X010488Y009478D01*
X010500Y009473D01*
X010510Y009465D01*
X010518Y009455D01*
X010523Y009443D01*
X010525Y009430D01*
X010525Y008830D01*
X010523Y008817D01*
X010518Y008805D01*
X010510Y008795D01*
X010500Y008787D01*
X010488Y008782D01*
X010475Y008780D01*
X010225Y008780D01*
X010212Y008782D01*
X010200Y008787D01*
X010190Y008795D01*
X010182Y008805D01*
X010177Y008817D01*
X010175Y008830D01*
X010225Y008600D02*
X010475Y008600D01*
X010488Y008598D01*
X010500Y008593D01*
X010510Y008585D01*
X010518Y008575D01*
X010523Y008563D01*
X010525Y008550D01*
X010525Y007950D01*
X010523Y007937D01*
X010518Y007925D01*
X010510Y007915D01*
X010500Y007907D01*
X010488Y007902D01*
X010475Y007900D01*
X010225Y007900D01*
X010212Y007902D01*
X010200Y007907D01*
X010190Y007915D01*
X010182Y007925D01*
X010177Y007937D01*
X010175Y007950D01*
X010175Y008550D01*
X010177Y008563D01*
X010182Y008575D01*
X010190Y008585D01*
X010200Y008593D01*
X010212Y008598D01*
X010225Y008600D01*
X011775Y008650D02*
X011775Y008050D01*
X011777Y008037D01*
X011782Y008025D01*
X011790Y008015D01*
X011800Y008007D01*
X011812Y008002D01*
X011825Y008000D01*
X012075Y008000D01*
X012088Y008002D01*
X012100Y008007D01*
X012110Y008015D01*
X012118Y008025D01*
X012123Y008037D01*
X012125Y008050D01*
X012125Y008650D01*
X012123Y008663D01*
X012118Y008675D01*
X012110Y008685D01*
X012100Y008693D01*
X012088Y008698D01*
X012075Y008700D01*
X011825Y008700D01*
X011812Y008698D01*
X011800Y008693D01*
X011790Y008685D01*
X011782Y008675D01*
X011777Y008663D01*
X011775Y008650D01*
X012675Y008650D02*
X012675Y008050D01*
X012677Y008037D01*
X012682Y008025D01*
X012690Y008015D01*
X012700Y008007D01*
X012712Y008002D01*
X012725Y008000D01*
X012975Y008000D01*
X012988Y008002D01*
X013000Y008007D01*
X013010Y008015D01*
X013018Y008025D01*
X013023Y008037D01*
X013025Y008050D01*
X013025Y008650D01*
X013023Y008663D01*
X013018Y008675D01*
X013010Y008685D01*
X013000Y008693D01*
X012988Y008698D01*
X012975Y008700D01*
X012725Y008700D01*
X012712Y008698D01*
X012700Y008693D01*
X012690Y008685D01*
X012682Y008675D01*
X012677Y008663D01*
X012675Y008650D01*
X012450Y007625D02*
X013050Y007625D01*
X013063Y007623D01*
X013075Y007618D01*
X013085Y007610D01*
X013093Y007600D01*
X013098Y007588D01*
X013100Y007575D01*
X013100Y007325D01*
X013098Y007312D01*
X013093Y007300D01*
X013085Y007290D01*
X013075Y007282D01*
X013063Y007277D01*
X013050Y007275D01*
X012450Y007275D01*
X012437Y007277D01*
X012425Y007282D01*
X012415Y007290D01*
X012407Y007300D01*
X012402Y007312D01*
X012400Y007325D01*
X012400Y007575D01*
X012402Y007588D01*
X012407Y007600D01*
X012415Y007610D01*
X012425Y007618D01*
X012437Y007623D01*
X012450Y007625D01*
X014400Y006595D02*
X014400Y006345D01*
X014402Y006332D01*
X014407Y006320D01*
X014415Y006310D01*
X014425Y006302D01*
X014437Y006297D01*
X014450Y006295D01*
X015050Y006295D01*
X015063Y006297D01*
X015075Y006302D01*
X015085Y006310D01*
X015093Y006320D01*
X015098Y006332D01*
X015100Y006345D01*
X015100Y006595D01*
X015098Y006608D01*
X015093Y006620D01*
X015085Y006630D01*
X015075Y006638D01*
X015063Y006643D01*
X015050Y006645D01*
X014450Y006645D01*
X014437Y006643D01*
X014425Y006638D01*
X014415Y006630D01*
X014407Y006620D01*
X014402Y006608D01*
X014400Y006595D01*
X013975Y006200D02*
X013725Y006200D01*
X013712Y006198D01*
X013700Y006193D01*
X013690Y006185D01*
X013682Y006175D01*
X013677Y006163D01*
X013675Y006150D01*
X013675Y005550D01*
X013677Y005537D01*
X013682Y005525D01*
X013690Y005515D01*
X013700Y005507D01*
X013712Y005502D01*
X013725Y005500D01*
X013975Y005500D01*
X013988Y005502D01*
X014000Y005507D01*
X014010Y005515D01*
X014018Y005525D01*
X014023Y005537D01*
X014025Y005550D01*
X014025Y006150D01*
X014023Y006163D01*
X014018Y006175D01*
X014010Y006185D01*
X014000Y006193D01*
X013988Y006198D01*
X013975Y006200D01*
X009930Y003845D02*
X009930Y003595D01*
X009928Y003582D01*
X009923Y003570D01*
X009915Y003560D01*
X009905Y003552D01*
X009893Y003547D01*
X009880Y003545D01*
X009280Y003545D01*
X009267Y003547D01*
X009255Y003552D01*
X009245Y003560D01*
X009237Y003570D01*
X009232Y003582D01*
X009230Y003595D01*
X009230Y003845D01*
X009232Y003858D01*
X009237Y003870D01*
X009245Y003880D01*
X009255Y003888D01*
X009267Y003893D01*
X009280Y003895D01*
X009880Y003895D01*
X009893Y003893D01*
X009905Y003888D01*
X009915Y003880D01*
X009923Y003870D01*
X009928Y003858D01*
X009930Y003845D01*
D12*
X012280Y006330D02*
X012280Y007130D01*
X011642Y008120D02*
X011642Y009380D01*
X010658Y009380D01*
X010658Y008120D01*
X011642Y008120D01*
X005550Y006962D02*
X005550Y005978D01*
X005550Y006017D02*
X005550Y006883D01*
X003140Y004210D02*
X003140Y003410D01*
D13*
X005304Y006056D02*
X005796Y006056D01*
X005796Y006844D01*
X005304Y006844D01*
X005304Y006056D01*
D14*
X005550Y006450D03*
D15*
X013090Y008031D02*
X013127Y008031D01*
X013090Y008031D02*
X014210Y008031D01*
X014173Y008031D01*
X014210Y008031D02*
X014210Y008669D01*
X014173Y008669D01*
X014210Y008669D02*
X013090Y008669D01*
X013127Y008669D01*
X013090Y008669D02*
X013090Y008031D01*
X013444Y008031D02*
X013856Y008031D01*
X013856Y008669D02*
X013819Y008669D01*
X013481Y008669D02*
X013444Y008669D01*
X014290Y005700D02*
X014290Y005400D01*
X015430Y005400D01*
X015430Y005700D01*
X014290Y005700D01*
X014270Y004100D02*
X014270Y003800D01*
X015410Y003800D01*
X015410Y004100D01*
X014270Y004100D01*
D16*
X014024Y007887D03*
X013276Y007887D03*
X013276Y008813D03*
X013650Y008813D03*
X014024Y008813D03*
D17*
X014855Y005820D03*
X014475Y005280D03*
X015235Y005280D03*
X015225Y004220D03*
X014845Y003680D03*
X014465Y004220D03*
D18*
X013120Y003360D02*
X013120Y005940D01*
X011720Y005940D01*
X011720Y003360D01*
X013120Y003360D01*
X012957Y006258D02*
X012524Y006258D01*
X012957Y006258D02*
X013114Y006415D01*
X013114Y007045D01*
X012957Y007202D01*
X012524Y007202D01*
X011736Y007202D02*
X011146Y007202D01*
X011146Y006258D01*
X011736Y006258D01*
X010199Y006450D02*
X008250Y004501D01*
X006301Y006450D01*
X008250Y008399D01*
X010199Y006450D01*
X009706Y008776D02*
X009706Y008933D01*
X009194Y008933D01*
X009194Y009484D01*
X009706Y009484D02*
X009706Y008933D01*
X009194Y008933D02*
X009194Y008776D01*
X004274Y004282D02*
X003684Y004282D01*
X004274Y004282D02*
X004274Y003338D01*
X003684Y003338D01*
X002896Y003338D02*
X002463Y003338D01*
X002306Y003495D01*
X002306Y004125D01*
X002463Y004282D01*
X002896Y004282D01*
D19*
G36*
X007276Y005476D02*
X006302Y006450D01*
X007276Y007424D01*
X008250Y006450D01*
X007276Y005476D01*
G37*
D20*
X010740Y005212D02*
X010740Y005119D01*
X010787Y005072D01*
X010880Y005165D02*
X010880Y005212D01*
X010833Y005259D01*
X010787Y005259D01*
X010740Y005212D01*
X010880Y005212D02*
X010927Y005259D01*
X010974Y005259D01*
X011020Y005212D01*
X011020Y005119D01*
X010974Y005072D01*
X010970Y004349D02*
X011017Y004302D01*
X011017Y004209D01*
X010970Y004162D01*
X010970Y004349D02*
X010923Y004349D01*
X010736Y004162D01*
X010736Y004349D01*
X010740Y003498D02*
X010740Y003311D01*
X010740Y003404D02*
X011020Y003404D01*
X010927Y003311D01*
X013580Y005420D02*
X013580Y005607D01*
X013440Y005560D02*
X013720Y005560D01*
X013580Y005420D01*
D21*
X013495Y004650D03*
X013495Y004650D03*
D22*
X011345Y004650D03*
X011345Y004650D03*
X011345Y005560D03*
X011345Y005560D03*
X011345Y003740D03*
X011345Y003740D03*
M02*
