%
M48
M72
T01C0.0120
T02C0.0150
T03C0.0200
T04C0.0400
%
T01
X5950Y2850
X7450Y4180
X7790Y4290
X7450Y4580
X9720Y3350
X10110Y2960
X11200Y2990
X11930Y3430
X11900Y3810
X12260Y4110
X11910Y4170
X12950Y3830
X12970Y3110
X14710Y3220
X13280Y5070
X12350Y5190
X12020Y5050
X11970Y5760
X12310Y5870
X11320Y6100
X10940Y6190
X11000Y6550
X10550Y6630
X10050Y6410
X10470Y7190
X10460Y7540
X10000Y7550
X9630Y7480
X8780Y8540
X8410Y9660
X10070Y9670
X10950Y9910
X11750Y9830
X12790Y9910
X13990Y9910
X15350Y9590
X15750Y9590
X12270Y7630
X10870Y8870
X10480Y5410
X10070Y4590
X8950Y2930
X5110Y6200
X4850Y6410
X5120Y6710
X5410Y7010
X4960Y7630
X3350Y8250
X5030Y9750
T02
X7290Y9470
X7540Y9180
X7700Y8820
X6450Y8250
X6050Y8250
X5650Y8250
X4890Y7990
X6450Y6450
X5100Y5840
X5550Y4850
X4510Y4440
X3430Y4790
X2270Y3190
X5040Y2900
X7390Y3330
X7860Y3660
X8570Y3650
X8640Y4230
X8250Y4650
X10420Y3700
X12530Y3840
X12950Y4310
X14370Y3400
X14940Y2870
X15730Y3420
X15460Y3780
X15640Y4310
X14870Y4830
X15750Y4950
X14250Y6050
X13450Y6050
X13450Y6850
X14250Y6850
X14910Y7690
X13680Y7810
X14250Y9390
X7950Y9950
T03
X7750Y6950
X8750Y6950
X8750Y5950
X7750Y5950
T04
X2450Y2450
X3450Y2450
X4450Y2450
X5450Y2450
X6450Y2450
X7450Y2450
X8450Y2450
X9450Y2450
X10450Y2450
X11450Y2450
X12450Y2450
X13450Y2450
X14450Y2450
X15450Y2450
X4450Y9450
X3450Y9450
X2450Y9450
X2450Y10450
X3450Y10450
X4450Y10450
X5450Y10450
X6450Y10450
X7450Y10450
X8450Y10450
X9450Y10450
X10450Y10450
X11450Y10450
X12450Y10450
X13450Y10450
X14450Y10450
X15450Y10450
M30
