G75*
G70*
%OFA0B0*%
%FSLAX24Y24*%
%IPPOS*%
%LPD*%
%AMOC8*
5,1,8,0,0,1.08239X$1,22.5*
%
%ADD10C,0.0100*%
%ADD11C,0.0600*%
%ADD12C,0.0240*%
%ADD13C,0.0270*%
%ADD14C,0.0570*%
%ADD15C,0.0720*%
%ADD16C,0.0400*%
%ADD17C,0.0160*%
%ADD18C,0.0080*%
%ADD19C,0.0120*%
%ADD20C,0.0240*%
D10*
X001820Y001850D02*
X017340Y001840D01*
X018270Y002770D01*
X018270Y010130D01*
X017350Y011050D01*
X001820Y011050D01*
X001820Y001850D01*
X002020Y002050D02*
X002020Y003101D01*
X002045Y003040D01*
X002120Y002965D01*
X002217Y002925D01*
X002323Y002925D01*
X002420Y002965D01*
X002495Y003040D01*
X002535Y003137D01*
X002535Y003243D01*
X002495Y003340D01*
X002420Y003415D01*
X002323Y003455D01*
X002217Y003455D01*
X002120Y003415D01*
X002045Y003340D01*
X002020Y003279D01*
X002020Y004828D01*
X002035Y004792D01*
X002172Y004655D01*
X002353Y004580D01*
X002547Y004580D01*
X002728Y004655D01*
X002865Y004792D01*
X002940Y004973D01*
X002940Y005167D01*
X002865Y005348D01*
X002728Y005485D01*
X002547Y005560D01*
X002353Y005560D01*
X002172Y005485D01*
X002035Y005348D01*
X002020Y005312D01*
X002020Y005752D01*
X002038Y005708D01*
X002108Y005638D01*
X002200Y005600D01*
X002300Y005600D01*
X002392Y005638D01*
X002450Y005696D01*
X002508Y005638D01*
X002600Y005600D01*
X002700Y005600D01*
X002792Y005638D01*
X002862Y005708D01*
X002900Y005800D01*
X002900Y005900D01*
X002862Y005992D01*
X002792Y006062D01*
X002700Y006100D01*
X002600Y006100D01*
X002508Y006062D01*
X002450Y006004D01*
X002392Y006062D01*
X002300Y006100D01*
X002200Y006100D01*
X002108Y006062D01*
X002038Y005992D01*
X002020Y005948D01*
X002020Y006952D01*
X002038Y006908D01*
X002108Y006838D01*
X002200Y006800D01*
X002300Y006800D01*
X002392Y006838D01*
X002450Y006896D01*
X002508Y006838D01*
X002600Y006800D01*
X002700Y006800D01*
X002792Y006838D01*
X002862Y006908D01*
X002900Y007000D01*
X002900Y007100D01*
X002862Y007192D01*
X002792Y007262D01*
X002700Y007300D01*
X002600Y007300D01*
X002508Y007262D01*
X002450Y007204D01*
X002392Y007262D01*
X002300Y007300D01*
X002200Y007300D01*
X002108Y007262D01*
X002038Y007192D01*
X002020Y007148D01*
X002020Y007588D01*
X002035Y007552D01*
X002172Y007415D01*
X002353Y007340D01*
X002547Y007340D01*
X002728Y007415D01*
X002865Y007552D01*
X002940Y007733D01*
X003226Y007733D01*
X003275Y007782D02*
X003158Y007665D01*
X003095Y007513D01*
X003095Y007347D01*
X003158Y007195D01*
X003275Y007078D01*
X003427Y007015D01*
X003593Y007015D01*
X003745Y007078D01*
X003862Y007195D01*
X003925Y007347D01*
X003925Y007513D01*
X003862Y007665D01*
X003745Y007782D01*
X003593Y007845D01*
X003427Y007845D01*
X003275Y007782D01*
X003395Y007832D02*
X002940Y007832D01*
X002940Y007927D02*
X002940Y007733D01*
X002899Y007635D02*
X003146Y007635D01*
X003105Y007536D02*
X002849Y007536D01*
X002750Y007438D02*
X003095Y007438D01*
X003098Y007339D02*
X002020Y007339D01*
X002020Y007241D02*
X002087Y007241D01*
X002150Y007438D02*
X002020Y007438D01*
X002020Y007536D02*
X002051Y007536D01*
X002413Y007241D02*
X002487Y007241D01*
X002813Y007241D02*
X003139Y007241D01*
X003211Y007142D02*
X002882Y007142D01*
X002900Y007044D02*
X003359Y007044D01*
X003661Y007044D02*
X007502Y007044D01*
X007485Y007003D02*
X007485Y006897D01*
X007525Y006800D01*
X007600Y006725D01*
X007697Y006685D01*
X007803Y006685D01*
X007900Y006725D01*
X007975Y006800D01*
X008015Y006897D01*
X008015Y007003D01*
X007975Y007100D01*
X007900Y007175D01*
X007803Y007215D01*
X007697Y007215D01*
X007600Y007175D01*
X007525Y007100D01*
X007485Y007003D01*
X007485Y006945D02*
X005206Y006945D01*
X005170Y006960D02*
X005070Y006960D01*
X004978Y006922D01*
X004908Y006852D01*
X004870Y006760D01*
X004870Y006660D01*
X004800Y006660D01*
X004708Y006622D01*
X004638Y006552D01*
X004600Y006460D01*
X004600Y006360D01*
X004638Y006268D01*
X004708Y006198D01*
X004800Y006160D01*
X004860Y006160D01*
X004860Y006150D01*
X004898Y006058D01*
X004968Y005988D01*
X005060Y005950D01*
X005160Y005950D01*
X005252Y005988D01*
X005322Y006058D01*
X005360Y006150D01*
X005360Y006250D01*
X005322Y006342D01*
X005252Y006412D01*
X005160Y006450D01*
X005100Y006450D01*
X005100Y006460D01*
X005170Y006460D01*
X005262Y006498D01*
X005332Y006568D01*
X005370Y006660D01*
X005370Y006760D01*
X005332Y006852D01*
X005262Y006922D01*
X005170Y006960D01*
X005034Y006945D02*
X002877Y006945D01*
X002800Y006847D02*
X004906Y006847D01*
X004870Y006748D02*
X002020Y006748D01*
X002020Y006650D02*
X004775Y006650D01*
X004870Y006660D02*
X004870Y006660D01*
X005100Y006460D02*
X005100Y006460D01*
X005100Y006453D02*
X006185Y006453D01*
X006185Y006503D02*
X006185Y006397D01*
X006225Y006300D01*
X006300Y006225D01*
X006397Y006185D01*
X006503Y006185D01*
X006600Y006225D01*
X006675Y006300D01*
X006715Y006397D01*
X006715Y006503D01*
X006675Y006600D01*
X006600Y006675D01*
X006503Y006715D01*
X006397Y006715D01*
X006300Y006675D01*
X006225Y006600D01*
X006185Y006503D01*
X006205Y006551D02*
X005315Y006551D01*
X005366Y006650D02*
X006275Y006650D01*
X006203Y006354D02*
X005310Y006354D01*
X005358Y006256D02*
X006270Y006256D01*
X006630Y006256D02*
X007519Y006256D01*
X007500Y006300D02*
X007538Y006208D01*
X007586Y006161D01*
X007525Y006100D01*
X007485Y006003D01*
X007485Y005897D01*
X007525Y005800D01*
X007600Y005725D01*
X007697Y005685D01*
X007803Y005685D01*
X007900Y005725D01*
X007941Y005766D01*
X007968Y005738D01*
X008060Y005700D01*
X008160Y005700D01*
X008252Y005738D01*
X008322Y005808D01*
X008360Y005900D01*
X008360Y006000D01*
X008322Y006092D01*
X008252Y006162D01*
X008160Y006200D01*
X008060Y006200D01*
X007968Y006162D01*
X007941Y006134D01*
X007914Y006161D01*
X007962Y006208D01*
X008000Y006300D01*
X008000Y006400D01*
X007962Y006492D01*
X007892Y006562D01*
X007800Y006600D01*
X007700Y006600D01*
X007608Y006562D01*
X007538Y006492D01*
X007500Y006400D01*
X007500Y006300D01*
X007500Y006354D02*
X006697Y006354D01*
X006715Y006453D02*
X007522Y006453D01*
X007597Y006551D02*
X006695Y006551D01*
X006625Y006650D02*
X010300Y006650D01*
X010300Y006680D02*
X010300Y006580D01*
X010338Y006488D01*
X010408Y006418D01*
X010500Y006380D01*
X010600Y006380D01*
X010692Y006418D01*
X010757Y006483D01*
X010788Y006408D01*
X010796Y006400D01*
X010728Y006332D01*
X010690Y006240D01*
X010690Y006140D01*
X010728Y006048D01*
X010798Y005978D01*
X010890Y005940D01*
X010990Y005940D01*
X011082Y005978D01*
X011095Y005991D01*
X011108Y005958D01*
X011178Y005888D01*
X011270Y005850D01*
X011370Y005850D01*
X011462Y005888D01*
X011532Y005958D01*
X011570Y006050D01*
X011570Y006150D01*
X011532Y006242D01*
X011462Y006312D01*
X011370Y006350D01*
X011270Y006350D01*
X011178Y006312D01*
X011165Y006299D01*
X011152Y006332D01*
X011144Y006340D01*
X011212Y006408D01*
X011250Y006500D01*
X011250Y006600D01*
X011212Y006692D01*
X011142Y006762D01*
X011050Y006800D01*
X010950Y006800D01*
X010858Y006762D01*
X010793Y006697D01*
X010762Y006772D01*
X010692Y006842D01*
X010600Y006880D01*
X010500Y006880D01*
X010408Y006842D01*
X010338Y006772D01*
X010300Y006680D01*
X010328Y006748D02*
X008923Y006748D01*
X008900Y006725D02*
X008975Y006800D01*
X009015Y006897D01*
X009015Y007003D01*
X008975Y007100D01*
X008900Y007175D01*
X008803Y007215D01*
X008697Y007215D01*
X008600Y007175D01*
X008525Y007100D01*
X008485Y007003D01*
X008485Y006897D01*
X008525Y006800D01*
X008600Y006725D01*
X008697Y006685D01*
X008803Y006685D01*
X008900Y006725D01*
X008994Y006847D02*
X010419Y006847D01*
X010420Y006940D02*
X010520Y006940D01*
X010612Y006978D01*
X010682Y007048D01*
X010720Y007140D01*
X010720Y007240D01*
X010682Y007332D01*
X010644Y007370D01*
X010672Y007398D01*
X010710Y007490D01*
X010710Y007590D01*
X010672Y007682D01*
X010602Y007752D01*
X010510Y007790D01*
X010410Y007790D01*
X010318Y007752D01*
X010248Y007682D01*
X010232Y007643D01*
X010212Y007692D01*
X010142Y007762D01*
X010050Y007800D01*
X009950Y007800D01*
X009858Y007762D01*
X009788Y007692D01*
X009783Y007680D01*
X009772Y007692D01*
X009680Y007730D01*
X009580Y007730D01*
X009488Y007692D01*
X009418Y007622D01*
X009380Y007530D01*
X009380Y007430D01*
X009418Y007338D01*
X009488Y007268D01*
X009580Y007230D01*
X009680Y007230D01*
X009772Y007268D01*
X009842Y007338D01*
X009847Y007350D01*
X009858Y007338D01*
X009950Y007300D01*
X010050Y007300D01*
X010142Y007338D01*
X010212Y007408D01*
X010228Y007447D01*
X010248Y007398D01*
X010286Y007360D01*
X010258Y007332D01*
X010220Y007240D01*
X010220Y007140D01*
X010258Y007048D01*
X010328Y006978D01*
X010420Y006940D01*
X010408Y006945D02*
X009015Y006945D01*
X008998Y007044D02*
X010263Y007044D01*
X010220Y007142D02*
X008933Y007142D01*
X008567Y007142D02*
X007933Y007142D01*
X007998Y007044D02*
X008502Y007044D01*
X008485Y006945D02*
X008015Y006945D01*
X007994Y006847D02*
X008506Y006847D01*
X008577Y006748D02*
X007923Y006748D01*
X007903Y006551D02*
X010312Y006551D01*
X010374Y006453D02*
X007978Y006453D01*
X008000Y006354D02*
X010750Y006354D01*
X010726Y006453D02*
X010770Y006453D01*
X010697Y006256D02*
X007981Y006256D01*
X007963Y006157D02*
X007918Y006157D01*
X007582Y006157D02*
X005360Y006157D01*
X005322Y006059D02*
X007508Y006059D01*
X007485Y005960D02*
X005184Y005960D01*
X005036Y005960D02*
X002875Y005960D01*
X002900Y005862D02*
X003371Y005862D01*
X003427Y005885D02*
X003275Y005822D01*
X003158Y005705D01*
X003095Y005553D01*
X003095Y005387D01*
X003158Y005235D01*
X003275Y005118D01*
X003317Y005101D01*
X003243Y005070D01*
X003150Y004977D01*
X003100Y004856D01*
X003100Y004204D01*
X003150Y004083D01*
X003243Y003990D01*
X003963Y003270D01*
X004084Y003220D01*
X006413Y003220D01*
X006863Y002770D01*
X006984Y002720D01*
X007112Y002720D01*
X007085Y002694D01*
X007020Y002536D01*
X007020Y002364D01*
X007085Y002206D01*
X007206Y002085D01*
X007301Y002046D01*
X006601Y002047D01*
X006694Y002085D01*
X006815Y002206D01*
X006880Y002364D01*
X006880Y002536D01*
X006815Y002694D01*
X006694Y002815D01*
X006536Y002880D01*
X006364Y002880D01*
X006206Y002815D01*
X006200Y002808D01*
X006200Y002900D01*
X006162Y002992D01*
X006092Y003062D01*
X006000Y003100D01*
X005900Y003100D01*
X005808Y003062D01*
X005738Y002992D01*
X005700Y002900D01*
X005700Y002808D01*
X005694Y002815D01*
X005536Y002880D01*
X005364Y002880D01*
X005305Y002855D01*
X005305Y002953D01*
X005265Y003050D01*
X005190Y003125D01*
X005093Y003165D01*
X004987Y003165D01*
X004890Y003125D01*
X004815Y003050D01*
X004775Y002953D01*
X004775Y002847D01*
X004815Y002750D01*
X004890Y002675D01*
X004987Y002635D01*
X005061Y002635D01*
X005020Y002536D01*
X005020Y002364D01*
X005085Y002206D01*
X005206Y002085D01*
X005297Y002048D01*
X004604Y002048D01*
X004694Y002085D01*
X004815Y002206D01*
X004880Y002364D01*
X004880Y002536D01*
X004815Y002694D01*
X004694Y002815D01*
X004536Y002880D01*
X004364Y002880D01*
X004206Y002815D01*
X004085Y002694D01*
X004020Y002536D01*
X004020Y002364D01*
X004085Y002206D01*
X004206Y002085D01*
X004296Y002048D01*
X003605Y002049D01*
X003694Y002085D01*
X003815Y002206D01*
X003880Y002364D01*
X003880Y002536D01*
X003815Y002694D01*
X003694Y002815D01*
X003536Y002880D01*
X003364Y002880D01*
X003206Y002815D01*
X003085Y002694D01*
X003020Y002536D01*
X003020Y002364D01*
X003085Y002206D01*
X003206Y002085D01*
X003294Y002049D01*
X002607Y002049D01*
X002694Y002085D01*
X002815Y002206D01*
X002880Y002364D01*
X002880Y002536D01*
X002815Y002694D01*
X002694Y002815D01*
X002536Y002880D01*
X002364Y002880D01*
X002206Y002815D01*
X002085Y002694D01*
X002020Y002536D01*
X002020Y002364D01*
X002085Y002206D01*
X002206Y002085D01*
X002293Y002050D01*
X002020Y002050D01*
X002020Y002119D02*
X002173Y002119D01*
X002081Y002217D02*
X002020Y002217D01*
X002020Y002316D02*
X002040Y002316D01*
X002020Y002414D02*
X002020Y002414D01*
X002020Y002513D02*
X002020Y002513D01*
X002020Y002611D02*
X002051Y002611D01*
X002020Y002710D02*
X002101Y002710D01*
X002020Y002808D02*
X002200Y002808D01*
X002020Y002907D02*
X004775Y002907D01*
X004791Y002808D02*
X004700Y002808D01*
X004799Y002710D02*
X004856Y002710D01*
X004849Y002611D02*
X005051Y002611D01*
X005020Y002513D02*
X004880Y002513D01*
X004880Y002414D02*
X005020Y002414D01*
X005040Y002316D02*
X004860Y002316D01*
X004819Y002217D02*
X005081Y002217D01*
X005173Y002119D02*
X004727Y002119D01*
X004173Y002119D02*
X003727Y002119D01*
X003819Y002217D02*
X004081Y002217D01*
X004040Y002316D02*
X003860Y002316D01*
X003880Y002414D02*
X004020Y002414D01*
X004020Y002513D02*
X003880Y002513D01*
X003849Y002611D02*
X004051Y002611D01*
X004101Y002710D02*
X003799Y002710D01*
X003700Y002808D02*
X004200Y002808D01*
X004797Y003005D02*
X002460Y003005D01*
X002521Y003104D02*
X004869Y003104D01*
X005211Y003104D02*
X006530Y003104D01*
X006431Y003202D02*
X002535Y003202D01*
X002511Y003301D02*
X003933Y003301D01*
X003834Y003399D02*
X002436Y003399D01*
X002104Y003399D02*
X002020Y003399D01*
X002020Y003301D02*
X002029Y003301D01*
X002020Y003498D02*
X003736Y003498D01*
X003637Y003596D02*
X002020Y003596D01*
X002020Y003695D02*
X003539Y003695D01*
X003440Y003793D02*
X002020Y003793D01*
X002020Y003892D02*
X003342Y003892D01*
X003243Y003990D02*
X002020Y003990D01*
X002020Y004089D02*
X003148Y004089D01*
X003107Y004187D02*
X002020Y004187D01*
X002020Y004286D02*
X003100Y004286D01*
X003100Y004384D02*
X002020Y004384D01*
X002020Y004483D02*
X003100Y004483D01*
X003100Y004581D02*
X002550Y004581D01*
X002350Y004581D02*
X002020Y004581D01*
X002020Y004680D02*
X002148Y004680D01*
X002049Y004778D02*
X002020Y004778D01*
X002020Y005369D02*
X002056Y005369D01*
X002020Y005468D02*
X002155Y005468D01*
X002020Y005566D02*
X003101Y005566D01*
X003095Y005468D02*
X002745Y005468D01*
X002844Y005369D02*
X003103Y005369D01*
X003143Y005271D02*
X002897Y005271D01*
X002938Y005172D02*
X003221Y005172D01*
X003252Y005074D02*
X002940Y005074D01*
X002940Y004975D02*
X003149Y004975D01*
X003109Y004877D02*
X002900Y004877D01*
X002851Y004778D02*
X003100Y004778D01*
X003100Y004680D02*
X002752Y004680D01*
X003620Y005066D02*
X003710Y004977D01*
X003760Y004856D01*
X003760Y004407D01*
X004287Y003880D01*
X006616Y003880D01*
X006737Y003830D01*
X006830Y003737D01*
X007142Y003424D01*
X007165Y003480D01*
X007240Y003555D01*
X007337Y003595D01*
X007443Y003595D01*
X007540Y003555D01*
X007615Y003480D01*
X007655Y003383D01*
X007655Y003277D01*
X007627Y003210D01*
X008413Y003210D01*
X009140Y003937D01*
X009263Y004060D01*
X009837Y004060D01*
X010337Y003560D01*
X011437Y003560D01*
X011737Y003260D01*
X011746Y003260D01*
X011718Y003288D01*
X011680Y003380D01*
X011680Y003480D01*
X011718Y003572D01*
X011751Y003605D01*
X011688Y003668D01*
X011650Y003760D01*
X011650Y003860D01*
X011688Y003952D01*
X011731Y003995D01*
X011698Y004028D01*
X011660Y004120D01*
X011660Y004220D01*
X011698Y004312D01*
X011768Y004382D01*
X011860Y004420D01*
X011960Y004420D01*
X012052Y004382D01*
X012115Y004319D01*
X012118Y004322D01*
X012210Y004360D01*
X012310Y004360D01*
X012402Y004322D01*
X012472Y004252D01*
X012510Y004160D01*
X012510Y004105D01*
X012583Y004105D01*
X012680Y004065D01*
X012755Y003990D01*
X012776Y003990D01*
X012761Y003975D02*
X012755Y003990D01*
X012761Y003975D02*
X012808Y004022D01*
X012900Y004060D01*
X013000Y004060D01*
X013092Y004022D01*
X013162Y003952D01*
X013200Y003860D01*
X013200Y003760D01*
X013162Y003668D01*
X013154Y003660D01*
X013637Y003660D01*
X014037Y003260D01*
X014141Y003260D01*
X014105Y003347D01*
X014105Y003453D01*
X014145Y003550D01*
X014220Y003625D01*
X014317Y003665D01*
X014423Y003665D01*
X014520Y003625D01*
X014595Y003550D01*
X014633Y003459D01*
X014660Y003470D01*
X014760Y003470D01*
X014852Y003432D01*
X014922Y003362D01*
X014960Y003270D01*
X014960Y003170D01*
X014945Y003135D01*
X014993Y003135D01*
X015090Y003095D01*
X015165Y003020D01*
X015205Y002923D01*
X015205Y002817D01*
X015202Y002810D01*
X015206Y002815D01*
X015364Y002880D01*
X015536Y002880D01*
X015694Y002815D01*
X015800Y002708D01*
X015800Y002800D01*
X015838Y002892D01*
X015896Y002950D01*
X015838Y003008D01*
X015800Y003100D01*
X015800Y003162D01*
X015783Y003155D01*
X015677Y003155D01*
X015580Y003195D01*
X015505Y003270D01*
X015465Y003367D01*
X015465Y003473D01*
X015505Y003570D01*
X015580Y003645D01*
X015630Y003665D01*
X015630Y003750D01*
X015500Y003880D01*
X015080Y003880D01*
X014900Y004060D01*
X014871Y004060D01*
X013660Y005271D01*
X013660Y005885D01*
X013600Y005825D01*
X013503Y005785D01*
X013397Y005785D01*
X013300Y005825D01*
X013225Y005900D01*
X013185Y005997D01*
X013185Y006103D01*
X013225Y006200D01*
X013300Y006275D01*
X013397Y006315D01*
X013503Y006315D01*
X013600Y006275D01*
X013660Y006215D01*
X013660Y006685D01*
X013600Y006625D01*
X013503Y006585D01*
X013397Y006585D01*
X013300Y006625D01*
X013225Y006700D01*
X013185Y006797D01*
X013185Y006903D01*
X013225Y007000D01*
X013300Y007075D01*
X013397Y007115D01*
X013416Y007115D01*
X012571Y007960D01*
X009971Y007960D01*
X009271Y008660D01*
X008171Y008660D01*
X007965Y008866D01*
X007965Y008767D01*
X007925Y008670D01*
X007850Y008595D01*
X007753Y008555D01*
X007647Y008555D01*
X007550Y008595D01*
X007475Y008670D01*
X007435Y008767D01*
X007435Y008873D01*
X007458Y008927D01*
X007390Y008955D01*
X007315Y009030D01*
X007275Y009127D01*
X007275Y009205D01*
X007237Y009205D01*
X007140Y009245D01*
X007065Y009320D01*
X007025Y009417D01*
X007025Y009523D01*
X007036Y009549D01*
X006240Y008753D01*
X006240Y008435D01*
X006250Y008425D01*
X006300Y008475D01*
X006397Y008515D01*
X006503Y008515D01*
X006600Y008475D01*
X006675Y008400D01*
X006715Y008303D01*
X006715Y008197D01*
X006675Y008100D01*
X006600Y008025D01*
X006503Y007985D01*
X006397Y007985D01*
X006300Y008025D01*
X006250Y008075D01*
X006200Y008025D01*
X006103Y007985D01*
X005997Y007985D01*
X005900Y008025D01*
X005825Y008100D01*
X005785Y008197D01*
X005785Y008303D01*
X005825Y008400D01*
X005860Y008435D01*
X005860Y008753D01*
X005840Y008773D01*
X005840Y008947D01*
X006903Y010010D01*
X007077Y010010D01*
X007097Y009990D01*
X007685Y009990D01*
X007685Y010003D01*
X007725Y010100D01*
X007800Y010175D01*
X007897Y010215D01*
X008003Y010215D01*
X008100Y010175D01*
X008175Y010100D01*
X008215Y010003D01*
X008215Y009897D01*
X008175Y009800D01*
X008100Y009725D01*
X008060Y009709D01*
X008161Y009608D01*
X008160Y009610D01*
X008160Y009710D01*
X008198Y009802D01*
X008268Y009872D01*
X008360Y009910D01*
X008460Y009910D01*
X008552Y009872D01*
X008622Y009802D01*
X008660Y009710D01*
X008660Y009610D01*
X008622Y009518D01*
X008604Y009500D01*
X009786Y009500D01*
X009758Y009528D01*
X009720Y009620D01*
X009720Y009720D01*
X009758Y009812D01*
X009828Y009882D01*
X009920Y009920D01*
X010020Y009920D01*
X010112Y009882D01*
X010165Y009829D01*
X010198Y009862D01*
X010290Y009900D01*
X010390Y009900D01*
X010482Y009862D01*
X010495Y009849D01*
X010508Y009862D01*
X010600Y009900D01*
X010700Y009900D01*
X010068Y009900D01*
X009872Y009900D02*
X008484Y009900D01*
X008536Y010020D02*
X008364Y010020D01*
X008206Y010085D01*
X008085Y010206D01*
X008020Y010364D01*
X008020Y010536D01*
X008085Y010694D01*
X008206Y010815D01*
X008292Y010850D01*
X007608Y010850D01*
X007694Y010815D01*
X007815Y010694D01*
X007880Y010536D01*
X007880Y010364D01*
X007815Y010206D01*
X007694Y010085D01*
X007536Y010020D01*
X007364Y010020D01*
X007206Y010085D01*
X007085Y010206D01*
X007020Y010364D01*
X007020Y010536D01*
X007085Y010694D01*
X007206Y010815D01*
X007292Y010850D01*
X006608Y010850D01*
X006694Y010815D01*
X006815Y010694D01*
X006880Y010536D01*
X006880Y010364D01*
X006815Y010206D01*
X006694Y010085D01*
X006536Y010020D01*
X006364Y010020D01*
X006206Y010085D01*
X006085Y010206D01*
X006020Y010364D01*
X006020Y010536D01*
X006085Y010694D01*
X006206Y010815D01*
X006292Y010850D01*
X005608Y010850D01*
X005694Y010815D01*
X005815Y010694D01*
X005880Y010536D01*
X005880Y010364D01*
X005815Y010206D01*
X005694Y010085D01*
X005536Y010020D01*
X005364Y010020D01*
X005206Y010085D01*
X005085Y010206D01*
X005020Y010364D01*
X005020Y010536D01*
X005085Y010694D01*
X005206Y010815D01*
X005292Y010850D01*
X004608Y010850D01*
X004694Y010815D01*
X004815Y010694D01*
X004880Y010536D01*
X004880Y010364D01*
X004815Y010206D01*
X004694Y010085D01*
X004536Y010020D01*
X004364Y010020D01*
X004206Y010085D01*
X004085Y010206D01*
X004020Y010364D01*
X004020Y010536D01*
X004085Y010694D01*
X004206Y010815D01*
X004292Y010850D01*
X003608Y010850D01*
X003694Y010815D01*
X003815Y010694D01*
X003880Y010536D01*
X003880Y010364D01*
X003815Y010206D01*
X003694Y010085D01*
X003536Y010020D01*
X003364Y010020D01*
X003206Y010085D01*
X003085Y010206D01*
X003020Y010364D01*
X003020Y010536D01*
X003085Y010694D01*
X003206Y010815D01*
X003292Y010850D01*
X002608Y010850D01*
X002694Y010815D01*
X002815Y010694D01*
X002880Y010536D01*
X002880Y010364D01*
X002815Y010206D01*
X002694Y010085D01*
X002536Y010020D01*
X002364Y010020D01*
X002206Y010085D01*
X002085Y010206D01*
X002020Y010364D01*
X002020Y010536D01*
X002085Y010694D01*
X002206Y010815D01*
X002292Y010850D01*
X002020Y010850D01*
X002020Y008072D01*
X002035Y008108D01*
X002172Y008245D01*
X002353Y008320D01*
X002547Y008320D01*
X002728Y008245D01*
X002865Y008108D01*
X002940Y007927D01*
X002939Y007930D02*
X004628Y007930D01*
X004625Y007937D02*
X004665Y007840D01*
X004740Y007765D01*
X004745Y007763D01*
X004710Y007680D01*
X004710Y007580D01*
X004748Y007488D01*
X004818Y007418D01*
X004910Y007380D01*
X005010Y007380D01*
X005102Y007418D01*
X005172Y007488D01*
X005210Y007580D01*
X005210Y007680D01*
X005172Y007772D01*
X005109Y007834D01*
X005115Y007840D01*
X005155Y007937D01*
X005155Y008043D01*
X005115Y008140D01*
X005040Y008215D01*
X004943Y008255D01*
X004837Y008255D01*
X004740Y008215D01*
X004665Y008140D01*
X004625Y008043D01*
X004625Y007937D01*
X004625Y008029D02*
X003469Y008029D01*
X003492Y008038D02*
X003562Y008108D01*
X003600Y008200D01*
X003600Y008300D01*
X003562Y008392D01*
X003492Y008462D01*
X003400Y008500D01*
X003300Y008500D01*
X003208Y008462D01*
X003138Y008392D01*
X003100Y008300D01*
X003100Y008200D01*
X003138Y008108D01*
X003208Y008038D01*
X003300Y008000D01*
X003400Y008000D01*
X003492Y008038D01*
X003570Y008127D02*
X004660Y008127D01*
X004766Y008226D02*
X003600Y008226D01*
X003590Y008324D02*
X005794Y008324D01*
X005785Y008226D02*
X005014Y008226D01*
X005120Y008127D02*
X005814Y008127D01*
X005897Y008029D02*
X005155Y008029D01*
X005152Y007930D02*
X012601Y007930D01*
X012700Y007832D02*
X012422Y007832D01*
X012412Y007842D02*
X012320Y007880D01*
X012220Y007880D01*
X012128Y007842D01*
X012058Y007772D01*
X012020Y007680D01*
X012020Y007580D01*
X012058Y007488D01*
X012128Y007418D01*
X012220Y007380D01*
X012254Y007380D01*
X012460Y007180D01*
X012460Y006074D01*
X012452Y006082D01*
X012360Y006120D01*
X012260Y006120D01*
X012168Y006082D01*
X012098Y006012D01*
X012086Y005983D01*
X012020Y006010D01*
X011920Y006010D01*
X011828Y005972D01*
X011758Y005902D01*
X011720Y005810D01*
X011720Y005710D01*
X011758Y005618D01*
X011828Y005548D01*
X011920Y005510D01*
X012020Y005510D01*
X012112Y005548D01*
X012182Y005618D01*
X012194Y005647D01*
X012260Y005620D01*
X012360Y005620D01*
X012452Y005658D01*
X012460Y005666D01*
X012460Y005569D01*
X012331Y005440D01*
X012300Y005440D01*
X012208Y005402D01*
X012138Y005332D01*
X012117Y005280D01*
X012070Y005300D01*
X011970Y005300D01*
X011878Y005262D01*
X011808Y005192D01*
X011770Y005100D01*
X011770Y005000D01*
X011808Y004908D01*
X011878Y004838D01*
X011970Y004800D01*
X012070Y004800D01*
X012162Y004838D01*
X012232Y004908D01*
X012253Y004960D01*
X012300Y004940D01*
X012400Y004940D01*
X012492Y004978D01*
X012562Y005048D01*
X012600Y005140D01*
X012600Y005171D01*
X012840Y005411D01*
X012840Y007183D01*
X012841Y007184D01*
X012840Y007261D01*
X012840Y007339D01*
X012839Y007340D01*
X012839Y007341D01*
X012783Y007395D01*
X012729Y007450D01*
X012727Y007450D01*
X012520Y007652D01*
X012520Y007680D01*
X012482Y007772D01*
X012412Y007842D01*
X012498Y007733D02*
X012798Y007733D01*
X012897Y007635D02*
X012538Y007635D01*
X012639Y007536D02*
X012995Y007536D01*
X013094Y007438D02*
X012741Y007438D01*
X012840Y007339D02*
X013192Y007339D01*
X013291Y007241D02*
X012840Y007241D01*
X012840Y007142D02*
X013389Y007142D01*
X013269Y007044D02*
X012840Y007044D01*
X012840Y006945D02*
X013203Y006945D01*
X013185Y006847D02*
X012840Y006847D01*
X012840Y006748D02*
X013205Y006748D01*
X013276Y006650D02*
X012840Y006650D01*
X012840Y006551D02*
X013660Y006551D01*
X013660Y006453D02*
X012840Y006453D01*
X012840Y006354D02*
X013660Y006354D01*
X013660Y006256D02*
X013619Y006256D01*
X013281Y006256D02*
X012840Y006256D01*
X012840Y006157D02*
X013207Y006157D01*
X013185Y006059D02*
X012840Y006059D01*
X012840Y005960D02*
X013200Y005960D01*
X013264Y005862D02*
X012840Y005862D01*
X012840Y005763D02*
X013660Y005763D01*
X013660Y005665D02*
X012840Y005665D01*
X012840Y005566D02*
X013660Y005566D01*
X013660Y005468D02*
X012840Y005468D01*
X012798Y005369D02*
X013660Y005369D01*
X013661Y005271D02*
X012699Y005271D01*
X012601Y005172D02*
X013759Y005172D01*
X013858Y005074D02*
X012572Y005074D01*
X012484Y004975D02*
X013956Y004975D01*
X014055Y004877D02*
X012200Y004877D01*
X011840Y004877D02*
X005815Y004877D01*
X005815Y004903D02*
X005815Y004797D01*
X005775Y004700D01*
X005700Y004625D01*
X005603Y004585D01*
X005497Y004585D01*
X005400Y004625D01*
X005325Y004700D01*
X005285Y004797D01*
X005285Y004903D01*
X005325Y005000D01*
X005400Y005075D01*
X005497Y005115D01*
X005603Y005115D01*
X005700Y005075D01*
X005775Y005000D01*
X005815Y004903D01*
X005785Y004975D02*
X011780Y004975D01*
X011770Y005074D02*
X005701Y005074D01*
X005399Y005074D02*
X003637Y005074D01*
X003620Y005066D02*
X003745Y005118D01*
X003862Y005235D01*
X003925Y005387D01*
X003925Y005553D01*
X003862Y005705D01*
X003745Y005822D01*
X003593Y005885D01*
X003427Y005885D01*
X003649Y005862D02*
X007500Y005862D01*
X007562Y005763D02*
X003804Y005763D01*
X003879Y005665D02*
X011739Y005665D01*
X011720Y005763D02*
X008938Y005763D01*
X008975Y005800D02*
X008900Y005725D01*
X008803Y005685D01*
X008697Y005685D01*
X008600Y005725D01*
X008525Y005800D01*
X008485Y005897D01*
X008485Y006003D01*
X008525Y006100D01*
X008600Y006175D01*
X008697Y006215D01*
X008803Y006215D01*
X008900Y006175D01*
X008975Y006100D01*
X009015Y006003D01*
X009015Y005897D01*
X008975Y005800D01*
X009000Y005862D02*
X011242Y005862D01*
X011398Y005862D02*
X011741Y005862D01*
X011816Y005960D02*
X011533Y005960D01*
X011570Y006059D02*
X012145Y006059D01*
X012460Y006157D02*
X011567Y006157D01*
X011518Y006256D02*
X012460Y006256D01*
X012460Y006354D02*
X011158Y006354D01*
X011230Y006453D02*
X012460Y006453D01*
X012460Y006551D02*
X011250Y006551D01*
X011229Y006650D02*
X012460Y006650D01*
X012460Y006748D02*
X011156Y006748D01*
X010844Y006748D02*
X010772Y006748D01*
X010681Y006847D02*
X012460Y006847D01*
X012460Y006945D02*
X010532Y006945D01*
X010677Y007044D02*
X012460Y007044D01*
X012460Y007142D02*
X010720Y007142D01*
X010720Y007241D02*
X012398Y007241D01*
X012296Y007339D02*
X010675Y007339D01*
X010688Y007438D02*
X012109Y007438D01*
X012038Y007536D02*
X010710Y007536D01*
X010691Y007635D02*
X012020Y007635D01*
X012042Y007733D02*
X010621Y007733D01*
X010299Y007733D02*
X010171Y007733D01*
X010224Y007438D02*
X010232Y007438D01*
X010265Y007339D02*
X010143Y007339D01*
X010220Y007241D02*
X009705Y007241D01*
X009555Y007241D02*
X003881Y007241D01*
X003922Y007339D02*
X009418Y007339D01*
X009380Y007438D02*
X005121Y007438D01*
X005192Y007536D02*
X009383Y007536D01*
X009431Y007635D02*
X005210Y007635D01*
X005188Y007733D02*
X009829Y007733D01*
X009903Y008029D02*
X006603Y008029D01*
X006686Y008127D02*
X009804Y008127D01*
X009706Y008226D02*
X006715Y008226D01*
X006706Y008324D02*
X009607Y008324D01*
X009509Y008423D02*
X006652Y008423D01*
X006240Y008521D02*
X009410Y008521D01*
X009312Y008620D02*
X007874Y008620D01*
X007945Y008718D02*
X008113Y008718D01*
X008015Y008817D02*
X007965Y008817D01*
X007526Y008620D02*
X006240Y008620D01*
X006240Y008718D02*
X007455Y008718D01*
X007435Y008817D02*
X006304Y008817D01*
X006402Y008915D02*
X007453Y008915D01*
X007332Y009014D02*
X006501Y009014D01*
X006599Y009112D02*
X007281Y009112D01*
X007224Y009211D02*
X006698Y009211D01*
X006796Y009309D02*
X007076Y009309D01*
X007029Y009408D02*
X006895Y009408D01*
X006993Y009506D02*
X007025Y009506D01*
X006695Y009802D02*
X005279Y009802D01*
X005280Y009800D02*
X005242Y009892D01*
X005172Y009962D01*
X005080Y010000D01*
X004980Y010000D01*
X004888Y009962D01*
X004818Y009892D01*
X004780Y009800D01*
X004780Y009728D01*
X004694Y009815D01*
X004536Y009880D01*
X004364Y009880D01*
X004206Y009815D01*
X004085Y009694D01*
X004020Y009536D01*
X004020Y009364D01*
X004085Y009206D01*
X004206Y009085D01*
X004364Y009020D01*
X004536Y009020D01*
X004694Y009085D01*
X004815Y009206D01*
X004880Y009364D01*
X004880Y009536D01*
X004872Y009554D01*
X004888Y009538D01*
X004980Y009500D01*
X005080Y009500D01*
X005172Y009538D01*
X005242Y009608D01*
X005280Y009700D01*
X005280Y009800D01*
X005280Y009703D02*
X006596Y009703D01*
X006498Y009605D02*
X005238Y009605D01*
X005094Y009506D02*
X006399Y009506D01*
X006301Y009408D02*
X004880Y009408D01*
X004880Y009506D02*
X004966Y009506D01*
X004857Y009309D02*
X006202Y009309D01*
X006104Y009211D02*
X004816Y009211D01*
X004720Y009112D02*
X006005Y009112D01*
X005907Y009014D02*
X002020Y009014D01*
X002020Y009112D02*
X002180Y009112D01*
X002206Y009085D02*
X002364Y009020D01*
X002536Y009020D01*
X002694Y009085D01*
X002815Y009206D01*
X002880Y009364D01*
X002880Y009536D01*
X002815Y009694D01*
X002694Y009815D01*
X002536Y009880D01*
X002364Y009880D01*
X002206Y009815D01*
X002085Y009694D01*
X002020Y009536D01*
X002020Y009364D01*
X002085Y009206D01*
X002206Y009085D01*
X002084Y009211D02*
X002020Y009211D01*
X002020Y009309D02*
X002043Y009309D01*
X002020Y009408D02*
X002020Y009408D01*
X002020Y009506D02*
X002020Y009506D01*
X002020Y009605D02*
X002049Y009605D01*
X002020Y009703D02*
X002095Y009703D01*
X002020Y009802D02*
X002193Y009802D01*
X002020Y009900D02*
X004826Y009900D01*
X004781Y009802D02*
X004707Y009802D01*
X004977Y009999D02*
X002020Y009999D01*
X002020Y010097D02*
X002195Y010097D01*
X002096Y010196D02*
X002020Y010196D01*
X002020Y010294D02*
X002049Y010294D01*
X002020Y010393D02*
X002020Y010393D01*
X002020Y010491D02*
X002020Y010491D01*
X002020Y010590D02*
X002042Y010590D01*
X002020Y010688D02*
X002083Y010688D01*
X002020Y010787D02*
X002178Y010787D01*
X002722Y010787D02*
X003178Y010787D01*
X003083Y010688D02*
X002817Y010688D01*
X002858Y010590D02*
X003042Y010590D01*
X003020Y010491D02*
X002880Y010491D01*
X002880Y010393D02*
X003020Y010393D01*
X003049Y010294D02*
X002851Y010294D01*
X002804Y010196D02*
X003096Y010196D01*
X003195Y010097D02*
X002705Y010097D01*
X002707Y009802D02*
X003193Y009802D01*
X003206Y009815D02*
X003085Y009694D01*
X003020Y009536D01*
X003020Y009364D01*
X003085Y009206D01*
X003206Y009085D01*
X003364Y009020D01*
X003536Y009020D01*
X003694Y009085D01*
X003815Y009206D01*
X003880Y009364D01*
X003880Y009536D01*
X003815Y009694D01*
X003694Y009815D01*
X003536Y009880D01*
X003364Y009880D01*
X003206Y009815D01*
X003095Y009703D02*
X002805Y009703D01*
X002851Y009605D02*
X003049Y009605D01*
X003020Y009506D02*
X002880Y009506D01*
X002880Y009408D02*
X003020Y009408D01*
X003043Y009309D02*
X002857Y009309D01*
X002816Y009211D02*
X003084Y009211D01*
X003180Y009112D02*
X002720Y009112D01*
X002020Y008915D02*
X005840Y008915D01*
X005840Y008817D02*
X002020Y008817D01*
X002020Y008718D02*
X005860Y008718D01*
X005860Y008620D02*
X002020Y008620D01*
X002020Y008521D02*
X005860Y008521D01*
X005848Y008423D02*
X003531Y008423D01*
X003169Y008423D02*
X002020Y008423D01*
X002020Y008324D02*
X003110Y008324D01*
X003100Y008226D02*
X002747Y008226D01*
X002846Y008127D02*
X003130Y008127D01*
X003231Y008029D02*
X002898Y008029D01*
X003625Y007832D02*
X004674Y007832D01*
X004732Y007733D02*
X003794Y007733D01*
X003874Y007635D02*
X004710Y007635D01*
X004728Y007536D02*
X003915Y007536D01*
X003925Y007438D02*
X004799Y007438D01*
X005112Y007832D02*
X012118Y007832D01*
X013134Y008620D02*
X015000Y008620D01*
X015000Y008600D02*
X015038Y008508D01*
X015096Y008450D01*
X015038Y008392D01*
X015000Y008300D01*
X015000Y008200D01*
X015038Y008108D01*
X015096Y008050D01*
X015038Y007992D01*
X015014Y007934D01*
X014963Y007955D01*
X014857Y007955D01*
X014760Y007915D01*
X014685Y007840D01*
X014645Y007743D01*
X014645Y007637D01*
X014665Y007588D01*
X014500Y007754D01*
X014500Y008000D01*
X014462Y008092D01*
X014162Y008392D01*
X014092Y008462D01*
X014000Y008500D01*
X013254Y008500D01*
X012662Y009092D01*
X012592Y009162D01*
X012500Y009200D01*
X012054Y009200D01*
X011862Y009392D01*
X011792Y009462D01*
X011700Y009500D01*
X010854Y009500D01*
X010862Y009508D01*
X010900Y009600D01*
X010900Y009660D01*
X010900Y009660D01*
X011000Y009660D01*
X011092Y009698D01*
X011162Y009768D01*
X011200Y009860D01*
X011200Y009960D01*
X011162Y010052D01*
X011092Y010122D01*
X011000Y010160D01*
X010900Y010160D01*
X010808Y010122D01*
X010738Y010052D01*
X010700Y009960D01*
X010700Y009900D01*
X010700Y009900D01*
X010716Y009999D02*
X008215Y009999D01*
X008215Y009900D02*
X008336Y009900D01*
X008198Y009802D02*
X008175Y009802D01*
X008160Y009703D02*
X008066Y009703D01*
X007685Y009999D02*
X007088Y009999D01*
X007195Y010097D02*
X006705Y010097D01*
X006804Y010196D02*
X007096Y010196D01*
X007049Y010294D02*
X006851Y010294D01*
X006880Y010393D02*
X007020Y010393D01*
X007020Y010491D02*
X006880Y010491D01*
X006858Y010590D02*
X007042Y010590D01*
X007083Y010688D02*
X006817Y010688D01*
X006722Y010787D02*
X007178Y010787D01*
X007722Y010787D02*
X008178Y010787D01*
X008083Y010688D02*
X007817Y010688D01*
X007858Y010590D02*
X008042Y010590D01*
X008020Y010491D02*
X007880Y010491D01*
X007880Y010393D02*
X008020Y010393D01*
X008049Y010294D02*
X007851Y010294D01*
X007850Y010196D02*
X007804Y010196D01*
X007724Y010097D02*
X007705Y010097D01*
X008050Y010196D02*
X008096Y010196D01*
X008176Y010097D02*
X008195Y010097D01*
X008536Y010020D02*
X008694Y010085D01*
X008815Y010206D01*
X008880Y010364D01*
X008880Y010536D01*
X008815Y010694D01*
X008694Y010815D01*
X008608Y010850D01*
X009292Y010850D01*
X009206Y010815D01*
X009085Y010694D01*
X009020Y010536D01*
X009020Y010364D01*
X009085Y010206D01*
X009206Y010085D01*
X009364Y010020D01*
X009536Y010020D01*
X009694Y010085D01*
X009815Y010206D01*
X009880Y010364D01*
X009880Y010536D01*
X009815Y010694D01*
X009694Y010815D01*
X009608Y010850D01*
X010292Y010850D01*
X010206Y010815D01*
X010085Y010694D01*
X010020Y010536D01*
X010020Y010364D01*
X010085Y010206D01*
X010206Y010085D01*
X010364Y010020D01*
X010536Y010020D01*
X010694Y010085D01*
X010815Y010206D01*
X010880Y010364D01*
X010880Y010536D01*
X010815Y010694D01*
X010694Y010815D01*
X010608Y010850D01*
X011292Y010850D01*
X011206Y010815D01*
X011085Y010694D01*
X011020Y010536D01*
X011020Y010364D01*
X011085Y010206D01*
X011206Y010085D01*
X011364Y010020D01*
X011536Y010020D01*
X011694Y010085D01*
X011709Y010100D01*
X011700Y010080D01*
X011700Y009980D01*
X011738Y009888D01*
X011808Y009818D01*
X011900Y009780D01*
X012000Y009780D01*
X012092Y009818D01*
X012162Y009888D01*
X012200Y009980D01*
X012200Y010080D01*
X012191Y010100D01*
X012206Y010085D01*
X012364Y010020D01*
X012536Y010020D01*
X012571Y010035D01*
X012540Y009960D01*
X012540Y009860D01*
X012578Y009768D01*
X012648Y009698D01*
X012740Y009660D01*
X012840Y009660D01*
X012932Y009698D01*
X013002Y009768D01*
X013040Y009860D01*
X013040Y009960D01*
X013002Y010052D01*
X012932Y010122D01*
X012840Y010160D01*
X012768Y010160D01*
X012815Y010206D01*
X012880Y010364D01*
X012880Y010536D01*
X012815Y010694D01*
X012694Y010815D01*
X012608Y010850D01*
X013292Y010850D01*
X013206Y010815D01*
X013085Y010694D01*
X013020Y010536D01*
X013020Y010364D01*
X013085Y010206D01*
X013206Y010085D01*
X013364Y010020D01*
X013536Y010020D01*
X013694Y010085D01*
X013815Y010206D01*
X013880Y010364D01*
X013880Y010536D01*
X013815Y010694D01*
X013694Y010815D01*
X013608Y010850D01*
X014292Y010850D01*
X014206Y010815D01*
X014085Y010694D01*
X014020Y010536D01*
X014020Y010364D01*
X014085Y010206D01*
X014206Y010085D01*
X014364Y010020D01*
X014536Y010020D01*
X014694Y010085D01*
X014815Y010206D01*
X014880Y010364D01*
X014880Y010536D01*
X014815Y010694D01*
X014694Y010815D01*
X014608Y010850D01*
X015292Y010850D01*
X015206Y010815D01*
X015085Y010694D01*
X015020Y010536D01*
X015020Y010364D01*
X015085Y010206D01*
X015206Y010085D01*
X015364Y010020D01*
X015536Y010020D01*
X015694Y010085D01*
X015802Y010194D01*
X015838Y010108D01*
X015908Y010038D01*
X016000Y010000D01*
X016100Y010000D01*
X016192Y010038D01*
X016262Y010108D01*
X016300Y010200D01*
X016300Y010300D01*
X016262Y010392D01*
X016192Y010462D01*
X016100Y010500D01*
X016000Y010500D01*
X015908Y010462D01*
X015880Y010434D01*
X015880Y010536D01*
X015815Y010694D01*
X015694Y010815D01*
X015608Y010850D01*
X016450Y010850D01*
X016450Y008592D01*
X016430Y008600D01*
X016350Y008600D01*
X016350Y008660D01*
X016312Y008752D01*
X016242Y008822D01*
X016150Y008860D01*
X016050Y008860D01*
X015958Y008822D01*
X015888Y008752D01*
X015850Y008660D01*
X015850Y008560D01*
X015888Y008468D01*
X015958Y008398D01*
X016050Y008360D01*
X016130Y008360D01*
X016130Y008300D01*
X016168Y008208D01*
X016226Y008150D01*
X016168Y008092D01*
X016130Y008000D01*
X016130Y007900D01*
X016168Y007808D01*
X016226Y007750D01*
X016168Y007692D01*
X016130Y007600D01*
X016130Y007500D01*
X016168Y007408D01*
X016238Y007338D01*
X016330Y007300D01*
X016430Y007300D01*
X016450Y007308D01*
X016450Y006379D01*
X016400Y006400D01*
X016300Y006400D01*
X016208Y006362D01*
X016138Y006292D01*
X016100Y006200D01*
X016100Y006100D01*
X016138Y006008D01*
X016196Y005950D01*
X016138Y005892D01*
X016100Y005800D01*
X016100Y005700D01*
X016138Y005608D01*
X016196Y005550D01*
X016138Y005492D01*
X016100Y005400D01*
X016100Y005400D01*
X016000Y005400D01*
X015908Y005362D01*
X015838Y005292D01*
X015806Y005214D01*
X015803Y005215D01*
X015697Y005215D01*
X015600Y005175D01*
X015539Y005114D01*
X015000Y005654D01*
X015000Y007200D01*
X014962Y007292D01*
X014892Y007362D01*
X014892Y007362D01*
X014808Y007445D01*
X014857Y007425D01*
X014963Y007425D01*
X015000Y007440D01*
X015000Y007400D01*
X015038Y007308D01*
X015108Y007238D01*
X015200Y007200D01*
X015300Y007200D01*
X015392Y007238D01*
X015462Y007308D01*
X015500Y007400D01*
X015500Y007500D01*
X015462Y007592D01*
X015404Y007650D01*
X015462Y007708D01*
X015500Y007800D01*
X015500Y007900D01*
X015462Y007992D01*
X015404Y008050D01*
X015462Y008108D01*
X015500Y008200D01*
X015500Y008300D01*
X015462Y008392D01*
X015404Y008450D01*
X015462Y008508D01*
X015500Y008600D01*
X015500Y008700D01*
X015462Y008792D01*
X015404Y008850D01*
X015450Y008896D01*
X015508Y008838D01*
X015600Y008800D01*
X015700Y008800D01*
X015792Y008838D01*
X015862Y008908D01*
X015900Y009000D01*
X015900Y009046D01*
X015908Y009038D01*
X016000Y009000D01*
X016100Y009000D01*
X016192Y009038D01*
X016262Y009108D01*
X016300Y009200D01*
X016300Y009300D01*
X016262Y009392D01*
X016192Y009462D01*
X016100Y009500D01*
X016000Y009500D01*
X015908Y009462D01*
X015900Y009454D01*
X015900Y009500D01*
X016000Y009500D01*
X016092Y009538D01*
X016162Y009608D01*
X016200Y009700D01*
X016200Y009800D01*
X016162Y009892D01*
X016092Y009962D01*
X016000Y010000D01*
X015900Y010000D01*
X015808Y009962D01*
X015738Y009892D01*
X015700Y009800D01*
X015700Y009700D01*
X015700Y009700D01*
X015600Y009700D01*
X015508Y009662D01*
X015450Y009604D01*
X015392Y009662D01*
X015300Y009700D01*
X015200Y009700D01*
X015108Y009662D01*
X015038Y009592D01*
X015000Y009500D01*
X015000Y009400D01*
X015038Y009308D01*
X015096Y009250D01*
X015038Y009192D01*
X015000Y009100D01*
X015000Y009000D01*
X015038Y008908D01*
X015096Y008850D01*
X015038Y008792D01*
X015000Y008700D01*
X015000Y008600D01*
X015033Y008521D02*
X013233Y008521D01*
X013036Y008718D02*
X015008Y008718D01*
X015063Y008817D02*
X012937Y008817D01*
X012839Y008915D02*
X015035Y008915D01*
X015000Y009014D02*
X012740Y009014D01*
X012642Y009112D02*
X015005Y009112D01*
X015057Y009211D02*
X014445Y009211D01*
X014475Y009240D02*
X014515Y009337D01*
X014515Y009443D01*
X014475Y009540D01*
X014400Y009615D01*
X014303Y009655D01*
X014197Y009655D01*
X014100Y009615D01*
X014025Y009540D01*
X013985Y009443D01*
X013985Y009337D01*
X014025Y009240D01*
X014100Y009165D01*
X014197Y009125D01*
X014303Y009125D01*
X014400Y009165D01*
X014475Y009240D01*
X014503Y009309D02*
X015038Y009309D01*
X015000Y009408D02*
X014515Y009408D01*
X014489Y009506D02*
X015003Y009506D01*
X015051Y009605D02*
X014410Y009605D01*
X014202Y009768D02*
X014240Y009860D01*
X014240Y009960D01*
X014202Y010052D01*
X014132Y010122D01*
X014040Y010160D01*
X013940Y010160D01*
X013848Y010122D01*
X013778Y010052D01*
X013740Y009960D01*
X013740Y009860D01*
X013778Y009768D01*
X013848Y009698D01*
X013940Y009660D01*
X014040Y009660D01*
X014132Y009698D01*
X014202Y009768D01*
X014216Y009802D02*
X015701Y009802D01*
X015700Y009703D02*
X014137Y009703D01*
X014090Y009605D02*
X010900Y009605D01*
X010860Y009506D02*
X014011Y009506D01*
X013985Y009408D02*
X011846Y009408D01*
X011945Y009309D02*
X013997Y009309D01*
X014055Y009211D02*
X012043Y009211D01*
X012052Y009802D02*
X012564Y009802D01*
X012540Y009900D02*
X012167Y009900D01*
X012200Y009999D02*
X012556Y009999D01*
X012643Y009703D02*
X011097Y009703D01*
X011176Y009802D02*
X011848Y009802D01*
X011733Y009900D02*
X011200Y009900D01*
X011184Y009999D02*
X011700Y009999D01*
X011705Y010097D02*
X011707Y010097D01*
X011195Y010097D02*
X011117Y010097D01*
X011096Y010196D02*
X010804Y010196D01*
X010783Y010097D02*
X010705Y010097D01*
X010851Y010294D02*
X011049Y010294D01*
X011020Y010393D02*
X010880Y010393D01*
X010880Y010491D02*
X011020Y010491D01*
X011042Y010590D02*
X010858Y010590D01*
X010817Y010688D02*
X011083Y010688D01*
X011178Y010787D02*
X010722Y010787D01*
X010178Y010787D02*
X009722Y010787D01*
X009817Y010688D02*
X010083Y010688D01*
X010042Y010590D02*
X009858Y010590D01*
X009880Y010491D02*
X010020Y010491D01*
X010020Y010393D02*
X009880Y010393D01*
X009851Y010294D02*
X010049Y010294D01*
X010096Y010196D02*
X009804Y010196D01*
X009705Y010097D02*
X010195Y010097D01*
X009754Y009802D02*
X008622Y009802D01*
X008660Y009703D02*
X009720Y009703D01*
X009727Y009605D02*
X008658Y009605D01*
X008610Y009506D02*
X009780Y009506D01*
X009195Y010097D02*
X008705Y010097D01*
X008804Y010196D02*
X009096Y010196D01*
X009049Y010294D02*
X008851Y010294D01*
X008880Y010393D02*
X009020Y010393D01*
X009020Y010491D02*
X008880Y010491D01*
X008858Y010590D02*
X009042Y010590D01*
X009083Y010688D02*
X008817Y010688D01*
X008722Y010787D02*
X009178Y010787D01*
X006892Y009999D02*
X005083Y009999D01*
X005195Y010097D02*
X004705Y010097D01*
X004804Y010196D02*
X005096Y010196D01*
X005049Y010294D02*
X004851Y010294D01*
X004880Y010393D02*
X005020Y010393D01*
X005020Y010491D02*
X004880Y010491D01*
X004858Y010590D02*
X005042Y010590D01*
X005083Y010688D02*
X004817Y010688D01*
X004722Y010787D02*
X005178Y010787D01*
X005722Y010787D02*
X006178Y010787D01*
X006083Y010688D02*
X005817Y010688D01*
X005858Y010590D02*
X006042Y010590D01*
X006020Y010491D02*
X005880Y010491D01*
X005880Y010393D02*
X006020Y010393D01*
X006049Y010294D02*
X005851Y010294D01*
X005804Y010196D02*
X006096Y010196D01*
X006195Y010097D02*
X005705Y010097D01*
X005234Y009900D02*
X006793Y009900D01*
X006297Y008029D02*
X006203Y008029D01*
X007567Y007142D02*
X003809Y007142D01*
X004638Y006551D02*
X002020Y006551D01*
X002020Y006453D02*
X004600Y006453D01*
X004603Y006354D02*
X002020Y006354D01*
X002020Y006256D02*
X004651Y006256D01*
X004860Y006157D02*
X002020Y006157D01*
X002020Y006059D02*
X002105Y006059D01*
X002025Y005960D02*
X002020Y005960D01*
X002395Y006059D02*
X002505Y006059D01*
X002795Y006059D02*
X004898Y006059D01*
X003919Y005566D02*
X010282Y005566D01*
X010268Y005552D02*
X010230Y005460D01*
X010230Y005360D01*
X010268Y005268D01*
X010338Y005198D01*
X010430Y005160D01*
X010530Y005160D01*
X010622Y005198D01*
X010692Y005268D01*
X010730Y005360D01*
X010730Y005460D01*
X010692Y005552D01*
X010622Y005622D01*
X010530Y005660D01*
X010430Y005660D01*
X010338Y005622D01*
X010268Y005552D01*
X010233Y005468D02*
X003925Y005468D01*
X003917Y005369D02*
X010230Y005369D01*
X010267Y005271D02*
X003877Y005271D01*
X003799Y005172D02*
X010401Y005172D01*
X010559Y005172D02*
X011800Y005172D01*
X011899Y005271D02*
X010693Y005271D01*
X010730Y005369D02*
X012175Y005369D01*
X012359Y005468D02*
X010727Y005468D01*
X010678Y005566D02*
X011810Y005566D01*
X012130Y005566D02*
X012457Y005566D01*
X012458Y005665D02*
X012460Y005665D01*
X013636Y005862D02*
X013660Y005862D01*
X013624Y006650D02*
X013660Y006650D01*
X014816Y007438D02*
X014827Y007438D01*
X014915Y007339D02*
X015025Y007339D01*
X015000Y007438D02*
X014993Y007438D01*
X014983Y007241D02*
X015106Y007241D01*
X015000Y007142D02*
X015360Y007142D01*
X015360Y007150D02*
X015360Y007050D01*
X015398Y006958D01*
X015468Y006888D01*
X015560Y006850D01*
X015660Y006850D01*
X015752Y006888D01*
X015785Y006921D01*
X015818Y006888D01*
X015910Y006850D01*
X016010Y006850D01*
X016102Y006888D01*
X016172Y006958D01*
X016210Y007050D01*
X016210Y007150D01*
X016172Y007242D01*
X016102Y007312D01*
X016010Y007350D01*
X015910Y007350D01*
X015818Y007312D01*
X015785Y007279D01*
X015752Y007312D01*
X015660Y007350D01*
X015560Y007350D01*
X015468Y007312D01*
X015398Y007242D01*
X015360Y007150D01*
X015394Y007241D02*
X015398Y007241D01*
X015475Y007339D02*
X015534Y007339D01*
X015500Y007438D02*
X016156Y007438D01*
X016130Y007536D02*
X015485Y007536D01*
X015419Y007635D02*
X016144Y007635D01*
X016209Y007733D02*
X015472Y007733D01*
X015500Y007832D02*
X016158Y007832D01*
X016130Y007930D02*
X015487Y007930D01*
X015425Y008029D02*
X016142Y008029D01*
X016203Y008127D02*
X015470Y008127D01*
X015500Y008226D02*
X016161Y008226D01*
X016130Y008324D02*
X015490Y008324D01*
X015431Y008423D02*
X015934Y008423D01*
X015866Y008521D02*
X015467Y008521D01*
X015500Y008620D02*
X015850Y008620D01*
X015874Y008718D02*
X015492Y008718D01*
X015437Y008817D02*
X015560Y008817D01*
X015740Y008817D02*
X015953Y008817D01*
X015865Y008915D02*
X016450Y008915D01*
X016450Y008817D02*
X016247Y008817D01*
X016326Y008718D02*
X016450Y008718D01*
X016450Y008620D02*
X016350Y008620D01*
X016450Y009014D02*
X016132Y009014D01*
X016263Y009112D02*
X016450Y009112D01*
X016450Y009211D02*
X016300Y009211D01*
X016296Y009309D02*
X016450Y009309D01*
X016450Y009408D02*
X016246Y009408D01*
X016450Y009506D02*
X016014Y009506D01*
X015900Y009500D02*
X015900Y009500D01*
X015900Y009500D01*
X016158Y009605D02*
X016450Y009605D01*
X016450Y009703D02*
X016200Y009703D01*
X016199Y009802D02*
X016450Y009802D01*
X016450Y009900D02*
X016154Y009900D01*
X016003Y009999D02*
X016450Y009999D01*
X016450Y010097D02*
X016251Y010097D01*
X016298Y010196D02*
X016450Y010196D01*
X016450Y010294D02*
X016300Y010294D01*
X016261Y010393D02*
X016450Y010393D01*
X016450Y010491D02*
X016121Y010491D01*
X015979Y010491D02*
X015880Y010491D01*
X015858Y010590D02*
X016450Y010590D01*
X016450Y010688D02*
X015817Y010688D01*
X015722Y010787D02*
X016450Y010787D01*
X015849Y010097D02*
X015705Y010097D01*
X015897Y009999D02*
X014224Y009999D01*
X014240Y009900D02*
X015746Y009900D01*
X015700Y009700D02*
X015700Y009700D01*
X015451Y009605D02*
X015449Y009605D01*
X015195Y010097D02*
X014705Y010097D01*
X014804Y010196D02*
X015096Y010196D01*
X015049Y010294D02*
X014851Y010294D01*
X014880Y010393D02*
X015020Y010393D01*
X015020Y010491D02*
X014880Y010491D01*
X014858Y010590D02*
X015042Y010590D01*
X015083Y010688D02*
X014817Y010688D01*
X014722Y010787D02*
X015178Y010787D01*
X014178Y010787D02*
X013722Y010787D01*
X013817Y010688D02*
X014083Y010688D01*
X014042Y010590D02*
X013858Y010590D01*
X013880Y010491D02*
X014020Y010491D01*
X014020Y010393D02*
X013880Y010393D01*
X013851Y010294D02*
X014049Y010294D01*
X014096Y010196D02*
X013804Y010196D01*
X013823Y010097D02*
X013705Y010097D01*
X013756Y009999D02*
X013024Y009999D01*
X013040Y009900D02*
X013740Y009900D01*
X013764Y009802D02*
X013016Y009802D01*
X012937Y009703D02*
X013843Y009703D01*
X014157Y010097D02*
X014195Y010097D01*
X013195Y010097D02*
X012957Y010097D01*
X013096Y010196D02*
X012804Y010196D01*
X012851Y010294D02*
X013049Y010294D01*
X013020Y010393D02*
X012880Y010393D01*
X012880Y010491D02*
X013020Y010491D01*
X013042Y010590D02*
X012858Y010590D01*
X012817Y010688D02*
X013083Y010688D01*
X013178Y010787D02*
X012722Y010787D01*
X012195Y010097D02*
X012193Y010097D01*
X014131Y008423D02*
X015069Y008423D01*
X015010Y008324D02*
X014230Y008324D01*
X014162Y008392D02*
X014162Y008392D01*
X014328Y008226D02*
X015000Y008226D01*
X015030Y008127D02*
X014427Y008127D01*
X014488Y008029D02*
X015075Y008029D01*
X014797Y007930D02*
X014500Y007930D01*
X014500Y007832D02*
X014682Y007832D01*
X014645Y007733D02*
X014521Y007733D01*
X014619Y007635D02*
X014646Y007635D01*
X015000Y007044D02*
X015363Y007044D01*
X015411Y006945D02*
X015000Y006945D01*
X015000Y006847D02*
X016450Y006847D01*
X016450Y006945D02*
X016159Y006945D01*
X016207Y007044D02*
X016450Y007044D01*
X016450Y007142D02*
X016210Y007142D01*
X016172Y007241D02*
X016450Y007241D01*
X016237Y007339D02*
X016036Y007339D01*
X015884Y007339D02*
X015686Y007339D01*
X015000Y006748D02*
X016450Y006748D01*
X016450Y006650D02*
X015000Y006650D01*
X015000Y006551D02*
X016450Y006551D01*
X016450Y006453D02*
X015000Y006453D01*
X015000Y006354D02*
X016200Y006354D01*
X016123Y006256D02*
X015000Y006256D01*
X015000Y006157D02*
X016100Y006157D01*
X016117Y006059D02*
X015000Y006059D01*
X015000Y005960D02*
X016186Y005960D01*
X016126Y005862D02*
X015000Y005862D01*
X015000Y005763D02*
X016100Y005763D01*
X016115Y005665D02*
X015000Y005665D01*
X015088Y005566D02*
X016180Y005566D01*
X016128Y005468D02*
X015186Y005468D01*
X015285Y005369D02*
X015925Y005369D01*
X015829Y005271D02*
X015383Y005271D01*
X015482Y005172D02*
X015597Y005172D01*
X014449Y004483D02*
X010296Y004483D01*
X010282Y004448D02*
X010320Y004540D01*
X010320Y004640D01*
X010282Y004732D01*
X010212Y004802D01*
X010120Y004840D01*
X010020Y004840D01*
X009928Y004802D01*
X009858Y004732D01*
X009820Y004640D01*
X009820Y004540D01*
X009858Y004448D01*
X009928Y004378D01*
X010020Y004340D01*
X010120Y004340D01*
X010212Y004378D01*
X010282Y004448D01*
X010218Y004384D02*
X011773Y004384D01*
X011687Y004286D02*
X008904Y004286D01*
X008905Y004283D02*
X008865Y004380D01*
X008790Y004455D01*
X008693Y004495D01*
X008587Y004495D01*
X008490Y004455D01*
X008415Y004380D01*
X008375Y004283D01*
X008375Y004177D01*
X008415Y004080D01*
X008490Y004005D01*
X008587Y003965D01*
X008693Y003965D01*
X008790Y004005D01*
X008865Y004080D01*
X008905Y004177D01*
X008905Y004283D01*
X008905Y004187D02*
X011660Y004187D01*
X011673Y004089D02*
X008868Y004089D01*
X008753Y003990D02*
X009193Y003990D01*
X009095Y003892D02*
X007994Y003892D01*
X008010Y003885D02*
X007913Y003925D01*
X007807Y003925D01*
X007710Y003885D01*
X007635Y003810D01*
X007595Y003713D01*
X007595Y003607D01*
X007635Y003510D01*
X007710Y003435D01*
X007807Y003395D01*
X007913Y003395D01*
X008010Y003435D01*
X008085Y003510D01*
X008125Y003607D01*
X008125Y003713D01*
X008085Y003810D01*
X008010Y003885D01*
X008092Y003793D02*
X008996Y003793D01*
X008898Y003695D02*
X008125Y003695D01*
X008120Y003596D02*
X008799Y003596D01*
X008701Y003498D02*
X008072Y003498D01*
X007922Y003399D02*
X008602Y003399D01*
X008504Y003301D02*
X007655Y003301D01*
X007648Y003399D02*
X007798Y003399D01*
X007648Y003498D02*
X007597Y003498D01*
X007600Y003596D02*
X006971Y003596D01*
X007069Y003498D02*
X007183Y003498D01*
X006872Y003695D02*
X007595Y003695D01*
X007628Y003793D02*
X006774Y003793D01*
X007238Y004038D02*
X007308Y003968D01*
X007400Y003930D01*
X007500Y003930D01*
X007592Y003968D01*
X007662Y004038D01*
X007674Y004067D01*
X007740Y004040D01*
X007840Y004040D01*
X007932Y004078D01*
X008002Y004148D01*
X008040Y004240D01*
X008040Y004340D01*
X008002Y004432D01*
X007932Y004502D01*
X007840Y004540D01*
X007740Y004540D01*
X007697Y004522D01*
X007700Y004530D01*
X007700Y004630D01*
X007662Y004722D01*
X007592Y004792D01*
X007500Y004830D01*
X007400Y004830D01*
X007308Y004792D01*
X007238Y004722D01*
X007200Y004630D01*
X007200Y004530D01*
X007238Y004438D01*
X007296Y004380D01*
X007238Y004322D01*
X007200Y004230D01*
X007200Y004130D01*
X007238Y004038D01*
X007217Y004089D02*
X004078Y004089D01*
X003980Y004187D02*
X004428Y004187D01*
X004457Y004175D02*
X004563Y004175D01*
X004660Y004215D01*
X004735Y004290D01*
X004775Y004387D01*
X004775Y004493D01*
X004735Y004590D01*
X004660Y004665D01*
X004563Y004705D01*
X004457Y004705D01*
X004360Y004665D01*
X004285Y004590D01*
X004245Y004493D01*
X004245Y004387D01*
X004285Y004290D01*
X004360Y004215D01*
X004457Y004175D01*
X004592Y004187D02*
X007200Y004187D01*
X007223Y004286D02*
X004730Y004286D01*
X004774Y004384D02*
X007292Y004384D01*
X007220Y004483D02*
X004775Y004483D01*
X004738Y004581D02*
X007200Y004581D01*
X007221Y004680D02*
X005754Y004680D01*
X005807Y004778D02*
X007294Y004778D01*
X007606Y004778D02*
X009904Y004778D01*
X009836Y004680D02*
X007679Y004680D01*
X007700Y004581D02*
X009820Y004581D01*
X009844Y004483D02*
X008723Y004483D01*
X008557Y004483D02*
X007951Y004483D01*
X008022Y004384D02*
X008419Y004384D01*
X008376Y004286D02*
X008040Y004286D01*
X008018Y004187D02*
X008375Y004187D01*
X008412Y004089D02*
X007942Y004089D01*
X007726Y003892D02*
X004275Y003892D01*
X004177Y003990D02*
X007286Y003990D01*
X007614Y003990D02*
X008527Y003990D01*
X008861Y004384D02*
X009922Y004384D01*
X010320Y004581D02*
X014350Y004581D01*
X014252Y004680D02*
X010304Y004680D01*
X010236Y004778D02*
X014153Y004778D01*
X014547Y004384D02*
X012047Y004384D01*
X012438Y004286D02*
X014646Y004286D01*
X014744Y004187D02*
X012499Y004187D01*
X012623Y004089D02*
X014843Y004089D01*
X014970Y003990D02*
X013124Y003990D01*
X013187Y003892D02*
X015068Y003892D01*
X015587Y003793D02*
X013200Y003793D01*
X013173Y003695D02*
X015630Y003695D01*
X015531Y003596D02*
X014549Y003596D01*
X014616Y003498D02*
X015475Y003498D01*
X015465Y003399D02*
X014885Y003399D01*
X014947Y003301D02*
X015493Y003301D01*
X015573Y003202D02*
X014960Y003202D01*
X015069Y003104D02*
X015800Y003104D01*
X015841Y003005D02*
X015171Y003005D01*
X015205Y002907D02*
X015853Y002907D01*
X015803Y002808D02*
X015700Y002808D01*
X015799Y002710D02*
X015800Y002710D01*
X014191Y003596D02*
X013701Y003596D01*
X013799Y003498D02*
X014124Y003498D01*
X014105Y003399D02*
X013898Y003399D01*
X013996Y003301D02*
X014124Y003301D01*
X011742Y003596D02*
X010301Y003596D01*
X010202Y003695D02*
X011677Y003695D01*
X011650Y003793D02*
X010104Y003793D01*
X010005Y003892D02*
X011663Y003892D01*
X011726Y003990D02*
X009907Y003990D01*
X011499Y003498D02*
X011687Y003498D01*
X011680Y003399D02*
X011598Y003399D01*
X011696Y003301D02*
X011713Y003301D01*
X008562Y005763D02*
X008277Y005763D01*
X008344Y005862D02*
X008500Y005862D01*
X008485Y005960D02*
X008360Y005960D01*
X008336Y006059D02*
X008508Y006059D01*
X008582Y006157D02*
X008257Y006157D01*
X007943Y005763D02*
X007938Y005763D01*
X008918Y006157D02*
X010690Y006157D01*
X010724Y006059D02*
X008992Y006059D01*
X009015Y005960D02*
X010842Y005960D01*
X011038Y005960D02*
X011107Y005960D01*
X009857Y007339D02*
X009842Y007339D01*
X007577Y006748D02*
X005370Y006748D01*
X005334Y006847D02*
X007506Y006847D01*
X005315Y004975D02*
X003711Y004975D01*
X003751Y004877D02*
X005285Y004877D01*
X005293Y004778D02*
X003760Y004778D01*
X003760Y004680D02*
X004396Y004680D01*
X004282Y004581D02*
X003760Y004581D01*
X003760Y004483D02*
X004245Y004483D01*
X004246Y004384D02*
X003783Y004384D01*
X003881Y004286D02*
X004290Y004286D01*
X004624Y004680D02*
X005346Y004680D01*
X003216Y005763D02*
X002885Y005763D01*
X002818Y005665D02*
X003141Y005665D01*
X002482Y005665D02*
X002418Y005665D01*
X002082Y005665D02*
X002020Y005665D01*
X002020Y006847D02*
X002100Y006847D01*
X002023Y006945D02*
X002020Y006945D01*
X002400Y006847D02*
X002500Y006847D01*
X002054Y008127D02*
X002020Y008127D01*
X002020Y008226D02*
X002153Y008226D01*
X003720Y009112D02*
X004180Y009112D01*
X004084Y009211D02*
X003816Y009211D01*
X003857Y009309D02*
X004043Y009309D01*
X004020Y009408D02*
X003880Y009408D01*
X003880Y009506D02*
X004020Y009506D01*
X004049Y009605D02*
X003851Y009605D01*
X003805Y009703D02*
X004095Y009703D01*
X004193Y009802D02*
X003707Y009802D01*
X003705Y010097D02*
X004195Y010097D01*
X004096Y010196D02*
X003804Y010196D01*
X003851Y010294D02*
X004049Y010294D01*
X004020Y010393D02*
X003880Y010393D01*
X003880Y010491D02*
X004020Y010491D01*
X004042Y010590D02*
X003858Y010590D01*
X003817Y010688D02*
X004083Y010688D01*
X004178Y010787D02*
X003722Y010787D01*
X005283Y003005D02*
X005751Y003005D01*
X005703Y002907D02*
X005305Y002907D01*
X006149Y003005D02*
X006628Y003005D01*
X006727Y002907D02*
X006197Y002907D01*
X006700Y002808D02*
X006825Y002808D01*
X006799Y002710D02*
X007101Y002710D01*
X007051Y002611D02*
X006849Y002611D01*
X006880Y002513D02*
X007020Y002513D01*
X007020Y002414D02*
X006880Y002414D01*
X006860Y002316D02*
X007040Y002316D01*
X007081Y002217D02*
X006819Y002217D01*
X006727Y002119D02*
X007173Y002119D01*
X007100Y003000D02*
X007050Y003050D01*
X007100Y003000D02*
X007660Y003000D01*
X003200Y002808D02*
X002700Y002808D01*
X002799Y002710D02*
X003101Y002710D01*
X003051Y002611D02*
X002849Y002611D01*
X002880Y002513D02*
X003020Y002513D01*
X003020Y002414D02*
X002880Y002414D01*
X002860Y002316D02*
X003040Y002316D01*
X003081Y002217D02*
X002819Y002217D01*
X002727Y002119D02*
X003173Y002119D01*
X002080Y003005D02*
X002020Y003005D01*
X015900Y009014D02*
X015968Y009014D01*
D11*
X015450Y010450D03*
X014450Y010450D03*
X013450Y010450D03*
X012450Y010450D03*
X011450Y010450D03*
X010450Y010450D03*
X009450Y010450D03*
X008450Y010450D03*
X007450Y010450D03*
X006450Y010450D03*
X005450Y010450D03*
X004450Y010450D03*
X003450Y010450D03*
X002450Y010450D03*
X002450Y009450D03*
X003450Y009450D03*
X004450Y009450D03*
X004450Y002450D03*
X003450Y002450D03*
X002450Y002450D03*
X005450Y002450D03*
X006450Y002450D03*
X007450Y002450D03*
X008450Y002450D03*
X009450Y002450D03*
X010450Y002450D03*
X011450Y002450D03*
X012450Y002450D03*
X013450Y002450D03*
X014450Y002450D03*
X015450Y002450D03*
D12*
X016050Y002750D03*
X016350Y002950D03*
X016050Y003150D03*
X016350Y003350D03*
X016350Y003750D03*
X016050Y003950D03*
X016350Y004150D03*
X016050Y004350D03*
X016350Y004550D03*
X016050Y004750D03*
X016350Y004950D03*
X016050Y005150D03*
X016350Y005350D03*
X016350Y005750D03*
X016350Y006150D03*
X015960Y007100D03*
X015610Y007100D03*
X015250Y007450D03*
X015250Y007850D03*
X015250Y008250D03*
X015250Y008650D03*
X015250Y009050D03*
X015650Y009050D03*
X015650Y009450D03*
X015250Y009450D03*
X015950Y009750D03*
X016050Y009250D03*
X016100Y008610D03*
X016380Y008350D03*
X016380Y007950D03*
X016380Y007550D03*
X013990Y009910D03*
X012790Y009910D03*
X011950Y010030D03*
X010950Y009910D03*
X010650Y009650D03*
X010340Y009650D03*
X009970Y009670D03*
X010770Y008770D03*
X012270Y007630D03*
X011000Y006550D03*
X010550Y006630D03*
X010050Y006410D03*
X010940Y006190D03*
X011320Y006100D03*
X011970Y005760D03*
X012310Y005870D03*
X012350Y005190D03*
X012020Y005050D03*
X011910Y004170D03*
X012260Y004110D03*
X011900Y003810D03*
X011930Y003430D03*
X011000Y002990D03*
X010110Y002960D03*
X009720Y003350D03*
X008950Y002930D03*
X007450Y004180D03*
X007790Y004290D03*
X007450Y004580D03*
X008110Y005950D03*
X007750Y006350D03*
X009630Y007480D03*
X010000Y007550D03*
X010460Y007540D03*
X010470Y007190D03*
X008780Y008540D03*
X008410Y009660D03*
X005030Y009750D03*
X003350Y008250D03*
X002650Y007050D03*
X002250Y007050D03*
X002250Y005850D03*
X002650Y005850D03*
X004850Y006410D03*
X005110Y006200D03*
X005120Y006710D03*
X005410Y007010D03*
X004960Y007630D03*
X010070Y004590D03*
X010480Y005410D03*
X012950Y003810D03*
X012970Y003110D03*
X014710Y003220D03*
X016350Y002550D03*
X016350Y002150D03*
X013280Y005070D03*
X016050Y010250D03*
X005950Y002850D03*
D13*
X005040Y002900D03*
X004510Y004440D03*
X005550Y004850D03*
X005100Y005840D03*
X006450Y006450D03*
X007750Y005950D03*
X008750Y005950D03*
X008750Y006950D03*
X007750Y006950D03*
X006450Y008250D03*
X006050Y008250D03*
X005650Y008250D03*
X004890Y007990D03*
X007290Y009470D03*
X007540Y009180D03*
X007700Y008820D03*
X007950Y009950D03*
X013450Y006850D03*
X014250Y006850D03*
X014910Y007690D03*
X013680Y007810D03*
X014250Y009390D03*
X014250Y006050D03*
X013450Y006050D03*
X014870Y004830D03*
X015640Y004310D03*
X015460Y003780D03*
X015730Y003420D03*
X014940Y002870D03*
X014370Y003400D03*
X013050Y004360D03*
X012830Y004150D03*
X012530Y003840D03*
X010420Y003700D03*
X008640Y004230D03*
X008250Y004650D03*
X008570Y003650D03*
X007860Y003660D03*
X007390Y003330D03*
X003430Y004790D03*
X002270Y003190D03*
X015750Y004950D03*
D14*
X003510Y005470D03*
X003510Y007430D03*
D15*
X002450Y007830D03*
X002450Y005070D03*
D16*
X003430Y004790D02*
X003430Y004270D01*
X004150Y003550D01*
X006550Y003550D01*
X007050Y003050D01*
D17*
X007660Y003000D02*
X008500Y003000D01*
X009350Y003850D01*
X009750Y003850D01*
X010250Y003350D01*
X011350Y003350D01*
X011650Y003050D01*
X012350Y003050D01*
X012750Y003450D01*
X013550Y003450D01*
X013950Y003050D01*
X014540Y003050D01*
X014710Y003220D01*
X006990Y009800D02*
X006050Y008860D01*
D18*
X014950Y004250D02*
X015150Y004050D01*
X015570Y004050D01*
X015800Y003820D01*
X015800Y003550D01*
X015730Y003480D01*
X015730Y003420D01*
D19*
X014950Y004250D02*
X013850Y005350D01*
X013850Y006950D01*
X012650Y008150D01*
X010050Y008150D01*
X009350Y008850D01*
X008250Y008850D01*
X007630Y009470D01*
X007290Y009470D01*
X006990Y009800D02*
X007700Y009800D01*
X008250Y009250D01*
X006050Y008860D02*
X006050Y008250D01*
X012270Y007630D02*
X012650Y007260D01*
X012650Y005490D01*
X012350Y005190D01*
X015350Y004600D02*
X015640Y004310D01*
D20*
X015350Y004600D02*
X015350Y004950D01*
X014750Y005550D01*
X014750Y007150D01*
X014250Y007650D01*
X014250Y007950D01*
X013950Y008250D01*
X013150Y008250D01*
X012450Y008950D01*
X011950Y008950D01*
X011650Y009250D01*
X008250Y009250D01*
M02*
