G75*
G70*
%OFA0B0*%
%FSLAX24Y24*%
%IPPOS*%
%LPD*%
%AMOC8*
5,1,8,0,0,1.08239X$1,22.5*
%
%ADD10C,0.0100*%
%ADD11C,0.0145*%
%ADD12C,0.0050*%
%ADD13R,0.0434X0.0434*%
%ADD14R,0.0355X0.0152*%
%ADD15R,0.0152X0.0355*%
%ADD16R,0.1418X0.1418*%
%ADD17C,0.0098*%
%ADD18R,0.0906X0.0552*%
%ADD19R,0.0453X0.0552*%
%ADD20R,0.0670X0.0750*%
%ADD21C,0.0079*%
%ADD22C,0.0160*%
%ADD23R,0.0591X0.0434*%
%ADD24R,0.0355X0.0355*%
%ADD25R,0.0540X0.0290*%
%ADD26C,0.0740*%
%ADD27C,0.0700*%
%ADD28R,0.0138X0.0237*%
%ADD29R,0.0591X0.0178*%
%ADD30C,0.0610*%
%ADD31C,0.0760*%
D10*
X001820Y001850D02*
X017340Y001840D01*
X018270Y002770D01*
X018270Y010130D01*
X017350Y011050D01*
X001820Y011050D01*
X001820Y001850D01*
D11*
X004117Y003582D02*
X004117Y003728D01*
X004263Y003728D01*
X004263Y003582D01*
X004117Y003582D01*
X004117Y003726D02*
X004263Y003726D01*
X004663Y003728D02*
X004663Y003582D01*
X004517Y003582D01*
X004517Y003728D01*
X004663Y003728D01*
X004663Y003726D02*
X004517Y003726D01*
X004663Y003932D02*
X004663Y004078D01*
X004663Y003932D02*
X004517Y003932D01*
X004517Y004078D01*
X004663Y004078D01*
X004663Y004076D02*
X004517Y004076D01*
X004117Y004078D02*
X004117Y003932D01*
X004117Y004078D02*
X004263Y004078D01*
X004263Y003932D01*
X004117Y003932D01*
X004117Y004076D02*
X004263Y004076D01*
X005077Y004502D02*
X005077Y004648D01*
X005223Y004648D01*
X005223Y004502D01*
X005077Y004502D01*
X005077Y004646D02*
X005223Y004646D01*
X005077Y004852D02*
X005077Y004998D01*
X005223Y004998D01*
X005223Y004852D01*
X005077Y004852D01*
X005077Y004996D02*
X005223Y004996D01*
X005802Y004823D02*
X005948Y004823D01*
X005948Y004677D01*
X005802Y004677D01*
X005802Y004823D01*
X005802Y004821D02*
X005948Y004821D01*
X006152Y004823D02*
X006298Y004823D01*
X006298Y004677D01*
X006152Y004677D01*
X006152Y004823D01*
X006152Y004821D02*
X006298Y004821D01*
X006702Y004423D02*
X006848Y004423D01*
X006848Y004277D01*
X006702Y004277D01*
X006702Y004423D01*
X006702Y004421D02*
X006848Y004421D01*
X007052Y004423D02*
X007198Y004423D01*
X007198Y004277D01*
X007052Y004277D01*
X007052Y004423D01*
X007052Y004421D02*
X007198Y004421D01*
X007198Y003923D02*
X007052Y003923D01*
X007198Y003923D02*
X007198Y003777D01*
X007052Y003777D01*
X007052Y003923D01*
X007052Y003921D02*
X007198Y003921D01*
X006848Y003923D02*
X006702Y003923D01*
X006848Y003923D02*
X006848Y003777D01*
X006702Y003777D01*
X006702Y003923D01*
X006702Y003921D02*
X006848Y003921D01*
X006848Y003423D02*
X006702Y003423D01*
X006848Y003423D02*
X006848Y003277D01*
X006702Y003277D01*
X006702Y003423D01*
X006702Y003421D02*
X006848Y003421D01*
X007052Y003423D02*
X007198Y003423D01*
X007198Y003277D01*
X007052Y003277D01*
X007052Y003423D01*
X007052Y003421D02*
X007198Y003421D01*
X008102Y003423D02*
X008248Y003423D01*
X008248Y003277D01*
X008102Y003277D01*
X008102Y003423D01*
X008102Y003421D02*
X008248Y003421D01*
X008452Y003423D02*
X008598Y003423D01*
X008598Y003277D01*
X008452Y003277D01*
X008452Y003423D01*
X008452Y003421D02*
X008598Y003421D01*
X008902Y003423D02*
X009048Y003423D01*
X009048Y003277D01*
X008902Y003277D01*
X008902Y003423D01*
X008902Y003421D02*
X009048Y003421D01*
X009252Y003423D02*
X009398Y003423D01*
X009398Y003277D01*
X009252Y003277D01*
X009252Y003423D01*
X009252Y003421D02*
X009398Y003421D01*
X010002Y003423D02*
X010148Y003423D01*
X010148Y003277D01*
X010002Y003277D01*
X010002Y003423D01*
X010002Y003421D02*
X010148Y003421D01*
X010352Y003423D02*
X010498Y003423D01*
X010498Y003277D01*
X010352Y003277D01*
X010352Y003423D01*
X010352Y003421D02*
X010498Y003421D01*
X010802Y003423D02*
X010948Y003423D01*
X010948Y003277D01*
X010802Y003277D01*
X010802Y003423D01*
X010802Y003421D02*
X010948Y003421D01*
X011152Y003423D02*
X011298Y003423D01*
X011298Y003277D01*
X011152Y003277D01*
X011152Y003423D01*
X011152Y003421D02*
X011298Y003421D01*
X012502Y003523D02*
X012648Y003523D01*
X012648Y003377D01*
X012502Y003377D01*
X012502Y003523D01*
X012502Y003521D02*
X012648Y003521D01*
X012852Y003523D02*
X012998Y003523D01*
X012998Y003377D01*
X012852Y003377D01*
X012852Y003523D01*
X012852Y003521D02*
X012998Y003521D01*
X013523Y003902D02*
X013523Y004048D01*
X013523Y003902D02*
X013377Y003902D01*
X013377Y004048D01*
X013523Y004048D01*
X013523Y004046D02*
X013377Y004046D01*
X013523Y004252D02*
X013523Y004398D01*
X013523Y004252D02*
X013377Y004252D01*
X013377Y004398D01*
X013523Y004398D01*
X013523Y004396D02*
X013377Y004396D01*
X013923Y004398D02*
X013923Y004252D01*
X013777Y004252D01*
X013777Y004398D01*
X013923Y004398D01*
X013923Y004396D02*
X013777Y004396D01*
X013923Y004048D02*
X013923Y003902D01*
X013777Y003902D01*
X013777Y004048D01*
X013923Y004048D01*
X013923Y004046D02*
X013777Y004046D01*
X012277Y005122D02*
X012277Y005268D01*
X012423Y005268D01*
X012423Y005122D01*
X012277Y005122D01*
X012277Y005266D02*
X012423Y005266D01*
X012277Y005472D02*
X012277Y005618D01*
X012423Y005618D01*
X012423Y005472D01*
X012277Y005472D01*
X012277Y005616D02*
X012423Y005616D01*
X011398Y004977D02*
X011252Y004977D01*
X011252Y005123D01*
X011398Y005123D01*
X011398Y004977D01*
X011398Y005121D02*
X011252Y005121D01*
X011048Y004977D02*
X010902Y004977D01*
X010902Y005123D01*
X011048Y005123D01*
X011048Y004977D01*
X011048Y005121D02*
X010902Y005121D01*
X009723Y006342D02*
X009723Y006488D01*
X009723Y006342D02*
X009577Y006342D01*
X009577Y006488D01*
X009723Y006488D01*
X009723Y006486D02*
X009577Y006486D01*
X009723Y006692D02*
X009723Y006838D01*
X009723Y006692D02*
X009577Y006692D01*
X009577Y006838D01*
X009723Y006838D01*
X009723Y006836D02*
X009577Y006836D01*
X010802Y007577D02*
X010948Y007577D01*
X010802Y007577D02*
X010802Y007723D01*
X010948Y007723D01*
X010948Y007577D01*
X010948Y007721D02*
X010802Y007721D01*
X011152Y007577D02*
X011298Y007577D01*
X011152Y007577D02*
X011152Y007723D01*
X011298Y007723D01*
X011298Y007577D01*
X011298Y007721D02*
X011152Y007721D01*
X011702Y007123D02*
X011848Y007123D01*
X011848Y006977D01*
X011702Y006977D01*
X011702Y007123D01*
X011702Y007121D02*
X011848Y007121D01*
X012052Y007123D02*
X012198Y007123D01*
X012198Y006977D01*
X012052Y006977D01*
X012052Y007123D01*
X012052Y007121D02*
X012198Y007121D01*
X012198Y006723D02*
X012052Y006723D01*
X012198Y006723D02*
X012198Y006577D01*
X012052Y006577D01*
X012052Y006723D01*
X012052Y006721D02*
X012198Y006721D01*
X011848Y006723D02*
X011702Y006723D01*
X011848Y006723D02*
X011848Y006577D01*
X011702Y006577D01*
X011702Y006723D01*
X011702Y006721D02*
X011848Y006721D01*
X013777Y008302D02*
X013777Y008448D01*
X013923Y008448D01*
X013923Y008302D01*
X013777Y008302D01*
X013777Y008446D02*
X013923Y008446D01*
X013777Y008652D02*
X013777Y008798D01*
X013923Y008798D01*
X013923Y008652D01*
X013777Y008652D01*
X013777Y008796D02*
X013923Y008796D01*
X014723Y008802D02*
X014723Y008948D01*
X014723Y008802D02*
X014577Y008802D01*
X014577Y008948D01*
X014723Y008948D01*
X014723Y008946D02*
X014577Y008946D01*
X014723Y009152D02*
X014723Y009298D01*
X014723Y009152D02*
X014577Y009152D01*
X014577Y009298D01*
X014723Y009298D01*
X014723Y009296D02*
X014577Y009296D01*
X014723Y008498D02*
X014723Y008352D01*
X014577Y008352D01*
X014577Y008498D01*
X014723Y008498D01*
X014723Y008496D02*
X014577Y008496D01*
X014723Y008148D02*
X014723Y008002D01*
X014577Y008002D01*
X014577Y008148D01*
X014723Y008148D01*
X014723Y008146D02*
X014577Y008146D01*
X015577Y008152D02*
X015577Y008298D01*
X015723Y008298D01*
X015723Y008152D01*
X015577Y008152D01*
X015577Y008296D02*
X015723Y008296D01*
X016123Y008293D02*
X016123Y008147D01*
X015977Y008147D01*
X015977Y008293D01*
X016123Y008293D01*
X016123Y008291D02*
X015977Y008291D01*
X016123Y007943D02*
X016123Y007797D01*
X015977Y007797D01*
X015977Y007943D01*
X016123Y007943D01*
X016123Y007941D02*
X015977Y007941D01*
X015577Y007948D02*
X015577Y007802D01*
X015577Y007948D02*
X015723Y007948D01*
X015723Y007802D01*
X015577Y007802D01*
X015577Y007946D02*
X015723Y007946D01*
X015748Y007518D02*
X015602Y007518D01*
X015748Y007518D02*
X015748Y007372D01*
X015602Y007372D01*
X015602Y007518D01*
X015602Y007516D02*
X015748Y007516D01*
X015952Y007518D02*
X016098Y007518D01*
X016098Y007372D01*
X015952Y007372D01*
X015952Y007518D01*
X015952Y007516D02*
X016098Y007516D01*
X015923Y006098D02*
X015923Y005952D01*
X015777Y005952D01*
X015777Y006098D01*
X015923Y006098D01*
X015923Y006096D02*
X015777Y006096D01*
X015923Y005748D02*
X015923Y005602D01*
X015777Y005602D01*
X015777Y005748D01*
X015923Y005748D01*
X015923Y005746D02*
X015777Y005746D01*
X012323Y008602D02*
X012323Y008748D01*
X012323Y008602D02*
X012177Y008602D01*
X012177Y008748D01*
X012323Y008748D01*
X012323Y008746D02*
X012177Y008746D01*
X012323Y008952D02*
X012323Y009098D01*
X012323Y008952D02*
X012177Y008952D01*
X012177Y009098D01*
X012323Y009098D01*
X012323Y009096D02*
X012177Y009096D01*
X011623Y009098D02*
X011623Y008952D01*
X011477Y008952D01*
X011477Y009098D01*
X011623Y009098D01*
X011623Y009096D02*
X011477Y009096D01*
X011623Y008748D02*
X011623Y008602D01*
X011477Y008602D01*
X011477Y008748D01*
X011623Y008748D01*
X011623Y008746D02*
X011477Y008746D01*
X009598Y008223D02*
X009452Y008223D01*
X009598Y008223D02*
X009598Y008077D01*
X009452Y008077D01*
X009452Y008223D01*
X009452Y008221D02*
X009598Y008221D01*
X009248Y008223D02*
X009102Y008223D01*
X009248Y008223D02*
X009248Y008077D01*
X009102Y008077D01*
X009102Y008223D01*
X009102Y008221D02*
X009248Y008221D01*
X008798Y008223D02*
X008652Y008223D01*
X008798Y008223D02*
X008798Y008077D01*
X008652Y008077D01*
X008652Y008223D01*
X008652Y008221D02*
X008798Y008221D01*
X008448Y008223D02*
X008302Y008223D01*
X008448Y008223D02*
X008448Y008077D01*
X008302Y008077D01*
X008302Y008223D01*
X008302Y008221D02*
X008448Y008221D01*
X006298Y007323D02*
X006152Y007323D01*
X006298Y007323D02*
X006298Y007177D01*
X006152Y007177D01*
X006152Y007323D01*
X006152Y007321D02*
X006298Y007321D01*
X005948Y007323D02*
X005802Y007323D01*
X005948Y007323D02*
X005948Y007177D01*
X005802Y007177D01*
X005802Y007323D01*
X005802Y007321D02*
X005948Y007321D01*
X005948Y006677D02*
X005802Y006677D01*
X005802Y006823D01*
X005948Y006823D01*
X005948Y006677D01*
X005948Y006821D02*
X005802Y006821D01*
X006152Y006677D02*
X006298Y006677D01*
X006152Y006677D02*
X006152Y006823D01*
X006298Y006823D01*
X006298Y006677D01*
X006298Y006821D02*
X006152Y006821D01*
X004798Y006823D02*
X004652Y006823D01*
X004798Y006823D02*
X004798Y006677D01*
X004652Y006677D01*
X004652Y006823D01*
X004652Y006821D02*
X004798Y006821D01*
X004448Y006823D02*
X004302Y006823D01*
X004448Y006823D02*
X004448Y006677D01*
X004302Y006677D01*
X004302Y006823D01*
X004302Y006821D02*
X004448Y006821D01*
X004448Y006423D02*
X004302Y006423D01*
X004448Y006423D02*
X004448Y006277D01*
X004302Y006277D01*
X004302Y006423D01*
X004302Y006421D02*
X004448Y006421D01*
X004652Y006423D02*
X004798Y006423D01*
X004798Y006277D01*
X004652Y006277D01*
X004652Y006423D01*
X004652Y006421D02*
X004798Y006421D01*
D12*
X002844Y006450D02*
X002838Y006382D01*
X002820Y006315D01*
X002791Y006253D01*
X002752Y006197D01*
X002703Y006148D01*
X002647Y006109D01*
X002585Y006080D01*
X002518Y006062D01*
X002450Y006056D01*
X002382Y006062D01*
X002315Y006080D01*
X002253Y006109D01*
X002197Y006148D01*
X002148Y006197D01*
X002109Y006253D01*
X002080Y006315D01*
X002062Y006382D01*
X002056Y006450D01*
X002062Y006518D01*
X002080Y006585D01*
X002109Y006647D01*
X002148Y006703D01*
X002197Y006752D01*
X002253Y006791D01*
X002315Y006820D01*
X002382Y006838D01*
X002450Y006844D01*
X002518Y006838D01*
X002585Y006820D01*
X002647Y006791D01*
X002703Y006752D01*
X002752Y006703D01*
X002791Y006647D01*
X002820Y006585D01*
X002838Y006518D01*
X002844Y006450D01*
X002844Y006452D02*
X002056Y006452D01*
X002060Y006404D02*
X002840Y006404D01*
X002831Y006355D02*
X002069Y006355D01*
X002084Y006307D02*
X002816Y006307D01*
X002793Y006258D02*
X002107Y006258D01*
X002140Y006210D02*
X002760Y006210D01*
X002716Y006161D02*
X002184Y006161D01*
X002248Y006113D02*
X002652Y006113D01*
X002525Y006064D02*
X002375Y006064D01*
X002061Y006501D02*
X002839Y006501D01*
X002830Y006549D02*
X002070Y006549D01*
X002086Y006598D02*
X002814Y006598D01*
X002791Y006646D02*
X002109Y006646D01*
X002142Y006695D02*
X002758Y006695D01*
X002712Y006743D02*
X002188Y006743D01*
X002254Y006792D02*
X002646Y006792D01*
X002492Y006840D02*
X002408Y006840D01*
X003697Y008348D02*
X003753Y008309D01*
X003815Y008280D01*
X003882Y008262D01*
X003950Y008256D01*
X004018Y008262D01*
X004085Y008280D01*
X004147Y008309D01*
X004203Y008348D01*
X004252Y008397D01*
X004291Y008453D01*
X004320Y008515D01*
X004338Y008582D01*
X004344Y008650D01*
X004338Y008718D01*
X004320Y008785D01*
X004291Y008847D01*
X004252Y008903D01*
X004203Y008952D01*
X004147Y008991D01*
X004085Y009020D01*
X004018Y009038D01*
X003950Y009044D01*
X003882Y009038D01*
X003815Y009020D01*
X003753Y008991D01*
X003697Y008952D01*
X003648Y008903D01*
X003609Y008847D01*
X003580Y008785D01*
X003562Y008718D01*
X003556Y008650D01*
X003562Y008582D01*
X003580Y008515D01*
X003609Y008453D01*
X003648Y008397D01*
X003697Y008348D01*
X003704Y008344D02*
X004196Y008344D01*
X004247Y008392D02*
X003653Y008392D01*
X003618Y008441D02*
X004282Y008441D01*
X004308Y008489D02*
X003592Y008489D01*
X003574Y008538D02*
X004326Y008538D01*
X004338Y008586D02*
X003562Y008586D01*
X003558Y008635D02*
X004342Y008635D01*
X004341Y008683D02*
X003559Y008683D01*
X003566Y008732D02*
X004334Y008732D01*
X004321Y008780D02*
X003579Y008780D01*
X003601Y008829D02*
X004299Y008829D01*
X004270Y008877D02*
X003630Y008877D01*
X003671Y008926D02*
X004229Y008926D01*
X004171Y008974D02*
X003729Y008974D01*
X003825Y009023D02*
X004075Y009023D01*
X004117Y008295D02*
X003783Y008295D01*
X009956Y008250D02*
X009962Y008318D01*
X009980Y008385D01*
X010009Y008447D01*
X010048Y008503D01*
X010097Y008552D01*
X010153Y008591D01*
X010215Y008620D01*
X010282Y008638D01*
X010350Y008644D01*
X010418Y008638D01*
X010485Y008620D01*
X010547Y008591D01*
X010603Y008552D01*
X010652Y008503D01*
X010691Y008447D01*
X010720Y008385D01*
X010738Y008318D01*
X010744Y008250D01*
X010738Y008182D01*
X010720Y008115D01*
X010691Y008053D01*
X010652Y007997D01*
X010603Y007948D01*
X010547Y007909D01*
X010485Y007880D01*
X010418Y007862D01*
X010350Y007856D01*
X010282Y007862D01*
X010215Y007880D01*
X010153Y007909D01*
X010097Y007948D01*
X010048Y007997D01*
X010009Y008053D01*
X009980Y008115D01*
X009962Y008182D01*
X009956Y008250D01*
X009957Y008247D02*
X010743Y008247D01*
X010740Y008295D02*
X009960Y008295D01*
X009969Y008344D02*
X010731Y008344D01*
X010717Y008392D02*
X009983Y008392D01*
X010006Y008441D02*
X010694Y008441D01*
X010661Y008489D02*
X010039Y008489D01*
X010083Y008538D02*
X010617Y008538D01*
X010554Y008586D02*
X010146Y008586D01*
X010270Y008635D02*
X010430Y008635D01*
X010739Y008198D02*
X009961Y008198D01*
X009971Y008150D02*
X010729Y008150D01*
X010713Y008101D02*
X009987Y008101D01*
X010009Y008053D02*
X010691Y008053D01*
X010657Y008004D02*
X010043Y008004D01*
X010090Y007956D02*
X010610Y007956D01*
X010543Y007907D02*
X010157Y007907D01*
X010324Y007859D02*
X010376Y007859D01*
D13*
X006837Y008635D03*
X006837Y009265D03*
X005263Y009265D03*
X005263Y008635D03*
X004450Y008044D03*
X004450Y007256D03*
X004450Y005844D03*
X004450Y005056D03*
D14*
X012866Y005761D03*
X012866Y005958D03*
X012866Y006155D03*
X012866Y006352D03*
X012866Y006548D03*
X012866Y006745D03*
X012866Y006942D03*
X012866Y007139D03*
X014834Y007139D03*
X014834Y006942D03*
X014834Y006745D03*
X014834Y006548D03*
X014834Y006352D03*
X014834Y006155D03*
X014834Y005958D03*
X014834Y005761D03*
D15*
X014539Y005466D03*
X014342Y005466D03*
X014145Y005466D03*
X013948Y005466D03*
X013752Y005466D03*
X013555Y005466D03*
X013358Y005466D03*
X013161Y005466D03*
X013161Y007434D03*
X013358Y007434D03*
X013555Y007434D03*
X013752Y007434D03*
X013948Y007434D03*
X014145Y007434D03*
X014342Y007434D03*
X014539Y007434D03*
D16*
X013850Y006450D03*
D17*
X012596Y007696D02*
X012304Y007696D01*
X012596Y007696D02*
X012596Y007404D01*
X012304Y007404D01*
X012304Y007696D01*
X012304Y007501D02*
X012596Y007501D01*
X012596Y007598D02*
X012304Y007598D01*
X012304Y007695D02*
X012596Y007695D01*
X012296Y008296D02*
X012004Y008296D01*
X012296Y008296D02*
X012296Y008004D01*
X012004Y008004D01*
X012004Y008296D01*
X012004Y008101D02*
X012296Y008101D01*
X012296Y008198D02*
X012004Y008198D01*
X012004Y008295D02*
X012296Y008295D01*
X011696Y008296D02*
X011404Y008296D01*
X011696Y008296D02*
X011696Y008004D01*
X011404Y008004D01*
X011404Y008296D01*
X011404Y008101D02*
X011696Y008101D01*
X011696Y008198D02*
X011404Y008198D01*
X011404Y008295D02*
X011696Y008295D01*
X011704Y007696D02*
X011996Y007696D01*
X011996Y007404D01*
X011704Y007404D01*
X011704Y007696D01*
X011704Y007501D02*
X011996Y007501D01*
X011996Y007598D02*
X011704Y007598D01*
X011704Y007695D02*
X011996Y007695D01*
X012004Y009404D02*
X012296Y009404D01*
X012004Y009404D02*
X012004Y009696D01*
X012296Y009696D01*
X012296Y009404D01*
X012296Y009501D02*
X012004Y009501D01*
X012004Y009598D02*
X012296Y009598D01*
X012296Y009695D02*
X012004Y009695D01*
X011696Y009404D02*
X011404Y009404D01*
X011404Y009696D01*
X011696Y009696D01*
X011696Y009404D01*
X011696Y009501D02*
X011404Y009501D01*
X011404Y009598D02*
X011696Y009598D01*
X011696Y009695D02*
X011404Y009695D01*
D18*
X011120Y007078D03*
X011120Y005622D03*
D19*
X012686Y008497D03*
X013414Y008497D03*
X013414Y009403D03*
X012686Y009403D03*
X006614Y006203D03*
X005886Y006203D03*
X005886Y005297D03*
X006614Y005297D03*
D20*
X003550Y003830D03*
X002430Y003830D03*
D21*
X007206Y005721D02*
X007444Y005721D01*
X007206Y005721D02*
X007206Y005801D01*
X007444Y005801D01*
X007444Y005721D01*
X007444Y005799D02*
X007206Y005799D01*
X007206Y005918D02*
X007444Y005918D01*
X007206Y005918D02*
X007206Y005998D01*
X007444Y005998D01*
X007444Y005918D01*
X007444Y005996D02*
X007206Y005996D01*
X007206Y006115D02*
X007444Y006115D01*
X007206Y006115D02*
X007206Y006195D01*
X007444Y006195D01*
X007444Y006115D01*
X007444Y006193D02*
X007206Y006193D01*
X007206Y006312D02*
X007444Y006312D01*
X007206Y006312D02*
X007206Y006392D01*
X007444Y006392D01*
X007444Y006312D01*
X007444Y006390D02*
X007206Y006390D01*
X007206Y006508D02*
X007444Y006508D01*
X007206Y006508D02*
X007206Y006588D01*
X007444Y006588D01*
X007444Y006508D01*
X007444Y006586D02*
X007206Y006586D01*
X007206Y006705D02*
X007444Y006705D01*
X007206Y006705D02*
X007206Y006785D01*
X007444Y006785D01*
X007444Y006705D01*
X007444Y006783D02*
X007206Y006783D01*
X007206Y006902D02*
X007444Y006902D01*
X007206Y006902D02*
X007206Y006982D01*
X007444Y006982D01*
X007444Y006902D01*
X007444Y006980D02*
X007206Y006980D01*
X007206Y007099D02*
X007444Y007099D01*
X007206Y007099D02*
X007206Y007179D01*
X007444Y007179D01*
X007444Y007099D01*
X007444Y007177D02*
X007206Y007177D01*
X007521Y007256D02*
X007601Y007256D01*
X007521Y007256D02*
X007521Y007494D01*
X007601Y007494D01*
X007601Y007256D01*
X007601Y007334D02*
X007521Y007334D01*
X007521Y007412D02*
X007601Y007412D01*
X007601Y007490D02*
X007521Y007490D01*
X007718Y007256D02*
X007798Y007256D01*
X007718Y007256D02*
X007718Y007494D01*
X007798Y007494D01*
X007798Y007256D01*
X007798Y007334D02*
X007718Y007334D01*
X007718Y007412D02*
X007798Y007412D01*
X007798Y007490D02*
X007718Y007490D01*
X007915Y007256D02*
X007995Y007256D01*
X007915Y007256D02*
X007915Y007494D01*
X007995Y007494D01*
X007995Y007256D01*
X007995Y007334D02*
X007915Y007334D01*
X007915Y007412D02*
X007995Y007412D01*
X007995Y007490D02*
X007915Y007490D01*
X008112Y007256D02*
X008192Y007256D01*
X008112Y007256D02*
X008112Y007494D01*
X008192Y007494D01*
X008192Y007256D01*
X008192Y007334D02*
X008112Y007334D01*
X008112Y007412D02*
X008192Y007412D01*
X008192Y007490D02*
X008112Y007490D01*
X008308Y007256D02*
X008388Y007256D01*
X008308Y007256D02*
X008308Y007494D01*
X008388Y007494D01*
X008388Y007256D01*
X008388Y007334D02*
X008308Y007334D01*
X008308Y007412D02*
X008388Y007412D01*
X008388Y007490D02*
X008308Y007490D01*
X008505Y007256D02*
X008585Y007256D01*
X008505Y007256D02*
X008505Y007494D01*
X008585Y007494D01*
X008585Y007256D01*
X008585Y007334D02*
X008505Y007334D01*
X008505Y007412D02*
X008585Y007412D01*
X008585Y007490D02*
X008505Y007490D01*
X008702Y007256D02*
X008782Y007256D01*
X008702Y007256D02*
X008702Y007494D01*
X008782Y007494D01*
X008782Y007256D01*
X008782Y007334D02*
X008702Y007334D01*
X008702Y007412D02*
X008782Y007412D01*
X008782Y007490D02*
X008702Y007490D01*
X008899Y007256D02*
X008979Y007256D01*
X008899Y007256D02*
X008899Y007494D01*
X008979Y007494D01*
X008979Y007256D01*
X008979Y007334D02*
X008899Y007334D01*
X008899Y007412D02*
X008979Y007412D01*
X008979Y007490D02*
X008899Y007490D01*
X009056Y007099D02*
X009294Y007099D01*
X009056Y007099D02*
X009056Y007179D01*
X009294Y007179D01*
X009294Y007099D01*
X009294Y007177D02*
X009056Y007177D01*
X009056Y006902D02*
X009294Y006902D01*
X009056Y006902D02*
X009056Y006982D01*
X009294Y006982D01*
X009294Y006902D01*
X009294Y006980D02*
X009056Y006980D01*
X009056Y006705D02*
X009294Y006705D01*
X009056Y006705D02*
X009056Y006785D01*
X009294Y006785D01*
X009294Y006705D01*
X009294Y006783D02*
X009056Y006783D01*
X009056Y006508D02*
X009294Y006508D01*
X009056Y006508D02*
X009056Y006588D01*
X009294Y006588D01*
X009294Y006508D01*
X009294Y006586D02*
X009056Y006586D01*
X009056Y006312D02*
X009294Y006312D01*
X009056Y006312D02*
X009056Y006392D01*
X009294Y006392D01*
X009294Y006312D01*
X009294Y006390D02*
X009056Y006390D01*
X009056Y006115D02*
X009294Y006115D01*
X009056Y006115D02*
X009056Y006195D01*
X009294Y006195D01*
X009294Y006115D01*
X009294Y006193D02*
X009056Y006193D01*
X009056Y005918D02*
X009294Y005918D01*
X009056Y005918D02*
X009056Y005998D01*
X009294Y005998D01*
X009294Y005918D01*
X009294Y005996D02*
X009056Y005996D01*
X009056Y005721D02*
X009294Y005721D01*
X009056Y005721D02*
X009056Y005801D01*
X009294Y005801D01*
X009294Y005721D01*
X009294Y005799D02*
X009056Y005799D01*
X008979Y005406D02*
X008899Y005406D01*
X008899Y005644D01*
X008979Y005644D01*
X008979Y005406D01*
X008979Y005484D02*
X008899Y005484D01*
X008899Y005562D02*
X008979Y005562D01*
X008979Y005640D02*
X008899Y005640D01*
X008782Y005406D02*
X008702Y005406D01*
X008702Y005644D01*
X008782Y005644D01*
X008782Y005406D01*
X008782Y005484D02*
X008702Y005484D01*
X008702Y005562D02*
X008782Y005562D01*
X008782Y005640D02*
X008702Y005640D01*
X008585Y005406D02*
X008505Y005406D01*
X008505Y005644D01*
X008585Y005644D01*
X008585Y005406D01*
X008585Y005484D02*
X008505Y005484D01*
X008505Y005562D02*
X008585Y005562D01*
X008585Y005640D02*
X008505Y005640D01*
X008388Y005406D02*
X008308Y005406D01*
X008308Y005644D01*
X008388Y005644D01*
X008388Y005406D01*
X008388Y005484D02*
X008308Y005484D01*
X008308Y005562D02*
X008388Y005562D01*
X008388Y005640D02*
X008308Y005640D01*
X008192Y005406D02*
X008112Y005406D01*
X008112Y005644D01*
X008192Y005644D01*
X008192Y005406D01*
X008192Y005484D02*
X008112Y005484D01*
X008112Y005562D02*
X008192Y005562D01*
X008192Y005640D02*
X008112Y005640D01*
X007995Y005406D02*
X007915Y005406D01*
X007915Y005644D01*
X007995Y005644D01*
X007995Y005406D01*
X007995Y005484D02*
X007915Y005484D01*
X007915Y005562D02*
X007995Y005562D01*
X007995Y005640D02*
X007915Y005640D01*
X007798Y005406D02*
X007718Y005406D01*
X007718Y005644D01*
X007798Y005644D01*
X007798Y005406D01*
X007798Y005484D02*
X007718Y005484D01*
X007718Y005562D02*
X007798Y005562D01*
X007798Y005640D02*
X007718Y005640D01*
X007601Y005406D02*
X007521Y005406D01*
X007521Y005644D01*
X007601Y005644D01*
X007601Y005406D01*
X007601Y005484D02*
X007521Y005484D01*
X007521Y005562D02*
X007601Y005562D01*
X007601Y005640D02*
X007521Y005640D01*
D22*
X007700Y005900D02*
X007700Y007000D01*
X008800Y007000D01*
X008800Y005900D01*
X007700Y005900D01*
X007700Y005915D02*
X008800Y005915D01*
X008800Y006073D02*
X007700Y006073D01*
X007700Y006232D02*
X008800Y006232D01*
X008800Y006390D02*
X007700Y006390D01*
X007700Y006549D02*
X008800Y006549D01*
X008800Y006707D02*
X007700Y006707D01*
X007700Y006866D02*
X008800Y006866D01*
D23*
X009283Y008576D03*
X008417Y008950D03*
X009283Y009324D03*
X009183Y004524D03*
X008317Y004150D03*
X009183Y003776D03*
X010117Y004150D03*
X010983Y003776D03*
X010983Y004524D03*
D24*
X013355Y003450D03*
X013945Y003450D03*
X006345Y003350D03*
X006345Y003850D03*
X006345Y004350D03*
X005755Y004350D03*
X005150Y004145D03*
X005755Y003850D03*
X005150Y003555D03*
X005755Y003350D03*
D25*
X005150Y005288D03*
X005150Y005608D03*
D26*
X005450Y002450D03*
X006450Y002450D03*
X007450Y002450D03*
X008450Y002450D03*
X009450Y002450D03*
X010450Y002450D03*
X011450Y002450D03*
X012450Y002450D03*
X013450Y002450D03*
X014450Y002450D03*
X015450Y002450D03*
X004450Y002450D03*
X003450Y002450D03*
X002450Y002450D03*
X002450Y010450D03*
X003450Y010450D03*
X004450Y010450D03*
X005450Y010450D03*
X006450Y010450D03*
X007450Y010450D03*
X008450Y010450D03*
X009450Y010450D03*
X010450Y010450D03*
X011450Y010450D03*
X012450Y010450D03*
X013450Y010450D03*
X014450Y010450D03*
X015450Y010450D03*
D27*
X004450Y009450D03*
X003450Y009450D03*
X002450Y009450D03*
D28*
X015846Y006805D03*
X016043Y006805D03*
X016239Y006805D03*
X016239Y006490D03*
X016043Y006490D03*
X015846Y006490D03*
D29*
X003493Y006450D03*
X003493Y006706D03*
X003493Y006962D03*
X003493Y006194D03*
X003493Y005938D03*
D30*
X003510Y005470D03*
X003510Y007430D03*
D31*
X002450Y007830D03*
X002450Y005070D03*
M02*
