G75*
G70*
%OFA0B0*%
%FSLAX24Y24*%
%IPPOS*%
%LPD*%
%AMOC8*
5,1,8,0,0,1.08239X$1,22.5*
%
%ADD10C,0.0100*%
%ADD11C,0.0145*%
%ADD12C,0.0500*%
%ADD13C,0.0434*%
%ADD14R,0.0434X0.0512*%
%ADD15R,0.0257X0.0512*%
%ADD16R,0.0350X0.0390*%
%ADD17R,0.0591X0.0670*%
%ADD18R,0.0453X0.0552*%
%ADD19C,0.1000*%
%ADD20C,0.0119*%
%ADD21R,0.0920X0.0520*%
%ADD22R,0.0906X0.1457*%
%ADD23R,0.0367X0.0288*%
%ADD24C,0.0740*%
%ADD25C,0.0700*%
%ADD26C,0.0610*%
%ADD27C,0.0760*%
D10*
X001820Y001850D02*
X017340Y001840D01*
X018270Y002770D01*
X018270Y010130D01*
X017350Y011050D01*
X001820Y011050D01*
X001820Y001850D01*
D11*
X004702Y005377D02*
X004848Y005377D01*
X004702Y005377D02*
X004702Y005523D01*
X004848Y005523D01*
X004848Y005377D01*
X004848Y005521D02*
X004702Y005521D01*
X005052Y005377D02*
X005198Y005377D01*
X005052Y005377D02*
X005052Y005523D01*
X005198Y005523D01*
X005198Y005377D01*
X005198Y005521D02*
X005052Y005521D01*
X005502Y005523D02*
X005648Y005523D01*
X005648Y005377D01*
X005502Y005377D01*
X005502Y005523D01*
X005502Y005521D02*
X005648Y005521D01*
X005852Y005523D02*
X005998Y005523D01*
X005998Y005377D01*
X005852Y005377D01*
X005852Y005523D01*
X005852Y005521D02*
X005998Y005521D01*
X005998Y007753D02*
X005852Y007753D01*
X005998Y007753D02*
X005998Y007607D01*
X005852Y007607D01*
X005852Y007753D01*
X005852Y007751D02*
X005998Y007751D01*
X005648Y007753D02*
X005502Y007753D01*
X005648Y007753D02*
X005648Y007607D01*
X005502Y007607D01*
X005502Y007753D01*
X005502Y007751D02*
X005648Y007751D01*
X009023Y008882D02*
X009023Y009028D01*
X009023Y008882D02*
X008877Y008882D01*
X008877Y009028D01*
X009023Y009028D01*
X009023Y009026D02*
X008877Y009026D01*
X009023Y009232D02*
X009023Y009378D01*
X009023Y009232D02*
X008877Y009232D01*
X008877Y009378D01*
X009023Y009378D01*
X009023Y009376D02*
X008877Y009376D01*
X010023Y009378D02*
X010023Y009232D01*
X009877Y009232D01*
X009877Y009378D01*
X010023Y009378D01*
X010023Y009376D02*
X009877Y009376D01*
X010023Y009028D02*
X010023Y008882D01*
X009877Y008882D01*
X009877Y009028D01*
X010023Y009028D01*
X010023Y009026D02*
X009877Y009026D01*
X010423Y009028D02*
X010423Y008882D01*
X010277Y008882D01*
X010277Y009028D01*
X010423Y009028D01*
X010423Y009026D02*
X010277Y009026D01*
X010423Y009232D02*
X010423Y009378D01*
X010423Y009232D02*
X010277Y009232D01*
X010277Y009378D01*
X010423Y009378D01*
X010423Y009376D02*
X010277Y009376D01*
X010277Y008598D02*
X010277Y008452D01*
X010277Y008598D02*
X010423Y008598D01*
X010423Y008452D01*
X010277Y008452D01*
X010277Y008596D02*
X010423Y008596D01*
X010277Y008248D02*
X010277Y008102D01*
X010277Y008248D02*
X010423Y008248D01*
X010423Y008102D01*
X010277Y008102D01*
X010277Y008246D02*
X010423Y008246D01*
X012023Y008248D02*
X012023Y008102D01*
X011877Y008102D01*
X011877Y008248D01*
X012023Y008248D01*
X012023Y008246D02*
X011877Y008246D01*
X012023Y008452D02*
X012023Y008598D01*
X012023Y008452D02*
X011877Y008452D01*
X011877Y008598D01*
X012023Y008598D01*
X012023Y008596D02*
X011877Y008596D01*
X012923Y008598D02*
X012923Y008452D01*
X012777Y008452D01*
X012777Y008598D01*
X012923Y008598D01*
X012923Y008596D02*
X012777Y008596D01*
X012923Y008248D02*
X012923Y008102D01*
X012777Y008102D01*
X012777Y008248D01*
X012923Y008248D01*
X012923Y008246D02*
X012777Y008246D01*
X012852Y007523D02*
X012998Y007523D01*
X012998Y007377D01*
X012852Y007377D01*
X012852Y007523D01*
X012852Y007521D02*
X012998Y007521D01*
X012648Y007523D02*
X012502Y007523D01*
X012648Y007523D02*
X012648Y007377D01*
X012502Y007377D01*
X012502Y007523D01*
X012502Y007521D02*
X012648Y007521D01*
X014502Y006397D02*
X014648Y006397D01*
X014502Y006397D02*
X014502Y006543D01*
X014648Y006543D01*
X014648Y006397D01*
X014648Y006541D02*
X014502Y006541D01*
X014852Y006397D02*
X014998Y006397D01*
X014852Y006397D02*
X014852Y006543D01*
X014998Y006543D01*
X014998Y006397D01*
X014998Y006541D02*
X014852Y006541D01*
X013923Y006098D02*
X013923Y005952D01*
X013777Y005952D01*
X013777Y006098D01*
X013923Y006098D01*
X013923Y006096D02*
X013777Y006096D01*
X013923Y005748D02*
X013923Y005602D01*
X013777Y005602D01*
X013777Y005748D01*
X013923Y005748D01*
X013923Y005746D02*
X013777Y005746D01*
X009828Y003647D02*
X009682Y003647D01*
X009682Y003793D01*
X009828Y003793D01*
X009828Y003647D01*
X009828Y003791D02*
X009682Y003791D01*
X009478Y003647D02*
X009332Y003647D01*
X009332Y003793D01*
X009478Y003793D01*
X009478Y003647D01*
X009478Y003791D02*
X009332Y003791D01*
D12*
X003208Y006450D02*
X003210Y006473D01*
X003216Y006496D01*
X003225Y006518D01*
X003238Y006537D01*
X003254Y006554D01*
X003272Y006569D01*
X003293Y006580D01*
X003315Y006588D01*
X003338Y006592D01*
X003362Y006592D01*
X003385Y006588D01*
X003407Y006580D01*
X003428Y006569D01*
X003446Y006554D01*
X003462Y006537D01*
X003475Y006518D01*
X003484Y006496D01*
X003490Y006473D01*
X003492Y006450D01*
X003490Y006427D01*
X003484Y006404D01*
X003475Y006382D01*
X003462Y006363D01*
X003446Y006346D01*
X003428Y006331D01*
X003407Y006320D01*
X003385Y006312D01*
X003362Y006308D01*
X003338Y006308D01*
X003315Y006312D01*
X003293Y006320D01*
X003272Y006331D01*
X003254Y006346D01*
X003238Y006363D01*
X003225Y006382D01*
X003216Y006404D01*
X003210Y006427D01*
X003208Y006450D01*
X012208Y009250D02*
X012210Y009273D01*
X012216Y009296D01*
X012225Y009318D01*
X012238Y009337D01*
X012254Y009354D01*
X012272Y009369D01*
X012293Y009380D01*
X012315Y009388D01*
X012338Y009392D01*
X012362Y009392D01*
X012385Y009388D01*
X012407Y009380D01*
X012428Y009369D01*
X012446Y009354D01*
X012462Y009337D01*
X012475Y009318D01*
X012484Y009296D01*
X012490Y009273D01*
X012492Y009250D01*
X012490Y009227D01*
X012484Y009204D01*
X012475Y009182D01*
X012462Y009163D01*
X012446Y009146D01*
X012428Y009131D01*
X012407Y009120D01*
X012385Y009112D01*
X012362Y009108D01*
X012338Y009108D01*
X012315Y009112D01*
X012293Y009120D01*
X012272Y009131D01*
X012254Y009146D01*
X012238Y009163D01*
X012225Y009182D01*
X012216Y009204D01*
X012210Y009227D01*
X012208Y009250D01*
X015708Y007950D02*
X015710Y007973D01*
X015716Y007996D01*
X015725Y008018D01*
X015738Y008037D01*
X015754Y008054D01*
X015772Y008069D01*
X015793Y008080D01*
X015815Y008088D01*
X015838Y008092D01*
X015862Y008092D01*
X015885Y008088D01*
X015907Y008080D01*
X015928Y008069D01*
X015946Y008054D01*
X015962Y008037D01*
X015975Y008018D01*
X015984Y007996D01*
X015990Y007973D01*
X015992Y007950D01*
X015990Y007927D01*
X015984Y007904D01*
X015975Y007882D01*
X015962Y007863D01*
X015946Y007846D01*
X015928Y007831D01*
X015907Y007820D01*
X015885Y007812D01*
X015862Y007808D01*
X015838Y007808D01*
X015815Y007812D01*
X015793Y007820D01*
X015772Y007831D01*
X015754Y007846D01*
X015738Y007863D01*
X015725Y007882D01*
X015716Y007904D01*
X015710Y007927D01*
X015708Y007950D01*
D13*
X015850Y007950D03*
X012350Y009250D03*
X003350Y006450D03*
D14*
X005550Y006017D03*
X005550Y006883D03*
D15*
X013276Y007838D03*
X014024Y007838D03*
X014024Y008862D03*
X013650Y008862D03*
X013276Y008862D03*
D16*
X014860Y005950D03*
X014480Y005150D03*
X015240Y005150D03*
X015220Y004350D03*
X014460Y004350D03*
X014840Y003550D03*
D17*
X012681Y006730D03*
X011579Y006730D03*
X003841Y003810D03*
X002739Y003810D03*
D18*
X010786Y008297D03*
X011514Y008297D03*
X011514Y009203D03*
X010786Y009203D03*
D19*
X008000Y006450D02*
X008002Y006481D01*
X008008Y006512D01*
X008018Y006542D01*
X008031Y006570D01*
X008048Y006597D01*
X008068Y006621D01*
X008091Y006643D01*
X008116Y006661D01*
X008144Y006676D01*
X008173Y006688D01*
X008203Y006696D01*
X008234Y006700D01*
X008266Y006700D01*
X008297Y006696D01*
X008327Y006688D01*
X008356Y006676D01*
X008384Y006661D01*
X008409Y006643D01*
X008432Y006621D01*
X008452Y006597D01*
X008469Y006570D01*
X008482Y006542D01*
X008492Y006512D01*
X008498Y006481D01*
X008500Y006450D01*
X008498Y006419D01*
X008492Y006388D01*
X008482Y006358D01*
X008469Y006330D01*
X008452Y006303D01*
X008432Y006279D01*
X008409Y006257D01*
X008384Y006239D01*
X008356Y006224D01*
X008327Y006212D01*
X008297Y006204D01*
X008266Y006200D01*
X008234Y006200D01*
X008203Y006204D01*
X008173Y006212D01*
X008144Y006224D01*
X008116Y006239D01*
X008091Y006257D01*
X008068Y006279D01*
X008048Y006303D01*
X008031Y006330D01*
X008018Y006358D01*
X008008Y006388D01*
X008002Y006419D01*
X008000Y006450D01*
D20*
X007264Y007137D02*
X007113Y007288D01*
X007134Y007309D01*
X007285Y007158D01*
X007264Y007137D01*
X007188Y007255D02*
X007146Y007255D01*
X007252Y007427D02*
X007403Y007276D01*
X007252Y007427D02*
X007273Y007448D01*
X007424Y007297D01*
X007403Y007276D01*
X007327Y007394D02*
X007285Y007394D01*
X007391Y007566D02*
X007542Y007415D01*
X007391Y007566D02*
X007412Y007587D01*
X007563Y007436D01*
X007542Y007415D01*
X007466Y007533D02*
X007424Y007533D01*
X007531Y007705D02*
X007682Y007554D01*
X007531Y007705D02*
X007552Y007726D01*
X007703Y007575D01*
X007682Y007554D01*
X007606Y007672D02*
X007564Y007672D01*
X007670Y007844D02*
X007821Y007693D01*
X007670Y007844D02*
X007691Y007865D01*
X007842Y007714D01*
X007821Y007693D01*
X007745Y007811D02*
X007703Y007811D01*
X007809Y007983D02*
X007960Y007832D01*
X007809Y007983D02*
X007830Y008004D01*
X007981Y007853D01*
X007960Y007832D01*
X007884Y007950D02*
X007842Y007950D01*
X007948Y008123D02*
X008099Y007972D01*
X007948Y008123D02*
X007969Y008144D01*
X008120Y007993D01*
X008099Y007972D01*
X008023Y008090D02*
X007981Y008090D01*
X008380Y007993D02*
X008531Y008144D01*
X008552Y008123D01*
X008401Y007972D01*
X008380Y007993D01*
X008477Y008090D02*
X008519Y008090D01*
X008670Y008004D02*
X008519Y007853D01*
X008670Y008004D02*
X008691Y007983D01*
X008540Y007832D01*
X008519Y007853D01*
X008616Y007950D02*
X008658Y007950D01*
X008809Y007865D02*
X008658Y007714D01*
X008809Y007865D02*
X008830Y007844D01*
X008679Y007693D01*
X008658Y007714D01*
X008755Y007811D02*
X008797Y007811D01*
X008948Y007726D02*
X008797Y007575D01*
X008948Y007726D02*
X008969Y007705D01*
X008818Y007554D01*
X008797Y007575D01*
X008894Y007672D02*
X008936Y007672D01*
X009088Y007587D02*
X008937Y007436D01*
X009088Y007587D02*
X009109Y007566D01*
X008958Y007415D01*
X008937Y007436D01*
X009034Y007533D02*
X009076Y007533D01*
X009227Y007448D02*
X009076Y007297D01*
X009227Y007448D02*
X009248Y007427D01*
X009097Y007276D01*
X009076Y007297D01*
X009173Y007394D02*
X009215Y007394D01*
X009366Y007309D02*
X009215Y007158D01*
X009366Y007309D02*
X009387Y007288D01*
X009236Y007137D01*
X009215Y007158D01*
X009312Y007255D02*
X009354Y007255D01*
X009505Y007169D02*
X009354Y007018D01*
X009505Y007169D02*
X009526Y007148D01*
X009375Y006997D01*
X009354Y007018D01*
X009451Y007115D02*
X009493Y007115D01*
X009644Y007030D02*
X009493Y006879D01*
X009644Y007030D02*
X009665Y007009D01*
X009514Y006858D01*
X009493Y006879D01*
X009590Y006976D02*
X009632Y006976D01*
X009784Y006891D02*
X009633Y006740D01*
X009784Y006891D02*
X009805Y006870D01*
X009654Y006719D01*
X009633Y006740D01*
X009730Y006837D02*
X009772Y006837D01*
X009923Y006752D02*
X009772Y006601D01*
X009923Y006752D02*
X009944Y006731D01*
X009793Y006580D01*
X009772Y006601D01*
X009869Y006698D02*
X009911Y006698D01*
X009793Y006320D02*
X009944Y006169D01*
X009923Y006148D01*
X009772Y006299D01*
X009793Y006320D01*
X009805Y006266D02*
X009847Y006266D01*
X009654Y006181D02*
X009805Y006030D01*
X009784Y006009D01*
X009633Y006160D01*
X009654Y006181D01*
X009666Y006127D02*
X009708Y006127D01*
X009514Y006042D02*
X009665Y005891D01*
X009644Y005870D01*
X009493Y006021D01*
X009514Y006042D01*
X009526Y005988D02*
X009568Y005988D01*
X009375Y005903D02*
X009526Y005752D01*
X009505Y005731D01*
X009354Y005882D01*
X009375Y005903D01*
X009387Y005849D02*
X009429Y005849D01*
X009236Y005763D02*
X009387Y005612D01*
X009366Y005591D01*
X009215Y005742D01*
X009236Y005763D01*
X009248Y005709D02*
X009290Y005709D01*
X009097Y005624D02*
X009248Y005473D01*
X009227Y005452D01*
X009076Y005603D01*
X009097Y005624D01*
X009109Y005570D02*
X009151Y005570D01*
X008958Y005485D02*
X009109Y005334D01*
X009088Y005313D01*
X008937Y005464D01*
X008958Y005485D01*
X008970Y005431D02*
X009012Y005431D01*
X008818Y005346D02*
X008969Y005195D01*
X008948Y005174D01*
X008797Y005325D01*
X008818Y005346D01*
X008830Y005292D02*
X008872Y005292D01*
X008679Y005207D02*
X008830Y005056D01*
X008809Y005035D01*
X008658Y005186D01*
X008679Y005207D01*
X008691Y005153D02*
X008733Y005153D01*
X008540Y005067D02*
X008691Y004916D01*
X008670Y004895D01*
X008519Y005046D01*
X008540Y005067D01*
X008552Y005013D02*
X008594Y005013D01*
X008401Y004928D02*
X008552Y004777D01*
X008531Y004756D01*
X008380Y004907D01*
X008401Y004928D01*
X008413Y004874D02*
X008455Y004874D01*
X008120Y004907D02*
X007969Y004756D01*
X007948Y004777D01*
X008099Y004928D01*
X008120Y004907D01*
X008087Y004874D02*
X008045Y004874D01*
X007981Y005046D02*
X007830Y004895D01*
X007809Y004916D01*
X007960Y005067D01*
X007981Y005046D01*
X007948Y005013D02*
X007906Y005013D01*
X007842Y005186D02*
X007691Y005035D01*
X007670Y005056D01*
X007821Y005207D01*
X007842Y005186D01*
X007809Y005153D02*
X007767Y005153D01*
X007703Y005325D02*
X007552Y005174D01*
X007531Y005195D01*
X007682Y005346D01*
X007703Y005325D01*
X007670Y005292D02*
X007628Y005292D01*
X007563Y005464D02*
X007412Y005313D01*
X007391Y005334D01*
X007542Y005485D01*
X007563Y005464D01*
X007530Y005431D02*
X007488Y005431D01*
X007424Y005603D02*
X007273Y005452D01*
X007252Y005473D01*
X007403Y005624D01*
X007424Y005603D01*
X007391Y005570D02*
X007349Y005570D01*
X007285Y005742D02*
X007134Y005591D01*
X007113Y005612D01*
X007264Y005763D01*
X007285Y005742D01*
X007252Y005709D02*
X007210Y005709D01*
X007146Y005882D02*
X006995Y005731D01*
X006974Y005752D01*
X007125Y005903D01*
X007146Y005882D01*
X007113Y005849D02*
X007071Y005849D01*
X007007Y006021D02*
X006856Y005870D01*
X006835Y005891D01*
X006986Y006042D01*
X007007Y006021D01*
X006974Y005988D02*
X006932Y005988D01*
X006868Y006160D02*
X006717Y006009D01*
X006696Y006030D01*
X006847Y006181D01*
X006868Y006160D01*
X006835Y006127D02*
X006793Y006127D01*
X006728Y006299D02*
X006577Y006148D01*
X006556Y006169D01*
X006707Y006320D01*
X006728Y006299D01*
X006695Y006266D02*
X006653Y006266D01*
X006707Y006580D02*
X006556Y006731D01*
X006577Y006752D01*
X006728Y006601D01*
X006707Y006580D01*
X006631Y006698D02*
X006589Y006698D01*
X006696Y006870D02*
X006847Y006719D01*
X006696Y006870D02*
X006717Y006891D01*
X006868Y006740D01*
X006847Y006719D01*
X006771Y006837D02*
X006729Y006837D01*
X006835Y007009D02*
X006986Y006858D01*
X006835Y007009D02*
X006856Y007030D01*
X007007Y006879D01*
X006986Y006858D01*
X006910Y006976D02*
X006868Y006976D01*
X006974Y007148D02*
X007125Y006997D01*
X006974Y007148D02*
X006995Y007169D01*
X007146Y007018D01*
X007125Y006997D01*
X007049Y007115D02*
X007007Y007115D01*
D21*
X011200Y005560D03*
X011200Y004650D03*
X011200Y003740D03*
D22*
X013640Y004650D03*
D23*
X009450Y008677D03*
X009450Y009583D03*
D24*
X009450Y010450D03*
X008450Y010450D03*
X007450Y010450D03*
X006450Y010450D03*
X005450Y010450D03*
X004450Y010450D03*
X003450Y010450D03*
X002450Y010450D03*
X010450Y010450D03*
X011450Y010450D03*
X012450Y010450D03*
X013450Y010450D03*
X014450Y010450D03*
X015450Y010450D03*
X015450Y002450D03*
X014450Y002450D03*
X013450Y002450D03*
X012450Y002450D03*
X011450Y002450D03*
X010450Y002450D03*
X009450Y002450D03*
X008450Y002450D03*
X007450Y002450D03*
X006450Y002450D03*
X005450Y002450D03*
X004450Y002450D03*
X003450Y002450D03*
X002450Y002450D03*
D25*
X002450Y009450D03*
X003450Y009450D03*
X004450Y009450D03*
D26*
X003510Y007430D03*
X003510Y005470D03*
D27*
X002450Y005070D03*
X002450Y007830D03*
M02*
