G75*
G70*
%OFA0B0*%
%FSLAX24Y24*%
%IPPOS*%
%LPD*%
%AMOC8*
5,1,8,0,0,1.08239X$1,22.5*
%
%ADD10C,0.0100*%
%ADD11C,0.0600*%
%ADD12C,0.0240*%
%ADD13C,0.0160*%
%ADD14C,0.0270*%
%ADD15C,0.0320*%
%ADD16C,0.0080*%
%ADD17C,0.0120*%
%ADD18C,0.0320*%
D10*
X001820Y001850D02*
X016150Y001840D01*
X016150Y004250D01*
X017550Y005650D01*
X017550Y009850D01*
X017530Y009870D02*
X016350Y011050D01*
X001820Y011060D01*
X001820Y001850D01*
X002757Y002149D02*
X002815Y002206D01*
X002880Y002364D01*
X002880Y002536D01*
X002815Y002694D01*
X002703Y002806D01*
X002877Y002980D01*
X003977Y002980D01*
X004100Y003103D01*
X004967Y003970D01*
X006873Y003970D01*
X006763Y003860D01*
X006640Y003737D01*
X006640Y003337D01*
X006640Y003163D01*
X007063Y002740D01*
X007132Y002740D01*
X007085Y002694D01*
X007020Y002536D01*
X007020Y002364D01*
X007085Y002206D01*
X007146Y002146D01*
X006755Y002147D01*
X006815Y002206D01*
X006880Y002364D01*
X006880Y002536D01*
X006815Y002694D01*
X006694Y002815D01*
X006536Y002880D01*
X006364Y002880D01*
X006206Y002815D01*
X006200Y002808D01*
X006200Y002900D01*
X006162Y002992D01*
X006092Y003062D01*
X006000Y003100D01*
X005900Y003100D01*
X005808Y003062D01*
X005738Y002992D01*
X005700Y002900D01*
X005700Y002808D01*
X005694Y002815D01*
X005536Y002880D01*
X005364Y002880D01*
X005206Y002815D01*
X005085Y002694D01*
X005020Y002536D01*
X005020Y002364D01*
X005085Y002206D01*
X005144Y002148D01*
X004756Y002148D01*
X004815Y002206D01*
X004880Y002364D01*
X004880Y002536D01*
X004815Y002694D01*
X004694Y002815D01*
X004536Y002880D01*
X004364Y002880D01*
X004206Y002815D01*
X004085Y002694D01*
X004020Y002536D01*
X004020Y002364D01*
X004085Y002206D01*
X004144Y002148D01*
X003757Y002149D01*
X003815Y002206D01*
X003880Y002364D01*
X003880Y002536D01*
X003815Y002694D01*
X003694Y002815D01*
X003536Y002880D01*
X003364Y002880D01*
X003206Y002815D01*
X003085Y002694D01*
X003020Y002536D01*
X003020Y002364D01*
X003085Y002206D01*
X003143Y002149D01*
X002757Y002149D01*
X002816Y002211D02*
X003084Y002211D01*
X003043Y002310D02*
X002857Y002310D01*
X002880Y002408D02*
X003020Y002408D01*
X003020Y002507D02*
X002880Y002507D01*
X002851Y002605D02*
X003049Y002605D01*
X003095Y002704D02*
X002805Y002704D01*
X002706Y002802D02*
X003194Y002802D01*
X002797Y002901D02*
X005700Y002901D01*
X005745Y002999D02*
X003996Y002999D01*
X004094Y003098D02*
X005894Y003098D01*
X006006Y003098D02*
X006706Y003098D01*
X006640Y003196D02*
X004193Y003196D01*
X004291Y003295D02*
X006640Y003295D01*
X006640Y003393D02*
X004390Y003393D01*
X004488Y003492D02*
X006640Y003492D01*
X006640Y003590D02*
X004587Y003590D01*
X004685Y003689D02*
X006640Y003689D01*
X006690Y003787D02*
X004784Y003787D01*
X004882Y003886D02*
X006789Y003886D01*
X007286Y004390D02*
X004793Y004390D01*
X003803Y003400D01*
X002703Y003400D01*
X002580Y003277D01*
X002535Y003232D01*
X002535Y003243D01*
X002495Y003340D01*
X002420Y003415D01*
X002323Y003455D01*
X002217Y003455D01*
X002120Y003415D01*
X002120Y009172D01*
X002206Y009085D01*
X002240Y009072D01*
X002240Y008763D01*
X002440Y008563D01*
X002563Y008440D01*
X003186Y008440D01*
X003138Y008392D01*
X003100Y008300D01*
X003100Y008200D01*
X003138Y008108D01*
X003208Y008038D01*
X003300Y008000D01*
X003400Y008000D01*
X003492Y008038D01*
X003562Y008108D01*
X003572Y008132D01*
X003640Y008063D01*
X003640Y007263D01*
X003763Y007140D01*
X003940Y006963D01*
X003940Y005663D01*
X004063Y005540D01*
X004463Y005140D01*
X006263Y005140D01*
X006563Y004840D01*
X007391Y004840D01*
X007401Y004830D01*
X007400Y004830D01*
X007308Y004792D01*
X007238Y004722D01*
X007200Y004630D01*
X007200Y004530D01*
X007238Y004438D01*
X007286Y004390D01*
X007222Y004477D02*
X002120Y004477D01*
X002120Y004575D02*
X003270Y004575D01*
X003280Y004565D02*
X003377Y004525D01*
X003483Y004525D01*
X003580Y004565D01*
X003655Y004640D01*
X003695Y004737D01*
X003695Y004843D01*
X003655Y004940D01*
X003580Y005015D01*
X003483Y005055D01*
X003377Y005055D01*
X003280Y005015D01*
X003205Y004940D01*
X003165Y004843D01*
X003165Y004737D01*
X003205Y004640D01*
X003280Y004565D01*
X003191Y004674D02*
X002120Y004674D01*
X002120Y004772D02*
X003165Y004772D01*
X003177Y004871D02*
X002120Y004871D01*
X002120Y004969D02*
X003234Y004969D01*
X003626Y004969D02*
X006434Y004969D01*
X006533Y004871D02*
X003683Y004871D01*
X003695Y004772D02*
X007288Y004772D01*
X007218Y004674D02*
X003669Y004674D01*
X003590Y004575D02*
X007200Y004575D01*
X007800Y004969D02*
X008714Y004969D01*
X008616Y004871D02*
X008404Y004871D01*
X008400Y004875D02*
X008303Y004915D01*
X008197Y004915D01*
X008100Y004875D01*
X008025Y004800D01*
X008009Y004760D01*
X007660Y005109D01*
X007660Y005137D01*
X007537Y005260D01*
X006737Y005260D01*
X006560Y005437D01*
X006437Y005560D01*
X004637Y005560D01*
X004360Y005837D01*
X004360Y007043D01*
X004463Y006940D01*
X005022Y006940D01*
X004978Y006922D01*
X004908Y006852D01*
X004870Y006760D01*
X004870Y006660D01*
X004800Y006660D01*
X004708Y006622D01*
X004638Y006552D01*
X004600Y006460D01*
X004600Y006360D01*
X004638Y006268D01*
X004708Y006198D01*
X004800Y006160D01*
X004860Y006160D01*
X004860Y006150D01*
X004898Y006058D01*
X004921Y006036D01*
X004875Y005990D01*
X004835Y005893D01*
X004835Y005787D01*
X004875Y005690D01*
X004950Y005615D01*
X005047Y005575D01*
X005153Y005575D01*
X005250Y005615D01*
X005325Y005690D01*
X005365Y005787D01*
X005365Y005893D01*
X005325Y005990D01*
X005289Y006026D01*
X005304Y006040D01*
X005637Y006040D01*
X005760Y006163D01*
X006937Y007340D01*
X008737Y007340D01*
X008860Y007463D01*
X009560Y008163D01*
X009560Y008837D01*
X009437Y008960D01*
X009060Y009337D01*
X009060Y010037D01*
X008937Y010160D01*
X008937Y010160D01*
X008837Y010260D01*
X008880Y010364D01*
X008880Y010536D01*
X008815Y010694D01*
X008753Y010755D01*
X009147Y010755D01*
X009085Y010694D01*
X009020Y010536D01*
X009020Y010364D01*
X009085Y010206D01*
X009170Y010122D01*
X009170Y009435D01*
X009580Y009025D01*
X009580Y008580D01*
X009680Y008480D01*
X010382Y007778D01*
X010318Y007752D01*
X010248Y007682D01*
X010232Y007643D01*
X010212Y007692D01*
X010142Y007762D01*
X010050Y007800D01*
X009950Y007800D01*
X009858Y007762D01*
X009788Y007692D01*
X009783Y007680D01*
X009772Y007692D01*
X009680Y007730D01*
X009580Y007730D01*
X009488Y007692D01*
X009418Y007622D01*
X009380Y007530D01*
X008927Y007530D01*
X008829Y007432D02*
X009380Y007432D01*
X009380Y007430D02*
X009418Y007338D01*
X009488Y007268D01*
X009580Y007230D01*
X009680Y007230D01*
X009772Y007268D01*
X009842Y007338D01*
X009847Y007350D01*
X009858Y007338D01*
X009950Y007300D01*
X010050Y007300D01*
X010142Y007338D01*
X010212Y007408D01*
X010228Y007447D01*
X010248Y007398D01*
X010286Y007360D01*
X010258Y007332D01*
X010220Y007240D01*
X010220Y007140D01*
X010258Y007048D01*
X010328Y006978D01*
X010420Y006940D01*
X010520Y006940D01*
X010612Y006978D01*
X010682Y007048D01*
X010720Y007140D01*
X010720Y007240D01*
X010682Y007332D01*
X010644Y007370D01*
X010672Y007398D01*
X010698Y007462D01*
X011150Y007010D01*
X011150Y006754D01*
X011142Y006762D01*
X011050Y006800D01*
X010950Y006800D01*
X010858Y006762D01*
X010793Y006697D01*
X010762Y006772D01*
X010692Y006842D01*
X010600Y006880D01*
X010500Y006880D01*
X010408Y006842D01*
X010338Y006772D01*
X010300Y006680D01*
X010300Y006580D01*
X010338Y006488D01*
X010340Y006486D01*
X010340Y006237D01*
X009503Y005400D01*
X009103Y005400D01*
X008980Y005277D01*
X008980Y005235D01*
X008495Y004750D01*
X008475Y004800D01*
X008400Y004875D01*
X008486Y004772D02*
X008517Y004772D01*
X008096Y004871D02*
X007898Y004871D01*
X007997Y004772D02*
X008014Y004772D01*
X007701Y005068D02*
X008813Y005068D01*
X008911Y005166D02*
X007631Y005166D01*
X006732Y005265D02*
X008980Y005265D01*
X009066Y005363D02*
X006634Y005363D01*
X006535Y005462D02*
X009565Y005462D01*
X009663Y005560D02*
X004637Y005560D01*
X004538Y005659D02*
X004907Y005659D01*
X004848Y005757D02*
X004440Y005757D01*
X004360Y005856D02*
X004835Y005856D01*
X004860Y005954D02*
X004360Y005954D01*
X004360Y006053D02*
X004904Y006053D01*
X004860Y006151D02*
X004360Y006151D01*
X004360Y006250D02*
X004657Y006250D01*
X004605Y006348D02*
X004360Y006348D01*
X004360Y006447D02*
X004600Y006447D01*
X004635Y006545D02*
X004360Y006545D01*
X004360Y006644D02*
X004760Y006644D01*
X004870Y006660D02*
X004870Y006660D01*
X004870Y006742D02*
X004360Y006742D01*
X004360Y006841D02*
X004903Y006841D01*
X005020Y006939D02*
X004360Y006939D01*
X004360Y007038D02*
X004365Y007038D01*
X003940Y006939D02*
X002120Y006939D01*
X002120Y006841D02*
X003940Y006841D01*
X003940Y006742D02*
X002120Y006742D01*
X002120Y006644D02*
X003940Y006644D01*
X003940Y006545D02*
X002120Y006545D01*
X002120Y006447D02*
X003940Y006447D01*
X003940Y006348D02*
X002120Y006348D01*
X002120Y006250D02*
X003940Y006250D01*
X003940Y006151D02*
X002120Y006151D01*
X002120Y006053D02*
X003940Y006053D01*
X003940Y005954D02*
X002120Y005954D01*
X002120Y005856D02*
X003940Y005856D01*
X003940Y005757D02*
X002120Y005757D01*
X002120Y005659D02*
X003944Y005659D01*
X004043Y005560D02*
X002120Y005560D01*
X002120Y005462D02*
X004141Y005462D01*
X004240Y005363D02*
X002120Y005363D01*
X002120Y005265D02*
X004339Y005265D01*
X004437Y005166D02*
X002120Y005166D01*
X002120Y005068D02*
X006336Y005068D01*
X005293Y005659D02*
X009762Y005659D01*
X009860Y005757D02*
X005352Y005757D01*
X005365Y005856D02*
X009959Y005856D01*
X010057Y005954D02*
X005340Y005954D01*
X005650Y006053D02*
X010156Y006053D01*
X010100Y006160D02*
X010192Y006198D01*
X010262Y006268D01*
X010300Y006360D01*
X010300Y006460D01*
X010262Y006552D01*
X010192Y006622D01*
X010100Y006660D01*
X010000Y006660D01*
X009908Y006622D01*
X009838Y006552D01*
X009800Y006460D01*
X009800Y006360D01*
X009838Y006268D01*
X009908Y006198D01*
X010000Y006160D01*
X010100Y006160D01*
X010254Y006151D02*
X005748Y006151D01*
X005846Y006250D02*
X009857Y006250D01*
X009805Y006348D02*
X005945Y006348D01*
X006044Y006447D02*
X009800Y006447D01*
X009835Y006545D02*
X006142Y006545D01*
X006241Y006644D02*
X009960Y006644D01*
X010140Y006644D02*
X010300Y006644D01*
X010315Y006545D02*
X010265Y006545D01*
X010300Y006447D02*
X010340Y006447D01*
X010340Y006348D02*
X010295Y006348D01*
X010340Y006250D02*
X010243Y006250D01*
X010326Y006742D02*
X006339Y006742D01*
X006438Y006841D02*
X010407Y006841D01*
X010269Y007038D02*
X006635Y007038D01*
X006733Y007136D02*
X010222Y007136D01*
X010220Y007235D02*
X009691Y007235D01*
X009569Y007235D02*
X006832Y007235D01*
X006930Y007333D02*
X009423Y007333D01*
X009380Y007430D02*
X009380Y007530D01*
X009425Y007629D02*
X009026Y007629D01*
X009124Y007727D02*
X009573Y007727D01*
X009687Y007727D02*
X009823Y007727D01*
X010177Y007727D02*
X010293Y007727D01*
X010334Y007826D02*
X009223Y007826D01*
X009321Y007924D02*
X010236Y007924D01*
X010137Y008023D02*
X009420Y008023D01*
X009518Y008121D02*
X010039Y008121D01*
X009940Y008220D02*
X009560Y008220D01*
X009560Y008318D02*
X009842Y008318D01*
X009743Y008417D02*
X009560Y008417D01*
X009560Y008515D02*
X009645Y008515D01*
X009580Y008614D02*
X009560Y008614D01*
X009560Y008712D02*
X009580Y008712D01*
X009580Y008811D02*
X009560Y008811D01*
X009580Y008909D02*
X009488Y008909D01*
X009580Y009008D02*
X009389Y009008D01*
X009291Y009106D02*
X009499Y009106D01*
X009401Y009205D02*
X009192Y009205D01*
X009094Y009303D02*
X009302Y009303D01*
X009204Y009402D02*
X009060Y009402D01*
X009060Y009500D02*
X009170Y009500D01*
X009170Y009599D02*
X009060Y009599D01*
X009060Y009697D02*
X009170Y009697D01*
X009170Y009796D02*
X009060Y009796D01*
X009060Y009894D02*
X009170Y009894D01*
X009170Y009993D02*
X009060Y009993D01*
X009006Y010091D02*
X009170Y010091D01*
X009102Y010190D02*
X008907Y010190D01*
X008848Y010288D02*
X009052Y010288D01*
X009020Y010387D02*
X008880Y010387D01*
X008880Y010485D02*
X009020Y010485D01*
X009040Y010584D02*
X008860Y010584D01*
X008819Y010682D02*
X009081Y010682D01*
X009450Y010450D02*
X009450Y010170D01*
X009350Y010070D01*
X009350Y009510D01*
X009750Y009110D01*
X009950Y009310D02*
X009950Y008750D01*
X012790Y005910D01*
X012790Y005050D01*
X011910Y004170D01*
X012550Y003950D02*
X012530Y003840D01*
X012550Y003950D02*
X012550Y004470D01*
X013030Y004950D01*
X013030Y005970D01*
X010150Y008850D01*
X010150Y009590D01*
X010070Y009670D01*
X010320Y009675D02*
X010320Y009720D01*
X010282Y009812D01*
X010212Y009882D01*
X010120Y009920D01*
X010095Y009920D01*
X010244Y010070D01*
X010364Y010020D01*
X010536Y010020D01*
X010694Y010085D01*
X010815Y010206D01*
X010880Y010364D01*
X010880Y010536D01*
X010815Y010694D01*
X010754Y010754D01*
X011145Y010754D01*
X011085Y010694D01*
X011020Y010536D01*
X011020Y010364D01*
X011085Y010206D01*
X011206Y010085D01*
X011364Y010020D01*
X011536Y010020D01*
X011694Y010085D01*
X011815Y010206D01*
X011880Y010364D01*
X011880Y010536D01*
X011815Y010694D01*
X011755Y010753D01*
X012145Y010753D01*
X012085Y010694D01*
X012020Y010536D01*
X012020Y010364D01*
X012085Y010206D01*
X012206Y010085D01*
X012364Y010020D01*
X012536Y010020D01*
X012694Y010085D01*
X012815Y010206D01*
X012880Y010364D01*
X012880Y010536D01*
X012815Y010694D01*
X012756Y010752D01*
X013144Y010752D01*
X013085Y010694D01*
X013020Y010536D01*
X013020Y010364D01*
X013085Y010206D01*
X013206Y010085D01*
X013364Y010020D01*
X013536Y010020D01*
X013694Y010085D01*
X013815Y010206D01*
X013880Y010364D01*
X013880Y010536D01*
X013815Y010694D01*
X013756Y010752D01*
X014143Y010752D01*
X014085Y010694D01*
X014020Y010536D01*
X014020Y010364D01*
X014085Y010206D01*
X014206Y010085D01*
X014364Y010020D01*
X014536Y010020D01*
X014694Y010085D01*
X014815Y010206D01*
X014880Y010364D01*
X014880Y010536D01*
X014815Y010694D01*
X014757Y010751D01*
X015143Y010751D01*
X015085Y010694D01*
X015020Y010536D01*
X015020Y010364D01*
X015085Y010206D01*
X015206Y010085D01*
X015364Y010020D01*
X015536Y010020D01*
X015694Y010085D01*
X015815Y010206D01*
X015880Y010364D01*
X015880Y010536D01*
X015815Y010694D01*
X015758Y010750D01*
X016050Y010750D01*
X016050Y004574D01*
X015896Y004420D01*
X015888Y004403D01*
X015865Y004460D01*
X015790Y004535D01*
X015693Y004575D01*
X015587Y004575D01*
X015490Y004535D01*
X015415Y004460D01*
X015375Y004363D01*
X015375Y004257D01*
X015415Y004160D01*
X015490Y004085D01*
X015587Y004045D01*
X015693Y004045D01*
X015790Y004085D01*
X015850Y004145D01*
X015850Y003657D01*
X015783Y003685D01*
X015707Y003685D01*
X015725Y003727D01*
X015725Y003833D01*
X015685Y003930D01*
X015610Y004005D01*
X015513Y004045D01*
X015407Y004045D01*
X015310Y004005D01*
X015235Y003930D01*
X015195Y003833D01*
X015195Y003727D01*
X015235Y003630D01*
X015310Y003555D01*
X015407Y003515D01*
X015483Y003515D01*
X015465Y003473D01*
X015465Y003367D01*
X015505Y003270D01*
X015580Y003195D01*
X015677Y003155D01*
X015783Y003155D01*
X015850Y003183D01*
X015850Y002608D01*
X015815Y002694D01*
X015694Y002815D01*
X015536Y002880D01*
X015364Y002880D01*
X015206Y002815D01*
X015202Y002810D01*
X015205Y002817D01*
X015205Y002836D01*
X015220Y002851D01*
X015220Y003349D01*
X015109Y003460D01*
X015000Y003569D01*
X015000Y003597D01*
X014537Y004060D01*
X013363Y004060D01*
X013240Y003937D01*
X013195Y003892D01*
X013162Y003972D01*
X013092Y004042D01*
X013043Y004062D01*
X013100Y004085D01*
X013175Y004160D01*
X013215Y004257D01*
X013215Y004363D01*
X013175Y004460D01*
X013100Y004535D01*
X013003Y004575D01*
X012910Y004575D01*
X014793Y004575D01*
X014817Y004565D02*
X014923Y004565D01*
X015020Y004605D01*
X015095Y004680D01*
X015135Y004777D01*
X015135Y004883D01*
X015095Y004980D01*
X015020Y005055D01*
X014923Y005095D01*
X014817Y005095D01*
X014720Y005055D01*
X014645Y004980D01*
X014605Y004883D01*
X014605Y004777D01*
X014645Y004680D01*
X014720Y004605D01*
X014817Y004565D01*
X014947Y004575D02*
X016050Y004575D01*
X016050Y004674D02*
X015088Y004674D01*
X015133Y004772D02*
X016050Y004772D01*
X016050Y004871D02*
X015135Y004871D01*
X015099Y004969D02*
X016050Y004969D01*
X016050Y005068D02*
X014989Y005068D01*
X014751Y005068D02*
X013530Y005068D01*
X013530Y005020D02*
X013530Y005120D01*
X013492Y005212D01*
X013422Y005282D01*
X013330Y005320D01*
X013230Y005320D01*
X013210Y005312D01*
X013210Y006045D01*
X010330Y008925D01*
X010330Y009665D01*
X010320Y009675D01*
X010320Y009697D02*
X010740Y009697D01*
X010740Y009766D02*
X010740Y009283D01*
X011690Y008333D01*
X011690Y008011D01*
X011689Y007926D01*
X011690Y007925D01*
X011690Y007923D01*
X011751Y007862D01*
X012020Y007586D01*
X012020Y007580D01*
X012058Y007488D01*
X012128Y007418D01*
X012220Y007380D01*
X012320Y007380D01*
X012392Y007410D01*
X013587Y007410D01*
X013722Y007545D01*
X013733Y007545D01*
X013830Y007585D01*
X013845Y007600D01*
X014660Y007600D01*
X014685Y007540D01*
X014760Y007465D01*
X014857Y007425D01*
X014963Y007425D01*
X015060Y007465D01*
X015135Y007540D01*
X015175Y007637D01*
X015175Y007743D01*
X015140Y007827D01*
X015140Y008807D01*
X014515Y009432D01*
X014515Y009443D01*
X014475Y009540D01*
X014400Y009615D01*
X014303Y009655D01*
X014197Y009655D01*
X014100Y009615D01*
X014095Y009610D01*
X011547Y009610D01*
X011200Y009957D01*
X011200Y009960D01*
X011162Y010052D01*
X011092Y010122D01*
X011063Y010134D01*
X011037Y010160D01*
X010863Y010160D01*
X010837Y010134D01*
X010808Y010122D01*
X010738Y010052D01*
X010700Y009960D01*
X010700Y009860D01*
X010738Y009768D01*
X010740Y009766D01*
X010727Y009796D02*
X010289Y009796D01*
X010182Y009894D02*
X010700Y009894D01*
X010714Y009993D02*
X010167Y009993D01*
X010370Y010450D02*
X009670Y009750D01*
X009670Y009590D01*
X009950Y009310D01*
X010330Y009303D02*
X010740Y009303D01*
X010740Y009402D02*
X010330Y009402D01*
X010330Y009500D02*
X010740Y009500D01*
X010740Y009599D02*
X010330Y009599D01*
X010330Y009205D02*
X010818Y009205D01*
X010917Y009106D02*
X010330Y009106D01*
X010330Y009008D02*
X011015Y009008D01*
X011114Y008909D02*
X010346Y008909D01*
X010444Y008811D02*
X011212Y008811D01*
X011311Y008712D02*
X010543Y008712D01*
X010641Y008614D02*
X011409Y008614D01*
X011508Y008515D02*
X010740Y008515D01*
X010838Y008417D02*
X011606Y008417D01*
X011690Y008318D02*
X010937Y008318D01*
X011035Y008220D02*
X011690Y008220D01*
X011690Y008121D02*
X011134Y008121D01*
X011232Y008023D02*
X011690Y008023D01*
X011690Y007924D02*
X011331Y007924D01*
X011429Y007826D02*
X011787Y007826D01*
X011882Y007727D02*
X011528Y007727D01*
X011626Y007629D02*
X011978Y007629D01*
X012041Y007530D02*
X011725Y007530D01*
X011823Y007432D02*
X012115Y007432D01*
X011922Y007333D02*
X016050Y007333D01*
X016050Y007235D02*
X012020Y007235D01*
X012119Y007136D02*
X016050Y007136D01*
X016050Y007038D02*
X012217Y007038D01*
X012316Y006939D02*
X016050Y006939D01*
X016050Y006841D02*
X012414Y006841D01*
X012513Y006742D02*
X016050Y006742D01*
X016050Y006644D02*
X012611Y006644D01*
X012710Y006545D02*
X016050Y006545D01*
X016050Y006447D02*
X012808Y006447D01*
X012907Y006348D02*
X016050Y006348D01*
X016050Y006250D02*
X013005Y006250D01*
X013104Y006151D02*
X016050Y006151D01*
X016050Y006053D02*
X013202Y006053D01*
X013210Y005954D02*
X016050Y005954D01*
X016050Y005856D02*
X013210Y005856D01*
X013210Y005757D02*
X016050Y005757D01*
X016050Y005659D02*
X013210Y005659D01*
X013210Y005560D02*
X016050Y005560D01*
X016050Y005462D02*
X013210Y005462D01*
X013210Y005363D02*
X016050Y005363D01*
X016050Y005265D02*
X013439Y005265D01*
X013511Y005166D02*
X016050Y005166D01*
X015952Y004477D02*
X015848Y004477D01*
X015432Y004477D02*
X013158Y004477D01*
X013209Y004378D02*
X015381Y004378D01*
X015375Y004280D02*
X013215Y004280D01*
X013183Y004181D02*
X015407Y004181D01*
X015497Y004083D02*
X013093Y004083D01*
X013150Y003984D02*
X013287Y003984D01*
X013537Y003640D02*
X014257Y003640D01*
X014220Y003625D01*
X014145Y003550D01*
X014105Y003453D01*
X014105Y003347D01*
X014145Y003250D01*
X014220Y003175D01*
X014317Y003135D01*
X014423Y003135D01*
X014467Y003153D01*
X014498Y003078D01*
X014568Y003008D01*
X014660Y002970D01*
X014695Y002970D01*
X014675Y002923D01*
X014675Y002822D01*
X014536Y002880D01*
X014364Y002880D01*
X014206Y002815D01*
X014085Y002694D01*
X014020Y002536D01*
X014020Y002364D01*
X014085Y002206D01*
X014150Y002141D01*
X013750Y002142D01*
X013815Y002206D01*
X013880Y002364D01*
X013880Y002536D01*
X013815Y002694D01*
X013694Y002815D01*
X013536Y002880D01*
X013364Y002880D01*
X013206Y002815D01*
X013085Y002694D01*
X013020Y002536D01*
X013020Y002364D01*
X013085Y002206D01*
X013150Y002142D01*
X012779Y002142D01*
X012793Y002157D01*
X012835Y002214D01*
X012867Y002277D01*
X012889Y002345D01*
X012898Y002400D01*
X012500Y002400D01*
X012500Y002500D01*
X012898Y002500D01*
X012889Y002555D01*
X012867Y002623D01*
X012835Y002686D01*
X012793Y002743D01*
X012743Y002793D01*
X012686Y002835D01*
X012623Y002867D01*
X012566Y002885D01*
X012726Y003046D01*
X012758Y002968D01*
X012828Y002898D01*
X012920Y002860D01*
X013020Y002860D01*
X013112Y002898D01*
X013182Y002968D01*
X013220Y003060D01*
X013220Y003160D01*
X013182Y003252D01*
X013134Y003300D01*
X013197Y003300D01*
X013537Y003640D01*
X013487Y003590D02*
X014185Y003590D01*
X014121Y003492D02*
X013388Y003492D01*
X013290Y003393D02*
X014105Y003393D01*
X014127Y003295D02*
X013139Y003295D01*
X013205Y003196D02*
X014199Y003196D01*
X014490Y003098D02*
X013220Y003098D01*
X013195Y002999D02*
X014590Y002999D01*
X014675Y002901D02*
X013114Y002901D01*
X013194Y002802D02*
X012731Y002802D01*
X012822Y002704D02*
X013095Y002704D01*
X013049Y002605D02*
X012873Y002605D01*
X012897Y002507D02*
X013020Y002507D01*
X013020Y002408D02*
X012500Y002408D01*
X012400Y002408D02*
X011500Y002408D01*
X011500Y002400D02*
X011500Y002500D01*
X011898Y002500D01*
X011889Y002555D01*
X011867Y002623D01*
X011835Y002686D01*
X011793Y002743D01*
X011743Y002793D01*
X011686Y002835D01*
X011637Y002860D01*
X012263Y002860D01*
X012214Y002835D01*
X012157Y002793D01*
X012107Y002743D01*
X012065Y002686D01*
X012033Y002623D01*
X012011Y002555D01*
X012002Y002500D01*
X012400Y002500D01*
X012400Y002400D01*
X012002Y002400D01*
X012011Y002345D01*
X012033Y002277D01*
X012065Y002214D01*
X012107Y002157D01*
X012121Y002143D01*
X011779Y002143D01*
X011793Y002157D01*
X011835Y002214D01*
X011867Y002277D01*
X011889Y002345D01*
X011898Y002400D01*
X011500Y002400D01*
X011833Y002211D02*
X012067Y002211D01*
X012022Y002310D02*
X011878Y002310D01*
X011897Y002507D02*
X012003Y002507D01*
X012027Y002605D02*
X011873Y002605D01*
X011822Y002704D02*
X012078Y002704D01*
X012169Y002802D02*
X011731Y002802D01*
X012581Y002901D02*
X012826Y002901D01*
X012745Y002999D02*
X012679Y002999D01*
X013706Y002802D02*
X014194Y002802D01*
X014095Y002704D02*
X013805Y002704D01*
X013851Y002605D02*
X014049Y002605D01*
X014020Y002507D02*
X013880Y002507D01*
X013880Y002408D02*
X014020Y002408D01*
X014043Y002310D02*
X013857Y002310D01*
X013816Y002211D02*
X014084Y002211D01*
X013084Y002211D02*
X012833Y002211D01*
X012878Y002310D02*
X013043Y002310D01*
X015000Y003590D02*
X015275Y003590D01*
X015211Y003689D02*
X014908Y003689D01*
X014810Y003787D02*
X015195Y003787D01*
X015217Y003886D02*
X014711Y003886D01*
X014613Y003984D02*
X015289Y003984D01*
X015631Y003984D02*
X015850Y003984D01*
X015850Y003886D02*
X015703Y003886D01*
X015725Y003787D02*
X015850Y003787D01*
X015850Y003689D02*
X015709Y003689D01*
X015473Y003492D02*
X015077Y003492D01*
X015176Y003393D02*
X015465Y003393D01*
X015495Y003295D02*
X015220Y003295D01*
X015220Y003196D02*
X015579Y003196D01*
X015850Y003098D02*
X015220Y003098D01*
X015220Y002999D02*
X015850Y002999D01*
X015850Y002901D02*
X015220Y002901D01*
X015706Y002802D02*
X015850Y002802D01*
X015850Y002704D02*
X015805Y002704D01*
X015783Y004083D02*
X015850Y004083D01*
X014652Y004674D02*
X013008Y004674D01*
X013105Y004770D02*
X013105Y004770D01*
X013177Y004842D01*
X013230Y004820D01*
X013330Y004820D01*
X013422Y004858D01*
X013492Y004928D01*
X013530Y005020D01*
X013509Y004969D02*
X014641Y004969D01*
X014605Y004871D02*
X013434Y004871D01*
X013107Y004772D02*
X014607Y004772D01*
X013105Y004770D02*
X012910Y004575D01*
X010838Y006742D02*
X010774Y006742D01*
X010693Y006841D02*
X011150Y006841D01*
X011150Y006939D02*
X006536Y006939D01*
X005520Y008017D02*
X005202Y007699D01*
X005172Y007772D01*
X005102Y007842D01*
X005010Y007880D01*
X004910Y007880D01*
X004818Y007842D01*
X004786Y007810D01*
X004745Y007810D01*
X004650Y007905D01*
X004650Y008395D01*
X005125Y008870D01*
X005230Y008975D01*
X005230Y009596D01*
X005242Y009608D01*
X005280Y009700D01*
X005280Y009800D01*
X005242Y009892D01*
X005172Y009962D01*
X005080Y010000D01*
X004980Y010000D01*
X004888Y009962D01*
X004818Y009892D01*
X004780Y009800D01*
X004780Y009728D01*
X004694Y009815D01*
X004536Y009880D01*
X004364Y009880D01*
X004206Y009815D01*
X004085Y009694D01*
X004020Y009536D01*
X004020Y009364D01*
X004085Y009206D01*
X004206Y009085D01*
X004364Y009020D01*
X004536Y009020D01*
X004694Y009085D01*
X004815Y009206D01*
X004870Y009340D01*
X004870Y009125D01*
X004290Y008545D01*
X004290Y008507D01*
X004060Y008737D01*
X003937Y008860D01*
X002737Y008860D01*
X002660Y008937D01*
X002660Y009072D01*
X002694Y009085D01*
X002815Y009206D01*
X002880Y009364D01*
X002880Y009536D01*
X002815Y009694D01*
X002694Y009815D01*
X002536Y009880D01*
X002364Y009880D01*
X002206Y009815D01*
X002120Y009728D01*
X002120Y010172D01*
X002206Y010085D01*
X002364Y010020D01*
X002536Y010020D01*
X002694Y010085D01*
X002815Y010206D01*
X002880Y010364D01*
X002880Y010536D01*
X002815Y010694D01*
X002749Y010759D01*
X003151Y010759D01*
X003085Y010694D01*
X003020Y010536D01*
X003020Y010364D01*
X003085Y010206D01*
X003206Y010085D01*
X003364Y010020D01*
X003536Y010020D01*
X003694Y010085D01*
X003815Y010206D01*
X003880Y010364D01*
X003880Y010536D01*
X003815Y010694D01*
X003749Y010759D01*
X004150Y010758D01*
X004085Y010694D01*
X004020Y010536D01*
X004020Y010364D01*
X004085Y010206D01*
X004206Y010085D01*
X004364Y010020D01*
X004536Y010020D01*
X004694Y010085D01*
X004815Y010206D01*
X004880Y010364D01*
X004880Y010536D01*
X004815Y010694D01*
X004750Y010758D01*
X005150Y010758D01*
X005085Y010694D01*
X005020Y010536D01*
X005020Y010364D01*
X005085Y010206D01*
X005206Y010085D01*
X005364Y010020D01*
X005536Y010020D01*
X005694Y010085D01*
X005815Y010206D01*
X005880Y010364D01*
X005880Y010536D01*
X005815Y010694D01*
X005751Y010757D01*
X006149Y010757D01*
X006085Y010694D01*
X006020Y010536D01*
X006020Y010364D01*
X006085Y010206D01*
X006206Y010085D01*
X006364Y010020D01*
X006536Y010020D01*
X006694Y010085D01*
X006815Y010206D01*
X006880Y010364D01*
X006880Y010536D01*
X006815Y010694D01*
X006752Y010757D01*
X007148Y010756D01*
X007085Y010694D01*
X007020Y010536D01*
X007020Y010364D01*
X007085Y010206D01*
X007206Y010085D01*
X007364Y010020D01*
X007536Y010020D01*
X007694Y010085D01*
X007815Y010206D01*
X007880Y010364D01*
X007880Y010536D01*
X007815Y010694D01*
X007752Y010756D01*
X008148Y010756D01*
X008085Y010694D01*
X008020Y010536D01*
X008020Y010364D01*
X008085Y010206D01*
X008206Y010085D01*
X008364Y010020D01*
X008483Y010020D01*
X008640Y009863D01*
X008640Y009758D01*
X008622Y009802D01*
X008552Y009872D01*
X008460Y009910D01*
X008360Y009910D01*
X008268Y009872D01*
X008198Y009802D01*
X008160Y009710D01*
X008160Y009610D01*
X008198Y009518D01*
X008200Y009516D01*
X008200Y008597D01*
X007663Y008060D01*
X006635Y008060D01*
X006675Y008100D01*
X006715Y008197D01*
X006715Y008303D01*
X006675Y008400D01*
X006600Y008475D01*
X006503Y008515D01*
X006397Y008515D01*
X006300Y008475D01*
X006250Y008425D01*
X006200Y008475D01*
X006103Y008515D01*
X005997Y008515D01*
X005900Y008475D01*
X005850Y008425D01*
X005800Y008475D01*
X005703Y008515D01*
X005597Y008515D01*
X005500Y008475D01*
X005425Y008400D01*
X005385Y008303D01*
X005385Y008197D01*
X005425Y008100D01*
X005500Y008025D01*
X005520Y008017D01*
X005507Y008023D02*
X004650Y008023D01*
X004650Y008121D02*
X005417Y008121D01*
X005385Y008220D02*
X004650Y008220D01*
X004650Y008318D02*
X005391Y008318D01*
X005442Y008417D02*
X004671Y008417D01*
X004770Y008515D02*
X008118Y008515D01*
X008200Y008614D02*
X007868Y008614D01*
X007850Y008595D02*
X007925Y008670D01*
X007965Y008767D01*
X007965Y008873D01*
X007925Y008970D01*
X007850Y009045D01*
X007782Y009073D01*
X007805Y009127D01*
X007805Y009233D01*
X007765Y009330D01*
X007690Y009405D01*
X007593Y009445D01*
X007555Y009445D01*
X007555Y009523D01*
X007515Y009620D01*
X007440Y009695D01*
X007343Y009735D01*
X007237Y009735D01*
X007140Y009695D01*
X007065Y009620D01*
X007025Y009523D01*
X007025Y009417D01*
X007065Y009320D01*
X007140Y009245D01*
X007237Y009205D01*
X007275Y009205D01*
X007275Y009127D01*
X007315Y009030D01*
X007390Y008955D01*
X007458Y008927D01*
X007435Y008873D01*
X007435Y008767D01*
X007475Y008670D01*
X007550Y008595D01*
X007647Y008555D01*
X007753Y008555D01*
X007850Y008595D01*
X007942Y008712D02*
X008200Y008712D01*
X008200Y008811D02*
X007965Y008811D01*
X007950Y008909D02*
X008200Y008909D01*
X008200Y009008D02*
X007887Y009008D01*
X007796Y009106D02*
X008200Y009106D01*
X008200Y009205D02*
X007805Y009205D01*
X007776Y009303D02*
X008200Y009303D01*
X008200Y009402D02*
X007693Y009402D01*
X007555Y009500D02*
X008200Y009500D01*
X008165Y009599D02*
X007524Y009599D01*
X007434Y009697D02*
X007868Y009697D01*
X007897Y009685D02*
X008003Y009685D01*
X008100Y009725D01*
X008175Y009800D01*
X008215Y009897D01*
X008215Y010003D01*
X008175Y010100D01*
X008100Y010175D01*
X008003Y010215D01*
X007897Y010215D01*
X007800Y010175D01*
X007725Y010100D01*
X007685Y010003D01*
X007685Y009897D01*
X007725Y009800D01*
X007800Y009725D01*
X007897Y009685D01*
X008032Y009697D02*
X008160Y009697D01*
X008170Y009796D02*
X008196Y009796D01*
X008214Y009894D02*
X008322Y009894D01*
X008215Y009993D02*
X008510Y009993D01*
X008498Y009894D02*
X008609Y009894D01*
X008624Y009796D02*
X008640Y009796D01*
X008201Y010091D02*
X008178Y010091D01*
X008102Y010190D02*
X008064Y010190D01*
X008052Y010288D02*
X007848Y010288D01*
X007836Y010190D02*
X007798Y010190D01*
X007722Y010091D02*
X007699Y010091D01*
X007685Y009993D02*
X005098Y009993D01*
X004962Y009993D02*
X002120Y009993D01*
X002120Y010091D02*
X002201Y010091D01*
X002120Y009894D02*
X004820Y009894D01*
X004780Y009796D02*
X004713Y009796D01*
X005030Y009750D02*
X005050Y009730D01*
X005050Y009050D01*
X004470Y008470D01*
X004470Y007830D01*
X004670Y007630D01*
X004960Y007630D01*
X004802Y007826D02*
X004729Y007826D01*
X004650Y007924D02*
X005427Y007924D01*
X005329Y007826D02*
X005118Y007826D01*
X005190Y007727D02*
X005230Y007727D01*
X004868Y008614D02*
X007532Y008614D01*
X007458Y008712D02*
X004967Y008712D01*
X005065Y008811D02*
X007435Y008811D01*
X007450Y008909D02*
X005164Y008909D01*
X005230Y009008D02*
X007338Y009008D01*
X007284Y009106D02*
X005230Y009106D01*
X005230Y009205D02*
X007275Y009205D01*
X007082Y009303D02*
X005230Y009303D01*
X005230Y009402D02*
X007032Y009402D01*
X007025Y009500D02*
X005230Y009500D01*
X005232Y009599D02*
X007056Y009599D01*
X007146Y009697D02*
X005279Y009697D01*
X005280Y009796D02*
X007730Y009796D01*
X007686Y009894D02*
X005240Y009894D01*
X005201Y010091D02*
X004699Y010091D01*
X004798Y010190D02*
X005102Y010190D01*
X005052Y010288D02*
X004848Y010288D01*
X004880Y010387D02*
X005020Y010387D01*
X005020Y010485D02*
X004880Y010485D01*
X004860Y010584D02*
X005040Y010584D01*
X005081Y010682D02*
X004819Y010682D01*
X004081Y010682D02*
X003819Y010682D01*
X003860Y010584D02*
X004040Y010584D01*
X004020Y010485D02*
X003880Y010485D01*
X003880Y010387D02*
X004020Y010387D01*
X004052Y010288D02*
X003848Y010288D01*
X003798Y010190D02*
X004102Y010190D01*
X004201Y010091D02*
X003699Y010091D01*
X003536Y009880D02*
X003364Y009880D01*
X003206Y009815D01*
X003085Y009694D01*
X003020Y009536D01*
X003020Y009364D01*
X003085Y009206D01*
X003206Y009085D01*
X003364Y009020D01*
X003536Y009020D01*
X003694Y009085D01*
X003815Y009206D01*
X003880Y009364D01*
X003880Y009536D01*
X003815Y009694D01*
X003694Y009815D01*
X003536Y009880D01*
X003713Y009796D02*
X004187Y009796D01*
X004089Y009697D02*
X003811Y009697D01*
X003854Y009599D02*
X004046Y009599D01*
X004020Y009500D02*
X003880Y009500D01*
X003880Y009402D02*
X004020Y009402D01*
X004045Y009303D02*
X003855Y009303D01*
X003813Y009205D02*
X004087Y009205D01*
X004186Y009106D02*
X003714Y009106D01*
X003986Y008811D02*
X004556Y008811D01*
X004654Y008909D02*
X002688Y008909D01*
X002660Y009008D02*
X004753Y009008D01*
X004714Y009106D02*
X004851Y009106D01*
X004870Y009205D02*
X004813Y009205D01*
X004855Y009303D02*
X004870Y009303D01*
X004457Y008712D02*
X004085Y008712D01*
X004183Y008614D02*
X004359Y008614D01*
X004290Y008515D02*
X004282Y008515D01*
X003582Y008121D02*
X003567Y008121D01*
X003640Y008023D02*
X003454Y008023D01*
X003246Y008023D02*
X002120Y008023D01*
X002120Y008121D02*
X003133Y008121D01*
X003100Y008220D02*
X002120Y008220D01*
X002120Y008318D02*
X003108Y008318D01*
X003163Y008417D02*
X002120Y008417D01*
X002120Y008515D02*
X002488Y008515D01*
X002389Y008614D02*
X002120Y008614D01*
X002120Y008712D02*
X002291Y008712D01*
X002240Y008811D02*
X002120Y008811D01*
X002120Y008909D02*
X002240Y008909D01*
X002240Y009008D02*
X002120Y009008D01*
X002120Y009106D02*
X002186Y009106D01*
X002714Y009106D02*
X003186Y009106D01*
X003087Y009205D02*
X002813Y009205D01*
X002855Y009303D02*
X003045Y009303D01*
X003020Y009402D02*
X002880Y009402D01*
X002880Y009500D02*
X003020Y009500D01*
X003046Y009599D02*
X002854Y009599D01*
X002811Y009697D02*
X003089Y009697D01*
X003187Y009796D02*
X002713Y009796D01*
X002699Y010091D02*
X003201Y010091D01*
X003102Y010190D02*
X002798Y010190D01*
X002848Y010288D02*
X003052Y010288D01*
X003020Y010387D02*
X002880Y010387D01*
X002880Y010485D02*
X003020Y010485D01*
X003040Y010584D02*
X002860Y010584D01*
X002819Y010682D02*
X003081Y010682D01*
X002187Y009796D02*
X002120Y009796D01*
X002120Y007924D02*
X003640Y007924D01*
X003640Y007826D02*
X002120Y007826D01*
X002120Y007727D02*
X003640Y007727D01*
X003640Y007629D02*
X002120Y007629D01*
X002120Y007530D02*
X003640Y007530D01*
X003640Y007432D02*
X002120Y007432D01*
X002120Y007333D02*
X003640Y007333D01*
X003668Y007235D02*
X002120Y007235D01*
X002120Y007136D02*
X003767Y007136D01*
X003865Y007038D02*
X002120Y007038D01*
X005110Y006200D02*
X005160Y006250D01*
X006683Y008121D02*
X007724Y008121D01*
X007823Y008220D02*
X006715Y008220D01*
X006709Y008318D02*
X007921Y008318D01*
X008020Y008417D02*
X006658Y008417D01*
X006699Y010091D02*
X007201Y010091D01*
X007102Y010190D02*
X006798Y010190D01*
X006848Y010288D02*
X007052Y010288D01*
X007020Y010387D02*
X006880Y010387D01*
X006880Y010485D02*
X007020Y010485D01*
X007040Y010584D02*
X006860Y010584D01*
X006819Y010682D02*
X007081Y010682D01*
X007819Y010682D02*
X008081Y010682D01*
X008040Y010584D02*
X007860Y010584D01*
X007880Y010485D02*
X008020Y010485D01*
X008020Y010387D02*
X007880Y010387D01*
X008450Y010350D02*
X008450Y010450D01*
X010370Y010450D02*
X010450Y010450D01*
X010848Y010288D02*
X011052Y010288D01*
X011020Y010387D02*
X010880Y010387D01*
X010880Y010485D02*
X011020Y010485D01*
X011040Y010584D02*
X010860Y010584D01*
X010819Y010682D02*
X011081Y010682D01*
X011102Y010190D02*
X010798Y010190D01*
X010777Y010091D02*
X010699Y010091D01*
X011123Y010091D02*
X011201Y010091D01*
X011186Y009993D02*
X013754Y009993D01*
X013740Y009960D02*
X013740Y009860D01*
X013778Y009768D01*
X013848Y009698D01*
X013940Y009660D01*
X014040Y009660D01*
X014132Y009698D01*
X014202Y009768D01*
X014240Y009860D01*
X014240Y009960D01*
X014202Y010052D01*
X014132Y010122D01*
X014040Y010160D01*
X013940Y010160D01*
X013848Y010122D01*
X013778Y010052D01*
X013740Y009960D01*
X013740Y009894D02*
X011263Y009894D01*
X011361Y009796D02*
X013767Y009796D01*
X013851Y009697D02*
X011460Y009697D01*
X011699Y010091D02*
X012201Y010091D01*
X012102Y010190D02*
X011798Y010190D01*
X011848Y010288D02*
X012052Y010288D01*
X012020Y010387D02*
X011880Y010387D01*
X011880Y010485D02*
X012020Y010485D01*
X012040Y010584D02*
X011860Y010584D01*
X011819Y010682D02*
X012081Y010682D01*
X012819Y010682D02*
X013081Y010682D01*
X013040Y010584D02*
X012860Y010584D01*
X012880Y010485D02*
X013020Y010485D01*
X013020Y010387D02*
X012880Y010387D01*
X012848Y010288D02*
X013052Y010288D01*
X013102Y010190D02*
X012798Y010190D01*
X012699Y010091D02*
X013201Y010091D01*
X013699Y010091D02*
X013817Y010091D01*
X013798Y010190D02*
X014102Y010190D01*
X014052Y010288D02*
X013848Y010288D01*
X013880Y010387D02*
X014020Y010387D01*
X014020Y010485D02*
X013880Y010485D01*
X013860Y010584D02*
X014040Y010584D01*
X014081Y010682D02*
X013819Y010682D01*
X014163Y010091D02*
X014201Y010091D01*
X014226Y009993D02*
X016050Y009993D01*
X016050Y010091D02*
X015699Y010091D01*
X015798Y010190D02*
X016050Y010190D01*
X016050Y010288D02*
X015848Y010288D01*
X015880Y010387D02*
X016050Y010387D01*
X016050Y010485D02*
X015880Y010485D01*
X015860Y010584D02*
X016050Y010584D01*
X016050Y010682D02*
X015819Y010682D01*
X015081Y010682D02*
X014819Y010682D01*
X014860Y010584D02*
X015040Y010584D01*
X015020Y010485D02*
X014880Y010485D01*
X014880Y010387D02*
X015020Y010387D01*
X015052Y010288D02*
X014848Y010288D01*
X014798Y010190D02*
X015102Y010190D01*
X015201Y010091D02*
X014699Y010091D01*
X014240Y009894D02*
X016050Y009894D01*
X016050Y009796D02*
X014213Y009796D01*
X014129Y009697D02*
X016050Y009697D01*
X016050Y009599D02*
X014416Y009599D01*
X014491Y009500D02*
X016050Y009500D01*
X016050Y009402D02*
X014545Y009402D01*
X014644Y009303D02*
X016050Y009303D01*
X016050Y009205D02*
X014742Y009205D01*
X014841Y009106D02*
X016050Y009106D01*
X016050Y009008D02*
X014939Y009008D01*
X015038Y008909D02*
X016050Y008909D01*
X016050Y008811D02*
X015136Y008811D01*
X015140Y008712D02*
X016050Y008712D01*
X016050Y008614D02*
X015140Y008614D01*
X015140Y008515D02*
X016050Y008515D01*
X016050Y008417D02*
X015140Y008417D01*
X015140Y008318D02*
X016050Y008318D01*
X016050Y008220D02*
X015140Y008220D01*
X015140Y008121D02*
X016050Y008121D01*
X016050Y008023D02*
X015140Y008023D01*
X015140Y007924D02*
X016050Y007924D01*
X016050Y007826D02*
X015141Y007826D01*
X015175Y007727D02*
X016050Y007727D01*
X016050Y007629D02*
X015171Y007629D01*
X015125Y007530D02*
X016050Y007530D01*
X016050Y007432D02*
X014978Y007432D01*
X014842Y007432D02*
X013609Y007432D01*
X013707Y007530D02*
X014695Y007530D01*
X011122Y007038D02*
X010671Y007038D01*
X010718Y007136D02*
X011024Y007136D01*
X010925Y007235D02*
X010720Y007235D01*
X010681Y007333D02*
X010827Y007333D01*
X010728Y007432D02*
X010686Y007432D01*
X010259Y007333D02*
X010129Y007333D01*
X010222Y007432D02*
X010234Y007432D01*
X009871Y007333D02*
X009837Y007333D01*
X009190Y005190D02*
X008250Y004250D01*
X006804Y002999D02*
X006155Y002999D01*
X006200Y002901D02*
X006903Y002901D01*
X007001Y002802D02*
X006706Y002802D01*
X006805Y002704D02*
X007095Y002704D01*
X007049Y002605D02*
X006851Y002605D01*
X006880Y002507D02*
X007020Y002507D01*
X007020Y002408D02*
X006880Y002408D01*
X006857Y002310D02*
X007043Y002310D01*
X007084Y002211D02*
X006816Y002211D01*
X005194Y002802D02*
X004706Y002802D01*
X004805Y002704D02*
X005095Y002704D01*
X005049Y002605D02*
X004851Y002605D01*
X004880Y002507D02*
X005020Y002507D01*
X005020Y002408D02*
X004880Y002408D01*
X004857Y002310D02*
X005043Y002310D01*
X005084Y002211D02*
X004816Y002211D01*
X004084Y002211D02*
X003816Y002211D01*
X003857Y002310D02*
X004043Y002310D01*
X004020Y002408D02*
X003880Y002408D01*
X003880Y002507D02*
X004020Y002507D01*
X004049Y002605D02*
X003851Y002605D01*
X003805Y002704D02*
X004095Y002704D01*
X004194Y002802D02*
X003706Y002802D01*
X002696Y003393D02*
X002442Y003393D01*
X002514Y003295D02*
X002598Y003295D01*
X002120Y003492D02*
X003895Y003492D01*
X003993Y003590D02*
X002120Y003590D01*
X002120Y003689D02*
X004092Y003689D01*
X004190Y003787D02*
X002120Y003787D01*
X002120Y003886D02*
X004289Y003886D01*
X004387Y003984D02*
X002120Y003984D01*
X002120Y004083D02*
X004486Y004083D01*
X004584Y004181D02*
X002120Y004181D01*
X002120Y004280D02*
X004683Y004280D01*
X004781Y004378D02*
X002120Y004378D01*
X005699Y010091D02*
X006201Y010091D01*
X006102Y010190D02*
X005798Y010190D01*
X005848Y010288D02*
X006052Y010288D01*
X006020Y010387D02*
X005880Y010387D01*
X005880Y010485D02*
X006020Y010485D01*
X006040Y010584D02*
X005860Y010584D01*
X005819Y010682D02*
X006081Y010682D01*
D11*
X006450Y010450D03*
X005450Y010450D03*
X004450Y010450D03*
X003450Y010450D03*
X002450Y010450D03*
X002450Y009450D03*
X003450Y009450D03*
X004450Y009450D03*
X007450Y010450D03*
X008450Y010450D03*
X009450Y010450D03*
X010450Y010450D03*
X011450Y010450D03*
X012450Y010450D03*
X013450Y010450D03*
X014450Y010450D03*
X015450Y010450D03*
X015450Y002450D03*
X014450Y002450D03*
X013450Y002450D03*
X012450Y002450D03*
X011450Y002450D03*
X010450Y002450D03*
X009450Y002450D03*
X008450Y002450D03*
X007450Y002450D03*
X006450Y002450D03*
X005450Y002450D03*
X004450Y002450D03*
X003450Y002450D03*
X002450Y002450D03*
D12*
X005950Y002850D03*
X007450Y004180D03*
X007790Y004290D03*
X007450Y004580D03*
X009720Y003350D03*
X010110Y002960D03*
X011200Y002990D03*
X011930Y003430D03*
X011900Y003810D03*
X012260Y004110D03*
X011910Y004170D03*
X012950Y003830D03*
X012970Y003110D03*
X014710Y003220D03*
X013280Y005070D03*
X012350Y005190D03*
X012020Y005050D03*
X011970Y005760D03*
X012310Y005870D03*
X011320Y006100D03*
X010940Y006190D03*
X011000Y006550D03*
X010550Y006630D03*
X010050Y006410D03*
X010470Y007190D03*
X010460Y007540D03*
X010000Y007550D03*
X009630Y007480D03*
X008780Y008540D03*
X008410Y009660D03*
X010070Y009670D03*
X010950Y009910D03*
X011750Y009830D03*
X012790Y009910D03*
X013990Y009910D03*
X015350Y009590D03*
X015750Y009590D03*
X012270Y007630D03*
X010870Y008870D03*
X010480Y005410D03*
X010070Y004590D03*
X008950Y002930D03*
X005110Y006200D03*
X004850Y006410D03*
X005120Y006710D03*
X005410Y007010D03*
X004960Y007630D03*
X003350Y008250D03*
X005030Y009750D03*
D13*
X003850Y008650D02*
X002650Y008650D01*
X002450Y008850D01*
X002450Y009450D01*
X003850Y008650D02*
X004150Y008350D01*
X004150Y007550D01*
X004550Y007150D01*
X004950Y007150D01*
X005650Y007850D01*
X007750Y007850D01*
X008410Y008510D01*
X008410Y009660D01*
X008850Y009950D02*
X008850Y009250D01*
X009350Y008750D01*
X009350Y008250D01*
X008650Y007550D01*
X006850Y007550D01*
X005550Y006250D01*
X005160Y006250D01*
X004550Y005350D02*
X004150Y005750D01*
X004150Y007050D01*
X003850Y007350D01*
X003850Y008150D01*
X003650Y008350D01*
X003450Y008350D01*
X003350Y008250D01*
X004550Y005350D02*
X006350Y005350D01*
X006650Y005050D01*
X007450Y005050D01*
X007450Y004180D02*
X004880Y004180D01*
X003890Y003190D01*
X002790Y003190D01*
X002450Y002850D01*
X002450Y002450D01*
X006850Y003250D02*
X006850Y003650D01*
X007050Y003850D01*
X007550Y003850D01*
X007390Y003330D02*
X008030Y003330D01*
X008250Y003550D01*
X008250Y004250D01*
X008450Y003350D02*
X008050Y002950D01*
X007150Y002950D01*
X006850Y003250D01*
X009190Y005190D02*
X009590Y005190D01*
X010550Y006150D01*
X010550Y006630D01*
X011900Y008010D02*
X012270Y007630D01*
X012290Y007620D01*
X013500Y007620D01*
X013680Y007800D01*
X013680Y007810D02*
X014790Y007810D01*
X014910Y007690D01*
X014930Y007710D01*
X014930Y008720D01*
X014275Y009375D01*
X014250Y009400D01*
X011460Y009400D01*
X010950Y009910D01*
X010950Y009370D01*
X011900Y008420D01*
X011900Y008010D01*
X010950Y009910D02*
X010950Y009950D01*
X008850Y009950D02*
X008450Y010350D01*
X012350Y004990D02*
X012350Y004950D01*
X011950Y004550D01*
X011750Y004550D01*
X011550Y004350D01*
X011550Y003810D01*
X011590Y003770D01*
X012950Y003510D02*
X013110Y003510D01*
X013450Y003850D01*
X014450Y003850D01*
X014790Y003510D01*
D14*
X014370Y003400D03*
X014940Y002870D03*
X015730Y003420D03*
X015460Y003780D03*
X015640Y004310D03*
X014870Y004830D03*
X015750Y004950D03*
X014250Y006050D03*
X013450Y006050D03*
X013450Y006850D03*
X014250Y006850D03*
X014910Y007690D03*
X013680Y007810D03*
X014250Y009390D03*
X007950Y009950D03*
X007290Y009470D03*
X007540Y009180D03*
X007700Y008820D03*
X006450Y008250D03*
X006050Y008250D03*
X005650Y008250D03*
X004890Y007990D03*
X006450Y006450D03*
X005100Y005840D03*
X005550Y004850D03*
X004510Y004440D03*
X003430Y004790D03*
X002270Y003190D03*
X005040Y002900D03*
X007390Y003330D03*
X007860Y003660D03*
X008570Y003650D03*
X008640Y004230D03*
X008250Y004650D03*
X010420Y003700D03*
X012530Y003840D03*
X012950Y004310D03*
D15*
X008750Y005950D03*
X007750Y005950D03*
X007750Y006950D03*
X008750Y006950D03*
D16*
X009750Y008650D02*
X011320Y007080D01*
X011320Y006100D01*
X012350Y005190D02*
X012350Y004990D01*
X012950Y003830D02*
X012630Y003510D01*
X012470Y003510D01*
X012150Y003190D01*
X011830Y003190D01*
X010430Y004590D01*
X010070Y004590D01*
X011590Y003770D02*
X011930Y003430D01*
X011590Y003030D02*
X012470Y003030D01*
X012950Y003510D01*
X011590Y003030D02*
X011270Y003350D01*
X010350Y003350D01*
X010250Y003450D01*
X009820Y003450D01*
X009720Y003350D01*
X009670Y002900D02*
X009400Y002900D01*
X008950Y003350D01*
X008450Y003350D01*
X007890Y003990D02*
X007690Y003990D01*
X007550Y003850D01*
X007890Y003990D02*
X008050Y004150D01*
X008050Y004450D01*
X007850Y004650D01*
X009670Y002900D02*
X009720Y002850D01*
X010000Y002850D01*
X010110Y002960D01*
X013450Y007850D02*
X013550Y007850D01*
X013640Y007850D01*
X013680Y007810D01*
X011550Y009250D02*
X011550Y009310D01*
X010950Y009910D01*
X009750Y009110D02*
X009750Y008650D01*
X014250Y009390D02*
X014260Y009390D01*
X014275Y009375D01*
D17*
X007850Y004650D02*
X007450Y005050D01*
X014790Y003510D02*
X015030Y003270D01*
X015030Y002930D01*
X015000Y002930D01*
X014940Y002870D01*
D18*
X013550Y007850D02*
X013650Y007950D01*
X014750Y007950D01*
X014750Y008050D02*
X014750Y008650D01*
X014150Y009250D01*
X011750Y009250D01*
X012250Y008750D01*
X012550Y008450D01*
X014150Y008450D01*
X013950Y008650D01*
X012650Y008650D01*
X012550Y008750D01*
X012250Y008750D02*
X012250Y009050D01*
X012350Y008950D01*
X014050Y008950D01*
X014550Y008450D01*
X014550Y008250D01*
X013550Y008250D01*
X013450Y008150D01*
X012450Y008150D01*
X012250Y008350D01*
X012250Y008750D01*
X012050Y008550D02*
X012050Y008150D01*
X012350Y007850D01*
X013450Y007850D01*
X014150Y008450D02*
X014250Y008450D01*
X012050Y008550D02*
X011050Y009550D01*
X011050Y009650D01*
X011550Y009250D02*
X011750Y009250D01*
M02*
