G75*
G70*
%OFA0B0*%
%FSLAX24Y24*%
%IPPOS*%
%LPD*%
%AMOC8*
5,1,8,0,0,1.08239X$1,22.5*
%
%ADD10C,0.0100*%
%ADD11C,0.0600*%
%ADD12C,0.0240*%
%ADD13C,0.0270*%
%ADD14C,0.0570*%
%ADD15C,0.0720*%
%ADD16C,0.0160*%
D10*
X001820Y001850D02*
X017340Y001840D01*
X018270Y002770D01*
X018270Y010130D01*
X017350Y011050D01*
X001820Y011050D01*
X001820Y001850D01*
X002020Y002050D02*
X002020Y010850D01*
X002292Y010850D01*
X002206Y010815D01*
X002085Y010694D01*
X002020Y010536D01*
X002020Y010364D01*
X002085Y010206D01*
X002206Y010085D01*
X002364Y010020D01*
X002536Y010020D01*
X002694Y010085D01*
X002815Y010206D01*
X002880Y010364D01*
X002880Y010536D01*
X002815Y010694D01*
X002694Y010815D01*
X002608Y010850D01*
X003292Y010850D01*
X003206Y010815D01*
X003085Y010694D01*
X003020Y010536D01*
X003020Y010364D01*
X003085Y010206D01*
X003206Y010085D01*
X003364Y010020D01*
X003536Y010020D01*
X003694Y010085D01*
X003815Y010206D01*
X003880Y010364D01*
X003880Y010536D01*
X003815Y010694D01*
X003694Y010815D01*
X003608Y010850D01*
X004292Y010850D01*
X004206Y010815D01*
X004085Y010694D01*
X004020Y010536D01*
X004020Y010364D01*
X004085Y010206D01*
X004206Y010085D01*
X004364Y010020D01*
X004536Y010020D01*
X004694Y010085D01*
X004815Y010206D01*
X004880Y010364D01*
X004880Y010536D01*
X004815Y010694D01*
X004694Y010815D01*
X004608Y010850D01*
X005292Y010850D01*
X005206Y010815D01*
X005085Y010694D01*
X005020Y010536D01*
X005020Y010364D01*
X005085Y010206D01*
X005206Y010085D01*
X005364Y010020D01*
X005536Y010020D01*
X005694Y010085D01*
X005815Y010206D01*
X005880Y010364D01*
X005880Y010536D01*
X005815Y010694D01*
X005694Y010815D01*
X005608Y010850D01*
X006292Y010850D01*
X006206Y010815D01*
X006085Y010694D01*
X006020Y010536D01*
X006020Y010364D01*
X006085Y010206D01*
X006206Y010085D01*
X006364Y010020D01*
X006536Y010020D01*
X006694Y010085D01*
X006815Y010206D01*
X006880Y010364D01*
X006880Y010536D01*
X006815Y010694D01*
X006694Y010815D01*
X006608Y010850D01*
X007292Y010850D01*
X007206Y010815D01*
X007085Y010694D01*
X007020Y010536D01*
X007020Y010364D01*
X007085Y010206D01*
X007206Y010085D01*
X007364Y010020D01*
X007536Y010020D01*
X007694Y010085D01*
X007815Y010206D01*
X007880Y010364D01*
X007880Y010536D01*
X007815Y010694D01*
X007694Y010815D01*
X007608Y010850D01*
X008292Y010850D01*
X008206Y010815D01*
X008085Y010694D01*
X008020Y010536D01*
X008020Y010364D01*
X008085Y010206D01*
X008206Y010085D01*
X008364Y010020D01*
X008536Y010020D01*
X008694Y010085D01*
X008815Y010206D01*
X008880Y010364D01*
X008880Y010536D01*
X008815Y010694D01*
X008694Y010815D01*
X008608Y010850D01*
X009292Y010850D01*
X009206Y010815D01*
X009085Y010694D01*
X009020Y010536D01*
X009020Y010364D01*
X009085Y010206D01*
X009206Y010085D01*
X009364Y010020D01*
X009536Y010020D01*
X009694Y010085D01*
X009815Y010206D01*
X009880Y010364D01*
X009880Y010536D01*
X009815Y010694D01*
X009694Y010815D01*
X009608Y010850D01*
X010292Y010850D01*
X010206Y010815D01*
X010085Y010694D01*
X010020Y010536D01*
X010020Y010364D01*
X010085Y010206D01*
X010206Y010085D01*
X010364Y010020D01*
X010536Y010020D01*
X010694Y010085D01*
X010815Y010206D01*
X010880Y010364D01*
X010880Y010536D01*
X010815Y010694D01*
X010694Y010815D01*
X010608Y010850D01*
X011292Y010850D01*
X011206Y010815D01*
X011085Y010694D01*
X011020Y010536D01*
X011020Y010364D01*
X011085Y010206D01*
X011206Y010085D01*
X011364Y010020D01*
X011536Y010020D01*
X011694Y010085D01*
X011815Y010206D01*
X011880Y010364D01*
X011880Y010536D01*
X011815Y010694D01*
X011694Y010815D01*
X011608Y010850D01*
X012292Y010850D01*
X012206Y010815D01*
X012085Y010694D01*
X012020Y010536D01*
X012020Y010364D01*
X012085Y010206D01*
X012206Y010085D01*
X012364Y010020D01*
X012536Y010020D01*
X012694Y010085D01*
X012815Y010206D01*
X012880Y010364D01*
X012880Y010536D01*
X012815Y010694D01*
X012694Y010815D01*
X012608Y010850D01*
X013292Y010850D01*
X013206Y010815D01*
X013085Y010694D01*
X013020Y010536D01*
X013020Y010364D01*
X013085Y010206D01*
X013206Y010085D01*
X013364Y010020D01*
X013536Y010020D01*
X013694Y010085D01*
X013815Y010206D01*
X013880Y010364D01*
X013880Y010536D01*
X013815Y010694D01*
X013694Y010815D01*
X013608Y010850D01*
X014292Y010850D01*
X014206Y010815D01*
X014085Y010694D01*
X014020Y010536D01*
X014020Y010364D01*
X014085Y010206D01*
X014206Y010085D01*
X014364Y010020D01*
X014536Y010020D01*
X014694Y010085D01*
X014815Y010206D01*
X014880Y010364D01*
X014880Y010536D01*
X014815Y010694D01*
X014694Y010815D01*
X014608Y010850D01*
X015292Y010850D01*
X015206Y010815D01*
X015085Y010694D01*
X015020Y010536D01*
X015020Y010364D01*
X015085Y010206D01*
X015206Y010085D01*
X015364Y010020D01*
X015536Y010020D01*
X015694Y010085D01*
X015815Y010206D01*
X015880Y010364D01*
X015880Y010536D01*
X015815Y010694D01*
X015694Y010815D01*
X015608Y010850D01*
X016450Y010850D01*
X016450Y002041D01*
X015587Y002041D01*
X015694Y002085D01*
X015815Y002206D01*
X015880Y002364D01*
X015880Y002536D01*
X015815Y002694D01*
X015694Y002815D01*
X015536Y002880D01*
X015364Y002880D01*
X015206Y002815D01*
X015202Y002810D01*
X015205Y002817D01*
X015205Y002923D01*
X015165Y003020D01*
X015090Y003095D01*
X014993Y003135D01*
X014887Y003135D01*
X014790Y003095D01*
X014715Y003020D01*
X014675Y002923D01*
X014675Y002822D01*
X014536Y002880D01*
X014364Y002880D01*
X014206Y002815D01*
X014085Y002694D01*
X014020Y002536D01*
X014020Y002364D01*
X014085Y002206D01*
X014206Y002085D01*
X014311Y002042D01*
X013590Y002042D01*
X013694Y002085D01*
X013815Y002206D01*
X013880Y002364D01*
X013880Y002536D01*
X013815Y002694D01*
X013694Y002815D01*
X013536Y002880D01*
X013364Y002880D01*
X013206Y002815D01*
X013085Y002694D01*
X013020Y002536D01*
X013020Y002364D01*
X013085Y002206D01*
X013206Y002085D01*
X013310Y002043D01*
X012642Y002043D01*
X012686Y002065D01*
X012743Y002107D01*
X012793Y002157D01*
X012835Y002214D01*
X012867Y002277D01*
X012889Y002345D01*
X012898Y002400D01*
X012500Y002400D01*
X012500Y002500D01*
X012898Y002500D01*
X012889Y002555D01*
X012867Y002623D01*
X012835Y002686D01*
X012793Y002743D01*
X012743Y002793D01*
X012686Y002835D01*
X012623Y002867D01*
X012555Y002889D01*
X012500Y002898D01*
X012500Y002500D01*
X012400Y002500D01*
X012400Y002898D01*
X012345Y002889D01*
X012277Y002867D01*
X012214Y002835D01*
X012157Y002793D01*
X012107Y002743D01*
X012065Y002686D01*
X012033Y002623D01*
X012011Y002555D01*
X012002Y002500D01*
X012400Y002500D01*
X012400Y002400D01*
X012002Y002400D01*
X012011Y002345D01*
X012033Y002277D01*
X012065Y002214D01*
X012107Y002157D01*
X012157Y002107D01*
X012214Y002065D01*
X012257Y002043D01*
X011644Y002044D01*
X011686Y002065D01*
X011743Y002107D01*
X011793Y002157D01*
X011835Y002214D01*
X011867Y002277D01*
X011889Y002345D01*
X011898Y002400D01*
X011500Y002400D01*
X011500Y002500D01*
X011400Y002500D01*
X011400Y002898D01*
X011345Y002889D01*
X011277Y002867D01*
X011214Y002835D01*
X011157Y002793D01*
X011107Y002743D01*
X011065Y002686D01*
X011033Y002623D01*
X011011Y002555D01*
X011002Y002500D01*
X011400Y002500D01*
X011400Y002400D01*
X011002Y002400D01*
X011011Y002345D01*
X011033Y002277D01*
X011065Y002214D01*
X011107Y002157D01*
X011157Y002107D01*
X011214Y002065D01*
X011256Y002044D01*
X010594Y002044D01*
X010694Y002085D01*
X010815Y002206D01*
X010880Y002364D01*
X010880Y002536D01*
X010815Y002694D01*
X010694Y002815D01*
X010536Y002880D01*
X010364Y002880D01*
X010206Y002815D01*
X010085Y002694D01*
X010020Y002536D01*
X010020Y002364D01*
X010085Y002206D01*
X010206Y002085D01*
X010305Y002045D01*
X009596Y002045D01*
X009694Y002085D01*
X009815Y002206D01*
X009880Y002364D01*
X009880Y002536D01*
X009815Y002694D01*
X009694Y002815D01*
X009536Y002880D01*
X009364Y002880D01*
X009206Y002815D01*
X009085Y002694D01*
X009020Y002536D01*
X009020Y002364D01*
X009085Y002206D01*
X009206Y002085D01*
X009304Y002045D01*
X008597Y002046D01*
X008694Y002085D01*
X008815Y002206D01*
X008880Y002364D01*
X008880Y002536D01*
X008815Y002694D01*
X008694Y002815D01*
X008536Y002880D01*
X008364Y002880D01*
X008206Y002815D01*
X008085Y002694D01*
X008020Y002536D01*
X008020Y002364D01*
X008085Y002206D01*
X008206Y002085D01*
X008302Y002046D01*
X007599Y002046D01*
X007694Y002085D01*
X007815Y002206D01*
X007880Y002364D01*
X007880Y002536D01*
X007815Y002694D01*
X007694Y002815D01*
X007536Y002880D01*
X007364Y002880D01*
X007206Y002815D01*
X007085Y002694D01*
X007020Y002536D01*
X007020Y002364D01*
X007085Y002206D01*
X007206Y002085D01*
X007301Y002046D01*
X006601Y002047D01*
X006694Y002085D01*
X006815Y002206D01*
X006880Y002364D01*
X006880Y002536D01*
X006815Y002694D01*
X006694Y002815D01*
X006536Y002880D01*
X006364Y002880D01*
X006206Y002815D01*
X006200Y002808D01*
X006200Y002900D01*
X006162Y002992D01*
X006092Y003062D01*
X006000Y003100D01*
X005900Y003100D01*
X005808Y003062D01*
X005738Y002992D01*
X005700Y002900D01*
X005700Y002808D01*
X005694Y002815D01*
X005536Y002880D01*
X005364Y002880D01*
X005206Y002815D01*
X005085Y002694D01*
X005020Y002536D01*
X005020Y002364D01*
X005085Y002206D01*
X005206Y002085D01*
X005297Y002048D01*
X004604Y002048D01*
X004694Y002085D01*
X004815Y002206D01*
X004880Y002364D01*
X004880Y002536D01*
X004815Y002694D01*
X004694Y002815D01*
X004536Y002880D01*
X004364Y002880D01*
X004206Y002815D01*
X004085Y002694D01*
X004020Y002536D01*
X004020Y002364D01*
X004085Y002206D01*
X004206Y002085D01*
X004296Y002048D01*
X003605Y002049D01*
X003694Y002085D01*
X003815Y002206D01*
X003880Y002364D01*
X003880Y002536D01*
X003815Y002694D01*
X003694Y002815D01*
X003536Y002880D01*
X003364Y002880D01*
X003206Y002815D01*
X003085Y002694D01*
X003020Y002536D01*
X003020Y002364D01*
X003085Y002206D01*
X003206Y002085D01*
X003294Y002049D01*
X002607Y002049D01*
X002694Y002085D01*
X002815Y002206D01*
X002880Y002364D01*
X002880Y002536D01*
X002815Y002694D01*
X002694Y002815D01*
X002536Y002880D01*
X002364Y002880D01*
X002206Y002815D01*
X002085Y002694D01*
X002020Y002536D01*
X002020Y002364D01*
X002085Y002206D01*
X002206Y002085D01*
X002293Y002050D01*
X002020Y002050D01*
X002020Y002119D02*
X002173Y002119D01*
X002081Y002217D02*
X002020Y002217D01*
X002020Y002316D02*
X002040Y002316D01*
X002020Y002414D02*
X002020Y002414D01*
X002020Y002513D02*
X002020Y002513D01*
X002020Y002611D02*
X002051Y002611D01*
X002020Y002710D02*
X002101Y002710D01*
X002020Y002808D02*
X002200Y002808D01*
X002020Y002907D02*
X005703Y002907D01*
X005751Y003005D02*
X002020Y003005D01*
X002020Y003104D02*
X007244Y003104D01*
X007240Y003105D02*
X007337Y003065D01*
X007443Y003065D01*
X007540Y003105D01*
X007615Y003180D01*
X007655Y003277D01*
X007655Y003383D01*
X007615Y003480D01*
X007540Y003555D01*
X007443Y003595D01*
X007337Y003595D01*
X007240Y003555D01*
X007165Y003480D01*
X007125Y003383D01*
X007125Y003277D01*
X007165Y003180D01*
X007240Y003105D01*
X007156Y003202D02*
X002557Y003202D01*
X002520Y003165D02*
X002595Y003240D01*
X002635Y003337D01*
X002635Y003443D01*
X002595Y003540D01*
X002520Y003615D01*
X002423Y003655D01*
X002317Y003655D01*
X002220Y003615D01*
X002145Y003540D01*
X002105Y003443D01*
X002105Y003337D01*
X002145Y003240D01*
X002220Y003165D01*
X002317Y003125D01*
X002423Y003125D01*
X002520Y003165D01*
X002620Y003301D02*
X007125Y003301D01*
X007132Y003399D02*
X002635Y003399D01*
X002612Y003498D02*
X007183Y003498D01*
X007597Y003498D02*
X007648Y003498D01*
X007635Y003510D02*
X007710Y003435D01*
X007807Y003395D01*
X007913Y003395D01*
X008010Y003435D01*
X008085Y003510D01*
X008125Y003607D01*
X008125Y003713D01*
X008085Y003810D01*
X008010Y003885D01*
X007913Y003925D01*
X007807Y003925D01*
X007710Y003885D01*
X007635Y003810D01*
X007595Y003713D01*
X007595Y003607D01*
X007635Y003510D01*
X007600Y003596D02*
X002539Y003596D01*
X002201Y003596D02*
X002020Y003596D01*
X002020Y003498D02*
X002128Y003498D01*
X002105Y003399D02*
X002020Y003399D01*
X002020Y003301D02*
X002120Y003301D01*
X002183Y003202D02*
X002020Y003202D01*
X002020Y003695D02*
X007595Y003695D01*
X007628Y003793D02*
X002020Y003793D01*
X002020Y003892D02*
X007726Y003892D01*
X007740Y004040D02*
X007840Y004040D01*
X007932Y004078D01*
X008002Y004148D01*
X008040Y004240D01*
X008040Y004340D01*
X008002Y004432D01*
X007932Y004502D01*
X007840Y004540D01*
X007740Y004540D01*
X007697Y004522D01*
X007700Y004530D01*
X007700Y004630D01*
X007662Y004722D01*
X007592Y004792D01*
X007500Y004830D01*
X007400Y004830D01*
X007308Y004792D01*
X007238Y004722D01*
X007200Y004630D01*
X007200Y004530D01*
X007238Y004438D01*
X007296Y004380D01*
X007238Y004322D01*
X007200Y004230D01*
X007200Y004130D01*
X007238Y004038D01*
X007308Y003968D01*
X007400Y003930D01*
X007500Y003930D01*
X007592Y003968D01*
X007662Y004038D01*
X007674Y004067D01*
X007740Y004040D01*
X007614Y003990D02*
X008527Y003990D01*
X008490Y004005D02*
X008587Y003965D01*
X008693Y003965D01*
X008790Y004005D01*
X008865Y004080D01*
X008905Y004177D01*
X008905Y004283D01*
X008865Y004380D01*
X008790Y004455D01*
X008693Y004495D01*
X008587Y004495D01*
X008490Y004455D01*
X008415Y004380D01*
X008375Y004283D01*
X008375Y004177D01*
X008415Y004080D01*
X008490Y004005D01*
X008517Y003915D02*
X008420Y003875D01*
X008345Y003800D01*
X008305Y003703D01*
X008305Y003597D01*
X008345Y003500D01*
X008420Y003425D01*
X008517Y003385D01*
X008623Y003385D01*
X008720Y003425D01*
X008795Y003500D01*
X008835Y003597D01*
X008835Y003703D01*
X008795Y003800D01*
X008720Y003875D01*
X008623Y003915D01*
X008517Y003915D01*
X008461Y003892D02*
X007994Y003892D01*
X008092Y003793D02*
X008342Y003793D01*
X008305Y003695D02*
X008125Y003695D01*
X008120Y003596D02*
X008306Y003596D01*
X008348Y003498D02*
X008072Y003498D01*
X007922Y003399D02*
X008483Y003399D01*
X008657Y003399D02*
X008765Y003399D01*
X008765Y003437D02*
X008765Y003099D01*
X008738Y003072D01*
X008700Y002980D01*
X008700Y002880D01*
X008738Y002788D01*
X008808Y002718D01*
X008900Y002680D01*
X009000Y002680D01*
X009092Y002718D01*
X009162Y002788D01*
X009200Y002880D01*
X009200Y002980D01*
X009185Y003016D01*
X009185Y003263D01*
X009862Y003940D01*
X010307Y003940D01*
X010270Y003925D01*
X010195Y003850D01*
X010155Y003753D01*
X010155Y003647D01*
X010195Y003550D01*
X010270Y003475D01*
X010367Y003435D01*
X010473Y003435D01*
X010570Y003475D01*
X010645Y003550D01*
X010685Y003647D01*
X010685Y003753D01*
X010645Y003850D01*
X010570Y003925D01*
X010533Y003940D01*
X010663Y003940D01*
X011383Y003220D01*
X011786Y003220D01*
X011788Y003218D01*
X011880Y003180D01*
X011980Y003180D01*
X012072Y003218D01*
X012142Y003288D01*
X012180Y003380D01*
X012180Y003480D01*
X012142Y003572D01*
X012079Y003635D01*
X012112Y003668D01*
X012150Y003760D01*
X012150Y003860D01*
X012137Y003890D01*
X012210Y003860D01*
X012265Y003860D01*
X012265Y003787D01*
X012305Y003690D01*
X012380Y003615D01*
X012477Y003575D01*
X012583Y003575D01*
X012680Y003615D01*
X012755Y003690D01*
X012766Y003717D01*
X012778Y003688D01*
X012848Y003618D01*
X012940Y003580D01*
X013040Y003580D01*
X013132Y003618D01*
X013202Y003688D01*
X013240Y003780D01*
X013240Y003880D01*
X013202Y003972D01*
X013132Y004042D01*
X013091Y004059D01*
X013106Y004097D01*
X013200Y004135D01*
X013275Y004210D01*
X013315Y004307D01*
X013315Y004413D01*
X013275Y004510D01*
X013200Y004585D01*
X013103Y004625D01*
X012997Y004625D01*
X012900Y004585D01*
X012825Y004510D01*
X012794Y004433D01*
X012700Y004395D01*
X012625Y004320D01*
X012585Y004223D01*
X012585Y004117D01*
X012592Y004101D01*
X012583Y004105D01*
X012510Y004105D01*
X012510Y004160D01*
X012472Y004252D01*
X012402Y004322D01*
X012310Y004360D01*
X012210Y004360D01*
X012118Y004322D01*
X012115Y004319D01*
X012052Y004382D01*
X011960Y004420D01*
X011860Y004420D01*
X011768Y004382D01*
X011698Y004312D01*
X011660Y004220D01*
X011660Y004120D01*
X011698Y004028D01*
X011731Y003995D01*
X011688Y003952D01*
X011650Y003860D01*
X011650Y003760D01*
X011688Y003668D01*
X011716Y003640D01*
X011557Y003640D01*
X010960Y004237D01*
X010837Y004360D01*
X009688Y004360D01*
X008888Y003560D01*
X008765Y003437D01*
X008792Y003498D02*
X008826Y003498D01*
X008834Y003596D02*
X008924Y003596D01*
X008835Y003695D02*
X009023Y003695D01*
X009121Y003793D02*
X008798Y003793D01*
X008679Y003892D02*
X009220Y003892D01*
X009318Y003990D02*
X008753Y003990D01*
X008868Y004089D02*
X009417Y004089D01*
X009515Y004187D02*
X008905Y004187D01*
X008904Y004286D02*
X009614Y004286D01*
X009728Y004578D02*
X009820Y004540D01*
X009920Y004540D01*
X010012Y004578D01*
X010082Y004648D01*
X010120Y004740D01*
X010120Y004840D01*
X010082Y004932D01*
X010012Y005002D01*
X009920Y005040D01*
X009820Y005040D01*
X009728Y005002D01*
X009658Y004932D01*
X009620Y004840D01*
X009620Y004740D01*
X009658Y004648D01*
X009728Y004578D01*
X009725Y004581D02*
X008504Y004581D01*
X008515Y004607D02*
X008475Y004510D01*
X008400Y004435D01*
X008303Y004395D01*
X008197Y004395D01*
X008100Y004435D01*
X008025Y004510D01*
X007985Y004607D01*
X007985Y004713D01*
X008025Y004810D01*
X008100Y004885D01*
X008197Y004925D01*
X008303Y004925D01*
X008400Y004885D01*
X008475Y004810D01*
X008515Y004713D01*
X008515Y004607D01*
X008515Y004680D02*
X009645Y004680D01*
X009620Y004778D02*
X008488Y004778D01*
X008408Y004877D02*
X009635Y004877D01*
X009701Y004975D02*
X003620Y004975D01*
X003655Y004940D02*
X003580Y005015D01*
X003483Y005055D01*
X003377Y005055D01*
X003280Y005015D01*
X003205Y004940D01*
X003165Y004843D01*
X003165Y004737D01*
X003205Y004640D01*
X003280Y004565D01*
X003377Y004525D01*
X003483Y004525D01*
X003580Y004565D01*
X003655Y004640D01*
X003695Y004737D01*
X003695Y004843D01*
X003655Y004940D01*
X003681Y004877D02*
X008092Y004877D01*
X008012Y004778D02*
X007606Y004778D01*
X007679Y004680D02*
X007985Y004680D01*
X007996Y004581D02*
X007700Y004581D01*
X007951Y004483D02*
X008053Y004483D01*
X008022Y004384D02*
X008419Y004384D01*
X008447Y004483D02*
X008557Y004483D01*
X008723Y004483D02*
X012814Y004483D01*
X012896Y004581D02*
X010015Y004581D01*
X010095Y004680D02*
X014646Y004680D01*
X014645Y004680D02*
X014720Y004605D01*
X014817Y004565D01*
X014923Y004565D01*
X015020Y004605D01*
X015095Y004680D01*
X015135Y004777D01*
X015135Y004883D01*
X015095Y004980D01*
X015020Y005055D01*
X014923Y005095D01*
X014817Y005095D01*
X014720Y005055D01*
X014645Y004980D01*
X014605Y004883D01*
X014605Y004777D01*
X014645Y004680D01*
X014605Y004778D02*
X010120Y004778D01*
X010105Y004877D02*
X011840Y004877D01*
X011808Y004908D02*
X011878Y004838D01*
X011970Y004800D01*
X012070Y004800D01*
X012162Y004838D01*
X012232Y004908D01*
X012253Y004960D01*
X012300Y004940D01*
X012400Y004940D01*
X012492Y004978D01*
X012562Y005048D01*
X012600Y005140D01*
X012600Y005240D01*
X012562Y005332D01*
X012492Y005402D01*
X012400Y005440D01*
X012300Y005440D01*
X012208Y005402D01*
X012138Y005332D01*
X012117Y005280D01*
X012070Y005300D01*
X011970Y005300D01*
X011878Y005262D01*
X011808Y005192D01*
X011770Y005100D01*
X011770Y005000D01*
X011808Y004908D01*
X011780Y004975D02*
X010039Y004975D01*
X010268Y005268D02*
X010338Y005198D01*
X010430Y005160D01*
X010530Y005160D01*
X010622Y005198D01*
X010692Y005268D01*
X010730Y005360D01*
X010730Y005460D01*
X010692Y005552D01*
X010622Y005622D01*
X010530Y005660D01*
X010430Y005660D01*
X010338Y005622D01*
X010268Y005552D01*
X010230Y005460D01*
X010230Y005360D01*
X010268Y005268D01*
X010267Y005271D02*
X002020Y005271D01*
X002020Y005369D02*
X010230Y005369D01*
X010233Y005468D02*
X002020Y005468D01*
X002020Y005566D02*
X010282Y005566D01*
X010678Y005566D02*
X011810Y005566D01*
X011828Y005548D02*
X011920Y005510D01*
X012020Y005510D01*
X012112Y005548D01*
X012182Y005618D01*
X012194Y005647D01*
X012260Y005620D01*
X012360Y005620D01*
X012452Y005658D01*
X012522Y005728D01*
X012560Y005820D01*
X012560Y005920D01*
X012522Y006012D01*
X012452Y006082D01*
X012360Y006120D01*
X012260Y006120D01*
X012168Y006082D01*
X012098Y006012D01*
X012086Y005983D01*
X012020Y006010D01*
X011920Y006010D01*
X011828Y005972D01*
X011758Y005902D01*
X011720Y005810D01*
X011720Y005710D01*
X011758Y005618D01*
X011828Y005548D01*
X011739Y005665D02*
X005299Y005665D01*
X005325Y005690D02*
X005250Y005615D01*
X005153Y005575D01*
X005047Y005575D01*
X004950Y005615D01*
X004875Y005690D01*
X004835Y005787D01*
X004835Y005893D01*
X004875Y005990D01*
X004921Y006036D01*
X004898Y006058D01*
X004860Y006150D01*
X004860Y006160D01*
X004800Y006160D01*
X004708Y006198D01*
X004638Y006268D01*
X004600Y006360D01*
X004600Y006460D01*
X004638Y006552D01*
X004708Y006622D01*
X004800Y006660D01*
X004870Y006660D01*
X004870Y006660D01*
X004870Y006760D01*
X004908Y006852D01*
X004978Y006922D01*
X005070Y006960D01*
X005160Y006960D01*
X005160Y006960D01*
X005160Y007060D01*
X005198Y007152D01*
X005268Y007222D01*
X005360Y007260D01*
X005460Y007260D01*
X005552Y007222D01*
X005622Y007152D01*
X005660Y007060D01*
X005660Y006960D01*
X005622Y006868D01*
X005552Y006798D01*
X005460Y006760D01*
X005370Y006760D01*
X005370Y006760D01*
X005370Y006660D01*
X005332Y006568D01*
X005262Y006498D01*
X005170Y006460D01*
X005100Y006460D01*
X005100Y006460D01*
X005100Y006450D01*
X005160Y006450D01*
X005252Y006412D01*
X005322Y006342D01*
X005360Y006250D01*
X005360Y006150D01*
X005322Y006058D01*
X005289Y006026D01*
X005325Y005990D01*
X005365Y005893D01*
X005365Y005787D01*
X005325Y005690D01*
X005355Y005763D02*
X011720Y005763D01*
X011741Y005862D02*
X011398Y005862D01*
X011370Y005850D02*
X011462Y005888D01*
X011532Y005958D01*
X011570Y006050D01*
X011570Y006150D01*
X011532Y006242D01*
X011462Y006312D01*
X011370Y006350D01*
X011270Y006350D01*
X011178Y006312D01*
X011165Y006299D01*
X011152Y006332D01*
X011144Y006340D01*
X011212Y006408D01*
X011250Y006500D01*
X011250Y006600D01*
X011212Y006692D01*
X011142Y006762D01*
X011050Y006800D01*
X010950Y006800D01*
X010858Y006762D01*
X010793Y006697D01*
X010762Y006772D01*
X010692Y006842D01*
X010600Y006880D01*
X010500Y006880D01*
X010408Y006842D01*
X010338Y006772D01*
X010300Y006680D01*
X010300Y006580D01*
X010338Y006488D01*
X010408Y006418D01*
X010500Y006380D01*
X010600Y006380D01*
X010692Y006418D01*
X010757Y006483D01*
X010788Y006408D01*
X010796Y006400D01*
X010728Y006332D01*
X010690Y006240D01*
X010690Y006140D01*
X010728Y006048D01*
X010798Y005978D01*
X010890Y005940D01*
X010990Y005940D01*
X011082Y005978D01*
X011095Y005991D01*
X011108Y005958D01*
X011178Y005888D01*
X011270Y005850D01*
X011370Y005850D01*
X011242Y005862D02*
X005365Y005862D01*
X005337Y005960D02*
X010842Y005960D01*
X010724Y006059D02*
X005322Y006059D01*
X005360Y006157D02*
X010690Y006157D01*
X010697Y006256D02*
X010249Y006256D01*
X010262Y006268D02*
X010300Y006360D01*
X010300Y006460D01*
X010262Y006552D01*
X010192Y006622D01*
X010100Y006660D01*
X010000Y006660D01*
X009908Y006622D01*
X009838Y006552D01*
X009800Y006460D01*
X009800Y006360D01*
X009838Y006268D01*
X009908Y006198D01*
X010000Y006160D01*
X010100Y006160D01*
X010192Y006198D01*
X010262Y006268D01*
X010297Y006354D02*
X010750Y006354D01*
X010726Y006453D02*
X010770Y006453D01*
X010772Y006748D02*
X010844Y006748D01*
X010681Y006847D02*
X016450Y006847D01*
X016450Y006945D02*
X010532Y006945D01*
X010520Y006940D02*
X010612Y006978D01*
X010682Y007048D01*
X010720Y007140D01*
X010720Y007240D01*
X010682Y007332D01*
X010644Y007370D01*
X010672Y007398D01*
X010710Y007490D01*
X010710Y007590D01*
X010672Y007682D01*
X010602Y007752D01*
X010510Y007790D01*
X010410Y007790D01*
X010318Y007752D01*
X010248Y007682D01*
X010232Y007643D01*
X010212Y007692D01*
X010142Y007762D01*
X010050Y007800D01*
X009950Y007800D01*
X009858Y007762D01*
X009788Y007692D01*
X009783Y007680D01*
X009772Y007692D01*
X009680Y007730D01*
X009580Y007730D01*
X009488Y007692D01*
X009418Y007622D01*
X009380Y007530D01*
X009380Y007430D01*
X009418Y007338D01*
X009488Y007268D01*
X009580Y007230D01*
X009680Y007230D01*
X009772Y007268D01*
X009842Y007338D01*
X009847Y007350D01*
X009858Y007338D01*
X009950Y007300D01*
X010050Y007300D01*
X010142Y007338D01*
X010212Y007408D01*
X010228Y007447D01*
X010248Y007398D01*
X010286Y007360D01*
X010258Y007332D01*
X010220Y007240D01*
X010220Y007140D01*
X010258Y007048D01*
X010328Y006978D01*
X010420Y006940D01*
X010520Y006940D01*
X010408Y006945D02*
X005654Y006945D01*
X005660Y007044D02*
X010263Y007044D01*
X010220Y007142D02*
X005626Y007142D01*
X005507Y007241D02*
X009555Y007241D01*
X009705Y007241D02*
X010220Y007241D01*
X010265Y007339D02*
X010143Y007339D01*
X010224Y007438D02*
X010232Y007438D01*
X010171Y007733D02*
X010299Y007733D01*
X010621Y007733D02*
X012042Y007733D01*
X012058Y007772D02*
X012020Y007680D01*
X012020Y007580D01*
X012058Y007488D01*
X012128Y007418D01*
X012220Y007380D01*
X012320Y007380D01*
X012412Y007418D01*
X012482Y007488D01*
X012520Y007580D01*
X012520Y007680D01*
X012482Y007772D01*
X012412Y007842D01*
X012320Y007880D01*
X012220Y007880D01*
X012128Y007842D01*
X012058Y007772D01*
X012118Y007832D02*
X005112Y007832D01*
X005102Y007842D02*
X005010Y007880D01*
X004910Y007880D01*
X004818Y007842D01*
X004748Y007772D01*
X004710Y007680D01*
X004710Y007580D01*
X004748Y007488D01*
X004818Y007418D01*
X004910Y007380D01*
X005010Y007380D01*
X005102Y007418D01*
X005172Y007488D01*
X005210Y007580D01*
X005210Y007680D01*
X005172Y007772D01*
X005102Y007842D01*
X005188Y007733D02*
X009829Y007733D01*
X009431Y007635D02*
X005210Y007635D01*
X005192Y007536D02*
X009383Y007536D01*
X009380Y007438D02*
X005121Y007438D01*
X005313Y007241D02*
X002020Y007241D01*
X002020Y007339D02*
X009418Y007339D01*
X009842Y007339D02*
X009857Y007339D01*
X010419Y006847D02*
X005600Y006847D01*
X005370Y006748D02*
X010328Y006748D01*
X010300Y006650D02*
X010125Y006650D01*
X009975Y006650D02*
X005366Y006650D01*
X005315Y006551D02*
X009838Y006551D01*
X009800Y006453D02*
X005100Y006453D01*
X005310Y006354D02*
X009803Y006354D01*
X009851Y006256D02*
X005358Y006256D01*
X004898Y006059D02*
X002020Y006059D01*
X002020Y006157D02*
X004860Y006157D01*
X004863Y005960D02*
X002020Y005960D01*
X002020Y005862D02*
X004835Y005862D01*
X004845Y005763D02*
X002020Y005763D01*
X002020Y005665D02*
X004901Y005665D01*
X004651Y006256D02*
X002020Y006256D01*
X002020Y006354D02*
X004603Y006354D01*
X004600Y006453D02*
X002020Y006453D01*
X002020Y006551D02*
X004638Y006551D01*
X004775Y006650D02*
X002020Y006650D01*
X002020Y006748D02*
X004870Y006748D01*
X004906Y006847D02*
X002020Y006847D01*
X002020Y006945D02*
X005034Y006945D01*
X005160Y007044D02*
X002020Y007044D01*
X002020Y007142D02*
X005194Y007142D01*
X004799Y007438D02*
X002020Y007438D01*
X002020Y007536D02*
X004728Y007536D01*
X004710Y007635D02*
X002020Y007635D01*
X002020Y007733D02*
X004732Y007733D01*
X004808Y007832D02*
X002020Y007832D01*
X002020Y007930D02*
X013443Y007930D01*
X013455Y007960D02*
X013415Y007863D01*
X013415Y007757D01*
X013455Y007660D01*
X013530Y007585D01*
X013627Y007545D01*
X013733Y007545D01*
X013830Y007585D01*
X013905Y007660D01*
X013945Y007757D01*
X013945Y007863D01*
X013905Y007960D01*
X013830Y008035D01*
X013733Y008075D01*
X013627Y008075D01*
X013530Y008035D01*
X013455Y007960D01*
X013524Y008029D02*
X006603Y008029D01*
X006600Y008025D02*
X006675Y008100D01*
X006715Y008197D01*
X006715Y008303D01*
X006675Y008400D01*
X006600Y008475D01*
X006503Y008515D01*
X006397Y008515D01*
X006300Y008475D01*
X006250Y008425D01*
X006200Y008475D01*
X006103Y008515D01*
X005997Y008515D01*
X005900Y008475D01*
X005850Y008425D01*
X005800Y008475D01*
X005703Y008515D01*
X005597Y008515D01*
X005500Y008475D01*
X005425Y008400D01*
X005385Y008303D01*
X005385Y008197D01*
X005425Y008100D01*
X005500Y008025D01*
X005597Y007985D01*
X005703Y007985D01*
X005800Y008025D01*
X005850Y008075D01*
X005900Y008025D01*
X005997Y007985D01*
X006103Y007985D01*
X006200Y008025D01*
X006250Y008075D01*
X006300Y008025D01*
X006397Y007985D01*
X006503Y007985D01*
X006600Y008025D01*
X006686Y008127D02*
X016450Y008127D01*
X016450Y008029D02*
X013836Y008029D01*
X013917Y007930D02*
X014797Y007930D01*
X014760Y007915D02*
X014685Y007840D01*
X014645Y007743D01*
X014645Y007637D01*
X014685Y007540D01*
X014760Y007465D01*
X014857Y007425D01*
X014963Y007425D01*
X015060Y007465D01*
X015135Y007540D01*
X015175Y007637D01*
X015175Y007743D01*
X015135Y007840D01*
X015060Y007915D01*
X014963Y007955D01*
X014857Y007955D01*
X014760Y007915D01*
X014682Y007832D02*
X013945Y007832D01*
X013935Y007733D02*
X014645Y007733D01*
X014646Y007635D02*
X013879Y007635D01*
X013481Y007635D02*
X012520Y007635D01*
X012498Y007733D02*
X013425Y007733D01*
X013415Y007832D02*
X012422Y007832D01*
X012502Y007536D02*
X014689Y007536D01*
X014827Y007438D02*
X012431Y007438D01*
X012109Y007438D02*
X010688Y007438D01*
X010675Y007339D02*
X016450Y007339D01*
X016450Y007241D02*
X010720Y007241D01*
X010720Y007142D02*
X016450Y007142D01*
X016450Y007044D02*
X010677Y007044D01*
X011156Y006748D02*
X016450Y006748D01*
X016450Y006650D02*
X011229Y006650D01*
X011250Y006551D02*
X016450Y006551D01*
X016450Y006453D02*
X011230Y006453D01*
X011158Y006354D02*
X016450Y006354D01*
X016450Y006256D02*
X011518Y006256D01*
X011567Y006157D02*
X016450Y006157D01*
X016450Y006059D02*
X012475Y006059D01*
X012543Y005960D02*
X016450Y005960D01*
X016450Y005862D02*
X012560Y005862D01*
X012536Y005763D02*
X016450Y005763D01*
X016450Y005665D02*
X012458Y005665D01*
X012525Y005369D02*
X016450Y005369D01*
X016450Y005271D02*
X013433Y005271D01*
X013422Y005282D02*
X013330Y005320D01*
X013230Y005320D01*
X013138Y005282D01*
X013068Y005212D01*
X013030Y005120D01*
X013030Y005020D01*
X013068Y004928D01*
X013138Y004858D01*
X013230Y004820D01*
X013330Y004820D01*
X013422Y004858D01*
X013492Y004928D01*
X013530Y005020D01*
X013530Y005120D01*
X013492Y005212D01*
X013422Y005282D01*
X013508Y005172D02*
X016450Y005172D01*
X016450Y005074D02*
X014975Y005074D01*
X015097Y004975D02*
X016450Y004975D01*
X016450Y004877D02*
X015135Y004877D01*
X015135Y004778D02*
X016450Y004778D01*
X016450Y004680D02*
X015094Y004680D01*
X014961Y004581D02*
X016450Y004581D01*
X016450Y004483D02*
X015842Y004483D01*
X015865Y004460D02*
X015790Y004535D01*
X015693Y004575D01*
X015587Y004575D01*
X015490Y004535D01*
X015415Y004460D01*
X015375Y004363D01*
X015375Y004257D01*
X015384Y004235D01*
X015377Y004235D01*
X015280Y004195D01*
X015205Y004120D01*
X015165Y004023D01*
X015165Y003917D01*
X015205Y003820D01*
X015280Y003745D01*
X015377Y003705D01*
X015483Y003705D01*
X015580Y003745D01*
X015655Y003820D01*
X015695Y003917D01*
X015695Y004023D01*
X015686Y004045D01*
X015693Y004045D01*
X015790Y004085D01*
X015865Y004160D01*
X015905Y004257D01*
X015905Y004363D01*
X015865Y004460D01*
X015896Y004384D02*
X016450Y004384D01*
X016450Y004286D02*
X015905Y004286D01*
X015876Y004187D02*
X016450Y004187D01*
X016450Y004089D02*
X015793Y004089D01*
X015695Y003990D02*
X016450Y003990D01*
X016450Y003892D02*
X015684Y003892D01*
X015628Y003793D02*
X016450Y003793D01*
X016450Y003695D02*
X015912Y003695D01*
X015960Y003675D02*
X015863Y003715D01*
X015757Y003715D01*
X015660Y003675D01*
X015585Y003600D01*
X015545Y003503D01*
X015545Y003397D01*
X015585Y003300D01*
X015660Y003225D01*
X015757Y003185D01*
X015863Y003185D01*
X015960Y003225D01*
X016035Y003300D01*
X016075Y003397D01*
X016075Y003503D01*
X016035Y003600D01*
X015960Y003675D01*
X016036Y003596D02*
X016450Y003596D01*
X016450Y003498D02*
X016075Y003498D01*
X016075Y003399D02*
X016450Y003399D01*
X016450Y003301D02*
X016035Y003301D01*
X015904Y003202D02*
X016450Y003202D01*
X016450Y003104D02*
X015069Y003104D01*
X015171Y003005D02*
X016450Y003005D01*
X016450Y002907D02*
X015205Y002907D01*
X014811Y003104D02*
X013220Y003104D01*
X013220Y003060D02*
X013220Y003160D01*
X013182Y003252D01*
X013112Y003322D01*
X013020Y003360D01*
X012920Y003360D01*
X012828Y003322D01*
X012758Y003252D01*
X012720Y003160D01*
X012720Y003060D01*
X012758Y002968D01*
X012828Y002898D01*
X012920Y002860D01*
X013020Y002860D01*
X013112Y002898D01*
X013182Y002968D01*
X013220Y003060D01*
X013197Y003005D02*
X014709Y003005D01*
X014675Y002907D02*
X013120Y002907D01*
X013200Y002808D02*
X012723Y002808D01*
X012818Y002710D02*
X013101Y002710D01*
X013051Y002611D02*
X012871Y002611D01*
X012896Y002513D02*
X013020Y002513D01*
X013020Y002414D02*
X012500Y002414D01*
X012500Y002513D02*
X012400Y002513D01*
X012400Y002611D02*
X012500Y002611D01*
X012500Y002710D02*
X012400Y002710D01*
X012400Y002808D02*
X012500Y002808D01*
X012177Y002808D02*
X011723Y002808D01*
X011743Y002793D02*
X011686Y002835D01*
X011623Y002867D01*
X011555Y002889D01*
X011500Y002898D01*
X011500Y002500D01*
X011898Y002500D01*
X011889Y002555D01*
X011867Y002623D01*
X011835Y002686D01*
X011793Y002743D01*
X011743Y002793D01*
X011818Y002710D02*
X012082Y002710D01*
X012029Y002611D02*
X011871Y002611D01*
X011896Y002513D02*
X012004Y002513D01*
X012021Y002316D02*
X011879Y002316D01*
X011836Y002217D02*
X012064Y002217D01*
X012145Y002119D02*
X011755Y002119D01*
X011500Y002414D02*
X012400Y002414D01*
X012755Y002119D02*
X013173Y002119D01*
X013081Y002217D02*
X012836Y002217D01*
X012879Y002316D02*
X013040Y002316D01*
X013727Y002119D02*
X014173Y002119D01*
X014081Y002217D02*
X013819Y002217D01*
X013860Y002316D02*
X014040Y002316D01*
X014020Y002414D02*
X013880Y002414D01*
X013880Y002513D02*
X014020Y002513D01*
X014051Y002611D02*
X013849Y002611D01*
X013799Y002710D02*
X014101Y002710D01*
X014200Y002808D02*
X013700Y002808D01*
X013202Y003202D02*
X014494Y003202D01*
X014508Y003188D02*
X014600Y003150D01*
X014700Y003150D01*
X014792Y003188D01*
X014862Y003258D01*
X014900Y003350D01*
X014900Y003450D01*
X014862Y003542D01*
X014792Y003612D01*
X014700Y003650D01*
X014600Y003650D01*
X014565Y003635D01*
X014542Y003692D01*
X014472Y003762D01*
X014380Y003800D01*
X014280Y003800D01*
X014188Y003762D01*
X014118Y003692D01*
X014080Y003600D01*
X014080Y003500D01*
X014118Y003408D01*
X014188Y003338D01*
X014280Y003300D01*
X014380Y003300D01*
X014415Y003315D01*
X014438Y003258D01*
X014508Y003188D01*
X014421Y003301D02*
X014381Y003301D01*
X014279Y003301D02*
X013133Y003301D01*
X013078Y003596D02*
X014080Y003596D01*
X014081Y003498D02*
X012173Y003498D01*
X012180Y003399D02*
X014127Y003399D01*
X014121Y003695D02*
X013204Y003695D01*
X013240Y003793D02*
X014263Y003793D01*
X014397Y003793D02*
X015232Y003793D01*
X015176Y003892D02*
X013235Y003892D01*
X013184Y003990D02*
X015165Y003990D01*
X015192Y004089D02*
X013103Y004089D01*
X013252Y004187D02*
X015272Y004187D01*
X015375Y004286D02*
X013306Y004286D01*
X013315Y004384D02*
X015384Y004384D01*
X015438Y004483D02*
X013286Y004483D01*
X013204Y004581D02*
X014779Y004581D01*
X014605Y004877D02*
X013440Y004877D01*
X013511Y004975D02*
X014643Y004975D01*
X014765Y005074D02*
X013530Y005074D01*
X013127Y005271D02*
X012587Y005271D01*
X012600Y005172D02*
X013052Y005172D01*
X013030Y005074D02*
X012572Y005074D01*
X012484Y004975D02*
X013049Y004975D01*
X013120Y004877D02*
X012200Y004877D01*
X011770Y005074D02*
X002020Y005074D01*
X002020Y005172D02*
X010401Y005172D01*
X010559Y005172D02*
X011800Y005172D01*
X011899Y005271D02*
X010693Y005271D01*
X010730Y005369D02*
X012175Y005369D01*
X012130Y005566D02*
X016450Y005566D01*
X016450Y005468D02*
X010727Y005468D01*
X011038Y005960D02*
X011107Y005960D01*
X011533Y005960D02*
X011816Y005960D01*
X011570Y006059D02*
X012145Y006059D01*
X010374Y006453D02*
X010300Y006453D01*
X010312Y006551D02*
X010262Y006551D01*
X010710Y007536D02*
X012038Y007536D01*
X012020Y007635D02*
X010691Y007635D01*
X008992Y008398D02*
X009030Y008490D01*
X009030Y008590D01*
X008992Y008682D01*
X008922Y008752D01*
X008830Y008790D01*
X008730Y008790D01*
X008638Y008752D01*
X008568Y008682D01*
X008530Y008590D01*
X008530Y008490D01*
X008568Y008398D01*
X008638Y008328D01*
X008730Y008290D01*
X008830Y008290D01*
X008922Y008328D01*
X008992Y008398D01*
X009002Y008423D02*
X016450Y008423D01*
X016450Y008521D02*
X009030Y008521D01*
X009018Y008620D02*
X016450Y008620D01*
X016450Y008718D02*
X008956Y008718D01*
X008604Y008718D02*
X007945Y008718D01*
X007925Y008670D02*
X007965Y008767D01*
X007965Y008873D01*
X007925Y008970D01*
X007850Y009045D01*
X007782Y009073D01*
X007805Y009127D01*
X007805Y009233D01*
X007765Y009330D01*
X007690Y009405D01*
X007593Y009445D01*
X007555Y009445D01*
X007555Y009523D01*
X007515Y009620D01*
X007440Y009695D01*
X007343Y009735D01*
X007237Y009735D01*
X007140Y009695D01*
X007065Y009620D01*
X007025Y009523D01*
X007025Y009417D01*
X007065Y009320D01*
X007140Y009245D01*
X007237Y009205D01*
X007275Y009205D01*
X007275Y009127D01*
X007315Y009030D01*
X007390Y008955D01*
X007458Y008927D01*
X007435Y008873D01*
X007435Y008767D01*
X007475Y008670D01*
X007550Y008595D01*
X007647Y008555D01*
X007753Y008555D01*
X007850Y008595D01*
X007925Y008670D01*
X007874Y008620D02*
X008542Y008620D01*
X008530Y008521D02*
X002020Y008521D01*
X002020Y008423D02*
X002869Y008423D01*
X002838Y008392D02*
X002800Y008300D01*
X002800Y008200D01*
X002838Y008108D01*
X002908Y008038D01*
X003000Y008000D01*
X003100Y008000D01*
X003192Y008038D01*
X003262Y008108D01*
X003300Y008200D01*
X003300Y008300D01*
X003262Y008392D01*
X003192Y008462D01*
X003100Y008500D01*
X003000Y008500D01*
X002908Y008462D01*
X002838Y008392D01*
X002810Y008324D02*
X002020Y008324D01*
X002020Y008226D02*
X002800Y008226D01*
X002830Y008127D02*
X002020Y008127D01*
X002020Y008029D02*
X002931Y008029D01*
X003169Y008029D02*
X005497Y008029D01*
X005414Y008127D02*
X003270Y008127D01*
X003300Y008226D02*
X005385Y008226D01*
X005394Y008324D02*
X003290Y008324D01*
X003231Y008423D02*
X005448Y008423D01*
X005803Y008029D02*
X005897Y008029D01*
X006203Y008029D02*
X006297Y008029D01*
X006715Y008226D02*
X016450Y008226D01*
X016450Y008324D02*
X008912Y008324D01*
X008648Y008324D02*
X006706Y008324D01*
X006652Y008423D02*
X008558Y008423D01*
X007965Y008817D02*
X016450Y008817D01*
X016450Y008915D02*
X007947Y008915D01*
X007881Y009014D02*
X016450Y009014D01*
X016450Y009112D02*
X007799Y009112D01*
X007805Y009211D02*
X014055Y009211D01*
X014025Y009240D02*
X014100Y009165D01*
X014197Y009125D01*
X014303Y009125D01*
X014400Y009165D01*
X014475Y009240D01*
X014515Y009337D01*
X014515Y009443D01*
X014475Y009540D01*
X014400Y009615D01*
X014303Y009655D01*
X014197Y009655D01*
X014100Y009615D01*
X014025Y009540D01*
X013985Y009443D01*
X013985Y009337D01*
X014025Y009240D01*
X013997Y009309D02*
X007773Y009309D01*
X007683Y009408D02*
X008379Y009408D01*
X008388Y009398D02*
X008480Y009360D01*
X008580Y009360D01*
X008672Y009398D01*
X008742Y009468D01*
X008780Y009560D01*
X008780Y009660D01*
X008742Y009752D01*
X008672Y009822D01*
X008580Y009860D01*
X008480Y009860D01*
X008388Y009822D01*
X008318Y009752D01*
X008280Y009660D01*
X008280Y009560D01*
X008318Y009468D01*
X008388Y009398D01*
X008302Y009506D02*
X007555Y009506D01*
X007521Y009605D02*
X008280Y009605D01*
X008298Y009703D02*
X008046Y009703D01*
X008003Y009685D02*
X008100Y009725D01*
X008175Y009800D01*
X008215Y009897D01*
X008215Y010003D01*
X008175Y010100D01*
X008100Y010175D01*
X008003Y010215D01*
X007897Y010215D01*
X007800Y010175D01*
X007725Y010100D01*
X007685Y010003D01*
X007685Y009897D01*
X007725Y009800D01*
X007800Y009725D01*
X007897Y009685D01*
X008003Y009685D01*
X007854Y009703D02*
X007420Y009703D01*
X007160Y009703D02*
X005231Y009703D01*
X005242Y009692D02*
X005172Y009762D01*
X005080Y009800D01*
X004980Y009800D01*
X004888Y009762D01*
X004818Y009692D01*
X004817Y009688D01*
X004815Y009694D01*
X004694Y009815D01*
X004536Y009880D01*
X004364Y009880D01*
X004206Y009815D01*
X004085Y009694D01*
X004020Y009536D01*
X004020Y009364D01*
X004085Y009206D01*
X004206Y009085D01*
X004364Y009020D01*
X004536Y009020D01*
X004694Y009085D01*
X004815Y009206D01*
X004875Y009352D01*
X004888Y009338D01*
X004980Y009300D01*
X005080Y009300D01*
X005172Y009338D01*
X005242Y009408D01*
X005280Y009500D01*
X005280Y009600D01*
X005242Y009692D01*
X005278Y009605D02*
X007059Y009605D01*
X007025Y009506D02*
X005280Y009506D01*
X005241Y009408D02*
X007029Y009408D01*
X007076Y009309D02*
X005102Y009309D01*
X004958Y009309D02*
X004857Y009309D01*
X004816Y009211D02*
X007224Y009211D01*
X007281Y009112D02*
X004720Y009112D01*
X004180Y009112D02*
X003720Y009112D01*
X003694Y009085D02*
X003815Y009206D01*
X003880Y009364D01*
X003880Y009536D01*
X003815Y009694D01*
X003694Y009815D01*
X003536Y009880D01*
X003364Y009880D01*
X003206Y009815D01*
X003085Y009694D01*
X003020Y009536D01*
X003020Y009364D01*
X003085Y009206D01*
X003206Y009085D01*
X003364Y009020D01*
X003536Y009020D01*
X003694Y009085D01*
X003816Y009211D02*
X004084Y009211D01*
X004043Y009309D02*
X003857Y009309D01*
X003880Y009408D02*
X004020Y009408D01*
X004020Y009506D02*
X003880Y009506D01*
X003851Y009605D02*
X004049Y009605D01*
X004095Y009703D02*
X003805Y009703D01*
X003707Y009802D02*
X004193Y009802D01*
X004195Y010097D02*
X003705Y010097D01*
X003804Y010196D02*
X004096Y010196D01*
X004049Y010294D02*
X003851Y010294D01*
X003880Y010393D02*
X004020Y010393D01*
X004020Y010491D02*
X003880Y010491D01*
X003858Y010590D02*
X004042Y010590D01*
X004083Y010688D02*
X003817Y010688D01*
X003722Y010787D02*
X004178Y010787D01*
X004722Y010787D02*
X005178Y010787D01*
X005083Y010688D02*
X004817Y010688D01*
X004858Y010590D02*
X005042Y010590D01*
X005020Y010491D02*
X004880Y010491D01*
X004880Y010393D02*
X005020Y010393D01*
X005049Y010294D02*
X004851Y010294D01*
X004804Y010196D02*
X005096Y010196D01*
X005195Y010097D02*
X004705Y010097D01*
X004707Y009802D02*
X007725Y009802D01*
X007685Y009900D02*
X002020Y009900D01*
X002020Y009802D02*
X002193Y009802D01*
X002206Y009815D02*
X002085Y009694D01*
X002020Y009536D01*
X002020Y009364D01*
X002085Y009206D01*
X002206Y009085D01*
X002364Y009020D01*
X002536Y009020D01*
X002694Y009085D01*
X002815Y009206D01*
X002880Y009364D01*
X002880Y009536D01*
X002815Y009694D01*
X002694Y009815D01*
X002536Y009880D01*
X002364Y009880D01*
X002206Y009815D01*
X002095Y009703D02*
X002020Y009703D01*
X002020Y009605D02*
X002049Y009605D01*
X002020Y009506D02*
X002020Y009506D01*
X002020Y009408D02*
X002020Y009408D01*
X002020Y009309D02*
X002043Y009309D01*
X002020Y009211D02*
X002084Y009211D01*
X002020Y009112D02*
X002180Y009112D01*
X002020Y009014D02*
X007332Y009014D01*
X007453Y008915D02*
X002020Y008915D01*
X002020Y008817D02*
X007435Y008817D01*
X007455Y008718D02*
X002020Y008718D01*
X002020Y008620D02*
X007526Y008620D01*
X008681Y009408D02*
X013985Y009408D01*
X014011Y009506D02*
X010160Y009506D01*
X010182Y009528D02*
X010220Y009620D01*
X010220Y009720D01*
X010182Y009812D01*
X010112Y009882D01*
X010020Y009920D01*
X009920Y009920D01*
X009828Y009882D01*
X009758Y009812D01*
X009720Y009720D01*
X009720Y009620D01*
X009758Y009528D01*
X009828Y009458D01*
X009920Y009420D01*
X010020Y009420D01*
X010112Y009458D01*
X010182Y009528D01*
X010213Y009605D02*
X014090Y009605D01*
X014040Y009660D02*
X014132Y009698D01*
X014202Y009768D01*
X014240Y009860D01*
X014240Y009960D01*
X014202Y010052D01*
X014132Y010122D01*
X014040Y010160D01*
X013940Y010160D01*
X013848Y010122D01*
X013778Y010052D01*
X013740Y009960D01*
X013740Y009860D01*
X013778Y009768D01*
X013848Y009698D01*
X013940Y009660D01*
X014040Y009660D01*
X014137Y009703D02*
X016450Y009703D01*
X016450Y009605D02*
X014410Y009605D01*
X014489Y009506D02*
X016450Y009506D01*
X016450Y009408D02*
X014515Y009408D01*
X014503Y009309D02*
X016450Y009309D01*
X016450Y009211D02*
X014445Y009211D01*
X014216Y009802D02*
X016450Y009802D01*
X016450Y009900D02*
X014240Y009900D01*
X014224Y009999D02*
X016450Y009999D01*
X016450Y010097D02*
X015705Y010097D01*
X015804Y010196D02*
X016450Y010196D01*
X016450Y010294D02*
X015851Y010294D01*
X015880Y010393D02*
X016450Y010393D01*
X016450Y010491D02*
X015880Y010491D01*
X015858Y010590D02*
X016450Y010590D01*
X016450Y010688D02*
X015817Y010688D01*
X015722Y010787D02*
X016450Y010787D01*
X015178Y010787D02*
X014722Y010787D01*
X014817Y010688D02*
X015083Y010688D01*
X015042Y010590D02*
X014858Y010590D01*
X014880Y010491D02*
X015020Y010491D01*
X015020Y010393D02*
X014880Y010393D01*
X014851Y010294D02*
X015049Y010294D01*
X015096Y010196D02*
X014804Y010196D01*
X014705Y010097D02*
X015195Y010097D01*
X014195Y010097D02*
X014157Y010097D01*
X014096Y010196D02*
X013804Y010196D01*
X013823Y010097D02*
X013705Y010097D01*
X013756Y009999D02*
X011184Y009999D01*
X011200Y009960D02*
X011162Y010052D01*
X011092Y010122D01*
X011000Y010160D01*
X010900Y010160D01*
X010808Y010122D01*
X010738Y010052D01*
X010700Y009960D01*
X010700Y009860D01*
X010738Y009768D01*
X010808Y009698D01*
X010900Y009660D01*
X011000Y009660D01*
X011092Y009698D01*
X011162Y009768D01*
X011200Y009860D01*
X011200Y009960D01*
X011200Y009900D02*
X013740Y009900D01*
X013764Y009802D02*
X011176Y009802D01*
X011097Y009703D02*
X013843Y009703D01*
X013851Y010294D02*
X014049Y010294D01*
X014020Y010393D02*
X013880Y010393D01*
X013880Y010491D02*
X014020Y010491D01*
X014042Y010590D02*
X013858Y010590D01*
X013817Y010688D02*
X014083Y010688D01*
X014178Y010787D02*
X013722Y010787D01*
X013178Y010787D02*
X012722Y010787D01*
X012817Y010688D02*
X013083Y010688D01*
X013042Y010590D02*
X012858Y010590D01*
X012880Y010491D02*
X013020Y010491D01*
X013020Y010393D02*
X012880Y010393D01*
X012851Y010294D02*
X013049Y010294D01*
X013096Y010196D02*
X012804Y010196D01*
X012705Y010097D02*
X013195Y010097D01*
X012195Y010097D02*
X011705Y010097D01*
X011804Y010196D02*
X012096Y010196D01*
X012049Y010294D02*
X011851Y010294D01*
X011880Y010393D02*
X012020Y010393D01*
X012020Y010491D02*
X011880Y010491D01*
X011858Y010590D02*
X012042Y010590D01*
X012083Y010688D02*
X011817Y010688D01*
X011722Y010787D02*
X012178Y010787D01*
X011178Y010787D02*
X010722Y010787D01*
X010817Y010688D02*
X011083Y010688D01*
X011042Y010590D02*
X010858Y010590D01*
X010880Y010491D02*
X011020Y010491D01*
X011020Y010393D02*
X010880Y010393D01*
X010851Y010294D02*
X011049Y010294D01*
X011096Y010196D02*
X010804Y010196D01*
X010783Y010097D02*
X010705Y010097D01*
X010716Y009999D02*
X008215Y009999D01*
X008215Y009900D02*
X009872Y009900D01*
X009754Y009802D02*
X008692Y009802D01*
X008762Y009703D02*
X009720Y009703D01*
X009727Y009605D02*
X008780Y009605D01*
X008758Y009506D02*
X009780Y009506D01*
X010220Y009703D02*
X010803Y009703D01*
X010724Y009802D02*
X010186Y009802D01*
X010068Y009900D02*
X010700Y009900D01*
X011117Y010097D02*
X011195Y010097D01*
X010195Y010097D02*
X009705Y010097D01*
X009804Y010196D02*
X010096Y010196D01*
X010049Y010294D02*
X009851Y010294D01*
X009880Y010393D02*
X010020Y010393D01*
X010020Y010491D02*
X009880Y010491D01*
X009858Y010590D02*
X010042Y010590D01*
X010083Y010688D02*
X009817Y010688D01*
X009722Y010787D02*
X010178Y010787D01*
X009178Y010787D02*
X008722Y010787D01*
X008817Y010688D02*
X009083Y010688D01*
X009042Y010590D02*
X008858Y010590D01*
X008880Y010491D02*
X009020Y010491D01*
X009020Y010393D02*
X008880Y010393D01*
X008851Y010294D02*
X009049Y010294D01*
X009096Y010196D02*
X008804Y010196D01*
X008705Y010097D02*
X009195Y010097D01*
X008368Y009802D02*
X008175Y009802D01*
X007685Y009999D02*
X002020Y009999D01*
X002020Y010097D02*
X002195Y010097D01*
X002096Y010196D02*
X002020Y010196D01*
X002020Y010294D02*
X002049Y010294D01*
X002020Y010393D02*
X002020Y010393D01*
X002020Y010491D02*
X002020Y010491D01*
X002020Y010590D02*
X002042Y010590D01*
X002020Y010688D02*
X002083Y010688D01*
X002020Y010787D02*
X002178Y010787D01*
X002722Y010787D02*
X003178Y010787D01*
X003083Y010688D02*
X002817Y010688D01*
X002858Y010590D02*
X003042Y010590D01*
X003020Y010491D02*
X002880Y010491D01*
X002880Y010393D02*
X003020Y010393D01*
X003049Y010294D02*
X002851Y010294D01*
X002804Y010196D02*
X003096Y010196D01*
X003195Y010097D02*
X002705Y010097D01*
X002707Y009802D02*
X003193Y009802D01*
X003095Y009703D02*
X002805Y009703D01*
X002851Y009605D02*
X003049Y009605D01*
X003020Y009506D02*
X002880Y009506D01*
X002880Y009408D02*
X003020Y009408D01*
X003043Y009309D02*
X002857Y009309D01*
X002816Y009211D02*
X003084Y009211D01*
X003180Y009112D02*
X002720Y009112D01*
X004805Y009703D02*
X004829Y009703D01*
X005705Y010097D02*
X006195Y010097D01*
X006096Y010196D02*
X005804Y010196D01*
X005851Y010294D02*
X006049Y010294D01*
X006020Y010393D02*
X005880Y010393D01*
X005880Y010491D02*
X006020Y010491D01*
X006042Y010590D02*
X005858Y010590D01*
X005817Y010688D02*
X006083Y010688D01*
X006178Y010787D02*
X005722Y010787D01*
X006705Y010097D02*
X007195Y010097D01*
X007096Y010196D02*
X006804Y010196D01*
X006851Y010294D02*
X007049Y010294D01*
X007020Y010393D02*
X006880Y010393D01*
X006880Y010491D02*
X007020Y010491D01*
X007042Y010590D02*
X006858Y010590D01*
X006817Y010688D02*
X007083Y010688D01*
X007178Y010787D02*
X006722Y010787D01*
X007722Y010787D02*
X008178Y010787D01*
X008083Y010688D02*
X007817Y010688D01*
X007858Y010590D02*
X008042Y010590D01*
X008020Y010491D02*
X007880Y010491D01*
X007880Y010393D02*
X008020Y010393D01*
X008049Y010294D02*
X007851Y010294D01*
X007850Y010196D02*
X007804Y010196D01*
X007724Y010097D02*
X007705Y010097D01*
X008050Y010196D02*
X008096Y010196D01*
X008176Y010097D02*
X008195Y010097D01*
X015023Y007930D02*
X016450Y007930D01*
X016450Y007832D02*
X015138Y007832D01*
X015175Y007733D02*
X016450Y007733D01*
X016450Y007635D02*
X015174Y007635D01*
X015131Y007536D02*
X016450Y007536D01*
X016450Y007438D02*
X014993Y007438D01*
X012689Y004384D02*
X012047Y004384D01*
X011773Y004384D02*
X008861Y004384D01*
X008412Y004089D02*
X007942Y004089D01*
X008018Y004187D02*
X008375Y004187D01*
X008376Y004286D02*
X008040Y004286D01*
X007292Y004384D02*
X002020Y004384D01*
X002020Y004286D02*
X007223Y004286D01*
X007200Y004187D02*
X002020Y004187D01*
X002020Y004089D02*
X007217Y004089D01*
X007286Y003990D02*
X002020Y003990D01*
X002020Y004483D02*
X007220Y004483D01*
X007200Y004581D02*
X003596Y004581D01*
X003671Y004680D02*
X007221Y004680D01*
X007294Y004778D02*
X003695Y004778D01*
X003264Y004581D02*
X002020Y004581D01*
X002020Y004680D02*
X003189Y004680D01*
X003165Y004778D02*
X002020Y004778D01*
X002020Y004877D02*
X003179Y004877D01*
X003240Y004975D02*
X002020Y004975D01*
X002700Y002808D02*
X003200Y002808D01*
X003101Y002710D02*
X002799Y002710D01*
X002849Y002611D02*
X003051Y002611D01*
X003020Y002513D02*
X002880Y002513D01*
X002880Y002414D02*
X003020Y002414D01*
X003040Y002316D02*
X002860Y002316D01*
X002819Y002217D02*
X003081Y002217D01*
X003173Y002119D02*
X002727Y002119D01*
X003727Y002119D02*
X004173Y002119D01*
X004081Y002217D02*
X003819Y002217D01*
X003860Y002316D02*
X004040Y002316D01*
X004020Y002414D02*
X003880Y002414D01*
X003880Y002513D02*
X004020Y002513D01*
X004051Y002611D02*
X003849Y002611D01*
X003799Y002710D02*
X004101Y002710D01*
X004200Y002808D02*
X003700Y002808D01*
X004700Y002808D02*
X005200Y002808D01*
X005101Y002710D02*
X004799Y002710D01*
X004849Y002611D02*
X005051Y002611D01*
X005020Y002513D02*
X004880Y002513D01*
X004880Y002414D02*
X005020Y002414D01*
X005040Y002316D02*
X004860Y002316D01*
X004819Y002217D02*
X005081Y002217D01*
X005173Y002119D02*
X004727Y002119D01*
X006149Y003005D02*
X008710Y003005D01*
X008700Y002907D02*
X006197Y002907D01*
X006700Y002808D02*
X007200Y002808D01*
X007101Y002710D02*
X006799Y002710D01*
X006849Y002611D02*
X007051Y002611D01*
X007020Y002513D02*
X006880Y002513D01*
X006880Y002414D02*
X007020Y002414D01*
X007040Y002316D02*
X006860Y002316D01*
X006819Y002217D02*
X007081Y002217D01*
X007173Y002119D02*
X006727Y002119D01*
X007727Y002119D02*
X008173Y002119D01*
X008081Y002217D02*
X007819Y002217D01*
X007860Y002316D02*
X008040Y002316D01*
X008020Y002414D02*
X007880Y002414D01*
X007880Y002513D02*
X008020Y002513D01*
X008051Y002611D02*
X007849Y002611D01*
X007799Y002710D02*
X008101Y002710D01*
X008200Y002808D02*
X007700Y002808D01*
X007536Y003104D02*
X008765Y003104D01*
X008765Y003202D02*
X007624Y003202D01*
X007655Y003301D02*
X008765Y003301D01*
X009185Y003202D02*
X009514Y003202D01*
X009508Y003208D02*
X009578Y003138D01*
X009670Y003100D01*
X009720Y003100D01*
X009720Y003050D01*
X009758Y002958D01*
X009828Y002888D01*
X009920Y002850D01*
X010020Y002850D01*
X010112Y002888D01*
X010182Y002958D01*
X010220Y003050D01*
X010220Y003150D01*
X010182Y003242D01*
X010112Y003312D01*
X010020Y003350D01*
X009970Y003350D01*
X009970Y003400D01*
X009932Y003492D01*
X009862Y003562D01*
X009770Y003600D01*
X009670Y003600D01*
X009578Y003562D01*
X009508Y003492D01*
X009470Y003400D01*
X009470Y003300D01*
X009508Y003208D01*
X009470Y003301D02*
X009222Y003301D01*
X009321Y003399D02*
X009470Y003399D01*
X009514Y003498D02*
X009419Y003498D01*
X009518Y003596D02*
X009661Y003596D01*
X009616Y003695D02*
X010155Y003695D01*
X010172Y003793D02*
X009715Y003793D01*
X009813Y003892D02*
X010237Y003892D01*
X010603Y003892D02*
X010712Y003892D01*
X010668Y003793D02*
X010810Y003793D01*
X010909Y003695D02*
X010685Y003695D01*
X010664Y003596D02*
X011007Y003596D01*
X011106Y003498D02*
X010592Y003498D01*
X010248Y003498D02*
X009926Y003498D01*
X009970Y003399D02*
X011204Y003399D01*
X011303Y003301D02*
X010123Y003301D01*
X010198Y003202D02*
X010859Y003202D01*
X010858Y003202D02*
X010788Y003132D01*
X010750Y003040D01*
X010750Y002940D01*
X010788Y002848D01*
X010858Y002778D01*
X010950Y002740D01*
X011050Y002740D01*
X011142Y002778D01*
X011212Y002848D01*
X011250Y002940D01*
X011250Y003040D01*
X011212Y003132D01*
X011142Y003202D01*
X011050Y003240D01*
X010950Y003240D01*
X010858Y003202D01*
X010776Y003104D02*
X010220Y003104D01*
X010201Y003005D02*
X010750Y003005D01*
X010764Y002907D02*
X010130Y002907D01*
X010200Y002808D02*
X009700Y002808D01*
X009799Y002710D02*
X010101Y002710D01*
X010051Y002611D02*
X009849Y002611D01*
X009880Y002513D02*
X010020Y002513D01*
X010020Y002414D02*
X009880Y002414D01*
X009860Y002316D02*
X010040Y002316D01*
X010081Y002217D02*
X009819Y002217D01*
X009727Y002119D02*
X010173Y002119D01*
X010727Y002119D02*
X011145Y002119D01*
X011064Y002217D02*
X010819Y002217D01*
X010860Y002316D02*
X011021Y002316D01*
X010880Y002414D02*
X011400Y002414D01*
X011400Y002513D02*
X011500Y002513D01*
X011500Y002611D02*
X011400Y002611D01*
X011400Y002710D02*
X011500Y002710D01*
X011500Y002808D02*
X011400Y002808D01*
X011236Y002907D02*
X012820Y002907D01*
X012743Y003005D02*
X011250Y003005D01*
X011224Y003104D02*
X012720Y003104D01*
X012738Y003202D02*
X012033Y003202D01*
X012147Y003301D02*
X012807Y003301D01*
X012902Y003596D02*
X012633Y003596D01*
X012757Y003695D02*
X012776Y003695D01*
X012427Y003596D02*
X012118Y003596D01*
X012123Y003695D02*
X012303Y003695D01*
X012265Y003793D02*
X012150Y003793D01*
X011726Y003990D02*
X011207Y003990D01*
X011305Y003892D02*
X011663Y003892D01*
X011650Y003793D02*
X011404Y003793D01*
X011502Y003695D02*
X011677Y003695D01*
X011673Y004089D02*
X011108Y004089D01*
X011010Y004187D02*
X011660Y004187D01*
X011687Y004286D02*
X010911Y004286D01*
X010176Y003596D02*
X009779Y003596D01*
X009662Y003104D02*
X009185Y003104D01*
X009190Y003005D02*
X009739Y003005D01*
X009810Y002907D02*
X009200Y002907D01*
X009200Y002808D02*
X009170Y002808D01*
X009101Y002710D02*
X009071Y002710D01*
X009051Y002611D02*
X008849Y002611D01*
X008829Y002710D02*
X008799Y002710D01*
X008730Y002808D02*
X008700Y002808D01*
X008880Y002513D02*
X009020Y002513D01*
X009020Y002414D02*
X008880Y002414D01*
X008860Y002316D02*
X009040Y002316D01*
X009081Y002217D02*
X008819Y002217D01*
X008727Y002119D02*
X009173Y002119D01*
X010700Y002808D02*
X010828Y002808D01*
X010799Y002710D02*
X011082Y002710D01*
X011029Y002611D02*
X010849Y002611D01*
X010880Y002513D02*
X011004Y002513D01*
X011172Y002808D02*
X011177Y002808D01*
X011141Y003202D02*
X011827Y003202D01*
X012499Y004187D02*
X012585Y004187D01*
X012611Y004286D02*
X012438Y004286D01*
X014539Y003695D02*
X015708Y003695D01*
X015584Y003596D02*
X014808Y003596D01*
X014880Y003498D02*
X015545Y003498D01*
X015545Y003399D02*
X014900Y003399D01*
X014879Y003301D02*
X015585Y003301D01*
X015716Y003202D02*
X014806Y003202D01*
X015700Y002808D02*
X016450Y002808D01*
X016450Y002710D02*
X015799Y002710D01*
X015849Y002611D02*
X016450Y002611D01*
X016450Y002513D02*
X015880Y002513D01*
X015880Y002414D02*
X016450Y002414D01*
X016450Y002316D02*
X015860Y002316D01*
X015819Y002217D02*
X016450Y002217D01*
X016450Y002119D02*
X015727Y002119D01*
X007798Y003399D02*
X007648Y003399D01*
D11*
X007450Y002450D03*
X006450Y002450D03*
X005450Y002450D03*
X004450Y002450D03*
X003450Y002450D03*
X002450Y002450D03*
X008450Y002450D03*
X009450Y002450D03*
X010450Y002450D03*
X011450Y002450D03*
X012450Y002450D03*
X013450Y002450D03*
X014450Y002450D03*
X015450Y002450D03*
X004450Y009450D03*
X003450Y009450D03*
X002450Y009450D03*
X002450Y010450D03*
X003450Y010450D03*
X004450Y010450D03*
X005450Y010450D03*
X006450Y010450D03*
X007450Y010450D03*
X008450Y010450D03*
X009450Y010450D03*
X010450Y010450D03*
X011450Y010450D03*
X012450Y010450D03*
X013450Y010450D03*
X014450Y010450D03*
X015450Y010450D03*
D12*
X016050Y010250D03*
X015950Y009750D03*
X015650Y009450D03*
X015250Y009450D03*
X015250Y009050D03*
X015650Y009050D03*
X016050Y009250D03*
X015250Y008650D03*
X015250Y008250D03*
X015250Y007850D03*
X015250Y007450D03*
X015610Y007100D03*
X015960Y007100D03*
X016380Y007550D03*
X016380Y007950D03*
X016380Y008350D03*
X016100Y008610D03*
X013990Y009910D03*
X012790Y009910D03*
X011950Y010030D03*
X010950Y009910D03*
X010750Y009550D03*
X010440Y009450D03*
X009970Y009670D03*
X010770Y008770D03*
X012270Y007630D03*
X011000Y006550D03*
X010550Y006630D03*
X010050Y006410D03*
X010940Y006190D03*
X011320Y006100D03*
X011970Y005760D03*
X012310Y005870D03*
X012350Y005190D03*
X012020Y005050D03*
X011910Y004170D03*
X012260Y004110D03*
X011900Y003810D03*
X011930Y003430D03*
X011000Y002990D03*
X009970Y003100D03*
X009720Y003350D03*
X008950Y002930D03*
X007450Y004180D03*
X007790Y004290D03*
X007450Y004580D03*
X008110Y005950D03*
X007750Y006350D03*
X009630Y007480D03*
X010000Y007550D03*
X010460Y007540D03*
X010470Y007190D03*
X008780Y008540D03*
X008530Y009610D03*
X005030Y009550D03*
X003050Y008250D03*
X002650Y007050D03*
X002250Y007050D03*
X002250Y005850D03*
X002650Y005850D03*
X004850Y006410D03*
X005110Y006200D03*
X005120Y006710D03*
X005410Y007010D03*
X004960Y007630D03*
X009870Y004790D03*
X010480Y005410D03*
X012990Y003830D03*
X012970Y003110D03*
X014330Y003550D03*
X014650Y003400D03*
X016050Y003150D03*
X016350Y002950D03*
X016050Y002750D03*
X016350Y002550D03*
X016350Y002150D03*
X016350Y003350D03*
X016350Y003750D03*
X016050Y003950D03*
X016350Y004150D03*
X016050Y004350D03*
X016350Y004550D03*
X016050Y004750D03*
X016350Y004950D03*
X016050Y005150D03*
X016350Y005350D03*
X016350Y005750D03*
X016350Y006150D03*
X013280Y005070D03*
X005950Y002850D03*
D13*
X004950Y002900D03*
X004510Y004440D03*
X005550Y004850D03*
X005100Y005840D03*
X006450Y006450D03*
X007750Y005950D03*
X008750Y005950D03*
X008750Y006950D03*
X007750Y006950D03*
X006450Y008250D03*
X006050Y008250D03*
X005650Y008250D03*
X004890Y007990D03*
X007290Y009470D03*
X007540Y009180D03*
X007700Y008820D03*
X007950Y009950D03*
X013450Y006850D03*
X014250Y006850D03*
X014910Y007690D03*
X013680Y007810D03*
X014250Y009390D03*
X014250Y006050D03*
X013450Y006050D03*
X014870Y004830D03*
X015640Y004310D03*
X015430Y003970D03*
X015810Y003450D03*
X014940Y002870D03*
X013050Y004360D03*
X012850Y004170D03*
X012530Y003840D03*
X010420Y003700D03*
X008640Y004230D03*
X008250Y004660D03*
X008570Y003650D03*
X007860Y003660D03*
X007390Y003330D03*
X003430Y004790D03*
X002370Y003390D03*
D14*
X003510Y005470D03*
X003510Y007430D03*
D15*
X002450Y007830D03*
X002450Y005070D03*
D16*
X008950Y002930D02*
X008975Y002955D01*
X008975Y003350D01*
X009775Y004150D01*
X010750Y004150D01*
X011470Y003430D01*
X011930Y003430D01*
M02*
