G75*
G70*
%OFA0B0*%
%FSLAX24Y24*%
%IPPOS*%
%LPD*%
%AMOC8*
5,1,8,0,0,1.08239X$1,22.5*
%
%ADD10C,0.0100*%
%ADD11C,0.0125*%
%ADD12R,0.0394X0.0394*%
%ADD13R,0.0512X0.0512*%
%ADD14R,0.0315X0.0112*%
%ADD15R,0.0112X0.0315*%
%ADD16C,0.0088*%
%ADD17R,0.0866X0.0512*%
%ADD18R,0.0413X0.0512*%
%ADD19R,0.0630X0.0710*%
%ADD20C,0.0059*%
%ADD21R,0.0200X0.0200*%
%ADD22R,0.0551X0.0394*%
%ADD23R,0.0315X0.0315*%
%ADD24R,0.0800X0.0800*%
%ADD25R,0.0098X0.0197*%
%ADD26R,0.0551X0.0138*%
D10*
X001820Y001850D02*
X017340Y001840D01*
X018270Y002770D01*
X018270Y010130D01*
X017350Y011050D01*
X001820Y011050D01*
X001820Y001850D01*
D11*
X004127Y003592D02*
X004127Y003718D01*
X004253Y003718D01*
X004253Y003592D01*
X004127Y003592D01*
X004127Y003716D02*
X004253Y003716D01*
X004653Y003718D02*
X004653Y003592D01*
X004527Y003592D01*
X004527Y003718D01*
X004653Y003718D01*
X004653Y003716D02*
X004527Y003716D01*
X004653Y003942D02*
X004653Y004068D01*
X004653Y003942D02*
X004527Y003942D01*
X004527Y004068D01*
X004653Y004068D01*
X004653Y004066D02*
X004527Y004066D01*
X004127Y004068D02*
X004127Y003942D01*
X004127Y004068D02*
X004253Y004068D01*
X004253Y003942D01*
X004127Y003942D01*
X004127Y004066D02*
X004253Y004066D01*
X005087Y004512D02*
X005087Y004638D01*
X005213Y004638D01*
X005213Y004512D01*
X005087Y004512D01*
X005087Y004636D02*
X005213Y004636D01*
X005087Y004862D02*
X005087Y004988D01*
X005213Y004988D01*
X005213Y004862D01*
X005087Y004862D01*
X005087Y004986D02*
X005213Y004986D01*
X005812Y004813D02*
X005938Y004813D01*
X005938Y004687D01*
X005812Y004687D01*
X005812Y004813D01*
X005812Y004811D02*
X005938Y004811D01*
X006162Y004813D02*
X006288Y004813D01*
X006288Y004687D01*
X006162Y004687D01*
X006162Y004813D01*
X006162Y004811D02*
X006288Y004811D01*
X006712Y004413D02*
X006838Y004413D01*
X006838Y004287D01*
X006712Y004287D01*
X006712Y004413D01*
X006712Y004411D02*
X006838Y004411D01*
X007062Y004413D02*
X007188Y004413D01*
X007188Y004287D01*
X007062Y004287D01*
X007062Y004413D01*
X007062Y004411D02*
X007188Y004411D01*
X007188Y003913D02*
X007062Y003913D01*
X007188Y003913D02*
X007188Y003787D01*
X007062Y003787D01*
X007062Y003913D01*
X007062Y003911D02*
X007188Y003911D01*
X006838Y003913D02*
X006712Y003913D01*
X006838Y003913D02*
X006838Y003787D01*
X006712Y003787D01*
X006712Y003913D01*
X006712Y003911D02*
X006838Y003911D01*
X006838Y003413D02*
X006712Y003413D01*
X006838Y003413D02*
X006838Y003287D01*
X006712Y003287D01*
X006712Y003413D01*
X006712Y003411D02*
X006838Y003411D01*
X007062Y003413D02*
X007188Y003413D01*
X007188Y003287D01*
X007062Y003287D01*
X007062Y003413D01*
X007062Y003411D02*
X007188Y003411D01*
X008112Y003413D02*
X008238Y003413D01*
X008238Y003287D01*
X008112Y003287D01*
X008112Y003413D01*
X008112Y003411D02*
X008238Y003411D01*
X008462Y003413D02*
X008588Y003413D01*
X008588Y003287D01*
X008462Y003287D01*
X008462Y003413D01*
X008462Y003411D02*
X008588Y003411D01*
X008912Y003413D02*
X009038Y003413D01*
X009038Y003287D01*
X008912Y003287D01*
X008912Y003413D01*
X008912Y003411D02*
X009038Y003411D01*
X009262Y003413D02*
X009388Y003413D01*
X009388Y003287D01*
X009262Y003287D01*
X009262Y003413D01*
X009262Y003411D02*
X009388Y003411D01*
X010012Y003413D02*
X010138Y003413D01*
X010138Y003287D01*
X010012Y003287D01*
X010012Y003413D01*
X010012Y003411D02*
X010138Y003411D01*
X010362Y003413D02*
X010488Y003413D01*
X010488Y003287D01*
X010362Y003287D01*
X010362Y003413D01*
X010362Y003411D02*
X010488Y003411D01*
X010812Y003413D02*
X010938Y003413D01*
X010938Y003287D01*
X010812Y003287D01*
X010812Y003413D01*
X010812Y003411D02*
X010938Y003411D01*
X011162Y003413D02*
X011288Y003413D01*
X011288Y003287D01*
X011162Y003287D01*
X011162Y003413D01*
X011162Y003411D02*
X011288Y003411D01*
X012512Y003513D02*
X012638Y003513D01*
X012638Y003387D01*
X012512Y003387D01*
X012512Y003513D01*
X012512Y003511D02*
X012638Y003511D01*
X012862Y003513D02*
X012988Y003513D01*
X012988Y003387D01*
X012862Y003387D01*
X012862Y003513D01*
X012862Y003511D02*
X012988Y003511D01*
X013513Y003912D02*
X013513Y004038D01*
X013513Y003912D02*
X013387Y003912D01*
X013387Y004038D01*
X013513Y004038D01*
X013513Y004036D02*
X013387Y004036D01*
X013513Y004262D02*
X013513Y004388D01*
X013513Y004262D02*
X013387Y004262D01*
X013387Y004388D01*
X013513Y004388D01*
X013513Y004386D02*
X013387Y004386D01*
X013913Y004388D02*
X013913Y004262D01*
X013787Y004262D01*
X013787Y004388D01*
X013913Y004388D01*
X013913Y004386D02*
X013787Y004386D01*
X013913Y004038D02*
X013913Y003912D01*
X013787Y003912D01*
X013787Y004038D01*
X013913Y004038D01*
X013913Y004036D02*
X013787Y004036D01*
X012287Y005132D02*
X012287Y005258D01*
X012413Y005258D01*
X012413Y005132D01*
X012287Y005132D01*
X012287Y005256D02*
X012413Y005256D01*
X012287Y005482D02*
X012287Y005608D01*
X012413Y005608D01*
X012413Y005482D01*
X012287Y005482D01*
X012287Y005606D02*
X012413Y005606D01*
X011388Y004987D02*
X011262Y004987D01*
X011262Y005113D01*
X011388Y005113D01*
X011388Y004987D01*
X011388Y005111D02*
X011262Y005111D01*
X011038Y004987D02*
X010912Y004987D01*
X010912Y005113D01*
X011038Y005113D01*
X011038Y004987D01*
X011038Y005111D02*
X010912Y005111D01*
X009713Y006352D02*
X009713Y006478D01*
X009713Y006352D02*
X009587Y006352D01*
X009587Y006478D01*
X009713Y006478D01*
X009713Y006476D02*
X009587Y006476D01*
X009713Y006702D02*
X009713Y006828D01*
X009713Y006702D02*
X009587Y006702D01*
X009587Y006828D01*
X009713Y006828D01*
X009713Y006826D02*
X009587Y006826D01*
X010812Y007587D02*
X010938Y007587D01*
X010812Y007587D02*
X010812Y007713D01*
X010938Y007713D01*
X010938Y007587D01*
X010938Y007711D02*
X010812Y007711D01*
X011162Y007587D02*
X011288Y007587D01*
X011162Y007587D02*
X011162Y007713D01*
X011288Y007713D01*
X011288Y007587D01*
X011288Y007711D02*
X011162Y007711D01*
X011712Y007113D02*
X011838Y007113D01*
X011838Y006987D01*
X011712Y006987D01*
X011712Y007113D01*
X011712Y007111D02*
X011838Y007111D01*
X012062Y007113D02*
X012188Y007113D01*
X012188Y006987D01*
X012062Y006987D01*
X012062Y007113D01*
X012062Y007111D02*
X012188Y007111D01*
X012188Y006713D02*
X012062Y006713D01*
X012188Y006713D02*
X012188Y006587D01*
X012062Y006587D01*
X012062Y006713D01*
X012062Y006711D02*
X012188Y006711D01*
X011838Y006713D02*
X011712Y006713D01*
X011838Y006713D02*
X011838Y006587D01*
X011712Y006587D01*
X011712Y006713D01*
X011712Y006711D02*
X011838Y006711D01*
X013787Y008312D02*
X013787Y008438D01*
X013913Y008438D01*
X013913Y008312D01*
X013787Y008312D01*
X013787Y008436D02*
X013913Y008436D01*
X013787Y008662D02*
X013787Y008788D01*
X013913Y008788D01*
X013913Y008662D01*
X013787Y008662D01*
X013787Y008786D02*
X013913Y008786D01*
X014713Y008812D02*
X014713Y008938D01*
X014713Y008812D02*
X014587Y008812D01*
X014587Y008938D01*
X014713Y008938D01*
X014713Y008936D02*
X014587Y008936D01*
X014713Y009162D02*
X014713Y009288D01*
X014713Y009162D02*
X014587Y009162D01*
X014587Y009288D01*
X014713Y009288D01*
X014713Y009286D02*
X014587Y009286D01*
X014713Y008488D02*
X014713Y008362D01*
X014587Y008362D01*
X014587Y008488D01*
X014713Y008488D01*
X014713Y008486D02*
X014587Y008486D01*
X014713Y008138D02*
X014713Y008012D01*
X014587Y008012D01*
X014587Y008138D01*
X014713Y008138D01*
X014713Y008136D02*
X014587Y008136D01*
X015587Y008162D02*
X015587Y008288D01*
X015713Y008288D01*
X015713Y008162D01*
X015587Y008162D01*
X015587Y008286D02*
X015713Y008286D01*
X016113Y008283D02*
X016113Y008157D01*
X015987Y008157D01*
X015987Y008283D01*
X016113Y008283D01*
X016113Y008281D02*
X015987Y008281D01*
X016113Y007933D02*
X016113Y007807D01*
X015987Y007807D01*
X015987Y007933D01*
X016113Y007933D01*
X016113Y007931D02*
X015987Y007931D01*
X015587Y007938D02*
X015587Y007812D01*
X015587Y007938D02*
X015713Y007938D01*
X015713Y007812D01*
X015587Y007812D01*
X015587Y007936D02*
X015713Y007936D01*
X015738Y007508D02*
X015612Y007508D01*
X015738Y007508D02*
X015738Y007382D01*
X015612Y007382D01*
X015612Y007508D01*
X015612Y007506D02*
X015738Y007506D01*
X015962Y007508D02*
X016088Y007508D01*
X016088Y007382D01*
X015962Y007382D01*
X015962Y007508D01*
X015962Y007506D02*
X016088Y007506D01*
X015913Y006088D02*
X015913Y005962D01*
X015787Y005962D01*
X015787Y006088D01*
X015913Y006088D01*
X015913Y006086D02*
X015787Y006086D01*
X015913Y005738D02*
X015913Y005612D01*
X015787Y005612D01*
X015787Y005738D01*
X015913Y005738D01*
X015913Y005736D02*
X015787Y005736D01*
X012313Y008612D02*
X012313Y008738D01*
X012313Y008612D02*
X012187Y008612D01*
X012187Y008738D01*
X012313Y008738D01*
X012313Y008736D02*
X012187Y008736D01*
X012313Y008962D02*
X012313Y009088D01*
X012313Y008962D02*
X012187Y008962D01*
X012187Y009088D01*
X012313Y009088D01*
X012313Y009086D02*
X012187Y009086D01*
X011613Y009088D02*
X011613Y008962D01*
X011487Y008962D01*
X011487Y009088D01*
X011613Y009088D01*
X011613Y009086D02*
X011487Y009086D01*
X011613Y008738D02*
X011613Y008612D01*
X011487Y008612D01*
X011487Y008738D01*
X011613Y008738D01*
X011613Y008736D02*
X011487Y008736D01*
X009588Y008213D02*
X009462Y008213D01*
X009588Y008213D02*
X009588Y008087D01*
X009462Y008087D01*
X009462Y008213D01*
X009462Y008211D02*
X009588Y008211D01*
X009238Y008213D02*
X009112Y008213D01*
X009238Y008213D02*
X009238Y008087D01*
X009112Y008087D01*
X009112Y008213D01*
X009112Y008211D02*
X009238Y008211D01*
X008788Y008213D02*
X008662Y008213D01*
X008788Y008213D02*
X008788Y008087D01*
X008662Y008087D01*
X008662Y008213D01*
X008662Y008211D02*
X008788Y008211D01*
X008438Y008213D02*
X008312Y008213D01*
X008438Y008213D02*
X008438Y008087D01*
X008312Y008087D01*
X008312Y008213D01*
X008312Y008211D02*
X008438Y008211D01*
X006288Y007313D02*
X006162Y007313D01*
X006288Y007313D02*
X006288Y007187D01*
X006162Y007187D01*
X006162Y007313D01*
X006162Y007311D02*
X006288Y007311D01*
X005938Y007313D02*
X005812Y007313D01*
X005938Y007313D02*
X005938Y007187D01*
X005812Y007187D01*
X005812Y007313D01*
X005812Y007311D02*
X005938Y007311D01*
X005938Y006687D02*
X005812Y006687D01*
X005812Y006813D01*
X005938Y006813D01*
X005938Y006687D01*
X005938Y006811D02*
X005812Y006811D01*
X006162Y006687D02*
X006288Y006687D01*
X006162Y006687D02*
X006162Y006813D01*
X006288Y006813D01*
X006288Y006687D01*
X006288Y006811D02*
X006162Y006811D01*
X004788Y006813D02*
X004662Y006813D01*
X004788Y006813D02*
X004788Y006687D01*
X004662Y006687D01*
X004662Y006813D01*
X004662Y006811D02*
X004788Y006811D01*
X004438Y006813D02*
X004312Y006813D01*
X004438Y006813D02*
X004438Y006687D01*
X004312Y006687D01*
X004312Y006813D01*
X004312Y006811D02*
X004438Y006811D01*
X004438Y006413D02*
X004312Y006413D01*
X004438Y006413D02*
X004438Y006287D01*
X004312Y006287D01*
X004312Y006413D01*
X004312Y006411D02*
X004438Y006411D01*
X004662Y006413D02*
X004788Y006413D01*
X004788Y006287D01*
X004662Y006287D01*
X004662Y006413D01*
X004662Y006411D02*
X004788Y006411D01*
D12*
X004450Y005844D03*
X004450Y005056D03*
X004450Y007256D03*
X004450Y008044D03*
X005263Y008635D03*
X005263Y009265D03*
X006837Y009265D03*
X006837Y008635D03*
D13*
X013535Y006765D03*
X014165Y006765D03*
X014165Y006135D03*
X013535Y006135D03*
D14*
X012866Y006155D03*
X012866Y005958D03*
X012866Y005761D03*
X012866Y006352D03*
X012866Y006548D03*
X012866Y006745D03*
X012866Y006942D03*
X012866Y007139D03*
X014834Y007139D03*
X014834Y006942D03*
X014834Y006745D03*
X014834Y006548D03*
X014834Y006352D03*
X014834Y006155D03*
X014834Y005958D03*
X014834Y005761D03*
D15*
X014539Y005466D03*
X014342Y005466D03*
X014145Y005466D03*
X013948Y005466D03*
X013752Y005466D03*
X013555Y005466D03*
X013358Y005466D03*
X013161Y005466D03*
X013161Y007434D03*
X013358Y007434D03*
X013555Y007434D03*
X013752Y007434D03*
X013948Y007434D03*
X014145Y007434D03*
X014342Y007434D03*
X014539Y007434D03*
D16*
X012581Y007681D02*
X012319Y007681D01*
X012581Y007681D02*
X012581Y007419D01*
X012319Y007419D01*
X012319Y007681D01*
X012319Y007506D02*
X012581Y007506D01*
X012581Y007593D02*
X012319Y007593D01*
X012319Y007680D02*
X012581Y007680D01*
X012281Y008281D02*
X012019Y008281D01*
X012281Y008281D02*
X012281Y008019D01*
X012019Y008019D01*
X012019Y008281D01*
X012019Y008106D02*
X012281Y008106D01*
X012281Y008193D02*
X012019Y008193D01*
X012019Y008280D02*
X012281Y008280D01*
X011681Y008281D02*
X011419Y008281D01*
X011681Y008281D02*
X011681Y008019D01*
X011419Y008019D01*
X011419Y008281D01*
X011419Y008106D02*
X011681Y008106D01*
X011681Y008193D02*
X011419Y008193D01*
X011419Y008280D02*
X011681Y008280D01*
X011719Y007681D02*
X011981Y007681D01*
X011981Y007419D01*
X011719Y007419D01*
X011719Y007681D01*
X011719Y007506D02*
X011981Y007506D01*
X011981Y007593D02*
X011719Y007593D01*
X011719Y007680D02*
X011981Y007680D01*
X012019Y009419D02*
X012281Y009419D01*
X012019Y009419D02*
X012019Y009681D01*
X012281Y009681D01*
X012281Y009419D01*
X012281Y009506D02*
X012019Y009506D01*
X012019Y009593D02*
X012281Y009593D01*
X012281Y009680D02*
X012019Y009680D01*
X011681Y009419D02*
X011419Y009419D01*
X011419Y009681D01*
X011681Y009681D01*
X011681Y009419D01*
X011681Y009506D02*
X011419Y009506D01*
X011419Y009593D02*
X011681Y009593D01*
X011681Y009680D02*
X011419Y009680D01*
D17*
X011120Y007078D03*
X011120Y005622D03*
D18*
X012686Y008497D03*
X013414Y008497D03*
X013414Y009403D03*
X012686Y009403D03*
X006614Y006203D03*
X005886Y006203D03*
X005886Y005297D03*
X006614Y005297D03*
D19*
X003550Y003830D03*
X002430Y003830D03*
D20*
X007216Y005731D02*
X007434Y005731D01*
X007216Y005731D02*
X007216Y005791D01*
X007434Y005791D01*
X007434Y005731D01*
X007434Y005789D02*
X007216Y005789D01*
X007216Y005928D02*
X007434Y005928D01*
X007216Y005928D02*
X007216Y005988D01*
X007434Y005988D01*
X007434Y005928D01*
X007434Y005986D02*
X007216Y005986D01*
X007216Y006125D02*
X007434Y006125D01*
X007216Y006125D02*
X007216Y006185D01*
X007434Y006185D01*
X007434Y006125D01*
X007434Y006183D02*
X007216Y006183D01*
X007216Y006322D02*
X007434Y006322D01*
X007216Y006322D02*
X007216Y006382D01*
X007434Y006382D01*
X007434Y006322D01*
X007434Y006380D02*
X007216Y006380D01*
X007216Y006518D02*
X007434Y006518D01*
X007216Y006518D02*
X007216Y006578D01*
X007434Y006578D01*
X007434Y006518D01*
X007434Y006576D02*
X007216Y006576D01*
X007216Y006715D02*
X007434Y006715D01*
X007216Y006715D02*
X007216Y006775D01*
X007434Y006775D01*
X007434Y006715D01*
X007434Y006773D02*
X007216Y006773D01*
X007216Y006912D02*
X007434Y006912D01*
X007216Y006912D02*
X007216Y006972D01*
X007434Y006972D01*
X007434Y006912D01*
X007434Y006970D02*
X007216Y006970D01*
X007216Y007109D02*
X007434Y007109D01*
X007216Y007109D02*
X007216Y007169D01*
X007434Y007169D01*
X007434Y007109D01*
X007434Y007167D02*
X007216Y007167D01*
X007531Y007266D02*
X007591Y007266D01*
X007531Y007266D02*
X007531Y007484D01*
X007591Y007484D01*
X007591Y007266D01*
X007591Y007324D02*
X007531Y007324D01*
X007531Y007382D02*
X007591Y007382D01*
X007591Y007440D02*
X007531Y007440D01*
X007728Y007266D02*
X007788Y007266D01*
X007728Y007266D02*
X007728Y007484D01*
X007788Y007484D01*
X007788Y007266D01*
X007788Y007324D02*
X007728Y007324D01*
X007728Y007382D02*
X007788Y007382D01*
X007788Y007440D02*
X007728Y007440D01*
X007925Y007266D02*
X007985Y007266D01*
X007925Y007266D02*
X007925Y007484D01*
X007985Y007484D01*
X007985Y007266D01*
X007985Y007324D02*
X007925Y007324D01*
X007925Y007382D02*
X007985Y007382D01*
X007985Y007440D02*
X007925Y007440D01*
X008122Y007266D02*
X008182Y007266D01*
X008122Y007266D02*
X008122Y007484D01*
X008182Y007484D01*
X008182Y007266D01*
X008182Y007324D02*
X008122Y007324D01*
X008122Y007382D02*
X008182Y007382D01*
X008182Y007440D02*
X008122Y007440D01*
X008318Y007266D02*
X008378Y007266D01*
X008318Y007266D02*
X008318Y007484D01*
X008378Y007484D01*
X008378Y007266D01*
X008378Y007324D02*
X008318Y007324D01*
X008318Y007382D02*
X008378Y007382D01*
X008378Y007440D02*
X008318Y007440D01*
X008515Y007266D02*
X008575Y007266D01*
X008515Y007266D02*
X008515Y007484D01*
X008575Y007484D01*
X008575Y007266D01*
X008575Y007324D02*
X008515Y007324D01*
X008515Y007382D02*
X008575Y007382D01*
X008575Y007440D02*
X008515Y007440D01*
X008712Y007266D02*
X008772Y007266D01*
X008712Y007266D02*
X008712Y007484D01*
X008772Y007484D01*
X008772Y007266D01*
X008772Y007324D02*
X008712Y007324D01*
X008712Y007382D02*
X008772Y007382D01*
X008772Y007440D02*
X008712Y007440D01*
X008909Y007266D02*
X008969Y007266D01*
X008909Y007266D02*
X008909Y007484D01*
X008969Y007484D01*
X008969Y007266D01*
X008969Y007324D02*
X008909Y007324D01*
X008909Y007382D02*
X008969Y007382D01*
X008969Y007440D02*
X008909Y007440D01*
X009066Y007109D02*
X009284Y007109D01*
X009066Y007109D02*
X009066Y007169D01*
X009284Y007169D01*
X009284Y007109D01*
X009284Y007167D02*
X009066Y007167D01*
X009066Y006912D02*
X009284Y006912D01*
X009066Y006912D02*
X009066Y006972D01*
X009284Y006972D01*
X009284Y006912D01*
X009284Y006970D02*
X009066Y006970D01*
X009066Y006715D02*
X009284Y006715D01*
X009066Y006715D02*
X009066Y006775D01*
X009284Y006775D01*
X009284Y006715D01*
X009284Y006773D02*
X009066Y006773D01*
X009066Y006518D02*
X009284Y006518D01*
X009066Y006518D02*
X009066Y006578D01*
X009284Y006578D01*
X009284Y006518D01*
X009284Y006576D02*
X009066Y006576D01*
X009066Y006322D02*
X009284Y006322D01*
X009066Y006322D02*
X009066Y006382D01*
X009284Y006382D01*
X009284Y006322D01*
X009284Y006380D02*
X009066Y006380D01*
X009066Y006125D02*
X009284Y006125D01*
X009066Y006125D02*
X009066Y006185D01*
X009284Y006185D01*
X009284Y006125D01*
X009284Y006183D02*
X009066Y006183D01*
X009066Y005928D02*
X009284Y005928D01*
X009066Y005928D02*
X009066Y005988D01*
X009284Y005988D01*
X009284Y005928D01*
X009284Y005986D02*
X009066Y005986D01*
X009066Y005731D02*
X009284Y005731D01*
X009066Y005731D02*
X009066Y005791D01*
X009284Y005791D01*
X009284Y005731D01*
X009284Y005789D02*
X009066Y005789D01*
X008969Y005416D02*
X008909Y005416D01*
X008909Y005634D01*
X008969Y005634D01*
X008969Y005416D01*
X008969Y005474D02*
X008909Y005474D01*
X008909Y005532D02*
X008969Y005532D01*
X008969Y005590D02*
X008909Y005590D01*
X008772Y005416D02*
X008712Y005416D01*
X008712Y005634D01*
X008772Y005634D01*
X008772Y005416D01*
X008772Y005474D02*
X008712Y005474D01*
X008712Y005532D02*
X008772Y005532D01*
X008772Y005590D02*
X008712Y005590D01*
X008575Y005416D02*
X008515Y005416D01*
X008515Y005634D01*
X008575Y005634D01*
X008575Y005416D01*
X008575Y005474D02*
X008515Y005474D01*
X008515Y005532D02*
X008575Y005532D01*
X008575Y005590D02*
X008515Y005590D01*
X008378Y005416D02*
X008318Y005416D01*
X008318Y005634D01*
X008378Y005634D01*
X008378Y005416D01*
X008378Y005474D02*
X008318Y005474D01*
X008318Y005532D02*
X008378Y005532D01*
X008378Y005590D02*
X008318Y005590D01*
X008182Y005416D02*
X008122Y005416D01*
X008122Y005634D01*
X008182Y005634D01*
X008182Y005416D01*
X008182Y005474D02*
X008122Y005474D01*
X008122Y005532D02*
X008182Y005532D01*
X008182Y005590D02*
X008122Y005590D01*
X007985Y005416D02*
X007925Y005416D01*
X007925Y005634D01*
X007985Y005634D01*
X007985Y005416D01*
X007985Y005474D02*
X007925Y005474D01*
X007925Y005532D02*
X007985Y005532D01*
X007985Y005590D02*
X007925Y005590D01*
X007788Y005416D02*
X007728Y005416D01*
X007728Y005634D01*
X007788Y005634D01*
X007788Y005416D01*
X007788Y005474D02*
X007728Y005474D01*
X007728Y005532D02*
X007788Y005532D01*
X007788Y005590D02*
X007728Y005590D01*
X007591Y005416D02*
X007531Y005416D01*
X007531Y005634D01*
X007591Y005634D01*
X007591Y005416D01*
X007591Y005474D02*
X007531Y005474D01*
X007531Y005532D02*
X007591Y005532D01*
X007591Y005590D02*
X007531Y005590D01*
D21*
X007900Y006100D03*
X008250Y006100D03*
X008600Y006100D03*
X008600Y006450D03*
X008600Y006800D03*
X008250Y006800D03*
X008250Y006450D03*
X007900Y006450D03*
X007900Y006800D03*
D22*
X009283Y008576D03*
X008417Y008950D03*
X009283Y009324D03*
X009183Y004524D03*
X008317Y004150D03*
X009183Y003776D03*
X010117Y004150D03*
X010983Y003776D03*
X010983Y004524D03*
D23*
X013355Y003450D03*
X013945Y003450D03*
X006345Y003350D03*
X006345Y003850D03*
X006345Y004350D03*
X005755Y004350D03*
X005150Y004145D03*
X005755Y003850D03*
X005150Y003555D03*
X005755Y003350D03*
D24*
X005150Y005450D03*
D25*
X015846Y006490D03*
X016043Y006490D03*
X016239Y006490D03*
X016239Y006805D03*
X016043Y006805D03*
X015846Y006805D03*
D26*
X003493Y006706D03*
X003493Y006450D03*
X003493Y006194D03*
X003493Y005938D03*
X003493Y006962D03*
M02*
