G75*
G70*
%OFA0B0*%
%FSLAX24Y24*%
%IPPOS*%
%LPD*%
%AMOC8*
5,1,8,0,0,1.08239X$1,22.5*
%
%ADD10C,0.0100*%
%ADD11C,0.0600*%
%ADD12C,0.0240*%
%ADD13C,0.0270*%
%ADD14C,0.0320*%
%ADD15C,0.0160*%
D10*
X001820Y001850D02*
X016150Y001840D01*
X016150Y004250D01*
X017550Y005650D01*
X017550Y009850D01*
X017530Y009870D02*
X016350Y011050D01*
X001820Y011060D01*
X001820Y001850D01*
X002757Y002149D02*
X002815Y002206D01*
X002880Y002364D01*
X002880Y002536D01*
X002815Y002694D01*
X002694Y002815D01*
X002536Y002880D01*
X002364Y002880D01*
X002206Y002815D01*
X002120Y002728D01*
X002120Y002965D01*
X002217Y002925D01*
X002323Y002925D01*
X002420Y002965D01*
X002495Y003040D01*
X002535Y003137D01*
X002535Y003243D01*
X002495Y003340D01*
X002420Y003415D01*
X002323Y003455D01*
X002217Y003455D01*
X002120Y003415D01*
X002120Y009172D01*
X002206Y009085D01*
X002364Y009020D01*
X002536Y009020D01*
X002694Y009085D01*
X002815Y009206D01*
X002880Y009364D01*
X002880Y009536D01*
X002815Y009694D01*
X002694Y009815D01*
X002536Y009880D01*
X002364Y009880D01*
X002206Y009815D01*
X002120Y009728D01*
X002120Y010172D01*
X002206Y010085D01*
X002364Y010020D01*
X002536Y010020D01*
X002694Y010085D01*
X002815Y010206D01*
X002880Y010364D01*
X002880Y010536D01*
X002815Y010694D01*
X002749Y010759D01*
X003151Y010759D01*
X003085Y010694D01*
X003020Y010536D01*
X003020Y010364D01*
X003085Y010206D01*
X003206Y010085D01*
X003364Y010020D01*
X003536Y010020D01*
X003694Y010085D01*
X003815Y010206D01*
X003880Y010364D01*
X003880Y010536D01*
X003815Y010694D01*
X003749Y010759D01*
X004150Y010758D01*
X004085Y010694D01*
X004020Y010536D01*
X004020Y010364D01*
X004085Y010206D01*
X004206Y010085D01*
X004364Y010020D01*
X004536Y010020D01*
X004694Y010085D01*
X004815Y010206D01*
X004880Y010364D01*
X004880Y010536D01*
X004815Y010694D01*
X004750Y010758D01*
X005150Y010758D01*
X005085Y010694D01*
X005020Y010536D01*
X005020Y010364D01*
X005085Y010206D01*
X005206Y010085D01*
X005364Y010020D01*
X005536Y010020D01*
X005694Y010085D01*
X005815Y010206D01*
X005880Y010364D01*
X005880Y010536D01*
X005815Y010694D01*
X005751Y010757D01*
X006149Y010757D01*
X006085Y010694D01*
X006020Y010536D01*
X006020Y010364D01*
X006085Y010206D01*
X006206Y010085D01*
X006364Y010020D01*
X006536Y010020D01*
X006694Y010085D01*
X006815Y010206D01*
X006880Y010364D01*
X006880Y010536D01*
X006815Y010694D01*
X006752Y010757D01*
X007148Y010756D01*
X007085Y010694D01*
X007020Y010536D01*
X007020Y010364D01*
X007085Y010206D01*
X007206Y010085D01*
X007364Y010020D01*
X007536Y010020D01*
X007694Y010085D01*
X007815Y010206D01*
X007880Y010364D01*
X007880Y010536D01*
X007815Y010694D01*
X007752Y010756D01*
X008148Y010756D01*
X008085Y010694D01*
X008020Y010536D01*
X008020Y010364D01*
X008085Y010206D01*
X008206Y010085D01*
X008364Y010020D01*
X008536Y010020D01*
X008694Y010085D01*
X008815Y010206D01*
X008880Y010364D01*
X008880Y010536D01*
X008815Y010694D01*
X008753Y010755D01*
X009147Y010755D01*
X009085Y010694D01*
X009020Y010536D01*
X009020Y010364D01*
X009085Y010206D01*
X009206Y010085D01*
X009364Y010020D01*
X009536Y010020D01*
X009694Y010085D01*
X009815Y010206D01*
X009880Y010364D01*
X009880Y010536D01*
X009815Y010694D01*
X009754Y010755D01*
X010146Y010754D01*
X010085Y010694D01*
X010020Y010536D01*
X010020Y010364D01*
X010085Y010206D01*
X010206Y010085D01*
X010364Y010020D01*
X010536Y010020D01*
X010694Y010085D01*
X010815Y010206D01*
X010880Y010364D01*
X010880Y010536D01*
X010815Y010694D01*
X010754Y010754D01*
X011145Y010754D01*
X011085Y010694D01*
X011020Y010536D01*
X011020Y010364D01*
X011085Y010206D01*
X011206Y010085D01*
X011364Y010020D01*
X011536Y010020D01*
X011694Y010085D01*
X011815Y010206D01*
X011880Y010364D01*
X011880Y010536D01*
X011815Y010694D01*
X011755Y010753D01*
X012145Y010753D01*
X012085Y010694D01*
X012020Y010536D01*
X012020Y010364D01*
X012085Y010206D01*
X012206Y010085D01*
X012364Y010020D01*
X012536Y010020D01*
X012694Y010085D01*
X012815Y010206D01*
X012880Y010364D01*
X012880Y010536D01*
X012815Y010694D01*
X012756Y010752D01*
X013144Y010752D01*
X013085Y010694D01*
X013020Y010536D01*
X013020Y010364D01*
X013085Y010206D01*
X013206Y010085D01*
X013364Y010020D01*
X013536Y010020D01*
X013694Y010085D01*
X013815Y010206D01*
X013880Y010364D01*
X013880Y010536D01*
X013815Y010694D01*
X013756Y010752D01*
X014143Y010752D01*
X014085Y010694D01*
X014020Y010536D01*
X014020Y010364D01*
X014085Y010206D01*
X014206Y010085D01*
X014364Y010020D01*
X014536Y010020D01*
X014694Y010085D01*
X014815Y010206D01*
X014880Y010364D01*
X014880Y010536D01*
X014815Y010694D01*
X014757Y010751D01*
X015143Y010751D01*
X015085Y010694D01*
X015020Y010536D01*
X015020Y010364D01*
X015085Y010206D01*
X015206Y010085D01*
X015364Y010020D01*
X015536Y010020D01*
X015694Y010085D01*
X015815Y010206D01*
X015880Y010364D01*
X015880Y010536D01*
X015815Y010694D01*
X015758Y010750D01*
X016050Y010750D01*
X016050Y004574D01*
X015896Y004420D01*
X015888Y004403D01*
X015865Y004460D01*
X015790Y004535D01*
X015693Y004575D01*
X015587Y004575D01*
X015490Y004535D01*
X015415Y004460D01*
X015375Y004363D01*
X015375Y004257D01*
X015415Y004160D01*
X015490Y004085D01*
X015587Y004045D01*
X015693Y004045D01*
X015790Y004085D01*
X015850Y004145D01*
X015850Y003657D01*
X015783Y003685D01*
X015707Y003685D01*
X015725Y003727D01*
X015725Y003833D01*
X015685Y003930D01*
X015610Y004005D01*
X015513Y004045D01*
X015407Y004045D01*
X015310Y004005D01*
X015235Y003930D01*
X015195Y003833D01*
X015195Y003727D01*
X015235Y003630D01*
X015310Y003555D01*
X015407Y003515D01*
X015483Y003515D01*
X015465Y003473D01*
X015465Y003367D01*
X015505Y003270D01*
X015580Y003195D01*
X015677Y003155D01*
X015783Y003155D01*
X015850Y003183D01*
X015850Y002608D01*
X015815Y002694D01*
X015694Y002815D01*
X015536Y002880D01*
X015364Y002880D01*
X015206Y002815D01*
X015202Y002810D01*
X015205Y002817D01*
X015205Y002923D01*
X015165Y003020D01*
X015090Y003095D01*
X014993Y003135D01*
X014945Y003135D01*
X014960Y003170D01*
X014960Y003270D01*
X014922Y003362D01*
X014852Y003432D01*
X014760Y003470D01*
X014660Y003470D01*
X014633Y003459D01*
X014595Y003550D01*
X014520Y003625D01*
X014423Y003665D01*
X014317Y003665D01*
X014220Y003625D01*
X014145Y003550D01*
X014105Y003453D01*
X014105Y003347D01*
X014145Y003250D01*
X014220Y003175D01*
X014317Y003135D01*
X014423Y003135D01*
X014467Y003153D01*
X014498Y003078D01*
X014568Y003008D01*
X014660Y002970D01*
X014695Y002970D01*
X014675Y002923D01*
X014675Y002822D01*
X014536Y002880D01*
X014364Y002880D01*
X014206Y002815D01*
X014085Y002694D01*
X014020Y002536D01*
X014020Y002364D01*
X014085Y002206D01*
X014150Y002141D01*
X013750Y002142D01*
X013815Y002206D01*
X013880Y002364D01*
X013880Y002536D01*
X013815Y002694D01*
X013694Y002815D01*
X013536Y002880D01*
X013364Y002880D01*
X013206Y002815D01*
X013085Y002694D01*
X013020Y002536D01*
X013020Y002364D01*
X013085Y002206D01*
X013150Y002142D01*
X012779Y002142D01*
X012793Y002157D01*
X012835Y002214D01*
X012867Y002277D01*
X012889Y002345D01*
X012898Y002400D01*
X012500Y002400D01*
X012500Y002500D01*
X012400Y002500D01*
X012400Y002898D01*
X012345Y002889D01*
X012277Y002867D01*
X012214Y002835D01*
X012157Y002793D01*
X012107Y002743D01*
X012065Y002686D01*
X012033Y002623D01*
X012011Y002555D01*
X012002Y002500D01*
X012400Y002500D01*
X012400Y002400D01*
X012002Y002400D01*
X012011Y002345D01*
X012033Y002277D01*
X012065Y002214D01*
X012107Y002157D01*
X012121Y002143D01*
X011779Y002143D01*
X011793Y002157D01*
X011835Y002214D01*
X011867Y002277D01*
X011889Y002345D01*
X011898Y002400D01*
X011500Y002400D01*
X011500Y002500D01*
X011400Y002500D01*
X011400Y002836D01*
X011412Y002848D01*
X011450Y002940D01*
X011450Y003040D01*
X011412Y003132D01*
X011342Y003202D01*
X011250Y003240D01*
X011150Y003240D01*
X011058Y003202D01*
X010988Y003132D01*
X010950Y003040D01*
X010950Y002940D01*
X010988Y002848D01*
X011058Y002778D01*
X011117Y002754D01*
X011107Y002743D01*
X011065Y002686D01*
X011033Y002623D01*
X011011Y002555D01*
X011002Y002500D01*
X011400Y002500D01*
X011400Y002400D01*
X011002Y002400D01*
X011011Y002345D01*
X011033Y002277D01*
X011065Y002214D01*
X011107Y002157D01*
X011120Y002144D01*
X010752Y002144D01*
X010815Y002206D01*
X010880Y002364D01*
X010880Y002536D01*
X010815Y002694D01*
X010694Y002815D01*
X010536Y002880D01*
X010364Y002880D01*
X010344Y002871D01*
X010360Y002910D01*
X010360Y003010D01*
X010322Y003102D01*
X010252Y003172D01*
X010160Y003210D01*
X010060Y003210D01*
X009968Y003172D01*
X009898Y003102D01*
X009860Y003010D01*
X009860Y002910D01*
X009898Y002818D01*
X009968Y002748D01*
X010060Y002710D01*
X010102Y002710D01*
X010085Y002694D01*
X010020Y002536D01*
X010020Y002364D01*
X010085Y002206D01*
X010148Y002144D01*
X009753Y002144D01*
X009815Y002206D01*
X009880Y002364D01*
X009880Y002536D01*
X009815Y002694D01*
X009694Y002815D01*
X009536Y002880D01*
X009364Y002880D01*
X009206Y002815D01*
X009085Y002694D01*
X009020Y002536D01*
X009020Y002364D01*
X009085Y002206D01*
X009147Y002145D01*
X008753Y002145D01*
X008815Y002206D01*
X008880Y002364D01*
X008880Y002536D01*
X008815Y002694D01*
X008694Y002815D01*
X008536Y002880D01*
X008364Y002880D01*
X008206Y002815D01*
X008085Y002694D01*
X008020Y002536D01*
X008020Y002364D01*
X008085Y002206D01*
X008146Y002146D01*
X007754Y002146D01*
X007815Y002206D01*
X007880Y002364D01*
X007880Y002536D01*
X007815Y002694D01*
X007694Y002815D01*
X007536Y002880D01*
X007364Y002880D01*
X007206Y002815D01*
X007085Y002694D01*
X007020Y002536D01*
X007020Y002364D01*
X007085Y002206D01*
X007146Y002146D01*
X006755Y002147D01*
X006815Y002206D01*
X006880Y002364D01*
X006880Y002536D01*
X006815Y002694D01*
X006694Y002815D01*
X006536Y002880D01*
X006364Y002880D01*
X006206Y002815D01*
X006200Y002808D01*
X006200Y002900D01*
X006162Y002992D01*
X006092Y003062D01*
X006000Y003100D01*
X005900Y003100D01*
X005808Y003062D01*
X005738Y002992D01*
X005700Y002900D01*
X005700Y002808D01*
X005694Y002815D01*
X005536Y002880D01*
X005364Y002880D01*
X005206Y002815D01*
X005085Y002694D01*
X005020Y002536D01*
X005020Y002364D01*
X005085Y002206D01*
X005144Y002148D01*
X004756Y002148D01*
X004815Y002206D01*
X004880Y002364D01*
X004880Y002536D01*
X004815Y002694D01*
X004694Y002815D01*
X004536Y002880D01*
X004364Y002880D01*
X004206Y002815D01*
X004085Y002694D01*
X004020Y002536D01*
X004020Y002364D01*
X004085Y002206D01*
X004144Y002148D01*
X003757Y002149D01*
X003815Y002206D01*
X003880Y002364D01*
X003880Y002536D01*
X003815Y002694D01*
X003694Y002815D01*
X003536Y002880D01*
X003364Y002880D01*
X003206Y002815D01*
X003085Y002694D01*
X003020Y002536D01*
X003020Y002364D01*
X003085Y002206D01*
X003143Y002149D01*
X002757Y002149D01*
X002816Y002211D02*
X003084Y002211D01*
X003043Y002310D02*
X002857Y002310D01*
X002880Y002408D02*
X003020Y002408D01*
X003020Y002507D02*
X002880Y002507D01*
X002851Y002605D02*
X003049Y002605D01*
X003095Y002704D02*
X002805Y002704D01*
X002706Y002802D02*
X003194Y002802D01*
X003706Y002802D02*
X004194Y002802D01*
X004095Y002704D02*
X003805Y002704D01*
X003851Y002605D02*
X004049Y002605D01*
X004020Y002507D02*
X003880Y002507D01*
X003880Y002408D02*
X004020Y002408D01*
X004043Y002310D02*
X003857Y002310D01*
X003816Y002211D02*
X004084Y002211D01*
X004816Y002211D02*
X005084Y002211D01*
X005043Y002310D02*
X004857Y002310D01*
X004880Y002408D02*
X005020Y002408D01*
X005020Y002507D02*
X004880Y002507D01*
X004851Y002605D02*
X005049Y002605D01*
X005095Y002704D02*
X004805Y002704D01*
X004706Y002802D02*
X005194Y002802D01*
X005700Y002901D02*
X002120Y002901D01*
X002120Y002802D02*
X002194Y002802D01*
X002454Y002999D02*
X005745Y002999D01*
X005894Y003098D02*
X002519Y003098D01*
X002535Y003196D02*
X007159Y003196D01*
X007165Y003180D02*
X007240Y003105D01*
X007337Y003065D01*
X007443Y003065D01*
X007540Y003105D01*
X007615Y003180D01*
X007655Y003277D01*
X007655Y003383D01*
X007615Y003480D01*
X007540Y003555D01*
X007443Y003595D01*
X007337Y003595D01*
X007240Y003555D01*
X007165Y003480D01*
X007125Y003383D01*
X007125Y003277D01*
X007165Y003180D01*
X007125Y003295D02*
X002514Y003295D01*
X002442Y003393D02*
X007129Y003393D01*
X007177Y003492D02*
X002120Y003492D01*
X002120Y003590D02*
X007325Y003590D01*
X007455Y003590D02*
X007602Y003590D01*
X007595Y003607D02*
X007635Y003510D01*
X007710Y003435D01*
X007807Y003395D01*
X007913Y003395D01*
X008010Y003435D01*
X008085Y003510D01*
X008125Y003607D01*
X008125Y003713D01*
X008085Y003810D01*
X008010Y003885D01*
X007913Y003925D01*
X007807Y003925D01*
X007710Y003885D01*
X007635Y003810D01*
X007595Y003713D01*
X007595Y003607D01*
X007595Y003689D02*
X002120Y003689D01*
X002120Y003787D02*
X007626Y003787D01*
X007712Y003886D02*
X002120Y003886D01*
X002120Y003984D02*
X007292Y003984D01*
X007308Y003968D02*
X007400Y003930D01*
X007500Y003930D01*
X007592Y003968D01*
X007662Y004038D01*
X007674Y004067D01*
X007740Y004040D01*
X007840Y004040D01*
X007932Y004078D01*
X008002Y004148D01*
X008040Y004240D01*
X008040Y004340D01*
X008002Y004432D01*
X007932Y004502D01*
X007840Y004540D01*
X007740Y004540D01*
X007697Y004522D01*
X007700Y004530D01*
X007700Y004630D01*
X007662Y004722D01*
X007592Y004792D01*
X007500Y004830D01*
X007400Y004830D01*
X007308Y004792D01*
X007238Y004722D01*
X007200Y004630D01*
X007200Y004530D01*
X007238Y004438D01*
X007296Y004380D01*
X007238Y004322D01*
X007200Y004230D01*
X007200Y004130D01*
X007238Y004038D01*
X007308Y003968D01*
X007220Y004083D02*
X002120Y004083D01*
X002120Y004181D02*
X007200Y004181D01*
X007221Y004280D02*
X002120Y004280D01*
X002120Y004378D02*
X007294Y004378D01*
X007222Y004477D02*
X002120Y004477D01*
X002120Y004575D02*
X003270Y004575D01*
X003280Y004565D02*
X003377Y004525D01*
X003483Y004525D01*
X003580Y004565D01*
X003655Y004640D01*
X003695Y004737D01*
X003695Y004843D01*
X003655Y004940D01*
X003580Y005015D01*
X003483Y005055D01*
X003377Y005055D01*
X003280Y005015D01*
X003205Y004940D01*
X003165Y004843D01*
X003165Y004737D01*
X003205Y004640D01*
X003280Y004565D01*
X003191Y004674D02*
X002120Y004674D01*
X002120Y004772D02*
X003165Y004772D01*
X003177Y004871D02*
X002120Y004871D01*
X002120Y004969D02*
X003234Y004969D01*
X003626Y004969D02*
X011783Y004969D01*
X011770Y005000D02*
X011808Y004908D01*
X011878Y004838D01*
X011970Y004800D01*
X012070Y004800D01*
X012162Y004838D01*
X012232Y004908D01*
X012253Y004960D01*
X012300Y004940D01*
X012400Y004940D01*
X012492Y004978D01*
X012562Y005048D01*
X012600Y005140D01*
X012600Y005240D01*
X012562Y005332D01*
X012492Y005402D01*
X012400Y005440D01*
X012300Y005440D01*
X012208Y005402D01*
X012138Y005332D01*
X012117Y005280D01*
X012070Y005300D01*
X011970Y005300D01*
X011878Y005262D01*
X011808Y005192D01*
X011770Y005100D01*
X011770Y005000D01*
X011770Y005068D02*
X002120Y005068D01*
X002120Y005166D02*
X010416Y005166D01*
X010430Y005160D02*
X010530Y005160D01*
X010622Y005198D01*
X010692Y005268D01*
X010730Y005360D01*
X010730Y005460D01*
X010692Y005552D01*
X010622Y005622D01*
X010530Y005660D01*
X010430Y005660D01*
X010338Y005622D01*
X010268Y005552D01*
X010230Y005460D01*
X010230Y005360D01*
X010268Y005268D01*
X010338Y005198D01*
X010430Y005160D01*
X010544Y005166D02*
X011797Y005166D01*
X011885Y005265D02*
X010688Y005265D01*
X010730Y005363D02*
X012169Y005363D01*
X012112Y005548D02*
X012020Y005510D01*
X011920Y005510D01*
X011828Y005548D01*
X011758Y005618D01*
X011720Y005710D01*
X011720Y005810D01*
X011758Y005902D01*
X011828Y005972D01*
X011920Y006010D01*
X012020Y006010D01*
X012086Y005983D01*
X012098Y006012D01*
X012168Y006082D01*
X012260Y006120D01*
X012360Y006120D01*
X012452Y006082D01*
X012522Y006012D01*
X012560Y005920D01*
X012560Y005820D01*
X012522Y005728D01*
X012452Y005658D01*
X012360Y005620D01*
X012260Y005620D01*
X012194Y005647D01*
X012182Y005618D01*
X012112Y005548D01*
X012124Y005560D02*
X016050Y005560D01*
X016050Y005462D02*
X010729Y005462D01*
X010684Y005560D02*
X011816Y005560D01*
X011741Y005659D02*
X010533Y005659D01*
X010427Y005659D02*
X005293Y005659D01*
X005325Y005690D02*
X005250Y005615D01*
X005153Y005575D01*
X005047Y005575D01*
X004950Y005615D01*
X004875Y005690D01*
X004835Y005787D01*
X004835Y005893D01*
X004875Y005990D01*
X004921Y006036D01*
X004898Y006058D01*
X004860Y006150D01*
X004860Y006160D01*
X004800Y006160D01*
X004708Y006198D01*
X004638Y006268D01*
X004600Y006360D01*
X004600Y006460D01*
X004638Y006552D01*
X004708Y006622D01*
X004800Y006660D01*
X004870Y006660D01*
X004870Y006660D01*
X004870Y006760D01*
X004908Y006852D01*
X004978Y006922D01*
X005070Y006960D01*
X005160Y006960D01*
X005160Y006960D01*
X005160Y007060D01*
X005198Y007152D01*
X005268Y007222D01*
X005360Y007260D01*
X005460Y007260D01*
X005552Y007222D01*
X005622Y007152D01*
X005660Y007060D01*
X005660Y006960D01*
X005622Y006868D01*
X005552Y006798D01*
X005460Y006760D01*
X005370Y006760D01*
X005370Y006760D01*
X005370Y006660D01*
X005332Y006568D01*
X005262Y006498D01*
X005170Y006460D01*
X005100Y006460D01*
X005100Y006460D01*
X005100Y006450D01*
X005160Y006450D01*
X005252Y006412D01*
X005322Y006342D01*
X005360Y006250D01*
X005360Y006150D01*
X005322Y006058D01*
X005289Y006026D01*
X005325Y005990D01*
X005365Y005893D01*
X005365Y005787D01*
X005325Y005690D01*
X005352Y005757D02*
X011720Y005757D01*
X011739Y005856D02*
X011383Y005856D01*
X011370Y005850D02*
X011462Y005888D01*
X011532Y005958D01*
X011570Y006050D01*
X011570Y006150D01*
X011532Y006242D01*
X011462Y006312D01*
X011370Y006350D01*
X011270Y006350D01*
X011178Y006312D01*
X011165Y006299D01*
X011152Y006332D01*
X011144Y006340D01*
X011212Y006408D01*
X011250Y006500D01*
X011250Y006600D01*
X011212Y006692D01*
X011142Y006762D01*
X011050Y006800D01*
X010950Y006800D01*
X010858Y006762D01*
X010793Y006697D01*
X010762Y006772D01*
X010692Y006842D01*
X010600Y006880D01*
X010500Y006880D01*
X010408Y006842D01*
X010338Y006772D01*
X010300Y006680D01*
X010300Y006580D01*
X010338Y006488D01*
X010408Y006418D01*
X010500Y006380D01*
X010600Y006380D01*
X010692Y006418D01*
X010757Y006483D01*
X010788Y006408D01*
X010796Y006400D01*
X010728Y006332D01*
X010690Y006240D01*
X010690Y006140D01*
X010728Y006048D01*
X010798Y005978D01*
X010890Y005940D01*
X010990Y005940D01*
X011082Y005978D01*
X011095Y005991D01*
X011108Y005958D01*
X011178Y005888D01*
X011270Y005850D01*
X011370Y005850D01*
X011257Y005856D02*
X005365Y005856D01*
X005340Y005954D02*
X010856Y005954D01*
X010726Y006053D02*
X005316Y006053D01*
X005360Y006151D02*
X010690Y006151D01*
X010694Y006250D02*
X010243Y006250D01*
X010262Y006268D02*
X010300Y006360D01*
X010300Y006460D01*
X010262Y006552D01*
X010192Y006622D01*
X010100Y006660D01*
X010000Y006660D01*
X009908Y006622D01*
X009838Y006552D01*
X009800Y006460D01*
X009800Y006360D01*
X009838Y006268D01*
X009908Y006198D01*
X010000Y006160D01*
X010100Y006160D01*
X010192Y006198D01*
X010262Y006268D01*
X010295Y006348D02*
X010744Y006348D01*
X010720Y006447D02*
X010772Y006447D01*
X010380Y006447D02*
X010300Y006447D01*
X010315Y006545D02*
X010265Y006545D01*
X010300Y006644D02*
X010140Y006644D01*
X009960Y006644D02*
X005363Y006644D01*
X005370Y006742D02*
X010326Y006742D01*
X010407Y006841D02*
X005594Y006841D01*
X005651Y006939D02*
X016050Y006939D01*
X016050Y006841D02*
X010693Y006841D01*
X010774Y006742D02*
X010838Y006742D01*
X011162Y006742D02*
X016050Y006742D01*
X016050Y006644D02*
X011232Y006644D01*
X011250Y006545D02*
X016050Y006545D01*
X016050Y006447D02*
X011228Y006447D01*
X011265Y006348D02*
X011152Y006348D01*
X011375Y006348D02*
X016050Y006348D01*
X016050Y006250D02*
X011524Y006250D01*
X011569Y006151D02*
X016050Y006151D01*
X016050Y006053D02*
X012481Y006053D01*
X012546Y005954D02*
X016050Y005954D01*
X016050Y005856D02*
X012560Y005856D01*
X012534Y005757D02*
X016050Y005757D01*
X016050Y005659D02*
X012452Y005659D01*
X012531Y005363D02*
X016050Y005363D01*
X016050Y005265D02*
X013439Y005265D01*
X013422Y005282D02*
X013330Y005320D01*
X013230Y005320D01*
X013138Y005282D01*
X013068Y005212D01*
X013030Y005120D01*
X013030Y005020D01*
X013068Y004928D01*
X013138Y004858D01*
X013230Y004820D01*
X013330Y004820D01*
X013422Y004858D01*
X013492Y004928D01*
X013530Y005020D01*
X013530Y005120D01*
X013492Y005212D01*
X013422Y005282D01*
X013511Y005166D02*
X016050Y005166D01*
X016050Y005068D02*
X014989Y005068D01*
X015020Y005055D02*
X014923Y005095D01*
X014817Y005095D01*
X014720Y005055D01*
X014645Y004980D01*
X014605Y004883D01*
X014605Y004777D01*
X014645Y004680D01*
X014720Y004605D01*
X014817Y004565D01*
X014923Y004565D01*
X015020Y004605D01*
X015095Y004680D01*
X015135Y004777D01*
X015135Y004883D01*
X015095Y004980D01*
X015020Y005055D01*
X015099Y004969D02*
X016050Y004969D01*
X016050Y004871D02*
X015135Y004871D01*
X015133Y004772D02*
X016050Y004772D01*
X016050Y004674D02*
X015088Y004674D01*
X014947Y004575D02*
X016050Y004575D01*
X015952Y004477D02*
X015848Y004477D01*
X015432Y004477D02*
X013158Y004477D01*
X013175Y004460D02*
X013100Y004535D01*
X013003Y004575D01*
X012897Y004575D01*
X012800Y004535D01*
X012725Y004460D01*
X012685Y004363D01*
X012685Y004257D01*
X012725Y004160D01*
X012800Y004085D01*
X012857Y004062D01*
X012808Y004042D01*
X012755Y003989D01*
X012755Y003990D01*
X012680Y004065D01*
X012583Y004105D01*
X012510Y004105D01*
X012510Y004160D01*
X012472Y004252D01*
X012402Y004322D01*
X012310Y004360D01*
X012210Y004360D01*
X012118Y004322D01*
X012115Y004319D01*
X012052Y004382D01*
X011960Y004420D01*
X011860Y004420D01*
X011768Y004382D01*
X011698Y004312D01*
X011660Y004220D01*
X011660Y004120D01*
X011698Y004028D01*
X011731Y003995D01*
X011688Y003952D01*
X011650Y003860D01*
X011650Y003760D01*
X011688Y003668D01*
X011716Y003640D01*
X011557Y003640D01*
X010960Y004237D01*
X010837Y004360D01*
X010168Y004360D01*
X010212Y004378D01*
X010282Y004448D01*
X010320Y004540D01*
X010320Y004640D01*
X010282Y004732D01*
X010212Y004802D01*
X010120Y004840D01*
X010020Y004840D01*
X009928Y004802D01*
X009858Y004732D01*
X009820Y004640D01*
X009820Y004540D01*
X009858Y004448D01*
X009928Y004378D01*
X009972Y004360D01*
X009688Y004360D01*
X008888Y003560D01*
X008765Y003437D01*
X008765Y003099D01*
X008738Y003072D01*
X008700Y002980D01*
X008700Y002880D01*
X008738Y002788D01*
X008808Y002718D01*
X008900Y002680D01*
X009000Y002680D01*
X009092Y002718D01*
X009162Y002788D01*
X009200Y002880D01*
X009200Y002980D01*
X009185Y003016D01*
X009185Y003263D01*
X009862Y003940D01*
X010307Y003940D01*
X010270Y003925D01*
X010195Y003850D01*
X010155Y003753D01*
X010155Y003647D01*
X010195Y003550D01*
X010270Y003475D01*
X010367Y003435D01*
X010473Y003435D01*
X010570Y003475D01*
X010645Y003550D01*
X010685Y003647D01*
X010685Y003753D01*
X010645Y003850D01*
X010570Y003925D01*
X010533Y003940D01*
X010663Y003940D01*
X011383Y003220D01*
X011786Y003220D01*
X011788Y003218D01*
X011880Y003180D01*
X011980Y003180D01*
X012072Y003218D01*
X012142Y003288D01*
X012180Y003380D01*
X012180Y003480D01*
X012142Y003572D01*
X012079Y003635D01*
X012112Y003668D01*
X012150Y003760D01*
X012150Y003860D01*
X012137Y003890D01*
X012210Y003860D01*
X012265Y003860D01*
X012265Y003787D01*
X012150Y003787D01*
X012139Y003886D02*
X012149Y003886D01*
X012265Y003787D02*
X012305Y003690D01*
X012380Y003615D01*
X012477Y003575D01*
X012583Y003575D01*
X012680Y003615D01*
X012746Y003681D01*
X012808Y003618D01*
X012900Y003580D01*
X013000Y003580D01*
X013092Y003618D01*
X013162Y003688D01*
X013200Y003780D01*
X013200Y003880D01*
X013162Y003972D01*
X013092Y004042D01*
X013043Y004062D01*
X013100Y004085D01*
X013175Y004160D01*
X013215Y004257D01*
X013215Y004363D01*
X013175Y004460D01*
X013209Y004378D02*
X015381Y004378D01*
X015375Y004280D02*
X013215Y004280D01*
X013183Y004181D02*
X015407Y004181D01*
X015497Y004083D02*
X013093Y004083D01*
X013150Y003984D02*
X015289Y003984D01*
X015217Y003886D02*
X013198Y003886D01*
X013200Y003787D02*
X015195Y003787D01*
X015211Y003689D02*
X013162Y003689D01*
X013024Y003590D02*
X014185Y003590D01*
X014121Y003492D02*
X012175Y003492D01*
X012180Y003393D02*
X014105Y003393D01*
X014127Y003295D02*
X013139Y003295D01*
X013112Y003322D02*
X013020Y003360D01*
X012920Y003360D01*
X012828Y003322D01*
X012758Y003252D01*
X012720Y003160D01*
X012720Y003060D01*
X012758Y002968D01*
X012828Y002898D01*
X012920Y002860D01*
X013020Y002860D01*
X013112Y002898D01*
X013182Y002968D01*
X013220Y003060D01*
X013220Y003160D01*
X013182Y003252D01*
X013112Y003322D01*
X013205Y003196D02*
X014199Y003196D01*
X014490Y003098D02*
X013220Y003098D01*
X013195Y002999D02*
X014590Y002999D01*
X014675Y002901D02*
X013114Y002901D01*
X013194Y002802D02*
X012731Y002802D01*
X012743Y002793D02*
X012686Y002835D01*
X012623Y002867D01*
X012555Y002889D01*
X012500Y002898D01*
X012500Y002500D01*
X012898Y002500D01*
X012889Y002555D01*
X012867Y002623D01*
X012835Y002686D01*
X012793Y002743D01*
X012743Y002793D01*
X012822Y002704D02*
X013095Y002704D01*
X013049Y002605D02*
X012873Y002605D01*
X012897Y002507D02*
X013020Y002507D01*
X013020Y002408D02*
X012500Y002408D01*
X012500Y002507D02*
X012400Y002507D01*
X012400Y002605D02*
X012500Y002605D01*
X012500Y002704D02*
X012400Y002704D01*
X012400Y002802D02*
X012500Y002802D01*
X012745Y002999D02*
X011450Y002999D01*
X011434Y002901D02*
X012826Y002901D01*
X012720Y003098D02*
X011426Y003098D01*
X011348Y003196D02*
X011842Y003196D01*
X012018Y003196D02*
X012735Y003196D01*
X012801Y003295D02*
X012144Y003295D01*
X012124Y003590D02*
X012441Y003590D01*
X012307Y003689D02*
X012120Y003689D01*
X011680Y003689D02*
X011508Y003689D01*
X011410Y003787D02*
X011650Y003787D01*
X011661Y003886D02*
X011311Y003886D01*
X011213Y003984D02*
X011720Y003984D01*
X011676Y004083D02*
X011114Y004083D01*
X011016Y004181D02*
X011660Y004181D01*
X011685Y004280D02*
X010917Y004280D01*
X010718Y003886D02*
X010609Y003886D01*
X010671Y003787D02*
X010816Y003787D01*
X010915Y003689D02*
X010685Y003689D01*
X010661Y003590D02*
X011013Y003590D01*
X011112Y003492D02*
X010586Y003492D01*
X010254Y003492D02*
X009932Y003492D01*
X009862Y003562D01*
X009770Y003600D01*
X009670Y003600D01*
X009578Y003562D01*
X009508Y003492D01*
X009470Y003400D01*
X009470Y003300D01*
X009508Y003208D01*
X009578Y003138D01*
X009670Y003100D01*
X009770Y003100D01*
X009862Y003138D01*
X009932Y003208D01*
X009970Y003300D01*
X009970Y003400D01*
X009932Y003492D01*
X009970Y003393D02*
X011210Y003393D01*
X011309Y003295D02*
X009968Y003295D01*
X009920Y003196D02*
X010026Y003196D01*
X009896Y003098D02*
X009185Y003098D01*
X009185Y003196D02*
X009520Y003196D01*
X009472Y003295D02*
X009216Y003295D01*
X009315Y003393D02*
X009470Y003393D01*
X009508Y003492D02*
X009413Y003492D01*
X009512Y003590D02*
X009646Y003590D01*
X009610Y003689D02*
X010155Y003689D01*
X010169Y003787D02*
X009709Y003787D01*
X009807Y003886D02*
X010231Y003886D01*
X010179Y003590D02*
X009794Y003590D01*
X010194Y003196D02*
X011052Y003196D01*
X010974Y003098D02*
X010324Y003098D01*
X010360Y002999D02*
X010950Y002999D01*
X010966Y002901D02*
X010356Y002901D01*
X010095Y002704D02*
X009805Y002704D01*
X009851Y002605D02*
X010049Y002605D01*
X010020Y002507D02*
X009880Y002507D01*
X009880Y002408D02*
X010020Y002408D01*
X010043Y002310D02*
X009857Y002310D01*
X009816Y002211D02*
X010084Y002211D01*
X009914Y002802D02*
X009706Y002802D01*
X009864Y002901D02*
X009200Y002901D01*
X009192Y002999D02*
X009860Y002999D01*
X009194Y002802D02*
X009168Y002802D01*
X009095Y002704D02*
X009056Y002704D01*
X009049Y002605D02*
X008851Y002605D01*
X008844Y002704D02*
X008805Y002704D01*
X008732Y002802D02*
X008706Y002802D01*
X008700Y002901D02*
X006200Y002901D01*
X006155Y002999D02*
X008708Y002999D01*
X008764Y003098D02*
X007521Y003098D01*
X007621Y003196D02*
X008765Y003196D01*
X008765Y003295D02*
X007655Y003295D01*
X007651Y003393D02*
X008498Y003393D01*
X008517Y003385D02*
X008623Y003385D01*
X008720Y003425D01*
X008795Y003500D01*
X008835Y003597D01*
X008835Y003703D01*
X008795Y003800D01*
X008720Y003875D01*
X008623Y003915D01*
X008517Y003915D01*
X008420Y003875D01*
X008345Y003800D01*
X008305Y003703D01*
X008305Y003597D01*
X008345Y003500D01*
X008420Y003425D01*
X008517Y003385D01*
X008642Y003393D02*
X008765Y003393D01*
X008786Y003492D02*
X008820Y003492D01*
X008832Y003590D02*
X008918Y003590D01*
X008835Y003689D02*
X009017Y003689D01*
X009115Y003787D02*
X008800Y003787D01*
X008694Y003886D02*
X009214Y003886D01*
X009312Y003984D02*
X008739Y003984D01*
X008693Y003965D02*
X008790Y004005D01*
X008865Y004080D01*
X008905Y004177D01*
X008905Y004283D01*
X008865Y004380D01*
X008790Y004455D01*
X008693Y004495D01*
X008587Y004495D01*
X008490Y004455D01*
X008415Y004380D01*
X008375Y004283D01*
X008375Y004177D01*
X008415Y004080D01*
X008490Y004005D01*
X008587Y003965D01*
X008693Y003965D01*
X008541Y003984D02*
X007608Y003984D01*
X007936Y004083D02*
X008414Y004083D01*
X008375Y004181D02*
X008015Y004181D01*
X008040Y004280D02*
X008375Y004280D01*
X008414Y004378D02*
X008024Y004378D01*
X008100Y004425D02*
X008197Y004385D01*
X008303Y004385D01*
X008400Y004425D01*
X008475Y004500D01*
X008515Y004597D01*
X008515Y004703D01*
X008475Y004800D01*
X008400Y004875D01*
X008303Y004915D01*
X008197Y004915D01*
X008100Y004875D01*
X008025Y004800D01*
X007985Y004703D01*
X007985Y004597D01*
X008025Y004500D01*
X008100Y004425D01*
X008049Y004477D02*
X007957Y004477D01*
X007994Y004575D02*
X007700Y004575D01*
X007682Y004674D02*
X007985Y004674D01*
X008014Y004772D02*
X007612Y004772D01*
X007288Y004772D02*
X003695Y004772D01*
X003683Y004871D02*
X008096Y004871D01*
X008404Y004871D02*
X011846Y004871D01*
X012194Y004871D02*
X013126Y004871D01*
X013051Y004969D02*
X012470Y004969D01*
X012570Y005068D02*
X013030Y005068D01*
X013049Y005166D02*
X012600Y005166D01*
X012590Y005265D02*
X013121Y005265D01*
X013530Y005068D02*
X014751Y005068D01*
X014641Y004969D02*
X013509Y004969D01*
X013434Y004871D02*
X014605Y004871D01*
X014607Y004772D02*
X010242Y004772D01*
X010306Y004674D02*
X014652Y004674D01*
X014793Y004575D02*
X010320Y004575D01*
X010294Y004477D02*
X012742Y004477D01*
X012691Y004378D02*
X012056Y004378D01*
X011764Y004378D02*
X010211Y004378D01*
X009929Y004378D02*
X008866Y004378D01*
X008905Y004280D02*
X009608Y004280D01*
X009509Y004181D02*
X008905Y004181D01*
X008866Y004083D02*
X009411Y004083D01*
X009846Y004477D02*
X008737Y004477D01*
X008543Y004477D02*
X008451Y004477D01*
X008506Y004575D02*
X009820Y004575D01*
X009834Y004674D02*
X008515Y004674D01*
X008486Y004772D02*
X009898Y004772D01*
X010272Y005265D02*
X002120Y005265D01*
X002120Y005363D02*
X010230Y005363D01*
X010231Y005462D02*
X002120Y005462D01*
X002120Y005560D02*
X010276Y005560D01*
X011024Y005954D02*
X011112Y005954D01*
X011528Y005954D02*
X011810Y005954D01*
X011570Y006053D02*
X012139Y006053D01*
X010682Y007048D02*
X010720Y007140D01*
X010720Y007240D01*
X010682Y007332D01*
X010644Y007370D01*
X010672Y007398D01*
X010710Y007490D01*
X010710Y007590D01*
X010672Y007682D01*
X010602Y007752D01*
X010510Y007790D01*
X010410Y007790D01*
X010318Y007752D01*
X010248Y007682D01*
X010232Y007643D01*
X010212Y007692D01*
X010142Y007762D01*
X010050Y007800D01*
X009950Y007800D01*
X009858Y007762D01*
X009788Y007692D01*
X009783Y007680D01*
X009772Y007692D01*
X009680Y007730D01*
X009580Y007730D01*
X009488Y007692D01*
X009418Y007622D01*
X009380Y007530D01*
X005189Y007530D01*
X005172Y007488D02*
X005210Y007580D01*
X005210Y007680D01*
X005172Y007772D01*
X005102Y007842D01*
X005010Y007880D01*
X004910Y007880D01*
X004818Y007842D01*
X004748Y007772D01*
X004710Y007680D01*
X004710Y007580D01*
X004748Y007488D01*
X004818Y007418D01*
X004910Y007380D01*
X005010Y007380D01*
X005102Y007418D01*
X005172Y007488D01*
X005115Y007432D02*
X009380Y007432D01*
X009380Y007430D02*
X009418Y007338D01*
X009488Y007268D01*
X009580Y007230D01*
X009680Y007230D01*
X009772Y007268D01*
X009842Y007338D01*
X009847Y007350D01*
X009858Y007338D01*
X009950Y007300D01*
X010050Y007300D01*
X010142Y007338D01*
X010212Y007408D01*
X010228Y007447D01*
X010248Y007398D01*
X010286Y007360D01*
X010258Y007332D01*
X010220Y007240D01*
X010220Y007140D01*
X010258Y007048D01*
X010328Y006978D01*
X010420Y006940D01*
X010520Y006940D01*
X010612Y006978D01*
X010682Y007048D01*
X010671Y007038D02*
X016050Y007038D01*
X016050Y007136D02*
X010718Y007136D01*
X010720Y007235D02*
X016050Y007235D01*
X016050Y007333D02*
X010681Y007333D01*
X010686Y007432D02*
X012115Y007432D01*
X012128Y007418D02*
X012220Y007380D01*
X012320Y007380D01*
X012412Y007418D01*
X012482Y007488D01*
X012520Y007580D01*
X012520Y007680D01*
X012482Y007772D01*
X012412Y007842D01*
X012320Y007880D01*
X012220Y007880D01*
X012128Y007842D01*
X012058Y007772D01*
X012020Y007680D01*
X012020Y007580D01*
X012058Y007488D01*
X012128Y007418D01*
X012041Y007530D02*
X010710Y007530D01*
X010694Y007629D02*
X012020Y007629D01*
X012040Y007727D02*
X010627Y007727D01*
X010293Y007727D02*
X010177Y007727D01*
X010222Y007432D02*
X010234Y007432D01*
X010259Y007333D02*
X010129Y007333D01*
X010220Y007235D02*
X009691Y007235D01*
X009569Y007235D02*
X005521Y007235D01*
X005628Y007136D02*
X010222Y007136D01*
X010269Y007038D02*
X005660Y007038D01*
X005299Y007235D02*
X002120Y007235D01*
X002120Y007333D02*
X009423Y007333D01*
X009380Y007430D02*
X009380Y007530D01*
X009425Y007629D02*
X005210Y007629D01*
X005190Y007727D02*
X009573Y007727D01*
X009687Y007727D02*
X009823Y007727D01*
X009837Y007333D02*
X009871Y007333D01*
X009835Y006545D02*
X005309Y006545D01*
X005168Y006447D02*
X009800Y006447D01*
X009805Y006348D02*
X005316Y006348D01*
X005360Y006250D02*
X009857Y006250D01*
X012112Y007826D02*
X005118Y007826D01*
X004802Y007826D02*
X002120Y007826D01*
X002120Y007924D02*
X013440Y007924D01*
X013455Y007960D02*
X013415Y007863D01*
X013415Y007757D01*
X013455Y007660D01*
X013530Y007585D01*
X013627Y007545D01*
X013733Y007545D01*
X013830Y007585D01*
X013905Y007660D01*
X013945Y007757D01*
X013945Y007863D01*
X013905Y007960D01*
X013830Y008035D01*
X013733Y008075D01*
X013627Y008075D01*
X013530Y008035D01*
X013455Y007960D01*
X013518Y008023D02*
X006593Y008023D01*
X006600Y008025D02*
X006675Y008100D01*
X006715Y008197D01*
X006715Y008303D01*
X006675Y008400D01*
X006600Y008475D01*
X006503Y008515D01*
X006397Y008515D01*
X006300Y008475D01*
X006250Y008425D01*
X006200Y008475D01*
X006103Y008515D01*
X005997Y008515D01*
X005900Y008475D01*
X005850Y008425D01*
X005800Y008475D01*
X005703Y008515D01*
X005597Y008515D01*
X005500Y008475D01*
X005425Y008400D01*
X005385Y008303D01*
X005385Y008197D01*
X005425Y008100D01*
X005500Y008025D01*
X005597Y007985D01*
X005703Y007985D01*
X005800Y008025D01*
X005850Y008075D01*
X005900Y008025D01*
X005997Y007985D01*
X006103Y007985D01*
X006200Y008025D01*
X006250Y008075D01*
X006300Y008025D01*
X006397Y007985D01*
X006503Y007985D01*
X006600Y008025D01*
X006683Y008121D02*
X016050Y008121D01*
X016050Y008023D02*
X013842Y008023D01*
X013920Y007924D02*
X014783Y007924D01*
X014760Y007915D02*
X014857Y007955D01*
X014963Y007955D01*
X015060Y007915D01*
X015135Y007840D01*
X015175Y007743D01*
X015175Y007637D01*
X015135Y007540D01*
X015060Y007465D01*
X014963Y007425D01*
X014857Y007425D01*
X014760Y007465D01*
X014685Y007540D01*
X014645Y007637D01*
X014645Y007743D01*
X014685Y007840D01*
X014760Y007915D01*
X014679Y007826D02*
X013945Y007826D01*
X013932Y007727D02*
X014645Y007727D01*
X014649Y007629D02*
X013873Y007629D01*
X013487Y007629D02*
X012520Y007629D01*
X012500Y007727D02*
X013428Y007727D01*
X013415Y007826D02*
X012428Y007826D01*
X012499Y007530D02*
X014695Y007530D01*
X014842Y007432D02*
X012425Y007432D01*
X014100Y009165D02*
X014197Y009125D01*
X014303Y009125D01*
X014400Y009165D01*
X014475Y009240D01*
X014515Y009337D01*
X014515Y009443D01*
X014475Y009540D01*
X014400Y009615D01*
X014303Y009655D01*
X014197Y009655D01*
X014100Y009615D01*
X014025Y009540D01*
X013985Y009443D01*
X013985Y009337D01*
X014025Y009240D01*
X014100Y009165D01*
X014061Y009205D02*
X007805Y009205D01*
X007805Y009233D02*
X007765Y009330D01*
X007690Y009405D01*
X007593Y009445D01*
X007555Y009445D01*
X007555Y009523D01*
X007515Y009620D01*
X007440Y009695D01*
X007343Y009735D01*
X007237Y009735D01*
X007140Y009695D01*
X007065Y009620D01*
X007025Y009523D01*
X007025Y009417D01*
X007065Y009320D01*
X007140Y009245D01*
X007237Y009205D01*
X007275Y009205D01*
X007275Y009127D01*
X007315Y009030D01*
X007390Y008955D01*
X007458Y008927D01*
X007435Y008873D01*
X007435Y008767D01*
X007475Y008670D01*
X007550Y008595D01*
X007647Y008555D01*
X007753Y008555D01*
X007850Y008595D01*
X007925Y008670D01*
X007965Y008767D01*
X007965Y008873D01*
X007925Y008970D01*
X007850Y009045D01*
X007782Y009073D01*
X007805Y009127D01*
X007805Y009233D01*
X007776Y009303D02*
X013999Y009303D01*
X013985Y009402D02*
X007693Y009402D01*
X007555Y009500D02*
X008216Y009500D01*
X008198Y009518D02*
X008268Y009448D01*
X008360Y009410D01*
X008460Y009410D01*
X008552Y009448D01*
X008622Y009518D01*
X008660Y009610D01*
X008660Y009710D01*
X008622Y009802D01*
X008552Y009872D01*
X008460Y009910D01*
X008360Y009910D01*
X008268Y009872D01*
X008198Y009802D01*
X008160Y009710D01*
X008160Y009610D01*
X008198Y009518D01*
X008165Y009599D02*
X007524Y009599D01*
X007434Y009697D02*
X007868Y009697D01*
X007897Y009685D02*
X008003Y009685D01*
X008100Y009725D01*
X008175Y009800D01*
X008215Y009897D01*
X008215Y010003D01*
X008175Y010100D01*
X008100Y010175D01*
X008003Y010215D01*
X007897Y010215D01*
X007800Y010175D01*
X007725Y010100D01*
X007685Y010003D01*
X007685Y009897D01*
X007725Y009800D01*
X007800Y009725D01*
X007897Y009685D01*
X008032Y009697D02*
X008160Y009697D01*
X008170Y009796D02*
X008196Y009796D01*
X008214Y009894D02*
X008322Y009894D01*
X008215Y009993D02*
X010714Y009993D01*
X010700Y009960D02*
X010700Y009860D01*
X010738Y009768D01*
X010808Y009698D01*
X010900Y009660D01*
X011000Y009660D01*
X011092Y009698D01*
X011162Y009768D01*
X011200Y009860D01*
X011200Y009960D01*
X011162Y010052D01*
X011092Y010122D01*
X011000Y010160D01*
X010900Y010160D01*
X010808Y010122D01*
X010738Y010052D01*
X010700Y009960D01*
X010700Y009894D02*
X010182Y009894D01*
X010212Y009882D02*
X010120Y009920D01*
X010020Y009920D01*
X009928Y009882D01*
X009858Y009812D01*
X009820Y009720D01*
X009820Y009620D01*
X009858Y009528D01*
X009928Y009458D01*
X010020Y009420D01*
X010120Y009420D01*
X010212Y009458D01*
X010282Y009528D01*
X010320Y009620D01*
X010320Y009720D01*
X010282Y009812D01*
X010212Y009882D01*
X010289Y009796D02*
X010727Y009796D01*
X010811Y009697D02*
X010320Y009697D01*
X010311Y009599D02*
X014084Y009599D01*
X014040Y009660D02*
X014132Y009698D01*
X014202Y009768D01*
X014240Y009860D01*
X014240Y009960D01*
X014202Y010052D01*
X014132Y010122D01*
X014040Y010160D01*
X013940Y010160D01*
X013848Y010122D01*
X013778Y010052D01*
X013740Y009960D01*
X013740Y009860D01*
X013778Y009768D01*
X013848Y009698D01*
X013940Y009660D01*
X014040Y009660D01*
X014129Y009697D02*
X016050Y009697D01*
X016050Y009599D02*
X014416Y009599D01*
X014491Y009500D02*
X016050Y009500D01*
X016050Y009402D02*
X014515Y009402D01*
X014501Y009303D02*
X016050Y009303D01*
X016050Y009205D02*
X014439Y009205D01*
X014009Y009500D02*
X010254Y009500D01*
X009886Y009500D02*
X008604Y009500D01*
X008655Y009599D02*
X009829Y009599D01*
X009820Y009697D02*
X008660Y009697D01*
X008624Y009796D02*
X009851Y009796D01*
X009958Y009894D02*
X008498Y009894D01*
X008699Y010091D02*
X009201Y010091D01*
X009102Y010190D02*
X008798Y010190D01*
X008848Y010288D02*
X009052Y010288D01*
X009020Y010387D02*
X008880Y010387D01*
X008880Y010485D02*
X009020Y010485D01*
X009040Y010584D02*
X008860Y010584D01*
X008819Y010682D02*
X009081Y010682D01*
X009819Y010682D02*
X010081Y010682D01*
X010040Y010584D02*
X009860Y010584D01*
X009880Y010485D02*
X010020Y010485D01*
X010020Y010387D02*
X009880Y010387D01*
X009848Y010288D02*
X010052Y010288D01*
X010102Y010190D02*
X009798Y010190D01*
X009699Y010091D02*
X010201Y010091D01*
X010699Y010091D02*
X010777Y010091D01*
X010798Y010190D02*
X011102Y010190D01*
X011123Y010091D02*
X011201Y010091D01*
X011186Y009993D02*
X013754Y009993D01*
X013740Y009894D02*
X011200Y009894D01*
X011173Y009796D02*
X013767Y009796D01*
X013851Y009697D02*
X011089Y009697D01*
X011699Y010091D02*
X012201Y010091D01*
X012102Y010190D02*
X011798Y010190D01*
X011848Y010288D02*
X012052Y010288D01*
X012020Y010387D02*
X011880Y010387D01*
X011880Y010485D02*
X012020Y010485D01*
X012040Y010584D02*
X011860Y010584D01*
X011819Y010682D02*
X012081Y010682D01*
X012819Y010682D02*
X013081Y010682D01*
X013040Y010584D02*
X012860Y010584D01*
X012880Y010485D02*
X013020Y010485D01*
X013020Y010387D02*
X012880Y010387D01*
X012848Y010288D02*
X013052Y010288D01*
X013102Y010190D02*
X012798Y010190D01*
X012699Y010091D02*
X013201Y010091D01*
X013699Y010091D02*
X013817Y010091D01*
X013798Y010190D02*
X014102Y010190D01*
X014052Y010288D02*
X013848Y010288D01*
X013880Y010387D02*
X014020Y010387D01*
X014020Y010485D02*
X013880Y010485D01*
X013860Y010584D02*
X014040Y010584D01*
X014081Y010682D02*
X013819Y010682D01*
X014163Y010091D02*
X014201Y010091D01*
X014226Y009993D02*
X016050Y009993D01*
X016050Y010091D02*
X015699Y010091D01*
X015798Y010190D02*
X016050Y010190D01*
X016050Y010288D02*
X015848Y010288D01*
X015880Y010387D02*
X016050Y010387D01*
X016050Y010485D02*
X015880Y010485D01*
X015860Y010584D02*
X016050Y010584D01*
X016050Y010682D02*
X015819Y010682D01*
X015081Y010682D02*
X014819Y010682D01*
X014860Y010584D02*
X015040Y010584D01*
X015020Y010485D02*
X014880Y010485D01*
X014880Y010387D02*
X015020Y010387D01*
X015052Y010288D02*
X014848Y010288D01*
X014798Y010190D02*
X015102Y010190D01*
X015201Y010091D02*
X014699Y010091D01*
X014240Y009894D02*
X016050Y009894D01*
X016050Y009796D02*
X014213Y009796D01*
X016050Y009106D02*
X007796Y009106D01*
X007887Y009008D02*
X016050Y009008D01*
X016050Y008909D02*
X007950Y008909D01*
X007965Y008811D02*
X016050Y008811D01*
X016050Y008712D02*
X008962Y008712D01*
X008992Y008682D02*
X008922Y008752D01*
X008830Y008790D01*
X008730Y008790D01*
X008638Y008752D01*
X008568Y008682D01*
X008530Y008590D01*
X008530Y008490D01*
X008568Y008398D01*
X008638Y008328D01*
X008730Y008290D01*
X008830Y008290D01*
X008922Y008328D01*
X008992Y008398D01*
X009030Y008490D01*
X009030Y008590D01*
X008992Y008682D01*
X009020Y008614D02*
X016050Y008614D01*
X016050Y008515D02*
X009030Y008515D01*
X008999Y008417D02*
X016050Y008417D01*
X016050Y008318D02*
X008897Y008318D01*
X008663Y008318D02*
X006709Y008318D01*
X006715Y008220D02*
X016050Y008220D01*
X016050Y007924D02*
X015038Y007924D01*
X015141Y007826D02*
X016050Y007826D01*
X016050Y007727D02*
X015175Y007727D01*
X015171Y007629D02*
X016050Y007629D01*
X016050Y007530D02*
X015125Y007530D01*
X014978Y007432D02*
X016050Y007432D01*
X012685Y004280D02*
X012444Y004280D01*
X012501Y004181D02*
X012717Y004181D01*
X012637Y004083D02*
X012807Y004083D01*
X012876Y003590D02*
X012619Y003590D01*
X011686Y002835D02*
X011623Y002867D01*
X011555Y002889D01*
X011500Y002898D01*
X011500Y002500D01*
X011898Y002500D01*
X011889Y002555D01*
X011867Y002623D01*
X011835Y002686D01*
X011793Y002743D01*
X011743Y002793D01*
X011686Y002835D01*
X011731Y002802D02*
X012169Y002802D01*
X012078Y002704D02*
X011822Y002704D01*
X011873Y002605D02*
X012027Y002605D01*
X012003Y002507D02*
X011897Y002507D01*
X011878Y002310D02*
X012022Y002310D01*
X012067Y002211D02*
X011833Y002211D01*
X011500Y002408D02*
X012400Y002408D01*
X012833Y002211D02*
X013084Y002211D01*
X013043Y002310D02*
X012878Y002310D01*
X013706Y002802D02*
X014194Y002802D01*
X014095Y002704D02*
X013805Y002704D01*
X013851Y002605D02*
X014049Y002605D01*
X014020Y002507D02*
X013880Y002507D01*
X013880Y002408D02*
X014020Y002408D01*
X014043Y002310D02*
X013857Y002310D01*
X013816Y002211D02*
X014084Y002211D01*
X015205Y002901D02*
X015850Y002901D01*
X015850Y002999D02*
X015173Y002999D01*
X015083Y003098D02*
X015850Y003098D01*
X015579Y003196D02*
X014960Y003196D01*
X014950Y003295D02*
X015495Y003295D01*
X015465Y003393D02*
X014891Y003393D01*
X014619Y003492D02*
X015473Y003492D01*
X015275Y003590D02*
X014555Y003590D01*
X015631Y003984D02*
X015850Y003984D01*
X015850Y003886D02*
X015703Y003886D01*
X015725Y003787D02*
X015850Y003787D01*
X015850Y003689D02*
X015709Y003689D01*
X015783Y004083D02*
X015850Y004083D01*
X015850Y002802D02*
X015706Y002802D01*
X015805Y002704D02*
X015850Y002704D01*
X011500Y002704D02*
X011400Y002704D01*
X011400Y002802D02*
X011500Y002802D01*
X011500Y002605D02*
X011400Y002605D01*
X011400Y002507D02*
X011500Y002507D01*
X011400Y002408D02*
X010880Y002408D01*
X010880Y002507D02*
X011003Y002507D01*
X011027Y002605D02*
X010851Y002605D01*
X010805Y002704D02*
X011078Y002704D01*
X011034Y002802D02*
X010706Y002802D01*
X010857Y002310D02*
X011022Y002310D01*
X011067Y002211D02*
X010816Y002211D01*
X009084Y002211D02*
X008816Y002211D01*
X008857Y002310D02*
X009043Y002310D01*
X009020Y002408D02*
X008880Y002408D01*
X008880Y002507D02*
X009020Y002507D01*
X008194Y002802D02*
X007706Y002802D01*
X007805Y002704D02*
X008095Y002704D01*
X008049Y002605D02*
X007851Y002605D01*
X007880Y002507D02*
X008020Y002507D01*
X008020Y002408D02*
X007880Y002408D01*
X007857Y002310D02*
X008043Y002310D01*
X008084Y002211D02*
X007816Y002211D01*
X007084Y002211D02*
X006816Y002211D01*
X006857Y002310D02*
X007043Y002310D01*
X007020Y002408D02*
X006880Y002408D01*
X006880Y002507D02*
X007020Y002507D01*
X007049Y002605D02*
X006851Y002605D01*
X006805Y002704D02*
X007095Y002704D01*
X007194Y002802D02*
X006706Y002802D01*
X007259Y003098D02*
X006006Y003098D01*
X007603Y003492D02*
X007654Y003492D01*
X008066Y003492D02*
X008354Y003492D01*
X008308Y003590D02*
X008118Y003590D01*
X008125Y003689D02*
X008305Y003689D01*
X008340Y003787D02*
X008094Y003787D01*
X008008Y003886D02*
X008446Y003886D01*
X007200Y004575D02*
X003590Y004575D01*
X003669Y004674D02*
X007218Y004674D01*
X004907Y005659D02*
X002120Y005659D01*
X002120Y005757D02*
X004848Y005757D01*
X004835Y005856D02*
X002120Y005856D01*
X002120Y005954D02*
X004860Y005954D01*
X004904Y006053D02*
X002120Y006053D01*
X002120Y006151D02*
X004860Y006151D01*
X004657Y006250D02*
X002120Y006250D01*
X002120Y006348D02*
X004605Y006348D01*
X004600Y006447D02*
X002120Y006447D01*
X002120Y006545D02*
X004635Y006545D01*
X004760Y006644D02*
X002120Y006644D01*
X002120Y006742D02*
X004870Y006742D01*
X004903Y006841D02*
X002120Y006841D01*
X002120Y006939D02*
X005020Y006939D01*
X005160Y007038D02*
X002120Y007038D01*
X002120Y007136D02*
X005192Y007136D01*
X004805Y007432D02*
X002120Y007432D01*
X002120Y007530D02*
X004731Y007530D01*
X004710Y007629D02*
X002120Y007629D01*
X002120Y007727D02*
X004730Y007727D01*
X005417Y008121D02*
X003567Y008121D01*
X003562Y008108D02*
X003600Y008200D01*
X003600Y008300D01*
X003562Y008392D01*
X003492Y008462D01*
X003400Y008500D01*
X003300Y008500D01*
X003208Y008462D01*
X003138Y008392D01*
X003100Y008300D01*
X003100Y008200D01*
X003138Y008108D01*
X003208Y008038D01*
X003300Y008000D01*
X003400Y008000D01*
X003492Y008038D01*
X003562Y008108D01*
X003600Y008220D02*
X005385Y008220D01*
X005391Y008318D02*
X003592Y008318D01*
X003537Y008417D02*
X005442Y008417D01*
X005507Y008023D02*
X003454Y008023D01*
X003246Y008023D02*
X002120Y008023D01*
X002120Y008121D02*
X003133Y008121D01*
X003100Y008220D02*
X002120Y008220D01*
X002120Y008318D02*
X003108Y008318D01*
X003163Y008417D02*
X002120Y008417D01*
X002120Y008515D02*
X008530Y008515D01*
X008540Y008614D02*
X007868Y008614D01*
X007942Y008712D02*
X008598Y008712D01*
X008561Y008417D02*
X006658Y008417D01*
X006307Y008023D02*
X006193Y008023D01*
X005907Y008023D02*
X005793Y008023D01*
X004694Y009085D02*
X004536Y009020D01*
X004364Y009020D01*
X004206Y009085D01*
X004085Y009206D01*
X004020Y009364D01*
X004020Y009536D01*
X004085Y009694D01*
X004206Y009815D01*
X004364Y009880D01*
X004536Y009880D01*
X004694Y009815D01*
X004780Y009728D01*
X004780Y009800D01*
X004818Y009892D01*
X004888Y009962D01*
X004980Y010000D01*
X005080Y010000D01*
X005172Y009962D01*
X005242Y009892D01*
X005280Y009800D01*
X005280Y009700D01*
X005242Y009608D01*
X005172Y009538D01*
X005080Y009500D01*
X007025Y009500D01*
X007032Y009402D02*
X004880Y009402D01*
X004880Y009364D02*
X004815Y009206D01*
X004694Y009085D01*
X004714Y009106D02*
X007284Y009106D01*
X007275Y009205D02*
X004813Y009205D01*
X004855Y009303D02*
X007082Y009303D01*
X007056Y009599D02*
X005232Y009599D01*
X005279Y009697D02*
X007146Y009697D01*
X007201Y010091D02*
X006699Y010091D01*
X006798Y010190D02*
X007102Y010190D01*
X007052Y010288D02*
X006848Y010288D01*
X006880Y010387D02*
X007020Y010387D01*
X007020Y010485D02*
X006880Y010485D01*
X006860Y010584D02*
X007040Y010584D01*
X007081Y010682D02*
X006819Y010682D01*
X006081Y010682D02*
X005819Y010682D01*
X005860Y010584D02*
X006040Y010584D01*
X006020Y010485D02*
X005880Y010485D01*
X005880Y010387D02*
X006020Y010387D01*
X006052Y010288D02*
X005848Y010288D01*
X005798Y010190D02*
X006102Y010190D01*
X006201Y010091D02*
X005699Y010091D01*
X005201Y010091D02*
X004699Y010091D01*
X004798Y010190D02*
X005102Y010190D01*
X005052Y010288D02*
X004848Y010288D01*
X004880Y010387D02*
X005020Y010387D01*
X005020Y010485D02*
X004880Y010485D01*
X004860Y010584D02*
X005040Y010584D01*
X005081Y010682D02*
X004819Y010682D01*
X004081Y010682D02*
X003819Y010682D01*
X003860Y010584D02*
X004040Y010584D01*
X004020Y010485D02*
X003880Y010485D01*
X003880Y010387D02*
X004020Y010387D01*
X004052Y010288D02*
X003848Y010288D01*
X003798Y010190D02*
X004102Y010190D01*
X004201Y010091D02*
X003699Y010091D01*
X003536Y009880D02*
X003364Y009880D01*
X003206Y009815D01*
X003085Y009694D01*
X003020Y009536D01*
X003020Y009364D01*
X003085Y009206D01*
X003206Y009085D01*
X003364Y009020D01*
X003536Y009020D01*
X003694Y009085D01*
X003815Y009206D01*
X003880Y009364D01*
X003880Y009536D01*
X003815Y009694D01*
X003694Y009815D01*
X003536Y009880D01*
X003713Y009796D02*
X004187Y009796D01*
X004089Y009697D02*
X003811Y009697D01*
X003854Y009599D02*
X004046Y009599D01*
X004020Y009500D02*
X003880Y009500D01*
X003880Y009402D02*
X004020Y009402D01*
X004045Y009303D02*
X003855Y009303D01*
X003813Y009205D02*
X004087Y009205D01*
X004186Y009106D02*
X003714Y009106D01*
X003186Y009106D02*
X002714Y009106D01*
X002813Y009205D02*
X003087Y009205D01*
X003045Y009303D02*
X002855Y009303D01*
X002880Y009402D02*
X003020Y009402D01*
X003020Y009500D02*
X002880Y009500D01*
X002854Y009599D02*
X003046Y009599D01*
X003089Y009697D02*
X002811Y009697D01*
X002713Y009796D02*
X003187Y009796D01*
X003201Y010091D02*
X002699Y010091D01*
X002798Y010190D02*
X003102Y010190D01*
X003052Y010288D02*
X002848Y010288D01*
X002880Y010387D02*
X003020Y010387D01*
X003020Y010485D02*
X002880Y010485D01*
X002860Y010584D02*
X003040Y010584D01*
X003081Y010682D02*
X002819Y010682D01*
X002201Y010091D02*
X002120Y010091D01*
X002120Y009993D02*
X004962Y009993D01*
X005098Y009993D02*
X007685Y009993D01*
X007686Y009894D02*
X005240Y009894D01*
X005280Y009796D02*
X007730Y009796D01*
X007722Y010091D02*
X007699Y010091D01*
X007798Y010190D02*
X007836Y010190D01*
X007848Y010288D02*
X008052Y010288D01*
X008064Y010190D02*
X008102Y010190D01*
X008178Y010091D02*
X008201Y010091D01*
X008020Y010387D02*
X007880Y010387D01*
X007880Y010485D02*
X008020Y010485D01*
X008040Y010584D02*
X007860Y010584D01*
X007819Y010682D02*
X008081Y010682D01*
X007338Y009008D02*
X002120Y009008D01*
X002120Y009106D02*
X002186Y009106D01*
X002120Y008909D02*
X007450Y008909D01*
X007435Y008811D02*
X002120Y008811D01*
X002120Y008712D02*
X007458Y008712D01*
X007532Y008614D02*
X002120Y008614D01*
X002120Y009796D02*
X002187Y009796D01*
X002120Y009894D02*
X004820Y009894D01*
X004780Y009796D02*
X004713Y009796D01*
X004872Y009554D02*
X004888Y009538D01*
X004980Y009500D01*
X004880Y009500D01*
X004880Y009536D02*
X004872Y009554D01*
X004880Y009536D02*
X004880Y009364D01*
X004980Y009500D02*
X005080Y009500D01*
X010848Y010288D02*
X011052Y010288D01*
X011020Y010387D02*
X010880Y010387D01*
X010880Y010485D02*
X011020Y010485D01*
X011040Y010584D02*
X010860Y010584D01*
X010819Y010682D02*
X011081Y010682D01*
D11*
X011450Y010450D03*
X010450Y010450D03*
X009450Y010450D03*
X008450Y010450D03*
X007450Y010450D03*
X006450Y010450D03*
X005450Y010450D03*
X004450Y010450D03*
X003450Y010450D03*
X002450Y010450D03*
X002450Y009450D03*
X003450Y009450D03*
X004450Y009450D03*
X012450Y010450D03*
X013450Y010450D03*
X014450Y010450D03*
X015450Y010450D03*
X015450Y002450D03*
X014450Y002450D03*
X013450Y002450D03*
X012450Y002450D03*
X011450Y002450D03*
X010450Y002450D03*
X009450Y002450D03*
X008450Y002450D03*
X007450Y002450D03*
X006450Y002450D03*
X005450Y002450D03*
X004450Y002450D03*
X003450Y002450D03*
X002450Y002450D03*
D12*
X005950Y002850D03*
X007450Y004180D03*
X007790Y004290D03*
X007450Y004580D03*
X009720Y003350D03*
X010110Y002960D03*
X011200Y002990D03*
X011930Y003430D03*
X011900Y003810D03*
X012260Y004110D03*
X011910Y004170D03*
X012950Y003830D03*
X012970Y003110D03*
X014710Y003220D03*
X013280Y005070D03*
X012350Y005190D03*
X012020Y005050D03*
X011970Y005760D03*
X012310Y005870D03*
X011320Y006100D03*
X010940Y006190D03*
X011000Y006550D03*
X010550Y006630D03*
X010050Y006410D03*
X010470Y007190D03*
X010460Y007540D03*
X010000Y007550D03*
X009630Y007480D03*
X008780Y008540D03*
X008410Y009660D03*
X010070Y009670D03*
X010950Y009910D03*
X011750Y009830D03*
X012790Y009910D03*
X013990Y009910D03*
X015350Y009590D03*
X015750Y009590D03*
X012270Y007630D03*
X010870Y008870D03*
X010480Y005410D03*
X010070Y004590D03*
X008950Y002930D03*
X005110Y006200D03*
X004850Y006410D03*
X005120Y006710D03*
X005410Y007010D03*
X004960Y007630D03*
X003350Y008250D03*
X005030Y009750D03*
D13*
X007290Y009470D03*
X007540Y009180D03*
X007700Y008820D03*
X006450Y008250D03*
X006050Y008250D03*
X005650Y008250D03*
X004890Y007990D03*
X006450Y006450D03*
X005100Y005840D03*
X005550Y004850D03*
X004510Y004440D03*
X003430Y004790D03*
X002270Y003190D03*
X005040Y002900D03*
X007390Y003330D03*
X007860Y003660D03*
X008570Y003650D03*
X008640Y004230D03*
X008250Y004650D03*
X010420Y003700D03*
X012530Y003840D03*
X012950Y004310D03*
X014370Y003400D03*
X014940Y002870D03*
X015730Y003420D03*
X015460Y003780D03*
X015640Y004310D03*
X014870Y004830D03*
X015750Y004950D03*
X014250Y006050D03*
X013450Y006050D03*
X013450Y006850D03*
X014250Y006850D03*
X014910Y007690D03*
X013680Y007810D03*
X014250Y009390D03*
X007950Y009950D03*
D14*
X007750Y006950D03*
X008750Y006950D03*
X008750Y005950D03*
X007750Y005950D03*
D15*
X009775Y004150D02*
X008975Y003350D01*
X008975Y002955D01*
X008950Y002930D01*
X009775Y004150D02*
X010750Y004150D01*
X011470Y003430D01*
X011930Y003430D01*
M02*
