G75*
%MOIN*%
%OFA0B0*%
%FSLAX24Y24*%
%IPPOS*%
%LPD*%
%AMOC8*
5,1,8,0,0,1.08239X$1,22.5*
%
%ADD10C,0.0100*%
%ADD11C,0.0000*%
%ADD12C,0.1300*%
%ADD13OC8,0.0650*%
%ADD14C,0.0600*%
%ADD15R,0.0985X0.0985*%
%ADD16C,0.0860*%
%ADD17C,0.0440*%
%ADD18C,0.0089*%
%ADD19C,0.1740*%
%ADD20C,0.0780*%
%ADD21R,0.0493X0.0434*%
%ADD22C,0.0375*%
D10*
X001674Y001333D02*
X026886Y001333D01*
X026925Y001335D01*
X026963Y001341D01*
X027000Y001350D01*
X027037Y001363D01*
X027072Y001380D01*
X027105Y001399D01*
X027136Y001422D01*
X027165Y001448D01*
X027191Y001477D01*
X027214Y001508D01*
X027233Y001541D01*
X027250Y001576D01*
X027263Y001613D01*
X027272Y001650D01*
X027278Y001688D01*
X027280Y001727D01*
X027280Y002333D01*
X028280Y003333D01*
X028280Y016233D01*
X027280Y017233D01*
X027280Y021733D01*
X026680Y022333D01*
X001674Y022333D01*
X001674Y022334D02*
X001635Y022332D01*
X001597Y022326D01*
X001560Y022317D01*
X001523Y022304D01*
X001488Y022287D01*
X001455Y022268D01*
X001424Y022245D01*
X001395Y022219D01*
X001369Y022190D01*
X001346Y022159D01*
X001327Y022126D01*
X001310Y022091D01*
X001297Y022054D01*
X001288Y022017D01*
X001282Y021979D01*
X001280Y021940D01*
X001280Y001727D01*
X001282Y001688D01*
X001288Y001650D01*
X001297Y001613D01*
X001310Y001576D01*
X001327Y001541D01*
X001346Y001508D01*
X001369Y001477D01*
X001395Y001448D01*
X001424Y001422D01*
X001455Y001399D01*
X001488Y001380D01*
X001523Y001363D01*
X001560Y001350D01*
X001597Y001341D01*
X001635Y001335D01*
X001674Y001333D01*
D11*
X006150Y002333D02*
X006152Y002383D01*
X006158Y002433D01*
X006168Y002482D01*
X006182Y002530D01*
X006199Y002577D01*
X006220Y002622D01*
X006245Y002666D01*
X006273Y002707D01*
X006305Y002746D01*
X006339Y002783D01*
X006376Y002817D01*
X006416Y002847D01*
X006458Y002874D01*
X006502Y002898D01*
X006548Y002919D01*
X006595Y002935D01*
X006643Y002948D01*
X006693Y002957D01*
X006742Y002962D01*
X006793Y002963D01*
X006843Y002960D01*
X006892Y002953D01*
X006941Y002942D01*
X006989Y002927D01*
X007035Y002909D01*
X007080Y002887D01*
X007123Y002861D01*
X007164Y002832D01*
X007203Y002800D01*
X007239Y002765D01*
X007271Y002727D01*
X007301Y002687D01*
X007328Y002644D01*
X007351Y002600D01*
X007370Y002554D01*
X007386Y002506D01*
X007398Y002457D01*
X007406Y002408D01*
X007410Y002358D01*
X007410Y002308D01*
X007406Y002258D01*
X007398Y002209D01*
X007386Y002160D01*
X007370Y002112D01*
X007351Y002066D01*
X007328Y002022D01*
X007301Y001979D01*
X007271Y001939D01*
X007239Y001901D01*
X007203Y001866D01*
X007164Y001834D01*
X007123Y001805D01*
X007080Y001779D01*
X007035Y001757D01*
X006989Y001739D01*
X006941Y001724D01*
X006892Y001713D01*
X006843Y001706D01*
X006793Y001703D01*
X006742Y001704D01*
X006693Y001709D01*
X006643Y001718D01*
X006595Y001731D01*
X006548Y001747D01*
X006502Y001768D01*
X006458Y001792D01*
X006416Y001819D01*
X006376Y001849D01*
X006339Y001883D01*
X006305Y001920D01*
X006273Y001959D01*
X006245Y002000D01*
X006220Y002044D01*
X006199Y002089D01*
X006182Y002136D01*
X006168Y002184D01*
X006158Y002233D01*
X006152Y002283D01*
X006150Y002333D01*
X025613Y007043D02*
X025615Y007068D01*
X025621Y007093D01*
X025630Y007117D01*
X025643Y007139D01*
X025660Y007159D01*
X025679Y007176D01*
X025700Y007190D01*
X025724Y007200D01*
X025748Y007207D01*
X025774Y007210D01*
X025799Y007209D01*
X025824Y007204D01*
X025848Y007195D01*
X025871Y007183D01*
X025891Y007168D01*
X025909Y007149D01*
X025924Y007128D01*
X025935Y007105D01*
X025943Y007081D01*
X025947Y007056D01*
X025947Y007030D01*
X025943Y007005D01*
X025935Y006981D01*
X025924Y006958D01*
X025909Y006937D01*
X025891Y006918D01*
X025871Y006903D01*
X025848Y006891D01*
X025824Y006882D01*
X025799Y006877D01*
X025774Y006876D01*
X025748Y006879D01*
X025724Y006886D01*
X025700Y006896D01*
X025679Y006910D01*
X025660Y006927D01*
X025643Y006947D01*
X025630Y006969D01*
X025621Y006993D01*
X025615Y007018D01*
X025613Y007043D01*
X025613Y008224D02*
X025615Y008249D01*
X025621Y008274D01*
X025630Y008298D01*
X025643Y008320D01*
X025660Y008340D01*
X025679Y008357D01*
X025700Y008371D01*
X025724Y008381D01*
X025748Y008388D01*
X025774Y008391D01*
X025799Y008390D01*
X025824Y008385D01*
X025848Y008376D01*
X025871Y008364D01*
X025891Y008349D01*
X025909Y008330D01*
X025924Y008309D01*
X025935Y008286D01*
X025943Y008262D01*
X025947Y008237D01*
X025947Y008211D01*
X025943Y008186D01*
X025935Y008162D01*
X025924Y008139D01*
X025909Y008118D01*
X025891Y008099D01*
X025871Y008084D01*
X025848Y008072D01*
X025824Y008063D01*
X025799Y008058D01*
X025774Y008057D01*
X025748Y008060D01*
X025724Y008067D01*
X025700Y008077D01*
X025679Y008091D01*
X025660Y008108D01*
X025643Y008128D01*
X025630Y008150D01*
X025621Y008174D01*
X025615Y008199D01*
X025613Y008224D01*
X026650Y004333D02*
X026652Y004383D01*
X026658Y004433D01*
X026668Y004482D01*
X026682Y004530D01*
X026699Y004577D01*
X026720Y004622D01*
X026745Y004666D01*
X026773Y004707D01*
X026805Y004746D01*
X026839Y004783D01*
X026876Y004817D01*
X026916Y004847D01*
X026958Y004874D01*
X027002Y004898D01*
X027048Y004919D01*
X027095Y004935D01*
X027143Y004948D01*
X027193Y004957D01*
X027242Y004962D01*
X027293Y004963D01*
X027343Y004960D01*
X027392Y004953D01*
X027441Y004942D01*
X027489Y004927D01*
X027535Y004909D01*
X027580Y004887D01*
X027623Y004861D01*
X027664Y004832D01*
X027703Y004800D01*
X027739Y004765D01*
X027771Y004727D01*
X027801Y004687D01*
X027828Y004644D01*
X027851Y004600D01*
X027870Y004554D01*
X027886Y004506D01*
X027898Y004457D01*
X027906Y004408D01*
X027910Y004358D01*
X027910Y004308D01*
X027906Y004258D01*
X027898Y004209D01*
X027886Y004160D01*
X027870Y004112D01*
X027851Y004066D01*
X027828Y004022D01*
X027801Y003979D01*
X027771Y003939D01*
X027739Y003901D01*
X027703Y003866D01*
X027664Y003834D01*
X027623Y003805D01*
X027580Y003779D01*
X027535Y003757D01*
X027489Y003739D01*
X027441Y003724D01*
X027392Y003713D01*
X027343Y003706D01*
X027293Y003703D01*
X027242Y003704D01*
X027193Y003709D01*
X027143Y003718D01*
X027095Y003731D01*
X027048Y003747D01*
X027002Y003768D01*
X026958Y003792D01*
X026916Y003819D01*
X026876Y003849D01*
X026839Y003883D01*
X026805Y003920D01*
X026773Y003959D01*
X026745Y004000D01*
X026720Y004044D01*
X026699Y004089D01*
X026682Y004136D01*
X026668Y004184D01*
X026658Y004233D01*
X026652Y004283D01*
X026650Y004333D01*
X026650Y015333D02*
X026652Y015383D01*
X026658Y015433D01*
X026668Y015482D01*
X026682Y015530D01*
X026699Y015577D01*
X026720Y015622D01*
X026745Y015666D01*
X026773Y015707D01*
X026805Y015746D01*
X026839Y015783D01*
X026876Y015817D01*
X026916Y015847D01*
X026958Y015874D01*
X027002Y015898D01*
X027048Y015919D01*
X027095Y015935D01*
X027143Y015948D01*
X027193Y015957D01*
X027242Y015962D01*
X027293Y015963D01*
X027343Y015960D01*
X027392Y015953D01*
X027441Y015942D01*
X027489Y015927D01*
X027535Y015909D01*
X027580Y015887D01*
X027623Y015861D01*
X027664Y015832D01*
X027703Y015800D01*
X027739Y015765D01*
X027771Y015727D01*
X027801Y015687D01*
X027828Y015644D01*
X027851Y015600D01*
X027870Y015554D01*
X027886Y015506D01*
X027898Y015457D01*
X027906Y015408D01*
X027910Y015358D01*
X027910Y015308D01*
X027906Y015258D01*
X027898Y015209D01*
X027886Y015160D01*
X027870Y015112D01*
X027851Y015066D01*
X027828Y015022D01*
X027801Y014979D01*
X027771Y014939D01*
X027739Y014901D01*
X027703Y014866D01*
X027664Y014834D01*
X027623Y014805D01*
X027580Y014779D01*
X027535Y014757D01*
X027489Y014739D01*
X027441Y014724D01*
X027392Y014713D01*
X027343Y014706D01*
X027293Y014703D01*
X027242Y014704D01*
X027193Y014709D01*
X027143Y014718D01*
X027095Y014731D01*
X027048Y014747D01*
X027002Y014768D01*
X026958Y014792D01*
X026916Y014819D01*
X026876Y014849D01*
X026839Y014883D01*
X026805Y014920D01*
X026773Y014959D01*
X026745Y015000D01*
X026720Y015044D01*
X026699Y015089D01*
X026682Y015136D01*
X026668Y015184D01*
X026658Y015233D01*
X026652Y015283D01*
X026650Y015333D01*
X006650Y021333D02*
X006652Y021383D01*
X006658Y021433D01*
X006668Y021482D01*
X006682Y021530D01*
X006699Y021577D01*
X006720Y021622D01*
X006745Y021666D01*
X006773Y021707D01*
X006805Y021746D01*
X006839Y021783D01*
X006876Y021817D01*
X006916Y021847D01*
X006958Y021874D01*
X007002Y021898D01*
X007048Y021919D01*
X007095Y021935D01*
X007143Y021948D01*
X007193Y021957D01*
X007242Y021962D01*
X007293Y021963D01*
X007343Y021960D01*
X007392Y021953D01*
X007441Y021942D01*
X007489Y021927D01*
X007535Y021909D01*
X007580Y021887D01*
X007623Y021861D01*
X007664Y021832D01*
X007703Y021800D01*
X007739Y021765D01*
X007771Y021727D01*
X007801Y021687D01*
X007828Y021644D01*
X007851Y021600D01*
X007870Y021554D01*
X007886Y021506D01*
X007898Y021457D01*
X007906Y021408D01*
X007910Y021358D01*
X007910Y021308D01*
X007906Y021258D01*
X007898Y021209D01*
X007886Y021160D01*
X007870Y021112D01*
X007851Y021066D01*
X007828Y021022D01*
X007801Y020979D01*
X007771Y020939D01*
X007739Y020901D01*
X007703Y020866D01*
X007664Y020834D01*
X007623Y020805D01*
X007580Y020779D01*
X007535Y020757D01*
X007489Y020739D01*
X007441Y020724D01*
X007392Y020713D01*
X007343Y020706D01*
X007293Y020703D01*
X007242Y020704D01*
X007193Y020709D01*
X007143Y020718D01*
X007095Y020731D01*
X007048Y020747D01*
X007002Y020768D01*
X006958Y020792D01*
X006916Y020819D01*
X006876Y020849D01*
X006839Y020883D01*
X006805Y020920D01*
X006773Y020959D01*
X006745Y021000D01*
X006720Y021044D01*
X006699Y021089D01*
X006682Y021136D01*
X006668Y021184D01*
X006658Y021233D01*
X006652Y021283D01*
X006650Y021333D01*
D12*
X007280Y021333D03*
X027280Y015333D03*
X027280Y004333D03*
X006780Y002333D03*
D13*
X026330Y011333D03*
X027330Y011333D03*
X027330Y012333D03*
X026330Y012333D03*
X026330Y013333D03*
X027330Y013333D03*
D14*
X026280Y021053D02*
X026280Y021613D01*
X025280Y021613D02*
X025280Y021053D01*
X024280Y021053D02*
X024280Y021613D01*
X023280Y021613D02*
X023280Y021053D01*
X022280Y021053D02*
X022280Y021613D01*
X021280Y021613D02*
X021280Y021053D01*
X020280Y021053D02*
X020280Y021613D01*
X019280Y021613D02*
X019280Y021053D01*
X017680Y021053D02*
X017680Y021613D01*
X016680Y021613D02*
X016680Y021053D01*
X015680Y021053D02*
X015680Y021613D01*
X014680Y021613D02*
X014680Y021053D01*
X013680Y021053D02*
X013680Y021613D01*
X012680Y021613D02*
X012680Y021053D01*
X011680Y021053D02*
X011680Y021613D01*
X010680Y021613D02*
X010680Y021053D01*
X009680Y021053D02*
X009680Y021613D01*
X008680Y021613D02*
X008680Y021053D01*
X012280Y002613D02*
X012280Y002053D01*
X013280Y002053D02*
X013280Y002613D01*
X014280Y002613D02*
X014280Y002053D01*
X015280Y002053D02*
X015280Y002613D01*
X016280Y002613D02*
X016280Y002053D01*
X017280Y002053D02*
X017280Y002613D01*
X018280Y002613D02*
X018280Y002053D01*
X019280Y002053D02*
X019280Y002613D01*
X021280Y002613D02*
X021280Y002053D01*
X022280Y002053D02*
X022280Y002613D01*
X023280Y002613D02*
X023280Y002053D01*
X024280Y002053D02*
X024280Y002613D01*
X025280Y002613D02*
X025280Y002053D01*
X026280Y002053D02*
X026280Y002613D01*
D15*
X010646Y002433D03*
X008914Y002433D03*
D16*
X002483Y002233D02*
X002485Y002260D01*
X002491Y002287D01*
X002500Y002313D01*
X002513Y002337D01*
X002529Y002360D01*
X002548Y002379D01*
X002570Y002396D01*
X002594Y002410D01*
X002619Y002420D01*
X002646Y002427D01*
X002673Y002430D01*
X002701Y002429D01*
X002728Y002424D01*
X002754Y002416D01*
X002778Y002404D01*
X002801Y002388D01*
X002822Y002370D01*
X002839Y002349D01*
X002854Y002325D01*
X002865Y002300D01*
X002873Y002274D01*
X002877Y002247D01*
X002877Y002219D01*
X002873Y002192D01*
X002865Y002166D01*
X002854Y002141D01*
X002839Y002117D01*
X002822Y002096D01*
X002801Y002078D01*
X002779Y002062D01*
X002754Y002050D01*
X002728Y002042D01*
X002701Y002037D01*
X002673Y002036D01*
X002646Y002039D01*
X002619Y002046D01*
X002594Y002056D01*
X002570Y002070D01*
X002548Y002087D01*
X002529Y002106D01*
X002513Y002129D01*
X002500Y002153D01*
X002491Y002179D01*
X002485Y002206D01*
X002483Y002233D01*
X022430Y010524D02*
X022432Y010551D01*
X022438Y010578D01*
X022447Y010604D01*
X022460Y010628D01*
X022476Y010651D01*
X022495Y010670D01*
X022517Y010687D01*
X022541Y010701D01*
X022566Y010711D01*
X022593Y010718D01*
X022620Y010721D01*
X022648Y010720D01*
X022675Y010715D01*
X022701Y010707D01*
X022725Y010695D01*
X022748Y010679D01*
X022769Y010661D01*
X022786Y010640D01*
X022801Y010616D01*
X022812Y010591D01*
X022820Y010565D01*
X022824Y010538D01*
X022824Y010510D01*
X022820Y010483D01*
X022812Y010457D01*
X022801Y010432D01*
X022786Y010408D01*
X022769Y010387D01*
X022748Y010369D01*
X022726Y010353D01*
X022701Y010341D01*
X022675Y010333D01*
X022648Y010328D01*
X022620Y010327D01*
X022593Y010330D01*
X022566Y010337D01*
X022541Y010347D01*
X022517Y010361D01*
X022495Y010378D01*
X022476Y010397D01*
X022460Y010420D01*
X022447Y010444D01*
X022438Y010470D01*
X022432Y010497D01*
X022430Y010524D01*
X003583Y020983D02*
X003585Y021010D01*
X003591Y021037D01*
X003600Y021063D01*
X003613Y021087D01*
X003629Y021110D01*
X003648Y021129D01*
X003670Y021146D01*
X003694Y021160D01*
X003719Y021170D01*
X003746Y021177D01*
X003773Y021180D01*
X003801Y021179D01*
X003828Y021174D01*
X003854Y021166D01*
X003878Y021154D01*
X003901Y021138D01*
X003922Y021120D01*
X003939Y021099D01*
X003954Y021075D01*
X003965Y021050D01*
X003973Y021024D01*
X003977Y020997D01*
X003977Y020969D01*
X003973Y020942D01*
X003965Y020916D01*
X003954Y020891D01*
X003939Y020867D01*
X003922Y020846D01*
X003901Y020828D01*
X003879Y020812D01*
X003854Y020800D01*
X003828Y020792D01*
X003801Y020787D01*
X003773Y020786D01*
X003746Y020789D01*
X003719Y020796D01*
X003694Y020806D01*
X003670Y020820D01*
X003648Y020837D01*
X003629Y020856D01*
X003613Y020879D01*
X003600Y020903D01*
X003591Y020929D01*
X003585Y020956D01*
X003583Y020983D01*
D17*
X003780Y020983D03*
X022627Y010524D03*
X002680Y002233D03*
D18*
X002417Y019647D02*
X001835Y019647D01*
X001835Y020149D01*
X002417Y020149D01*
X002417Y019647D01*
X002417Y019735D02*
X001835Y019735D01*
X001835Y019823D02*
X002417Y019823D01*
X002417Y019911D02*
X001835Y019911D01*
X001835Y019999D02*
X002417Y019999D01*
X002417Y020087D02*
X001835Y020087D01*
X001835Y020532D02*
X002417Y020532D01*
X001835Y020532D02*
X001835Y021034D01*
X002417Y021034D01*
X002417Y020532D01*
X002417Y020620D02*
X001835Y020620D01*
X001835Y020708D02*
X002417Y020708D01*
X002417Y020796D02*
X001835Y020796D01*
X001835Y020884D02*
X002417Y020884D01*
X002417Y020972D02*
X001835Y020972D01*
X001835Y021418D02*
X002417Y021418D01*
X001835Y021418D02*
X001835Y021920D01*
X002417Y021920D01*
X002417Y021418D01*
X002417Y021506D02*
X001835Y021506D01*
X001835Y021594D02*
X002417Y021594D01*
X002417Y021682D02*
X001835Y021682D01*
X001835Y021770D02*
X002417Y021770D01*
X002417Y021858D02*
X001835Y021858D01*
X005143Y021418D02*
X005725Y021418D01*
X005143Y021418D02*
X005143Y021920D01*
X005725Y021920D01*
X005725Y021418D01*
X005725Y021506D02*
X005143Y021506D01*
X005143Y021594D02*
X005725Y021594D01*
X005725Y021682D02*
X005143Y021682D01*
X005143Y021770D02*
X005725Y021770D01*
X005725Y021858D02*
X005143Y021858D01*
X005143Y019647D02*
X005725Y019647D01*
X005143Y019647D02*
X005143Y020149D01*
X005725Y020149D01*
X005725Y019647D01*
X005725Y019735D02*
X005143Y019735D01*
X005143Y019823D02*
X005725Y019823D01*
X005725Y019911D02*
X005143Y019911D01*
X005143Y019999D02*
X005725Y019999D01*
X005725Y020087D02*
X005143Y020087D01*
D19*
X005894Y004413D03*
X004713Y002563D03*
X003531Y004413D03*
D20*
X007280Y007833D03*
X008280Y007833D03*
X009280Y007833D03*
X010280Y007833D03*
X011280Y007833D03*
X012280Y007833D03*
X013280Y007833D03*
X014280Y007833D03*
X015280Y007833D03*
X016280Y007833D03*
X017280Y007833D03*
X018280Y007833D03*
X019280Y007833D03*
X020280Y007833D03*
X020280Y015833D03*
X019280Y015833D03*
X018280Y015833D03*
X017280Y015833D03*
X016280Y015833D03*
X015280Y015833D03*
X014280Y015833D03*
X013280Y015833D03*
X012280Y015833D03*
X011280Y015833D03*
X010280Y015833D03*
X009280Y015833D03*
X008280Y015833D03*
X007280Y015833D03*
D21*
X024668Y008618D03*
X024668Y007633D03*
X024668Y006649D03*
X026892Y006649D03*
X026892Y007633D03*
X026892Y008618D03*
D22*
X025780Y008224D03*
X025780Y007043D03*
M02*
