G75*
%MOIN*%
%OFA0B0*%
%FSLAX24Y24*%
%IPPOS*%
%LPD*%
%AMOC8*
5,1,8,0,0,1.08239X$1,22.5*
%
%ADD10C,0.0100*%
%ADD11C,0.0120*%
%ADD12C,0.0070*%
%ADD13C,0.0050*%
%ADD14C,0.0060*%
%ADD15C,0.0080*%
%ADD16C,0.0000*%
%ADD17C,0.0160*%
%ADD18C,0.0040*%
%ADD19C,0.0090*%
D10*
X001674Y001333D02*
X026886Y001333D01*
X026925Y001335D01*
X026963Y001341D01*
X027000Y001350D01*
X027037Y001363D01*
X027072Y001380D01*
X027105Y001399D01*
X027136Y001422D01*
X027165Y001448D01*
X027191Y001477D01*
X027214Y001508D01*
X027233Y001541D01*
X027250Y001576D01*
X027263Y001613D01*
X027272Y001650D01*
X027278Y001688D01*
X027280Y001727D01*
X027280Y002333D01*
X028280Y003333D01*
X028280Y016233D01*
X027280Y017233D01*
X027280Y021733D01*
X026680Y022333D01*
X001674Y022333D01*
X001674Y022334D02*
X001635Y022332D01*
X001597Y022326D01*
X001560Y022317D01*
X001523Y022304D01*
X001488Y022287D01*
X001455Y022268D01*
X001424Y022245D01*
X001395Y022219D01*
X001369Y022190D01*
X001346Y022159D01*
X001327Y022126D01*
X001310Y022091D01*
X001297Y022054D01*
X001288Y022017D01*
X001282Y021979D01*
X001280Y021940D01*
X001280Y001727D01*
X001282Y001688D01*
X001288Y001650D01*
X001297Y001613D01*
X001310Y001576D01*
X001327Y001541D01*
X001346Y001508D01*
X001369Y001477D01*
X001395Y001448D01*
X001424Y001422D01*
X001455Y001399D01*
X001488Y001380D01*
X001523Y001363D01*
X001560Y001350D01*
X001597Y001341D01*
X001635Y001335D01*
X001674Y001333D01*
X021230Y004183D02*
X021230Y004557D01*
X021417Y004744D01*
X021604Y004557D01*
X021604Y004183D01*
X021838Y004183D02*
X021838Y004744D01*
X022211Y004183D01*
X022211Y004744D01*
X022445Y004557D02*
X022632Y004744D01*
X022819Y004557D01*
X022819Y004183D01*
X023053Y004183D02*
X023427Y004183D01*
X023661Y004277D02*
X023754Y004183D01*
X023941Y004183D01*
X024035Y004277D01*
X024035Y004650D01*
X023941Y004744D01*
X023754Y004744D01*
X023661Y004650D01*
X023661Y004277D01*
X024269Y004277D02*
X024362Y004183D01*
X024549Y004183D01*
X024642Y004277D01*
X024642Y004464D01*
X024455Y004464D01*
X024269Y004650D02*
X024269Y004277D01*
X024269Y004650D02*
X024362Y004744D01*
X024549Y004744D01*
X024642Y004650D01*
X023053Y004744D02*
X023053Y004183D01*
X022819Y004464D02*
X022445Y004464D01*
X022445Y004557D02*
X022445Y004183D01*
X021604Y004464D02*
X021230Y004464D01*
X020359Y018369D02*
X019985Y018369D01*
X019985Y018930D01*
X019751Y018743D02*
X019751Y018369D01*
X019751Y018649D02*
X019378Y018649D01*
X019378Y018743D02*
X019378Y018369D01*
X019378Y018743D02*
X019565Y018930D01*
X019751Y018743D01*
X019144Y018930D02*
X018770Y018930D01*
X018957Y018930D02*
X018957Y018369D01*
X018552Y018369D02*
X018365Y018369D01*
X018458Y018369D02*
X018458Y018930D01*
X018365Y018930D02*
X018552Y018930D01*
X018131Y018836D02*
X018037Y018930D01*
X017851Y018930D01*
X017757Y018836D01*
X017757Y018463D01*
X017851Y018369D01*
X018037Y018369D01*
X018131Y018463D01*
X018131Y018649D01*
X017944Y018649D01*
X017539Y018369D02*
X017352Y018369D01*
X017445Y018369D02*
X017445Y018930D01*
X017352Y018930D02*
X017539Y018930D01*
X017118Y018836D02*
X017118Y018463D01*
X017025Y018369D01*
X016744Y018369D01*
X016744Y018930D01*
X017025Y018930D01*
X017118Y018836D01*
D11*
X016430Y017883D02*
X013130Y017883D01*
X012680Y018333D01*
X020530Y017883D02*
X022730Y017883D01*
X024730Y017883D02*
X026130Y017883D01*
X026160Y017893D02*
X026610Y018343D01*
X026330Y019483D02*
X026680Y019833D01*
X025980Y019833D01*
X026330Y019483D01*
X026330Y019583D02*
X026180Y019733D01*
X026380Y019733D01*
X026330Y019683D02*
X026330Y019633D01*
X026330Y019583D02*
X026530Y019783D01*
X026130Y019783D01*
X025630Y019483D02*
X025280Y019833D01*
X024930Y019483D01*
X025630Y019483D01*
X025480Y019533D02*
X025180Y019533D01*
X025330Y019633D01*
X025280Y019733D02*
X025080Y019533D01*
X025280Y019733D02*
X025480Y019533D01*
D12*
X025505Y020153D02*
X025505Y020480D01*
X025505Y020316D02*
X025015Y020316D01*
X025178Y020153D01*
X024505Y020153D02*
X024178Y020480D01*
X024096Y020480D01*
X024015Y020398D01*
X024015Y020234D01*
X024096Y020153D01*
X024505Y020153D02*
X024505Y020480D01*
X023505Y020398D02*
X023505Y020234D01*
X023423Y020153D01*
X023260Y020316D02*
X023260Y020398D01*
X023342Y020480D01*
X023423Y020480D01*
X023505Y020398D01*
X023260Y020398D02*
X023178Y020480D01*
X023096Y020480D01*
X023015Y020398D01*
X023015Y020234D01*
X023096Y020153D01*
X022505Y020398D02*
X022015Y020398D01*
X022260Y020153D01*
X022260Y020480D01*
X021505Y020398D02*
X021505Y020234D01*
X021423Y020153D01*
X021260Y020153D02*
X021178Y020316D01*
X021178Y020398D01*
X021260Y020480D01*
X021423Y020480D01*
X021505Y020398D01*
X021260Y020153D02*
X021015Y020153D01*
X021015Y020480D01*
X020505Y020398D02*
X020505Y020234D01*
X020423Y020153D01*
X020260Y020153D01*
X020260Y020398D01*
X020342Y020480D01*
X020423Y020480D01*
X020505Y020398D01*
X020260Y020153D02*
X020096Y020316D01*
X020015Y020480D01*
X019505Y020153D02*
X019423Y020153D01*
X019096Y020480D01*
X019015Y020480D01*
X019015Y020153D01*
X017905Y020234D02*
X017823Y020153D01*
X017742Y020153D01*
X017660Y020234D01*
X017660Y020398D01*
X017742Y020480D01*
X017823Y020480D01*
X017905Y020398D01*
X017905Y020234D01*
X017660Y020234D02*
X017578Y020153D01*
X017496Y020153D01*
X017415Y020234D01*
X017415Y020398D01*
X017496Y020480D01*
X017578Y020480D01*
X017660Y020398D01*
X016905Y020398D02*
X016905Y020234D01*
X016823Y020153D01*
X016660Y020234D02*
X016660Y020480D01*
X016823Y020480D02*
X016496Y020480D01*
X016415Y020398D01*
X016415Y020234D01*
X016496Y020153D01*
X016578Y020153D01*
X016660Y020234D01*
X016905Y020398D02*
X016823Y020480D01*
X015905Y020398D02*
X015905Y020234D01*
X015823Y020153D01*
X015496Y020480D01*
X015823Y020480D01*
X015905Y020398D01*
X015823Y020153D02*
X015496Y020153D01*
X015415Y020234D01*
X015415Y020398D01*
X015496Y020480D01*
X014905Y020488D02*
X014905Y020325D01*
X014905Y020406D02*
X014415Y020406D01*
X014415Y020325D02*
X014415Y020488D01*
X014496Y020136D02*
X014415Y020054D01*
X014415Y019891D01*
X014496Y019809D01*
X014578Y019809D01*
X014660Y019891D01*
X014660Y020054D01*
X014742Y020136D01*
X014823Y020136D01*
X014905Y020054D01*
X014905Y019891D01*
X014823Y019809D01*
X014823Y019620D02*
X014496Y019620D01*
X014415Y019539D01*
X014415Y019375D01*
X014496Y019293D01*
X014823Y019293D01*
X014905Y019375D01*
X014905Y019539D01*
X014823Y019620D01*
X014905Y019105D02*
X014415Y019105D01*
X014578Y018941D01*
X014415Y018778D01*
X014905Y018778D01*
X015578Y019637D02*
X015415Y019801D01*
X015905Y019801D01*
X015905Y019964D02*
X015905Y019637D01*
X013905Y019719D02*
X013823Y019637D01*
X013905Y019719D02*
X013905Y019882D01*
X013823Y019964D01*
X013742Y019964D01*
X013660Y019882D01*
X013660Y019719D01*
X013578Y019637D01*
X013496Y019637D01*
X013415Y019719D01*
X013415Y019882D01*
X013496Y019964D01*
X013496Y020153D02*
X013823Y020153D01*
X013905Y020234D01*
X013905Y020398D01*
X013823Y020480D01*
X013496Y020480D01*
X013415Y020398D01*
X013415Y020234D01*
X013496Y020153D01*
X012905Y020153D02*
X012415Y020153D01*
X012496Y019964D02*
X012415Y019882D01*
X012415Y019719D01*
X012496Y019637D01*
X012823Y019637D01*
X012905Y019719D01*
X012905Y019882D01*
X012823Y019964D01*
X012742Y020153D02*
X012415Y020480D01*
X012660Y020234D02*
X012905Y020480D01*
X012823Y019448D02*
X012742Y019448D01*
X012660Y019367D01*
X012660Y019203D01*
X012578Y019121D01*
X012496Y019121D01*
X012415Y019203D01*
X012415Y019367D01*
X012496Y019448D01*
X012823Y019448D02*
X012905Y019367D01*
X012905Y019203D01*
X012823Y019121D01*
X013415Y019105D02*
X013905Y019105D01*
X013905Y019293D02*
X013905Y019457D01*
X013905Y019375D02*
X013415Y019375D01*
X013415Y019293D02*
X013415Y019457D01*
X013415Y019105D02*
X013578Y018941D01*
X013415Y018778D01*
X013905Y018778D01*
X023015Y018559D02*
X023505Y018559D01*
X023505Y018886D01*
X023505Y019075D02*
X023342Y019238D01*
X023178Y019238D01*
X023015Y019075D01*
X023096Y018370D02*
X023015Y018288D01*
X023015Y018125D01*
X023096Y018043D01*
X023423Y018043D01*
X023505Y018125D01*
X023505Y018288D01*
X023423Y018370D01*
X023423Y017855D02*
X023342Y017855D01*
X023260Y017773D01*
X023260Y017609D01*
X023178Y017528D01*
X023096Y017528D01*
X023015Y017609D01*
X023015Y017773D01*
X023096Y017855D01*
X023423Y017855D02*
X023505Y017773D01*
X023505Y017609D01*
X023423Y017528D01*
X023505Y017347D02*
X023342Y017184D01*
X023178Y017184D01*
X023015Y017347D01*
X024015Y017347D02*
X024178Y017184D01*
X024342Y017184D01*
X024505Y017347D01*
X024423Y017528D02*
X024505Y017609D01*
X024505Y017773D01*
X024423Y017855D01*
X024342Y017855D01*
X024260Y017773D01*
X024260Y017609D01*
X024178Y017528D01*
X024096Y017528D01*
X024015Y017609D01*
X024015Y017773D01*
X024096Y017855D01*
X024015Y018043D02*
X024015Y018288D01*
X024096Y018370D01*
X024423Y018370D01*
X024505Y018288D01*
X024505Y018043D01*
X024015Y018043D01*
X024178Y018559D02*
X024015Y018722D01*
X024178Y018886D01*
X024505Y018886D01*
X024505Y019075D02*
X024342Y019238D01*
X024178Y019238D01*
X024015Y019075D01*
X024260Y018886D02*
X024260Y018559D01*
X024178Y018559D02*
X024505Y018559D01*
X026096Y020153D02*
X026015Y020234D01*
X026015Y020398D01*
X026096Y020480D01*
X026423Y020153D01*
X026505Y020234D01*
X026505Y020398D01*
X026423Y020480D01*
X026096Y020480D01*
X026096Y020153D02*
X026423Y020153D01*
X026330Y004583D02*
X026330Y003143D01*
X025330Y003143D02*
X025330Y004573D01*
X019545Y004305D02*
X019055Y004305D01*
X018550Y004398D02*
X018550Y004153D01*
X018060Y004153D01*
X018060Y004398D01*
X018142Y004480D01*
X018468Y004480D01*
X018550Y004398D01*
X018550Y003964D02*
X018060Y003964D01*
X018060Y003637D02*
X018550Y003964D01*
X018550Y003637D02*
X018060Y003637D01*
X018142Y003449D02*
X018060Y003367D01*
X018060Y003203D01*
X018142Y003122D01*
X018468Y003122D01*
X018550Y003203D01*
X018550Y003367D01*
X018468Y003449D01*
X018305Y003449D01*
X018305Y003285D01*
X019055Y003445D02*
X019382Y003445D01*
X019545Y003282D01*
X019382Y003118D01*
X019055Y003118D01*
X019055Y003634D02*
X019055Y003797D01*
X019055Y003716D02*
X019545Y003716D01*
X019545Y003797D02*
X019545Y003634D01*
X019545Y003978D02*
X019055Y003978D01*
X019545Y004305D01*
X017550Y004398D02*
X017550Y004153D01*
X017060Y004153D01*
X017060Y004398D01*
X017142Y004480D01*
X017468Y004480D01*
X017550Y004398D01*
X017550Y003964D02*
X017060Y003964D01*
X017060Y003637D02*
X017550Y003964D01*
X017550Y003637D02*
X017060Y003637D01*
X017142Y003449D02*
X017060Y003367D01*
X017060Y003203D01*
X017142Y003122D01*
X017468Y003122D01*
X017550Y003203D01*
X017550Y003367D01*
X017468Y003449D01*
X017305Y003449D01*
X017305Y003285D01*
X016545Y003364D02*
X016545Y003200D01*
X016463Y003118D01*
X016300Y003118D02*
X016218Y003282D01*
X016218Y003364D01*
X016300Y003445D01*
X016463Y003445D01*
X016545Y003364D01*
X016382Y003634D02*
X016545Y003797D01*
X016382Y003961D01*
X016055Y003961D01*
X016055Y003634D02*
X016382Y003634D01*
X016055Y003445D02*
X016055Y003118D01*
X016300Y003118D01*
X004545Y008073D02*
X004440Y007968D01*
X004545Y008073D02*
X004545Y008284D01*
X004440Y008389D01*
X004335Y008389D01*
X004230Y008284D01*
X004230Y008073D01*
X004125Y007968D01*
X004020Y007968D01*
X003914Y008073D01*
X003914Y008284D01*
X004020Y008389D01*
X003914Y008613D02*
X004545Y008613D01*
X004230Y008613D02*
X004125Y008718D01*
X004125Y008928D01*
X004230Y009033D01*
X004545Y009033D01*
X004545Y009257D02*
X004545Y009468D01*
X004545Y009363D02*
X004125Y009363D01*
X004125Y009257D01*
X003914Y009363D02*
X003809Y009363D01*
X004230Y009687D02*
X004125Y009792D01*
X004125Y010002D01*
X004230Y010107D01*
X004335Y010107D01*
X004335Y009687D01*
X004440Y009687D02*
X004230Y009687D01*
X004440Y009687D02*
X004545Y009792D01*
X004545Y010002D01*
X004545Y010332D02*
X004545Y010542D01*
X004545Y010437D02*
X003914Y010437D01*
X003914Y010332D01*
X004230Y010761D02*
X004125Y010866D01*
X004125Y011182D01*
X003914Y011182D02*
X004545Y011182D01*
X004545Y010866D01*
X004440Y010761D01*
X004230Y010761D01*
X004230Y011406D02*
X004230Y011826D01*
X004125Y012050D02*
X004230Y012156D01*
X004230Y012366D01*
X004335Y012471D01*
X004440Y012471D01*
X004545Y012366D01*
X004545Y012156D01*
X004440Y012050D01*
X004125Y012050D02*
X004020Y012050D01*
X003914Y012156D01*
X003914Y012366D01*
X004020Y012471D01*
X003914Y012695D02*
X004545Y012695D01*
X004230Y012695D02*
X004125Y012800D01*
X004125Y013010D01*
X004230Y013115D01*
X004545Y013115D01*
X004545Y013340D02*
X004545Y013550D01*
X004545Y013445D02*
X004125Y013445D01*
X004125Y013340D01*
X003914Y013445D02*
X003809Y013445D01*
X004230Y013769D02*
X004125Y013874D01*
X004125Y014085D01*
X004230Y014190D01*
X004335Y014190D01*
X004335Y013769D01*
X004440Y013769D02*
X004230Y013769D01*
X004440Y013769D02*
X004545Y013874D01*
X004545Y014085D01*
X004545Y014414D02*
X004545Y014624D01*
X004545Y014519D02*
X003914Y014519D01*
X003914Y014414D01*
X004230Y014844D02*
X004125Y014949D01*
X004125Y015264D01*
X003914Y015264D02*
X004545Y015264D01*
X004545Y014949D01*
X004440Y014844D01*
X004230Y014844D01*
X003040Y012686D02*
X002830Y012686D01*
X002725Y012581D01*
X002725Y012370D01*
X002830Y012265D01*
X003040Y012265D01*
X003145Y012370D01*
X003145Y012581D01*
X003040Y012686D01*
X003145Y012041D02*
X002830Y012041D01*
X002725Y011936D01*
X002725Y011621D01*
X003145Y011621D01*
X003145Y011401D02*
X003145Y011191D01*
X003145Y011296D02*
X002725Y011296D01*
X002725Y011191D01*
X002725Y010967D02*
X003145Y010967D01*
X003145Y010652D01*
X003040Y010547D01*
X002725Y010547D01*
X002725Y010322D02*
X002725Y010007D01*
X002830Y009902D01*
X003040Y009902D01*
X003145Y010007D01*
X003145Y010322D01*
X002514Y010322D01*
X002514Y009678D02*
X002514Y009257D01*
X003145Y009257D01*
X003145Y009678D01*
X002830Y009468D02*
X002830Y009257D01*
X003145Y009033D02*
X003145Y008613D01*
X002514Y008613D01*
X002620Y008389D02*
X002514Y008284D01*
X002514Y007968D01*
X003145Y007968D01*
X003145Y008284D01*
X003040Y008389D01*
X002935Y008389D01*
X002830Y008284D01*
X002830Y007968D01*
X002830Y008284D02*
X002725Y008389D01*
X002620Y008389D01*
X002514Y011296D02*
X002409Y011296D01*
D13*
X008505Y012458D02*
X008505Y012909D01*
X008805Y012909D01*
X008655Y012684D02*
X008505Y012684D01*
X008965Y012684D02*
X008965Y012533D01*
X009040Y012458D01*
X009191Y012458D01*
X009266Y012533D01*
X009266Y012684D01*
X009191Y012759D01*
X009040Y012759D01*
X008965Y012684D01*
X009426Y012759D02*
X009426Y012458D01*
X009426Y012608D02*
X009576Y012759D01*
X009651Y012759D01*
X010270Y012684D02*
X010270Y012533D01*
X010345Y012458D01*
X010570Y012458D01*
X010570Y012909D01*
X010570Y012759D02*
X010345Y012759D01*
X010270Y012684D01*
X010730Y012684D02*
X010730Y012533D01*
X010805Y012458D01*
X010955Y012458D01*
X011030Y012608D02*
X010730Y012608D01*
X010730Y012684D02*
X010805Y012759D01*
X010955Y012759D01*
X011030Y012684D01*
X011030Y012608D01*
X011191Y012759D02*
X011341Y012759D01*
X011266Y012834D02*
X011266Y012533D01*
X011341Y012458D01*
X011498Y012533D02*
X011573Y012608D01*
X011798Y012608D01*
X011798Y012684D02*
X011798Y012458D01*
X011573Y012458D01*
X011498Y012533D01*
X011573Y012759D02*
X011723Y012759D01*
X011798Y012684D01*
X011958Y012759D02*
X012033Y012759D01*
X012033Y012458D01*
X011958Y012458D02*
X012108Y012458D01*
X012265Y012458D02*
X012415Y012458D01*
X012340Y012458D02*
X012340Y012909D01*
X012265Y012909D01*
X012033Y012909D02*
X012033Y012984D01*
X012572Y012684D02*
X012647Y012759D01*
X012872Y012759D01*
X012797Y012608D02*
X012872Y012533D01*
X012797Y012458D01*
X012572Y012458D01*
X012647Y012608D02*
X012572Y012684D01*
X012647Y012608D02*
X012797Y012608D01*
X013493Y012533D02*
X013568Y012458D01*
X013718Y012458D01*
X013793Y012533D01*
X013793Y012684D01*
X013718Y012759D01*
X013568Y012759D01*
X013493Y012684D01*
X013493Y012533D01*
X013953Y012458D02*
X013953Y012759D01*
X014178Y012759D01*
X014253Y012684D01*
X014253Y012458D01*
X014874Y012458D02*
X014874Y012909D01*
X014949Y012759D02*
X015099Y012759D01*
X015174Y012684D01*
X015174Y012458D01*
X015334Y012533D02*
X015409Y012458D01*
X015559Y012458D01*
X015634Y012533D01*
X015634Y012684D01*
X015559Y012759D01*
X015409Y012759D01*
X015334Y012684D01*
X015334Y012533D01*
X014949Y012759D02*
X014874Y012684D01*
X015795Y012759D02*
X015795Y012533D01*
X015870Y012458D01*
X015945Y012533D01*
X016020Y012458D01*
X016095Y012533D01*
X016095Y012759D01*
X016715Y012759D02*
X016865Y012759D01*
X016790Y012834D02*
X016790Y012533D01*
X016865Y012458D01*
X017022Y012533D02*
X017097Y012458D01*
X017247Y012458D01*
X017323Y012533D01*
X017323Y012684D01*
X017247Y012759D01*
X017097Y012759D01*
X017022Y012684D01*
X017022Y012533D01*
X017943Y012533D02*
X018018Y012458D01*
X018243Y012458D01*
X018243Y012759D01*
X018403Y012684D02*
X018479Y012759D01*
X018704Y012759D01*
X018629Y012608D02*
X018479Y012608D01*
X018403Y012684D01*
X018403Y012458D02*
X018629Y012458D01*
X018704Y012533D01*
X018629Y012608D01*
X018864Y012608D02*
X019164Y012608D01*
X019164Y012684D01*
X019089Y012759D01*
X018939Y012759D01*
X018864Y012684D01*
X018864Y012533D01*
X018939Y012458D01*
X019089Y012458D01*
X019785Y012759D02*
X019935Y012759D01*
X019860Y012834D02*
X019860Y012533D01*
X019935Y012458D01*
X020092Y012458D02*
X020092Y012909D01*
X020167Y012759D02*
X020317Y012759D01*
X020392Y012684D01*
X020392Y012458D01*
X020552Y012533D02*
X020552Y012684D01*
X020627Y012759D01*
X020777Y012759D01*
X020852Y012684D01*
X020852Y012608D01*
X020552Y012608D01*
X020552Y012533D02*
X020627Y012458D01*
X020777Y012458D01*
X020167Y012759D02*
X020092Y012684D01*
X017943Y012759D02*
X017943Y012533D01*
X016121Y011459D02*
X015971Y011459D01*
X016046Y011534D02*
X016046Y011233D01*
X016121Y011158D01*
X015814Y011158D02*
X015664Y011158D01*
X015739Y011158D02*
X015739Y011459D01*
X015664Y011459D01*
X015504Y011459D02*
X015279Y011459D01*
X015204Y011384D01*
X015279Y011308D01*
X015429Y011308D01*
X015504Y011233D01*
X015429Y011158D01*
X015204Y011158D01*
X015047Y011158D02*
X014897Y011158D01*
X014972Y011158D02*
X014972Y011459D01*
X014897Y011459D01*
X014737Y011459D02*
X014587Y011158D01*
X014437Y011459D01*
X014972Y011609D02*
X014972Y011684D01*
X015739Y011684D02*
X015739Y011609D01*
X013816Y011609D02*
X013816Y011158D01*
X013591Y011158D01*
X013516Y011233D01*
X013516Y011384D01*
X013591Y011459D01*
X013816Y011459D01*
X013359Y011158D02*
X013209Y011158D01*
X013284Y011158D02*
X013284Y011609D01*
X013209Y011609D01*
X013049Y011384D02*
X013049Y011308D01*
X012749Y011308D01*
X012749Y011233D02*
X012749Y011384D01*
X012824Y011459D01*
X012974Y011459D01*
X013049Y011384D01*
X012974Y011158D02*
X012824Y011158D01*
X012749Y011233D01*
X012592Y011158D02*
X012442Y011158D01*
X012517Y011158D02*
X012517Y011459D01*
X012442Y011459D01*
X012517Y011609D02*
X012517Y011684D01*
X012281Y011384D02*
X012206Y011459D01*
X012056Y011459D01*
X011981Y011384D01*
X011821Y011308D02*
X011821Y011233D01*
X011746Y011158D01*
X011596Y011158D01*
X011521Y011233D01*
X011596Y011384D02*
X011746Y011384D01*
X011821Y011308D01*
X011981Y011158D02*
X011981Y011609D01*
X011821Y011534D02*
X011746Y011609D01*
X011596Y011609D01*
X011521Y011534D01*
X011521Y011459D01*
X011596Y011384D01*
X011361Y011384D02*
X011060Y011384D01*
X010900Y011459D02*
X010675Y011459D01*
X010600Y011384D01*
X010600Y011233D01*
X010675Y011158D01*
X010900Y011158D01*
X010900Y011609D01*
X010368Y011609D02*
X010368Y011158D01*
X010293Y011158D02*
X010443Y011158D01*
X010133Y011308D02*
X010133Y011384D01*
X010058Y011459D01*
X009908Y011459D01*
X009833Y011384D01*
X009833Y011233D01*
X009908Y011158D01*
X010058Y011158D01*
X010133Y011308D02*
X009833Y011308D01*
X009676Y011158D02*
X009526Y011158D01*
X009601Y011158D02*
X009601Y011459D01*
X009526Y011459D01*
X009601Y011609D02*
X009601Y011684D01*
X009366Y011384D02*
X009366Y011158D01*
X009366Y011384D02*
X009291Y011459D01*
X009140Y011459D01*
X009065Y011384D01*
X008905Y011308D02*
X008830Y011384D01*
X008680Y011384D01*
X008605Y011459D01*
X008605Y011534D01*
X008680Y011609D01*
X008830Y011609D01*
X008905Y011534D01*
X009065Y011609D02*
X009065Y011158D01*
X008905Y011233D02*
X008830Y011158D01*
X008680Y011158D01*
X008605Y011233D01*
X008905Y011233D02*
X008905Y011308D01*
X010293Y011609D02*
X010368Y011609D01*
X012281Y011384D02*
X012281Y011158D01*
X016725Y005379D02*
X016950Y005379D01*
X017025Y005304D01*
X017025Y005154D01*
X016950Y005078D01*
X016725Y005078D01*
X016725Y004928D02*
X016725Y005379D01*
X017185Y005304D02*
X017185Y005003D01*
X017260Y004928D01*
X017411Y004928D01*
X017486Y005003D01*
X017486Y005304D01*
X017411Y005379D01*
X017260Y005379D01*
X017185Y005304D01*
X017646Y005379D02*
X017646Y004928D01*
X017796Y005078D01*
X017946Y004928D01*
X017946Y005379D01*
X018106Y005379D02*
X018106Y004928D01*
X018406Y004928D01*
X018567Y004928D02*
X018567Y005379D01*
X018792Y005379D01*
X018867Y005304D01*
X018867Y005154D01*
X018792Y005078D01*
X018567Y005078D01*
X018717Y005078D02*
X018867Y004928D01*
X018406Y005379D02*
X018106Y005379D01*
X018106Y005154D02*
X018256Y005154D01*
X021100Y003682D02*
X021158Y003741D01*
X021392Y003507D01*
X021450Y003566D01*
X021450Y003682D01*
X021392Y003741D01*
X021158Y003741D01*
X021100Y003682D02*
X021100Y003566D01*
X021158Y003507D01*
X021392Y003507D01*
X021450Y003372D02*
X021217Y003372D01*
X021100Y003256D01*
X021217Y003139D01*
X021450Y003139D01*
X021275Y003139D02*
X021275Y003372D01*
X022000Y003256D02*
X022117Y003372D01*
X022350Y003372D01*
X022350Y003507D02*
X022350Y003741D01*
X022350Y003624D02*
X022000Y003624D01*
X022117Y003507D01*
X022175Y003372D02*
X022175Y003139D01*
X022117Y003139D02*
X022000Y003256D01*
X022117Y003139D02*
X022350Y003139D01*
X023100Y003256D02*
X023217Y003372D01*
X023450Y003372D01*
X023450Y003507D02*
X023217Y003741D01*
X023158Y003741D01*
X023100Y003682D01*
X023100Y003566D01*
X023158Y003507D01*
X023275Y003372D02*
X023275Y003139D01*
X023217Y003139D02*
X023100Y003256D01*
X023217Y003139D02*
X023450Y003139D01*
X023450Y003507D02*
X023450Y003741D01*
X024100Y003682D02*
X024158Y003741D01*
X024217Y003741D01*
X024275Y003682D01*
X024333Y003741D01*
X024392Y003741D01*
X024450Y003682D01*
X024450Y003566D01*
X024392Y003507D01*
X024450Y003372D02*
X024217Y003372D01*
X024100Y003256D01*
X024217Y003139D01*
X024450Y003139D01*
X024275Y003139D02*
X024275Y003372D01*
X024158Y003507D02*
X024100Y003566D01*
X024100Y003682D01*
X024275Y003682D02*
X024275Y003624D01*
X025158Y004839D02*
X025217Y004839D01*
X025275Y004897D01*
X025275Y005014D01*
X025333Y005072D01*
X025392Y005072D01*
X025450Y005014D01*
X025450Y004897D01*
X025392Y004839D01*
X025158Y004839D02*
X025100Y004897D01*
X025100Y005014D01*
X025158Y005072D01*
X025100Y005207D02*
X025100Y005382D01*
X025158Y005441D01*
X025392Y005441D01*
X025450Y005382D01*
X025450Y005207D01*
X025100Y005207D01*
X025217Y005576D02*
X025100Y005692D01*
X025217Y005809D01*
X025450Y005809D01*
X025275Y005809D02*
X025275Y005576D01*
X025217Y005576D02*
X025450Y005576D01*
X026100Y005576D02*
X026450Y005576D01*
X026450Y005809D01*
X026392Y005441D02*
X026450Y005382D01*
X026450Y005266D01*
X026392Y005207D01*
X026158Y005207D01*
X026100Y005266D01*
X026100Y005382D01*
X026158Y005441D01*
X026158Y005072D02*
X026100Y005014D01*
X026100Y004897D01*
X026158Y004839D01*
X026217Y004839D01*
X026275Y004897D01*
X026275Y005014D01*
X026333Y005072D01*
X026392Y005072D01*
X026450Y005014D01*
X026450Y004897D01*
X026392Y004839D01*
X026450Y009589D02*
X026217Y009589D01*
X026100Y009706D01*
X026217Y009822D01*
X026450Y009822D01*
X026392Y009957D02*
X026450Y010016D01*
X026450Y010132D01*
X026392Y010191D01*
X026275Y010191D01*
X026217Y010132D01*
X026217Y010074D01*
X026275Y009957D01*
X026100Y009957D01*
X026100Y010191D01*
X026275Y009822D02*
X026275Y009589D01*
X025450Y009589D02*
X025217Y009589D01*
X025100Y009706D01*
X025217Y009822D01*
X025450Y009822D01*
X025275Y009822D02*
X025275Y009589D01*
X025275Y009957D02*
X025275Y010191D01*
X025100Y010132D02*
X025275Y009957D01*
X025450Y010132D02*
X025100Y010132D01*
X025330Y010923D02*
X025330Y011073D01*
X025330Y010998D02*
X025780Y010998D01*
X025780Y010923D02*
X025780Y011073D01*
X025705Y011230D02*
X025405Y011230D01*
X025330Y011305D01*
X025330Y011455D01*
X025405Y011530D01*
X025405Y011690D02*
X025330Y011765D01*
X025330Y011915D01*
X025405Y011990D01*
X025555Y011915D02*
X025630Y011990D01*
X025705Y011990D01*
X025780Y011915D01*
X025780Y011765D01*
X025705Y011690D01*
X025705Y011530D02*
X025780Y011455D01*
X025780Y011305D01*
X025705Y011230D01*
X025480Y011690D02*
X025555Y011765D01*
X025555Y011915D01*
X025480Y011690D02*
X025405Y011690D01*
X025330Y012151D02*
X025330Y012376D01*
X025405Y012451D01*
X025555Y012451D01*
X025630Y012376D01*
X025630Y012151D01*
X025780Y012151D02*
X025330Y012151D01*
X004902Y019996D02*
X004174Y019996D01*
X004174Y020075D01*
X003386Y020075D01*
X003386Y019996D01*
X002658Y019996D01*
X002658Y020586D01*
X002560Y020586D01*
X002560Y020980D01*
X002658Y020980D01*
X002658Y021571D01*
X003386Y021571D01*
X003386Y021492D01*
X004174Y021492D01*
X004174Y021571D01*
X004902Y021571D01*
X004902Y019996D01*
X004174Y019996D02*
X004174Y019917D01*
X003386Y019917D01*
X003386Y019996D01*
X003308Y020783D02*
X003310Y020826D01*
X003316Y020868D01*
X003326Y020910D01*
X003339Y020951D01*
X003356Y020991D01*
X003377Y021028D01*
X003401Y021064D01*
X003428Y021097D01*
X003458Y021128D01*
X003491Y021156D01*
X003526Y021181D01*
X003563Y021202D01*
X003602Y021220D01*
X003642Y021234D01*
X003684Y021245D01*
X003726Y021252D01*
X003769Y021255D01*
X003812Y021254D01*
X003855Y021249D01*
X003897Y021240D01*
X003938Y021228D01*
X003978Y021212D01*
X004016Y021192D01*
X004052Y021169D01*
X004086Y021142D01*
X004118Y021113D01*
X004146Y021081D01*
X004172Y021046D01*
X004194Y021010D01*
X004213Y020971D01*
X004228Y020931D01*
X004240Y020890D01*
X004248Y020847D01*
X004252Y020804D01*
X004252Y020762D01*
X004248Y020719D01*
X004240Y020676D01*
X004228Y020635D01*
X004213Y020595D01*
X004194Y020556D01*
X004172Y020520D01*
X004146Y020485D01*
X004118Y020453D01*
X004086Y020424D01*
X004052Y020397D01*
X004016Y020374D01*
X003978Y020354D01*
X003938Y020338D01*
X003897Y020326D01*
X003855Y020317D01*
X003812Y020312D01*
X003769Y020311D01*
X003726Y020314D01*
X003684Y020321D01*
X003642Y020332D01*
X003602Y020346D01*
X003563Y020364D01*
X003526Y020385D01*
X003491Y020410D01*
X003458Y020438D01*
X003428Y020469D01*
X003401Y020502D01*
X003377Y020538D01*
X003356Y020575D01*
X003339Y020615D01*
X003326Y020656D01*
X003316Y020698D01*
X003310Y020740D01*
X003308Y020783D01*
X003189Y020783D02*
X003191Y020831D01*
X003197Y020879D01*
X003207Y020926D01*
X003220Y020972D01*
X003238Y021017D01*
X003258Y021061D01*
X003283Y021103D01*
X003311Y021142D01*
X003341Y021179D01*
X003375Y021213D01*
X003412Y021245D01*
X003450Y021274D01*
X003491Y021299D01*
X003534Y021321D01*
X003579Y021339D01*
X003625Y021353D01*
X003672Y021364D01*
X003720Y021371D01*
X003768Y021374D01*
X003816Y021373D01*
X003864Y021368D01*
X003912Y021359D01*
X003958Y021347D01*
X004003Y021330D01*
X004047Y021310D01*
X004089Y021287D01*
X004129Y021260D01*
X004167Y021230D01*
X004202Y021197D01*
X004234Y021161D01*
X004264Y021123D01*
X004290Y021082D01*
X004312Y021039D01*
X004332Y020995D01*
X004347Y020950D01*
X004359Y020903D01*
X004367Y020855D01*
X004371Y020807D01*
X004371Y020759D01*
X004367Y020711D01*
X004359Y020663D01*
X004347Y020616D01*
X004332Y020571D01*
X004312Y020527D01*
X004290Y020484D01*
X004264Y020443D01*
X004234Y020405D01*
X004202Y020369D01*
X004167Y020336D01*
X004129Y020306D01*
X004089Y020279D01*
X004047Y020256D01*
X004003Y020236D01*
X003958Y020219D01*
X003912Y020207D01*
X003864Y020198D01*
X003816Y020193D01*
X003768Y020192D01*
X003720Y020195D01*
X003672Y020202D01*
X003625Y020213D01*
X003579Y020227D01*
X003534Y020245D01*
X003491Y020267D01*
X003450Y020292D01*
X003412Y020321D01*
X003375Y020353D01*
X003341Y020387D01*
X003311Y020424D01*
X003283Y020463D01*
X003258Y020505D01*
X003238Y020549D01*
X003220Y020594D01*
X003207Y020640D01*
X003197Y020687D01*
X003191Y020735D01*
X003189Y020783D01*
X003386Y021571D02*
X003386Y021649D01*
X004174Y021649D01*
X004174Y021571D01*
D14*
X008180Y021583D02*
X008180Y021083D01*
X008430Y020833D01*
X008930Y020833D01*
X009180Y021083D01*
X009180Y021583D01*
X008930Y021833D01*
X008430Y021833D01*
X008180Y021583D01*
X009180Y021583D02*
X009430Y021833D01*
X009930Y021833D01*
X010180Y021583D01*
X010430Y021833D01*
X010930Y021833D01*
X011180Y021583D01*
X011430Y021833D01*
X011930Y021833D01*
X012180Y021583D01*
X012430Y021833D01*
X012930Y021833D01*
X013180Y021583D01*
X013430Y021833D01*
X013930Y021833D01*
X014180Y021583D01*
X014430Y021833D01*
X014930Y021833D01*
X015180Y021583D01*
X015430Y021833D01*
X015930Y021833D01*
X016180Y021583D01*
X016430Y021833D01*
X016930Y021833D01*
X017180Y021583D01*
X017430Y021833D01*
X017930Y021833D01*
X018180Y021583D01*
X018180Y021083D01*
X017930Y020833D01*
X017430Y020833D01*
X017180Y021083D01*
X016930Y020833D01*
X016430Y020833D01*
X016180Y021083D01*
X016180Y021583D01*
X016180Y021083D02*
X015930Y020833D01*
X015430Y020833D01*
X015180Y021083D01*
X014930Y020833D01*
X014430Y020833D01*
X014180Y021083D01*
X013930Y020833D01*
X013430Y020833D01*
X013180Y021083D01*
X013180Y021583D01*
X013180Y021083D02*
X012930Y020833D01*
X012430Y020833D01*
X012180Y021083D01*
X011930Y020833D01*
X011430Y020833D01*
X011180Y021083D01*
X010930Y020833D01*
X010430Y020833D01*
X010180Y021083D01*
X010180Y021583D01*
X010180Y021083D02*
X009930Y020833D01*
X009430Y020833D01*
X009180Y021083D01*
X008872Y020537D02*
X008872Y020203D01*
X008371Y020203D01*
X008455Y020021D02*
X008371Y019937D01*
X008371Y019771D01*
X008455Y019687D01*
X008788Y019687D01*
X008872Y019771D01*
X008872Y019937D01*
X008788Y020021D01*
X008788Y019505D02*
X008872Y019422D01*
X008872Y019255D01*
X008788Y019172D01*
X008622Y019255D02*
X008622Y019422D01*
X008705Y019505D01*
X008788Y019505D01*
X008622Y019255D02*
X008538Y019172D01*
X008455Y019172D01*
X008371Y019255D01*
X008371Y019422D01*
X008455Y019505D01*
X009371Y019422D02*
X009371Y019255D01*
X009455Y019172D01*
X009538Y019172D01*
X009622Y019255D01*
X009622Y019422D01*
X009705Y019505D01*
X009788Y019505D01*
X009872Y019422D01*
X009872Y019255D01*
X009788Y019172D01*
X009455Y019505D02*
X009371Y019422D01*
X009371Y019687D02*
X009371Y019937D01*
X009455Y020021D01*
X009788Y020021D01*
X009872Y019937D01*
X009872Y019687D01*
X009371Y019687D01*
X009538Y020203D02*
X009371Y020370D01*
X009538Y020537D01*
X009872Y020537D01*
X009622Y020537D02*
X009622Y020203D01*
X009538Y020203D02*
X009872Y020203D01*
X010371Y020203D02*
X010371Y020537D01*
X010622Y020370D02*
X010622Y020203D01*
X010872Y020203D02*
X010371Y020203D01*
X010371Y020021D02*
X010371Y019687D01*
X010872Y019687D01*
X010872Y020021D01*
X010622Y019854D02*
X010622Y019687D01*
X010622Y019505D02*
X010455Y019505D01*
X010371Y019422D01*
X010371Y019172D01*
X010872Y019172D01*
X010705Y019172D02*
X010705Y019422D01*
X010622Y019505D01*
X010705Y019338D02*
X010872Y019505D01*
X010872Y018990D02*
X010538Y018990D01*
X010371Y018823D01*
X010538Y018656D01*
X010872Y018656D01*
X010622Y018656D02*
X010622Y018990D01*
X011417Y019245D02*
X011500Y019162D01*
X011834Y019162D01*
X011917Y019245D01*
X011917Y019412D01*
X011834Y019495D01*
X011667Y019495D01*
X011667Y019328D01*
X011500Y019495D02*
X011417Y019412D01*
X011417Y019245D01*
X011417Y019677D02*
X011917Y020011D01*
X011417Y020011D01*
X011417Y020193D02*
X011417Y020443D01*
X011500Y020527D01*
X011834Y020527D01*
X011917Y020443D01*
X011917Y020193D01*
X011417Y020193D01*
X011417Y019677D02*
X011917Y019677D01*
X012180Y021083D02*
X012180Y021583D01*
X011180Y021583D02*
X011180Y021083D01*
X014180Y021083D02*
X014180Y021583D01*
X015180Y021583D02*
X015180Y021083D01*
X016470Y019903D02*
X016850Y019903D01*
X016850Y019777D02*
X016470Y019777D01*
X016596Y019713D02*
X016596Y019903D01*
X016596Y019967D01*
X016723Y019967D02*
X016723Y019713D01*
X015900Y019403D02*
X015520Y019403D01*
X015520Y019277D02*
X015900Y019277D01*
X015773Y019213D02*
X015773Y019467D01*
X015646Y019467D02*
X015646Y019403D01*
X015646Y019213D01*
X017410Y018194D02*
X017410Y017813D01*
X017537Y017813D01*
X017680Y017940D02*
X017934Y017940D01*
X017934Y018067D02*
X017870Y018067D01*
X017680Y018067D01*
X017743Y018194D02*
X017743Y017813D01*
X017870Y017813D02*
X017870Y018194D01*
X018085Y018067D02*
X018339Y018067D01*
X018339Y017940D02*
X018085Y017940D01*
X018490Y017940D02*
X018681Y017940D01*
X018744Y018003D01*
X018744Y018130D01*
X018681Y018194D01*
X018490Y018194D01*
X018490Y017813D01*
X018896Y017813D02*
X019022Y017940D01*
X019149Y017813D01*
X019149Y018194D01*
X019301Y018194D02*
X019427Y018067D01*
X019554Y018194D01*
X019554Y017813D01*
X019706Y017813D02*
X019833Y017813D01*
X019833Y018194D01*
X019706Y018194D01*
X019301Y018194D02*
X019301Y017813D01*
X018896Y017813D02*
X018896Y018194D01*
X017537Y018194D02*
X017410Y018194D01*
X020120Y019777D02*
X020500Y019777D01*
X020500Y019903D02*
X020120Y019903D01*
X020246Y019903D02*
X020246Y019713D01*
X020373Y019713D02*
X020373Y019967D01*
X020246Y019967D02*
X020246Y019903D01*
X021070Y019903D02*
X021450Y019903D01*
X021450Y019777D02*
X021070Y019777D01*
X021196Y019713D02*
X021196Y019903D01*
X021196Y019967D01*
X021323Y019967D02*
X021323Y019713D01*
X021530Y020833D02*
X021030Y020833D01*
X020780Y021083D01*
X020530Y020833D01*
X020030Y020833D01*
X019780Y021083D01*
X019530Y020833D01*
X019030Y020833D01*
X018780Y021083D01*
X018780Y021583D01*
X019030Y021833D01*
X019530Y021833D01*
X019780Y021583D01*
X020030Y021833D01*
X020530Y021833D01*
X020780Y021583D01*
X021030Y021833D01*
X021530Y021833D01*
X021780Y021583D01*
X022030Y021833D01*
X022530Y021833D01*
X022780Y021583D01*
X023030Y021833D01*
X023530Y021833D01*
X023780Y021583D01*
X024030Y021833D01*
X024530Y021833D01*
X024780Y021583D01*
X025030Y021833D01*
X025530Y021833D01*
X025780Y021583D01*
X026030Y021833D01*
X026530Y021833D01*
X026780Y021583D01*
X026780Y021083D01*
X026530Y020833D01*
X026030Y020833D01*
X025780Y021083D01*
X025530Y020833D01*
X025030Y020833D01*
X024780Y021083D01*
X024780Y021583D01*
X024780Y021083D02*
X024530Y020833D01*
X024030Y020833D01*
X023780Y021083D01*
X023530Y020833D01*
X023030Y020833D01*
X022780Y021083D01*
X022530Y020833D01*
X022030Y020833D01*
X021780Y021083D01*
X021780Y021583D01*
X021780Y021083D02*
X021530Y020833D01*
X020780Y021083D02*
X020780Y021583D01*
X019780Y021583D02*
X019780Y021083D01*
X017180Y021083D02*
X017180Y021583D01*
X022780Y021583D02*
X022780Y021083D01*
X023780Y021083D02*
X023780Y021583D01*
X023323Y019967D02*
X023323Y019713D01*
X023196Y019713D02*
X023196Y019903D01*
X023196Y019967D01*
X023070Y019903D02*
X023450Y019903D01*
X023450Y019777D02*
X023070Y019777D01*
X025048Y019317D02*
X025548Y018984D01*
X025548Y019317D02*
X025048Y018984D01*
X025048Y018802D02*
X025048Y018468D01*
X025048Y018635D02*
X025548Y018635D01*
X026050Y018714D02*
X026050Y018463D01*
X026550Y018463D01*
X026383Y018463D02*
X026383Y018714D01*
X026300Y018797D01*
X026133Y018797D01*
X026050Y018714D01*
X026050Y018979D02*
X026550Y019313D01*
X026550Y018979D02*
X026050Y019313D01*
X026550Y018797D02*
X026383Y018630D01*
X025780Y021083D02*
X025780Y021583D01*
X026080Y013833D02*
X027580Y013833D01*
X027830Y013583D01*
X027830Y013083D01*
X027580Y012833D01*
X026080Y012833D01*
X025830Y012583D01*
X025830Y012083D01*
X026080Y011833D01*
X025830Y011583D01*
X025830Y011083D01*
X026080Y010833D01*
X027580Y010833D01*
X027830Y011083D01*
X027830Y011583D01*
X027580Y011833D01*
X026080Y011833D01*
X026080Y012833D02*
X025830Y013083D01*
X025830Y013583D01*
X026080Y013833D01*
X027580Y012833D02*
X027830Y012583D01*
X027830Y012083D01*
X027580Y011833D01*
X027616Y009682D02*
X027836Y009682D01*
X027616Y009682D02*
X027542Y009609D01*
X027542Y009462D01*
X027616Y009389D01*
X027542Y009222D02*
X027542Y009002D01*
X027616Y008928D01*
X027763Y008928D01*
X027836Y009002D01*
X027836Y009222D01*
X027836Y009389D02*
X027396Y009389D01*
X027542Y008768D02*
X027542Y008621D01*
X027469Y008695D02*
X027763Y008695D01*
X027836Y008768D01*
X027836Y008461D02*
X027836Y008314D01*
X027836Y008388D02*
X027542Y008388D01*
X027542Y008314D01*
X027396Y008388D02*
X027322Y008388D01*
X027542Y008148D02*
X027763Y008148D01*
X027836Y008074D01*
X027763Y008001D01*
X027836Y007927D01*
X027763Y007854D01*
X027542Y007854D01*
X027469Y007687D02*
X027396Y007614D01*
X027396Y007467D01*
X027469Y007394D01*
X027542Y007394D01*
X027616Y007467D01*
X027616Y007614D01*
X027689Y007687D01*
X027763Y007687D01*
X027836Y007614D01*
X027836Y007467D01*
X027763Y007394D01*
X027763Y006766D02*
X027836Y006693D01*
X027836Y006546D01*
X027763Y006473D01*
X027469Y006473D01*
X027396Y006546D01*
X027396Y006693D01*
X027469Y006766D01*
X027469Y006306D02*
X027396Y006233D01*
X027396Y006086D01*
X027469Y006012D01*
X027396Y005852D02*
X027396Y005705D01*
X027396Y005779D02*
X027836Y005779D01*
X027836Y005852D02*
X027836Y005705D01*
X027836Y006012D02*
X027542Y006306D01*
X027469Y006306D01*
X027836Y006306D02*
X027836Y006012D01*
X026530Y002833D02*
X026030Y002833D01*
X025780Y002583D01*
X025780Y002083D01*
X026030Y001833D01*
X026530Y001833D01*
X026780Y002083D01*
X026780Y002583D01*
X026530Y002833D01*
X025780Y002583D02*
X025530Y002833D01*
X025030Y002833D01*
X024780Y002583D01*
X024780Y002083D01*
X025030Y001833D01*
X025530Y001833D01*
X025780Y002083D01*
X024780Y002083D02*
X024530Y001833D01*
X024030Y001833D01*
X023780Y002083D01*
X023530Y001833D01*
X023030Y001833D01*
X022780Y002083D01*
X022530Y001833D01*
X022030Y001833D01*
X021780Y002083D01*
X021530Y001833D01*
X021030Y001833D01*
X020780Y002083D01*
X020780Y002583D01*
X021030Y002833D01*
X021530Y002833D01*
X021780Y002583D01*
X022030Y002833D01*
X022530Y002833D01*
X022780Y002583D01*
X022780Y002083D01*
X022780Y002583D02*
X023030Y002833D01*
X023530Y002833D01*
X023780Y002583D01*
X024030Y002833D01*
X024530Y002833D01*
X024780Y002583D01*
X023780Y002583D02*
X023780Y002083D01*
X021780Y002083D02*
X021780Y002583D01*
X019780Y002583D02*
X019780Y002083D01*
X019530Y001833D01*
X019030Y001833D01*
X018780Y002083D01*
X018530Y001833D01*
X018030Y001833D01*
X017780Y002083D01*
X017530Y001833D01*
X017030Y001833D01*
X016780Y002083D01*
X016530Y001833D01*
X016030Y001833D01*
X015780Y002083D01*
X015530Y001833D01*
X015030Y001833D01*
X014780Y002083D01*
X014530Y001833D01*
X014030Y001833D01*
X013780Y002083D01*
X013530Y001833D01*
X013030Y001833D01*
X012780Y002083D01*
X012530Y001833D01*
X012030Y001833D01*
X011780Y002083D01*
X011780Y002583D01*
X012030Y002833D01*
X012530Y002833D01*
X012780Y002583D01*
X013030Y002833D01*
X013530Y002833D01*
X013780Y002583D01*
X013780Y002083D01*
X013780Y002583D02*
X014030Y002833D01*
X014530Y002833D01*
X014780Y002583D01*
X015030Y002833D01*
X015530Y002833D01*
X015780Y002583D01*
X016030Y002833D01*
X016530Y002833D01*
X016780Y002583D01*
X016780Y002083D01*
X016780Y002583D02*
X017030Y002833D01*
X017530Y002833D01*
X017780Y002583D01*
X018030Y002833D01*
X018530Y002833D01*
X018780Y002583D01*
X019030Y002833D01*
X019530Y002833D01*
X019780Y002583D01*
X018780Y002583D02*
X018780Y002083D01*
X017780Y002083D02*
X017780Y002583D01*
X015780Y002583D02*
X015780Y002083D01*
X014780Y002083D02*
X014780Y002583D01*
X015033Y003063D02*
X014950Y003147D01*
X014950Y003314D01*
X015033Y003397D01*
X015116Y003397D01*
X015200Y003314D01*
X015283Y003397D01*
X015367Y003397D01*
X015450Y003314D01*
X015450Y003147D01*
X015367Y003063D01*
X015200Y003230D02*
X015200Y003314D01*
X015283Y003579D02*
X014950Y003579D01*
X015283Y003579D02*
X015450Y003746D01*
X015283Y003913D01*
X014950Y003913D01*
X015033Y004095D02*
X014950Y004178D01*
X014950Y004345D01*
X015033Y004428D01*
X015116Y004428D01*
X015200Y004345D01*
X015283Y004428D01*
X015367Y004428D01*
X015450Y004345D01*
X015450Y004178D01*
X015367Y004095D01*
X015200Y004261D02*
X015200Y004345D01*
X014350Y004395D02*
X014350Y004228D01*
X014267Y004145D01*
X014100Y004228D02*
X014100Y004395D01*
X014183Y004478D01*
X014267Y004478D01*
X014350Y004395D01*
X014350Y004660D02*
X014350Y004994D01*
X014100Y004827D02*
X014100Y004660D01*
X013933Y004478D02*
X013850Y004395D01*
X013850Y004228D01*
X013933Y004145D01*
X014016Y004145D01*
X014100Y004228D01*
X014350Y003963D02*
X014350Y003629D01*
X013850Y003629D01*
X013850Y003963D01*
X014100Y003796D02*
X014100Y003629D01*
X014100Y003447D02*
X013933Y003447D01*
X013850Y003364D01*
X013850Y003113D01*
X014350Y003113D01*
X014183Y003113D02*
X014183Y003364D01*
X014100Y003447D01*
X014183Y003280D02*
X014350Y003447D01*
X013500Y003540D02*
X013500Y003707D01*
X013417Y003791D01*
X013083Y003791D01*
X013000Y003707D01*
X013000Y003540D01*
X013083Y003457D01*
X013417Y003457D01*
X013500Y003540D01*
X013500Y003280D02*
X013500Y003113D01*
X013500Y003197D02*
X013000Y003197D01*
X013000Y003280D02*
X013000Y003113D01*
X012780Y002583D02*
X012780Y002083D01*
X013000Y003973D02*
X013000Y004223D01*
X013083Y004306D01*
X013250Y004306D01*
X013333Y004223D01*
X013333Y003973D01*
X013333Y004140D02*
X013500Y004306D01*
X013500Y004488D02*
X013500Y004822D01*
X013500Y005004D02*
X013000Y005004D01*
X013000Y005338D01*
X013250Y005171D02*
X013250Y005004D01*
X013000Y004822D02*
X013000Y004488D01*
X013500Y004488D01*
X013250Y004488D02*
X013250Y004655D01*
X013850Y004660D02*
X013850Y004994D01*
X013850Y005176D02*
X013850Y005510D01*
X013850Y005343D02*
X014350Y005343D01*
X014350Y004660D02*
X013850Y004660D01*
X013500Y003973D02*
X013000Y003973D01*
D15*
X010107Y002433D02*
X009704Y002827D01*
X009704Y002040D01*
X010107Y002433D01*
X005894Y002642D02*
X005618Y002642D01*
X005894Y002642D02*
X005894Y003468D01*
X003768Y002642D02*
X001681Y002642D01*
X001681Y006185D01*
X005894Y006185D01*
X005894Y005358D01*
X007030Y007333D02*
X007530Y007333D01*
X007780Y007583D01*
X008030Y007333D01*
X008530Y007333D01*
X008780Y007583D01*
X009030Y007333D01*
X009530Y007333D01*
X009780Y007583D01*
X010030Y007333D01*
X010530Y007333D01*
X010780Y007583D01*
X011030Y007333D01*
X011530Y007333D01*
X011780Y007583D01*
X012030Y007333D01*
X012530Y007333D01*
X012780Y007583D01*
X013030Y007333D01*
X013530Y007333D01*
X013780Y007583D01*
X014030Y007333D01*
X014530Y007333D01*
X014780Y007583D01*
X015030Y007333D01*
X015530Y007333D01*
X015780Y007583D01*
X016030Y007333D01*
X016530Y007333D01*
X016780Y007583D01*
X017030Y007333D01*
X017530Y007333D01*
X017780Y007583D01*
X018030Y007333D01*
X018530Y007333D01*
X018780Y007583D01*
X019030Y007333D01*
X019530Y007333D01*
X019780Y007583D01*
X020030Y007333D01*
X020530Y007333D01*
X020780Y007583D01*
X020780Y008083D01*
X020530Y008333D01*
X020030Y008333D01*
X019780Y008083D01*
X019530Y008333D01*
X019030Y008333D01*
X018780Y008083D01*
X018530Y008333D01*
X018030Y008333D01*
X017780Y008083D01*
X017530Y008333D01*
X017030Y008333D01*
X016780Y008083D01*
X016530Y008333D01*
X016030Y008333D01*
X015780Y008083D01*
X015530Y008333D01*
X015030Y008333D01*
X014780Y008083D01*
X014530Y008333D01*
X014030Y008333D01*
X013780Y008083D01*
X013530Y008333D01*
X013030Y008333D01*
X012780Y008083D01*
X012530Y008333D01*
X012030Y008333D01*
X011780Y008083D01*
X011530Y008333D01*
X011030Y008333D01*
X010780Y008083D01*
X010530Y008333D01*
X010030Y008333D01*
X009780Y008083D01*
X009530Y008333D01*
X009030Y008333D01*
X008780Y008083D01*
X008530Y008333D01*
X008030Y008333D01*
X007780Y008083D01*
X007530Y008333D01*
X007030Y008333D01*
X006780Y008083D01*
X006780Y007583D01*
X007030Y007333D01*
X007030Y015333D02*
X007530Y015333D01*
X007780Y015583D01*
X008030Y015333D01*
X008530Y015333D01*
X008780Y015583D01*
X009030Y015333D01*
X009530Y015333D01*
X009780Y015583D01*
X010030Y015333D01*
X010530Y015333D01*
X010780Y015583D01*
X011030Y015333D01*
X011530Y015333D01*
X011780Y015583D01*
X012030Y015333D01*
X012530Y015333D01*
X012780Y015583D01*
X013030Y015333D01*
X013530Y015333D01*
X013780Y015583D01*
X014030Y015333D01*
X014530Y015333D01*
X014780Y015583D01*
X015030Y015333D01*
X015530Y015333D01*
X015780Y015583D01*
X016030Y015333D01*
X016530Y015333D01*
X016780Y015583D01*
X017030Y015333D01*
X017530Y015333D01*
X017780Y015583D01*
X018030Y015333D01*
X018530Y015333D01*
X018780Y015583D01*
X019030Y015333D01*
X019530Y015333D01*
X019780Y015583D01*
X020030Y015333D01*
X020530Y015333D01*
X020780Y015583D01*
X020780Y016083D01*
X020530Y016333D01*
X020030Y016333D01*
X019780Y016083D01*
X019530Y016333D01*
X019030Y016333D01*
X018780Y016083D01*
X018530Y016333D01*
X018030Y016333D01*
X017780Y016083D01*
X017530Y016333D01*
X017030Y016333D01*
X016780Y016083D01*
X016530Y016333D01*
X016030Y016333D01*
X015780Y016083D01*
X015530Y016333D01*
X015030Y016333D01*
X014780Y016083D01*
X014530Y016333D01*
X014030Y016333D01*
X013780Y016083D01*
X013530Y016333D01*
X013030Y016333D01*
X012780Y016083D01*
X012530Y016333D01*
X012030Y016333D01*
X011780Y016083D01*
X011530Y016333D01*
X011030Y016333D01*
X010780Y016083D01*
X010530Y016333D01*
X010030Y016333D01*
X009780Y016083D01*
X009530Y016333D01*
X009030Y016333D01*
X008780Y016083D01*
X008530Y016333D01*
X008030Y016333D01*
X007780Y016083D01*
X007530Y016333D01*
X007030Y016333D01*
X006780Y016083D01*
X006780Y015583D01*
X007030Y015333D01*
X025091Y009051D02*
X025091Y006216D01*
X026469Y006216D01*
X026469Y009051D01*
X025091Y009051D01*
X025433Y013162D02*
X025713Y013162D01*
X025573Y013162D02*
X025573Y013583D01*
X025433Y013443D01*
D16*
X026650Y015333D02*
X026652Y015383D01*
X026658Y015433D01*
X026668Y015482D01*
X026682Y015530D01*
X026699Y015577D01*
X026720Y015622D01*
X026745Y015666D01*
X026773Y015707D01*
X026805Y015746D01*
X026839Y015783D01*
X026876Y015817D01*
X026916Y015847D01*
X026958Y015874D01*
X027002Y015898D01*
X027048Y015919D01*
X027095Y015935D01*
X027143Y015948D01*
X027193Y015957D01*
X027242Y015962D01*
X027293Y015963D01*
X027343Y015960D01*
X027392Y015953D01*
X027441Y015942D01*
X027489Y015927D01*
X027535Y015909D01*
X027580Y015887D01*
X027623Y015861D01*
X027664Y015832D01*
X027703Y015800D01*
X027739Y015765D01*
X027771Y015727D01*
X027801Y015687D01*
X027828Y015644D01*
X027851Y015600D01*
X027870Y015554D01*
X027886Y015506D01*
X027898Y015457D01*
X027906Y015408D01*
X027910Y015358D01*
X027910Y015308D01*
X027906Y015258D01*
X027898Y015209D01*
X027886Y015160D01*
X027870Y015112D01*
X027851Y015066D01*
X027828Y015022D01*
X027801Y014979D01*
X027771Y014939D01*
X027739Y014901D01*
X027703Y014866D01*
X027664Y014834D01*
X027623Y014805D01*
X027580Y014779D01*
X027535Y014757D01*
X027489Y014739D01*
X027441Y014724D01*
X027392Y014713D01*
X027343Y014706D01*
X027293Y014703D01*
X027242Y014704D01*
X027193Y014709D01*
X027143Y014718D01*
X027095Y014731D01*
X027048Y014747D01*
X027002Y014768D01*
X026958Y014792D01*
X026916Y014819D01*
X026876Y014849D01*
X026839Y014883D01*
X026805Y014920D01*
X026773Y014959D01*
X026745Y015000D01*
X026720Y015044D01*
X026699Y015089D01*
X026682Y015136D01*
X026668Y015184D01*
X026658Y015233D01*
X026652Y015283D01*
X026650Y015333D01*
X025613Y008224D02*
X025615Y008249D01*
X025621Y008274D01*
X025630Y008298D01*
X025643Y008320D01*
X025660Y008340D01*
X025679Y008357D01*
X025700Y008371D01*
X025724Y008381D01*
X025748Y008388D01*
X025774Y008391D01*
X025799Y008390D01*
X025824Y008385D01*
X025848Y008376D01*
X025871Y008364D01*
X025891Y008349D01*
X025909Y008330D01*
X025924Y008309D01*
X025935Y008286D01*
X025943Y008262D01*
X025947Y008237D01*
X025947Y008211D01*
X025943Y008186D01*
X025935Y008162D01*
X025924Y008139D01*
X025909Y008118D01*
X025891Y008099D01*
X025871Y008084D01*
X025848Y008072D01*
X025824Y008063D01*
X025799Y008058D01*
X025774Y008057D01*
X025748Y008060D01*
X025724Y008067D01*
X025700Y008077D01*
X025679Y008091D01*
X025660Y008108D01*
X025643Y008128D01*
X025630Y008150D01*
X025621Y008174D01*
X025615Y008199D01*
X025613Y008224D01*
X025613Y007043D02*
X025615Y007068D01*
X025621Y007093D01*
X025630Y007117D01*
X025643Y007139D01*
X025660Y007159D01*
X025679Y007176D01*
X025700Y007190D01*
X025724Y007200D01*
X025748Y007207D01*
X025774Y007210D01*
X025799Y007209D01*
X025824Y007204D01*
X025848Y007195D01*
X025871Y007183D01*
X025891Y007168D01*
X025909Y007149D01*
X025924Y007128D01*
X025935Y007105D01*
X025943Y007081D01*
X025947Y007056D01*
X025947Y007030D01*
X025943Y007005D01*
X025935Y006981D01*
X025924Y006958D01*
X025909Y006937D01*
X025891Y006918D01*
X025871Y006903D01*
X025848Y006891D01*
X025824Y006882D01*
X025799Y006877D01*
X025774Y006876D01*
X025748Y006879D01*
X025724Y006886D01*
X025700Y006896D01*
X025679Y006910D01*
X025660Y006927D01*
X025643Y006947D01*
X025630Y006969D01*
X025621Y006993D01*
X025615Y007018D01*
X025613Y007043D01*
X026650Y004333D02*
X026652Y004383D01*
X026658Y004433D01*
X026668Y004482D01*
X026682Y004530D01*
X026699Y004577D01*
X026720Y004622D01*
X026745Y004666D01*
X026773Y004707D01*
X026805Y004746D01*
X026839Y004783D01*
X026876Y004817D01*
X026916Y004847D01*
X026958Y004874D01*
X027002Y004898D01*
X027048Y004919D01*
X027095Y004935D01*
X027143Y004948D01*
X027193Y004957D01*
X027242Y004962D01*
X027293Y004963D01*
X027343Y004960D01*
X027392Y004953D01*
X027441Y004942D01*
X027489Y004927D01*
X027535Y004909D01*
X027580Y004887D01*
X027623Y004861D01*
X027664Y004832D01*
X027703Y004800D01*
X027739Y004765D01*
X027771Y004727D01*
X027801Y004687D01*
X027828Y004644D01*
X027851Y004600D01*
X027870Y004554D01*
X027886Y004506D01*
X027898Y004457D01*
X027906Y004408D01*
X027910Y004358D01*
X027910Y004308D01*
X027906Y004258D01*
X027898Y004209D01*
X027886Y004160D01*
X027870Y004112D01*
X027851Y004066D01*
X027828Y004022D01*
X027801Y003979D01*
X027771Y003939D01*
X027739Y003901D01*
X027703Y003866D01*
X027664Y003834D01*
X027623Y003805D01*
X027580Y003779D01*
X027535Y003757D01*
X027489Y003739D01*
X027441Y003724D01*
X027392Y003713D01*
X027343Y003706D01*
X027293Y003703D01*
X027242Y003704D01*
X027193Y003709D01*
X027143Y003718D01*
X027095Y003731D01*
X027048Y003747D01*
X027002Y003768D01*
X026958Y003792D01*
X026916Y003819D01*
X026876Y003849D01*
X026839Y003883D01*
X026805Y003920D01*
X026773Y003959D01*
X026745Y004000D01*
X026720Y004044D01*
X026699Y004089D01*
X026682Y004136D01*
X026668Y004184D01*
X026658Y004233D01*
X026652Y004283D01*
X026650Y004333D01*
X006150Y002333D02*
X006152Y002383D01*
X006158Y002433D01*
X006168Y002482D01*
X006182Y002530D01*
X006199Y002577D01*
X006220Y002622D01*
X006245Y002666D01*
X006273Y002707D01*
X006305Y002746D01*
X006339Y002783D01*
X006376Y002817D01*
X006416Y002847D01*
X006458Y002874D01*
X006502Y002898D01*
X006548Y002919D01*
X006595Y002935D01*
X006643Y002948D01*
X006693Y002957D01*
X006742Y002962D01*
X006793Y002963D01*
X006843Y002960D01*
X006892Y002953D01*
X006941Y002942D01*
X006989Y002927D01*
X007035Y002909D01*
X007080Y002887D01*
X007123Y002861D01*
X007164Y002832D01*
X007203Y002800D01*
X007239Y002765D01*
X007271Y002727D01*
X007301Y002687D01*
X007328Y002644D01*
X007351Y002600D01*
X007370Y002554D01*
X007386Y002506D01*
X007398Y002457D01*
X007406Y002408D01*
X007410Y002358D01*
X007410Y002308D01*
X007406Y002258D01*
X007398Y002209D01*
X007386Y002160D01*
X007370Y002112D01*
X007351Y002066D01*
X007328Y002022D01*
X007301Y001979D01*
X007271Y001939D01*
X007239Y001901D01*
X007203Y001866D01*
X007164Y001834D01*
X007123Y001805D01*
X007080Y001779D01*
X007035Y001757D01*
X006989Y001739D01*
X006941Y001724D01*
X006892Y001713D01*
X006843Y001706D01*
X006793Y001703D01*
X006742Y001704D01*
X006693Y001709D01*
X006643Y001718D01*
X006595Y001731D01*
X006548Y001747D01*
X006502Y001768D01*
X006458Y001792D01*
X006416Y001819D01*
X006376Y001849D01*
X006339Y001883D01*
X006305Y001920D01*
X006273Y001959D01*
X006245Y002000D01*
X006220Y002044D01*
X006199Y002089D01*
X006182Y002136D01*
X006168Y002184D01*
X006158Y002233D01*
X006152Y002283D01*
X006150Y002333D01*
X006650Y021333D02*
X006652Y021383D01*
X006658Y021433D01*
X006668Y021482D01*
X006682Y021530D01*
X006699Y021577D01*
X006720Y021622D01*
X006745Y021666D01*
X006773Y021707D01*
X006805Y021746D01*
X006839Y021783D01*
X006876Y021817D01*
X006916Y021847D01*
X006958Y021874D01*
X007002Y021898D01*
X007048Y021919D01*
X007095Y021935D01*
X007143Y021948D01*
X007193Y021957D01*
X007242Y021962D01*
X007293Y021963D01*
X007343Y021960D01*
X007392Y021953D01*
X007441Y021942D01*
X007489Y021927D01*
X007535Y021909D01*
X007580Y021887D01*
X007623Y021861D01*
X007664Y021832D01*
X007703Y021800D01*
X007739Y021765D01*
X007771Y021727D01*
X007801Y021687D01*
X007828Y021644D01*
X007851Y021600D01*
X007870Y021554D01*
X007886Y021506D01*
X007898Y021457D01*
X007906Y021408D01*
X007910Y021358D01*
X007910Y021308D01*
X007906Y021258D01*
X007898Y021209D01*
X007886Y021160D01*
X007870Y021112D01*
X007851Y021066D01*
X007828Y021022D01*
X007801Y020979D01*
X007771Y020939D01*
X007739Y020901D01*
X007703Y020866D01*
X007664Y020834D01*
X007623Y020805D01*
X007580Y020779D01*
X007535Y020757D01*
X007489Y020739D01*
X007441Y020724D01*
X007392Y020713D01*
X007343Y020706D01*
X007293Y020703D01*
X007242Y020704D01*
X007193Y020709D01*
X007143Y020718D01*
X007095Y020731D01*
X007048Y020747D01*
X007002Y020768D01*
X006958Y020792D01*
X006916Y020819D01*
X006876Y020849D01*
X006839Y020883D01*
X006805Y020920D01*
X006773Y020959D01*
X006745Y021000D01*
X006720Y021044D01*
X006699Y021089D01*
X006682Y021136D01*
X006668Y021184D01*
X006658Y021233D01*
X006652Y021283D01*
X006650Y021333D01*
D17*
X006430Y016583D02*
X022130Y016583D01*
X023630Y015083D01*
X023630Y008583D01*
X022130Y007083D01*
X006430Y007083D01*
X006430Y016583D01*
D18*
X004714Y018832D02*
X004714Y019292D01*
X004867Y019292D02*
X004560Y019292D01*
X004407Y019292D02*
X004100Y019292D01*
X004100Y018832D01*
X004407Y018832D01*
X004254Y019062D02*
X004100Y019062D01*
X003947Y018985D02*
X003947Y018908D01*
X003870Y018832D01*
X003716Y018832D01*
X003640Y018908D01*
X003486Y018832D02*
X003179Y018832D01*
X003179Y019292D01*
X003486Y019292D01*
X003640Y019215D02*
X003640Y019139D01*
X003716Y019062D01*
X003870Y019062D01*
X003947Y018985D01*
X003947Y019215D02*
X003870Y019292D01*
X003716Y019292D01*
X003640Y019215D01*
X003333Y019062D02*
X003179Y019062D01*
X003026Y019062D02*
X003026Y019215D01*
X002949Y019292D01*
X002719Y019292D01*
X002719Y018832D01*
X002719Y018985D02*
X002949Y018985D01*
X003026Y019062D01*
X002872Y018985D02*
X003026Y018832D01*
X008890Y003183D02*
X010670Y003183D01*
X010670Y001683D02*
X008890Y001683D01*
X025195Y004460D02*
X025325Y004634D01*
X025455Y004460D01*
X025325Y004357D02*
X025325Y004184D01*
X026195Y004460D02*
X026325Y004634D01*
X026455Y004460D01*
X026325Y004357D02*
X026325Y004184D01*
D19*
X021065Y011178D02*
X020860Y011178D01*
X020792Y011247D01*
X020792Y011384D01*
X020860Y011452D01*
X021065Y011452D01*
X020605Y011452D02*
X020400Y011452D01*
X020331Y011384D01*
X020331Y011247D01*
X020400Y011178D01*
X020605Y011178D01*
X020170Y011178D02*
X020101Y011178D01*
X020101Y011247D01*
X020170Y011247D01*
X020170Y011178D01*
X019914Y011247D02*
X019914Y011384D01*
X019846Y011452D01*
X019709Y011452D01*
X019641Y011384D01*
X019641Y011247D01*
X019709Y011178D01*
X019846Y011178D01*
X019914Y011247D01*
X019454Y011178D02*
X019454Y011384D01*
X019386Y011452D01*
X019180Y011452D01*
X019180Y011178D01*
X019010Y011178D02*
X018873Y011178D01*
X018942Y011178D02*
X018942Y011452D01*
X018873Y011452D01*
X018942Y011589D02*
X018942Y011657D01*
X018687Y011452D02*
X018687Y011178D01*
X018481Y011178D01*
X018413Y011247D01*
X018413Y011452D01*
X018226Y011452D02*
X018021Y011452D01*
X017953Y011384D01*
X017953Y011247D01*
X018021Y011178D01*
X018226Y011178D01*
X018226Y011589D01*
X017766Y011384D02*
X017766Y011315D01*
X017492Y011315D01*
X017492Y011247D02*
X017492Y011384D01*
X017561Y011452D01*
X017697Y011452D01*
X017766Y011384D01*
X017697Y011178D02*
X017561Y011178D01*
X017492Y011247D01*
X017322Y011178D02*
X017185Y011178D01*
X017254Y011178D02*
X017254Y011589D01*
X017185Y011589D01*
X016999Y011384D02*
X016999Y011247D01*
X016930Y011178D01*
X016725Y011178D01*
X016725Y011589D01*
X016725Y011452D02*
X016930Y011452D01*
X016999Y011384D01*
M02*
