G75*
%MOIN*%
%OFA0B0*%
%FSLAX24Y24*%
%IPPOS*%
%LPD*%
%AMOC8*
5,1,8,0,0,1.08239X$1,22.5*
%
%ADD10C,0.0100*%
%ADD11C,0.0000*%
%ADD12OC8,0.0610*%
%ADD13C,0.0560*%
%ADD14C,0.1700*%
%ADD15C,0.0740*%
%ADD16C,0.0320*%
%ADD17R,0.0356X0.0356*%
%ADD18C,0.0160*%
D10*
X001674Y001333D02*
X026886Y001333D01*
X026886Y001593D02*
X026450Y001593D01*
X026558Y001638D01*
X026695Y001776D01*
X026770Y001956D01*
X026770Y002711D01*
X026695Y002891D01*
X026558Y003029D01*
X026377Y003103D01*
X026183Y003103D01*
X026002Y003029D01*
X025865Y002891D01*
X025790Y002711D01*
X025790Y001956D01*
X025865Y001776D01*
X026002Y001638D01*
X026110Y001593D01*
X025450Y001593D01*
X025558Y001638D01*
X025695Y001776D01*
X025770Y001956D01*
X025770Y002711D01*
X025695Y002891D01*
X025558Y003029D01*
X025377Y003103D01*
X025183Y003103D01*
X025002Y003029D01*
X024865Y002891D01*
X024790Y002711D01*
X024790Y001956D01*
X024865Y001776D01*
X025002Y001638D01*
X025110Y001593D01*
X024450Y001593D01*
X024558Y001638D01*
X024695Y001776D01*
X024770Y001956D01*
X024770Y002711D01*
X024695Y002891D01*
X024558Y003029D01*
X024377Y003103D01*
X024183Y003103D01*
X024002Y003029D01*
X023865Y002891D01*
X023790Y002711D01*
X023790Y001956D01*
X023865Y001776D01*
X024002Y001638D01*
X024110Y001593D01*
X023450Y001593D01*
X023558Y001638D01*
X023695Y001776D01*
X023770Y001956D01*
X023770Y002711D01*
X023695Y002891D01*
X023558Y003029D01*
X023377Y003103D01*
X023183Y003103D01*
X023002Y003029D01*
X022865Y002891D01*
X022790Y002711D01*
X022790Y001956D01*
X022865Y001776D01*
X023002Y001638D01*
X023110Y001593D01*
X022450Y001593D01*
X022558Y001638D01*
X022695Y001776D01*
X022770Y001956D01*
X022770Y002711D01*
X022695Y002891D01*
X022558Y003029D01*
X022377Y003103D01*
X022183Y003103D01*
X022002Y003029D01*
X021865Y002891D01*
X021790Y002711D01*
X021790Y001956D01*
X021865Y001776D01*
X022002Y001638D01*
X022110Y001593D01*
X021450Y001593D01*
X021558Y001638D01*
X021695Y001776D01*
X021770Y001956D01*
X021770Y002711D01*
X021695Y002891D01*
X021558Y003029D01*
X021377Y003103D01*
X021183Y003103D01*
X021002Y003029D01*
X020865Y002891D01*
X020790Y002711D01*
X020790Y001956D01*
X020865Y001776D01*
X021002Y001638D01*
X021110Y001593D01*
X019450Y001593D01*
X019558Y001638D01*
X019695Y001776D01*
X019770Y001956D01*
X019770Y002711D01*
X019695Y002891D01*
X019558Y003029D01*
X019377Y003103D01*
X019183Y003103D01*
X019002Y003029D01*
X018865Y002891D01*
X018790Y002711D01*
X018790Y001956D01*
X018865Y001776D01*
X019002Y001638D01*
X019110Y001593D01*
X016450Y001593D01*
X016558Y001638D01*
X016695Y001776D01*
X016770Y001956D01*
X016770Y002711D01*
X016695Y002891D01*
X016650Y002936D01*
X016650Y003180D01*
X019594Y006124D01*
X019650Y006260D01*
X019650Y006543D01*
X024088Y006543D01*
X024194Y006587D01*
X025144Y007537D01*
X025144Y007537D01*
X025226Y007619D01*
X025270Y007726D01*
X025270Y008305D01*
X025405Y008305D01*
X025403Y008299D01*
X025403Y008149D01*
X025460Y008010D01*
X025566Y007904D01*
X025705Y007847D01*
X025855Y007847D01*
X025994Y007904D01*
X026100Y008010D01*
X026157Y008149D01*
X026157Y008299D01*
X026100Y008438D01*
X025994Y008544D01*
X025855Y008601D01*
X025818Y008601D01*
X025818Y008958D01*
X025695Y009081D01*
X025165Y009081D01*
X025042Y008958D01*
X025042Y008905D01*
X024994Y008858D01*
X024734Y008598D01*
X024690Y008491D01*
X024690Y007903D01*
X023910Y007123D01*
X019650Y007123D01*
X019650Y007383D01*
X019772Y007505D01*
X019780Y007525D01*
X019788Y007505D01*
X019951Y007342D01*
X019650Y007342D01*
X019650Y007243D02*
X024030Y007243D01*
X023931Y007145D02*
X019650Y007145D01*
X019707Y007440D02*
X019853Y007440D01*
X019951Y007342D02*
X020165Y007253D01*
X020395Y007253D01*
X020609Y007342D01*
X024128Y007342D01*
X024227Y007440D02*
X020707Y007440D01*
X020772Y007505D02*
X020860Y007718D01*
X020860Y007949D01*
X020772Y008162D01*
X020609Y008325D01*
X020395Y008413D01*
X020165Y008413D01*
X019951Y008325D01*
X019788Y008162D01*
X019780Y008142D01*
X019772Y008162D01*
X019609Y008325D01*
X019395Y008413D01*
X019165Y008413D01*
X018951Y008325D01*
X018788Y008162D01*
X018780Y008142D01*
X018772Y008162D01*
X018609Y008325D01*
X018395Y008413D01*
X018165Y008413D01*
X017951Y008325D01*
X017788Y008162D01*
X017747Y008062D01*
X017725Y008106D01*
X017677Y008172D01*
X017619Y008230D01*
X017553Y008278D01*
X017480Y008315D01*
X017402Y008341D01*
X017330Y008352D01*
X017330Y007883D01*
X017230Y007883D01*
X017230Y007783D01*
X017330Y007783D01*
X017330Y007315D01*
X017402Y007326D01*
X017480Y007351D01*
X017553Y007389D01*
X017619Y007437D01*
X017677Y007495D01*
X017725Y007561D01*
X017747Y007604D01*
X017788Y007505D01*
X017951Y007342D01*
X017450Y007342D01*
X017330Y007342D02*
X017230Y007342D01*
X017230Y007315D02*
X017230Y007783D01*
X016761Y007783D01*
X016330Y007783D01*
X016330Y007315D01*
X016402Y007326D01*
X016480Y007351D01*
X016553Y007389D01*
X016619Y007437D01*
X016677Y007495D01*
X016725Y007561D01*
X016762Y007634D01*
X016780Y007689D01*
X016798Y007634D01*
X016835Y007561D01*
X016883Y007495D01*
X016941Y007437D01*
X017007Y007389D01*
X017080Y007351D01*
X017158Y007326D01*
X017230Y007315D01*
X017110Y007342D02*
X016450Y007342D01*
X016330Y007342D02*
X016230Y007342D01*
X016230Y007315D02*
X016230Y007783D01*
X016330Y007783D01*
X016330Y007883D01*
X017230Y007883D01*
X017230Y008352D01*
X017158Y008341D01*
X017080Y008315D01*
X017007Y008278D01*
X016941Y008230D01*
X016883Y008172D01*
X016835Y008106D01*
X016798Y008033D01*
X016780Y007977D01*
X016762Y008033D01*
X016725Y008106D01*
X016677Y008172D01*
X016619Y008230D01*
X016553Y008278D01*
X016480Y008315D01*
X016402Y008341D01*
X016330Y008352D01*
X016330Y007883D01*
X016230Y007883D01*
X016230Y008352D01*
X016158Y008341D01*
X016080Y008315D01*
X016007Y008278D01*
X015941Y008230D01*
X015883Y008172D01*
X015835Y008106D01*
X015813Y008062D01*
X015772Y008162D01*
X015609Y008325D01*
X015395Y008413D01*
X015165Y008413D01*
X014951Y008325D01*
X014788Y008162D01*
X014780Y008142D01*
X014772Y008162D01*
X014609Y008325D01*
X014395Y008413D01*
X014165Y008413D01*
X013951Y008325D01*
X013788Y008162D01*
X013780Y008142D01*
X013772Y008162D01*
X013609Y008325D01*
X013395Y008413D01*
X013165Y008413D01*
X012951Y008325D01*
X012788Y008162D01*
X012780Y008142D01*
X012772Y008162D01*
X012609Y008325D01*
X012395Y008413D01*
X012165Y008413D01*
X011951Y008325D01*
X011788Y008162D01*
X011780Y008142D01*
X011772Y008162D01*
X011609Y008325D01*
X011395Y008413D01*
X011165Y008413D01*
X010951Y008325D01*
X010788Y008162D01*
X010780Y008142D01*
X010772Y008162D01*
X010609Y008325D01*
X010395Y008413D01*
X010165Y008413D01*
X009951Y008325D01*
X009788Y008162D01*
X009780Y008142D01*
X009772Y008162D01*
X009609Y008325D01*
X009570Y008341D01*
X009570Y009891D01*
X009526Y009998D01*
X009444Y010079D01*
X007418Y012105D01*
X007418Y012348D01*
X007295Y012471D01*
X006765Y012471D01*
X006642Y012348D01*
X006642Y011818D01*
X006765Y011695D01*
X007008Y011695D01*
X008990Y009713D01*
X008990Y008341D01*
X008951Y008325D01*
X008788Y008162D01*
X008780Y008142D01*
X008772Y008162D01*
X008609Y008325D01*
X008395Y008413D01*
X008165Y008413D01*
X007951Y008325D01*
X007788Y008162D01*
X007780Y008142D01*
X007772Y008162D01*
X007609Y008325D01*
X007395Y008413D01*
X007165Y008413D01*
X006951Y008325D01*
X006788Y008162D01*
X006700Y007949D01*
X006700Y007718D01*
X006788Y007505D01*
X006951Y007342D01*
X001540Y007342D01*
X001540Y007440D02*
X006853Y007440D01*
X006774Y007539D02*
X001540Y007539D01*
X001540Y007637D02*
X006733Y007637D01*
X006700Y007736D02*
X001540Y007736D01*
X001540Y007834D02*
X006700Y007834D01*
X006700Y007933D02*
X001540Y007933D01*
X001540Y008031D02*
X006734Y008031D01*
X006775Y008130D02*
X001540Y008130D01*
X001540Y008228D02*
X006855Y008228D01*
X006956Y008327D02*
X001540Y008327D01*
X001540Y008425D02*
X008990Y008425D01*
X008990Y008524D02*
X001540Y008524D01*
X001540Y008622D02*
X008990Y008622D01*
X008990Y008721D02*
X001540Y008721D01*
X001540Y008819D02*
X008990Y008819D01*
X008990Y008918D02*
X001540Y008918D01*
X001540Y009016D02*
X008990Y009016D01*
X008990Y009115D02*
X001540Y009115D01*
X001540Y009213D02*
X008990Y009213D01*
X008990Y009312D02*
X001540Y009312D01*
X001540Y009410D02*
X008990Y009410D01*
X008990Y009509D02*
X001540Y009509D01*
X001540Y009607D02*
X008990Y009607D01*
X008990Y009706D02*
X001540Y009706D01*
X001540Y009804D02*
X008899Y009804D01*
X008800Y009903D02*
X001540Y009903D01*
X001540Y010001D02*
X008702Y010001D01*
X008603Y010100D02*
X001540Y010100D01*
X001540Y010198D02*
X008505Y010198D01*
X008406Y010297D02*
X001540Y010297D01*
X001540Y010395D02*
X008308Y010395D01*
X008209Y010494D02*
X001540Y010494D01*
X001540Y010592D02*
X008111Y010592D01*
X008012Y010691D02*
X001540Y010691D01*
X001540Y010789D02*
X007914Y010789D01*
X007815Y010888D02*
X001540Y010888D01*
X001540Y010986D02*
X007717Y010986D01*
X007618Y011085D02*
X001540Y011085D01*
X001540Y011183D02*
X007520Y011183D01*
X007421Y011282D02*
X001540Y011282D01*
X001540Y011380D02*
X007323Y011380D01*
X007224Y011479D02*
X001540Y011479D01*
X001540Y011577D02*
X007126Y011577D01*
X007027Y011676D02*
X001540Y011676D01*
X001540Y011774D02*
X006686Y011774D01*
X006642Y011873D02*
X001540Y011873D01*
X001540Y011971D02*
X006642Y011971D01*
X006642Y012070D02*
X001540Y012070D01*
X001540Y012168D02*
X006642Y012168D01*
X006642Y012267D02*
X001540Y012267D01*
X001540Y012365D02*
X006659Y012365D01*
X006757Y012464D02*
X001540Y012464D01*
X001540Y012562D02*
X023240Y012562D01*
X023240Y012464D02*
X007303Y012464D01*
X007401Y012365D02*
X023240Y012365D01*
X023240Y012267D02*
X007418Y012267D01*
X007418Y012168D02*
X023240Y012168D01*
X023240Y012070D02*
X007454Y012070D01*
X007552Y011971D02*
X023240Y011971D01*
X023240Y011873D02*
X007651Y011873D01*
X007749Y011774D02*
X023240Y011774D01*
X023240Y011676D02*
X007848Y011676D01*
X007946Y011577D02*
X023240Y011577D01*
X023240Y011479D02*
X008045Y011479D01*
X008143Y011380D02*
X023240Y011380D01*
X023240Y011282D02*
X008242Y011282D01*
X008340Y011183D02*
X023240Y011183D01*
X023240Y011085D02*
X008439Y011085D01*
X008537Y010986D02*
X023240Y010986D01*
X023240Y010888D02*
X008636Y010888D01*
X008734Y010789D02*
X023240Y010789D01*
X023240Y010691D02*
X008833Y010691D01*
X008931Y010592D02*
X023240Y010592D01*
X023240Y010494D02*
X009030Y010494D01*
X009128Y010395D02*
X023240Y010395D01*
X023240Y010297D02*
X009227Y010297D01*
X009325Y010198D02*
X023240Y010198D01*
X023240Y010197D02*
X023142Y010098D01*
X023142Y009568D01*
X023265Y009445D01*
X023795Y009445D01*
X023918Y009568D01*
X023918Y010035D01*
X024616Y009337D01*
X024722Y009293D01*
X025490Y009293D01*
X025507Y009289D01*
X025547Y009293D01*
X025588Y009293D01*
X025604Y009300D01*
X025621Y009302D01*
X025657Y009322D01*
X025694Y009337D01*
X025707Y009350D01*
X025722Y009358D01*
X025747Y009390D01*
X025776Y009419D01*
X025783Y009435D01*
X026343Y010145D01*
X026545Y010145D01*
X026668Y010268D01*
X026668Y010798D01*
X026596Y010871D01*
X026845Y011120D01*
X026845Y011547D01*
X026558Y011833D01*
X026830Y012105D01*
X027117Y011818D01*
X027543Y011818D01*
X027845Y012120D01*
X027845Y012547D01*
X027558Y012833D01*
X027845Y013120D01*
X027845Y013547D01*
X027543Y013848D01*
X027117Y013848D01*
X027070Y013801D01*
X026997Y013874D01*
X026570Y014301D01*
X026570Y014856D01*
X026804Y014621D01*
X027113Y014493D01*
X027447Y014493D01*
X027756Y014621D01*
X027992Y014858D01*
X028020Y014925D01*
X028020Y004742D01*
X027992Y004809D01*
X027756Y005045D01*
X027447Y005173D01*
X027113Y005173D01*
X026804Y005045D01*
X026568Y004809D01*
X026440Y004500D01*
X026440Y004166D01*
X026568Y003858D01*
X026804Y003621D01*
X027113Y003493D01*
X027447Y003493D01*
X027756Y003621D01*
X027992Y003858D01*
X028020Y003925D01*
X028020Y003441D01*
X027133Y002554D01*
X027133Y002554D01*
X027060Y002481D01*
X027020Y002385D01*
X027020Y001727D01*
X027017Y001701D01*
X026997Y001653D01*
X026961Y001616D01*
X026912Y001596D01*
X026886Y001593D01*
X026974Y001629D02*
X026536Y001629D01*
X026647Y001727D02*
X027020Y001727D01*
X027020Y001826D02*
X026716Y001826D01*
X026757Y001924D02*
X027020Y001924D01*
X027020Y002023D02*
X026770Y002023D01*
X026770Y002121D02*
X027020Y002121D01*
X027020Y002220D02*
X026770Y002220D01*
X026770Y002318D02*
X027020Y002318D01*
X027033Y002417D02*
X026770Y002417D01*
X026770Y002515D02*
X027094Y002515D01*
X027193Y002614D02*
X026770Y002614D01*
X026769Y002712D02*
X027291Y002712D01*
X027390Y002811D02*
X026729Y002811D01*
X026677Y002909D02*
X027488Y002909D01*
X027587Y003008D02*
X026578Y003008D01*
X025982Y003008D02*
X025578Y003008D01*
X025677Y002909D02*
X025883Y002909D01*
X025831Y002811D02*
X025729Y002811D01*
X025769Y002712D02*
X025791Y002712D01*
X025790Y002614D02*
X025770Y002614D01*
X025770Y002515D02*
X025790Y002515D01*
X025790Y002417D02*
X025770Y002417D01*
X025770Y002318D02*
X025790Y002318D01*
X025790Y002220D02*
X025770Y002220D01*
X025770Y002121D02*
X025790Y002121D01*
X025790Y002023D02*
X025770Y002023D01*
X025757Y001924D02*
X025803Y001924D01*
X025844Y001826D02*
X025716Y001826D01*
X025647Y001727D02*
X025913Y001727D01*
X026024Y001629D02*
X025536Y001629D01*
X025024Y001629D02*
X024536Y001629D01*
X024647Y001727D02*
X024913Y001727D01*
X024844Y001826D02*
X024716Y001826D01*
X024757Y001924D02*
X024803Y001924D01*
X024790Y002023D02*
X024770Y002023D01*
X024770Y002121D02*
X024790Y002121D01*
X024790Y002220D02*
X024770Y002220D01*
X024770Y002318D02*
X024790Y002318D01*
X024790Y002417D02*
X024770Y002417D01*
X024770Y002515D02*
X024790Y002515D01*
X024790Y002614D02*
X024770Y002614D01*
X024769Y002712D02*
X024791Y002712D01*
X024831Y002811D02*
X024729Y002811D01*
X024677Y002909D02*
X024883Y002909D01*
X024982Y003008D02*
X024578Y003008D01*
X023982Y003008D02*
X023578Y003008D01*
X023677Y002909D02*
X023883Y002909D01*
X023831Y002811D02*
X023729Y002811D01*
X023769Y002712D02*
X023791Y002712D01*
X023790Y002614D02*
X023770Y002614D01*
X023770Y002515D02*
X023790Y002515D01*
X023790Y002417D02*
X023770Y002417D01*
X023770Y002318D02*
X023790Y002318D01*
X023790Y002220D02*
X023770Y002220D01*
X023770Y002121D02*
X023790Y002121D01*
X023790Y002023D02*
X023770Y002023D01*
X023757Y001924D02*
X023803Y001924D01*
X023844Y001826D02*
X023716Y001826D01*
X023647Y001727D02*
X023913Y001727D01*
X024024Y001629D02*
X023536Y001629D01*
X023024Y001629D02*
X022536Y001629D01*
X022647Y001727D02*
X022913Y001727D01*
X022844Y001826D02*
X022716Y001826D01*
X022757Y001924D02*
X022803Y001924D01*
X022790Y002023D02*
X022770Y002023D01*
X022770Y002121D02*
X022790Y002121D01*
X022790Y002220D02*
X022770Y002220D01*
X022770Y002318D02*
X022790Y002318D01*
X022790Y002417D02*
X022770Y002417D01*
X022770Y002515D02*
X022790Y002515D01*
X022790Y002614D02*
X022770Y002614D01*
X022769Y002712D02*
X022791Y002712D01*
X022831Y002811D02*
X022729Y002811D01*
X022677Y002909D02*
X022883Y002909D01*
X022982Y003008D02*
X022578Y003008D01*
X021982Y003008D02*
X021578Y003008D01*
X021677Y002909D02*
X021883Y002909D01*
X021831Y002811D02*
X021729Y002811D01*
X021769Y002712D02*
X021791Y002712D01*
X021790Y002614D02*
X021770Y002614D01*
X021770Y002515D02*
X021790Y002515D01*
X021790Y002417D02*
X021770Y002417D01*
X021770Y002318D02*
X021790Y002318D01*
X021790Y002220D02*
X021770Y002220D01*
X021770Y002121D02*
X021790Y002121D01*
X021790Y002023D02*
X021770Y002023D01*
X021757Y001924D02*
X021803Y001924D01*
X021844Y001826D02*
X021716Y001826D01*
X021647Y001727D02*
X021913Y001727D01*
X022024Y001629D02*
X021536Y001629D01*
X021024Y001629D02*
X019536Y001629D01*
X019647Y001727D02*
X020913Y001727D01*
X020844Y001826D02*
X019716Y001826D01*
X019757Y001924D02*
X020803Y001924D01*
X020790Y002023D02*
X019770Y002023D01*
X019770Y002121D02*
X020790Y002121D01*
X020790Y002220D02*
X019770Y002220D01*
X019770Y002318D02*
X020790Y002318D01*
X020790Y002417D02*
X019770Y002417D01*
X019770Y002515D02*
X020790Y002515D01*
X020790Y002614D02*
X019770Y002614D01*
X019769Y002712D02*
X020791Y002712D01*
X020831Y002811D02*
X019729Y002811D01*
X019677Y002909D02*
X020883Y002909D01*
X020982Y003008D02*
X019578Y003008D01*
X018982Y003008D02*
X018453Y003008D01*
X018445Y003012D02*
X018381Y003033D01*
X018314Y003043D01*
X018314Y003043D01*
X018314Y002367D01*
X018710Y002367D01*
X018710Y002647D01*
X018699Y002714D01*
X018678Y002778D01*
X018648Y002839D01*
X018608Y002893D01*
X018560Y002941D01*
X018505Y002981D01*
X018445Y003012D01*
X018314Y003008D02*
X018246Y003008D01*
X018246Y003043D02*
X018179Y003033D01*
X018115Y003012D01*
X018055Y002981D01*
X018000Y002941D01*
X017952Y002893D01*
X017912Y002839D01*
X017882Y002778D01*
X017861Y002714D01*
X017850Y002647D01*
X017850Y002367D01*
X018246Y002367D01*
X018246Y002300D01*
X017850Y002300D01*
X017850Y002019D01*
X017861Y001953D01*
X017882Y001888D01*
X017912Y001828D01*
X017952Y001773D01*
X018000Y001725D01*
X018055Y001686D01*
X018115Y001655D01*
X018179Y001634D01*
X018246Y001623D01*
X018246Y001623D01*
X018246Y002300D01*
X018314Y002300D01*
X018314Y002367D01*
X018246Y002367D01*
X018246Y003043D01*
X018246Y003043D01*
X018246Y002909D02*
X018314Y002909D01*
X018314Y002811D02*
X018246Y002811D01*
X018246Y002712D02*
X018314Y002712D01*
X018314Y002614D02*
X018246Y002614D01*
X018246Y002515D02*
X018314Y002515D01*
X018314Y002417D02*
X018246Y002417D01*
X018246Y002318D02*
X017314Y002318D01*
X017314Y002300D02*
X017314Y002367D01*
X017710Y002367D01*
X017710Y002647D01*
X017699Y002714D01*
X017678Y002778D01*
X017648Y002839D01*
X017608Y002893D01*
X017560Y002941D01*
X017505Y002981D01*
X017445Y003012D01*
X017381Y003033D01*
X017314Y003043D01*
X017314Y003043D01*
X017314Y002367D01*
X017246Y002367D01*
X017246Y002300D01*
X016850Y002300D01*
X016850Y002019D01*
X016861Y001953D01*
X016882Y001888D01*
X016912Y001828D01*
X016952Y001773D01*
X017000Y001725D01*
X017055Y001686D01*
X017115Y001655D01*
X017179Y001634D01*
X017246Y001623D01*
X017246Y001623D01*
X017246Y002300D01*
X017314Y002300D01*
X017710Y002300D01*
X017710Y002019D01*
X017699Y001953D01*
X017678Y001888D01*
X017648Y001828D01*
X017608Y001773D01*
X017560Y001725D01*
X017505Y001686D01*
X017445Y001655D01*
X017381Y001634D01*
X017314Y001623D01*
X017314Y001623D01*
X017314Y002300D01*
X017246Y002318D02*
X016770Y002318D01*
X016850Y002367D02*
X017246Y002367D01*
X017246Y003043D01*
X017179Y003033D01*
X017115Y003012D01*
X017055Y002981D01*
X017000Y002941D01*
X016952Y002893D01*
X016912Y002839D01*
X016882Y002778D01*
X016861Y002714D01*
X016850Y002647D01*
X016850Y002367D01*
X016850Y002417D02*
X016770Y002417D01*
X016770Y002515D02*
X016850Y002515D01*
X016850Y002614D02*
X016770Y002614D01*
X016769Y002712D02*
X016860Y002712D01*
X016898Y002811D02*
X016729Y002811D01*
X016677Y002909D02*
X016968Y002909D01*
X017107Y003008D02*
X016650Y003008D01*
X016650Y003106D02*
X027685Y003106D01*
X027784Y003205D02*
X016675Y003205D01*
X016773Y003303D02*
X027882Y003303D01*
X027981Y003402D02*
X016872Y003402D01*
X016970Y003500D02*
X027096Y003500D01*
X026858Y003599D02*
X017069Y003599D01*
X017167Y003697D02*
X026728Y003697D01*
X026630Y003796D02*
X017266Y003796D01*
X017364Y003894D02*
X026553Y003894D01*
X026512Y003993D02*
X017463Y003993D01*
X017561Y004091D02*
X026471Y004091D01*
X026440Y004190D02*
X017660Y004190D01*
X017758Y004288D02*
X026440Y004288D01*
X026440Y004387D02*
X017857Y004387D01*
X017955Y004485D02*
X026440Y004485D01*
X026475Y004584D02*
X018054Y004584D01*
X018152Y004682D02*
X026515Y004682D01*
X026556Y004781D02*
X018251Y004781D01*
X018349Y004879D02*
X026638Y004879D01*
X026737Y004978D02*
X018448Y004978D01*
X018546Y005076D02*
X026879Y005076D01*
X027681Y005076D02*
X028020Y005076D01*
X028020Y004978D02*
X027823Y004978D01*
X027922Y004879D02*
X028020Y004879D01*
X028020Y004781D02*
X028004Y004781D01*
X028020Y005175D02*
X018645Y005175D01*
X018743Y005273D02*
X028020Y005273D01*
X028020Y005372D02*
X018842Y005372D01*
X018940Y005470D02*
X028020Y005470D01*
X028020Y005569D02*
X019039Y005569D01*
X019137Y005667D02*
X028020Y005667D01*
X028020Y005766D02*
X019236Y005766D01*
X019334Y005864D02*
X028020Y005864D01*
X028020Y005963D02*
X019433Y005963D01*
X019531Y006061D02*
X028020Y006061D01*
X028020Y006160D02*
X019609Y006160D01*
X019649Y006258D02*
X028020Y006258D01*
X028020Y006357D02*
X019650Y006357D01*
X019650Y006455D02*
X028020Y006455D01*
X028020Y006554D02*
X024113Y006554D01*
X024259Y006652D02*
X028020Y006652D01*
X028020Y006751D02*
X026022Y006751D01*
X025994Y006723D02*
X026100Y006829D01*
X026157Y006968D01*
X026157Y007118D01*
X026100Y007257D01*
X025994Y007363D01*
X025855Y007420D01*
X025705Y007420D01*
X025566Y007363D01*
X025460Y007257D01*
X025403Y007118D01*
X025403Y006968D01*
X025460Y006829D01*
X025566Y006723D01*
X025705Y006665D01*
X025855Y006665D01*
X025994Y006723D01*
X026108Y006849D02*
X028020Y006849D01*
X028020Y006948D02*
X026149Y006948D01*
X026157Y007046D02*
X028020Y007046D01*
X028020Y007145D02*
X026146Y007145D01*
X026105Y007243D02*
X028020Y007243D01*
X028020Y007342D02*
X026015Y007342D01*
X025545Y007342D02*
X024949Y007342D01*
X025047Y007440D02*
X028020Y007440D01*
X028020Y007539D02*
X025146Y007539D01*
X025233Y007637D02*
X028020Y007637D01*
X028020Y007736D02*
X025270Y007736D01*
X025270Y007834D02*
X028020Y007834D01*
X028020Y007933D02*
X026023Y007933D01*
X026109Y008031D02*
X028020Y008031D01*
X028020Y008130D02*
X026149Y008130D01*
X026157Y008228D02*
X028020Y008228D01*
X028020Y008327D02*
X026146Y008327D01*
X026105Y008425D02*
X028020Y008425D01*
X028020Y008524D02*
X026014Y008524D01*
X025818Y008622D02*
X028020Y008622D01*
X028020Y008721D02*
X025818Y008721D01*
X025818Y008819D02*
X028020Y008819D01*
X028020Y008918D02*
X025818Y008918D01*
X025760Y009016D02*
X028020Y009016D01*
X028020Y009115D02*
X009570Y009115D01*
X009570Y009213D02*
X028020Y009213D01*
X028020Y009312D02*
X025639Y009312D01*
X025767Y009410D02*
X028020Y009410D01*
X028020Y009509D02*
X025841Y009509D01*
X025918Y009607D02*
X028020Y009607D01*
X028020Y009706D02*
X025996Y009706D01*
X026074Y009804D02*
X028020Y009804D01*
X028020Y009903D02*
X026152Y009903D01*
X026229Y010001D02*
X028020Y010001D01*
X028020Y010100D02*
X026307Y010100D01*
X026598Y010198D02*
X028020Y010198D01*
X028020Y010297D02*
X026668Y010297D01*
X026668Y010395D02*
X028020Y010395D01*
X028020Y010494D02*
X026668Y010494D01*
X026668Y010592D02*
X028020Y010592D01*
X028020Y010691D02*
X026668Y010691D01*
X026668Y010789D02*
X028020Y010789D01*
X028020Y010888D02*
X027528Y010888D01*
X027519Y010878D02*
X027785Y011145D01*
X027785Y011290D01*
X027374Y011290D01*
X027374Y011377D01*
X027785Y011377D01*
X027785Y011522D01*
X027519Y011788D01*
X027374Y011788D01*
X027374Y011377D01*
X027286Y011377D01*
X027286Y011290D01*
X026875Y011290D01*
X026875Y011145D01*
X027141Y010878D01*
X027286Y010878D01*
X027286Y011290D01*
X027374Y011290D01*
X027374Y010878D01*
X027519Y010878D01*
X027374Y010888D02*
X027286Y010888D01*
X027286Y010986D02*
X027374Y010986D01*
X027374Y011085D02*
X027286Y011085D01*
X027286Y011183D02*
X027374Y011183D01*
X027374Y011282D02*
X027286Y011282D01*
X027286Y011377D02*
X026875Y011377D01*
X026875Y011522D01*
X027141Y011788D01*
X027286Y011788D01*
X027286Y011377D01*
X027286Y011380D02*
X027374Y011380D01*
X027374Y011479D02*
X027286Y011479D01*
X027286Y011577D02*
X027374Y011577D01*
X027374Y011676D02*
X027286Y011676D01*
X027286Y011774D02*
X027374Y011774D01*
X027533Y011774D02*
X028020Y011774D01*
X028020Y011676D02*
X027631Y011676D01*
X027730Y011577D02*
X028020Y011577D01*
X028020Y011479D02*
X027785Y011479D01*
X027785Y011380D02*
X028020Y011380D01*
X028020Y011282D02*
X027785Y011282D01*
X027785Y011183D02*
X028020Y011183D01*
X028020Y011085D02*
X027725Y011085D01*
X027627Y010986D02*
X028020Y010986D01*
X027132Y010888D02*
X026613Y010888D01*
X026712Y010986D02*
X027033Y010986D01*
X026935Y011085D02*
X026810Y011085D01*
X026845Y011183D02*
X026875Y011183D01*
X026875Y011282D02*
X026845Y011282D01*
X026845Y011380D02*
X026875Y011380D01*
X026875Y011479D02*
X026845Y011479D01*
X026814Y011577D02*
X026930Y011577D01*
X027029Y011676D02*
X026716Y011676D01*
X026617Y011774D02*
X027127Y011774D01*
X027062Y011873D02*
X026598Y011873D01*
X026697Y011971D02*
X026963Y011971D01*
X026865Y012070D02*
X026795Y012070D01*
X027330Y012333D02*
X026850Y012813D01*
X026850Y013653D01*
X026280Y014223D01*
X025990Y014237D02*
X025320Y014237D01*
X025320Y014335D02*
X025990Y014335D01*
X025990Y014434D02*
X025320Y014434D01*
X025320Y014532D02*
X025990Y014532D01*
X025990Y014631D02*
X025320Y014631D01*
X025320Y014729D02*
X025990Y014729D01*
X025990Y014828D02*
X025320Y014828D01*
X025320Y014926D02*
X025990Y014926D01*
X025990Y015025D02*
X025320Y015025D01*
X025320Y015123D02*
X025990Y015123D01*
X025990Y015222D02*
X025320Y015222D01*
X025320Y015320D02*
X025990Y015320D01*
X025990Y015419D02*
X025320Y015419D01*
X025320Y015517D02*
X025990Y015517D01*
X025990Y015616D02*
X025320Y015616D01*
X025320Y015714D02*
X025990Y015714D01*
X025990Y015813D02*
X025320Y015813D01*
X025320Y015911D02*
X025990Y015911D01*
X025990Y016010D02*
X025320Y016010D01*
X025320Y016108D02*
X025990Y016108D01*
X025990Y016207D02*
X025320Y016207D01*
X025320Y016305D02*
X025898Y016305D01*
X025990Y016213D02*
X025990Y014166D01*
X026034Y014059D01*
X026116Y013977D01*
X026188Y013947D01*
X026287Y013848D01*
X026117Y013848D01*
X025815Y013547D01*
X025815Y013120D01*
X026102Y012833D01*
X025815Y012547D01*
X025815Y012120D01*
X026102Y011833D01*
X025815Y011547D01*
X025815Y011120D01*
X026014Y010921D01*
X025892Y010798D01*
X025892Y010510D01*
X025389Y009873D01*
X024900Y009873D01*
X024320Y010453D01*
X024320Y016141D01*
X024276Y016248D01*
X023070Y017453D01*
X023070Y018070D01*
X023170Y018070D01*
X023293Y018193D01*
X023293Y018723D01*
X023170Y018846D01*
X022640Y018846D01*
X022517Y018723D01*
X022517Y018456D01*
X022490Y018391D01*
X022490Y017276D01*
X022534Y017169D01*
X022616Y017087D01*
X023740Y015963D01*
X023740Y013783D01*
X023694Y013829D01*
X023168Y014355D01*
X023168Y014598D01*
X023045Y014721D01*
X022515Y014721D01*
X022392Y014598D01*
X022392Y014068D01*
X022515Y013945D01*
X022758Y013945D01*
X023240Y013463D01*
X023240Y010197D01*
X023143Y010100D02*
X009424Y010100D01*
X009522Y010001D02*
X023142Y010001D01*
X023142Y009903D02*
X009565Y009903D01*
X009570Y009804D02*
X023142Y009804D01*
X023142Y009706D02*
X009570Y009706D01*
X009570Y009607D02*
X023142Y009607D01*
X023201Y009509D02*
X009570Y009509D01*
X009570Y009410D02*
X024543Y009410D01*
X024444Y009509D02*
X023859Y009509D01*
X023918Y009607D02*
X024346Y009607D01*
X024247Y009706D02*
X023918Y009706D01*
X023918Y009804D02*
X024149Y009804D01*
X024050Y009903D02*
X023918Y009903D01*
X023918Y010001D02*
X023952Y010001D01*
X024378Y010395D02*
X024642Y010395D01*
X024642Y010318D02*
X024765Y010195D01*
X025295Y010195D01*
X025418Y010318D01*
X025418Y010848D01*
X025320Y010947D01*
X025320Y016641D01*
X025276Y016748D01*
X024168Y017855D01*
X024168Y018035D01*
X025990Y016213D01*
X025799Y016404D02*
X025320Y016404D01*
X025320Y016502D02*
X025701Y016502D01*
X025602Y016601D02*
X025320Y016601D01*
X025296Y016699D02*
X025504Y016699D01*
X025405Y016798D02*
X025226Y016798D01*
X025307Y016896D02*
X025127Y016896D01*
X025208Y016995D02*
X025029Y016995D01*
X025110Y017093D02*
X024930Y017093D01*
X025011Y017192D02*
X024832Y017192D01*
X024913Y017290D02*
X024733Y017290D01*
X024814Y017389D02*
X024635Y017389D01*
X024716Y017487D02*
X024536Y017487D01*
X024617Y017586D02*
X024438Y017586D01*
X024519Y017684D02*
X024339Y017684D01*
X024420Y017783D02*
X024241Y017783D01*
X024168Y017881D02*
X024322Y017881D01*
X024223Y017980D02*
X024168Y017980D01*
X023982Y018221D02*
X023515Y018221D01*
X023392Y018098D01*
X023392Y017568D01*
X023515Y017445D01*
X023758Y017445D01*
X024740Y016463D01*
X024740Y010947D01*
X024642Y010848D01*
X024642Y010318D01*
X024663Y010297D02*
X024477Y010297D01*
X024575Y010198D02*
X024762Y010198D01*
X024674Y010100D02*
X025568Y010100D01*
X025491Y010001D02*
X024772Y010001D01*
X024871Y009903D02*
X025413Y009903D01*
X025298Y010198D02*
X025646Y010198D01*
X025724Y010297D02*
X025397Y010297D01*
X025418Y010395D02*
X025802Y010395D01*
X025879Y010494D02*
X025418Y010494D01*
X025418Y010592D02*
X025892Y010592D01*
X025892Y010691D02*
X025418Y010691D01*
X025418Y010789D02*
X025892Y010789D01*
X025981Y010888D02*
X025379Y010888D01*
X025320Y010986D02*
X025948Y010986D01*
X025850Y011085D02*
X025320Y011085D01*
X025320Y011183D02*
X025815Y011183D01*
X025815Y011282D02*
X025320Y011282D01*
X025320Y011380D02*
X025815Y011380D01*
X025815Y011479D02*
X025320Y011479D01*
X025320Y011577D02*
X025846Y011577D01*
X025944Y011676D02*
X025320Y011676D01*
X025320Y011774D02*
X026043Y011774D01*
X026062Y011873D02*
X025320Y011873D01*
X025320Y011971D02*
X025963Y011971D01*
X025865Y012070D02*
X025320Y012070D01*
X025320Y012168D02*
X025815Y012168D01*
X025815Y012267D02*
X025320Y012267D01*
X025320Y012365D02*
X025815Y012365D01*
X025815Y012464D02*
X025320Y012464D01*
X025320Y012562D02*
X025831Y012562D01*
X025929Y012661D02*
X025320Y012661D01*
X025320Y012759D02*
X026028Y012759D01*
X026077Y012858D02*
X025320Y012858D01*
X025320Y012956D02*
X025978Y012956D01*
X025880Y013055D02*
X025320Y013055D01*
X025320Y013153D02*
X025815Y013153D01*
X025815Y013252D02*
X025320Y013252D01*
X025320Y013350D02*
X025815Y013350D01*
X025815Y013449D02*
X025320Y013449D01*
X025320Y013547D02*
X025816Y013547D01*
X025914Y013646D02*
X025320Y013646D01*
X025320Y013744D02*
X026013Y013744D01*
X026111Y013843D02*
X025320Y013843D01*
X025320Y013941D02*
X026194Y013941D01*
X026053Y014040D02*
X025320Y014040D01*
X025320Y014138D02*
X026001Y014138D01*
X026570Y014335D02*
X028020Y014335D01*
X028020Y014237D02*
X026634Y014237D01*
X026733Y014138D02*
X028020Y014138D01*
X028020Y014040D02*
X026831Y014040D01*
X026930Y013941D02*
X028020Y013941D01*
X028020Y013843D02*
X027549Y013843D01*
X027647Y013744D02*
X028020Y013744D01*
X028020Y013646D02*
X027746Y013646D01*
X027844Y013547D02*
X028020Y013547D01*
X028020Y013449D02*
X027845Y013449D01*
X027845Y013350D02*
X028020Y013350D01*
X028020Y013252D02*
X027845Y013252D01*
X027845Y013153D02*
X028020Y013153D01*
X028020Y013055D02*
X027780Y013055D01*
X027682Y012956D02*
X028020Y012956D01*
X028020Y012858D02*
X027583Y012858D01*
X027632Y012759D02*
X028020Y012759D01*
X028020Y012661D02*
X027731Y012661D01*
X027829Y012562D02*
X028020Y012562D01*
X028020Y012464D02*
X027845Y012464D01*
X027845Y012365D02*
X028020Y012365D01*
X028020Y012267D02*
X027845Y012267D01*
X027845Y012168D02*
X028020Y012168D01*
X028020Y012070D02*
X027795Y012070D01*
X027697Y011971D02*
X028020Y011971D01*
X028020Y011873D02*
X027598Y011873D01*
X027111Y013843D02*
X027028Y013843D01*
X026570Y014434D02*
X028020Y014434D01*
X028020Y014532D02*
X027541Y014532D01*
X027765Y014631D02*
X028020Y014631D01*
X028020Y014729D02*
X027864Y014729D01*
X027962Y014828D02*
X028020Y014828D01*
X027019Y014532D02*
X026570Y014532D01*
X026570Y014631D02*
X026795Y014631D01*
X026696Y014729D02*
X026570Y014729D01*
X026570Y014828D02*
X026598Y014828D01*
X028280Y016233D02*
X028280Y003333D01*
X027280Y002333D01*
X027280Y001727D01*
X027278Y001688D01*
X027272Y001650D01*
X027263Y001613D01*
X027250Y001576D01*
X027233Y001541D01*
X027214Y001508D01*
X027191Y001477D01*
X027165Y001448D01*
X027136Y001422D01*
X027105Y001399D01*
X027072Y001380D01*
X027037Y001363D01*
X027000Y001350D01*
X026963Y001341D01*
X026925Y001335D01*
X026886Y001333D01*
X027464Y003500D02*
X028020Y003500D01*
X028020Y003599D02*
X027702Y003599D01*
X027832Y003697D02*
X028020Y003697D01*
X028020Y003796D02*
X027930Y003796D01*
X028007Y003894D02*
X028020Y003894D01*
X025538Y006751D02*
X024358Y006751D01*
X024456Y006849D02*
X025452Y006849D01*
X025411Y006948D02*
X024555Y006948D01*
X024653Y007046D02*
X025403Y007046D01*
X025414Y007145D02*
X024752Y007145D01*
X024850Y007243D02*
X025455Y007243D01*
X025537Y007933D02*
X025270Y007933D01*
X025270Y008031D02*
X025451Y008031D01*
X025411Y008130D02*
X025270Y008130D01*
X025270Y008228D02*
X025403Y008228D01*
X024857Y008721D02*
X009570Y008721D01*
X009570Y008819D02*
X024956Y008819D01*
X025042Y008918D02*
X009570Y008918D01*
X009570Y009016D02*
X025100Y009016D01*
X024678Y009312D02*
X009570Y009312D01*
X009570Y008622D02*
X024759Y008622D01*
X024704Y008524D02*
X009570Y008524D01*
X009570Y008425D02*
X024690Y008425D01*
X024690Y008327D02*
X020604Y008327D01*
X020705Y008228D02*
X024690Y008228D01*
X024690Y008130D02*
X020785Y008130D01*
X020826Y008031D02*
X024690Y008031D01*
X024690Y007933D02*
X020860Y007933D01*
X020860Y007834D02*
X024621Y007834D01*
X024522Y007736D02*
X020860Y007736D01*
X020827Y007637D02*
X024424Y007637D01*
X024325Y007539D02*
X020786Y007539D01*
X020772Y007505D02*
X020609Y007342D01*
X019855Y008228D02*
X019705Y008228D01*
X019604Y008327D02*
X019956Y008327D01*
X018956Y008327D02*
X018604Y008327D01*
X018705Y008228D02*
X018855Y008228D01*
X017956Y008327D02*
X017444Y008327D01*
X017330Y008327D02*
X017230Y008327D01*
X017230Y008228D02*
X017330Y008228D01*
X017330Y008130D02*
X017230Y008130D01*
X017230Y008031D02*
X017330Y008031D01*
X017330Y007933D02*
X017230Y007933D01*
X017230Y007834D02*
X016330Y007834D01*
X016330Y007736D02*
X016230Y007736D01*
X016230Y007637D02*
X016330Y007637D01*
X016330Y007539D02*
X016230Y007539D01*
X016230Y007440D02*
X016330Y007440D01*
X016230Y007315D02*
X016158Y007326D01*
X016080Y007351D01*
X016007Y007389D01*
X015941Y007437D01*
X015883Y007495D01*
X015835Y007561D01*
X015813Y007604D01*
X015772Y007505D01*
X015609Y007342D01*
X016110Y007342D01*
X015938Y007440D02*
X015707Y007440D01*
X015786Y007539D02*
X015851Y007539D01*
X015609Y007342D02*
X015395Y007253D01*
X015165Y007253D01*
X014951Y007342D01*
X014609Y007342D01*
X014772Y007505D01*
X014780Y007525D01*
X014788Y007505D01*
X014951Y007342D01*
X014853Y007440D02*
X014707Y007440D01*
X014609Y007342D02*
X014395Y007253D01*
X014165Y007253D01*
X013951Y007342D01*
X013609Y007342D01*
X013772Y007505D01*
X013780Y007525D01*
X013788Y007505D01*
X013951Y007342D01*
X013853Y007440D02*
X013707Y007440D01*
X013609Y007342D02*
X013395Y007253D01*
X013165Y007253D01*
X012951Y007342D01*
X012609Y007342D01*
X012772Y007505D01*
X012780Y007525D01*
X012788Y007505D01*
X012951Y007342D01*
X012853Y007440D02*
X012707Y007440D01*
X012609Y007342D02*
X012395Y007253D01*
X012165Y007253D01*
X011951Y007342D01*
X011609Y007342D01*
X011772Y007505D01*
X011780Y007525D01*
X011788Y007505D01*
X011951Y007342D01*
X011853Y007440D02*
X011707Y007440D01*
X011609Y007342D02*
X011395Y007253D01*
X011165Y007253D01*
X010951Y007342D01*
X010609Y007342D01*
X010772Y007505D01*
X010780Y007525D01*
X010788Y007505D01*
X010951Y007342D01*
X010853Y007440D02*
X010707Y007440D01*
X010609Y007342D02*
X010395Y007253D01*
X010165Y007253D01*
X009951Y007342D01*
X009609Y007342D01*
X009772Y007505D01*
X009780Y007525D01*
X009788Y007505D01*
X009951Y007342D01*
X009853Y007440D02*
X009707Y007440D01*
X009609Y007342D02*
X009395Y007253D01*
X009165Y007253D01*
X008951Y007342D01*
X008609Y007342D01*
X008570Y007326D01*
X008570Y006953D01*
X010900Y004623D01*
X013838Y004623D01*
X013944Y004579D01*
X014026Y004498D01*
X014526Y003998D01*
X014570Y003891D01*
X014570Y003016D01*
X014695Y002891D01*
X014770Y002711D01*
X014770Y001956D01*
X014695Y001776D01*
X014558Y001638D01*
X014450Y001593D01*
X015110Y001593D01*
X015002Y001638D01*
X014865Y001776D01*
X014790Y001956D01*
X014790Y002711D01*
X014865Y002891D01*
X014990Y003016D01*
X014990Y003891D01*
X015034Y003998D01*
X017990Y006953D01*
X017990Y007326D01*
X017951Y007342D01*
X017990Y007243D02*
X008570Y007243D01*
X008570Y007145D02*
X017990Y007145D01*
X017990Y007046D02*
X008570Y007046D01*
X008576Y006948D02*
X017984Y006948D01*
X017886Y006849D02*
X008674Y006849D01*
X008773Y006751D02*
X017787Y006751D01*
X017689Y006652D02*
X008871Y006652D01*
X008970Y006554D02*
X017590Y006554D01*
X017492Y006455D02*
X009068Y006455D01*
X009167Y006357D02*
X017393Y006357D01*
X017295Y006258D02*
X009265Y006258D01*
X009364Y006160D02*
X017196Y006160D01*
X017098Y006061D02*
X009462Y006061D01*
X009561Y005963D02*
X016999Y005963D01*
X016901Y005864D02*
X009659Y005864D01*
X009758Y005766D02*
X016802Y005766D01*
X016704Y005667D02*
X009856Y005667D01*
X009955Y005569D02*
X016605Y005569D01*
X016507Y005470D02*
X010053Y005470D01*
X010152Y005372D02*
X016408Y005372D01*
X016310Y005273D02*
X010250Y005273D01*
X010349Y005175D02*
X016211Y005175D01*
X016113Y005076D02*
X010447Y005076D01*
X010546Y004978D02*
X016014Y004978D01*
X015916Y004879D02*
X010644Y004879D01*
X010743Y004781D02*
X015817Y004781D01*
X015719Y004682D02*
X010841Y004682D01*
X010415Y004288D02*
X006954Y004288D01*
X006954Y004274D02*
X006881Y004004D01*
X006742Y003762D01*
X006545Y003565D01*
X006303Y003426D01*
X006033Y003353D01*
X005754Y003353D01*
X005485Y003426D01*
X005243Y003565D01*
X005045Y003762D01*
X004906Y004004D01*
X004834Y004274D01*
X004834Y004553D01*
X004906Y004822D01*
X005045Y005064D01*
X005243Y005262D01*
X005485Y005401D01*
X005754Y005473D01*
X006033Y005473D01*
X006303Y005401D01*
X006545Y005262D01*
X006742Y005064D01*
X006881Y004822D01*
X006954Y004553D01*
X006954Y004274D01*
X006931Y004190D02*
X010513Y004190D01*
X010612Y004091D02*
X006905Y004091D01*
X006875Y003993D02*
X013710Y003993D01*
X013660Y004043D02*
X013990Y003713D01*
X013990Y003016D01*
X013865Y002891D01*
X013790Y002711D01*
X013790Y001956D01*
X013865Y001776D01*
X014002Y001638D01*
X014110Y001593D01*
X013450Y001593D01*
X013558Y001638D01*
X013695Y001776D01*
X013770Y001956D01*
X013770Y002711D01*
X013695Y002891D01*
X013558Y003029D01*
X013377Y003103D01*
X013183Y003103D01*
X013002Y003029D01*
X012865Y002891D01*
X012790Y002711D01*
X012790Y001956D01*
X012865Y001776D01*
X013002Y001638D01*
X013110Y001593D01*
X012450Y001593D01*
X012558Y001638D01*
X012695Y001776D01*
X012770Y001956D01*
X012770Y002711D01*
X012695Y002891D01*
X012558Y003029D01*
X012377Y003103D01*
X012183Y003103D01*
X012002Y003029D01*
X011865Y002891D01*
X011790Y002711D01*
X011790Y001956D01*
X011865Y001776D01*
X012002Y001638D01*
X012110Y001593D01*
X007188Y001593D01*
X007256Y001621D01*
X007492Y001858D01*
X007620Y002166D01*
X007620Y002500D01*
X007492Y002809D01*
X007256Y003045D01*
X006947Y003173D01*
X006613Y003173D01*
X006304Y003045D01*
X006068Y002809D01*
X005940Y002500D01*
X005940Y002166D01*
X006068Y001858D01*
X006304Y001621D01*
X006372Y001593D01*
X004958Y001593D01*
X004990Y001601D01*
X005096Y001638D01*
X005197Y001686D01*
X005292Y001746D01*
X005380Y001816D01*
X005459Y001896D01*
X005529Y001983D01*
X005589Y002078D01*
X005638Y002180D01*
X005675Y002286D01*
X005700Y002395D01*
X005713Y002507D01*
X005713Y002513D01*
X004763Y002513D01*
X004763Y002613D01*
X005713Y002613D01*
X005713Y002619D01*
X005700Y002731D01*
X005675Y002840D01*
X005638Y002946D01*
X005589Y003047D01*
X005529Y003143D01*
X005459Y003230D01*
X005380Y003310D01*
X005292Y003380D01*
X005197Y003440D01*
X005096Y003488D01*
X004990Y003525D01*
X004880Y003550D01*
X004769Y003563D01*
X004763Y003563D01*
X004763Y002613D01*
X004663Y002613D01*
X004663Y003563D01*
X004656Y003563D01*
X004545Y003550D01*
X004435Y003525D01*
X004329Y003488D01*
X004228Y003440D01*
X004133Y003380D01*
X004045Y003310D01*
X003966Y003230D01*
X003896Y003143D01*
X003836Y003047D01*
X003787Y002946D01*
X003750Y002840D01*
X003725Y002731D01*
X003713Y002619D01*
X003713Y002613D01*
X004663Y002613D01*
X004663Y002513D01*
X003713Y002513D01*
X003713Y002507D01*
X003725Y002395D01*
X003750Y002286D01*
X003787Y002180D01*
X003836Y002078D01*
X003896Y001983D01*
X003966Y001896D01*
X004045Y001816D01*
X004133Y001746D01*
X004228Y001686D01*
X004329Y001638D01*
X004435Y001601D01*
X004467Y001593D01*
X001674Y001593D01*
X001648Y001596D01*
X001599Y001616D01*
X001563Y001653D01*
X001543Y001701D01*
X001540Y001727D01*
X001540Y021940D01*
X001543Y021966D01*
X001563Y022014D01*
X001599Y022051D01*
X001648Y022071D01*
X001674Y022073D01*
X006872Y022073D01*
X006804Y022045D01*
X006568Y021809D01*
X006440Y021500D01*
X006440Y021166D01*
X006568Y020858D01*
X006804Y020621D01*
X007113Y020493D01*
X007447Y020493D01*
X007756Y020621D01*
X007992Y020858D01*
X008120Y021166D01*
X008120Y021500D01*
X007992Y021809D01*
X007756Y022045D01*
X007688Y022073D01*
X008510Y022073D01*
X008402Y022029D01*
X008265Y021891D01*
X008190Y021711D01*
X008190Y020956D01*
X008265Y020776D01*
X008402Y020638D01*
X008583Y020563D01*
X008777Y020563D01*
X008958Y020638D01*
X009095Y020776D01*
X009170Y020956D01*
X009170Y021711D01*
X009095Y021891D01*
X008958Y022029D01*
X008850Y022073D01*
X009510Y022073D01*
X009402Y022029D01*
X009265Y021891D01*
X009190Y021711D01*
X009190Y020956D01*
X009265Y020776D01*
X009402Y020638D01*
X009583Y020563D01*
X009777Y020563D01*
X009958Y020638D01*
X010095Y020776D01*
X010170Y020956D01*
X010170Y021711D01*
X010095Y021891D01*
X009958Y022029D01*
X009850Y022073D01*
X010510Y022073D01*
X010402Y022029D01*
X010265Y021891D01*
X010190Y021711D01*
X010190Y020956D01*
X010265Y020776D01*
X010402Y020638D01*
X010583Y020563D01*
X010777Y020563D01*
X010958Y020638D01*
X011095Y020776D01*
X011170Y020956D01*
X011170Y021711D01*
X011095Y021891D01*
X010958Y022029D01*
X010850Y022073D01*
X012510Y022073D01*
X012402Y022029D01*
X012265Y021891D01*
X012190Y021711D01*
X012190Y020956D01*
X012265Y020776D01*
X012402Y020638D01*
X012583Y020563D01*
X012777Y020563D01*
X012958Y020638D01*
X013095Y020776D01*
X013170Y020956D01*
X013170Y021711D01*
X013095Y021891D01*
X012958Y022029D01*
X012850Y022073D01*
X013510Y022073D01*
X013402Y022029D01*
X013265Y021891D01*
X013190Y021711D01*
X013190Y020956D01*
X013265Y020776D01*
X013402Y020638D01*
X013583Y020563D01*
X013777Y020563D01*
X013958Y020638D01*
X014095Y020776D01*
X014170Y020956D01*
X014170Y021711D01*
X014095Y021891D01*
X013958Y022029D01*
X013850Y022073D01*
X014510Y022073D01*
X014402Y022029D01*
X014265Y021891D01*
X014190Y021711D01*
X014190Y020956D01*
X014265Y020776D01*
X014402Y020638D01*
X014583Y020563D01*
X014640Y020563D01*
X016034Y019169D01*
X016116Y019087D01*
X016222Y019043D01*
X023160Y019043D01*
X023982Y018221D01*
X023928Y018275D02*
X023293Y018275D01*
X023293Y018374D02*
X023829Y018374D01*
X023731Y018472D02*
X023293Y018472D01*
X023293Y018571D02*
X023632Y018571D01*
X023534Y018669D02*
X023293Y018669D01*
X023249Y018768D02*
X023435Y018768D01*
X023337Y018866D02*
X001540Y018866D01*
X001540Y018768D02*
X022561Y018768D01*
X022517Y018669D02*
X011097Y018669D01*
X011045Y018721D02*
X010515Y018721D01*
X010392Y018598D01*
X010392Y018068D01*
X010515Y017945D01*
X011045Y017945D01*
X011168Y018068D01*
X011168Y018598D01*
X011045Y018721D01*
X011168Y018571D02*
X022517Y018571D01*
X022517Y018472D02*
X011168Y018472D01*
X011168Y018374D02*
X022490Y018374D01*
X022490Y018275D02*
X011168Y018275D01*
X011168Y018177D02*
X022490Y018177D01*
X022490Y018078D02*
X011168Y018078D01*
X011080Y017980D02*
X022490Y017980D01*
X022490Y017881D02*
X001540Y017881D01*
X001540Y017783D02*
X022490Y017783D01*
X022490Y017684D02*
X001540Y017684D01*
X001540Y017586D02*
X022490Y017586D01*
X022490Y017487D02*
X001540Y017487D01*
X001540Y017389D02*
X022490Y017389D01*
X022490Y017290D02*
X001540Y017290D01*
X001540Y017192D02*
X022525Y017192D01*
X022610Y017093D02*
X001540Y017093D01*
X001540Y016995D02*
X022708Y016995D01*
X022807Y016896D02*
X001540Y016896D01*
X001540Y016798D02*
X022905Y016798D01*
X023004Y016699D02*
X001540Y016699D01*
X001540Y016601D02*
X023102Y016601D01*
X023201Y016502D02*
X001540Y016502D01*
X001540Y016404D02*
X007142Y016404D01*
X007165Y016413D02*
X006951Y016325D01*
X006788Y016162D01*
X006700Y015949D01*
X006700Y015718D01*
X006788Y015505D01*
X006951Y015342D01*
X007165Y015253D01*
X007395Y015253D01*
X007609Y015342D01*
X007772Y015505D01*
X007780Y015525D01*
X007788Y015505D01*
X007951Y015342D01*
X008165Y015253D01*
X008395Y015253D01*
X008609Y015342D01*
X008772Y015505D01*
X008780Y015525D01*
X008788Y015505D01*
X008951Y015342D01*
X009165Y015253D01*
X009395Y015253D01*
X009609Y015342D01*
X009772Y015505D01*
X009780Y015525D01*
X009788Y015505D01*
X009951Y015342D01*
X010165Y015253D01*
X010395Y015253D01*
X010609Y015342D01*
X010772Y015505D01*
X010780Y015525D01*
X010788Y015505D01*
X010951Y015342D01*
X011165Y015253D01*
X011395Y015253D01*
X011609Y015342D01*
X011772Y015505D01*
X011780Y015525D01*
X011788Y015505D01*
X011951Y015342D01*
X012165Y015253D01*
X012395Y015253D01*
X012609Y015342D01*
X012772Y015505D01*
X012780Y015525D01*
X012788Y015505D01*
X012951Y015342D01*
X013165Y015253D01*
X013395Y015253D01*
X013609Y015342D01*
X013772Y015505D01*
X013780Y015525D01*
X013788Y015505D01*
X013951Y015342D01*
X014165Y015253D01*
X014395Y015253D01*
X014609Y015342D01*
X014772Y015505D01*
X014780Y015525D01*
X014788Y015505D01*
X014951Y015342D01*
X015165Y015253D01*
X015395Y015253D01*
X015609Y015342D01*
X015772Y015505D01*
X015780Y015525D01*
X015788Y015505D01*
X015951Y015342D01*
X016165Y015253D01*
X016395Y015253D01*
X016609Y015342D01*
X016772Y015505D01*
X016780Y015525D01*
X016788Y015505D01*
X016951Y015342D01*
X016990Y015326D01*
X016990Y014953D01*
X016410Y014373D01*
X005643Y014373D01*
X005545Y014471D01*
X005015Y014471D01*
X004892Y014348D01*
X004892Y013818D01*
X005015Y013695D01*
X005545Y013695D01*
X005643Y013793D01*
X016588Y013793D01*
X016694Y013837D01*
X016776Y013919D01*
X017444Y014587D01*
X017444Y014587D01*
X017526Y014669D01*
X017570Y014776D01*
X017570Y015326D01*
X017609Y015342D01*
X017772Y015505D01*
X017780Y015525D01*
X017788Y015505D01*
X017951Y015342D01*
X017990Y015326D01*
X017990Y014953D01*
X016660Y013623D01*
X006643Y013623D01*
X006545Y013721D01*
X006015Y013721D01*
X005892Y013598D01*
X005892Y013068D01*
X006015Y012945D01*
X006545Y012945D01*
X006643Y013043D01*
X016838Y013043D01*
X016944Y013087D01*
X018444Y014587D01*
X018526Y014669D01*
X018570Y014776D01*
X018570Y015326D01*
X018609Y015342D01*
X018772Y015505D01*
X018780Y015525D01*
X018788Y015505D01*
X018951Y015342D01*
X019165Y015253D01*
X019395Y015253D01*
X019609Y015342D01*
X019772Y015505D01*
X019780Y015525D01*
X019788Y015505D01*
X019951Y015342D01*
X020165Y015253D01*
X020395Y015253D01*
X020609Y015342D01*
X020772Y015505D01*
X020860Y015718D01*
X020860Y015949D01*
X020772Y016162D01*
X020609Y016325D01*
X020395Y016413D01*
X020165Y016413D01*
X019951Y016325D01*
X019788Y016162D01*
X019780Y016142D01*
X019772Y016162D01*
X019609Y016325D01*
X019395Y016413D01*
X019165Y016413D01*
X018951Y016325D01*
X018788Y016162D01*
X018780Y016142D01*
X018772Y016162D01*
X018609Y016325D01*
X018395Y016413D01*
X018165Y016413D01*
X017951Y016325D01*
X017788Y016162D01*
X017780Y016142D01*
X017772Y016162D01*
X017609Y016325D01*
X017395Y016413D01*
X017165Y016413D01*
X016951Y016325D01*
X016788Y016162D01*
X016780Y016142D01*
X016772Y016162D01*
X016609Y016325D01*
X016395Y016413D01*
X016165Y016413D01*
X015951Y016325D01*
X015788Y016162D01*
X015780Y016142D01*
X015772Y016162D01*
X015609Y016325D01*
X015395Y016413D01*
X015165Y016413D01*
X014951Y016325D01*
X014788Y016162D01*
X014780Y016142D01*
X014772Y016162D01*
X014609Y016325D01*
X014395Y016413D01*
X014165Y016413D01*
X013951Y016325D01*
X013788Y016162D01*
X013780Y016142D01*
X013772Y016162D01*
X013609Y016325D01*
X013395Y016413D01*
X013165Y016413D01*
X012951Y016325D01*
X012788Y016162D01*
X012780Y016142D01*
X012772Y016162D01*
X012609Y016325D01*
X012395Y016413D01*
X012165Y016413D01*
X011951Y016325D01*
X011788Y016162D01*
X011780Y016142D01*
X011772Y016162D01*
X011609Y016325D01*
X011395Y016413D01*
X011165Y016413D01*
X010951Y016325D01*
X010788Y016162D01*
X010780Y016142D01*
X010772Y016162D01*
X010609Y016325D01*
X010395Y016413D01*
X010165Y016413D01*
X009951Y016325D01*
X009788Y016162D01*
X009780Y016142D01*
X009772Y016162D01*
X009609Y016325D01*
X009395Y016413D01*
X009165Y016413D01*
X008951Y016325D01*
X008788Y016162D01*
X008780Y016142D01*
X008772Y016162D01*
X008609Y016325D01*
X008395Y016413D01*
X008165Y016413D01*
X007951Y016325D01*
X007788Y016162D01*
X007780Y016142D01*
X007772Y016162D01*
X007609Y016325D01*
X007395Y016413D01*
X007165Y016413D01*
X007418Y016404D02*
X008142Y016404D01*
X007932Y016305D02*
X007628Y016305D01*
X007727Y016207D02*
X007833Y016207D01*
X008418Y016404D02*
X009142Y016404D01*
X008932Y016305D02*
X008628Y016305D01*
X008727Y016207D02*
X008833Y016207D01*
X009418Y016404D02*
X010142Y016404D01*
X009932Y016305D02*
X009628Y016305D01*
X009727Y016207D02*
X009833Y016207D01*
X010418Y016404D02*
X011142Y016404D01*
X010932Y016305D02*
X010628Y016305D01*
X010727Y016207D02*
X010833Y016207D01*
X011418Y016404D02*
X012142Y016404D01*
X011932Y016305D02*
X011628Y016305D01*
X011727Y016207D02*
X011833Y016207D01*
X012418Y016404D02*
X013142Y016404D01*
X012932Y016305D02*
X012628Y016305D01*
X012727Y016207D02*
X012833Y016207D01*
X013418Y016404D02*
X014142Y016404D01*
X013932Y016305D02*
X013628Y016305D01*
X013727Y016207D02*
X013833Y016207D01*
X014418Y016404D02*
X015142Y016404D01*
X014932Y016305D02*
X014628Y016305D01*
X014727Y016207D02*
X014833Y016207D01*
X015418Y016404D02*
X016142Y016404D01*
X015932Y016305D02*
X015628Y016305D01*
X015727Y016207D02*
X015833Y016207D01*
X016418Y016404D02*
X017142Y016404D01*
X016932Y016305D02*
X016628Y016305D01*
X016727Y016207D02*
X016833Y016207D01*
X017418Y016404D02*
X018142Y016404D01*
X017932Y016305D02*
X017628Y016305D01*
X017727Y016207D02*
X017833Y016207D01*
X018418Y016404D02*
X019142Y016404D01*
X018932Y016305D02*
X018628Y016305D01*
X018727Y016207D02*
X018833Y016207D01*
X019418Y016404D02*
X020142Y016404D01*
X019932Y016305D02*
X019628Y016305D01*
X019727Y016207D02*
X019833Y016207D01*
X020418Y016404D02*
X023299Y016404D01*
X023398Y016305D02*
X020628Y016305D01*
X020727Y016207D02*
X023496Y016207D01*
X023595Y016108D02*
X020794Y016108D01*
X020835Y016010D02*
X023693Y016010D01*
X023740Y015911D02*
X020860Y015911D01*
X020860Y015813D02*
X023740Y015813D01*
X023740Y015714D02*
X020859Y015714D01*
X020818Y015616D02*
X023740Y015616D01*
X023740Y015517D02*
X020777Y015517D01*
X020686Y015419D02*
X023740Y015419D01*
X023740Y015320D02*
X020557Y015320D01*
X020003Y015320D02*
X019557Y015320D01*
X019686Y015419D02*
X019874Y015419D01*
X019783Y015517D02*
X019777Y015517D01*
X019003Y015320D02*
X018570Y015320D01*
X018570Y015222D02*
X023740Y015222D01*
X023740Y015123D02*
X018570Y015123D01*
X018570Y015025D02*
X023740Y015025D01*
X023740Y014926D02*
X018570Y014926D01*
X018570Y014828D02*
X023740Y014828D01*
X023740Y014729D02*
X018551Y014729D01*
X018488Y014631D02*
X022424Y014631D01*
X022392Y014532D02*
X018389Y014532D01*
X018291Y014434D02*
X022392Y014434D01*
X022392Y014335D02*
X018192Y014335D01*
X018094Y014237D02*
X022392Y014237D01*
X022392Y014138D02*
X017995Y014138D01*
X017897Y014040D02*
X022420Y014040D01*
X022762Y013941D02*
X017798Y013941D01*
X017700Y013843D02*
X022860Y013843D01*
X022959Y013744D02*
X017601Y013744D01*
X017503Y013646D02*
X023057Y013646D01*
X023156Y013547D02*
X017404Y013547D01*
X017306Y013449D02*
X023240Y013449D01*
X023240Y013350D02*
X017207Y013350D01*
X017109Y013252D02*
X023240Y013252D01*
X023240Y013153D02*
X017010Y013153D01*
X016866Y013055D02*
X023240Y013055D01*
X023240Y012956D02*
X006556Y012956D01*
X006004Y012956D02*
X001540Y012956D01*
X001540Y012858D02*
X023240Y012858D01*
X023240Y012759D02*
X001540Y012759D01*
X001540Y012661D02*
X023240Y012661D01*
X024320Y012661D02*
X024740Y012661D01*
X024740Y012759D02*
X024320Y012759D01*
X024320Y012858D02*
X024740Y012858D01*
X024740Y012956D02*
X024320Y012956D01*
X024320Y013055D02*
X024740Y013055D01*
X024740Y013153D02*
X024320Y013153D01*
X024320Y013252D02*
X024740Y013252D01*
X024740Y013350D02*
X024320Y013350D01*
X024320Y013449D02*
X024740Y013449D01*
X024740Y013547D02*
X024320Y013547D01*
X024320Y013646D02*
X024740Y013646D01*
X024740Y013744D02*
X024320Y013744D01*
X024320Y013843D02*
X024740Y013843D01*
X024740Y013941D02*
X024320Y013941D01*
X024320Y014040D02*
X024740Y014040D01*
X024740Y014138D02*
X024320Y014138D01*
X024320Y014237D02*
X024740Y014237D01*
X024740Y014335D02*
X024320Y014335D01*
X024320Y014434D02*
X024740Y014434D01*
X024740Y014532D02*
X024320Y014532D01*
X024320Y014631D02*
X024740Y014631D01*
X024740Y014729D02*
X024320Y014729D01*
X024320Y014828D02*
X024740Y014828D01*
X024740Y014926D02*
X024320Y014926D01*
X024320Y015025D02*
X024740Y015025D01*
X024740Y015123D02*
X024320Y015123D01*
X024320Y015222D02*
X024740Y015222D01*
X024740Y015320D02*
X024320Y015320D01*
X024320Y015419D02*
X024740Y015419D01*
X024740Y015517D02*
X024320Y015517D01*
X024320Y015616D02*
X024740Y015616D01*
X024740Y015714D02*
X024320Y015714D01*
X024320Y015813D02*
X024740Y015813D01*
X024740Y015911D02*
X024320Y015911D01*
X024320Y016010D02*
X024740Y016010D01*
X024740Y016108D02*
X024320Y016108D01*
X024293Y016207D02*
X024740Y016207D01*
X024740Y016305D02*
X024218Y016305D01*
X024120Y016404D02*
X024740Y016404D01*
X024701Y016502D02*
X024021Y016502D01*
X023923Y016601D02*
X024602Y016601D01*
X024504Y016699D02*
X023824Y016699D01*
X023726Y016798D02*
X024405Y016798D01*
X024307Y016896D02*
X023627Y016896D01*
X023529Y016995D02*
X024208Y016995D01*
X024110Y017093D02*
X023430Y017093D01*
X023332Y017192D02*
X024011Y017192D01*
X023913Y017290D02*
X023233Y017290D01*
X023135Y017389D02*
X023814Y017389D01*
X023473Y017487D02*
X023070Y017487D01*
X023070Y017586D02*
X023392Y017586D01*
X023392Y017684D02*
X023070Y017684D01*
X023070Y017783D02*
X023392Y017783D01*
X023392Y017881D02*
X023070Y017881D01*
X023070Y017980D02*
X023392Y017980D01*
X023392Y018078D02*
X023178Y018078D01*
X023277Y018177D02*
X023470Y018177D01*
X023238Y018965D02*
X001540Y018965D01*
X001540Y019063D02*
X016174Y019063D01*
X016041Y019162D02*
X001540Y019162D01*
X001540Y019260D02*
X015943Y019260D01*
X015844Y019359D02*
X001540Y019359D01*
X001540Y019457D02*
X015746Y019457D01*
X015647Y019556D02*
X001540Y019556D01*
X001540Y019654D02*
X015549Y019654D01*
X015450Y019753D02*
X001540Y019753D01*
X001540Y019851D02*
X015352Y019851D01*
X015253Y019950D02*
X001540Y019950D01*
X001540Y020048D02*
X015155Y020048D01*
X015056Y020147D02*
X001540Y020147D01*
X001540Y020245D02*
X014958Y020245D01*
X014859Y020344D02*
X001540Y020344D01*
X001540Y020442D02*
X014761Y020442D01*
X014662Y020541D02*
X007562Y020541D01*
X007774Y020639D02*
X008401Y020639D01*
X008302Y020738D02*
X007872Y020738D01*
X007971Y020836D02*
X008239Y020836D01*
X008199Y020935D02*
X008024Y020935D01*
X008065Y021033D02*
X008190Y021033D01*
X008190Y021132D02*
X008106Y021132D01*
X008120Y021230D02*
X008190Y021230D01*
X008190Y021329D02*
X008120Y021329D01*
X008120Y021427D02*
X008190Y021427D01*
X008190Y021526D02*
X008109Y021526D01*
X008069Y021624D02*
X008190Y021624D01*
X008195Y021723D02*
X008028Y021723D01*
X007980Y021821D02*
X008236Y021821D01*
X008294Y021920D02*
X007881Y021920D01*
X007783Y022018D02*
X008392Y022018D01*
X008968Y022018D02*
X009392Y022018D01*
X009294Y021920D02*
X009066Y021920D01*
X009124Y021821D02*
X009236Y021821D01*
X009195Y021723D02*
X009165Y021723D01*
X009170Y021624D02*
X009190Y021624D01*
X009190Y021526D02*
X009170Y021526D01*
X009170Y021427D02*
X009190Y021427D01*
X009190Y021329D02*
X009170Y021329D01*
X009170Y021230D02*
X009190Y021230D01*
X009190Y021132D02*
X009170Y021132D01*
X009170Y021033D02*
X009190Y021033D01*
X009199Y020935D02*
X009161Y020935D01*
X009121Y020836D02*
X009239Y020836D01*
X009302Y020738D02*
X009058Y020738D01*
X008959Y020639D02*
X009401Y020639D01*
X009959Y020639D02*
X010401Y020639D01*
X010302Y020738D02*
X010058Y020738D01*
X010121Y020836D02*
X010239Y020836D01*
X010199Y020935D02*
X010161Y020935D01*
X010170Y021033D02*
X010190Y021033D01*
X010190Y021132D02*
X010170Y021132D01*
X010170Y021230D02*
X010190Y021230D01*
X010190Y021329D02*
X010170Y021329D01*
X010170Y021427D02*
X010190Y021427D01*
X010190Y021526D02*
X010170Y021526D01*
X010170Y021624D02*
X010190Y021624D01*
X010195Y021723D02*
X010165Y021723D01*
X010124Y021821D02*
X010236Y021821D01*
X010294Y021920D02*
X010066Y021920D01*
X009968Y022018D02*
X010392Y022018D01*
X010968Y022018D02*
X011535Y022018D01*
X011515Y022012D02*
X011455Y021981D01*
X011400Y021941D01*
X011352Y021893D01*
X011312Y021839D01*
X011282Y021778D01*
X011261Y021714D01*
X011250Y021647D01*
X011250Y021367D01*
X011646Y021367D01*
X011646Y021300D01*
X011250Y021300D01*
X011250Y021019D01*
X011261Y020953D01*
X011282Y020888D01*
X011312Y020828D01*
X011352Y020773D01*
X011400Y020725D01*
X011455Y020686D01*
X011515Y020655D01*
X011579Y020634D01*
X011646Y020623D01*
X011646Y020623D01*
X011646Y021300D01*
X011714Y021300D01*
X011714Y021367D01*
X012110Y021367D01*
X012110Y021647D01*
X012099Y021714D01*
X012078Y021778D01*
X012048Y021839D01*
X012008Y021893D01*
X011960Y021941D01*
X011905Y021981D01*
X011845Y022012D01*
X011781Y022033D01*
X011714Y022043D01*
X011714Y022043D01*
X011714Y021367D01*
X011646Y021367D01*
X011646Y022043D01*
X011579Y022033D01*
X011515Y022012D01*
X011646Y022018D02*
X011714Y022018D01*
X011646Y022043D02*
X011646Y022043D01*
X011646Y021920D02*
X011714Y021920D01*
X011714Y021821D02*
X011646Y021821D01*
X011646Y021723D02*
X011714Y021723D01*
X011714Y021624D02*
X011646Y021624D01*
X011646Y021526D02*
X011714Y021526D01*
X011714Y021427D02*
X011646Y021427D01*
X011646Y021329D02*
X011170Y021329D01*
X011170Y021427D02*
X011250Y021427D01*
X011250Y021526D02*
X011170Y021526D01*
X011170Y021624D02*
X011250Y021624D01*
X011263Y021723D02*
X011165Y021723D01*
X011124Y021821D02*
X011303Y021821D01*
X011378Y021920D02*
X011066Y021920D01*
X011170Y021230D02*
X011250Y021230D01*
X011250Y021132D02*
X011170Y021132D01*
X011170Y021033D02*
X011250Y021033D01*
X011266Y020935D02*
X011161Y020935D01*
X011121Y020836D02*
X011308Y020836D01*
X011387Y020738D02*
X011058Y020738D01*
X010959Y020639D02*
X011563Y020639D01*
X011646Y020639D02*
X011714Y020639D01*
X011714Y020623D02*
X011781Y020634D01*
X011845Y020655D01*
X011905Y020686D01*
X011960Y020725D01*
X012008Y020773D01*
X012048Y020828D01*
X012078Y020888D01*
X012099Y020953D01*
X012110Y021019D01*
X012110Y021300D01*
X011714Y021300D01*
X011714Y020623D01*
X011714Y020623D01*
X011797Y020639D02*
X012401Y020639D01*
X012302Y020738D02*
X011973Y020738D01*
X012052Y020836D02*
X012239Y020836D01*
X012199Y020935D02*
X012094Y020935D01*
X012110Y021033D02*
X012190Y021033D01*
X012190Y021132D02*
X012110Y021132D01*
X012110Y021230D02*
X012190Y021230D01*
X012190Y021329D02*
X011714Y021329D01*
X011714Y021230D02*
X011646Y021230D01*
X011646Y021132D02*
X011714Y021132D01*
X011714Y021033D02*
X011646Y021033D01*
X011646Y020935D02*
X011714Y020935D01*
X011714Y020836D02*
X011646Y020836D01*
X011646Y020738D02*
X011714Y020738D01*
X012110Y021427D02*
X012190Y021427D01*
X012190Y021526D02*
X012110Y021526D01*
X012110Y021624D02*
X012190Y021624D01*
X012195Y021723D02*
X012097Y021723D01*
X012057Y021821D02*
X012236Y021821D01*
X012294Y021920D02*
X011982Y021920D01*
X011825Y022018D02*
X012392Y022018D01*
X012968Y022018D02*
X013392Y022018D01*
X013294Y021920D02*
X013066Y021920D01*
X013124Y021821D02*
X013236Y021821D01*
X013195Y021723D02*
X013165Y021723D01*
X013170Y021624D02*
X013190Y021624D01*
X013190Y021526D02*
X013170Y021526D01*
X013170Y021427D02*
X013190Y021427D01*
X013190Y021329D02*
X013170Y021329D01*
X013170Y021230D02*
X013190Y021230D01*
X013190Y021132D02*
X013170Y021132D01*
X013170Y021033D02*
X013190Y021033D01*
X013199Y020935D02*
X013161Y020935D01*
X013121Y020836D02*
X013239Y020836D01*
X013302Y020738D02*
X013058Y020738D01*
X012959Y020639D02*
X013401Y020639D01*
X013959Y020639D02*
X014401Y020639D01*
X014302Y020738D02*
X014058Y020738D01*
X014121Y020836D02*
X014239Y020836D01*
X014199Y020935D02*
X014161Y020935D01*
X014170Y021033D02*
X014190Y021033D01*
X014190Y021132D02*
X014170Y021132D01*
X014170Y021230D02*
X014190Y021230D01*
X014190Y021329D02*
X014170Y021329D01*
X014170Y021427D02*
X014190Y021427D01*
X014190Y021526D02*
X014170Y021526D01*
X014170Y021624D02*
X014190Y021624D01*
X014195Y021723D02*
X014165Y021723D01*
X014124Y021821D02*
X014236Y021821D01*
X014294Y021920D02*
X014066Y021920D01*
X013968Y022018D02*
X014392Y022018D01*
X010463Y018669D02*
X001540Y018669D01*
X001540Y018571D02*
X010392Y018571D01*
X010392Y018472D02*
X001540Y018472D01*
X001540Y018374D02*
X010392Y018374D01*
X010392Y018275D02*
X001540Y018275D01*
X001540Y018177D02*
X010392Y018177D01*
X010392Y018078D02*
X001540Y018078D01*
X001540Y017980D02*
X010480Y017980D01*
X010777Y015517D02*
X010783Y015517D01*
X010874Y015419D02*
X010686Y015419D01*
X010557Y015320D02*
X011003Y015320D01*
X011557Y015320D02*
X012003Y015320D01*
X011874Y015419D02*
X011686Y015419D01*
X011777Y015517D02*
X011783Y015517D01*
X012557Y015320D02*
X013003Y015320D01*
X012874Y015419D02*
X012686Y015419D01*
X012777Y015517D02*
X012783Y015517D01*
X013557Y015320D02*
X014003Y015320D01*
X013874Y015419D02*
X013686Y015419D01*
X013777Y015517D02*
X013783Y015517D01*
X014557Y015320D02*
X015003Y015320D01*
X014874Y015419D02*
X014686Y015419D01*
X014777Y015517D02*
X014783Y015517D01*
X015557Y015320D02*
X016003Y015320D01*
X015874Y015419D02*
X015686Y015419D01*
X015777Y015517D02*
X015783Y015517D01*
X016557Y015320D02*
X016990Y015320D01*
X016990Y015222D02*
X001540Y015222D01*
X001540Y015320D02*
X007003Y015320D01*
X006874Y015419D02*
X001540Y015419D01*
X001540Y015517D02*
X006783Y015517D01*
X006742Y015616D02*
X001540Y015616D01*
X001540Y015714D02*
X006701Y015714D01*
X006700Y015813D02*
X001540Y015813D01*
X001540Y015911D02*
X006700Y015911D01*
X006725Y016010D02*
X001540Y016010D01*
X001540Y016108D02*
X006766Y016108D01*
X006833Y016207D02*
X001540Y016207D01*
X001540Y016305D02*
X006932Y016305D01*
X007777Y015517D02*
X007783Y015517D01*
X007874Y015419D02*
X007686Y015419D01*
X007557Y015320D02*
X008003Y015320D01*
X008557Y015320D02*
X009003Y015320D01*
X008874Y015419D02*
X008686Y015419D01*
X008777Y015517D02*
X008783Y015517D01*
X009557Y015320D02*
X010003Y015320D01*
X009874Y015419D02*
X009686Y015419D01*
X009777Y015517D02*
X009783Y015517D01*
X006621Y013646D02*
X016682Y013646D01*
X016781Y013744D02*
X005594Y013744D01*
X005892Y013547D02*
X001540Y013547D01*
X001540Y013449D02*
X005892Y013449D01*
X005892Y013350D02*
X001540Y013350D01*
X001540Y013252D02*
X005892Y013252D01*
X005892Y013153D02*
X001540Y013153D01*
X001540Y013055D02*
X005905Y013055D01*
X005939Y013646D02*
X001540Y013646D01*
X001540Y013744D02*
X004966Y013744D01*
X004892Y013843D02*
X001540Y013843D01*
X001540Y013941D02*
X004892Y013941D01*
X004892Y014040D02*
X001540Y014040D01*
X001540Y014138D02*
X004892Y014138D01*
X004892Y014237D02*
X001540Y014237D01*
X001540Y014335D02*
X004892Y014335D01*
X004977Y014434D02*
X001540Y014434D01*
X001540Y014532D02*
X016569Y014532D01*
X016470Y014434D02*
X005583Y014434D01*
X001540Y014631D02*
X016667Y014631D01*
X016766Y014729D02*
X001540Y014729D01*
X001540Y014828D02*
X016864Y014828D01*
X016963Y014926D02*
X001540Y014926D01*
X001540Y015025D02*
X016990Y015025D01*
X016990Y015123D02*
X001540Y015123D01*
X001540Y020541D02*
X006998Y020541D01*
X006786Y020639D02*
X001540Y020639D01*
X001540Y020738D02*
X006688Y020738D01*
X006589Y020836D02*
X001540Y020836D01*
X001540Y020935D02*
X006536Y020935D01*
X006495Y021033D02*
X001540Y021033D01*
X001540Y021132D02*
X006454Y021132D01*
X006440Y021230D02*
X001540Y021230D01*
X001540Y021329D02*
X006440Y021329D01*
X006440Y021427D02*
X001540Y021427D01*
X001540Y021526D02*
X006451Y021526D01*
X006491Y021624D02*
X001540Y021624D01*
X001540Y021723D02*
X006532Y021723D01*
X006580Y021821D02*
X001540Y021821D01*
X001540Y021920D02*
X006679Y021920D01*
X006777Y022018D02*
X001567Y022018D01*
X001280Y021940D02*
X001282Y021979D01*
X001288Y022017D01*
X001297Y022054D01*
X001310Y022091D01*
X001327Y022126D01*
X001346Y022159D01*
X001369Y022190D01*
X001395Y022219D01*
X001424Y022245D01*
X001455Y022268D01*
X001488Y022287D01*
X001523Y022304D01*
X001560Y022317D01*
X001597Y022326D01*
X001635Y022332D01*
X001674Y022334D01*
X001674Y022333D02*
X026680Y022333D01*
X027280Y021733D01*
X027280Y017233D01*
X028280Y016233D01*
X024740Y012562D02*
X024320Y012562D01*
X024320Y012464D02*
X024740Y012464D01*
X024740Y012365D02*
X024320Y012365D01*
X024320Y012267D02*
X024740Y012267D01*
X024740Y012168D02*
X024320Y012168D01*
X024320Y012070D02*
X024740Y012070D01*
X024740Y011971D02*
X024320Y011971D01*
X024320Y011873D02*
X024740Y011873D01*
X024740Y011774D02*
X024320Y011774D01*
X024320Y011676D02*
X024740Y011676D01*
X024740Y011577D02*
X024320Y011577D01*
X024320Y011479D02*
X024740Y011479D01*
X024740Y011380D02*
X024320Y011380D01*
X024320Y011282D02*
X024740Y011282D01*
X024740Y011183D02*
X024320Y011183D01*
X024320Y011085D02*
X024740Y011085D01*
X024740Y010986D02*
X024320Y010986D01*
X024320Y010888D02*
X024681Y010888D01*
X024642Y010789D02*
X024320Y010789D01*
X024320Y010691D02*
X024642Y010691D01*
X024642Y010592D02*
X024320Y010592D01*
X024320Y010494D02*
X024642Y010494D01*
X023740Y013843D02*
X023681Y013843D01*
X023740Y013941D02*
X023582Y013941D01*
X023484Y014040D02*
X023740Y014040D01*
X023740Y014138D02*
X023385Y014138D01*
X023287Y014237D02*
X023740Y014237D01*
X023740Y014335D02*
X023188Y014335D01*
X023168Y014434D02*
X023740Y014434D01*
X023740Y014532D02*
X023168Y014532D01*
X023136Y014631D02*
X023740Y014631D01*
X018874Y015419D02*
X018686Y015419D01*
X018777Y015517D02*
X018783Y015517D01*
X017990Y015320D02*
X017570Y015320D01*
X017570Y015222D02*
X017990Y015222D01*
X017990Y015123D02*
X017570Y015123D01*
X017570Y015025D02*
X017990Y015025D01*
X017963Y014926D02*
X017570Y014926D01*
X017570Y014828D02*
X017864Y014828D01*
X017766Y014729D02*
X017551Y014729D01*
X017488Y014631D02*
X017667Y014631D01*
X017569Y014532D02*
X017389Y014532D01*
X017470Y014434D02*
X017291Y014434D01*
X017372Y014335D02*
X017192Y014335D01*
X017273Y014237D02*
X017094Y014237D01*
X017175Y014138D02*
X016995Y014138D01*
X017076Y014040D02*
X016897Y014040D01*
X016978Y013941D02*
X016798Y013941D01*
X016776Y013919D02*
X016776Y013919D01*
X016700Y013843D02*
X016879Y013843D01*
X016874Y015419D02*
X016686Y015419D01*
X016777Y015517D02*
X016783Y015517D01*
X017686Y015419D02*
X017874Y015419D01*
X017783Y015517D02*
X017777Y015517D01*
X017116Y008327D02*
X016444Y008327D01*
X016330Y008327D02*
X016230Y008327D01*
X016230Y008228D02*
X016330Y008228D01*
X016330Y008130D02*
X016230Y008130D01*
X016230Y008031D02*
X016330Y008031D01*
X016330Y007933D02*
X016230Y007933D01*
X015940Y008228D02*
X015705Y008228D01*
X015785Y008130D02*
X015853Y008130D01*
X015604Y008327D02*
X016116Y008327D01*
X016620Y008228D02*
X016940Y008228D01*
X016853Y008130D02*
X016707Y008130D01*
X016762Y008031D02*
X016798Y008031D01*
X016797Y007637D02*
X016763Y007637D01*
X016709Y007539D02*
X016851Y007539D01*
X016938Y007440D02*
X016622Y007440D01*
X017230Y007440D02*
X017330Y007440D01*
X017330Y007539D02*
X017230Y007539D01*
X017230Y007637D02*
X017330Y007637D01*
X017330Y007736D02*
X017230Y007736D01*
X017622Y007440D02*
X017853Y007440D01*
X017774Y007539D02*
X017709Y007539D01*
X017707Y008130D02*
X017775Y008130D01*
X017855Y008228D02*
X017620Y008228D01*
X014956Y008327D02*
X014604Y008327D01*
X014705Y008228D02*
X014855Y008228D01*
X013956Y008327D02*
X013604Y008327D01*
X013705Y008228D02*
X013855Y008228D01*
X012956Y008327D02*
X012604Y008327D01*
X012705Y008228D02*
X012855Y008228D01*
X011956Y008327D02*
X011604Y008327D01*
X011705Y008228D02*
X011855Y008228D01*
X010956Y008327D02*
X010604Y008327D01*
X010705Y008228D02*
X010855Y008228D01*
X009956Y008327D02*
X009604Y008327D01*
X009705Y008228D02*
X009855Y008228D01*
X008956Y008327D02*
X008604Y008327D01*
X008705Y008228D02*
X008855Y008228D01*
X008780Y007525D02*
X008788Y007505D01*
X008951Y007342D01*
X008853Y007440D02*
X008707Y007440D01*
X008772Y007505D02*
X008780Y007525D01*
X008772Y007505D02*
X008609Y007342D01*
X007990Y007326D02*
X007990Y006776D01*
X008034Y006669D01*
X008116Y006587D01*
X010616Y004087D01*
X010722Y004043D01*
X013660Y004043D01*
X013809Y003894D02*
X006818Y003894D01*
X006761Y003796D02*
X013907Y003796D01*
X013990Y003697D02*
X006677Y003697D01*
X006578Y003599D02*
X013990Y003599D01*
X013990Y003500D02*
X006432Y003500D01*
X006214Y003402D02*
X013990Y003402D01*
X013990Y003303D02*
X005386Y003303D01*
X005480Y003205D02*
X013990Y003205D01*
X013990Y003106D02*
X007109Y003106D01*
X007293Y003008D02*
X011982Y003008D01*
X011883Y002909D02*
X007392Y002909D01*
X007490Y002811D02*
X011831Y002811D01*
X011791Y002712D02*
X007532Y002712D01*
X007573Y002614D02*
X011790Y002614D01*
X011790Y002515D02*
X007614Y002515D01*
X007620Y002417D02*
X011790Y002417D01*
X011790Y002318D02*
X007620Y002318D01*
X007620Y002220D02*
X011790Y002220D01*
X011790Y002121D02*
X007601Y002121D01*
X007561Y002023D02*
X011790Y002023D01*
X011803Y001924D02*
X007520Y001924D01*
X007460Y001826D02*
X011844Y001826D01*
X011913Y001727D02*
X007362Y001727D01*
X007263Y001629D02*
X012024Y001629D01*
X012536Y001629D02*
X013024Y001629D01*
X012913Y001727D02*
X012647Y001727D01*
X012716Y001826D02*
X012844Y001826D01*
X012803Y001924D02*
X012757Y001924D01*
X012770Y002023D02*
X012790Y002023D01*
X012790Y002121D02*
X012770Y002121D01*
X012770Y002220D02*
X012790Y002220D01*
X012790Y002318D02*
X012770Y002318D01*
X012770Y002417D02*
X012790Y002417D01*
X012790Y002515D02*
X012770Y002515D01*
X012770Y002614D02*
X012790Y002614D01*
X012791Y002712D02*
X012769Y002712D01*
X012729Y002811D02*
X012831Y002811D01*
X012883Y002909D02*
X012677Y002909D01*
X012578Y003008D02*
X012982Y003008D01*
X013578Y003008D02*
X013982Y003008D01*
X013883Y002909D02*
X013677Y002909D01*
X013729Y002811D02*
X013831Y002811D01*
X013791Y002712D02*
X013769Y002712D01*
X013770Y002614D02*
X013790Y002614D01*
X013790Y002515D02*
X013770Y002515D01*
X013770Y002417D02*
X013790Y002417D01*
X013790Y002318D02*
X013770Y002318D01*
X013770Y002220D02*
X013790Y002220D01*
X013790Y002121D02*
X013770Y002121D01*
X013770Y002023D02*
X013790Y002023D01*
X013803Y001924D02*
X013757Y001924D01*
X013716Y001826D02*
X013844Y001826D01*
X013913Y001727D02*
X013647Y001727D01*
X013536Y001629D02*
X014024Y001629D01*
X014536Y001629D02*
X015024Y001629D01*
X014913Y001727D02*
X014647Y001727D01*
X014716Y001826D02*
X014844Y001826D01*
X014803Y001924D02*
X014757Y001924D01*
X014770Y002023D02*
X014790Y002023D01*
X014790Y002121D02*
X014770Y002121D01*
X014770Y002220D02*
X014790Y002220D01*
X014790Y002318D02*
X014770Y002318D01*
X014770Y002417D02*
X014790Y002417D01*
X014790Y002515D02*
X014770Y002515D01*
X014770Y002614D02*
X014790Y002614D01*
X014791Y002712D02*
X014769Y002712D01*
X014729Y002811D02*
X014831Y002811D01*
X014883Y002909D02*
X014677Y002909D01*
X014578Y003008D02*
X014982Y003008D01*
X014990Y003106D02*
X014570Y003106D01*
X014570Y003205D02*
X014990Y003205D01*
X014990Y003303D02*
X014570Y003303D01*
X014570Y003402D02*
X014990Y003402D01*
X014990Y003500D02*
X014570Y003500D01*
X014570Y003599D02*
X014990Y003599D01*
X014990Y003697D02*
X014570Y003697D01*
X014570Y003796D02*
X014990Y003796D01*
X014991Y003894D02*
X014569Y003894D01*
X014528Y003993D02*
X015032Y003993D01*
X015128Y004091D02*
X014432Y004091D01*
X014334Y004190D02*
X015226Y004190D01*
X015325Y004288D02*
X014235Y004288D01*
X014137Y004387D02*
X015423Y004387D01*
X015522Y004485D02*
X014038Y004485D01*
X013933Y004584D02*
X015620Y004584D01*
X017246Y003043D02*
X017246Y003043D01*
X017246Y003008D02*
X017314Y003008D01*
X017314Y002909D02*
X017246Y002909D01*
X017246Y002811D02*
X017314Y002811D01*
X017314Y002712D02*
X017246Y002712D01*
X017246Y002614D02*
X017314Y002614D01*
X017314Y002515D02*
X017246Y002515D01*
X017246Y002417D02*
X017314Y002417D01*
X017314Y002220D02*
X017246Y002220D01*
X017246Y002121D02*
X017314Y002121D01*
X017314Y002023D02*
X017246Y002023D01*
X017246Y001924D02*
X017314Y001924D01*
X017314Y001826D02*
X017246Y001826D01*
X017246Y001727D02*
X017314Y001727D01*
X017314Y001629D02*
X017246Y001629D01*
X017211Y001629D02*
X016536Y001629D01*
X016647Y001727D02*
X016998Y001727D01*
X016914Y001826D02*
X016716Y001826D01*
X016757Y001924D02*
X016870Y001924D01*
X016850Y002023D02*
X016770Y002023D01*
X016770Y002121D02*
X016850Y002121D01*
X016850Y002220D02*
X016770Y002220D01*
X017349Y001629D02*
X018211Y001629D01*
X018246Y001629D02*
X018314Y001629D01*
X018314Y001623D02*
X018381Y001634D01*
X018445Y001655D01*
X018505Y001686D01*
X018560Y001725D01*
X018608Y001773D01*
X018648Y001828D01*
X018678Y001888D01*
X018699Y001953D01*
X018710Y002019D01*
X018710Y002300D01*
X018314Y002300D01*
X018314Y001623D01*
X018314Y001623D01*
X018349Y001629D02*
X019024Y001629D01*
X018913Y001727D02*
X018562Y001727D01*
X018646Y001826D02*
X018844Y001826D01*
X018803Y001924D02*
X018690Y001924D01*
X018710Y002023D02*
X018790Y002023D01*
X018790Y002121D02*
X018710Y002121D01*
X018710Y002220D02*
X018790Y002220D01*
X018790Y002318D02*
X018314Y002318D01*
X018314Y002220D02*
X018246Y002220D01*
X018246Y002121D02*
X018314Y002121D01*
X018314Y002023D02*
X018246Y002023D01*
X018246Y001924D02*
X018314Y001924D01*
X018314Y001826D02*
X018246Y001826D01*
X018246Y001727D02*
X018314Y001727D01*
X017998Y001727D02*
X017562Y001727D01*
X017646Y001826D02*
X017914Y001826D01*
X017870Y001924D02*
X017690Y001924D01*
X017710Y002023D02*
X017850Y002023D01*
X017850Y002121D02*
X017710Y002121D01*
X017710Y002220D02*
X017850Y002220D01*
X017850Y002417D02*
X017710Y002417D01*
X017710Y002515D02*
X017850Y002515D01*
X017850Y002614D02*
X017710Y002614D01*
X017700Y002712D02*
X017860Y002712D01*
X017898Y002811D02*
X017662Y002811D01*
X017592Y002909D02*
X017968Y002909D01*
X018107Y003008D02*
X017453Y003008D01*
X018592Y002909D02*
X018883Y002909D01*
X018831Y002811D02*
X018662Y002811D01*
X018700Y002712D02*
X018791Y002712D01*
X018790Y002614D02*
X018710Y002614D01*
X018710Y002515D02*
X018790Y002515D01*
X018790Y002417D02*
X018710Y002417D01*
X010316Y004387D02*
X006954Y004387D01*
X006954Y004485D02*
X010218Y004485D01*
X010119Y004584D02*
X006945Y004584D01*
X006919Y004682D02*
X010021Y004682D01*
X009922Y004781D02*
X006893Y004781D01*
X006849Y004879D02*
X009824Y004879D01*
X009725Y004978D02*
X006792Y004978D01*
X006730Y005076D02*
X009627Y005076D01*
X009528Y005175D02*
X006631Y005175D01*
X006524Y005273D02*
X009430Y005273D01*
X009331Y005372D02*
X006354Y005372D01*
X006044Y005470D02*
X009233Y005470D01*
X009134Y005569D02*
X001540Y005569D01*
X001540Y005667D02*
X009036Y005667D01*
X008937Y005766D02*
X001540Y005766D01*
X001540Y005864D02*
X008839Y005864D01*
X008740Y005963D02*
X001540Y005963D01*
X001540Y006061D02*
X008642Y006061D01*
X008543Y006160D02*
X001540Y006160D01*
X001540Y006258D02*
X008445Y006258D01*
X008346Y006357D02*
X001540Y006357D01*
X001540Y006455D02*
X008248Y006455D01*
X008149Y006554D02*
X001540Y006554D01*
X001540Y006652D02*
X008051Y006652D01*
X008000Y006751D02*
X001540Y006751D01*
X001540Y006849D02*
X007990Y006849D01*
X007990Y006948D02*
X001540Y006948D01*
X001540Y007046D02*
X007990Y007046D01*
X007990Y007145D02*
X001540Y007145D01*
X001540Y007243D02*
X007990Y007243D01*
X007990Y007326D02*
X007951Y007342D01*
X007609Y007342D01*
X007772Y007505D01*
X007780Y007525D01*
X007788Y007505D01*
X007951Y007342D01*
X007853Y007440D02*
X007707Y007440D01*
X007609Y007342D02*
X007395Y007253D01*
X007165Y007253D01*
X006951Y007342D01*
X007705Y008228D02*
X007855Y008228D01*
X007956Y008327D02*
X007604Y008327D01*
X005743Y005470D02*
X001540Y005470D01*
X001540Y005372D02*
X003243Y005372D01*
X003254Y005376D02*
X003148Y005339D01*
X003047Y005290D01*
X002952Y005230D01*
X002864Y005160D01*
X002785Y005081D01*
X002715Y004993D01*
X002655Y004898D01*
X002606Y004797D01*
X002569Y004691D01*
X002544Y004581D01*
X002531Y004469D01*
X002531Y004463D01*
X003481Y004463D01*
X003481Y004363D01*
X002531Y004363D01*
X002531Y004357D01*
X002544Y004246D01*
X002569Y004136D01*
X002606Y004030D01*
X002655Y003929D01*
X002715Y003834D01*
X002785Y003746D01*
X002864Y003667D01*
X002952Y003596D01*
X003047Y003537D01*
X003148Y003488D01*
X003254Y003451D01*
X003364Y003426D01*
X003475Y003413D01*
X003481Y003413D01*
X003481Y004363D01*
X003581Y004363D01*
X003581Y003413D01*
X003588Y003413D01*
X003699Y003426D01*
X003809Y003451D01*
X003915Y003488D01*
X004016Y003537D01*
X004111Y003596D01*
X004199Y003667D01*
X004278Y003746D01*
X004348Y003834D01*
X004408Y003929D01*
X004457Y004030D01*
X004494Y004136D01*
X004519Y004246D01*
X004531Y004357D01*
X004531Y004363D01*
X003582Y004363D01*
X003582Y004463D01*
X004531Y004463D01*
X004531Y004469D01*
X004519Y004581D01*
X004494Y004691D01*
X004457Y004797D01*
X004408Y004898D01*
X004348Y004993D01*
X004278Y005081D01*
X004199Y005160D01*
X004111Y005230D01*
X004016Y005290D01*
X003915Y005339D01*
X003809Y005376D01*
X003699Y005401D01*
X003588Y005413D01*
X003581Y005413D01*
X003581Y004463D01*
X003481Y004463D01*
X003481Y005413D01*
X003475Y005413D01*
X003364Y005401D01*
X003254Y005376D01*
X003481Y005372D02*
X003581Y005372D01*
X003581Y005273D02*
X003481Y005273D01*
X003481Y005175D02*
X003581Y005175D01*
X003581Y005076D02*
X003481Y005076D01*
X003481Y004978D02*
X003581Y004978D01*
X003581Y004879D02*
X003481Y004879D01*
X003481Y004781D02*
X003581Y004781D01*
X003581Y004682D02*
X003481Y004682D01*
X003481Y004584D02*
X003581Y004584D01*
X003581Y004485D02*
X003481Y004485D01*
X003481Y004387D02*
X001540Y004387D01*
X001540Y004485D02*
X002533Y004485D01*
X002545Y004584D02*
X001540Y004584D01*
X001540Y004682D02*
X002567Y004682D01*
X002601Y004781D02*
X001540Y004781D01*
X001540Y004879D02*
X002646Y004879D01*
X002705Y004978D02*
X001540Y004978D01*
X001540Y005076D02*
X002781Y005076D01*
X002883Y005175D02*
X001540Y005175D01*
X001540Y005273D02*
X003021Y005273D01*
X003820Y005372D02*
X005434Y005372D01*
X005263Y005273D02*
X004042Y005273D01*
X004180Y005175D02*
X005156Y005175D01*
X005058Y005076D02*
X004282Y005076D01*
X004358Y004978D02*
X004996Y004978D01*
X004939Y004879D02*
X004417Y004879D01*
X004462Y004781D02*
X004895Y004781D01*
X004868Y004682D02*
X004496Y004682D01*
X004518Y004584D02*
X004842Y004584D01*
X004834Y004485D02*
X004530Y004485D01*
X004524Y004288D02*
X004834Y004288D01*
X004834Y004387D02*
X003582Y004387D01*
X003581Y004288D02*
X003481Y004288D01*
X003481Y004190D02*
X003581Y004190D01*
X003581Y004091D02*
X003481Y004091D01*
X003481Y003993D02*
X003581Y003993D01*
X003581Y003894D02*
X003481Y003894D01*
X003481Y003796D02*
X003581Y003796D01*
X003581Y003697D02*
X003481Y003697D01*
X003481Y003599D02*
X003581Y003599D01*
X003581Y003500D02*
X003481Y003500D01*
X003940Y003500D02*
X004364Y003500D01*
X004168Y003402D02*
X001540Y003402D01*
X001540Y003500D02*
X003123Y003500D01*
X002949Y003599D02*
X001540Y003599D01*
X001540Y003697D02*
X002833Y003697D01*
X002745Y003796D02*
X001540Y003796D01*
X001540Y003894D02*
X002677Y003894D01*
X002624Y003993D02*
X001540Y003993D01*
X001540Y004091D02*
X002585Y004091D01*
X002557Y004190D02*
X001540Y004190D01*
X001540Y004288D02*
X002539Y004288D01*
X001540Y003303D02*
X004039Y003303D01*
X003945Y003205D02*
X001540Y003205D01*
X001540Y003106D02*
X003873Y003106D01*
X003817Y003008D02*
X001540Y003008D01*
X001540Y002909D02*
X003774Y002909D01*
X003743Y002811D02*
X001540Y002811D01*
X001540Y002712D02*
X003723Y002712D01*
X003713Y002614D02*
X001540Y002614D01*
X001540Y002515D02*
X004663Y002515D01*
X004663Y002614D02*
X004763Y002614D01*
X004763Y002712D02*
X004663Y002712D01*
X004663Y002811D02*
X004763Y002811D01*
X004763Y002909D02*
X004663Y002909D01*
X004663Y003008D02*
X004763Y003008D01*
X004763Y003106D02*
X004663Y003106D01*
X004663Y003205D02*
X004763Y003205D01*
X004763Y003303D02*
X004663Y003303D01*
X004663Y003402D02*
X004763Y003402D01*
X004763Y003500D02*
X004663Y003500D01*
X005061Y003500D02*
X005355Y003500D01*
X005257Y003402D02*
X005573Y003402D01*
X005552Y003106D02*
X006451Y003106D01*
X006267Y003008D02*
X005608Y003008D01*
X005651Y002909D02*
X006168Y002909D01*
X006070Y002811D02*
X005682Y002811D01*
X005702Y002712D02*
X006028Y002712D01*
X005987Y002614D02*
X005713Y002614D01*
X005702Y002417D02*
X005940Y002417D01*
X005946Y002515D02*
X004763Y002515D01*
X005482Y001924D02*
X006040Y001924D01*
X005999Y002023D02*
X005554Y002023D01*
X005610Y002121D02*
X005959Y002121D01*
X005940Y002220D02*
X005652Y002220D01*
X005682Y002318D02*
X005940Y002318D01*
X006100Y001826D02*
X005390Y001826D01*
X005262Y001727D02*
X006198Y001727D01*
X006297Y001629D02*
X005071Y001629D01*
X004354Y001629D02*
X001586Y001629D01*
X001540Y001727D02*
X004163Y001727D01*
X004035Y001826D02*
X001540Y001826D01*
X001540Y001924D02*
X003943Y001924D01*
X003871Y002023D02*
X001540Y002023D01*
X001540Y002121D02*
X003815Y002121D01*
X003773Y002220D02*
X001540Y002220D01*
X001540Y002318D02*
X003743Y002318D01*
X003723Y002417D02*
X001540Y002417D01*
X001280Y001727D02*
X001282Y001688D01*
X001288Y001650D01*
X001297Y001613D01*
X001310Y001576D01*
X001327Y001541D01*
X001346Y001508D01*
X001369Y001477D01*
X001395Y001448D01*
X001424Y001422D01*
X001455Y001399D01*
X001488Y001380D01*
X001523Y001363D01*
X001560Y001350D01*
X001597Y001341D01*
X001635Y001335D01*
X001674Y001333D01*
X001280Y001727D02*
X001280Y021940D01*
X004506Y004190D02*
X004856Y004190D01*
X004883Y004091D02*
X004478Y004091D01*
X004439Y003993D02*
X004912Y003993D01*
X004969Y003894D02*
X004386Y003894D01*
X004318Y003796D02*
X005026Y003796D01*
X005111Y003697D02*
X004230Y003697D01*
X004114Y003599D02*
X005209Y003599D01*
D11*
X006150Y002333D02*
X006152Y002383D01*
X006158Y002433D01*
X006168Y002482D01*
X006182Y002530D01*
X006199Y002577D01*
X006220Y002622D01*
X006245Y002666D01*
X006273Y002707D01*
X006305Y002746D01*
X006339Y002783D01*
X006376Y002817D01*
X006416Y002847D01*
X006458Y002874D01*
X006502Y002898D01*
X006548Y002919D01*
X006595Y002935D01*
X006643Y002948D01*
X006693Y002957D01*
X006742Y002962D01*
X006793Y002963D01*
X006843Y002960D01*
X006892Y002953D01*
X006941Y002942D01*
X006989Y002927D01*
X007035Y002909D01*
X007080Y002887D01*
X007123Y002861D01*
X007164Y002832D01*
X007203Y002800D01*
X007239Y002765D01*
X007271Y002727D01*
X007301Y002687D01*
X007328Y002644D01*
X007351Y002600D01*
X007370Y002554D01*
X007386Y002506D01*
X007398Y002457D01*
X007406Y002408D01*
X007410Y002358D01*
X007410Y002308D01*
X007406Y002258D01*
X007398Y002209D01*
X007386Y002160D01*
X007370Y002112D01*
X007351Y002066D01*
X007328Y002022D01*
X007301Y001979D01*
X007271Y001939D01*
X007239Y001901D01*
X007203Y001866D01*
X007164Y001834D01*
X007123Y001805D01*
X007080Y001779D01*
X007035Y001757D01*
X006989Y001739D01*
X006941Y001724D01*
X006892Y001713D01*
X006843Y001706D01*
X006793Y001703D01*
X006742Y001704D01*
X006693Y001709D01*
X006643Y001718D01*
X006595Y001731D01*
X006548Y001747D01*
X006502Y001768D01*
X006458Y001792D01*
X006416Y001819D01*
X006376Y001849D01*
X006339Y001883D01*
X006305Y001920D01*
X006273Y001959D01*
X006245Y002000D01*
X006220Y002044D01*
X006199Y002089D01*
X006182Y002136D01*
X006168Y002184D01*
X006158Y002233D01*
X006152Y002283D01*
X006150Y002333D01*
X025613Y007043D02*
X025615Y007068D01*
X025621Y007093D01*
X025630Y007117D01*
X025643Y007139D01*
X025660Y007159D01*
X025679Y007176D01*
X025700Y007190D01*
X025724Y007200D01*
X025748Y007207D01*
X025774Y007210D01*
X025799Y007209D01*
X025824Y007204D01*
X025848Y007195D01*
X025871Y007183D01*
X025891Y007168D01*
X025909Y007149D01*
X025924Y007128D01*
X025935Y007105D01*
X025943Y007081D01*
X025947Y007056D01*
X025947Y007030D01*
X025943Y007005D01*
X025935Y006981D01*
X025924Y006958D01*
X025909Y006937D01*
X025891Y006918D01*
X025871Y006903D01*
X025848Y006891D01*
X025824Y006882D01*
X025799Y006877D01*
X025774Y006876D01*
X025748Y006879D01*
X025724Y006886D01*
X025700Y006896D01*
X025679Y006910D01*
X025660Y006927D01*
X025643Y006947D01*
X025630Y006969D01*
X025621Y006993D01*
X025615Y007018D01*
X025613Y007043D01*
X025613Y008224D02*
X025615Y008249D01*
X025621Y008274D01*
X025630Y008298D01*
X025643Y008320D01*
X025660Y008340D01*
X025679Y008357D01*
X025700Y008371D01*
X025724Y008381D01*
X025748Y008388D01*
X025774Y008391D01*
X025799Y008390D01*
X025824Y008385D01*
X025848Y008376D01*
X025871Y008364D01*
X025891Y008349D01*
X025909Y008330D01*
X025924Y008309D01*
X025935Y008286D01*
X025943Y008262D01*
X025947Y008237D01*
X025947Y008211D01*
X025943Y008186D01*
X025935Y008162D01*
X025924Y008139D01*
X025909Y008118D01*
X025891Y008099D01*
X025871Y008084D01*
X025848Y008072D01*
X025824Y008063D01*
X025799Y008058D01*
X025774Y008057D01*
X025748Y008060D01*
X025724Y008067D01*
X025700Y008077D01*
X025679Y008091D01*
X025660Y008108D01*
X025643Y008128D01*
X025630Y008150D01*
X025621Y008174D01*
X025615Y008199D01*
X025613Y008224D01*
X026650Y004333D02*
X026652Y004383D01*
X026658Y004433D01*
X026668Y004482D01*
X026682Y004530D01*
X026699Y004577D01*
X026720Y004622D01*
X026745Y004666D01*
X026773Y004707D01*
X026805Y004746D01*
X026839Y004783D01*
X026876Y004817D01*
X026916Y004847D01*
X026958Y004874D01*
X027002Y004898D01*
X027048Y004919D01*
X027095Y004935D01*
X027143Y004948D01*
X027193Y004957D01*
X027242Y004962D01*
X027293Y004963D01*
X027343Y004960D01*
X027392Y004953D01*
X027441Y004942D01*
X027489Y004927D01*
X027535Y004909D01*
X027580Y004887D01*
X027623Y004861D01*
X027664Y004832D01*
X027703Y004800D01*
X027739Y004765D01*
X027771Y004727D01*
X027801Y004687D01*
X027828Y004644D01*
X027851Y004600D01*
X027870Y004554D01*
X027886Y004506D01*
X027898Y004457D01*
X027906Y004408D01*
X027910Y004358D01*
X027910Y004308D01*
X027906Y004258D01*
X027898Y004209D01*
X027886Y004160D01*
X027870Y004112D01*
X027851Y004066D01*
X027828Y004022D01*
X027801Y003979D01*
X027771Y003939D01*
X027739Y003901D01*
X027703Y003866D01*
X027664Y003834D01*
X027623Y003805D01*
X027580Y003779D01*
X027535Y003757D01*
X027489Y003739D01*
X027441Y003724D01*
X027392Y003713D01*
X027343Y003706D01*
X027293Y003703D01*
X027242Y003704D01*
X027193Y003709D01*
X027143Y003718D01*
X027095Y003731D01*
X027048Y003747D01*
X027002Y003768D01*
X026958Y003792D01*
X026916Y003819D01*
X026876Y003849D01*
X026839Y003883D01*
X026805Y003920D01*
X026773Y003959D01*
X026745Y004000D01*
X026720Y004044D01*
X026699Y004089D01*
X026682Y004136D01*
X026668Y004184D01*
X026658Y004233D01*
X026652Y004283D01*
X026650Y004333D01*
X026650Y015333D02*
X026652Y015383D01*
X026658Y015433D01*
X026668Y015482D01*
X026682Y015530D01*
X026699Y015577D01*
X026720Y015622D01*
X026745Y015666D01*
X026773Y015707D01*
X026805Y015746D01*
X026839Y015783D01*
X026876Y015817D01*
X026916Y015847D01*
X026958Y015874D01*
X027002Y015898D01*
X027048Y015919D01*
X027095Y015935D01*
X027143Y015948D01*
X027193Y015957D01*
X027242Y015962D01*
X027293Y015963D01*
X027343Y015960D01*
X027392Y015953D01*
X027441Y015942D01*
X027489Y015927D01*
X027535Y015909D01*
X027580Y015887D01*
X027623Y015861D01*
X027664Y015832D01*
X027703Y015800D01*
X027739Y015765D01*
X027771Y015727D01*
X027801Y015687D01*
X027828Y015644D01*
X027851Y015600D01*
X027870Y015554D01*
X027886Y015506D01*
X027898Y015457D01*
X027906Y015408D01*
X027910Y015358D01*
X027910Y015308D01*
X027906Y015258D01*
X027898Y015209D01*
X027886Y015160D01*
X027870Y015112D01*
X027851Y015066D01*
X027828Y015022D01*
X027801Y014979D01*
X027771Y014939D01*
X027739Y014901D01*
X027703Y014866D01*
X027664Y014834D01*
X027623Y014805D01*
X027580Y014779D01*
X027535Y014757D01*
X027489Y014739D01*
X027441Y014724D01*
X027392Y014713D01*
X027343Y014706D01*
X027293Y014703D01*
X027242Y014704D01*
X027193Y014709D01*
X027143Y014718D01*
X027095Y014731D01*
X027048Y014747D01*
X027002Y014768D01*
X026958Y014792D01*
X026916Y014819D01*
X026876Y014849D01*
X026839Y014883D01*
X026805Y014920D01*
X026773Y014959D01*
X026745Y015000D01*
X026720Y015044D01*
X026699Y015089D01*
X026682Y015136D01*
X026668Y015184D01*
X026658Y015233D01*
X026652Y015283D01*
X026650Y015333D01*
X006650Y021333D02*
X006652Y021383D01*
X006658Y021433D01*
X006668Y021482D01*
X006682Y021530D01*
X006699Y021577D01*
X006720Y021622D01*
X006745Y021666D01*
X006773Y021707D01*
X006805Y021746D01*
X006839Y021783D01*
X006876Y021817D01*
X006916Y021847D01*
X006958Y021874D01*
X007002Y021898D01*
X007048Y021919D01*
X007095Y021935D01*
X007143Y021948D01*
X007193Y021957D01*
X007242Y021962D01*
X007293Y021963D01*
X007343Y021960D01*
X007392Y021953D01*
X007441Y021942D01*
X007489Y021927D01*
X007535Y021909D01*
X007580Y021887D01*
X007623Y021861D01*
X007664Y021832D01*
X007703Y021800D01*
X007739Y021765D01*
X007771Y021727D01*
X007801Y021687D01*
X007828Y021644D01*
X007851Y021600D01*
X007870Y021554D01*
X007886Y021506D01*
X007898Y021457D01*
X007906Y021408D01*
X007910Y021358D01*
X007910Y021308D01*
X007906Y021258D01*
X007898Y021209D01*
X007886Y021160D01*
X007870Y021112D01*
X007851Y021066D01*
X007828Y021022D01*
X007801Y020979D01*
X007771Y020939D01*
X007739Y020901D01*
X007703Y020866D01*
X007664Y020834D01*
X007623Y020805D01*
X007580Y020779D01*
X007535Y020757D01*
X007489Y020739D01*
X007441Y020724D01*
X007392Y020713D01*
X007343Y020706D01*
X007293Y020703D01*
X007242Y020704D01*
X007193Y020709D01*
X007143Y020718D01*
X007095Y020731D01*
X007048Y020747D01*
X007002Y020768D01*
X006958Y020792D01*
X006916Y020819D01*
X006876Y020849D01*
X006839Y020883D01*
X006805Y020920D01*
X006773Y020959D01*
X006745Y021000D01*
X006720Y021044D01*
X006699Y021089D01*
X006682Y021136D01*
X006668Y021184D01*
X006658Y021233D01*
X006652Y021283D01*
X006650Y021333D01*
D12*
X026330Y013333D03*
X027330Y013333D03*
X027330Y012333D03*
X026330Y012333D03*
X026330Y011333D03*
X027330Y011333D03*
D13*
X026280Y002613D02*
X026280Y002053D01*
X025280Y002053D02*
X025280Y002613D01*
X024280Y002613D02*
X024280Y002053D01*
X023280Y002053D02*
X023280Y002613D01*
X022280Y002613D02*
X022280Y002053D01*
X021280Y002053D02*
X021280Y002613D01*
X019280Y002613D02*
X019280Y002053D01*
X018280Y002053D02*
X018280Y002613D01*
X017280Y002613D02*
X017280Y002053D01*
X016280Y002053D02*
X016280Y002613D01*
X015280Y002613D02*
X015280Y002053D01*
X014280Y002053D02*
X014280Y002613D01*
X013280Y002613D02*
X013280Y002053D01*
X012280Y002053D02*
X012280Y002613D01*
X012680Y021053D02*
X012680Y021613D01*
X011680Y021613D02*
X011680Y021053D01*
X010680Y021053D02*
X010680Y021613D01*
X009680Y021613D02*
X009680Y021053D01*
X008680Y021053D02*
X008680Y021613D01*
X013680Y021613D02*
X013680Y021053D01*
X014680Y021053D02*
X014680Y021613D01*
X015680Y021613D02*
X015680Y021053D01*
X016680Y021053D02*
X016680Y021613D01*
X017680Y021613D02*
X017680Y021053D01*
X019280Y021053D02*
X019280Y021613D01*
X020280Y021613D02*
X020280Y021053D01*
X021280Y021053D02*
X021280Y021613D01*
X022280Y021613D02*
X022280Y021053D01*
X023280Y021053D02*
X023280Y021613D01*
X024280Y021613D02*
X024280Y021053D01*
X025280Y021053D02*
X025280Y021613D01*
X026280Y021613D02*
X026280Y021053D01*
D14*
X005894Y004413D03*
X004713Y002563D03*
X003531Y004413D03*
D15*
X007280Y007833D03*
X008280Y007833D03*
X009280Y007833D03*
X010280Y007833D03*
X011280Y007833D03*
X012280Y007833D03*
X013280Y007833D03*
X014280Y007833D03*
X015280Y007833D03*
X016280Y007833D03*
X017280Y007833D03*
X018280Y007833D03*
X019280Y007833D03*
X020280Y007833D03*
X020280Y015833D03*
X019280Y015833D03*
X018280Y015833D03*
X017280Y015833D03*
X016280Y015833D03*
X015280Y015833D03*
X014280Y015833D03*
X013280Y015833D03*
X012280Y015833D03*
X011280Y015833D03*
X010280Y015833D03*
X009280Y015833D03*
X008280Y015833D03*
X007280Y015833D03*
D16*
X006910Y019833D02*
X011280Y019833D01*
X011680Y020233D01*
X011680Y021333D01*
X006910Y019833D02*
X005720Y021023D01*
X019280Y007833D02*
X019280Y006833D01*
X019280Y006333D01*
X016280Y003333D01*
X016280Y002333D01*
D17*
X014780Y004083D03*
X014780Y004783D03*
X015580Y005133D03*
X015030Y006583D03*
X013480Y005033D03*
X012520Y003593D03*
X010780Y005583D03*
X010030Y006583D03*
X008280Y004833D03*
X006530Y006833D03*
X004780Y008833D03*
X003780Y007833D03*
X002030Y007833D03*
X006280Y010583D03*
X007780Y009833D03*
X008530Y011833D03*
X008530Y012583D03*
X009530Y011833D03*
X010530Y012083D03*
X010780Y014933D03*
X011780Y014933D03*
X012780Y014933D03*
X013780Y014933D03*
X014780Y014933D03*
X015780Y014933D03*
X019280Y014583D03*
X020530Y014583D03*
X021780Y014583D03*
X022780Y014333D03*
X024480Y015233D03*
X025680Y015233D03*
X023780Y017833D03*
X022905Y018458D03*
X025030Y010583D03*
X026280Y010533D03*
X025430Y008693D03*
X023530Y009833D03*
X021780Y007333D03*
X021780Y006233D03*
X020280Y005083D03*
X020280Y003583D03*
X012530Y006583D03*
X007030Y012083D03*
X006280Y013333D03*
X005280Y014083D03*
X003530Y015333D03*
X002030Y015333D03*
X002030Y018333D03*
X003530Y018333D03*
X006180Y018333D03*
X006880Y019633D03*
X005720Y021023D03*
X010780Y018333D03*
X005530Y012083D03*
X003530Y011833D03*
X002030Y011833D03*
D18*
X005280Y014083D02*
X016530Y014083D01*
X017280Y014833D01*
X017280Y015833D01*
X018280Y015833D02*
X018280Y014833D01*
X016780Y013333D01*
X006280Y013333D01*
X007030Y012083D02*
X009280Y009833D01*
X009280Y007833D01*
X008280Y007833D02*
X008280Y006833D01*
X010780Y004333D01*
X013780Y004333D01*
X014280Y003833D01*
X014280Y002333D01*
X015280Y002333D02*
X015280Y003833D01*
X018280Y006833D01*
X018280Y007833D01*
X017280Y007833D02*
X017280Y008083D01*
X018280Y009083D01*
X026030Y009083D01*
X027330Y010383D01*
X027330Y011333D01*
X026280Y010533D02*
X025530Y009583D01*
X024780Y009583D01*
X024030Y010333D01*
X024030Y016083D01*
X022780Y017333D01*
X022780Y018333D01*
X022905Y018458D01*
X023780Y017833D02*
X025030Y016583D01*
X025030Y010583D01*
X023530Y009833D02*
X023530Y013583D01*
X022780Y014333D01*
X026280Y014223D02*
X026280Y016333D01*
X023280Y019333D01*
X016280Y019333D01*
X014680Y020933D01*
X014680Y021333D01*
X025240Y008693D02*
X025430Y008693D01*
X025240Y008693D02*
X024980Y008433D01*
X024980Y007783D01*
X024030Y006833D01*
X019280Y006833D01*
X016280Y005833D02*
X014780Y004783D01*
X016280Y005833D02*
X016280Y007833D01*
M02*
