G75*
%MOIN*%
%OFA0B0*%
%FSLAX24Y24*%
%IPPOS*%
%LPD*%
%AMOC8*
5,1,8,0,0,1.08239X$1,22.5*
%
%ADD10C,0.0100*%
%ADD11C,0.0000*%
%ADD12R,0.0310X0.0005*%
%ADD13R,0.0315X0.0005*%
%ADD14R,0.0320X0.0005*%
%ADD15R,0.0085X0.0005*%
%ADD16R,0.0080X0.0005*%
%ADD17R,0.0175X0.0005*%
%ADD18R,0.0160X0.0005*%
%ADD19R,0.0240X0.0005*%
%ADD20R,0.0235X0.0005*%
%ADD21R,0.0215X0.0005*%
%ADD22R,0.0325X0.0005*%
%ADD23R,0.0290X0.0005*%
%ADD24R,0.0275X0.0005*%
%ADD25R,0.0255X0.0005*%
%ADD26R,0.0340X0.0005*%
%ADD27R,0.0005X0.0005*%
%ADD28R,0.0370X0.0005*%
%ADD29R,0.0345X0.0005*%
%ADD30R,0.0300X0.0005*%
%ADD31R,0.0375X0.0005*%
%ADD32R,0.0295X0.0005*%
%ADD33R,0.0415X0.0005*%
%ADD34R,0.0110X0.0005*%
%ADD35R,0.0380X0.0005*%
%ADD36R,0.0385X0.0005*%
%ADD37R,0.0350X0.0005*%
%ADD38R,0.0445X0.0005*%
%ADD39R,0.0105X0.0005*%
%ADD40R,0.0405X0.0005*%
%ADD41R,0.0475X0.0005*%
%ADD42R,0.0435X0.0005*%
%ADD43R,0.0400X0.0005*%
%ADD44R,0.0500X0.0005*%
%ADD45R,0.0460X0.0005*%
%ADD46R,0.0465X0.0005*%
%ADD47R,0.0420X0.0005*%
%ADD48R,0.0525X0.0005*%
%ADD49R,0.0485X0.0005*%
%ADD50R,0.0440X0.0005*%
%ADD51R,0.0550X0.0005*%
%ADD52R,0.0505X0.0005*%
%ADD53R,0.0570X0.0005*%
%ADD54R,0.0480X0.0005*%
%ADD55R,0.0590X0.0005*%
%ADD56R,0.0545X0.0005*%
%ADD57R,0.0495X0.0005*%
%ADD58R,0.0605X0.0005*%
%ADD59R,0.0565X0.0005*%
%ADD60R,0.0510X0.0005*%
%ADD61R,0.0625X0.0005*%
%ADD62R,0.0580X0.0005*%
%ADD63R,0.0645X0.0005*%
%ADD64R,0.0600X0.0005*%
%ADD65R,0.0540X0.0005*%
%ADD66R,0.0665X0.0005*%
%ADD67R,0.0615X0.0005*%
%ADD68R,0.0680X0.0005*%
%ADD69R,0.0635X0.0005*%
%ADD70R,0.0560X0.0005*%
%ADD71R,0.0695X0.0005*%
%ADD72R,0.0715X0.0005*%
%ADD73R,0.0725X0.0005*%
%ADD74R,0.0675X0.0005*%
%ADD75R,0.0740X0.0005*%
%ADD76R,0.0690X0.0005*%
%ADD77R,0.0755X0.0005*%
%ADD78R,0.0285X0.0005*%
%ADD79R,0.0280X0.0005*%
%ADD80R,0.0765X0.0005*%
%ADD81R,0.0260X0.0005*%
%ADD82R,0.0200X0.0005*%
%ADD83R,0.0205X0.0005*%
%ADD84R,0.0330X0.0005*%
%ADD85R,0.0780X0.0005*%
%ADD86R,0.0250X0.0005*%
%ADD87R,0.0190X0.0005*%
%ADD88R,0.0335X0.0005*%
%ADD89R,0.0795X0.0005*%
%ADD90R,0.0230X0.0005*%
%ADD91R,0.0180X0.0005*%
%ADD92R,0.0805X0.0005*%
%ADD93R,0.0225X0.0005*%
%ADD94R,0.0220X0.0005*%
%ADD95R,0.0170X0.0005*%
%ADD96R,0.0815X0.0005*%
%ADD97R,0.0210X0.0005*%
%ADD98R,0.0165X0.0005*%
%ADD99R,0.0830X0.0005*%
%ADD100R,0.0355X0.0005*%
%ADD101R,0.0840X0.0005*%
%ADD102R,0.0195X0.0005*%
%ADD103R,0.0155X0.0005*%
%ADD104R,0.0850X0.0005*%
%ADD105R,0.0150X0.0005*%
%ADD106R,0.0365X0.0005*%
%ADD107R,0.0860X0.0005*%
%ADD108R,0.0145X0.0005*%
%ADD109R,0.0870X0.0005*%
%ADD110R,0.0880X0.0005*%
%ADD111R,0.0140X0.0005*%
%ADD112R,0.0890X0.0005*%
%ADD113R,0.0185X0.0005*%
%ADD114R,0.0135X0.0005*%
%ADD115R,0.0900X0.0005*%
%ADD116R,0.0130X0.0005*%
%ADD117R,0.0910X0.0005*%
%ADD118R,0.0920X0.0005*%
%ADD119R,0.0390X0.0005*%
%ADD120R,0.0925X0.0005*%
%ADD121R,0.0125X0.0005*%
%ADD122R,0.0395X0.0005*%
%ADD123R,0.0935X0.0005*%
%ADD124R,0.0945X0.0005*%
%ADD125R,0.0950X0.0005*%
%ADD126R,0.0120X0.0005*%
%ADD127R,0.0960X0.0005*%
%ADD128R,0.0965X0.0005*%
%ADD129R,0.0975X0.0005*%
%ADD130R,0.0115X0.0005*%
%ADD131R,0.0985X0.0005*%
%ADD132R,0.0425X0.0005*%
%ADD133R,0.0995X0.0005*%
%ADD134R,0.1005X0.0005*%
%ADD135R,0.0410X0.0005*%
%ADD136R,0.0455X0.0005*%
%ADD137R,0.0360X0.0005*%
%ADD138R,0.0100X0.0005*%
%ADD139R,0.0515X0.0005*%
%ADD140R,0.0095X0.0005*%
%ADD141R,0.0535X0.0005*%
%ADD142R,0.0305X0.0005*%
%ADD143R,0.0070X0.0005*%
%ADD144R,0.0055X0.0005*%
%ADD145R,0.0040X0.0005*%
%ADD146R,0.0035X0.0005*%
%ADD147R,0.0555X0.0005*%
%ADD148R,0.0020X0.0005*%
%ADD149R,0.0575X0.0005*%
%ADD150R,0.0585X0.0005*%
%ADD151R,0.0595X0.0005*%
%ADD152R,0.1160X0.0005*%
%ADD153R,0.1165X0.0005*%
%ADD154R,0.0655X0.0005*%
%ADD155R,0.0650X0.0005*%
%ADD156R,0.0640X0.0005*%
%ADD157R,0.0245X0.0005*%
%ADD158R,0.0630X0.0005*%
%ADD159R,0.0620X0.0005*%
%ADD160R,0.1170X0.0005*%
%ADD161R,0.0610X0.0005*%
%ADD162R,0.1175X0.0005*%
%ADD163R,0.0530X0.0005*%
%ADD164R,0.0520X0.0005*%
%ADD165R,0.1155X0.0005*%
%ADD166R,0.0660X0.0005*%
%ADD167R,0.0670X0.0005*%
%ADD168R,0.0745X0.0005*%
%ADD169R,0.0750X0.0005*%
%ADD170R,0.0430X0.0005*%
%ADD171R,0.0970X0.0005*%
%ADD172R,0.0955X0.0005*%
%ADD173R,0.0940X0.0005*%
%ADD174R,0.0930X0.0005*%
%ADD175R,0.0915X0.0005*%
%ADD176R,0.0820X0.0005*%
%ADD177R,0.0810X0.0005*%
%ADD178R,0.0800X0.0005*%
%ADD179R,0.0790X0.0005*%
%ADD180R,0.0730X0.0005*%
%ADD181R,0.0710X0.0005*%
%ADD182R,0.0700X0.0005*%
%ADD183R,0.0685X0.0005*%
%ADD184R,0.0490X0.0005*%
%ADD185R,0.0450X0.0005*%
%ADD186R,0.0470X0.0005*%
%ADD187R,0.0090X0.0005*%
%ADD188R,0.0010X0.0005*%
%ADD189R,0.0015X0.0005*%
%ADD190R,0.0025X0.0005*%
%ADD191R,0.0050X0.0005*%
%ADD192R,0.0060X0.0005*%
%ADD193R,0.0065X0.0005*%
%ADD194R,0.0075X0.0005*%
%ADD195R,0.0270X0.0005*%
%ADD196R,0.0030X0.0005*%
%ADD197R,0.0770X0.0005*%
%ADD198R,0.0845X0.0005*%
%ADD199R,0.1660X0.0005*%
%ADD200R,0.1665X0.0005*%
%ADD201R,0.1670X0.0005*%
%ADD202R,0.1675X0.0005*%
%ADD203R,0.1680X0.0005*%
%ADD204R,0.1685X0.0005*%
%ADD205R,0.1690X0.0005*%
%ADD206R,0.1695X0.0005*%
%ADD207R,0.1700X0.0005*%
%ADD208R,0.1705X0.0005*%
%ADD209R,0.1710X0.0005*%
%ADD210R,0.1715X0.0005*%
%ADD211R,0.1720X0.0005*%
%ADD212R,0.1725X0.0005*%
%ADD213R,0.1730X0.0005*%
%ADD214R,0.1740X0.0005*%
%ADD215R,0.1745X0.0005*%
%ADD216R,0.1750X0.0005*%
%ADD217R,0.1755X0.0005*%
%ADD218R,0.1760X0.0005*%
%ADD219R,0.1765X0.0005*%
%ADD220R,0.1775X0.0005*%
%ADD221R,0.1780X0.0005*%
%ADD222R,0.1785X0.0005*%
%ADD223R,0.1790X0.0005*%
%ADD224R,0.1795X0.0005*%
%ADD225R,0.1800X0.0005*%
%ADD226R,0.1805X0.0005*%
%ADD227R,0.1810X0.0005*%
%ADD228R,0.1815X0.0005*%
%ADD229R,0.1825X0.0005*%
%ADD230R,0.1835X0.0005*%
%ADD231R,0.1840X0.0005*%
%ADD232R,0.1845X0.0005*%
%ADD233R,0.1850X0.0005*%
%ADD234R,0.1855X0.0005*%
%ADD235R,0.1865X0.0005*%
%ADD236R,0.1870X0.0005*%
%ADD237R,0.1880X0.0005*%
%ADD238R,0.1885X0.0005*%
%ADD239R,0.1895X0.0005*%
%ADD240R,0.1900X0.0005*%
%ADD241R,0.1905X0.0005*%
%ADD242R,0.1915X0.0005*%
%ADD243R,0.1925X0.0005*%
%ADD244R,0.1935X0.0005*%
%ADD245R,0.1940X0.0005*%
%ADD246R,0.1950X0.0005*%
%ADD247R,0.1960X0.0005*%
%ADD248R,0.1970X0.0005*%
%ADD249R,0.1980X0.0005*%
%ADD250R,0.1990X0.0005*%
%ADD251R,0.2005X0.0005*%
%ADD252R,0.2015X0.0005*%
%ADD253R,0.2025X0.0005*%
%ADD254R,0.2040X0.0005*%
%ADD255R,0.2050X0.0005*%
%ADD256R,0.2065X0.0005*%
%ADD257R,0.2080X0.0005*%
%ADD258R,0.2095X0.0005*%
%ADD259R,0.2115X0.0005*%
%ADD260R,0.2125X0.0005*%
%ADD261R,0.2145X0.0005*%
%ADD262R,0.2165X0.0005*%
%ADD263R,0.2185X0.0005*%
%ADD264R,0.2210X0.0005*%
%ADD265R,0.2230X0.0005*%
%ADD266R,0.2260X0.0005*%
%ADD267R,0.2285X0.0005*%
%ADD268R,0.2320X0.0005*%
%ADD269R,0.2355X0.0005*%
%ADD270R,0.2410X0.0005*%
%ADD271R,0.2480X0.0005*%
%ADD272R,0.3125X0.0005*%
%ADD273R,0.3115X0.0005*%
%ADD274R,0.3100X0.0005*%
%ADD275R,0.3090X0.0005*%
%ADD276R,0.3075X0.0005*%
%ADD277R,0.3070X0.0005*%
%ADD278R,0.3055X0.0005*%
%ADD279R,0.3040X0.0005*%
%ADD280R,0.3035X0.0005*%
%ADD281R,0.3020X0.0005*%
%ADD282R,0.3010X0.0005*%
%ADD283R,0.2995X0.0005*%
%ADD284R,0.2990X0.0005*%
%ADD285R,0.2975X0.0005*%
%ADD286R,0.2960X0.0005*%
%ADD287R,0.2950X0.0005*%
%ADD288R,0.2940X0.0005*%
%ADD289R,0.2930X0.0005*%
%ADD290R,0.2915X0.0005*%
%ADD291R,0.2905X0.0005*%
%ADD292R,0.2895X0.0005*%
%ADD293R,0.2880X0.0005*%
%ADD294R,0.2870X0.0005*%
%ADD295R,0.2860X0.0005*%
%ADD296R,0.2850X0.0005*%
%ADD297R,0.2835X0.0005*%
%ADD298R,0.2825X0.0005*%
%ADD299R,0.2815X0.0005*%
%ADD300R,0.2800X0.0005*%
%ADD301R,0.2790X0.0005*%
%ADD302R,0.2775X0.0005*%
%ADD303R,0.2770X0.0005*%
%ADD304R,0.2755X0.0005*%
%ADD305R,0.2740X0.0005*%
%ADD306R,0.2730X0.0005*%
%ADD307R,0.2720X0.0005*%
%ADD308R,0.2710X0.0005*%
%ADD309R,0.2695X0.0005*%
%ADD310R,0.2690X0.0005*%
%ADD311R,0.2675X0.0005*%
%ADD312R,0.2660X0.0005*%
%ADD313R,0.2650X0.0005*%
%ADD314R,0.2640X0.0005*%
%ADD315R,0.2630X0.0005*%
%ADD316R,0.2615X0.0005*%
%ADD317R,0.2600X0.0005*%
%ADD318R,0.2595X0.0005*%
%ADD319R,0.2580X0.0005*%
%ADD320R,0.2570X0.0005*%
%ADD321R,0.2560X0.0005*%
%ADD322R,0.2550X0.0005*%
%ADD323R,0.2535X0.0005*%
%ADD324R,0.2525X0.0005*%
%ADD325R,0.2515X0.0005*%
%ADD326R,0.2500X0.0005*%
%ADD327R,0.2490X0.0005*%
%ADD328R,0.2475X0.0005*%
%ADD329R,0.2470X0.0005*%
%ADD330R,0.2455X0.0005*%
%ADD331R,0.2440X0.0005*%
%ADD332R,0.2430X0.0005*%
%ADD333R,0.2420X0.0005*%
%ADD334R,0.2395X0.0005*%
%ADD335R,0.2390X0.0005*%
%ADD336R,0.2375X0.0005*%
%ADD337R,0.2360X0.0005*%
%ADD338R,0.2350X0.0005*%
%ADD339R,0.2340X0.0005*%
%ADD340R,0.2330X0.0005*%
%ADD341R,0.2315X0.0005*%
%ADD342R,0.2305X0.0005*%
%ADD343R,0.2295X0.0005*%
%ADD344R,0.2280X0.0005*%
%ADD345R,0.2270X0.0005*%
%ADD346R,0.2255X0.0005*%
%ADD347R,0.2250X0.0005*%
%ADD348R,0.2235X0.0005*%
%ADD349R,0.2220X0.0005*%
%ADD350R,0.2200X0.0005*%
%ADD351R,0.2190X0.0005*%
%ADD352R,0.2175X0.0005*%
%ADD353R,0.2170X0.0005*%
%ADD354R,0.2155X0.0005*%
%ADD355R,0.2140X0.0005*%
%ADD356R,0.2130X0.0005*%
%ADD357R,0.2120X0.0005*%
%ADD358R,0.2110X0.0005*%
%ADD359R,0.2085X0.0005*%
%ADD360R,0.2075X0.0005*%
%ADD361R,0.2060X0.0005*%
%ADD362R,0.2035X0.0005*%
%ADD363R,0.2030X0.0005*%
%ADD364R,0.1995X0.0005*%
%ADD365R,0.1955X0.0005*%
%ADD366R,0.1920X0.0005*%
%ADD367R,0.1910X0.0005*%
%ADD368R,0.1890X0.0005*%
%ADD369R,0.1875X0.0005*%
%ADD370R,0.1830X0.0005*%
%ADD371R,0.1820X0.0005*%
%ADD372R,0.1735X0.0005*%
%ADD373R,0.1655X0.0005*%
%ADD374R,0.1650X0.0005*%
%ADD375R,0.1635X0.0005*%
%ADD376R,0.1620X0.0005*%
%ADD377R,0.1610X0.0005*%
%ADD378R,0.1600X0.0005*%
%ADD379R,0.1590X0.0005*%
%ADD380R,0.1575X0.0005*%
%ADD381R,0.1565X0.0005*%
%ADD382R,0.1555X0.0005*%
%ADD383R,0.1540X0.0005*%
%ADD384R,0.1530X0.0005*%
%ADD385R,0.1520X0.0005*%
%ADD386R,0.1510X0.0005*%
%ADD387R,0.1495X0.0005*%
%ADD388R,0.1485X0.0005*%
%ADD389R,0.1475X0.0005*%
%ADD390R,0.1460X0.0005*%
%ADD391R,0.1450X0.0005*%
%ADD392R,0.1435X0.0005*%
%ADD393R,0.1430X0.0005*%
%ADD394R,0.1415X0.0005*%
%ADD395R,0.1400X0.0005*%
%ADD396R,0.1395X0.0005*%
%ADD397R,0.1380X0.0005*%
%ADD398R,0.1370X0.0005*%
%ADD399R,0.1355X0.0005*%
%ADD400R,0.1350X0.0005*%
%ADD401R,0.1335X0.0005*%
%ADD402R,0.1320X0.0005*%
%ADD403R,0.1310X0.0005*%
%ADD404R,0.1300X0.0005*%
%ADD405R,0.1290X0.0005*%
%ADD406R,0.1275X0.0005*%
%ADD407R,0.1265X0.0005*%
%ADD408R,0.1255X0.0005*%
%ADD409R,0.1240X0.0005*%
%ADD410R,0.1230X0.0005*%
%ADD411R,0.1220X0.0005*%
%ADD412R,0.1210X0.0005*%
%ADD413R,0.1195X0.0005*%
%ADD414R,0.1185X0.0005*%
%ADD415R,0.1150X0.0005*%
%ADD416R,0.1135X0.0005*%
%ADD417R,0.1130X0.0005*%
%ADD418R,0.1115X0.0005*%
%ADD419R,0.1100X0.0005*%
%ADD420R,0.1090X0.0005*%
%ADD421R,0.1080X0.0005*%
%ADD422R,0.1070X0.0005*%
%ADD423R,0.1055X0.0005*%
%ADD424R,0.1050X0.0005*%
%ADD425R,0.1035X0.0005*%
%ADD426R,0.1020X0.0005*%
%ADD427R,0.1010X0.0005*%
%ADD428R,0.0990X0.0005*%
%ADD429R,0.0895X0.0005*%
%ADD430R,0.0875X0.0005*%
%ADD431R,0.0835X0.0005*%
%ADD432R,0.0735X0.0005*%
%ADD433R,0.0720X0.0005*%
D10*
X001674Y001333D02*
X026886Y001333D01*
X026925Y001335D01*
X026963Y001341D01*
X027000Y001350D01*
X027037Y001363D01*
X027072Y001380D01*
X027105Y001399D01*
X027136Y001422D01*
X027165Y001448D01*
X027191Y001477D01*
X027214Y001508D01*
X027233Y001541D01*
X027250Y001576D01*
X027263Y001613D01*
X027272Y001650D01*
X027278Y001688D01*
X027280Y001727D01*
X027280Y002333D01*
X028280Y003333D01*
X028280Y016233D01*
X027280Y017233D01*
X027280Y021733D01*
X026680Y022333D01*
X001674Y022333D01*
X001674Y022334D02*
X001635Y022332D01*
X001597Y022326D01*
X001560Y022317D01*
X001523Y022304D01*
X001488Y022287D01*
X001455Y022268D01*
X001424Y022245D01*
X001395Y022219D01*
X001369Y022190D01*
X001346Y022159D01*
X001327Y022126D01*
X001310Y022091D01*
X001297Y022054D01*
X001288Y022017D01*
X001282Y021979D01*
X001280Y021940D01*
X001280Y001727D01*
X001282Y001688D01*
X001288Y001650D01*
X001297Y001613D01*
X001310Y001576D01*
X001327Y001541D01*
X001346Y001508D01*
X001369Y001477D01*
X001395Y001448D01*
X001424Y001422D01*
X001455Y001399D01*
X001488Y001380D01*
X001523Y001363D01*
X001560Y001350D01*
X001597Y001341D01*
X001635Y001335D01*
X001674Y001333D01*
D11*
X006150Y002333D02*
X006152Y002383D01*
X006158Y002433D01*
X006168Y002482D01*
X006182Y002530D01*
X006199Y002577D01*
X006220Y002622D01*
X006245Y002666D01*
X006273Y002707D01*
X006305Y002746D01*
X006339Y002783D01*
X006376Y002817D01*
X006416Y002847D01*
X006458Y002874D01*
X006502Y002898D01*
X006548Y002919D01*
X006595Y002935D01*
X006643Y002948D01*
X006693Y002957D01*
X006742Y002962D01*
X006793Y002963D01*
X006843Y002960D01*
X006892Y002953D01*
X006941Y002942D01*
X006989Y002927D01*
X007035Y002909D01*
X007080Y002887D01*
X007123Y002861D01*
X007164Y002832D01*
X007203Y002800D01*
X007239Y002765D01*
X007271Y002727D01*
X007301Y002687D01*
X007328Y002644D01*
X007351Y002600D01*
X007370Y002554D01*
X007386Y002506D01*
X007398Y002457D01*
X007406Y002408D01*
X007410Y002358D01*
X007410Y002308D01*
X007406Y002258D01*
X007398Y002209D01*
X007386Y002160D01*
X007370Y002112D01*
X007351Y002066D01*
X007328Y002022D01*
X007301Y001979D01*
X007271Y001939D01*
X007239Y001901D01*
X007203Y001866D01*
X007164Y001834D01*
X007123Y001805D01*
X007080Y001779D01*
X007035Y001757D01*
X006989Y001739D01*
X006941Y001724D01*
X006892Y001713D01*
X006843Y001706D01*
X006793Y001703D01*
X006742Y001704D01*
X006693Y001709D01*
X006643Y001718D01*
X006595Y001731D01*
X006548Y001747D01*
X006502Y001768D01*
X006458Y001792D01*
X006416Y001819D01*
X006376Y001849D01*
X006339Y001883D01*
X006305Y001920D01*
X006273Y001959D01*
X006245Y002000D01*
X006220Y002044D01*
X006199Y002089D01*
X006182Y002136D01*
X006168Y002184D01*
X006158Y002233D01*
X006152Y002283D01*
X006150Y002333D01*
X025613Y007043D02*
X025615Y007068D01*
X025621Y007093D01*
X025630Y007117D01*
X025643Y007139D01*
X025660Y007159D01*
X025679Y007176D01*
X025700Y007190D01*
X025724Y007200D01*
X025748Y007207D01*
X025774Y007210D01*
X025799Y007209D01*
X025824Y007204D01*
X025848Y007195D01*
X025871Y007183D01*
X025891Y007168D01*
X025909Y007149D01*
X025924Y007128D01*
X025935Y007105D01*
X025943Y007081D01*
X025947Y007056D01*
X025947Y007030D01*
X025943Y007005D01*
X025935Y006981D01*
X025924Y006958D01*
X025909Y006937D01*
X025891Y006918D01*
X025871Y006903D01*
X025848Y006891D01*
X025824Y006882D01*
X025799Y006877D01*
X025774Y006876D01*
X025748Y006879D01*
X025724Y006886D01*
X025700Y006896D01*
X025679Y006910D01*
X025660Y006927D01*
X025643Y006947D01*
X025630Y006969D01*
X025621Y006993D01*
X025615Y007018D01*
X025613Y007043D01*
X025613Y008224D02*
X025615Y008249D01*
X025621Y008274D01*
X025630Y008298D01*
X025643Y008320D01*
X025660Y008340D01*
X025679Y008357D01*
X025700Y008371D01*
X025724Y008381D01*
X025748Y008388D01*
X025774Y008391D01*
X025799Y008390D01*
X025824Y008385D01*
X025848Y008376D01*
X025871Y008364D01*
X025891Y008349D01*
X025909Y008330D01*
X025924Y008309D01*
X025935Y008286D01*
X025943Y008262D01*
X025947Y008237D01*
X025947Y008211D01*
X025943Y008186D01*
X025935Y008162D01*
X025924Y008139D01*
X025909Y008118D01*
X025891Y008099D01*
X025871Y008084D01*
X025848Y008072D01*
X025824Y008063D01*
X025799Y008058D01*
X025774Y008057D01*
X025748Y008060D01*
X025724Y008067D01*
X025700Y008077D01*
X025679Y008091D01*
X025660Y008108D01*
X025643Y008128D01*
X025630Y008150D01*
X025621Y008174D01*
X025615Y008199D01*
X025613Y008224D01*
X026650Y004333D02*
X026652Y004383D01*
X026658Y004433D01*
X026668Y004482D01*
X026682Y004530D01*
X026699Y004577D01*
X026720Y004622D01*
X026745Y004666D01*
X026773Y004707D01*
X026805Y004746D01*
X026839Y004783D01*
X026876Y004817D01*
X026916Y004847D01*
X026958Y004874D01*
X027002Y004898D01*
X027048Y004919D01*
X027095Y004935D01*
X027143Y004948D01*
X027193Y004957D01*
X027242Y004962D01*
X027293Y004963D01*
X027343Y004960D01*
X027392Y004953D01*
X027441Y004942D01*
X027489Y004927D01*
X027535Y004909D01*
X027580Y004887D01*
X027623Y004861D01*
X027664Y004832D01*
X027703Y004800D01*
X027739Y004765D01*
X027771Y004727D01*
X027801Y004687D01*
X027828Y004644D01*
X027851Y004600D01*
X027870Y004554D01*
X027886Y004506D01*
X027898Y004457D01*
X027906Y004408D01*
X027910Y004358D01*
X027910Y004308D01*
X027906Y004258D01*
X027898Y004209D01*
X027886Y004160D01*
X027870Y004112D01*
X027851Y004066D01*
X027828Y004022D01*
X027801Y003979D01*
X027771Y003939D01*
X027739Y003901D01*
X027703Y003866D01*
X027664Y003834D01*
X027623Y003805D01*
X027580Y003779D01*
X027535Y003757D01*
X027489Y003739D01*
X027441Y003724D01*
X027392Y003713D01*
X027343Y003706D01*
X027293Y003703D01*
X027242Y003704D01*
X027193Y003709D01*
X027143Y003718D01*
X027095Y003731D01*
X027048Y003747D01*
X027002Y003768D01*
X026958Y003792D01*
X026916Y003819D01*
X026876Y003849D01*
X026839Y003883D01*
X026805Y003920D01*
X026773Y003959D01*
X026745Y004000D01*
X026720Y004044D01*
X026699Y004089D01*
X026682Y004136D01*
X026668Y004184D01*
X026658Y004233D01*
X026652Y004283D01*
X026650Y004333D01*
X026650Y015333D02*
X026652Y015383D01*
X026658Y015433D01*
X026668Y015482D01*
X026682Y015530D01*
X026699Y015577D01*
X026720Y015622D01*
X026745Y015666D01*
X026773Y015707D01*
X026805Y015746D01*
X026839Y015783D01*
X026876Y015817D01*
X026916Y015847D01*
X026958Y015874D01*
X027002Y015898D01*
X027048Y015919D01*
X027095Y015935D01*
X027143Y015948D01*
X027193Y015957D01*
X027242Y015962D01*
X027293Y015963D01*
X027343Y015960D01*
X027392Y015953D01*
X027441Y015942D01*
X027489Y015927D01*
X027535Y015909D01*
X027580Y015887D01*
X027623Y015861D01*
X027664Y015832D01*
X027703Y015800D01*
X027739Y015765D01*
X027771Y015727D01*
X027801Y015687D01*
X027828Y015644D01*
X027851Y015600D01*
X027870Y015554D01*
X027886Y015506D01*
X027898Y015457D01*
X027906Y015408D01*
X027910Y015358D01*
X027910Y015308D01*
X027906Y015258D01*
X027898Y015209D01*
X027886Y015160D01*
X027870Y015112D01*
X027851Y015066D01*
X027828Y015022D01*
X027801Y014979D01*
X027771Y014939D01*
X027739Y014901D01*
X027703Y014866D01*
X027664Y014834D01*
X027623Y014805D01*
X027580Y014779D01*
X027535Y014757D01*
X027489Y014739D01*
X027441Y014724D01*
X027392Y014713D01*
X027343Y014706D01*
X027293Y014703D01*
X027242Y014704D01*
X027193Y014709D01*
X027143Y014718D01*
X027095Y014731D01*
X027048Y014747D01*
X027002Y014768D01*
X026958Y014792D01*
X026916Y014819D01*
X026876Y014849D01*
X026839Y014883D01*
X026805Y014920D01*
X026773Y014959D01*
X026745Y015000D01*
X026720Y015044D01*
X026699Y015089D01*
X026682Y015136D01*
X026668Y015184D01*
X026658Y015233D01*
X026652Y015283D01*
X026650Y015333D01*
X006650Y021333D02*
X006652Y021383D01*
X006658Y021433D01*
X006668Y021482D01*
X006682Y021530D01*
X006699Y021577D01*
X006720Y021622D01*
X006745Y021666D01*
X006773Y021707D01*
X006805Y021746D01*
X006839Y021783D01*
X006876Y021817D01*
X006916Y021847D01*
X006958Y021874D01*
X007002Y021898D01*
X007048Y021919D01*
X007095Y021935D01*
X007143Y021948D01*
X007193Y021957D01*
X007242Y021962D01*
X007293Y021963D01*
X007343Y021960D01*
X007392Y021953D01*
X007441Y021942D01*
X007489Y021927D01*
X007535Y021909D01*
X007580Y021887D01*
X007623Y021861D01*
X007664Y021832D01*
X007703Y021800D01*
X007739Y021765D01*
X007771Y021727D01*
X007801Y021687D01*
X007828Y021644D01*
X007851Y021600D01*
X007870Y021554D01*
X007886Y021506D01*
X007898Y021457D01*
X007906Y021408D01*
X007910Y021358D01*
X007910Y021308D01*
X007906Y021258D01*
X007898Y021209D01*
X007886Y021160D01*
X007870Y021112D01*
X007851Y021066D01*
X007828Y021022D01*
X007801Y020979D01*
X007771Y020939D01*
X007739Y020901D01*
X007703Y020866D01*
X007664Y020834D01*
X007623Y020805D01*
X007580Y020779D01*
X007535Y020757D01*
X007489Y020739D01*
X007441Y020724D01*
X007392Y020713D01*
X007343Y020706D01*
X007293Y020703D01*
X007242Y020704D01*
X007193Y020709D01*
X007143Y020718D01*
X007095Y020731D01*
X007048Y020747D01*
X007002Y020768D01*
X006958Y020792D01*
X006916Y020819D01*
X006876Y020849D01*
X006839Y020883D01*
X006805Y020920D01*
X006773Y020959D01*
X006745Y021000D01*
X006720Y021044D01*
X006699Y021089D01*
X006682Y021136D01*
X006668Y021184D01*
X006658Y021233D01*
X006652Y021283D01*
X006650Y021333D01*
D12*
X013603Y014038D03*
X012478Y012088D03*
X014183Y010538D03*
X014188Y010543D03*
X014178Y010528D03*
X014948Y010533D03*
X014953Y010528D03*
X014953Y010523D03*
X014953Y010043D03*
X014948Y010033D03*
X016378Y010608D03*
X016388Y010583D03*
X016398Y010558D03*
X016408Y010533D03*
X016413Y010523D03*
X016418Y010508D03*
X016423Y010498D03*
X016428Y010488D03*
X016428Y010483D03*
X016433Y010473D03*
X016438Y010463D03*
X016438Y010458D03*
X016443Y010448D03*
X016448Y010438D03*
X016448Y010433D03*
X016453Y010423D03*
X016458Y010413D03*
X016458Y010408D03*
X016463Y010403D03*
X016463Y010398D03*
X016468Y010388D03*
X016468Y010383D03*
X016473Y010378D03*
X016473Y010373D03*
X016478Y010363D03*
X016478Y010358D03*
X016483Y010353D03*
X016483Y010348D03*
X016488Y010343D03*
X016488Y010338D03*
X016493Y010328D03*
X016493Y010323D03*
X016498Y010318D03*
X016498Y010313D03*
X016503Y010308D03*
X016503Y010303D03*
X016503Y010298D03*
X016508Y010293D03*
X016508Y010288D03*
X016513Y010283D03*
X016513Y010278D03*
X016513Y010273D03*
X016518Y010268D03*
X016518Y010263D03*
X016523Y010258D03*
X016523Y010253D03*
X016523Y010248D03*
X016528Y010243D03*
X016528Y010238D03*
X016533Y010233D03*
X016533Y010228D03*
X016538Y010218D03*
X016538Y010213D03*
X016543Y010208D03*
X016543Y010203D03*
X016548Y010193D03*
X016553Y010183D03*
X016553Y010178D03*
X016558Y010168D03*
X016563Y010158D03*
X016563Y010153D03*
X016568Y010143D03*
X016973Y010378D03*
X016978Y010388D03*
X016983Y010403D03*
X016988Y010413D03*
X016993Y010428D03*
X016998Y010438D03*
X017003Y010448D03*
X017003Y010453D03*
X017008Y010463D03*
X017013Y010473D03*
X017013Y010478D03*
X017018Y010483D03*
X017018Y010488D03*
X017023Y010498D03*
X017023Y010503D03*
X017028Y010508D03*
X017028Y010513D03*
X017033Y010518D03*
X017033Y010523D03*
X017033Y010528D03*
X017038Y010533D03*
X017038Y010538D03*
X017043Y010543D03*
X017043Y010548D03*
X017043Y010553D03*
X017048Y010558D03*
X017048Y010563D03*
X017053Y010568D03*
X017053Y010573D03*
X017058Y010583D03*
X017058Y010588D03*
X017063Y010593D03*
X017063Y010598D03*
X017068Y010608D03*
X017073Y010618D03*
X017073Y010623D03*
X017078Y010633D03*
X017083Y010643D03*
X017088Y010658D03*
X017093Y010668D03*
X017103Y010693D03*
X017113Y010718D03*
X016983Y009153D03*
X009933Y010343D03*
D13*
X009815Y010848D03*
X011050Y009703D03*
X012660Y009703D03*
X014210Y009973D03*
X014190Y010548D03*
X014195Y010553D03*
X014940Y010543D03*
X014945Y010538D03*
X014950Y010038D03*
X014945Y010028D03*
X014940Y010023D03*
X016365Y010633D03*
X016365Y010638D03*
X016365Y010643D03*
X016360Y010648D03*
X016360Y010653D03*
X016355Y010658D03*
X016355Y010663D03*
X016350Y010668D03*
X016350Y010673D03*
X016350Y010678D03*
X016345Y010683D03*
X016345Y010688D03*
X016340Y010693D03*
X016340Y010698D03*
X016340Y010703D03*
X016335Y010708D03*
X016335Y010713D03*
X016330Y010718D03*
X016330Y010723D03*
X016325Y010733D03*
X016325Y010738D03*
X016320Y010743D03*
X016320Y010748D03*
X016315Y010758D03*
X016315Y010763D03*
X016310Y010768D03*
X016310Y010773D03*
X016305Y010783D03*
X016305Y010788D03*
X016300Y010793D03*
X016300Y010798D03*
X016295Y010808D03*
X016290Y010818D03*
X016290Y010823D03*
X016285Y010833D03*
X016280Y010843D03*
X016370Y010628D03*
X016370Y010623D03*
X016375Y010618D03*
X016375Y010613D03*
X016380Y010603D03*
X016380Y010598D03*
X016385Y010593D03*
X016385Y010588D03*
X016390Y010578D03*
X016390Y010573D03*
X016395Y010568D03*
X016395Y010563D03*
X016400Y010553D03*
X016400Y010548D03*
X016405Y010543D03*
X016405Y010538D03*
X016410Y010528D03*
X016415Y010518D03*
X016415Y010513D03*
X016420Y010503D03*
X016425Y010493D03*
X016430Y010478D03*
X016435Y010468D03*
X016440Y010453D03*
X016445Y010443D03*
X016450Y010428D03*
X016455Y010418D03*
X016465Y010393D03*
X016475Y010368D03*
X016490Y010333D03*
X017055Y010578D03*
X017065Y010603D03*
X017070Y010613D03*
X017075Y010628D03*
X017080Y010638D03*
X017085Y010648D03*
X017085Y010653D03*
X017090Y010663D03*
X017095Y010673D03*
X017095Y010678D03*
X017100Y010683D03*
X017100Y010688D03*
X017105Y010698D03*
X017105Y010703D03*
X017110Y010708D03*
X017110Y010713D03*
X017115Y010723D03*
X017115Y010728D03*
X017120Y010733D03*
X017120Y010738D03*
X017125Y010743D03*
X017125Y010748D03*
X017125Y010753D03*
X017130Y010758D03*
X017130Y010763D03*
X017135Y010768D03*
X017135Y010773D03*
X017140Y010783D03*
X017140Y010788D03*
X017145Y010793D03*
X017145Y010798D03*
X017150Y010808D03*
X017155Y010818D03*
X017155Y010823D03*
X017160Y010833D03*
X017165Y010843D03*
X017165Y010848D03*
X016770Y009673D03*
X016780Y009648D03*
X016805Y009588D03*
X016815Y009563D03*
X016820Y009553D03*
X016830Y009528D03*
X016840Y009503D03*
X016845Y009493D03*
X016850Y009478D03*
X016855Y009468D03*
X016860Y009453D03*
X016865Y009443D03*
X016870Y009433D03*
X016870Y009428D03*
X016875Y009418D03*
X016880Y009408D03*
X016885Y009398D03*
X016885Y009393D03*
X016890Y009383D03*
X016895Y009373D03*
X016895Y009368D03*
X016900Y009358D03*
X016900Y009353D03*
X016905Y009348D03*
X016905Y009343D03*
X016910Y009333D03*
X016915Y009323D03*
X016915Y009318D03*
X016920Y009313D03*
X016920Y009308D03*
X016925Y009298D03*
X016925Y009293D03*
X016930Y009288D03*
X016930Y009283D03*
X016935Y009273D03*
X016935Y009268D03*
X016940Y009263D03*
X016940Y009258D03*
X016945Y009253D03*
X016945Y009248D03*
X016945Y009243D03*
X016950Y009238D03*
X016950Y009233D03*
X016955Y009228D03*
X016955Y009223D03*
X016960Y009218D03*
X016960Y009213D03*
X016960Y009208D03*
X016965Y009203D03*
X016965Y009198D03*
X016970Y009193D03*
X016970Y009188D03*
X016970Y009183D03*
X016975Y009178D03*
X016975Y009173D03*
X016980Y009168D03*
X016980Y009163D03*
X016980Y009158D03*
X012485Y012093D03*
X013605Y014033D03*
D14*
X012488Y012098D03*
X014198Y010558D03*
X014933Y010553D03*
X014938Y010548D03*
X014938Y010018D03*
X014933Y010013D03*
X016328Y010728D03*
X016318Y010753D03*
X016308Y010778D03*
X016298Y010803D03*
X016293Y010813D03*
X016288Y010828D03*
X016283Y010838D03*
X016278Y010848D03*
X017138Y010778D03*
X017148Y010803D03*
X017153Y010813D03*
X017158Y010828D03*
X017163Y010838D03*
X016723Y009788D03*
X016728Y009778D03*
X016728Y009773D03*
X016733Y009768D03*
X016733Y009763D03*
X016738Y009753D03*
X016738Y009748D03*
X016743Y009743D03*
X016743Y009738D03*
X016748Y009733D03*
X016748Y009728D03*
X016748Y009723D03*
X016753Y009718D03*
X016753Y009713D03*
X016758Y009708D03*
X016758Y009703D03*
X016763Y009693D03*
X016763Y009688D03*
X016768Y009683D03*
X016768Y009678D03*
X016773Y009668D03*
X016773Y009663D03*
X016778Y009658D03*
X016778Y009653D03*
X016783Y009643D03*
X016783Y009638D03*
X016788Y009633D03*
X016788Y009628D03*
X016793Y009623D03*
X016793Y009618D03*
X016793Y009613D03*
X016798Y009608D03*
X016798Y009603D03*
X016803Y009598D03*
X016803Y009593D03*
X016808Y009583D03*
X016808Y009578D03*
X016813Y009573D03*
X016813Y009568D03*
X016818Y009558D03*
X016823Y009548D03*
X016823Y009543D03*
X016828Y009538D03*
X016828Y009533D03*
X016833Y009523D03*
X016833Y009518D03*
X016838Y009513D03*
X016838Y009508D03*
X016843Y009498D03*
X016848Y009488D03*
X016848Y009483D03*
X016853Y009473D03*
X016858Y009463D03*
X016858Y009458D03*
X016863Y009448D03*
X016868Y009438D03*
X016873Y009423D03*
X016878Y009413D03*
X016883Y009403D03*
X016888Y009388D03*
X016893Y009378D03*
X016898Y009363D03*
X016908Y009338D03*
X016913Y009328D03*
X016923Y009303D03*
X016933Y009278D03*
X009818Y009708D03*
X009693Y010248D03*
D15*
X011050Y009683D03*
X012660Y009683D03*
X012660Y010873D03*
X012225Y011843D03*
X014235Y010048D03*
X014555Y009683D03*
X013545Y014133D03*
D16*
X014023Y012263D03*
X015908Y012773D03*
X012218Y011838D03*
X009818Y010873D03*
X009828Y009683D03*
D17*
X010060Y009818D03*
X010050Y010398D03*
X010035Y010743D03*
X010705Y010688D03*
X010710Y010693D03*
X011380Y010703D03*
X011385Y010698D03*
X011560Y010523D03*
X011560Y010028D03*
X011560Y010023D03*
X011375Y009853D03*
X011050Y009688D03*
X010705Y009868D03*
X009565Y010193D03*
X012150Y010028D03*
X012150Y010023D03*
X012335Y009853D03*
X012340Y009848D03*
X012660Y009688D03*
X012150Y010523D03*
X012325Y010698D03*
X012330Y010703D03*
X013000Y010693D03*
X013005Y010688D03*
X012335Y011958D03*
X013570Y014093D03*
X014555Y009688D03*
D18*
X013043Y009903D03*
X013038Y009898D03*
X013033Y009893D03*
X012313Y009868D03*
X012143Y010053D03*
X012143Y010058D03*
X012143Y010493D03*
X012143Y010498D03*
X012308Y010683D03*
X012313Y010688D03*
X013038Y010663D03*
X011568Y010498D03*
X011568Y010493D03*
X011403Y010683D03*
X011398Y010688D03*
X011568Y010058D03*
X011568Y010053D03*
X011403Y009873D03*
X011398Y009868D03*
X010678Y009893D03*
X010673Y009898D03*
X010668Y009903D03*
X010078Y009833D03*
X010073Y009828D03*
X009823Y009688D03*
X009563Y009828D03*
X009548Y010178D03*
X009553Y010183D03*
X009593Y010733D03*
X010048Y010733D03*
X010063Y010408D03*
X010673Y010663D03*
D19*
X011298Y010748D03*
X011293Y009808D03*
X012418Y009808D03*
X012413Y010748D03*
X014213Y009993D03*
X014553Y009693D03*
X009633Y009793D03*
D20*
X010005Y009793D03*
X010795Y009813D03*
X011050Y009693D03*
X011530Y010608D03*
X012180Y010608D03*
X012915Y009813D03*
X012660Y009693D03*
X010790Y010743D03*
X012405Y012023D03*
X013980Y012303D03*
X015785Y012798D03*
X013585Y014068D03*
D21*
X013580Y014078D03*
X012940Y010733D03*
X012170Y010583D03*
X012170Y009968D03*
X011540Y009968D03*
X011540Y009973D03*
X011540Y010583D03*
X010770Y010733D03*
X010010Y010373D03*
X009600Y010213D03*
X009615Y009798D03*
X009820Y009693D03*
X010020Y009798D03*
X010765Y009828D03*
X009815Y010863D03*
X014215Y010003D03*
D22*
X012660Y010853D03*
X012495Y012103D03*
X013950Y012323D03*
X015725Y012808D03*
X016720Y009803D03*
X016720Y009798D03*
X016720Y009793D03*
X016725Y009783D03*
X016735Y009758D03*
X016760Y009698D03*
X011050Y010853D03*
X009920Y010338D03*
D23*
X009663Y010238D03*
X009818Y009703D03*
X011053Y010858D03*
X012658Y010858D03*
X014148Y010468D03*
X014148Y010463D03*
X014153Y010473D03*
X014153Y010478D03*
X014158Y010488D03*
X014143Y010448D03*
X014978Y010473D03*
X014983Y010463D03*
X014983Y010458D03*
X014988Y010453D03*
X014988Y010448D03*
X014988Y010443D03*
X014993Y010428D03*
X014998Y010163D03*
X014993Y010143D03*
X014993Y010138D03*
X014988Y010128D03*
X014988Y010123D03*
X014988Y010118D03*
X014983Y010108D03*
X014983Y010103D03*
X014978Y010093D03*
X014553Y009698D03*
D24*
X014210Y009983D03*
X012660Y009698D03*
X011050Y009698D03*
X009650Y010233D03*
X012445Y012058D03*
X013965Y012313D03*
D25*
X012420Y012038D03*
X012425Y010753D03*
X012430Y009803D03*
X011280Y009803D03*
X011285Y010753D03*
X009815Y010858D03*
X009820Y009698D03*
X014560Y010863D03*
D26*
X014913Y009993D03*
X014553Y009703D03*
X016718Y009818D03*
X012508Y012113D03*
X013613Y014023D03*
X009903Y010333D03*
D27*
X009770Y010873D03*
X011645Y009708D03*
X012610Y010873D03*
X013585Y009708D03*
X014250Y010078D03*
X014510Y010873D03*
X014615Y010873D03*
X015825Y009708D03*
X017720Y009708D03*
X018160Y009708D03*
X018160Y011473D03*
D28*
X017753Y009948D03*
X017748Y009943D03*
X017743Y009938D03*
X017718Y009908D03*
X017713Y009903D03*
X017708Y009898D03*
X017703Y009893D03*
X017698Y009888D03*
X017693Y009883D03*
X017683Y009868D03*
X017678Y009863D03*
X017673Y009858D03*
X017668Y009853D03*
X017663Y009848D03*
X017658Y009843D03*
X017653Y009838D03*
X017648Y009833D03*
X017638Y009818D03*
X017633Y009813D03*
X017628Y009808D03*
X017623Y009803D03*
X017618Y009798D03*
X017613Y009793D03*
X017608Y009788D03*
X017588Y009763D03*
X017583Y009758D03*
X017578Y009753D03*
X017573Y009748D03*
X017568Y009743D03*
X014888Y009968D03*
X014553Y009708D03*
X014248Y010603D03*
X014883Y010598D03*
X012538Y012138D03*
X009878Y010323D03*
X009748Y010268D03*
D29*
X009720Y010258D03*
X011050Y009708D03*
X012660Y009708D03*
X014220Y010583D03*
X014910Y010578D03*
X014910Y009988D03*
X016720Y009828D03*
X016720Y009823D03*
X012515Y012118D03*
D30*
X012473Y012083D03*
X013958Y012318D03*
X014563Y010858D03*
X014963Y010508D03*
X014963Y010503D03*
X014968Y010498D03*
X014973Y010488D03*
X014973Y010078D03*
X014968Y010068D03*
X014963Y010058D03*
X014168Y010508D03*
X014168Y010513D03*
X014173Y010518D03*
X016878Y010148D03*
X016878Y010143D03*
X016883Y010153D03*
X016883Y010158D03*
X016888Y010168D03*
X016888Y010173D03*
X016893Y010178D03*
X016893Y010183D03*
X016898Y010193D03*
X016903Y010203D03*
X016903Y010208D03*
X016908Y010218D03*
X016913Y010233D03*
X016918Y010243D03*
X016928Y010268D03*
X016933Y010278D03*
X016943Y010303D03*
X018303Y009713D03*
X018303Y011468D03*
D31*
X017815Y010668D03*
X017820Y010663D03*
X017825Y010658D03*
X017830Y010653D03*
X017880Y010598D03*
X017885Y010593D03*
X017890Y010588D03*
X017895Y010583D03*
X017900Y010578D03*
X017905Y010573D03*
X017910Y010568D03*
X017915Y010563D03*
X017920Y010558D03*
X017925Y010553D03*
X017930Y010548D03*
X017935Y010543D03*
X017935Y010538D03*
X017940Y010533D03*
X017945Y010528D03*
X017950Y010523D03*
X017955Y010518D03*
X017960Y010513D03*
X017645Y009828D03*
X017640Y009823D03*
X017605Y009783D03*
X017600Y009778D03*
X017595Y009773D03*
X017590Y009768D03*
X017565Y009738D03*
X017560Y009733D03*
X017555Y009728D03*
X017550Y009723D03*
X017545Y009718D03*
X017540Y009713D03*
X016720Y009858D03*
X016720Y009863D03*
X014880Y009963D03*
X014560Y010848D03*
X012545Y012143D03*
X013620Y014008D03*
X009815Y010833D03*
X009865Y010318D03*
D32*
X009945Y010348D03*
X012460Y012073D03*
X012465Y012078D03*
X014160Y010498D03*
X014160Y010493D03*
X014155Y010483D03*
X014165Y010503D03*
X014210Y009978D03*
X014970Y010073D03*
X014975Y010083D03*
X014975Y010088D03*
X014980Y010098D03*
X014985Y010113D03*
X014980Y010468D03*
X014975Y010478D03*
X014975Y010483D03*
X014970Y010493D03*
X015685Y010493D03*
X015685Y010488D03*
X015685Y010483D03*
X015685Y010478D03*
X015685Y010473D03*
X015685Y010468D03*
X015685Y010463D03*
X015685Y010458D03*
X015685Y010453D03*
X015685Y010448D03*
X015685Y010443D03*
X015685Y010438D03*
X015685Y010433D03*
X015685Y010428D03*
X015685Y010423D03*
X015685Y010418D03*
X015685Y010413D03*
X015685Y010408D03*
X015685Y010403D03*
X015685Y010398D03*
X015685Y010393D03*
X015685Y010388D03*
X015685Y010383D03*
X015685Y010378D03*
X015685Y010373D03*
X015685Y010368D03*
X015685Y010363D03*
X015685Y010358D03*
X015685Y010353D03*
X015685Y010348D03*
X015685Y010343D03*
X015685Y010338D03*
X015685Y010333D03*
X015685Y010328D03*
X015685Y010323D03*
X015685Y010318D03*
X015685Y010313D03*
X015685Y010308D03*
X015685Y010303D03*
X015685Y010298D03*
X015685Y010293D03*
X015685Y010288D03*
X015685Y010283D03*
X015685Y010278D03*
X015685Y010273D03*
X015685Y010268D03*
X015685Y010263D03*
X015685Y010258D03*
X015685Y010253D03*
X015685Y010248D03*
X015685Y010243D03*
X015685Y010238D03*
X015685Y010233D03*
X015685Y010228D03*
X015685Y010223D03*
X015685Y010218D03*
X015685Y010213D03*
X015685Y010208D03*
X015685Y010203D03*
X015685Y010198D03*
X015685Y010193D03*
X015685Y010188D03*
X015685Y010183D03*
X015685Y010178D03*
X015685Y010173D03*
X015685Y010168D03*
X015685Y010163D03*
X015685Y010158D03*
X015685Y010153D03*
X015685Y010148D03*
X015685Y010143D03*
X015685Y010138D03*
X015685Y010133D03*
X015685Y010128D03*
X015685Y010123D03*
X015685Y010118D03*
X015685Y010113D03*
X015685Y010108D03*
X015685Y010103D03*
X015685Y010098D03*
X015685Y010093D03*
X015685Y010088D03*
X015685Y010083D03*
X015685Y010078D03*
X015685Y010073D03*
X015685Y010068D03*
X015685Y010063D03*
X015685Y010058D03*
X015685Y010053D03*
X015685Y010048D03*
X015685Y010043D03*
X015685Y010038D03*
X015685Y010033D03*
X015685Y010028D03*
X015685Y010023D03*
X015685Y010018D03*
X015685Y010013D03*
X015685Y010008D03*
X015685Y010003D03*
X015685Y009998D03*
X015685Y009993D03*
X015685Y009988D03*
X015685Y009983D03*
X015685Y009978D03*
X015685Y009973D03*
X015685Y009968D03*
X015685Y009963D03*
X015685Y009958D03*
X015685Y009953D03*
X015685Y009948D03*
X015685Y009943D03*
X015685Y009938D03*
X015685Y009933D03*
X015685Y009928D03*
X015685Y009923D03*
X015685Y009918D03*
X015685Y009913D03*
X015685Y009908D03*
X015685Y009903D03*
X015685Y009898D03*
X015685Y009893D03*
X015685Y009888D03*
X015685Y009883D03*
X015685Y009878D03*
X015685Y009873D03*
X015685Y009868D03*
X015685Y009863D03*
X015685Y009858D03*
X015685Y009853D03*
X015685Y009848D03*
X015685Y009843D03*
X015685Y009838D03*
X015685Y009833D03*
X015685Y009828D03*
X015685Y009823D03*
X015685Y009818D03*
X015685Y009813D03*
X015685Y009808D03*
X015685Y009803D03*
X015685Y009798D03*
X015685Y009793D03*
X015685Y009788D03*
X015685Y009783D03*
X015685Y009778D03*
X015685Y009773D03*
X015685Y009768D03*
X015685Y009763D03*
X015685Y009758D03*
X015685Y009753D03*
X015685Y009748D03*
X015685Y009743D03*
X015685Y009738D03*
X015685Y009733D03*
X015685Y009728D03*
X015685Y009723D03*
X015685Y009718D03*
X015685Y009713D03*
X015685Y010498D03*
X015685Y010503D03*
X015685Y010508D03*
X015685Y010513D03*
X015685Y010518D03*
X015685Y010523D03*
X015685Y010528D03*
X015685Y010533D03*
X015685Y010538D03*
X015685Y010543D03*
X015685Y010548D03*
X015685Y010553D03*
X015685Y010558D03*
X015685Y010563D03*
X015685Y010568D03*
X015685Y010573D03*
X015685Y010578D03*
X015685Y010583D03*
X015685Y010588D03*
X015685Y010593D03*
X015685Y010598D03*
X015685Y010603D03*
X015685Y010608D03*
X015685Y010853D03*
X015685Y010858D03*
X015685Y010863D03*
X015685Y010868D03*
X015685Y010873D03*
X015685Y010878D03*
X015685Y010883D03*
X015685Y010888D03*
X015685Y010893D03*
X015685Y010898D03*
X015685Y010903D03*
X015685Y010908D03*
X015685Y010913D03*
X015685Y010918D03*
X015685Y010923D03*
X015685Y010928D03*
X015685Y010933D03*
X015685Y010938D03*
X015685Y010943D03*
X015685Y010948D03*
X015685Y010953D03*
X015685Y010958D03*
X015685Y010963D03*
X015685Y010968D03*
X015685Y010973D03*
X015685Y010978D03*
X015685Y010983D03*
X015685Y010988D03*
X015685Y010993D03*
X015685Y010998D03*
X015685Y011003D03*
X015685Y011008D03*
X015685Y011013D03*
X015685Y011018D03*
X015685Y011023D03*
X015685Y011028D03*
X015685Y011033D03*
X015685Y011038D03*
X015685Y011043D03*
X015685Y011048D03*
X015685Y011053D03*
X015685Y011058D03*
X015685Y011063D03*
X015685Y011068D03*
X015685Y011073D03*
X015685Y011078D03*
X015685Y011083D03*
X015685Y011088D03*
X015685Y011093D03*
X015685Y011098D03*
X015685Y011103D03*
X015685Y011108D03*
X015685Y011113D03*
X015685Y011118D03*
X015685Y011123D03*
X015685Y011128D03*
X015685Y011133D03*
X015685Y011138D03*
X015685Y011143D03*
X015685Y011148D03*
X015685Y011153D03*
X015685Y011158D03*
X015685Y011163D03*
X015685Y011168D03*
X015685Y011173D03*
X015685Y011178D03*
X015685Y011183D03*
X015685Y011188D03*
X015685Y011193D03*
X015685Y011198D03*
X015685Y011203D03*
X015685Y011208D03*
X015685Y011213D03*
X015685Y011218D03*
X015685Y011223D03*
X015685Y011228D03*
X015685Y011233D03*
X015685Y011238D03*
X015685Y011243D03*
X015685Y011248D03*
X015685Y011253D03*
X015685Y011258D03*
X015685Y011263D03*
X015685Y011268D03*
X015685Y011273D03*
X015685Y011278D03*
X015685Y011283D03*
X018305Y011283D03*
X018305Y011278D03*
X018305Y011273D03*
X018305Y011268D03*
X018305Y011263D03*
X018305Y011258D03*
X018305Y011253D03*
X018305Y011248D03*
X018305Y011243D03*
X018305Y011238D03*
X018305Y011233D03*
X018305Y011228D03*
X018305Y011223D03*
X018305Y011218D03*
X018305Y011213D03*
X018305Y011208D03*
X018305Y011203D03*
X018305Y011198D03*
X018305Y011193D03*
X018305Y011188D03*
X018305Y011183D03*
X018305Y011178D03*
X018305Y011173D03*
X018305Y011168D03*
X018305Y011163D03*
X018305Y011158D03*
X018305Y011153D03*
X018305Y011148D03*
X018305Y011143D03*
X018305Y011138D03*
X018305Y011133D03*
X018305Y011128D03*
X018305Y011123D03*
X018305Y011118D03*
X018305Y011113D03*
X018305Y011108D03*
X018305Y011103D03*
X018305Y011098D03*
X018305Y011093D03*
X018305Y011088D03*
X018305Y011083D03*
X018305Y011078D03*
X018305Y011073D03*
X018305Y011068D03*
X018305Y011063D03*
X018305Y011058D03*
X018305Y011053D03*
X018305Y011048D03*
X018305Y011043D03*
X018305Y011038D03*
X018305Y011033D03*
X018305Y011028D03*
X018305Y011023D03*
X018305Y011018D03*
X018305Y011013D03*
X018305Y011008D03*
X018305Y011003D03*
X018305Y010998D03*
X018305Y010993D03*
X018305Y010988D03*
X018305Y010983D03*
X018305Y010978D03*
X018305Y010973D03*
X018305Y010968D03*
X018305Y010963D03*
X018305Y010958D03*
X018305Y010953D03*
X018305Y010948D03*
X018305Y010943D03*
X018305Y010938D03*
X018305Y010933D03*
X018305Y010928D03*
X018305Y010923D03*
X018305Y010918D03*
X018305Y010913D03*
X018305Y010908D03*
X018305Y010903D03*
X018305Y010898D03*
X018305Y010893D03*
X018305Y010888D03*
X018305Y010883D03*
X018305Y010878D03*
X018305Y010873D03*
X018305Y010868D03*
X018305Y010863D03*
X018305Y010858D03*
X018305Y010853D03*
X018305Y010848D03*
X018305Y010843D03*
X018305Y010838D03*
X018305Y010833D03*
X018305Y010828D03*
X018305Y010823D03*
X018305Y010818D03*
X018305Y010813D03*
X018305Y010808D03*
X018305Y010803D03*
X018305Y010798D03*
X018305Y010793D03*
X018305Y010788D03*
X018305Y010783D03*
X018305Y010778D03*
X018305Y010773D03*
X018305Y010768D03*
X018305Y010763D03*
X018305Y010758D03*
X018305Y010753D03*
X018305Y010748D03*
X018305Y010743D03*
X018305Y010738D03*
X018305Y010733D03*
X018305Y010728D03*
X018305Y010723D03*
X018305Y010718D03*
X018305Y010713D03*
X018305Y010708D03*
X018305Y010703D03*
X018305Y010698D03*
X018305Y010693D03*
X018305Y010688D03*
X018305Y010683D03*
X018305Y010678D03*
X018305Y010673D03*
X018305Y010668D03*
X018305Y010663D03*
X018305Y010658D03*
X018305Y010653D03*
X018305Y010648D03*
X018305Y010643D03*
X018305Y010638D03*
X018305Y010633D03*
X018305Y010628D03*
X018305Y010623D03*
X018305Y010618D03*
X018305Y010613D03*
X018305Y010608D03*
X018305Y010603D03*
X018305Y010598D03*
X018305Y010593D03*
X018305Y010588D03*
X018305Y010583D03*
X018305Y010578D03*
X018305Y010573D03*
X018305Y010568D03*
X018305Y010563D03*
X018305Y010558D03*
X018305Y010553D03*
X018305Y010548D03*
X018305Y010543D03*
X018305Y010538D03*
X018305Y010533D03*
X018305Y010528D03*
X018305Y010523D03*
X018305Y010518D03*
X018305Y010513D03*
X018305Y010193D03*
X018305Y010188D03*
X018305Y010183D03*
X018305Y010178D03*
X018305Y010173D03*
X018305Y010168D03*
X018305Y010163D03*
X018305Y010158D03*
X018305Y010153D03*
X018305Y010148D03*
X018305Y010143D03*
X018305Y010138D03*
X018305Y010133D03*
X018305Y010128D03*
X018305Y010123D03*
X018305Y010118D03*
X018305Y010113D03*
X018305Y010108D03*
X018305Y010103D03*
X018305Y010098D03*
X018305Y010093D03*
X018305Y010088D03*
X018305Y010083D03*
X018305Y010078D03*
X018305Y010073D03*
X018305Y010068D03*
X018305Y010063D03*
X018305Y010058D03*
X018305Y010053D03*
X018305Y010048D03*
X018305Y010043D03*
X018305Y010038D03*
X018305Y010033D03*
X018305Y010028D03*
X018305Y010023D03*
X018305Y010018D03*
X018305Y010013D03*
X018305Y010008D03*
X018305Y010003D03*
X018305Y009998D03*
X018305Y009993D03*
X018305Y009988D03*
X018305Y009983D03*
X018305Y009978D03*
X018305Y009973D03*
X018305Y009968D03*
X018305Y009963D03*
X018305Y009958D03*
X018305Y009953D03*
X018305Y009948D03*
X018305Y009943D03*
X018305Y009938D03*
X018305Y009933D03*
X018305Y009928D03*
X018305Y009923D03*
X018305Y009918D03*
X018305Y009913D03*
X018305Y009908D03*
X018305Y009903D03*
X018305Y009898D03*
X018305Y009893D03*
X018305Y009888D03*
X018305Y009883D03*
X018305Y009878D03*
X018305Y009873D03*
X018305Y009868D03*
X018305Y009863D03*
X018305Y009858D03*
X018305Y009853D03*
X018305Y009848D03*
X018305Y009843D03*
X018305Y009838D03*
X018305Y009833D03*
X018305Y009828D03*
X018305Y009823D03*
X018305Y009818D03*
X018305Y009813D03*
X018305Y009808D03*
X018305Y009803D03*
X018305Y009798D03*
X018305Y009793D03*
X018305Y009788D03*
X018305Y009783D03*
X018305Y009778D03*
X018305Y009773D03*
X018305Y009768D03*
X018305Y009763D03*
X018305Y009758D03*
X018305Y009753D03*
X018305Y009748D03*
X018305Y009743D03*
X018305Y009738D03*
X018305Y009733D03*
X018305Y009728D03*
X018305Y009723D03*
X018305Y009718D03*
X018305Y011288D03*
X018305Y011293D03*
X018305Y011298D03*
X018305Y011303D03*
X018305Y011308D03*
X018305Y011313D03*
X018305Y011318D03*
X018305Y011323D03*
X018305Y011328D03*
X018305Y011333D03*
X018305Y011338D03*
X018305Y011343D03*
X018305Y011348D03*
X018305Y011353D03*
X018305Y011358D03*
X018305Y011363D03*
X018305Y011368D03*
X018305Y011373D03*
X018305Y011378D03*
X018305Y011383D03*
X018305Y011388D03*
X018305Y011393D03*
X018305Y011398D03*
X018305Y011403D03*
X018305Y011408D03*
X018305Y011413D03*
X018305Y011418D03*
X018305Y011423D03*
X018305Y011428D03*
X018305Y011433D03*
X018305Y011438D03*
X018305Y011443D03*
X018305Y011448D03*
X018305Y011453D03*
X018305Y011458D03*
X018305Y011463D03*
X013600Y014043D03*
D33*
X012575Y012168D03*
X009815Y010823D03*
X014550Y009713D03*
X016720Y009903D03*
X016720Y009908D03*
D34*
X014228Y010038D03*
X013638Y009713D03*
X013183Y010173D03*
X013183Y010178D03*
X013188Y010203D03*
X013188Y010208D03*
X013188Y010213D03*
X013188Y010218D03*
X013188Y010223D03*
X013193Y010243D03*
X013193Y010248D03*
X013193Y010253D03*
X013193Y010258D03*
X013193Y010263D03*
X013193Y010268D03*
X013193Y010273D03*
X013193Y010278D03*
X013193Y010283D03*
X013193Y010288D03*
X013193Y010293D03*
X013193Y010298D03*
X013193Y010303D03*
X013193Y010313D03*
X013188Y010343D03*
X013188Y010348D03*
X013188Y010353D03*
X013188Y010358D03*
X013183Y010383D03*
X013183Y010388D03*
X013178Y010408D03*
X012118Y010323D03*
X012118Y010318D03*
X012118Y010313D03*
X012118Y010308D03*
X012118Y010303D03*
X012118Y010298D03*
X012118Y010293D03*
X012118Y010288D03*
X012118Y010283D03*
X012118Y010278D03*
X012118Y010273D03*
X012118Y010268D03*
X012118Y010263D03*
X012118Y010258D03*
X012118Y010253D03*
X012118Y010248D03*
X012118Y010243D03*
X012118Y010238D03*
X012118Y010233D03*
X012118Y010228D03*
X012118Y010223D03*
X012118Y009948D03*
X012118Y009943D03*
X012118Y009938D03*
X012118Y009933D03*
X012118Y009928D03*
X012118Y009923D03*
X012118Y009918D03*
X012118Y009913D03*
X012118Y009908D03*
X012118Y009903D03*
X012118Y009898D03*
X012118Y009893D03*
X012118Y009888D03*
X012118Y009883D03*
X012118Y009878D03*
X012118Y009873D03*
X012118Y009868D03*
X012118Y009863D03*
X012118Y009858D03*
X012118Y009853D03*
X012118Y009848D03*
X012118Y009843D03*
X012118Y009838D03*
X012118Y009833D03*
X012118Y009828D03*
X012118Y009823D03*
X012118Y009818D03*
X012118Y009813D03*
X012118Y009808D03*
X012118Y009803D03*
X012118Y009798D03*
X012118Y009793D03*
X012118Y009788D03*
X012118Y009783D03*
X012118Y009778D03*
X012118Y009773D03*
X012118Y009768D03*
X012118Y009763D03*
X012118Y009758D03*
X012118Y009753D03*
X012118Y009748D03*
X012118Y009743D03*
X012118Y009738D03*
X012118Y009733D03*
X012118Y009728D03*
X012118Y009723D03*
X012118Y009718D03*
X012118Y009713D03*
X011593Y009713D03*
X011593Y009718D03*
X011593Y009723D03*
X011593Y009728D03*
X011593Y009733D03*
X011593Y009738D03*
X011593Y009743D03*
X011593Y009748D03*
X011593Y009753D03*
X011593Y009758D03*
X011593Y009763D03*
X011593Y009768D03*
X011593Y009773D03*
X011593Y009778D03*
X011593Y009783D03*
X011593Y009788D03*
X011593Y009793D03*
X011593Y009798D03*
X011593Y009803D03*
X011593Y009808D03*
X011593Y009813D03*
X011593Y009818D03*
X011593Y009823D03*
X011593Y009828D03*
X011593Y009833D03*
X011593Y009838D03*
X011593Y009843D03*
X011593Y009848D03*
X011593Y009853D03*
X011593Y009858D03*
X011593Y009863D03*
X011593Y009868D03*
X011593Y009873D03*
X011593Y009878D03*
X011593Y009883D03*
X011593Y009888D03*
X011593Y009893D03*
X011593Y009898D03*
X011593Y009903D03*
X011593Y009908D03*
X011593Y009913D03*
X011593Y009918D03*
X011593Y009923D03*
X011593Y009928D03*
X011593Y009933D03*
X011593Y009938D03*
X011593Y009943D03*
X011593Y009948D03*
X011593Y010228D03*
X011593Y010233D03*
X011593Y010238D03*
X011593Y010243D03*
X011593Y010248D03*
X011593Y010253D03*
X011593Y010258D03*
X011593Y010263D03*
X011593Y010268D03*
X011593Y010273D03*
X011593Y010278D03*
X011593Y010283D03*
X011593Y010288D03*
X011593Y010293D03*
X011593Y010298D03*
X011593Y010303D03*
X011593Y010308D03*
X011593Y010313D03*
X011593Y010318D03*
X011593Y010323D03*
X011593Y010613D03*
X011593Y010618D03*
X011593Y010623D03*
X011593Y010628D03*
X011593Y010633D03*
X011593Y010638D03*
X011593Y010643D03*
X011593Y010648D03*
X011593Y010653D03*
X011593Y010658D03*
X011593Y010663D03*
X011593Y010668D03*
X011593Y010673D03*
X011593Y010678D03*
X011593Y010683D03*
X011593Y010688D03*
X011593Y010693D03*
X011593Y010698D03*
X011593Y010703D03*
X011593Y010708D03*
X011593Y010713D03*
X011593Y010718D03*
X011593Y010723D03*
X011593Y010728D03*
X011593Y010733D03*
X011593Y010738D03*
X011593Y010743D03*
X011593Y010748D03*
X011593Y010753D03*
X011593Y010758D03*
X011593Y010763D03*
X011593Y010768D03*
X011593Y010773D03*
X011593Y010778D03*
X011593Y010783D03*
X011593Y010788D03*
X011593Y010793D03*
X011593Y010798D03*
X011593Y010803D03*
X011593Y010808D03*
X011593Y010813D03*
X011593Y010818D03*
X011593Y010823D03*
X011593Y010828D03*
X011593Y010833D03*
X011593Y010838D03*
X011593Y010843D03*
X011593Y010848D03*
X011593Y010853D03*
X011593Y010858D03*
X011593Y010863D03*
X011593Y010868D03*
X011593Y010873D03*
X011593Y010878D03*
X011593Y010883D03*
X011593Y010888D03*
X011593Y010893D03*
X011593Y010898D03*
X011593Y010903D03*
X011593Y010908D03*
X011593Y010913D03*
X011593Y010918D03*
X011593Y010923D03*
X011593Y010928D03*
X011593Y010933D03*
X011593Y010938D03*
X011593Y010943D03*
X011593Y010948D03*
X011593Y010953D03*
X011593Y010958D03*
X011593Y010963D03*
X011593Y010968D03*
X011593Y010973D03*
X011593Y010978D03*
X011593Y010983D03*
X011593Y010988D03*
X011593Y010993D03*
X011593Y010998D03*
X011593Y011003D03*
X011593Y011008D03*
X011593Y011013D03*
X011593Y011018D03*
X011593Y011023D03*
X011593Y011028D03*
X011593Y011033D03*
X011593Y011038D03*
X011593Y011043D03*
X011593Y011048D03*
X011593Y011053D03*
X011593Y011058D03*
X011593Y011063D03*
X011593Y011068D03*
X011593Y011073D03*
X011593Y011078D03*
X011593Y011083D03*
X011593Y011088D03*
X011593Y011093D03*
X011593Y011098D03*
X011593Y011103D03*
X011593Y011108D03*
X011593Y011113D03*
X011593Y011118D03*
X011593Y011123D03*
X011593Y011128D03*
X011593Y011133D03*
X011593Y011138D03*
X011593Y011143D03*
X011593Y011148D03*
X011593Y011153D03*
X011593Y011158D03*
X011593Y011163D03*
X011593Y011168D03*
X011593Y011173D03*
X011593Y011178D03*
X011593Y011183D03*
X011593Y011188D03*
X011593Y011193D03*
X011593Y011198D03*
X011593Y011203D03*
X011593Y011208D03*
X011593Y011213D03*
X011593Y011218D03*
X011593Y011223D03*
X011593Y011228D03*
X011593Y011233D03*
X011593Y011238D03*
X011593Y011243D03*
X011593Y011248D03*
X011593Y011253D03*
X011593Y011258D03*
X011593Y011263D03*
X011593Y011268D03*
X011593Y011273D03*
X011593Y011278D03*
X011593Y011283D03*
X011593Y011288D03*
X011593Y011293D03*
X011593Y011298D03*
X011593Y011303D03*
X011593Y011308D03*
X011593Y011313D03*
X011593Y011318D03*
X011593Y011323D03*
X011593Y011328D03*
X011593Y011333D03*
X011593Y011338D03*
X011593Y011343D03*
X011593Y011348D03*
X011593Y011353D03*
X011593Y011358D03*
X011593Y011363D03*
X011593Y011368D03*
X011593Y011373D03*
X011593Y011378D03*
X011593Y011383D03*
X011593Y011388D03*
X011593Y011393D03*
X011593Y011398D03*
X011593Y011403D03*
X011593Y011408D03*
X011593Y011413D03*
X011593Y011418D03*
X011593Y011423D03*
X011593Y011428D03*
X011593Y011433D03*
X011593Y011438D03*
X011593Y011443D03*
X011593Y011448D03*
X011593Y011453D03*
X011593Y011458D03*
X011593Y011463D03*
X011593Y011468D03*
X011593Y011473D03*
X011593Y011478D03*
X011593Y011483D03*
X011593Y011488D03*
X011593Y011493D03*
X011593Y011498D03*
X012258Y011878D03*
X012263Y011883D03*
X012118Y010848D03*
X012118Y010843D03*
X012118Y010838D03*
X012118Y010833D03*
X012118Y010828D03*
X012118Y010823D03*
X012118Y010818D03*
X012118Y010813D03*
X012118Y010808D03*
X012118Y010803D03*
X012118Y010798D03*
X012118Y010793D03*
X012118Y010788D03*
X012118Y010783D03*
X012118Y010778D03*
X012118Y010773D03*
X012118Y010768D03*
X012118Y010763D03*
X012118Y010758D03*
X012118Y010753D03*
X012118Y010748D03*
X012118Y010743D03*
X012118Y010738D03*
X012118Y010733D03*
X012118Y010728D03*
X012118Y010723D03*
X012118Y010718D03*
X012118Y010713D03*
X012118Y010708D03*
X012118Y010703D03*
X012118Y010698D03*
X012118Y010693D03*
X012118Y010688D03*
X012118Y010683D03*
X012118Y010678D03*
X012118Y010673D03*
X012118Y010668D03*
X012118Y010663D03*
X012118Y010658D03*
X012118Y010653D03*
X012118Y010648D03*
X012118Y010643D03*
X012118Y010638D03*
X012118Y010633D03*
X012118Y010628D03*
X012118Y010623D03*
X012118Y010618D03*
X012118Y010613D03*
X010538Y010428D03*
X010533Y010408D03*
X010528Y010388D03*
X010528Y010383D03*
X010528Y010378D03*
X010523Y010358D03*
X010523Y010353D03*
X010523Y010348D03*
X010523Y010343D03*
X010523Y010338D03*
X010518Y010318D03*
X010518Y010313D03*
X010518Y010308D03*
X010518Y010303D03*
X010518Y010298D03*
X010518Y010293D03*
X010518Y010288D03*
X010518Y010283D03*
X010518Y010278D03*
X010518Y010273D03*
X010518Y010268D03*
X010518Y010263D03*
X010518Y010258D03*
X010518Y010253D03*
X010518Y010248D03*
X010518Y010243D03*
X010523Y010223D03*
X010523Y010218D03*
X010523Y010213D03*
X010523Y010208D03*
X010523Y010203D03*
X010528Y010183D03*
X010528Y010178D03*
X010528Y010173D03*
X010533Y010153D03*
X010538Y010133D03*
X010168Y009968D03*
X010163Y009958D03*
X010163Y009953D03*
X010158Y009943D03*
X010123Y010518D03*
X010123Y010523D03*
X010123Y010528D03*
X010123Y010533D03*
X010123Y010538D03*
X010123Y010543D03*
X010123Y010548D03*
X010128Y010553D03*
X010128Y010558D03*
X010128Y010563D03*
X010128Y010568D03*
X010128Y010573D03*
X010128Y010578D03*
X010123Y010588D03*
X010123Y010593D03*
X010123Y010598D03*
X010123Y010603D03*
X010123Y010608D03*
X010123Y010613D03*
X009528Y010628D03*
X009528Y010633D03*
X009523Y010618D03*
X009523Y010613D03*
X009523Y010608D03*
X009518Y010603D03*
X009518Y010598D03*
X009518Y010593D03*
X009483Y010063D03*
X009483Y010058D03*
X009483Y010053D03*
X009483Y010048D03*
X009478Y010043D03*
X009478Y010038D03*
X009478Y010033D03*
X009478Y010028D03*
X009478Y010023D03*
X009478Y010018D03*
X009478Y010013D03*
X009478Y010008D03*
X009478Y010003D03*
X009478Y009998D03*
X009478Y009988D03*
X009483Y009978D03*
X009483Y009973D03*
X009483Y009968D03*
X009483Y009963D03*
X009483Y009958D03*
X009488Y009948D03*
X009488Y009943D03*
X009488Y009938D03*
X013553Y014123D03*
D35*
X014253Y010608D03*
X014878Y010603D03*
X014218Y009958D03*
X012658Y009713D03*
X009818Y009718D03*
X009853Y010313D03*
X017708Y010783D03*
X017713Y010778D03*
X017718Y010773D03*
X017723Y010768D03*
X017728Y010763D03*
X017733Y010758D03*
X017758Y010728D03*
X017763Y010723D03*
X017768Y010718D03*
X017773Y010713D03*
X017778Y010708D03*
X017783Y010703D03*
X017788Y010698D03*
X017793Y010693D03*
X017798Y010688D03*
X017803Y010683D03*
X017808Y010678D03*
X017813Y010673D03*
X017833Y010648D03*
X017838Y010643D03*
X017843Y010638D03*
X017848Y010633D03*
X017853Y010628D03*
X017858Y010623D03*
X017863Y010618D03*
X017868Y010613D03*
X017873Y010608D03*
X017878Y010603D03*
D36*
X017755Y010733D03*
X017750Y010738D03*
X017745Y010743D03*
X017740Y010748D03*
X017735Y010753D03*
X017705Y010788D03*
X017700Y010793D03*
X017695Y010798D03*
X017690Y010803D03*
X017685Y010808D03*
X017680Y010813D03*
X017675Y010818D03*
X017670Y010823D03*
X017665Y010828D03*
X017660Y010833D03*
X017655Y010838D03*
X017650Y010843D03*
X017645Y010848D03*
X016720Y009873D03*
X016720Y009868D03*
X014870Y009958D03*
X012550Y012148D03*
X013930Y012333D03*
X011050Y009713D03*
X009840Y010308D03*
X009760Y010273D03*
D37*
X009818Y009713D03*
X012518Y012123D03*
X014228Y010588D03*
X014233Y010593D03*
X014903Y010583D03*
X014903Y009983D03*
D38*
X014830Y009938D03*
X014550Y009718D03*
X014830Y010623D03*
X016720Y009948D03*
X016720Y009943D03*
X012660Y010833D03*
X011050Y010833D03*
X013635Y013978D03*
D39*
X015885Y012778D03*
X013635Y011498D03*
X013635Y011493D03*
X013635Y011488D03*
X013635Y011483D03*
X013635Y011478D03*
X013635Y011473D03*
X013635Y011468D03*
X013635Y011463D03*
X013635Y011458D03*
X013635Y011453D03*
X013635Y011448D03*
X013635Y011443D03*
X013635Y011438D03*
X013635Y011433D03*
X013635Y011428D03*
X013635Y011423D03*
X013635Y011418D03*
X013635Y011413D03*
X013635Y011408D03*
X013635Y011403D03*
X013635Y011398D03*
X013635Y011393D03*
X013635Y011388D03*
X013635Y011383D03*
X013635Y011378D03*
X013635Y011373D03*
X013635Y011368D03*
X013635Y011363D03*
X013635Y011358D03*
X013635Y011353D03*
X013635Y011348D03*
X013635Y011343D03*
X013635Y011338D03*
X013635Y011333D03*
X013635Y011328D03*
X013635Y011323D03*
X013635Y011318D03*
X013635Y011313D03*
X013635Y011308D03*
X013635Y011303D03*
X013635Y011298D03*
X013635Y011293D03*
X013635Y011288D03*
X013635Y011283D03*
X013635Y011278D03*
X013635Y011273D03*
X013635Y011268D03*
X013635Y011263D03*
X013635Y011258D03*
X013635Y011253D03*
X013635Y011248D03*
X013635Y011243D03*
X013635Y011238D03*
X013635Y011233D03*
X013635Y011228D03*
X013635Y011223D03*
X013635Y011218D03*
X013635Y011213D03*
X013635Y011208D03*
X013635Y011203D03*
X013635Y011198D03*
X013635Y011193D03*
X013635Y011188D03*
X013635Y011183D03*
X013635Y011178D03*
X013635Y011173D03*
X013635Y011168D03*
X013635Y011163D03*
X013635Y011158D03*
X013635Y011153D03*
X013635Y011148D03*
X013635Y011143D03*
X013635Y011138D03*
X013635Y011133D03*
X013635Y011128D03*
X013635Y011123D03*
X013635Y011118D03*
X013635Y011113D03*
X013635Y011108D03*
X013635Y011103D03*
X013635Y011098D03*
X013635Y011093D03*
X013635Y011088D03*
X013635Y011083D03*
X013635Y011078D03*
X013635Y011073D03*
X013635Y011068D03*
X013635Y011063D03*
X013635Y011058D03*
X013635Y011053D03*
X013635Y011048D03*
X013635Y011043D03*
X013635Y011038D03*
X013635Y011033D03*
X013635Y011028D03*
X013635Y011023D03*
X013635Y011018D03*
X013635Y011013D03*
X013635Y011008D03*
X013635Y011003D03*
X013635Y010998D03*
X013635Y010993D03*
X013635Y010988D03*
X013635Y010983D03*
X013635Y010978D03*
X013635Y010973D03*
X013635Y010968D03*
X013635Y010963D03*
X013635Y010958D03*
X013635Y010953D03*
X013635Y010948D03*
X013635Y010943D03*
X013635Y010938D03*
X013635Y010933D03*
X013635Y010928D03*
X013635Y010923D03*
X013635Y010918D03*
X013635Y010913D03*
X013635Y010908D03*
X013635Y010903D03*
X013635Y010898D03*
X013635Y010893D03*
X013635Y010888D03*
X013635Y010883D03*
X013635Y010878D03*
X013635Y010873D03*
X013635Y010868D03*
X013635Y010863D03*
X013635Y010858D03*
X013635Y010853D03*
X013635Y010848D03*
X013635Y010843D03*
X013635Y010838D03*
X013635Y010833D03*
X013635Y010828D03*
X013635Y010823D03*
X013635Y010818D03*
X013635Y010813D03*
X013635Y010808D03*
X013635Y010803D03*
X013635Y010798D03*
X013635Y010793D03*
X013635Y010788D03*
X013635Y010783D03*
X013635Y010778D03*
X013635Y010773D03*
X013635Y010768D03*
X013635Y010763D03*
X013635Y010758D03*
X013635Y010753D03*
X013635Y010748D03*
X013635Y010743D03*
X013635Y010738D03*
X013635Y010733D03*
X013635Y010728D03*
X013635Y010723D03*
X013635Y010718D03*
X013635Y010713D03*
X013635Y010708D03*
X013635Y010703D03*
X013635Y010698D03*
X013635Y010693D03*
X013635Y010688D03*
X013635Y010683D03*
X013635Y010678D03*
X013635Y010673D03*
X013635Y010668D03*
X013635Y010663D03*
X013635Y010658D03*
X013635Y010653D03*
X013635Y010648D03*
X013635Y010643D03*
X013635Y010638D03*
X013635Y010633D03*
X013635Y010628D03*
X013635Y010623D03*
X013635Y010618D03*
X013635Y010613D03*
X013635Y010608D03*
X013635Y010603D03*
X013635Y010598D03*
X013635Y010593D03*
X013635Y010588D03*
X013635Y010583D03*
X013635Y010578D03*
X013635Y010573D03*
X013635Y010568D03*
X013635Y010563D03*
X013635Y010558D03*
X013635Y010553D03*
X013635Y010548D03*
X013635Y010543D03*
X013635Y010538D03*
X013635Y010533D03*
X013635Y010528D03*
X013635Y010523D03*
X013635Y010518D03*
X013635Y010513D03*
X013635Y010508D03*
X013635Y010503D03*
X013635Y010498D03*
X013635Y010493D03*
X013635Y010488D03*
X013635Y010483D03*
X013635Y010478D03*
X013635Y010473D03*
X013635Y010468D03*
X013635Y010463D03*
X013635Y010458D03*
X013635Y010453D03*
X013635Y010448D03*
X013635Y010443D03*
X013635Y010438D03*
X013635Y010433D03*
X013635Y010428D03*
X013635Y010423D03*
X013635Y010418D03*
X013635Y010413D03*
X013635Y010408D03*
X013635Y010403D03*
X013635Y010398D03*
X013635Y010393D03*
X013635Y010388D03*
X013635Y010383D03*
X013635Y010378D03*
X013635Y010373D03*
X013635Y010368D03*
X013635Y010363D03*
X013635Y010358D03*
X013635Y010353D03*
X013635Y010348D03*
X013635Y010343D03*
X013635Y010338D03*
X013635Y010333D03*
X013635Y010328D03*
X013635Y010323D03*
X013635Y010318D03*
X013635Y010313D03*
X013635Y010308D03*
X013635Y010303D03*
X013635Y010298D03*
X013635Y010293D03*
X013635Y010288D03*
X013635Y010283D03*
X013635Y010278D03*
X013635Y010273D03*
X013635Y010268D03*
X013635Y010263D03*
X013635Y010258D03*
X013635Y010253D03*
X013635Y010248D03*
X013635Y010243D03*
X013635Y010238D03*
X013635Y010233D03*
X013635Y010228D03*
X013635Y010223D03*
X013635Y010218D03*
X013635Y010213D03*
X013635Y010208D03*
X013635Y010203D03*
X013635Y010198D03*
X013635Y010193D03*
X013635Y010188D03*
X013635Y010183D03*
X013635Y010178D03*
X013635Y010173D03*
X013635Y010168D03*
X013635Y010163D03*
X013635Y010158D03*
X013635Y010153D03*
X013635Y010148D03*
X013635Y010143D03*
X013635Y010138D03*
X013635Y010133D03*
X013635Y010128D03*
X013635Y010123D03*
X013635Y010118D03*
X013635Y010113D03*
X013635Y010108D03*
X013635Y010103D03*
X013635Y010098D03*
X013635Y010093D03*
X013635Y010088D03*
X013635Y010083D03*
X013635Y010078D03*
X013635Y010073D03*
X013635Y010068D03*
X013635Y010063D03*
X013635Y010058D03*
X013635Y010053D03*
X013635Y010048D03*
X013635Y010043D03*
X013635Y010038D03*
X013635Y010033D03*
X013635Y010028D03*
X013635Y010023D03*
X013635Y010018D03*
X013635Y010013D03*
X013635Y010008D03*
X013635Y010003D03*
X013635Y009998D03*
X013635Y009993D03*
X013635Y009988D03*
X013635Y009983D03*
X013635Y009978D03*
X013635Y009973D03*
X013635Y009968D03*
X013635Y009963D03*
X013635Y009958D03*
X013635Y009953D03*
X013635Y009948D03*
X013635Y009943D03*
X013635Y009938D03*
X013635Y009933D03*
X013635Y009928D03*
X013635Y009923D03*
X013635Y009918D03*
X013635Y009913D03*
X013635Y009908D03*
X013635Y009903D03*
X013635Y009898D03*
X013635Y009893D03*
X013635Y009888D03*
X013635Y009883D03*
X013635Y009878D03*
X013635Y009873D03*
X013635Y009868D03*
X013635Y009863D03*
X013635Y009858D03*
X013635Y009853D03*
X013635Y009848D03*
X013635Y009843D03*
X013635Y009838D03*
X013635Y009833D03*
X013635Y009828D03*
X013635Y009823D03*
X013635Y009818D03*
X013635Y009813D03*
X013635Y009808D03*
X013635Y009803D03*
X013635Y009798D03*
X013635Y009793D03*
X013635Y009788D03*
X013635Y009783D03*
X013635Y009778D03*
X013635Y009773D03*
X013635Y009768D03*
X013635Y009763D03*
X013635Y009758D03*
X013635Y009753D03*
X013635Y009748D03*
X013635Y009743D03*
X013635Y009738D03*
X013635Y009733D03*
X013635Y009728D03*
X013635Y009723D03*
X013635Y009718D03*
X012250Y011873D03*
X010175Y009993D03*
X010170Y009978D03*
X010170Y009973D03*
X010165Y009963D03*
X009480Y009983D03*
X009480Y009993D03*
D40*
X011050Y009718D03*
X012660Y009718D03*
X014560Y010843D03*
X014860Y010613D03*
X016720Y009898D03*
X016720Y009893D03*
X015675Y012813D03*
X012570Y012163D03*
D41*
X012630Y012208D03*
X011050Y010828D03*
X014550Y009723D03*
X016720Y009978D03*
X016720Y009983D03*
D42*
X016720Y009933D03*
X016720Y009928D03*
X012660Y009723D03*
X011050Y009723D03*
X012595Y012183D03*
X013635Y013983D03*
D43*
X012563Y012158D03*
X014233Y009948D03*
X014863Y009953D03*
X009818Y009723D03*
D44*
X012653Y012223D03*
X013653Y013953D03*
X014548Y009728D03*
D45*
X014563Y010833D03*
X013903Y012343D03*
X012618Y012198D03*
X012658Y009728D03*
X009818Y009738D03*
D46*
X009815Y010808D03*
X011050Y009728D03*
X012625Y012203D03*
X016720Y009973D03*
X016720Y009968D03*
X016720Y009963D03*
D47*
X016718Y009913D03*
X014848Y010618D03*
X014243Y009943D03*
X012658Y010838D03*
X012583Y012173D03*
X013918Y012338D03*
X013633Y013988D03*
X009818Y009728D03*
D48*
X009820Y009758D03*
X009820Y010783D03*
X011050Y009743D03*
X012660Y009743D03*
X014545Y009733D03*
X014560Y010818D03*
X013870Y012348D03*
X013655Y013943D03*
X016720Y010043D03*
X016720Y010038D03*
X016720Y010033D03*
X018190Y010343D03*
X018190Y010353D03*
D49*
X016720Y009993D03*
X016720Y009988D03*
X012660Y009733D03*
X011050Y009733D03*
D50*
X009818Y009733D03*
X012603Y012188D03*
X014258Y009938D03*
X016718Y009938D03*
D51*
X016723Y010068D03*
X018178Y010313D03*
X018178Y010378D03*
X014548Y009738D03*
X012693Y012248D03*
X013663Y013933D03*
X009818Y009768D03*
D52*
X009820Y010793D03*
X011050Y009738D03*
X012660Y009738D03*
X014560Y010823D03*
X016720Y010018D03*
X016720Y010013D03*
D53*
X018168Y010293D03*
X018168Y010398D03*
X014563Y010808D03*
X014548Y009743D03*
X012708Y012258D03*
X013668Y013923D03*
D54*
X013648Y013963D03*
X012638Y012213D03*
X014563Y010828D03*
X009818Y010803D03*
X009818Y009743D03*
D55*
X009818Y009783D03*
X014548Y009748D03*
X018158Y010268D03*
X018158Y010423D03*
D56*
X018180Y010373D03*
X018180Y010318D03*
X016720Y010063D03*
X016720Y010058D03*
X014560Y010813D03*
X012660Y009748D03*
X011050Y009748D03*
X009820Y010773D03*
D57*
X009820Y009748D03*
X011050Y010823D03*
X012660Y010823D03*
X012645Y012218D03*
X016720Y010008D03*
X016720Y010003D03*
X016720Y009998D03*
D58*
X016720Y010133D03*
X016720Y010138D03*
X018150Y010253D03*
X018150Y010438D03*
X014545Y009753D03*
X012660Y010793D03*
X012735Y012273D03*
X011050Y010793D03*
D59*
X011050Y009753D03*
X012660Y009753D03*
X012700Y012253D03*
X016720Y010088D03*
X016720Y010083D03*
X018170Y010298D03*
X018170Y010393D03*
D60*
X009818Y009753D03*
D61*
X011050Y010788D03*
X012660Y010788D03*
X014545Y009758D03*
X018140Y010233D03*
X018140Y010458D03*
D62*
X018163Y010408D03*
X018163Y010283D03*
X013673Y013918D03*
X012658Y009758D03*
X011053Y009758D03*
X009818Y009778D03*
D63*
X011050Y009778D03*
X012660Y009778D03*
X014545Y009763D03*
X018130Y010208D03*
X018130Y010213D03*
X018130Y010478D03*
D64*
X018153Y010433D03*
X018153Y010258D03*
X016723Y010128D03*
X014563Y010798D03*
X012658Y009763D03*
X011053Y009763D03*
X009818Y009788D03*
D65*
X009818Y009763D03*
X012683Y012243D03*
X018183Y010368D03*
X018183Y010328D03*
X018183Y010323D03*
D66*
X018120Y010498D03*
X014545Y009768D03*
X012660Y009783D03*
X011050Y009783D03*
X013690Y013883D03*
D67*
X013680Y013903D03*
X018145Y010448D03*
X018145Y010243D03*
X012660Y009768D03*
X011050Y009768D03*
D68*
X012783Y012298D03*
X014563Y010773D03*
X014548Y009773D03*
D69*
X012660Y009773D03*
X011050Y009773D03*
X018135Y010223D03*
X018135Y010468D03*
D70*
X018173Y010388D03*
X018173Y010303D03*
X013668Y013928D03*
X009818Y009773D03*
D71*
X011050Y010763D03*
X012660Y010763D03*
X014545Y009778D03*
X013700Y013868D03*
D72*
X014545Y009783D03*
D73*
X014545Y009788D03*
D74*
X012660Y009788D03*
X011050Y009788D03*
X011050Y010773D03*
X013695Y013878D03*
X018115Y010508D03*
D75*
X014563Y010753D03*
X014543Y009793D03*
D76*
X012663Y009793D03*
X011048Y009793D03*
X012793Y012303D03*
X013698Y013873D03*
D77*
X013715Y013843D03*
X014545Y009798D03*
D78*
X014990Y010133D03*
X014995Y010148D03*
X014995Y010153D03*
X014995Y010158D03*
X015000Y010168D03*
X015000Y010173D03*
X015000Y010178D03*
X015000Y010383D03*
X015000Y010388D03*
X015000Y010393D03*
X015000Y010398D03*
X015000Y010403D03*
X014995Y010408D03*
X014995Y010413D03*
X014995Y010418D03*
X014995Y010423D03*
X014990Y010433D03*
X014990Y010438D03*
X014145Y010453D03*
X014145Y010458D03*
X014140Y010443D03*
X014140Y010438D03*
X014140Y010433D03*
X014140Y010428D03*
X014135Y010423D03*
X014135Y010418D03*
X014135Y010413D03*
X014135Y010408D03*
X014130Y010398D03*
X014130Y010393D03*
X014130Y010388D03*
X014130Y010383D03*
X012875Y010758D03*
X012870Y009798D03*
X011265Y010758D03*
X010835Y010758D03*
X010840Y009798D03*
X009815Y010853D03*
X012455Y012068D03*
D79*
X012448Y012063D03*
X012443Y010758D03*
X012448Y009798D03*
X011263Y009798D03*
X009958Y010353D03*
X014133Y010403D03*
X015758Y012803D03*
X013598Y014048D03*
D80*
X014565Y010743D03*
X014545Y009803D03*
D81*
X014213Y009988D03*
X012888Y009803D03*
X012893Y010753D03*
X012428Y012043D03*
X012433Y012048D03*
X010818Y010753D03*
X009973Y010358D03*
X009638Y010228D03*
X010823Y009803D03*
X013593Y014058D03*
D82*
X013578Y014083D03*
X012368Y011988D03*
X012363Y011983D03*
X012163Y010563D03*
X012163Y009988D03*
X012373Y009828D03*
X012963Y009838D03*
X011548Y009988D03*
X011548Y009993D03*
X011338Y009828D03*
X010748Y009838D03*
X010033Y009803D03*
X009593Y010208D03*
X009633Y010758D03*
X010753Y010723D03*
X011548Y010563D03*
X014563Y010868D03*
D83*
X012955Y010723D03*
X012370Y010728D03*
X012165Y010573D03*
X012165Y010568D03*
X012165Y009983D03*
X011545Y009983D03*
X011545Y010568D03*
X011340Y010728D03*
X010005Y010758D03*
X010020Y010378D03*
X009605Y009803D03*
D84*
X012503Y012108D03*
X014203Y010563D03*
X014208Y010568D03*
X014923Y010563D03*
X014928Y010558D03*
X014928Y010008D03*
X014923Y010003D03*
X016718Y009808D03*
X013608Y014028D03*
D85*
X013723Y013833D03*
X014563Y010738D03*
X014543Y009808D03*
D86*
X012903Y009808D03*
X010808Y009808D03*
X013973Y012308D03*
X013588Y014063D03*
D87*
X013573Y014088D03*
X013993Y012293D03*
X012353Y011973D03*
X012353Y010718D03*
X012158Y010548D03*
X012158Y010003D03*
X012358Y009838D03*
X012978Y009848D03*
X012983Y009853D03*
X012973Y010713D03*
X011553Y010548D03*
X011358Y010718D03*
X010738Y010713D03*
X011553Y010003D03*
X011353Y009838D03*
X010733Y009848D03*
X010728Y009853D03*
X010043Y009808D03*
X009593Y009808D03*
X009583Y010203D03*
X009623Y010753D03*
X015818Y012793D03*
D88*
X014560Y010853D03*
X014915Y010573D03*
X014920Y010568D03*
X014920Y009998D03*
X014215Y009968D03*
X014210Y010573D03*
X014215Y010578D03*
X016720Y009813D03*
X009815Y010843D03*
X009705Y010253D03*
D89*
X014545Y009813D03*
D90*
X012918Y010743D03*
X012178Y010603D03*
X012178Y010598D03*
X012178Y009953D03*
X012403Y009813D03*
X011533Y009953D03*
X011308Y009813D03*
X011533Y010598D03*
X011533Y010603D03*
X009998Y010368D03*
X012398Y012018D03*
D91*
X012343Y011963D03*
X012338Y010708D03*
X012153Y010533D03*
X012153Y010528D03*
X012153Y010018D03*
X012348Y009843D03*
X012998Y009863D03*
X013003Y009868D03*
X012993Y010698D03*
X012988Y010703D03*
X014218Y010013D03*
X011558Y010018D03*
X011368Y009848D03*
X011363Y009843D03*
X010713Y009863D03*
X010053Y009813D03*
X009583Y009813D03*
X010043Y010393D03*
X009613Y010748D03*
X010718Y010698D03*
X010723Y010703D03*
X011373Y010708D03*
X011558Y010533D03*
X011558Y010528D03*
D92*
X014545Y009818D03*
D93*
X014215Y009998D03*
X012925Y009818D03*
X012175Y009958D03*
X012175Y010593D03*
X012400Y010743D03*
X012930Y010738D03*
X012395Y012013D03*
X011310Y010743D03*
X011535Y010593D03*
X011535Y009958D03*
X010785Y009818D03*
X010780Y010738D03*
X009990Y010763D03*
X009610Y010218D03*
X013580Y014073D03*
D94*
X012388Y012008D03*
X012383Y012003D03*
X012388Y010738D03*
X012173Y010588D03*
X012173Y009963D03*
X012393Y009818D03*
X012933Y009823D03*
X011538Y009963D03*
X011318Y009818D03*
X010778Y009823D03*
X011538Y010588D03*
X011323Y010738D03*
X009648Y010763D03*
D95*
X009608Y010743D03*
X010043Y010738D03*
X010693Y010678D03*
X010698Y010683D03*
X011393Y010693D03*
X011563Y010518D03*
X011563Y010513D03*
X011563Y010038D03*
X011563Y010033D03*
X011383Y009858D03*
X010703Y009873D03*
X010068Y009823D03*
X009578Y009818D03*
X012148Y010033D03*
X012148Y010038D03*
X012328Y009858D03*
X013008Y009873D03*
X012148Y010513D03*
X012148Y010518D03*
X012318Y010693D03*
X013013Y010683D03*
X013018Y010678D03*
X012333Y011953D03*
X013568Y014098D03*
D96*
X013730Y013818D03*
X012875Y012333D03*
X014545Y009823D03*
D97*
X012953Y009833D03*
X012943Y009828D03*
X012383Y009823D03*
X012168Y009973D03*
X012168Y009978D03*
X012168Y010578D03*
X012378Y010733D03*
X012948Y010728D03*
X012373Y011993D03*
X012378Y011998D03*
X011333Y010733D03*
X011543Y010578D03*
X011543Y010573D03*
X011543Y009978D03*
X011328Y009823D03*
X010758Y009833D03*
X010763Y010728D03*
X013988Y012298D03*
D98*
X014000Y012288D03*
X012325Y011948D03*
X012320Y011943D03*
X013025Y010673D03*
X013030Y010668D03*
X012145Y010508D03*
X012145Y010503D03*
X012145Y010048D03*
X012145Y010043D03*
X012320Y009863D03*
X013015Y009878D03*
X013020Y009883D03*
X013025Y009888D03*
X014220Y010018D03*
X011565Y010043D03*
X011565Y010048D03*
X011390Y009863D03*
X010695Y009878D03*
X010690Y009883D03*
X010685Y009888D03*
X010055Y010403D03*
X009815Y010868D03*
X009600Y010738D03*
X009560Y010188D03*
X009570Y009823D03*
X010680Y010668D03*
X010685Y010673D03*
X011565Y010508D03*
X011565Y010503D03*
X015840Y012788D03*
D99*
X013733Y013813D03*
X014563Y010713D03*
X014543Y009828D03*
D100*
X014900Y009978D03*
X014215Y009963D03*
X016720Y009838D03*
X016720Y009833D03*
X013940Y012328D03*
X012525Y012128D03*
X013615Y014018D03*
X009815Y010838D03*
X009890Y010328D03*
D101*
X014543Y009833D03*
X014563Y010708D03*
D102*
X014215Y010008D03*
X012970Y009843D03*
X012365Y009833D03*
X012160Y009993D03*
X012160Y009998D03*
X012160Y010553D03*
X012160Y010558D03*
X012360Y010723D03*
X012965Y010718D03*
X012355Y011978D03*
X011350Y010723D03*
X011550Y010558D03*
X011550Y010553D03*
X011550Y009998D03*
X011345Y009833D03*
X010740Y009843D03*
X010025Y010383D03*
X010015Y010753D03*
X010745Y010718D03*
D103*
X010670Y010658D03*
X010665Y010653D03*
X010660Y010648D03*
X010655Y010643D03*
X010060Y010723D03*
X010055Y010728D03*
X010065Y010413D03*
X010090Y009843D03*
X010085Y009838D03*
X009555Y009833D03*
X010665Y009908D03*
X011570Y010063D03*
X011570Y010068D03*
X011570Y010483D03*
X011570Y010488D03*
X011420Y010668D03*
X011415Y010673D03*
X011410Y010678D03*
X012140Y010488D03*
X012140Y010483D03*
X012290Y010668D03*
X012295Y010673D03*
X012300Y010678D03*
X013040Y010658D03*
X013045Y010653D03*
X013050Y010648D03*
X013055Y010643D03*
X013050Y009913D03*
X013045Y009908D03*
X012305Y009873D03*
X012140Y010063D03*
X012140Y010068D03*
X012310Y011933D03*
X012315Y011938D03*
X013565Y014103D03*
D104*
X013738Y013803D03*
X014563Y010703D03*
X014543Y009838D03*
D105*
X014223Y010023D03*
X013063Y009923D03*
X013058Y009918D03*
X012303Y009878D03*
X012298Y009883D03*
X012138Y010073D03*
X012138Y010078D03*
X012138Y010468D03*
X012138Y010473D03*
X012138Y010478D03*
X011573Y010478D03*
X011573Y010473D03*
X011573Y010468D03*
X011573Y010078D03*
X011573Y010073D03*
X011413Y009883D03*
X011408Y009878D03*
X010658Y009913D03*
X010653Y009918D03*
X010648Y009923D03*
X010648Y010638D03*
X010078Y010423D03*
X010073Y010418D03*
X009588Y010728D03*
X009583Y010723D03*
X009578Y010718D03*
X009543Y010173D03*
X009538Y010168D03*
X009553Y009838D03*
X012308Y011928D03*
X013058Y010638D03*
X013063Y010633D03*
X013068Y010628D03*
X013073Y010623D03*
X014003Y012283D03*
D106*
X012530Y012133D03*
X012660Y010848D03*
X014240Y010598D03*
X016720Y009853D03*
X016720Y009848D03*
X016720Y009843D03*
X017685Y009873D03*
X017690Y009878D03*
X017720Y009913D03*
X017725Y009918D03*
X017730Y009923D03*
X017735Y009928D03*
X017740Y009933D03*
X017755Y009953D03*
X017760Y009958D03*
X017765Y009963D03*
X017770Y009968D03*
X017775Y009973D03*
X017780Y009978D03*
X017785Y009983D03*
X017790Y009988D03*
X017790Y009993D03*
X017795Y009998D03*
X017800Y010003D03*
X017805Y010008D03*
X017810Y010013D03*
X017815Y010018D03*
X017820Y010023D03*
X017825Y010028D03*
X017840Y010048D03*
X017845Y010053D03*
X017850Y010058D03*
X017855Y010063D03*
X017860Y010068D03*
X017865Y010073D03*
X017890Y010103D03*
X017895Y010108D03*
X017900Y010113D03*
X017940Y010158D03*
X013615Y014013D03*
X011050Y010848D03*
X009735Y010263D03*
D107*
X013743Y013798D03*
X014563Y010698D03*
X014543Y009843D03*
D108*
X013075Y009938D03*
X013070Y009933D03*
X013065Y009928D03*
X012290Y009888D03*
X012285Y009893D03*
X012280Y009898D03*
X012135Y010083D03*
X012135Y010088D03*
X012135Y010093D03*
X012135Y010458D03*
X012135Y010463D03*
X012275Y010653D03*
X012280Y010658D03*
X012285Y010663D03*
X013075Y010618D03*
X013080Y010613D03*
X013085Y010608D03*
X011575Y010463D03*
X011575Y010458D03*
X011440Y010648D03*
X011435Y010653D03*
X011430Y010658D03*
X011425Y010663D03*
X011575Y010093D03*
X011575Y010088D03*
X011575Y010083D03*
X011430Y009898D03*
X011425Y009893D03*
X011420Y009888D03*
X010645Y009928D03*
X010640Y009933D03*
X010635Y009938D03*
X010105Y009858D03*
X010100Y009853D03*
X010095Y009848D03*
X009545Y009843D03*
X009540Y009848D03*
X010080Y010428D03*
X010085Y010433D03*
X010075Y010708D03*
X010070Y010713D03*
X010065Y010718D03*
X010625Y010608D03*
X010635Y010623D03*
X010640Y010628D03*
X010645Y010633D03*
X012300Y011923D03*
X013560Y014108D03*
D109*
X014563Y010693D03*
X014543Y009848D03*
D110*
X014543Y009853D03*
X014563Y010688D03*
X012913Y012343D03*
X013748Y013788D03*
D111*
X012298Y011918D03*
X012268Y010648D03*
X012133Y010453D03*
X012133Y010448D03*
X012133Y010443D03*
X012133Y010103D03*
X012133Y010098D03*
X011578Y010098D03*
X011578Y010103D03*
X011578Y010443D03*
X011578Y010448D03*
X011578Y010453D03*
X010633Y010618D03*
X010628Y010613D03*
X010623Y010603D03*
X010618Y010598D03*
X010088Y010438D03*
X009573Y010713D03*
X009568Y010708D03*
X009533Y010163D03*
X009528Y010158D03*
X009523Y010153D03*
X009538Y009853D03*
X010618Y009963D03*
X010623Y009958D03*
X010623Y009953D03*
X010628Y009948D03*
X010633Y009943D03*
X013078Y009943D03*
X013083Y009948D03*
X013088Y009953D03*
X013088Y009958D03*
X013093Y009963D03*
X013093Y010598D03*
X013088Y010603D03*
D112*
X014563Y010683D03*
X014543Y009858D03*
D113*
X012990Y009858D03*
X012155Y010008D03*
X012155Y010013D03*
X012155Y010538D03*
X012155Y010543D03*
X012345Y010713D03*
X012660Y010868D03*
X012980Y010708D03*
X012345Y011968D03*
X011365Y010713D03*
X011555Y010543D03*
X011555Y010538D03*
X011555Y010013D03*
X011555Y010008D03*
X010720Y009858D03*
X010035Y010388D03*
X010025Y010748D03*
X010730Y010708D03*
X011050Y010868D03*
X009575Y010198D03*
D114*
X009520Y010148D03*
X009530Y009858D03*
X010110Y009863D03*
X010115Y009868D03*
X010120Y009873D03*
X010600Y009988D03*
X010605Y009983D03*
X010605Y009978D03*
X010610Y009973D03*
X010615Y009968D03*
X010595Y010563D03*
X010600Y010573D03*
X010605Y010578D03*
X010605Y010583D03*
X010610Y010588D03*
X010615Y010593D03*
X010095Y010448D03*
X010090Y010443D03*
X010085Y010698D03*
X010080Y010703D03*
X009565Y010703D03*
X009560Y010698D03*
X011445Y010643D03*
X011450Y010638D03*
X011455Y010633D03*
X011580Y010438D03*
X011580Y010433D03*
X011580Y010428D03*
X011580Y010118D03*
X011580Y010113D03*
X011580Y010108D03*
X011445Y009913D03*
X011440Y009908D03*
X011435Y009903D03*
X012130Y010108D03*
X012130Y010113D03*
X012130Y010118D03*
X012265Y009913D03*
X012270Y009908D03*
X012275Y009903D03*
X013095Y009968D03*
X013100Y009973D03*
X013105Y009978D03*
X013105Y009983D03*
X013110Y009988D03*
X013115Y010563D03*
X013110Y010573D03*
X013105Y010578D03*
X013105Y010583D03*
X013100Y010588D03*
X013095Y010593D03*
X012265Y010643D03*
X012260Y010638D03*
X012255Y010633D03*
X012130Y010438D03*
X012130Y010433D03*
X012130Y010428D03*
X012285Y011908D03*
X012290Y011913D03*
X014225Y010028D03*
D115*
X014543Y009863D03*
X014563Y010678D03*
D116*
X013133Y010533D03*
X013128Y010543D03*
X013123Y010548D03*
X013123Y010553D03*
X013118Y010558D03*
X013113Y010568D03*
X013138Y010038D03*
X013133Y010028D03*
X013128Y010018D03*
X013123Y010008D03*
X013118Y010003D03*
X013118Y009998D03*
X013113Y009993D03*
X012263Y009918D03*
X012258Y009923D03*
X012253Y009928D03*
X012128Y010123D03*
X012128Y010128D03*
X012128Y010133D03*
X012128Y010138D03*
X012128Y010408D03*
X012128Y010413D03*
X012128Y010418D03*
X012128Y010423D03*
X012248Y010623D03*
X012253Y010628D03*
X011583Y010423D03*
X011583Y010418D03*
X011583Y010413D03*
X011583Y010408D03*
X011463Y010623D03*
X011458Y010628D03*
X011583Y010138D03*
X011583Y010133D03*
X011583Y010128D03*
X011583Y010123D03*
X011458Y009928D03*
X011453Y009923D03*
X011448Y009918D03*
X010598Y009993D03*
X010593Y009998D03*
X010593Y010003D03*
X010588Y010008D03*
X010583Y010018D03*
X010578Y010028D03*
X010133Y009893D03*
X010128Y009883D03*
X010123Y009878D03*
X009528Y009863D03*
X009523Y009868D03*
X009518Y009873D03*
X009508Y010128D03*
X009513Y010133D03*
X009513Y010138D03*
X009518Y010143D03*
X010098Y010453D03*
X010098Y010678D03*
X010093Y010683D03*
X010093Y010688D03*
X010088Y010693D03*
X010578Y010533D03*
X010583Y010543D03*
X010588Y010548D03*
X010588Y010553D03*
X010593Y010558D03*
X010598Y010568D03*
X009558Y010693D03*
X009553Y010688D03*
X012283Y011903D03*
X014013Y012278D03*
X013558Y014113D03*
D117*
X013753Y013778D03*
X014563Y010673D03*
X014543Y009868D03*
D118*
X014543Y009873D03*
X014563Y010663D03*
D119*
X014263Y010613D03*
X014868Y010608D03*
X014223Y009953D03*
X016718Y009878D03*
X012558Y012153D03*
X013623Y014003D03*
X009828Y010303D03*
X009818Y010298D03*
X009783Y010283D03*
X009773Y010278D03*
D120*
X014545Y009878D03*
D121*
X013155Y010078D03*
X013145Y010053D03*
X013140Y010043D03*
X013135Y010033D03*
X013130Y010023D03*
X013125Y010013D03*
X013155Y010483D03*
X013150Y010493D03*
X013145Y010508D03*
X013140Y010513D03*
X013140Y010518D03*
X013135Y010523D03*
X013135Y010528D03*
X013130Y010538D03*
X012245Y010618D03*
X012240Y010613D03*
X012125Y010403D03*
X012125Y010398D03*
X012125Y010393D03*
X012125Y010158D03*
X012125Y010153D03*
X012125Y010148D03*
X012125Y010143D03*
X012240Y009943D03*
X012245Y009938D03*
X012250Y009933D03*
X011585Y010143D03*
X011585Y010148D03*
X011585Y010153D03*
X011585Y010158D03*
X011585Y010388D03*
X011585Y010393D03*
X011585Y010398D03*
X011585Y010403D03*
X011470Y010613D03*
X011465Y010618D03*
X011470Y009943D03*
X011465Y009938D03*
X011460Y009933D03*
X010585Y010013D03*
X010580Y010023D03*
X010575Y010033D03*
X010575Y010038D03*
X010570Y010043D03*
X010565Y010053D03*
X010140Y009908D03*
X010140Y009903D03*
X010135Y009898D03*
X010130Y009888D03*
X009515Y009883D03*
X009515Y009878D03*
X009510Y009888D03*
X009500Y010113D03*
X009505Y010123D03*
X010100Y010458D03*
X010105Y010463D03*
X010105Y010468D03*
X010105Y010663D03*
X010100Y010673D03*
X010565Y010508D03*
X010570Y010518D03*
X010575Y010528D03*
X010580Y010538D03*
X009550Y010678D03*
X009550Y010683D03*
X009545Y010673D03*
X012275Y011898D03*
X015865Y012783D03*
D122*
X013625Y013998D03*
X012660Y010843D03*
X011050Y010843D03*
X009815Y010828D03*
X009805Y010293D03*
X009795Y010288D03*
X016720Y009888D03*
X016720Y009883D03*
D123*
X014545Y009883D03*
D124*
X014545Y009888D03*
X014565Y010648D03*
D125*
X014543Y009893D03*
D126*
X014228Y010033D03*
X013168Y010113D03*
X013163Y010098D03*
X013158Y010088D03*
X013158Y010083D03*
X013153Y010073D03*
X013153Y010068D03*
X013148Y010063D03*
X013148Y010058D03*
X013143Y010048D03*
X013168Y010448D03*
X013163Y010463D03*
X013163Y010468D03*
X013158Y010473D03*
X013158Y010478D03*
X013153Y010488D03*
X013148Y010498D03*
X013148Y010503D03*
X012123Y010388D03*
X012123Y010383D03*
X012123Y010378D03*
X012123Y010373D03*
X012123Y010368D03*
X012123Y010183D03*
X012123Y010178D03*
X012123Y010173D03*
X012123Y010168D03*
X012123Y010163D03*
X012238Y009948D03*
X011588Y010163D03*
X011588Y010168D03*
X011588Y010173D03*
X011588Y010178D03*
X011588Y010183D03*
X011588Y010363D03*
X011588Y010368D03*
X011588Y010373D03*
X011588Y010378D03*
X011588Y010383D03*
X011473Y009948D03*
X010568Y010048D03*
X010563Y010058D03*
X010563Y010063D03*
X010558Y010068D03*
X010558Y010073D03*
X010553Y010083D03*
X010553Y010088D03*
X010548Y010098D03*
X010548Y010463D03*
X010553Y010473D03*
X010553Y010478D03*
X010558Y010488D03*
X010558Y010493D03*
X010563Y010498D03*
X010563Y010503D03*
X010568Y010513D03*
X010573Y010523D03*
X010113Y010483D03*
X010113Y010478D03*
X010108Y010473D03*
X010113Y010648D03*
X010108Y010658D03*
X010103Y010668D03*
X009543Y010668D03*
X009543Y010663D03*
X009538Y010658D03*
X009503Y010118D03*
X009498Y010108D03*
X009498Y010103D03*
X009493Y010098D03*
X009493Y010093D03*
X009498Y009913D03*
X009503Y009903D03*
X009503Y009898D03*
X009508Y009893D03*
X010143Y009913D03*
X010148Y009918D03*
X010148Y009923D03*
X010153Y009928D03*
X012273Y011893D03*
X013558Y014118D03*
D127*
X014563Y010638D03*
X014543Y009898D03*
D128*
X014545Y009903D03*
X013765Y013753D03*
D129*
X013770Y013748D03*
X014565Y010628D03*
X014545Y009908D03*
D130*
X013180Y010153D03*
X013180Y010158D03*
X013180Y010163D03*
X013180Y010168D03*
X013185Y010183D03*
X013185Y010188D03*
X013185Y010193D03*
X013185Y010198D03*
X013190Y010228D03*
X013190Y010233D03*
X013190Y010238D03*
X013190Y010308D03*
X013190Y010318D03*
X013190Y010323D03*
X013190Y010328D03*
X013190Y010333D03*
X013190Y010338D03*
X013185Y010363D03*
X013185Y010368D03*
X013185Y010373D03*
X013185Y010378D03*
X013180Y010393D03*
X013180Y010398D03*
X013180Y010403D03*
X013175Y010413D03*
X013175Y010418D03*
X013175Y010423D03*
X013175Y010428D03*
X013170Y010433D03*
X013170Y010438D03*
X013170Y010443D03*
X013165Y010453D03*
X013165Y010458D03*
X013175Y010148D03*
X013175Y010143D03*
X013175Y010138D03*
X013175Y010133D03*
X013170Y010128D03*
X013170Y010123D03*
X013170Y010118D03*
X013165Y010108D03*
X013165Y010103D03*
X013160Y010093D03*
X012120Y010188D03*
X012120Y010193D03*
X012120Y010198D03*
X012120Y010203D03*
X012120Y010208D03*
X012120Y010213D03*
X012120Y010218D03*
X012120Y010328D03*
X012120Y010333D03*
X012120Y010338D03*
X012120Y010343D03*
X012120Y010348D03*
X012120Y010353D03*
X012120Y010358D03*
X012120Y010363D03*
X011590Y010358D03*
X011590Y010353D03*
X011590Y010348D03*
X011590Y010343D03*
X011590Y010338D03*
X011590Y010333D03*
X011590Y010328D03*
X011590Y010223D03*
X011590Y010218D03*
X011590Y010213D03*
X011590Y010208D03*
X011590Y010203D03*
X011590Y010198D03*
X011590Y010193D03*
X011590Y010188D03*
X010555Y010078D03*
X010550Y010093D03*
X010545Y010103D03*
X010545Y010108D03*
X010545Y010113D03*
X010540Y010118D03*
X010540Y010123D03*
X010540Y010128D03*
X010535Y010138D03*
X010535Y010143D03*
X010535Y010148D03*
X010530Y010158D03*
X010530Y010163D03*
X010530Y010168D03*
X010525Y010188D03*
X010525Y010193D03*
X010525Y010198D03*
X010520Y010228D03*
X010520Y010233D03*
X010520Y010238D03*
X010520Y010323D03*
X010520Y010328D03*
X010520Y010333D03*
X010525Y010363D03*
X010525Y010368D03*
X010525Y010373D03*
X010530Y010393D03*
X010530Y010398D03*
X010530Y010403D03*
X010535Y010413D03*
X010535Y010418D03*
X010535Y010423D03*
X010540Y010433D03*
X010540Y010438D03*
X010540Y010443D03*
X010545Y010448D03*
X010545Y010453D03*
X010545Y010458D03*
X010550Y010468D03*
X010555Y010483D03*
X010120Y010503D03*
X010120Y010508D03*
X010120Y010513D03*
X010115Y010498D03*
X010115Y010493D03*
X010115Y010488D03*
X010125Y010583D03*
X010120Y010618D03*
X010120Y010623D03*
X010120Y010628D03*
X010115Y010633D03*
X010115Y010638D03*
X010115Y010643D03*
X010110Y010653D03*
X009535Y010653D03*
X009535Y010648D03*
X009530Y010643D03*
X009530Y010638D03*
X009525Y010623D03*
X009490Y010088D03*
X009490Y010083D03*
X009485Y010078D03*
X009485Y010073D03*
X009485Y010068D03*
X009485Y009953D03*
X009490Y009933D03*
X009490Y009928D03*
X009495Y009923D03*
X009495Y009918D03*
X009500Y009908D03*
X010155Y009933D03*
X010155Y009938D03*
X010160Y009948D03*
X012265Y011888D03*
X014015Y012273D03*
D131*
X014545Y009918D03*
X014545Y009913D03*
D132*
X014845Y009943D03*
X016720Y009923D03*
X016720Y009918D03*
X012590Y012178D03*
X011050Y010838D03*
D133*
X014545Y009923D03*
X013775Y013738D03*
D134*
X014545Y009933D03*
X014545Y009928D03*
D135*
X014853Y009948D03*
X014273Y010618D03*
X013628Y013993D03*
D136*
X013640Y013973D03*
X016720Y009958D03*
X016720Y009953D03*
D137*
X017828Y010033D03*
X017833Y010038D03*
X017838Y010043D03*
X017868Y010078D03*
X017873Y010083D03*
X017878Y010088D03*
X017883Y010093D03*
X017888Y010098D03*
X017903Y010118D03*
X017908Y010123D03*
X017913Y010128D03*
X017918Y010133D03*
X017923Y010138D03*
X017928Y010143D03*
X017933Y010148D03*
X017938Y010153D03*
X017943Y010163D03*
X017948Y010168D03*
X017953Y010173D03*
X017958Y010178D03*
X017963Y010183D03*
X017968Y010188D03*
X017973Y010193D03*
X014893Y009973D03*
X014898Y010588D03*
X014893Y010593D03*
D138*
X012248Y011868D03*
X012243Y011863D03*
X010173Y009988D03*
X010173Y009983D03*
D139*
X009820Y010788D03*
X011050Y010818D03*
X012660Y010818D03*
X012660Y012228D03*
X013655Y013948D03*
X016720Y010028D03*
X016720Y010023D03*
D140*
X014230Y010043D03*
X014020Y012268D03*
X013550Y014128D03*
D141*
X013660Y013938D03*
X012660Y010813D03*
X011050Y010813D03*
X009820Y010778D03*
X016720Y010053D03*
X016720Y010048D03*
X018185Y010333D03*
X018185Y010363D03*
D142*
X017020Y010493D03*
X017010Y010468D03*
X017005Y010458D03*
X017000Y010443D03*
X016995Y010433D03*
X016990Y010423D03*
X016990Y010418D03*
X016985Y010408D03*
X016980Y010398D03*
X016980Y010393D03*
X016975Y010383D03*
X016970Y010373D03*
X016970Y010368D03*
X016965Y010363D03*
X016965Y010358D03*
X016965Y010353D03*
X016960Y010348D03*
X016960Y010343D03*
X016955Y010338D03*
X016955Y010333D03*
X016955Y010328D03*
X016950Y010323D03*
X016950Y010318D03*
X016945Y010313D03*
X016945Y010308D03*
X016940Y010298D03*
X016940Y010293D03*
X016935Y010288D03*
X016935Y010283D03*
X016930Y010273D03*
X016925Y010263D03*
X016925Y010258D03*
X016920Y010253D03*
X016920Y010248D03*
X016915Y010238D03*
X016910Y010228D03*
X016910Y010223D03*
X016905Y010213D03*
X016900Y010198D03*
X016895Y010188D03*
X016885Y010163D03*
X016565Y010148D03*
X016560Y010163D03*
X016555Y010173D03*
X016550Y010188D03*
X016545Y010198D03*
X016535Y010223D03*
X014965Y010063D03*
X014960Y010053D03*
X014955Y010048D03*
X014960Y010513D03*
X014955Y010518D03*
X014180Y010533D03*
X014175Y010523D03*
X009680Y010243D03*
D143*
X014238Y010053D03*
D144*
X014240Y010058D03*
X012185Y011803D03*
D145*
X012173Y011788D03*
X012168Y011783D03*
X012163Y011778D03*
X014243Y010063D03*
X013538Y014153D03*
D146*
X015950Y012763D03*
X014245Y010068D03*
X012160Y011773D03*
X012155Y011768D03*
D147*
X012660Y010808D03*
X011050Y010808D03*
X009820Y010768D03*
X016720Y010078D03*
X016720Y010073D03*
X018175Y010308D03*
X018175Y010383D03*
D148*
X014248Y010073D03*
X012143Y011753D03*
X012138Y011748D03*
D149*
X012660Y010803D03*
X011050Y010803D03*
X016720Y010103D03*
X016720Y010098D03*
X016720Y010093D03*
X018165Y010288D03*
X018165Y010403D03*
D150*
X018160Y010413D03*
X018160Y010418D03*
X018160Y010278D03*
X018160Y010273D03*
X016720Y010113D03*
X016720Y010108D03*
X014560Y010803D03*
X012715Y012263D03*
D151*
X012725Y012268D03*
X012660Y010798D03*
X011050Y010798D03*
X013675Y013913D03*
X018155Y010428D03*
X018155Y010263D03*
X016720Y010123D03*
X016720Y010118D03*
D152*
X014563Y010183D03*
X014563Y010188D03*
X014568Y010373D03*
X013818Y013668D03*
D153*
X014565Y010368D03*
X014565Y010363D03*
X014565Y010358D03*
X014565Y010353D03*
X014565Y010348D03*
X014565Y010343D03*
X014565Y010338D03*
X014565Y010333D03*
X014565Y010328D03*
X014565Y010238D03*
X014565Y010233D03*
X014565Y010228D03*
X014565Y010223D03*
X014565Y010218D03*
X014565Y010213D03*
X014565Y010208D03*
X014565Y010203D03*
X014565Y010198D03*
X014565Y010193D03*
D154*
X012660Y010778D03*
X011050Y010778D03*
X018125Y010488D03*
X018125Y010198D03*
D155*
X018128Y010203D03*
X018128Y010483D03*
X014563Y010783D03*
X012763Y012288D03*
X013688Y013888D03*
D156*
X013688Y013893D03*
X014563Y010788D03*
X012658Y010783D03*
X011053Y010783D03*
X018133Y010473D03*
X018133Y010218D03*
D157*
X012905Y010748D03*
X012660Y010863D03*
X012410Y012028D03*
X012415Y012033D03*
X011050Y010863D03*
X010805Y010748D03*
X009985Y010363D03*
X009625Y010223D03*
D158*
X012753Y012283D03*
X013683Y013898D03*
X018138Y010463D03*
X018138Y010228D03*
D159*
X018143Y010238D03*
X018143Y010453D03*
X014563Y010793D03*
X012743Y012278D03*
D160*
X014568Y010323D03*
X014568Y010318D03*
X014568Y010313D03*
X014568Y010308D03*
X014568Y010243D03*
D161*
X018148Y010248D03*
X018148Y010443D03*
X013678Y013908D03*
D162*
X013820Y013663D03*
X014565Y010303D03*
X014565Y010298D03*
X014565Y010293D03*
X014565Y010288D03*
X014565Y010283D03*
X014565Y010278D03*
X014565Y010273D03*
X014565Y010268D03*
X014565Y010263D03*
X014565Y010258D03*
X014565Y010253D03*
X014565Y010248D03*
D163*
X012678Y012238D03*
X018188Y010358D03*
X018188Y010338D03*
D164*
X018193Y010348D03*
X012668Y012233D03*
D165*
X014565Y010378D03*
D166*
X012773Y012293D03*
X018123Y010493D03*
D167*
X018118Y010503D03*
X014563Y010778D03*
X012658Y010773D03*
D168*
X012830Y012318D03*
X013710Y013848D03*
X015665Y010848D03*
X015665Y010843D03*
X015665Y010838D03*
X015665Y010833D03*
X015665Y010828D03*
X015665Y010823D03*
X015665Y010818D03*
X015665Y010813D03*
X015665Y010808D03*
X015665Y010803D03*
X015665Y010798D03*
X015665Y010793D03*
X015665Y010788D03*
X015665Y010783D03*
X015665Y010778D03*
X015665Y010773D03*
X015665Y010768D03*
X015665Y010763D03*
X015665Y010758D03*
X015665Y010753D03*
X015665Y010748D03*
X015665Y010743D03*
X015665Y010738D03*
X015665Y010733D03*
X015665Y010728D03*
X015665Y010723D03*
X015665Y010718D03*
X015665Y010713D03*
X015665Y010708D03*
X015665Y010703D03*
X015665Y010698D03*
X015665Y010693D03*
X015665Y010688D03*
X015665Y010683D03*
X015665Y010678D03*
X015665Y010673D03*
X015665Y010668D03*
X015665Y010663D03*
X015665Y010658D03*
X015665Y010653D03*
X015665Y010648D03*
X015665Y010643D03*
X015665Y010638D03*
X015665Y010633D03*
X015665Y010628D03*
X015665Y010623D03*
X015665Y010613D03*
D169*
X015668Y010618D03*
X014563Y010748D03*
D170*
X014563Y010838D03*
X014288Y010623D03*
X009818Y010818D03*
D171*
X014563Y010633D03*
D172*
X014565Y010643D03*
X013765Y013758D03*
D173*
X013763Y013763D03*
X014563Y010653D03*
D174*
X014563Y010658D03*
X012938Y012348D03*
X013758Y013768D03*
D175*
X013755Y013773D03*
X014565Y010668D03*
D176*
X014563Y010718D03*
D177*
X014563Y010723D03*
D178*
X014563Y010728D03*
X013728Y013823D03*
D179*
X013723Y013828D03*
X012858Y012328D03*
X014563Y010733D03*
D180*
X014563Y010758D03*
X012818Y012313D03*
D181*
X012808Y012308D03*
X013703Y013863D03*
X014563Y010763D03*
D182*
X014563Y010768D03*
D183*
X012660Y010768D03*
X011050Y010768D03*
D184*
X009818Y010798D03*
X013648Y013958D03*
D185*
X012608Y012193D03*
X009818Y010813D03*
D186*
X012658Y010828D03*
X013643Y013968D03*
D187*
X012238Y011858D03*
X012233Y011853D03*
X012228Y011848D03*
X011048Y010873D03*
X014563Y010873D03*
D188*
X012128Y011738D03*
X012123Y011733D03*
X012118Y011728D03*
X013528Y014168D03*
D189*
X013530Y014163D03*
X014040Y012243D03*
X012130Y011743D03*
X015965Y012758D03*
D190*
X012150Y011763D03*
X012145Y011758D03*
D191*
X012178Y011793D03*
X012183Y011798D03*
X014033Y012253D03*
X013538Y014148D03*
D192*
X013543Y014143D03*
X014028Y012258D03*
X015928Y012768D03*
X012193Y011808D03*
D193*
X012195Y011813D03*
X012200Y011818D03*
X012205Y011823D03*
D194*
X012210Y011828D03*
X012215Y011833D03*
X013545Y014138D03*
D195*
X013593Y014053D03*
X012438Y012053D03*
D196*
X014038Y012248D03*
X013533Y014158D03*
D197*
X013718Y013838D03*
X012843Y012323D03*
D198*
X012890Y012338D03*
D199*
X013308Y012353D03*
D200*
X013310Y012358D03*
X013315Y012363D03*
X013320Y012368D03*
D201*
X013323Y012373D03*
X013328Y012378D03*
X013943Y013448D03*
D202*
X013335Y012388D03*
X013330Y012383D03*
D203*
X013338Y012393D03*
X013343Y012398D03*
X013348Y012403D03*
X013948Y013443D03*
D204*
X013355Y012413D03*
X013350Y012408D03*
D205*
X013358Y012418D03*
X013363Y012423D03*
D206*
X013365Y012428D03*
X013370Y012433D03*
X013375Y012438D03*
X013950Y013438D03*
D207*
X013953Y013433D03*
X013383Y012448D03*
X013378Y012443D03*
D208*
X013385Y012453D03*
D209*
X013393Y012458D03*
D210*
X013395Y012463D03*
X013400Y012468D03*
X013405Y012473D03*
X013955Y013428D03*
D211*
X013408Y012478D03*
D212*
X013415Y012483D03*
D213*
X013418Y012488D03*
X013423Y012493D03*
X013428Y012498D03*
X013958Y013423D03*
D214*
X013438Y012508D03*
X013433Y012503D03*
D215*
X013440Y012513D03*
D216*
X013448Y012518D03*
X013963Y013413D03*
D217*
X013455Y012528D03*
X013450Y012523D03*
D218*
X013463Y012533D03*
X013968Y013408D03*
D219*
X013470Y012543D03*
X013465Y012538D03*
D220*
X013475Y012548D03*
X013480Y012553D03*
X013970Y013403D03*
D221*
X013488Y012558D03*
D222*
X013490Y012563D03*
X013970Y013398D03*
D223*
X013498Y012568D03*
D224*
X013500Y012573D03*
X013975Y013393D03*
D225*
X013508Y012578D03*
D226*
X013510Y012583D03*
D227*
X013518Y012588D03*
X013978Y013388D03*
D228*
X013525Y012593D03*
D229*
X013530Y012598D03*
X013535Y012603D03*
D230*
X013540Y012608D03*
D231*
X013548Y012613D03*
X013988Y013373D03*
D232*
X013550Y012618D03*
D233*
X013558Y012623D03*
D234*
X013565Y012628D03*
X013990Y013368D03*
D235*
X013990Y013363D03*
X013570Y012633D03*
D236*
X013578Y012638D03*
D237*
X013583Y012643D03*
D238*
X013590Y012648D03*
D239*
X013595Y012653D03*
D240*
X013603Y012658D03*
X014003Y013348D03*
D241*
X013610Y012663D03*
D242*
X013615Y012668D03*
D243*
X013625Y012673D03*
D244*
X013630Y012678D03*
X014010Y013333D03*
D245*
X013638Y012683D03*
D246*
X013648Y012688D03*
X014013Y013328D03*
D247*
X013653Y012693D03*
D248*
X013663Y012698D03*
X014018Y013318D03*
D249*
X014023Y013313D03*
X013668Y012703D03*
D250*
X013678Y012708D03*
D251*
X013685Y012713D03*
X014025Y013303D03*
D252*
X014030Y013298D03*
X013695Y012718D03*
D253*
X013705Y012723D03*
D254*
X013713Y012728D03*
D255*
X013723Y012733D03*
X014038Y013283D03*
D256*
X013730Y012738D03*
D257*
X013743Y012743D03*
D258*
X013750Y012748D03*
X014050Y013263D03*
D259*
X013765Y012753D03*
D260*
X013775Y012758D03*
D261*
X013785Y012763D03*
D262*
X013800Y012768D03*
D263*
X013810Y012773D03*
D264*
X013828Y012778D03*
X014078Y013213D03*
D265*
X013838Y012783D03*
D266*
X013858Y012788D03*
D267*
X013875Y012793D03*
D268*
X013893Y012798D03*
D269*
X013915Y012803D03*
D270*
X013943Y012808D03*
X014128Y013128D03*
D271*
X013983Y012813D03*
D272*
X014305Y012818D03*
D273*
X014305Y012823D03*
D274*
X014303Y012828D03*
D275*
X014298Y012833D03*
D276*
X014295Y012838D03*
D277*
X014293Y012843D03*
D278*
X014290Y012848D03*
D279*
X014288Y012853D03*
D280*
X014285Y012858D03*
D281*
X014283Y012863D03*
D282*
X014278Y012868D03*
D283*
X014275Y012873D03*
D284*
X014273Y012878D03*
D285*
X014270Y012883D03*
D286*
X014268Y012888D03*
D287*
X014263Y012893D03*
D288*
X014263Y012898D03*
D289*
X014258Y012903D03*
D290*
X014255Y012908D03*
D291*
X014250Y012913D03*
D292*
X014250Y012918D03*
D293*
X014248Y012923D03*
D294*
X014243Y012928D03*
D295*
X014243Y012933D03*
D296*
X014238Y012938D03*
D297*
X014235Y012943D03*
D298*
X014230Y012948D03*
D299*
X014230Y012953D03*
D300*
X014228Y012958D03*
D301*
X014223Y012963D03*
D302*
X014220Y012968D03*
D303*
X014218Y012973D03*
D304*
X014215Y012978D03*
D305*
X014213Y012983D03*
D306*
X014208Y012988D03*
D307*
X014208Y012993D03*
D308*
X014203Y012998D03*
D309*
X014200Y013003D03*
D310*
X014198Y013008D03*
D311*
X014195Y013013D03*
D312*
X014193Y013018D03*
D313*
X014188Y013023D03*
D314*
X014188Y013028D03*
D315*
X014183Y013033D03*
D316*
X014180Y013038D03*
D317*
X014178Y013043D03*
D318*
X014175Y013048D03*
D319*
X014173Y013053D03*
D320*
X014168Y013058D03*
D321*
X014168Y013063D03*
D322*
X014163Y013068D03*
D323*
X014160Y013073D03*
D324*
X014155Y013078D03*
D325*
X014155Y013083D03*
D326*
X014153Y013088D03*
D327*
X014148Y013093D03*
D328*
X014145Y013098D03*
D329*
X014143Y013103D03*
D330*
X014140Y013108D03*
D331*
X014138Y013113D03*
D332*
X014133Y013118D03*
D333*
X014133Y013123D03*
D334*
X014125Y013133D03*
D335*
X014123Y013138D03*
D336*
X014120Y013143D03*
D337*
X014118Y013148D03*
D338*
X014113Y013153D03*
D339*
X014113Y013158D03*
D340*
X014108Y013163D03*
D341*
X014105Y013168D03*
D342*
X014100Y013173D03*
D343*
X014100Y013178D03*
D344*
X014098Y013183D03*
D345*
X014093Y013188D03*
D346*
X014090Y013193D03*
D347*
X014088Y013198D03*
D348*
X014085Y013203D03*
D349*
X014083Y013208D03*
D350*
X014078Y013218D03*
D351*
X014073Y013223D03*
D352*
X014070Y013228D03*
D353*
X014068Y013233D03*
D354*
X014065Y013238D03*
D355*
X014063Y013243D03*
D356*
X014058Y013248D03*
D357*
X014058Y013253D03*
D358*
X014053Y013258D03*
D359*
X014045Y013268D03*
D360*
X014045Y013273D03*
D361*
X014043Y013278D03*
D362*
X014035Y013288D03*
D363*
X014033Y013293D03*
D364*
X014025Y013308D03*
D365*
X014015Y013323D03*
D366*
X014008Y013338D03*
D367*
X014003Y013343D03*
D368*
X013998Y013353D03*
D369*
X013995Y013358D03*
D370*
X013983Y013378D03*
D371*
X013983Y013383D03*
D372*
X013960Y013418D03*
D373*
X013940Y013453D03*
D374*
X013938Y013458D03*
D375*
X013935Y013463D03*
D376*
X013933Y013468D03*
D377*
X013928Y013473D03*
D378*
X013928Y013478D03*
D379*
X013923Y013483D03*
D380*
X013920Y013488D03*
D381*
X013915Y013493D03*
D382*
X013915Y013498D03*
D383*
X013913Y013503D03*
D384*
X013908Y013508D03*
D385*
X013908Y013513D03*
D386*
X013903Y013518D03*
D387*
X013900Y013523D03*
D388*
X013895Y013528D03*
D389*
X013895Y013533D03*
D390*
X013893Y013538D03*
D391*
X013888Y013543D03*
D392*
X013885Y013548D03*
D393*
X013883Y013553D03*
D394*
X013880Y013558D03*
D395*
X013878Y013563D03*
D396*
X013875Y013568D03*
D397*
X013873Y013573D03*
D398*
X013868Y013578D03*
D399*
X013865Y013583D03*
D400*
X013863Y013588D03*
D401*
X013860Y013593D03*
D402*
X013858Y013598D03*
D403*
X013853Y013603D03*
D404*
X013853Y013608D03*
D405*
X013848Y013613D03*
D406*
X013845Y013618D03*
D407*
X013840Y013623D03*
D408*
X013840Y013628D03*
D409*
X013838Y013633D03*
D410*
X013833Y013638D03*
D411*
X013833Y013643D03*
D412*
X013828Y013648D03*
D413*
X013825Y013653D03*
D414*
X013820Y013658D03*
D415*
X013813Y013673D03*
D416*
X013810Y013678D03*
D417*
X013808Y013683D03*
D418*
X013805Y013688D03*
D419*
X013803Y013693D03*
D420*
X013798Y013698D03*
D421*
X013798Y013703D03*
D422*
X013793Y013708D03*
D423*
X013790Y013713D03*
D424*
X013788Y013718D03*
D425*
X013785Y013723D03*
D426*
X013783Y013728D03*
D427*
X013778Y013733D03*
D428*
X013773Y013743D03*
D429*
X013750Y013783D03*
D430*
X013745Y013793D03*
D431*
X013735Y013808D03*
D432*
X013710Y013853D03*
D433*
X013708Y013858D03*
M02*
