%
M48
M72
T01C0.0236
T02C0.0335
T03C0.0374
T04C0.0400
T05C0.1180
T06C0.1260
%
T01
X6530Y6833
X8280Y4833
X10030Y6583
X10780Y5583
X12530Y6583
X13480Y5033
X14780Y4783
X14780Y4083
X15580Y5133
X15030Y6583
X12520Y3593
X7780Y9833
X6280Y10583
X5530Y12083
X6280Y13333
X5280Y14083
X3530Y15333
X2030Y15333
X2030Y18333
X3530Y18333
X6180Y18333
X6880Y19633
X5720Y21023
X10780Y18333
X10780Y14933
X11780Y14933
X12780Y14933
X13780Y14933
X14780Y14933
X15780Y14933
X19280Y14583
X20530Y14583
X21780Y14583
X22780Y14333
X24480Y15233
X25680Y15233
X23780Y17833
X22905Y18458
X25030Y10583
X26280Y10533
X25430Y8693
X23530Y9833
X21780Y7333
X21780Y6233
X20280Y5083
X20280Y3583
X10530Y12083
X9530Y11833
X8530Y11833
X8530Y12583
X7030Y12083
X3530Y11833
X2030Y11833
X4780Y8833
X3780Y7833
X2030Y7833
T02
X12280Y2333
X13280Y2333
X14280Y2333
X15280Y2333
X16280Y2333
X17280Y2333
X18280Y2333
X19280Y2333
X21280Y2333
X22280Y2333
X23280Y2333
X24280Y2333
X25280Y2333
X26280Y2333
X25780Y7043
X25780Y8224
X25280Y21333
X24280Y21333
X23280Y21333
X22280Y21333
X21280Y21333
X20280Y21333
X19280Y21333
X17680Y21333
X16680Y21333
X15680Y21333
X14680Y21333
X13680Y21333
X12680Y21333
X11680Y21333
X10680Y21333
X9680Y21333
X8680Y21333
X26280Y21333
T03
X26330Y13333
X27330Y13333
X27330Y12333
X26330Y12333
X26330Y11333
X27330Y11333
T04
X20280Y7833
X19280Y7833
X18280Y7833
X17280Y7833
X16280Y7833
X15280Y7833
X14280Y7833
X13280Y7833
X12280Y7833
X11280Y7833
X10280Y7833
X9280Y7833
X8280Y7833
X7280Y7833
X7280Y15833
X8280Y15833
X9280Y15833
X10280Y15833
X11280Y15833
X12280Y15833
X13280Y15833
X14280Y15833
X15280Y15833
X16280Y15833
X17280Y15833
X18280Y15833
X19280Y15833
X20280Y15833
T05
X4713Y2563
X5894Y4413
X3531Y4413
T06
X6780Y2333
X27280Y4333
X27280Y15333
X7280Y21333
M30
